<svg xmlns="http://www.w3.org/2000/svg" height="160" width="189" version="1.1" data-name="Слой 1" id="Слой_1"><defs id="defs4"><style id="style2"/></defs><path id="path20" d="M100.572 144.58a.465.465 0 00.183-.669.544.544 0 00-.712-.188.495.495 0 00-.188.668.55.55 0 00.717.188zM29.557 43.311a.371.371 0 00-.371.366.376.376 0 00.37.371.371.371 0 00.367-.37.366.366 0 00-.366-.367zm18.597 50.706l.317.148c1.168-2.474 4.162-4.167 7.448-4.167a8.7 8.7 0 016.434 2.682l.257-.232a9.032 9.032 0 00-6.716-2.801c-3.395 0-6.512 1.757-7.74 4.37zM9.88 129.9h.352v-4.973H9.88zM147.715 19.518a.737.737 0 10.737.737.737.737 0 00-.737-.737zm-73.738-4.231c0-.035-2.474-3.509.307-6.726 1.227-1.425 3.128-1.598 5.142-1.781 2.573-.233 5.236-.495 6.547-3.464l-.193-.084c-1.262 2.87-3.86 3.102-6.374 3.335-1.98.178-3.999.361-5.28 1.85-2.88 3.341-.342 6.954-.317 6.989zM31.328 42.283a.445.445 0 00.159.876.445.445 0 10-.159-.876zm-11.614 8.764c-.035-.064-3.004-6.236 0-11.085 2.474-3.96 8.076-5.939 16.712-5.939 14.52 0 21.482-3.088 24.744-5.671 3.578-2.826 3.692-5.612 3.697-5.731h-.208c0 .03-.12 2.806-3.623 5.567-3.251 2.569-10.17 5.627-24.63 5.627-8.715 0-14.396 2.034-16.89 6.038-3.083 4.949-.06 11.229-.03 11.293zm7.725-7.75a.366.366 0 00-.367.366.366.366 0 10.733 0 .366.366 0 00-.366-.351zm74.445 102.188a.346.346 0 00.341-.366.371.371 0 00-.351-.371.351.351 0 00-.342.37.361.361 0 00.352.367zm39.268-125.868a.445.445 0 10.159.876.445.445 0 00-.159-.876zM102.651 144.18a.465.465 0 00-.03-.629.4.4 0 00-.594 0 .495.495 0 00.03.629.406.406 0 00.594 0zm-67.2-101.11a.445.445 0 00.158.876.445.445 0 10-.158-.876zm107.592-23.106a.534.534 0 10.747-.108.53.53 0 00-.747.108zm-67.645-9.402c-1.619 2.049-.99 4.691-.99 4.8l.252 1.044.411-.99a4.949 4.949 0 014.592-2.731c7.394 0 10.838-2.153 10.838-6.775v-.99l-.623.772S87.695 8.3 81.465 8.3c-2.84.01-4.885.772-6.067 2.272zm4.275 1.42a5.637 5.637 0 00-4.681 2.242 4.949 4.949 0 01.96-3.232c1.044-1.321 2.9-1.98 5.518-1.98 4.716 0 7.22-1.4 8.299-2.246-.262 2.588-1.994 5.226-10.096 5.226zM24.207 97.427h1.905v-1.905h-1.905zm.703-1.202h.495v.495h-.495zm8.294-53.581a.53.53 0 00.109.747.534.534 0 10-.109-.747zM145.116 18.89a.628.628 0 10.881-.13.624.624 0 00-.886.135zm.174 1.484a.445.445 0 10.158.876.445.445 0 00-.158-.876zm-92.602 38.24c-5.405 0-5.593 3.959-5.598 3.998h.213c0-.034.183-3.795 5.385-3.795 5.938 0 8.12-2.341 8.12-3.92h-.212c0 1.49-2.089 3.717-7.908 3.717zm45.31 84.718a.371.371 0 00.461-.227.351.351 0 00-.252-.436.361.361 0 00-.456.228.351.351 0 00.248.435zm41.393-122.7a.371.371 0 10.37.37.366.366 0 00-.37-.37zM99.2 143.639a.287.287 0 10-.272-.321.297.297 0 00.272.321zm-2.588.297a.327.327 0 00.025-.495.381.381 0 00-.52-.03.327.327 0 00-.025.495.381.381 0 00.52.03zM40.538 43.342a.737.737 0 10-.737-.738.737.737 0 00.737.738zm-1.707-1.648a.628.628 0 10-.119-.896.628.628 0 00.119.896zm123.958-10.73a.371.371 0 00.366-.37.366.366 0 00-.366-.367.371.371 0 00-.372.367.376.376 0 00.372.37zm9.754 19.855c-2.88 3.34-.342 6.929-.317 6.988l.173-.124c-.025-.034-2.474-3.513.302-6.73 1.227-1.42 3.128-1.594 5.142-1.777 2.573-.232 5.236-.495 6.547-3.464l-.188-.084c-1.267 2.87-3.865 3.103-6.379 3.336-1.965.183-4.008.366-5.28 1.855zm-35.265-30.187a.371.371 0 100 .737.371.371 0 000-.737zm23.046 13.629c-5.038 0-5.468 1.836-5.483 1.915l.208.044s.435-1.747 5.275-1.747c5.513 0 12.372 0 14.688-6.483l-.208-.059c-2.256 6.33-8.75 6.33-14.48 6.33zM35.278 41.57a.628.628 0 10.88-.129.633.633 0 00-.88.129zm59.578 108.978v.702h1.391l-.08-.702h-1.039zM42.231 43.608a.45.45 0 00.356-.519.445.445 0 00-.876.159.45.45 0 00.52.36zm48.765 101.229a.406.406 0 00.594 0 .465.465 0 00-.03-.629.406.406 0 00-.593 0 .465.465 0 00.03.629zm-8.294-133.48a.54.54 0 00-.114-.752.53.53 0 00-.747.11.54.54 0 00.861.643zM45.586 105.88c-2.267 0-3.197.876-3.237.915l.243.253s.886-.817 2.994-.817zm47.415 37.799a.42.42 0 00.455-.401.445.445 0 00-.44-.436.43.43 0 00-.456.406.44.44 0 00.426.426zM86.245 10.407a.376.376 0 00.372-.37.371.371 0 00-.372-.367.366.366 0 00-.366.366.371.371 0 00.366.371zm5.211 132.06a.277.277 0 00-.054-.406.322.322 0 00-.43.044.277.277 0 00.054.406.322.322 0 00.43-.045zm6.474 8.749c.707 0 1.41-.04 2.108-.07l-.134-.697c-.678.03-1.36.05-2.049.064zm-54.8-109.25a.628.628 0 10-.88.129.628.628 0 00.88-.13zM98.494 144.9a.495.495 0 00.188-.668.554.554 0 00-.718-.188.495.495 0 00-.183.673.544.544 0 00.713.178zM80.213 10.25a.495.495 0 10.495.495.495.495 0 00-.495-.495zM39.3 134.731h.351v-11.01H39.3zm-10.22-4.478h3.91v-5.662h-3.91zm.703-4.95h2.495v4.257h-2.475zM16.19 113.052l5.34-1.861-.114-.332-5.34 1.861zM172.973 9.497v-.723l-.574.436c-1.168.876-7.79 5.24-23.497 5.24-8.724 0-14.54 1.92-17.286 5.706a9.294 9.294 0 00-1.425 7.458l.173.753.45-.629c.94-1.297 4.662-5.533 13.16-5.533 19.72 0 28.85-6.587 29-12.708zm-28.985 12c-7.755 0-11.714 3.44-13.233 5.207a8.571 8.571 0 011.445-6.142c2.603-3.593 8.23-5.414 16.717-5.414 14.045 0 20.87-3.37 23.29-4.949-.867 5.736-10.581 11.299-28.219 11.299zm-8.829 13.857v.213c.075 0 7.448-.07 10.556-5.84l-.188-.098c-3.043 5.636-10.313 5.725-10.368 5.725zm17.975 1.658l.415-.99a5.32 5.32 0 014.989-2.969c7.962 0 11.674-2.316 11.674-7.29v-.99l-.624.773c0 .03-2.36 2.826-9.115 2.826-3.064 0-5.266.821-6.538 2.434-1.737 2.203-1.079 5.043-1.049 5.162zm1.35-5.76c1.134-1.44 3.148-2.168 5.989-2.168 5.166 0 7.868-1.559 9.001-2.474-.262 2.835-2.098 5.74-10.936 5.74a6.122 6.122 0 00-5.088 2.475 5.444 5.444 0 011.035-3.593zm-135.567 98.65h.351v-4.974h-.351zm138.839-97.918a.376.376 0 00.37-.371.371.371 0 00-.37-.366.366.366 0 00-.367.366.371.371 0 00.367.371zm-137.79 98.269h3.9v-5.662H19.96zm.698-4.95h2.509v4.257h-2.51zm7.423 4.608h.351v-4.983h-.351zm5.3-24.026c-2.266 0-3.197.876-3.236.915l.242.253s.886-.817 2.994-.817zm122.414-86.679a.54.54 0 10.752-.109.54.54 0 00-.752.11zM63.154 31.455l-.579.435c-1.168.876-7.784 5.24-23.492 5.24-8.73 0-14.544 1.921-17.29 5.707a9.284 9.284 0 00-1.426 7.453l.173.757.455-.629c.936-1.296 4.657-5.537 13.154-5.537 19.711 0 28.842-6.582 28.985-12.704zM34.15 44.183c-7.76 0-11.714 3.44-13.233 5.201a8.561 8.561 0 011.465-6.112c2.608-3.592 8.23-5.419 16.722-5.419 14.04 0 20.864-3.365 23.29-4.948-.916 5.706-10.601 11.278-28.244 11.278zm121.162-26.15a.366.366 0 10.371.367.366.366 0 00-.371-.367zm6.597 13.625a.536.536 0 10-.861-.639.53.53 0 00.109.747.54.54 0 00.752-.094zm-2.475-.144a.495.495 0 10-.495-.495.495.495 0 00.48.51zm1.099-.935a.366.366 0 00.366-.367.366.366 0 10-.732 0 .366.366 0 00.351.382zm-6.384-11.432a.495.495 0 10.495.495.495.495 0 00-.51-.48zM10.845 130.253h3.91v-5.662h-3.91zm.703-4.95h2.504v4.257h-2.504zm18.256-13.336h.347v-3.647h-.347zm122.102-91.914a.445.445 0 00.159.876.445.445 0 10-.159-.876zm12.18 11.342a.435.435 0 00.356-.495.443.443 0 10-.871.159.435.435 0 00.514.336zM33.371 106.954c-1.836 0-2.38 1.059-2.405 1.103l-.034.074v4.548h4.88v-4.548l-.036-.074c-.034-.044-.574-1.103-2.405-1.103zm-.178 5.028H31.63v-1.134h1.564zm0-1.485H31.63v-1.252h1.564zm0-1.603H31.63v-.58a1.98 1.98 0 011.564-.648zm1.915 3.088h-1.563v-1.134h1.563zm0-1.485h-1.563v-1.252h1.563zm0-1.603h-1.563v-1.228a1.98 1.98 0 011.563.649zm69.249 34.473a.371.371 0 00-.351-.371.351.351 0 00-.342.371.366.366 0 00.352.371.351.351 0 00.341-.371zM78.55 10.932a.366.366 0 10.366.366.366.366 0 00-.366-.366zm23.185 140.135c.738-.04 1.485-.089 2.192-.143l-.188-.698c-.707.054-1.42.1-2.137.144zm-59.742-39.095h.347v-3.647h-.347zm4.83-69.442a.534.534 0 10-.856-.638.54.54 0 00.109.752.53.53 0 00.747-.119zm-8.947-.317a.737.737 0 10.737.738.732.732 0 00-.737-.743zm10.852 0a.371.371 0 00.372-.366.376.376 0 00-.372-.371.371.371 0 00-.366.371.366.366 0 00.366.361zm101.649-23.017a.737.737 0 10.732.733.732.732 0 00-.732-.738zm-46.435 126.022a.465.465 0 00-.03-.629.406.406 0 00-.593 0 .495.495 0 00.03.634.406.406 0 00.593-.005zM44.294 42.812a.495.495 0 10-.495-.495.495.495 0 00.495.495zm1.183-1.35a.366.366 0 00.366-.367.371.371 0 00-.366-.371.376.376 0 00-.371.37.371.371 0 00.371.367zm106.484-22.934a.628.628 0 10.88-.128.633.633 0 00-.88.128zm-2.544-.495a.628.628 0 10.129.876.633.633 0 00-.129-.876zm-19.87 10.393c-.03-.064-3.003-6.236 0-11.085 2.475-3.96 8.082-5.939 16.718-5.939 14.52 0 21.477-3.083 24.744-5.671C174.592 2.91 174.705.119 174.71 0h-.212c0 .03-.114 2.806-3.618 5.567-3.256 2.569-10.17 5.627-24.63 5.627-8.715 0-14.401 2.034-16.896 6.038-3.078 4.949-.054 11.229-.024 11.293zm-19.572 20.988c0-.03-1.717-3.212 0-6.434 1.925-3.627 7.225-5.879 15.757-6.68v-.213c-8.606.811-13.966 3.098-15.925 6.794-1.757 3.321 0 6.597 0 6.632zm-64.404 57.54c-1.836 0-2.38 1.059-2.405 1.103l-.035.074v4.548h4.88v-4.548l-.04-.074c-.02-.044-.569-1.103-2.4-1.103zm-.178 5.028h-1.564v-1.134h1.564zm0-1.485h-1.564v-1.252h1.564zm0-1.603h-1.564v-.58a1.98 1.98 0 011.564-.648zm1.915 3.088h-1.564v-1.134h1.564zm0-1.485h-1.564v-1.252h1.564zm0-1.603h-1.564v-1.228a1.98 1.98 0 011.564.649zm111.26-90.098a.366.366 0 10.366.366.366.366 0 00-.367-.366zm6.883 11.926a.371.371 0 00.371-.37.371.371 0 10-.37.37zm-65.448 117.604l2.143 11.382.703-.044-2.138-11.383zm50.018-6.651a.4.4 0 00-.233.539.465.465 0 00.584.242.4.4 0 00.233-.544.465.465 0 00-.584-.237zm.123-2.094a.289.289 0 10-.143.56.289.289 0 10.143-.56zm27.823-3.518h-24.898a.173.173 0 00-.173.173.173.173 0 00.173.173h24.898a.173.173 0 00.173-.173.173.173 0 00-.173-.173zm-4.014 1.529h-18.157a.178.178 0 000 .351h18.157a.178.178 0 000-.351zm-23.893.559a.292.292 0 00-.366.198.297.297 0 00.223.356.292.292 0 00.366-.198.297.297 0 00-.223-.356zm1.158-.9a.287.287 0 10-.168.544.289.289 0 10.144-.56zm-.212 1.642a.289.289 0 10-.144.56.289.289 0 10.144-.56zm-.342 1.609a.292.292 0 00-.366.198.307.307 0 10.366-.198zm-2.583 3.726a.544.544 0 00-.47.57.465.465 0 00.524.45.54.54 0 00.47-.57.465.465 0 00-.524-.45zm-.594 2.014a.544.544 0 00-.47.57.465.465 0 00.524.45.54.54 0 00.47-.564.495.495 0 00-.544-.446zm.495-6.547a.495.495 0 00.53.455.55.55 0 00.47-.569.465.465 0 00-.525-.45.544.544 0 00-.51.574zm.579 2.692a.396.396 0 00-.233.545.46.46 0 00.58.237.396.396 0 00.237-.54.465.465 0 00-.619-.232zm.92-4.805a.495.495 0 00-.53-.455.55.55 0 00-.47.569.465.465 0 00.525.45.544.544 0 00.44-.554zm-.346 3.152a.371.371 0 00-.495.164.346.346 0 00.188.465.366.366 0 00.495-.159.361.361 0 00-.223-.44zm.678 2.678a.366.366 0 00-.495.163.346.346 0 00.188.465.366.366 0 00.495-.163.346.346 0 00-.223-.456zm-41.719-15.07h.208v-7.695h-.208zm32.346-45.86h-.213v1.895h.213zm.683 2.435h1.895a.351.351 0 00.352-.352v-2.083a.351.351 0 00-.352-.352h-1.895a.351.351 0 00-.352.352v2.083a.351.351 0 00.317.362zm.351-2.084h1.163v1.386h-1.193zm-33.157 23.507h-.208v3.88h.208zm15.233-63.236a.327.327 0 10.074.648.332.332 0 00.287-.36.322.322 0 00-.411-.278zm-5.41 105.731a39.869 39.869 0 001.98-.494l-.435-.659c-.614.159-1.243.307-1.876.456zm4.702-106.696a.495.495 0 10.173.648.495.495 0 00-.173-.648zm-2.291.643a.327.327 0 00-.287.362.322.322 0 00.36.287.327.327 0 00-.073-.649zm-8.854 72.431l-4.9 3.44.12.173 4.899-3.44zm.812.738a.356.356 0 00-.416 0l-4.533 3.31a.356.356 0 00-.124.396.346.346 0 00.332.238h1.316v8.809h6.39v-8.81h1.315a.346.346 0 00.208-.628zM110.82 128h-1.034v-.643h1.034zm0-.856h-1.034v-.89h1.034zm0-1.099h-1.034v-.89h1.034zm0-1.103h-1.034v-.891h1.034zm0-1.099h-1.034v-.896h1.034zm0-1.104h-1.034v-.885h1.034zm0-1.098h-1.034v-.891h1.034zm0-1.099h-1.034v-.648h1.034zm3.96 3.301h-.52v.208h.52v.876h-.52v.213h.52v.89h-.52v.208h.52v.891h-.52v.213h.52v.643h-1.045v-.322h-.213v.322h-1.138v-.322h-.213v.322h-1.138v-.643h.57v-.213h-.57v-.89h.57v-.209h-.57v-.89h.57v-.213h-.57v-.891h.57v-.208h-.57v-.88h1.138v.494h.213v-.495h1.138v.495h.213v-.495h1.034zm-2.599-3.093v.89h-1.138v-.89zm-1.138-.208v-.648h1.138v.648zm1.138 1.312v.885h-1.138v-.885zm1.351-1.104v.89h-1.138v-.89zm-1.138-.208v-.648h1.138v.648zm1.138 1.312v.885h-1.138v-.885zm1.247.885h-1.044v-.885h1.034zm0-1.098h-1.044v-.891h1.034zm0-1.099h-1.044v-.648h1.034zm-5.938-1.346l3.464-2.529 3.42 2.53zm3.434-17.286v-.208a1.663 1.663 0 00-1.653 1.668h.213a1.45 1.45 0 011.44-1.46zm.446 8.319h.222v-3.88h-.213zm34.428 35.3a.292.292 0 00-.079-.411.307.307 0 10.08.41zm-36.076-42.16a1.208 1.208 0 101.202-1.212 1.208 1.208 0 00-1.202 1.213zm1.707 0a.495.495 0 11-.495-.494.495.495 0 01.495.495zm.495 7.211h2.692v-4.577h-2.692zm.703-3.88h1.291v3.177h-1.291zm19.3 32.662l10.957 4.519c.143-.193.287-.386.42-.584l-10.763-4.454c-.223.183-.426.351-.659.52zm-10.784 5.261l8.676 8.735.688-.307-8.621-8.68zm3.717-1.36l10.214 7.398c.218-.134.436-.263.649-.401l-10.106-7.29c-.247.084-.505.188-.757.292zm-4.103-3.089a.297.297 0 00.104-.406.297.297 0 00-.396-.133.307.307 0 00-.108.41.302.302 0 00.4.13zm1.342-.99a.307.307 0 00-.292-.54.307.307 0 00.292.54zm7.101 11.838l.54.544a44.273 44.273 0 003.464-1.682l-.644-.46q-1.573.84-3.36 1.613zm-8.7-3.133a66.015 66.015 0 002.474-.762l-.588-.594c-.748.243-1.515.495-2.302.703zm5.939-2.875c-.743.312-1.52.619-2.326.91l.579.585q1.277-.495 2.45-.99zm-2.54 8.022l.412.619q1.95-.649 3.746-1.371l-.55-.554q-1.736.687-3.602 1.306zm-7.274-12.659a.4.4 0 00-.559.198.495.495 0 00.223.594.406.406 0 00.559-.203.495.495 0 00-.218-.589zm2.85 13.975l.317.649c.99-.258 1.925-.53 2.85-.812l-.41-.623q-1.346.415-2.751.786zm-2.741-12.372a.366.366 0 00-.45-.242.346.346 0 00-.208.455.366.366 0 00.45.243.346.346 0 00.213-.446zm17.652-5.033c-.168.208-.341.411-.53.614l11.383 2.098c.084-.217.168-.44.243-.668zm-15.34 3.529a.307.307 0 10.395.134.297.297 0 00-.381-.124zm.618-.455a.307.307 0 10-.396-.129.292.292 0 00.41.139zm-2.113 5.626l6.557 9.863.693-.227-6.533-9.824zm24.229-3.498l.653.272a13.362 13.362 0 001.416-2.504l-.703-.134a12.956 12.956 0 01-1.366 2.366zm1.405 6.883a.317.317 0 00-.143.406.277.277 0 00.39.124.322.322 0 00.144-.406.277.277 0 00-.386-.124zm-.168 1.56a.435.435 0 00-.574.212.42.42 0 00.173.58.43.43 0 00.574-.209.426.426 0 00-.168-.584zm1.485-4.573a.371.371 0 000 .494.356.356 0 00.495-.04.371.371 0 000-.494.351.351 0 00-.495.04zm-3.44 5.904a.322.322 0 00-.143.405.282.282 0 00.39.124.317.317 0 00.144-.41.282.282 0 00-.39-.12zm3.663-3.465a.391.391 0 00.252-.46.341.341 0 00-.436-.232.391.391 0 00-.252.46.341.341 0 00.46.232zm-.213 1.025a.416.416 0 00-.183.534.361.361 0 00.494.164.426.426 0 00.189-.54.366.366 0 00-.5-.158zM124.4 41.788a.43.43 0 10.495.376.42.42 0 00-.495-.376zm17.622 101.703a20.919 20.919 0 01-2.177 2.078l.648.357a21.24 21.24 0 002.207-2.153zm-6.468 5.028l.629.455a38.368 38.368 0 002.885-1.91l-.678-.376a33.023 33.023 0 01-2.836 1.85zm-3.805-5.459q-1.025.594-2.183 1.158l.683.495q1.193-.604 2.247-1.237zm-1.817-1.559l10.888 5.978.554-.494-10.714-5.89c-.243.164-.485.273-.728.406zm4.148.92a18.687 18.687 0 001.781-1.45l-.732-.301a17.84 17.84 0 01-1.757 1.36zm3.073-3.993a9.764 9.764 0 01-.733.95l.688.282a10.056 10.056 0 00.797-1.093zm-25.878-32.424h-2.687v4.572h2.687zm-.697 3.874h-1.292v-3.177h1.292zm42.218.698h2.707V106h-2.687zm.698-3.88h1.291v3.177h-1.291zm3.162 9.25a.356.356 0 00-.416 0l-4.488 3.315a.346.346 0 00.208.629h1.316v8.809h6.389v-8.81h1.316a.351.351 0 00.332-.237.356.356 0 00-.129-.396zM155.01 128h-1.034v-.643h1.034zm0-.856h-1.034v-.89h1.034zm0-1.099h-1.034v-.89h1.034zm0-1.103h-1.034v-.891h1.034zm0-1.099h-1.034v-.896h1.034zm0-1.104h-1.034v-.885h1.034zm0-1.098h-1.034v-.891h1.034zm0-1.099h-1.034v-.648h1.034zm3.96 3.301h-.57v.208h.57v.876h-.57v.213h.57v.89h-.57v.208h.57v.891h-.57v.213h.57v.643h-1.04v-.322h-.208v.322h-1.138v-.322h-.213v.322h-1.138v-.643h.495v-.213h-.495v-.89h.495v-.209h-.495v-.89h.495v-.213h-.495v-.891h.495v-.208h-.495v-.88h1.138v.494h.213v-.495h1.138v.495h.208v-.495h1.04zm-2.599-3.093v.89h-1.138v-.89zm-1.138-.208v-.648h1.138v.648zm1.138 1.312v.885h-1.138v-.885zm1.351-1.104v.89h-1.138v-.89zm-1.138-.208v-.648h1.138v.648zm1.138 1.312v.885h-1.138v-.885zm1.247.885h-1.04v-.885h1.04zm0-1.098h-1.04v-.891h1.04zm0-1.099h-1.04v-.648h1.04zm-5.938-1.346l3.424-2.529 3.464 2.53zm3.959-8.967h.207v-3.88h-.207zm0-9.403h.207v-3.88h-.207zm.495 9.75h2.692v-4.578h-2.692zm.702-3.88h1.277v3.176h-1.292zm-5.389-5.613h2.707v-4.582h-2.687zm.698-3.88h1.291v3.178h-1.291zm-1.272 3.628h.213v-3.88h-.213zm0 9.403h.213v-3.88h-.213zm-14.272-3.88h-.213v3.88h.213zm2.147 11.15a2.054 2.054 0 102.054-2.074 2.064 2.064 0 00-2.054 2.074zm2.158-1.361a1.351 1.351 0 011.237 1.252h-1.237zm0 1.484h1.237a1.351 1.351 0 01-1.237 1.252zm-.208-1.484v1.252h-1.237a1.351 1.351 0 011.237-1.242zm0 1.484v1.252a1.351 1.351 0 01-1.237-1.252zm-.99-11.615h-2.677v4.563h2.692zm-.702 3.875h-1.287v-3.177h1.287zm.796 9.942l.085-.193a2.326 2.326 0 01-.06-4.22l-.094-.189a2.539 2.539 0 00.07 4.602zm11.274 8.522h.208v-7.705h-.208zM156 115.212l-4.904 3.44.123.173 4.9-3.44zm15.316 0l-4.899 3.44.124.173 4.9-3.44zm9.784-61.469a.54.54 0 10-.752.109.54.54 0 00.772-.109zm-13.362 52.606h-.207v3.88h.207zm3.014-.346h-2.692v4.572h2.692zm-.702 3.874h-1.287V106.7h1.287zm8.541-56.277a.495.495 0 10-.495-.495.495.495 0 00.535.495zm-6.84 48.31v-.208a1.663 1.663 0 00-1.652 1.668h.252a1.45 1.45 0 011.44-1.46zm6.306-46.83c7.388 0 10.833-2.153 10.833-6.776v-.99l-.624.773c0 .024-2.177 2.603-8.413 2.603-2.845 0-4.89.762-6.072 2.266-1.618 2.049-.99 4.692-.99 4.8l.228.946h-1.663a.356.356 0 00-.282.138l-.88 1.158h-.323a.351.351 0 00-.351.352v1.301a.346.346 0 00.351.347h.253l.41 1.074a.341.341 0 00.327.227h.1l-.04 1.41h-.06a.351.351 0 00-.351.352v1.702a.346.346 0 00.336.347l-.85 27.867h-5.34v-6.642h.9V85.93h-.708a2.346 2.346 0 00.565-1.544 2.044 2.044 0 10-4.063 0 2.37 2.37 0 00.588 1.544h-.707v2.405h.851v1.233h-1.732a.346.346 0 00-.351.346v.99l-1.109-.248v-1.791a.351.351 0 00-.351-.352h-1.09l-.905-41.777a.351.351 0 00.352-.352V43.64a.351.351 0 00-.352-.352h-.05v-1.183h.105a.356.356 0 00.331-.232l.411-1.153h.247a.351.351 0 00.352-.352v-1.385a.351.351 0 00-.352-.352h-.316l-.881-1.242a.366.366 0 00-.287-.148h-5.444a.361.361 0 00-.287.148l-.886 1.242h-.312a.351.351 0 00-.35.352v1.385a.351.351 0 00.35.352h.248l.41 1.153a.351.351 0 00.332.232h.104l-.03 1.183h-.074a.346.346 0 00-.351.352v2.746a.351.351 0 00.351.352l-.876 39.699h-.594a.346.346 0 00-.346.351v1.52l-1.113-.253v-2.316a.351.351 0 00-.352-.351h-1.92V81.82h.88a.346.346 0 00.347-.352v-1.573a.346.346 0 00-.346-.352h-7.552a.351.351 0 00-.351.352v1.568a.351.351 0 00.351.352h.88v3.568h-1.924a.351.351 0 00-.352.351v2.316l-1.108.253v-1.53a.351.351 0 00-.351-.35h-.777l-.797-42.432c8.116-1.366 11.877-4.454 11.877-9.62v-.773l-.584.495c-.035.035-3.014 2.554-11.001 3.677v-1.578a.346.346 0 00-.347-.352h-.079l-.03-1.677h.11a.346.346 0 00.326-.233l.41-1.153h.253a.346.346 0 00.347-.351V31.04a.346.346 0 00-.347-.351h-.317l-.885-1.243a.346.346 0 00-.282-.148h-5.489a.337.337 0 00-.282.148l-.886 1.243h-.316a.351.351 0 00-.352.35v1.387a.351.351 0 00.352.351h.247l.416 1.153a.346.346 0 00.326.233h.11l-.03 1.677h-.08a.351.351 0 00-.351.352v2.133h-1.059c-7.304 0-12.13 1.578-14.352 4.696a7.215 7.215 0 00-.99 6.181l.248.718.386-.654c0-.044 2.752-4.454 10.704-4.454 1.906 0 3.682-.044 5.35-.128l-.792 43.846h-.9a.351.351 0 00-.352.352v1.791l-1.113.248v-.99a.346.346 0 00-.352-.347h-1.732v-1.232h.817v-2.42h-.703a2.37 2.37 0 00.564-1.544 2.044 2.044 0 10-4.068 0 2.37 2.37 0 00.564 1.544h-.707v2.405h.9v6.642h-5.36l-.855-35.182a.356.356 0 00.341-.35v-1.703a.346.346 0 00-.351-.347h-.05l-.054-2.266h.104a.356.356 0 00.327-.223l.41-1.074h.253a.351.351 0 00.351-.351V52.18a.351.351 0 00-.351-.351h-.322l-.89-1.133a.341.341 0 00-.278-.139h-3.484a.341.341 0 00-.277.139l-.886 1.158h-.322a.346.346 0 00-.346.351v1.297a.346.346 0 00.346.35h.258l.406 1.075a.356.356 0 00.326.223h.104l-.054 2.266h-.05a.346.346 0 00-.346.347v1.702a.351.351 0 00.341.351l-.86 35.181h-4.425v1.609h1.044v2.781h-1.044v1.85h1.044v33.564h.703v-.495h14.267v.841h2.598v-.841h11.175v.841h1.895v.723a.351.351 0 00.352.35h2.712v.075h.04q-.09.297-.209.594l.708.129c.09-.238.163-.495.233-.723h6.393a9.215 9.215 0 01-.272 1.896l.693.128a10.046 10.046 0 00.282-2.098h2.608a.351.351 0 00.352-.351v-.723h1.895v-.841h11.174v.841h2.599v-.841h14.272v.495h.703v-33.583h1.039v-1.85h-1.04v-2.782h1.04v-1.608h-4.424l-.852-27.867a.346.346 0 00.337-.347v-1.717a.351.351 0 00-.351-.351h-.065l-.044-1.41h.104a.346.346 0 00.326-.228l.411-1.074h.252a.346.346 0 00.352-.347v-1.301a.351.351 0 00-.352-.352h-.321l-.886-1.158a.341.341 0 00-.277-.138h-1.757l.371-.89a4.949 4.949 0 014.617-2.718zm-68.74-3.846h3.143l.456.599h-4.049zm-1.306 1.895v-.593h5.756v.593zm.653.703h4.454l-.227.599h-3.994zm3.786 4.286v.99h-3.053l.025-.99zm-2.969-.871V55.15h2.865l.05 2.093-1.485.044zm2.588 2.573c-.465.03-.99.06-1.103.06-.114 0-.644-.03-1.104-.06zm-1.103.272c.168 0 1.044-.059 1.549-.089l.054 2.336c-.495.05-1.36.134-1.603.134-.243 0-1.119-.084-1.609-.134l.055-2.336c.47.005 1.346.065 1.519.065zm0 2.589c.252 0 1.113-.08 1.608-.134l.06 2.336c-.495.07-1.342.178-1.668.178-.327 0-1.193-.109-1.673-.178l.06-2.336c.46.025 1.32.109 1.578.109zm0 2.593c.336 0 1.182-.11 1.672-.178l.055 2.335a13.441 13.441 0 01-1.727.223 13.401 13.401 0 01-1.732-.223l.054-2.335c.455.044 1.302.153 1.643.153zm0 2.588a13.644 13.644 0 001.737-.218l.054 2.336a6.265 6.265 0 01-3.588 0l.06-2.336a13.426 13.426 0 001.702.193zm0 2.593a10.393 10.393 0 001.796-.262l.06 2.336a9.081 9.081 0 01-1.856.307 8.967 8.967 0 01-1.856-.307l.054-2.336a10.393 10.393 0 001.767.237zm0 2.588a8.908 8.908 0 001.86-.296l.055 2.33a5.483 5.483 0 01-3.835 0l.059-2.33a8.819 8.819 0 001.826.272zm0 2.594a7.532 7.532 0 001.92-.342l.06 2.331a5.221 5.221 0 01-3.96 0l.06-2.33a7.532 7.532 0 001.885.316zm0 2.588a6.77 6.77 0 001.98-.376l.054 2.326a5.053 5.053 0 01-4.083 0l.054-2.326a6.775 6.775 0 001.96.351zm0 2.593a6.166 6.166 0 002.044-.416l.059 2.326a4.949 4.949 0 01-4.211 0l.059-2.326a6.2 6.2 0 002.014.391zm-2.113 2.138a5.172 5.172 0 004.22 0l.055 2.32a4.855 4.855 0 01-4.33 0zm-.06 2.553a5.063 5.063 0 004.345 0l.055 2.321a4.8 4.8 0 01-4.454 0zm-.064 2.559a5.023 5.023 0 004.454 0l.06 2.316a4.785 4.785 0 01-4.583 0zm-.064 2.559a5.043 5.043 0 004.597 0l.054 2.31a4.75 4.75 0 01-4.706 0zm-.06 2.558a5.018 5.018 0 004.716 0l.045 1.816h-4.805zm3.915 2.722h-3.113a4.538 4.538 0 01-.495-.203h4.112a4.538 4.538 0 01-.539.178zm.277.703v2.78h-.965v-2.78zm-1.668 0v2.78h-.96v-2.78zm-1.663 0v2.78h-.975v-2.78zm-5.33-.703v-.203h4.345a3.039 3.039 0 00.352.203zm3.667.703v2.78h-.994v-2.78zm-1.662 0v2.78h-.96v-2.78zm8.665 37.002h-5.018v-.495h4.983zm4.642 0h-3.96v-1.183h-6.403v1.183h-3.959v-2.36h14.268zm0-3.063h-14.302v-.446h14.267zm0-1.149h-14.302v-16.128h1.133v1.485h.58v-.208h-.347v-1.287h1.242v1.485h.624v-.208h-.411v-1.286h1.247v1.484h.668v-.208h-.46v-1.286h1.247v1.484h.712v-.208h-.494v-1.286h1.247v1.484h.752v-.207h-.544v-1.287h1.247v1.484h.796v-.207h-.584v-1.287h1.243v1.485h.846v-.208h-.634v-1.287h1.247v1.485h.886v-.208h-.678v-1.287h1.247v1.485h.926v-.208h-.718v-1.287h1.267zm0-16.825h-14.302v-.446h14.267zm0-1.149h-14.302v-10.209h14.267zm0-10.887h-15.346v-.445h15.311zm-5.939-1.148V96.61h.92v2.78zm1.668 0V96.61h.96v2.78zm1.663 0V96.61h.96v2.78zm2.623 0h-.96V96.61h.96zm0-3.464h-6.404a3.142 3.142 0 00.356-.203h5.998zm37.363-6.661h1.386v1.281l-1.386-.311zm-.054-.703h-.297a.346.346 0 00-.346.351v1.168l-1.114-.247v-1.98a.366.366 0 00-.044-.163 5.172 5.172 0 001.766-.638zm-5.939-50.592h5.103l.494.688h-6.146zm-1.316 2.074v-.733h7.735v.683zm.643.702h6.434l-.243.683h-5.938zm3.262 3.331l2.425-.044.04 1.93c-.713.03-2.272.094-2.475.094-.268 0-1.836-.065-2.544-.094l.045-1.93zm-2.475-.762l.03-1.183h4.84l.025 1.183zm4.949 3.464l.03 1.341c-.698.045-2.217.139-2.514.139-.391 0-1.896-.094-2.584-.139l.03-1.34zm-2.474 1.688c.301 0 1.816-.09 2.519-.134l.04 1.935c-.684.054-2.173.178-2.56.178-.519 0-1.979-.119-2.632-.178l.044-1.935c.629-.015 2.123.074 2.524.074zm0 2.187c.4 0 1.87-.119 2.563-.173l.04 1.93c-.673.074-2.123.223-2.608.223-.644 0-2.03-.149-2.673-.223l.04-1.93c.609-.005 2.039.114 2.573.114zm0 2.192c.494 0 1.93-.148 2.613-.222l.04 1.935c-.659.084-2.074.262-2.653.262a24.318 24.318 0 01-2.722-.262l.044-1.935c.584.015 1.95.163 2.608.163zm0 2.188c.589 0 1.98-.173 2.657-.263l.045 1.93a23.477 23.477 0 01-2.707.312 18.984 18.984 0 01-2.762-.307l.04-1.935a24.299 24.299 0 002.657.203zm0 2.187a22.314 22.314 0 002.707-.307l.044 1.935a19.221 19.221 0 01-2.751.352 15.465 15.465 0 01-2.811-.347l.044-1.935a19.365 19.365 0 002.692.243zm0 2.187a18.711 18.711 0 002.756-.346l.04 1.935a16.188 16.188 0 01-2.801.391 12.99 12.99 0 01-2.85-.381l.039-1.94a15.49 15.49 0 002.741.282zm0 2.193a15.915 15.915 0 002.806-.391l.04 1.935a13.95 13.95 0 01-2.846.43 11.219 11.219 0 01-2.9-.42l.044-1.935a13.1 13.1 0 002.776.321zm0 2.187a13.857 13.857 0 002.85-.425l.04 1.93a12.323 12.323 0 01-2.895.494 9.898 9.898 0 01-2.945-.455l.045-1.935a11.456 11.456 0 002.825.332zm0 2.188a12.278 12.278 0 002.9-.466l.04 1.935a10.996 10.996 0 01-2.94.495 8.646 8.646 0 01-2.97-.495l.04-1.93a9.962 9.962 0 002.845.401zm0 2.187a11.229 11.229 0 002.944-.495l.04 1.93a9.927 9.927 0 01-2.97.55 7.918 7.918 0 01-3.038-.525l.044-1.93a8.987 8.987 0 002.895.41zm0 2.187a10.046 10.046 0 002.969-.54l.04 1.936a9.13 9.13 0 01-3.034.584 7.31 7.31 0 01-3.078-.554l.04-1.93a8.24 8.24 0 002.978.445zm0 2.193a9.289 9.289 0 003.038-.574l.04 1.925a8.284 8.284 0 01-3.078.623 6.815 6.815 0 01-3.128-.579l.044-1.93a7.601 7.601 0 002.995.46zm-3.133 1.628a7.186 7.186 0 003.133.559 8.413 8.413 0 003.083-.609l.044 1.93a7.864 7.864 0 01-3.132.659c-1.826 0-2.762-.372-3.173-.61zm-.05 2.167a6.83 6.83 0 003.178.58 8.022 8.022 0 003.137-.639l.04 1.925a7.423 7.423 0 01-3.177.693c-1.916 0-2.826-.381-3.217-.634zm-.044 2.173c.495.267 1.42.594 3.222.594a7.591 7.591 0 003.182-.668l.04 1.92a6.928 6.928 0 01-3.227.727c-1.98 0-2.88-.386-3.262-.648zm-.05 2.172c.47.282 1.41.61 3.267.61a7.156 7.156 0 003.231-.699l.04 1.92a6.641 6.641 0 01-3.271.758c-2.059 0-2.94-.391-3.311-.664zm-.049 2.178c.47.292 1.415.623 3.316.623a6.854 6.854 0 003.276-.732l.04 1.92a6.37 6.37 0 01-3.321.787c-2.113 0-2.994-.391-3.35-.673zm-.044 2.177c.465.302 1.415.634 3.355.634a6.631 6.631 0 003.236-.832l.04 1.916a5.053 5.053 0 01-1.98.712h-2.167a.322.322 0 00-.223.09 8.824 8.824 0 01-1.237-.169v-.619a.351.351 0 00-.351-.35h-.792zm4.3 3.192v1.485l-1.38-.312v-1.148zm-2.069-.415a.391.391 0 000 .064v1.346l-1.108-.252v-1.312a8.834 8.834 0 001.02.094zm-1.826-.634v.05l-.099-.05zm-1.385 0h.876a2.281 2.281 0 00.494.267v1.371l-1.385-.312zm-3.96-1.108h1.381v1.816l-1.38-.312zm-6.433-4.95v-.885h6.785v.866zm5.553.704V87.4l-2.084-.465a.272.272 0 00-.153 0l-2.084.465v-5.592zm-6.597 4.265h1.386v1.485l-1.386.312zm-2.514 1.05v1.326l-1.38.312v-1.604l.064-.034zm-1.217-5.444a7.423 7.423 0 01-6.582 0l.04-2.296a6.998 6.998 0 003.23.697 6.928 6.928 0 003.267-.717zm-3.346-34.963c.495 0 1.98-.154 2.653-.223l.044 2.306c-.658.09-2.098.267-2.697.267-.599 0-2.019-.178-2.682-.262l.044-2.311c.683.094 2.128.223 2.638.223zm-2.638-.436l.035-1.687q2.846-.179 5.211-.535l.04 2.222c-.668.07-2.148.223-2.648.223s-1.96-.129-2.638-.203zm2.638 2.999c.614 0 2.03-.178 2.702-.267l.04 2.31a23.096 23.096 0 01-2.742.313 24.437 24.437 0 01-2.727-.307l.04-2.311c.678.109 2.083.282 2.687.282zm0 2.564a23.423 23.423 0 002.747-.307l.044 2.31a19.795 19.795 0 01-2.79.352 19.795 19.795 0 01-2.772-.346l.04-2.311a23.65 23.65 0 002.731.321zm0 2.568a19.325 19.325 0 002.796-.351l.045 2.31a16.579 16.579 0 01-2.84.397 16.583 16.583 0 01-2.817-.391l.04-2.311a19.33 19.33 0 002.776.366zm0 2.563a15.807 15.807 0 002.84-.39l.045 2.31a9.744 9.744 0 01-5.745 0l.04-2.31a15.836 15.836 0 002.82.41zm0 2.569a14.104 14.104 0 002.89-.43l.045 2.305a9.27 9.27 0 01-5.845 0l.045-2.306a14.084 14.084 0 002.865.47zm0 2.563a12.313 12.313 0 002.935-.47l.044 2.306a8.809 8.809 0 01-5.938 0l.044-2.31a12.283 12.283 0 002.915.494zm0 2.564a11.09 11.09 0 002.97-.495l.044 2.306a9.828 9.828 0 01-3.029.554 9.665 9.665 0 01-2.999-.549l.04-2.306a11.13 11.13 0 002.974.51zm0 2.568a9.962 9.962 0 003.034-.549l.04 2.306a8.17 8.17 0 01-6.117 0l.04-2.306a9.937 9.937 0 003.003.57zm0 2.564a9.18 9.18 0 003.078-.58l.045 2.302a8.245 8.245 0 01-3.123.633 8.156 8.156 0 01-3.088-.623l.04-2.306a9.061 9.061 0 003.048.594zm0 2.568a8.344 8.344 0 003.128-.618l.04 2.3a7.641 7.641 0 01-3.168.669 7.755 7.755 0 01-3.137-.653l.044-2.302a8.453 8.453 0 003.093.624zm0 2.564a7.829 7.829 0 003.172-.649l.045 2.297a7.66 7.66 0 01-6.399 0l.045-2.297a7.844 7.844 0 003.137.668zm0 2.568a7.423 7.423 0 003.222-.683l.044 2.291a7.562 7.562 0 01-6.493 0l.04-2.296a7.463 7.463 0 003.187.708zM128.01 29.99h5.102l.495.688h-6.087zm-1.317 2.073v-.668h7.735v.688zm.643.703h6.434l-.243.683h-5.948zm5.687 3.761l.03 1.376a58.012 58.012 0 01-4.984.361l.03-1.737zm-4.915-.678l.035-1.677h4.835l.035 1.677zm-6.205 8.255c-6.572 0-9.73 2.85-10.833 4.162a6.483 6.483 0 011.064-4.845c2.088-2.92 6.725-4.4 13.787-4.4 11.912 0 17.375-2.82 19.073-3.959-.297 4.365-3.662 9.042-23.091 9.042zm5.394 37.843a7.784 7.784 0 006.592 0l.044 2.292a6.137 6.137 0 01-3.36.806 6.206 6.206 0 01-3.316-.782zm-.045 2.544a7.735 7.735 0 006.686 0l.035 1.955h-.604a.351.351 0 00-.351.351v.45a6.399 6.399 0 01-1.297.297.322.322 0 00-.168-.05h-2.084a.361.361 0 00-.148.036 5.013 5.013 0 01-2.113-.728zm4.632 3.222a6.8 6.8 0 001.134-.258v1.46l-1.114.253v-1.356a.386.386 0 00-.034-.1zm-.678.46v1.148l-1.385.312v-1.485zm-3.998-1.143a5.117 5.117 0 001.935.663.371.371 0 00-.025.129v1.98l-1.108.247V88.88a.351.351 0 00-.352-.352h-.495zm-1.282 2.192h1.37v.99l-1.38.312zm-2.529 1.064v.797l-1.385.312v-1.109zm-2.707-7.423a1.559 1.559 0 11-1.331 1.544 1.45 1.45 0 011.331-1.544zm.619 51.566h-1.193V88.336h1.193zm-2.094-46.795v-.99h2.97v.99zm10.863 45.954h-4.988v-.495h4.988zm3.108 0h-2.425v-1.183h-6.384v1.183h-2.38v-2.36h11.189zm0-3.063h-11.174v-.446h11.174zm0-5.32l-1.143.638a.351.351 0 00.173.658h.99v2.88H122.01v-16.108h1.098v1.485h.58v-.208h-.352v-1.287h1.247v1.485h.624v-.208h-.411v-1.286h1.247v1.484h.663v-.208h-.455v-1.286h1.247v1.484h.712v-.208h-.494v-1.286h1.247v1.484h.752v-.207h-.544v-1.287h1.247v1.484h.796v-.207h-.584v-1.287h1.243v1.485h.846v-.208h-.634v-1.287h1.124zm0-12.634h-11.174v-.446h11.174zm0-1.149h-11.174v-7.64h1.098v1.177h.58v-.208h-.352v-.99h1.247v1.179h.624v-.208h-.411v-.99h1.247v1.178h.663v-.208h-.455v-.99h1.247v1.178h.712v-.208h-.494v-.99h1.247v1.178h.752v-.208h-.544v-.99h1.247v1.178h.796v-.208h-.584v-.99h1.243v1.179h.846v-.208h-.634v-.99h1.124zm0-8.343h-11.174v-.42h11.174zm0-1.148h-11.174V94.29h1.098v1.33h.58v-.212h-.352V94.29h1.247v1.33h.624v-.212h-.411V94.29h1.247v1.33h.663v-.212h-.455V94.29h1.247v1.33h.712v-.212h-.494V94.29h1.247v1.33h.752v-.212h-.544V94.29h1.247v1.33h.796v-.212h-.584V94.29h1.243v1.33h.846v-.212h-.634V94.29h1.124zm0-8.344h-8.363l1.979-.445h6.384zm0-1.148h-3.212l3.212-.718zm1.895 41.99h-1.192v-7.918h1.192zm4.33 1.149h-.564v-7.226h.565zm.723 0h-.495v-7.226h.495zm.718 0h-.495v-7.226h.495zm.717 0h-.495v-7.226h.495zm.723 0h-.495v-7.226h.495zm.717 0h-.494v-7.226h.494zm.718 0h-.495v-7.226h.495zm.718 0h-.495v-7.226h.495zm.752 0h-.54v-7.226h.54zm3.088-.075h-2.39v-7.853h-7.75v7.853h-2.36v-9.001h12.5zm1.895-1.073h-1.192v-7.919h1.192zm-16.618-8.631l8.522-4.751 8.438 4.75zm.327-.99V91.563l1.192-.267v32.855zm8.145-34.226c-3.464 0-4.75 1.534-5.028 1.935h-1.222v-1.386l6.25-1.395 6.25 1.395v1.386h-1.222c-.277-.396-1.558-1.93-5.028-1.93zm4.093 1.935h-1.222v-.747a3.959 3.959 0 011.222.752zm-1.435-.821v.821h-1.168v-1.113a6.275 6.275 0 011.168.296zm-1.38-.327v1.148h-1.169v-1.242a9.225 9.225 0 011.168.099zm-1.381-.08v1.228h-1.173v-1.143a9.309 9.309 0 011.173-.1zm-1.381.115v1.113h-1.173v-.821a6.755 6.755 0 011.173-.288zm-1.376.366v.737h-1.217a4.103 4.103 0 011.217-.737zm9.12 1.435v.45h-12.51v-.45zM136.7 94.369v1.252h.579v-.213h-.371v-1.04h1.276v1.253h.624v-.213h-.41v-1.04h1.246v1.253h.663v-.213h-.455v-1.04h1.247v1.253h.713v-.213h-.495v-1.04h1.242v1.253h.757v-.213h-.544v-1.04h1.247v1.253h.797v-.213h-.59v-1.04h1.248v1.253h.846v-.213h-.633v-1.04h1.247v1.253h.886v-.213h-.678v-1.04h1.158v7.563h-12.516v-7.562zm11.565 8.349v.36h-12.48v-.36zm-11.565 1.064v1.177h.579v-.208h-.371v-.99h1.276v1.179h.624v-.208h-.41v-.99h1.246v1.178h.663v-.208h-.455v-.99h1.247v1.178h.713v-.208h-.495v-.99h1.242v1.178h.757v-.208h-.544v-.99h1.247v1.178h.797v-.207h-.59v-.99h1.248v1.178h.846v-.208h-.633v-.99h1.247v1.178h.886v-.208h-.678v-.99h1.158v7.641h-12.516v-7.482zm11.565 8.343v.446h-12.48v-.446zm-11.565 1.148v1.485h.579v-.208h-.371v-1.287h1.276v1.485h.624v-.208h-.41v-1.286h1.246v1.484h.663v-.208h-.455v-1.286h1.247v1.484h.713v-.208h-.495v-1.286h1.242v1.484h.757v-.207h-.544v-1.287h1.247v1.484h.797v-.207h-.59v-1.287h1.248v1.485h.846v-.208h-.633v-1.287h1.247v1.485h.886v-.208h-.678v-1.287h1.158v10.462l-6.028-3.395a.351.351 0 00-.341 0l-6.132 3.42v-10.408zm12.268 10.858V91.276l1.192.267v33.241zm10.001 9.457h-4.949v-.495h4.95zm3.078 0h-2.375v-1.183h-6.379v1.183h-2.41v-2.36h11.174zm0-3.063h-11.164v-.446h11.174zm0-1.148h-11.164V126.5h.99a.351.351 0 00.173-.658l-1.148-.643v-11.927H152v1.485h.58v-.208h-.367v-1.287h1.242v1.485h.624v-.208h-.41v-1.286h1.246v1.484h.668v-.208h-.46v-1.286h1.247v1.484h.713v-.208h-.495v-1.286h1.247v1.484h.752v-.207h-.544v-1.287h1.247v1.484h.797v-.207h-.624v-1.287h1.242v1.485h.847v-.208h-.604v-1.287h1.118zm0-16.826h-11.164v-.446h11.174zm0-1.148h-11.164v-7.621h1.104v1.177h.579v-.208h-.367v-.99h1.242v1.179h.624v-.208h-.41v-.99h1.246v1.178h.668v-.208h-.46v-.99h1.247v1.178h.713v-.208h-.495v-.99h1.247v1.178h.752v-.208h-.544v-.99h1.247v1.178h.797v-.208h-.609v-.99h1.242v1.179h.847v-.208h-.604v-.99h1.118zm0-8.344h-11.164v-.4h11.174zm0-1.148h-11.164V94.29h1.104v1.33h.579v-.212h-.367V94.29h1.242v1.33h.624v-.212h-.41V94.29h1.246v1.33h.668v-.212h-.46V94.29h1.247v1.33h.713v-.212h-.495V94.29h1.247v1.33h.752v-.212h-.544V94.29h1.247v1.33h.797v-.212h-.609V94.29h1.242v1.33h.847v-.212h-.604V94.29h1.118zm-4.82-8.79l1.98.446h-8.324v-.445zm-6.354-.702v-.698l3.217.718zm11.174 1.06l-4.716-1.055h-.03l-15.197-3.4a.4.4 0 00-.154 0l-15.202 3.4h-.025L122 93.478v-1.405l20.023-4.454 20.022 4.454zm0-2.124l-1.38-.312v-.757h1.38zm8.512 4.306a2.727 2.727 0 00.263.202h-6.167v-.202zm.04.905v2.781h-.96v-2.78zm-1.663 0v2.781h-.99v-2.78zm-1.663 0v2.781h-.965v-2.78zm-1.667 0v2.781h-.96v-2.78zm-2.222-13.703a1.559 1.559 0 11-1.332 1.544 1.45 1.45 0 011.332-1.544zm.569 51.586h-1.193V88.336h1.193zm-2.044-46.796v-.99h2.944v.99zm12.372 45.955h-4.984v-.495h5.014zm4.642 0h-3.96v-1.183h-6.383v1.183h-3.96v-2.36h14.273zm0-3.063h-14.268v-.446h14.273zm0-1.148h-14.268v-16.124h.792v1.485h.58v-.208h-.372v-1.287h1.232v1.485h.624v-.208h-.41v-1.286h1.271v1.484h.668v-.208h-.455v-1.286h1.247v1.484h.713v-.208h-.495v-1.286h1.247v1.484h.757v-.207h-.544v-1.287h1.247v1.484h.796v-.207h-.588v-1.287h1.247v1.485h.84v-.208h-.628v-1.287h1.248v1.485h.885v-.208h-.678v-1.287h1.247v1.485h.93v-.208h-.717v-1.287h1.614zm0-16.826h-14.268v-.446h14.273zm0-1.149h-14.268v-10.204h14.273zm1.04-11.352v.445h-15.308v-.445zm-4.95-4.187h-3.766a3.9 3.9 0 01-.341-.203h4.454a3.761 3.761 0 01-.332.203zm.574.703v2.781h-.965v-2.781zm-1.667 0v2.781h-.946v-2.781zm-1.663 0v2.781h-.96v-2.781zm4.028 2.781v-2.781h.99v2.781zm1.663 0v-2.781h.965v2.781zm2.004-3.687v.203h-4.513a2.727 2.727 0 00.262-.203zm-4.424-.702h-4.805l.04-1.238a4.385 4.385 0 004.73 0zm-.044-1.485a4.088 4.088 0 01-4.712 0l.055-1.792a4.35 4.35 0 004.602 0zm-.12-3.845l.055 1.796a4.093 4.093 0 01-4.587 0l.054-1.796a4.365 4.365 0 004.479 0zm0-.253a4.112 4.112 0 01-4.453 0l.054-1.801a4.385 4.385 0 004.355 0zm-.064-2.078a4.162 4.162 0 01-4.335 0l.055-1.811a4.41 4.41 0 004.226 0zm-.668-21.923l.03.99h-3.058l.03-.99zm-2.969-.703l.045-1.41h2.87l.04 1.41zm1.485 2.529c.178 0 1.049-.07 1.549-.11l.06 1.827c-.496.06-1.352.163-1.61.163-.257 0-1.123-.104-1.608-.163l.055-1.826c.5.06 1.37.128 1.549.128zm0 2.088c.267 0 1.118-.099 1.613-.158l.045 1.836a15.341 15.341 0 01-1.668.217 15.341 15.341 0 01-1.668-.217l.054-1.826c.5.069 1.351.168 1.619.168zm0 2.093a14.386 14.386 0 001.677-.212l.055 1.826a5.746 5.746 0 01-3.464 0l.054-1.826a14.129 14.129 0 001.673.232zm0 2.094a11.288 11.288 0 001.737-.263l.054 1.827a8.69 8.69 0 01-1.791.316 8.794 8.794 0 01-1.797-.316l.06-1.827a11.2 11.2 0 001.732.283zm0 2.093a8.962 8.962 0 001.801-.312l.054 1.822a4.825 4.825 0 01-3.711 0l.054-1.822a8.908 8.908 0 001.797.332zm0 2.089a7.225 7.225 0 001.86-.357l.06 1.821a4.592 4.592 0 01-3.84 0l.054-1.82a7.26 7.26 0 001.86.375zm0 2.093a6.31 6.31 0 001.925-.406l.054 1.821a4.454 4.454 0 01-3.959 0l.055-1.82a6.31 6.31 0 001.92.425zm0 2.093a5.538 5.538 0 001.98-.455l.054 1.816a4.28 4.28 0 01-4.088 0l.054-1.816a5.538 5.538 0 001.995.465zm0 2.094a5.043 5.043 0 002.049-.495l.054 1.816a4.211 4.211 0 01-4.212 0l.055-1.816a5.087 5.087 0 002.049.514zm1.98-21.38h-3.99l-.227-.598h4.454zm.88-1.296h-5.74v-.599h5.75zm-1.306-1.895l.455.594h-4.048l.455-.594zm-.342-6.018c1.044-1.321 2.9-1.98 5.518-1.98 4.716 0 7.22-1.4 8.3-2.246-.263 2.593-1.98 5.23-10.091 5.23a5.647 5.647 0 00-4.687 2.242 4.949 4.949 0 01.97-3.226zm2.598.663a.371.371 0 00.371-.366.376.376 0 00-.37-.371.371.371 0 00-.367.37.366.366 0 00.376.387zm-4.167 56.545h2.693V106h-2.693zm.703-3.88h1.312v3.177h-1.287zm-2.905-3.33a1.203 1.203 0 101.203-1.213 1.208 1.208 0 00-1.203 1.218zm1.703 0a.495.495 0 11-.495-.495.495.495 0 01.495.5zm-29.743 2.97h-.213v3.879h.213zm29.426 9.6a.356.356 0 00-.416 0l-4.483 3.315a.346.346 0 00.207.629h1.317v8.809h6.384v-8.809h1.306a.351.351 0 00.337-.238.356.356 0 00-.129-.395zM170.35 128h-1.04v-.643h1.04zm0-.856h-1.04v-.89h1.04zm0-1.099h-1.04v-.89h1.04zm0-1.103h-1.04v-.891h1.04zm0-1.099h-1.04v-.896h1.04zm0-1.104h-1.04v-.885h1.04zm0-1.098h-1.04v-.891h1.04zm0-1.099h-1.04v-.648h1.04zm3.959 3.301h-.446v.208h.446v.876h-.446v.213h.446v.89h-.446v.208h.446v.891h-.446v.213h.446v.643h-1.04v-.322h-.207v.322h-1.144v-.322h-.207v.322h-1.144v-.643h.649v-.213h-.649v-.89h.649v-.209h-.649v-.89h.649v-.213h-.649v-.891h.649v-.208h-.649v-.88h1.144v.494h.207v-.495h1.144v.495h.207v-.495h1.04zm-2.598-3.093v.89h-1.144v-.89zm-1.144-.208v-.648h1.144v.648zm1.144 1.312v.885h-1.144v-.885zm1.35-1.104v.89h-1.143v-.89zm-1.143-.208v-.648h1.144v.648zm1.144 1.312v.885h-1.144v-.885zm1.247.885h-1.04v-.885h1.04zm0-1.098h-1.04v-.891h1.04zm0-1.099h-1.04v-.648h1.04zm-5.939-1.346l3.425-2.529 3.464 2.53zm-.663 9.155h.168v-7.705h-.213zm-10.224-27.263h2.692v-4.582h-2.692zm.702-3.88h1.277v3.178h-1.291zm14.144 13.02h.213v-3.88h-.213zm-43.747.347h2.672V106h-2.672zm.702-3.88h1.287v3.178h-1.296zm7.587-65.65a.327.327 0 00.074.648.332.332 0 00.287-.362.322.322 0 00-.361-.282zm-3.197-.159a.4.4 0 00-.267.495.396.396 0 10.267-.495zm5.117-.866a.332.332 0 00-.287.366.327.327 0 10.287-.366zm-15.455 70.209h.208v-3.88h-.208zm3.78 4.983l-4.898 3.44.123.173 4.9-3.44zm.704.738a.356.356 0 00-.416 0l-4.533 3.31a.346.346 0 00-.124.396.341.341 0 00.332.238h1.316v8.809h6.389v-8.81h1.311a.346.346 0 00.208-.628zM126.133 128h-1.034v-.643h1.034zm0-.856h-1.034v-.89h1.034zm0-1.099h-1.034v-.89h1.034zm0-1.103h-1.034v-.891h1.034zm0-1.099h-1.034v-.896h1.034zm0-1.104h-1.034v-.885h1.034zm0-1.098h-1.034v-.891h1.034zm0-1.099h-1.034v-.648h1.034zm3.96 3.301h-.471v.208h.47v.876h-.47v.213h.47v.89h-.47v.208h.47v.891h-.47v.213h.47v.643h-1.04v-.322h-.207v.322h-1.143v-.322h-.208v.322h-1.138v-.643h.613v-.213h-.613v-.89h.613v-.209h-.613v-.89h.613v-.213h-.613v-.891h.613v-.208h-.613v-.88h1.138v.494h.208v-.495h1.143v.495h.208v-.495h1.04zm-2.6-3.093v.89h-1.137v-.89zm-1.137-.208v-.648h1.138v.648zm1.138 1.312v.885h-1.138v-.885zm1.351-1.104v.89h-1.143v-.89zm-1.143-.208v-.648h1.143v.648zm1.143 1.312v.885h-1.143v-.885zm1.247.885h-1.04v-.885h1.04zm0-1.098h-1.04v-.891h1.04zm0-1.099h-1.04v-.648h1.04zm-5.939-1.346l3.465-2.529 3.42 2.53zm21.523-13.193h-2.692v4.572h2.692zm-.703 3.874h-1.287V106.7h1.287zm-9.576-68.362a.495.495 0 10.173.648.495.495 0 00-.173-.648zm-7.477.494a.653.653 0 10.722.57.643.643 0 00-.722-.565zm-1.228-1.123a.396.396 0 00-.262.495.393.393 0 00.752-.228.4.4 0 00-.49-.262zm3.202.307a.643.643 0 00-.722-.574.653.653 0 10.722.574zm1.247-.203a.396.396 0 00-.262.495.396.396 0 00.757-.228.4.4 0 00-.495-.262zm1.836.752a.56.56 0 10.203.762.564.564 0 00-.203-.757zm-2.474.495a.56.56 0 10.203.762.56.56 0 00-.178-.752zm-6.889 86.11h.218v-7.7h-.213zm13.98 0h-.212v6.78h.212zm2.168-4.029l2.38-1.37 1.099.524.09-.188-1.189-.554-2.474 1.41zm5.899-27.817h-2.692v4.582h2.692zm-.703 3.88h-1.286v-3.168h1.286zm-8.244 24.511a.173.173 0 00.084.327h10.66a.178.178 0 00.084-.332l-5.4-2.97a.168.168 0 00-.168 0zm5.344-2.623l4.721 2.598h-9.288zm-4.132-25.318h-.213v3.88h.213zm3.123-.45h-2.668v4.582h2.692zm-.703 3.88h-1.287v-3.168h1.287zm2.177-3.43h-.212v3.88h.212zm-19.186 3.885h.208v-3.88h-.208zm5.236.252h2.682v-4.582h-2.672zm.703-3.875h1.286v3.178h-1.286zm-1.203 13.02h.213v-3.88h-.213zm-4.192.352h2.692v-4.578h-2.692zm.703-3.88h1.287v3.177h-1.287zm1.683-64.473a.56.56 0 10.203.762.56.56 0 00-.193-.767zm-2.386 58.861h2.692v-4.582h-2.692zm.703-3.88h1.287v3.178h-1.287zm3.464 3.628h.238v-3.88h-.213zm-57.604 54.471c-.99-.217-1.945-.45-2.885-.697l-.361.603q1.445.386 2.969.728zM38.51 138.35a.297.297 0 00-.37-.198.297.297 0 00-.223.356.292.292 0 00.366.198.302.302 0 00.227-.356zm1.218-.643a.544.544 0 00-.495-.57.495.495 0 00-.525.456.54.54 0 00.495.564.465.465 0 00.525-.45zm-.025 2.474a.495.495 0 00.525-.455.544.544 0 00-.47-.564.495.495 0 00-.53.45.55.55 0 00.475.55zm-2.573-2.385a.289.289 0 10-.144-.56.289.289 0 10.144.56zm6.928 4.102l.619-.272a12.867 12.867 0 01-1.346-2.687l-.703.074a13.05 13.05 0 001.41 2.9zm26.971.639a.307.307 0 10-.148-.396.302.302 0 00.128.41zM7.426 139.72h22.71v-.352H7.426zm-3.415-1.53h31.143v-.35H4.011zm64.449 2.678a.302.302 0 00-.149-.396.307.307 0 10.149.396zm-1.708 6.661q1.262.391 2.608.752l.396-.663q-1.311-.351-2.543-.727zm4.202-6.102a.287.287 0 10-.53-.223.302.302 0 00.149.396.297.297 0 00.38-.173zm-1.054.257a.287.287 0 10-.381.174.292.292 0 00.37-.174zm-16.133-5.023l-13.337 1.386.108.703 13.337-1.39zm-.792 1.287l-.644.064c.03.06.05.124.08.184zm-14.94 1.633a.289.289 0 10.143.56.289.289 0 10-.144-.56zm4.275 6.929a.371.371 0 000-.495.351.351 0 00-.495-.045.366.366 0 000 .495.351.351 0 00.495.064zm0 2.969a.366.366 0 00-.495.158.426.426 0 00.188.54.361.361 0 00.495-.164.41.41 0 00-.188-.53zm-4.75-10.393a.307.307 0 10-.223.357.297.297 0 00.222-.347zm3.543 6.023a.307.307 0 10.41.109.302.302 0 00-.41-.1zm13.361-4.107l.624-.391a11.986 11.986 0 01-1.128-1.267l-.668.297a12.718 12.718 0 001.167 1.37zm-10.684 8.412a.317.317 0 00-.144-.405.272.272 0 00-.386.123.317.317 0 00.139.406.277.277 0 00.386-.099zm-1.485-1.672a.337.337 0 00-.43.232.386.386 0 00.252.46.337.337 0 00.43-.232.391.391 0 00-.267-.435zm-1.603-1.49a.495.495 0 00-.495.45.544.544 0 00.47.565.495.495 0 00.53-.45.55.55 0 00-.505-.565zm-2.321-4.038a.396.396 0 00-.233-.54.465.465 0 00-.584.238.4.4 0 00.238.544.46.46 0 00.594-.242zm0 1.207a.356.356 0 00-.188.466.366.366 0 00.495.163.346.346 0 00.188-.465.366.366 0 00-.47-.164zm2.192 1.386a.55.55 0 00-.495-.569.495.495 0 00-.524.45.55.55 0 00.47.57.495.495 0 00.574-.45zm-2.91-3.751a.297.297 0 00.223-.356.292.292 0 00-.366-.198.297.297 0 00-.223.356.292.292 0 00.391.198zm2.207 1.885a.4.4 0 00-.237-.544.46.46 0 00-.58.243.391.391 0 00.234.539.465.465 0 00.608-.238zm-.494-1.568a.356.356 0 00.188-.466.371.371 0 00-.495-.163.361.361 0 00-.193.495.371.371 0 00.51.134zm15.786-3.86l-12.63 5.607c.13.198.263.39.407.589l12.684-5.632q-.233-.282-.45-.564zm33.316 6.512a.302.302 0 00-.273-.321.287.287 0 10.273.321zm-1.752 1.327a.544.544 0 00.712.183.465.465 0 00.184-.668.55.55 0 00-.713-.189.495.495 0 00-.183.674zm.218-1.381a.366.366 0 00.46-.228.351.351 0 00-.253-.435.371.371 0 00-.46.227.351.351 0 00.257.436zm2.424 7.15l.08-.702c-.708-.035-1.406-.074-2.104-.119l-.148.703c.722.045 1.445.084 2.177.119zm-4.127-8.185a.277.277 0 00.139-.386.312.312 0 00-.411-.128.277.277 0 00-.139.38.322.322 0 00.411.134zm33.77-1.766a.465.465 0 00.224.594.406.406 0 00.559-.203.465.465 0 00-.228-.59.396.396 0 00-.579.199zm-29.316 3.38a.544.544 0 00-.713-.188.495.495 0 00-.188.668.55.55 0 00.718.188.465.465 0 00.183-.668zm-47.672-8.344a11.575 11.575 0 00.144 1.168l.697-.07a10.051 10.051 0 01-.173-1.8h-.054V125.16h.92v9.834a.351.351 0 00.703 0v-9.834h.92v9.834a.351.351 0 00.703 0v-9.834h.92v9.834a.351.351 0 10.699 0v-9.834h.92v9.834a.351.351 0 00.703 0v-9.834h.92v9.834a.351.351 0 00.703 0v-9.834h.916v10.695a.351.351 0 00.103.247c0 .09.025.178.04.267l.703-.074v-.089h31.712v-2.633h4.949v-30.45h2.504l-2.53-4.39v-3.909h.258a.356.356 0 00.322-.218.351.351 0 00-.074-.38l-2.613-2.614a.366.366 0 00-.495 0l-2.514 2.52h-2.296l-1.44-.693-2.574-65.968a.351.351 0 00.243-.332v-1.272a.341.341 0 00-.322-.346l-.124-3.276h.094a.346.346 0 00.327-.223l.41-1.049h.253a.351.351 0 00.351-.351V19.35a.346.346 0 00-.351-.352h-.322l-.886-1.138a.341.341 0 00-.277-.138h-5.443a.346.346 0 00-.278.138l-.885 1.138h-.322a.351.351 0 00-.351.352v1.272a.351.351 0 00.351.351h.208l.406 1.05a.356.356 0 00.326.222h.1l-.11 3.271a.351.351 0 00-.341.351v1.272a.346.346 0 00.277.337l-2.029 60.697-12.98-6.092h-.194a.396.396 0 00-.074 0l-5.973 2.796-.495-12.867a.366.366 0 00.094-.237v-1.485a.346.346 0 00-.173-.292l-.055-1.445a.341.341 0 00.218-.262l.208-1.04a.351.351 0 00.317-.346v-1.321a.346.346 0 00-.352-.347l-.425-1.098a.356.356 0 00-.327-.223h-2.915a.351.351 0 00-.326.223l-.43 1.098a.346.346 0 00-.352.347v1.321a.351.351 0 00.316.346l.203 1.04a.356.356 0 00.223.262l-.044 1.435a.351.351 0 00-.184.302v1.485a.346.346 0 00.114.257l-.495 15.114-13.257 6.21-3.613-30.529h.267a.351.351 0 00.352-.351v-1.88a.351.351 0 00-.352-.352h-.574l-.213-1.801h.787a.341.341 0 00.272-.134l1.158-1.45h1.054a.351.351 0 00.352-.351v-1.59a.351.351 0 00-.352-.35h-1.158l-2.444-1.53a.346.346 0 00-.183-.054H13.077a.376.376 0 00-.188.054l-2.44 1.53H9.291a.351.351 0 00-.351.35v1.59a.351.351 0 00.351.35h1.09l1.157 1.45a.356.356 0 00.277.135h.792l-.183 1.8h-.609a.351.351 0 00-.351.352v1.915a.351.351 0 00.351.352h.347l-5.068 49.983-3.959 1.524h-.139l-2.885 4.964h2.89v16.875zm11.05-.703h-.652v-11.045H41.939v11.045h-.688V123.72h11.813zm12.64-12.634h-.99v-1.153h-.346v1.485h1.321v2.746h-.99v-1.153h-.346v1.485h1.321v2.741h-.99v-1.123h-.346v1.485h1.322v2.741h-.99v-1.153h-.347v1.485h1.322v2.742h-.99v-1.149h-.346v1.41H53.757v-12.44H40.548v12.485H5.09v-1.41h-.352v1.148h-.99V132.5h1.367v-1.484h-.352v1.153h-.99v-2.742H5.14v-1.484h-.351v1.153h-.99v-2.782h1.366v-1.484h-.351v1.153h-.99v-2.747H5.19v-1.484h-.352v1.153h-.99v-3.539H5.12v1.91h.653v-.35h-.307v-1.56h1.97v1.91h.668v-.35h-.317v-1.56H9.88v1.91h.678v-.35h-.326v-1.56h2.093v1.91h.688v-.35h-.337v-1.56h2.089v1.91h.688v-.35H15.1v-1.56h2.094v1.91h.732v-.35h-.356v-1.56h2.093v1.91h.718v-.35h-.367v-1.56h2.089v1.91h.732v-.35h-.38v-1.56h2.093v1.91h.742v-.35h-.39v-1.56h2.093v1.91h.752v-.35h-.415v-1.56h2.093v1.91h.762v-.35h-.38v-1.56h2.088v1.91h.777v-.35h-.426v-1.56h2.093v1.91h.787v-.35h-.435v-1.56h2.093v1.91h.792v-.35h-.44v-1.56h2.073v1.91h.807v-.35h-.456v-1.56h2.094v1.91h.816v-.35h-.465v-1.56h2.093v1.91h.827v-.35h-.495v-1.56h2.093v1.91h.837v-.35h-.495v-1.56h2.093v1.91h.851v-.35h-.495v-1.56h2.094v1.91h.86v-.35h-.494v-1.56h2.093v1.91h.871v-.35h-.52v-1.56h2.09v1.91h.88v-.35h-.53v-1.56h2.094v1.91h.89v-.35h-.539v-1.56h2.094v1.91h.9v-.35h-.55v-1.56h2.094v1.91h.91v-.35h-.563v-1.56h1.712zm-45.87-58.074l-5.444-.055.173-1.905H27.33l.223 1.886zm7.745.277l.222 1.895c-1.415.03-7.012.149-7.957.149-.53 0-2.425-.04-4.212-.074l.119-1.935 4.083.034zm-12.18.03l-.118 1.93h-1.114l.173-1.92zm-1.435 4.181l.174-1.925 1.123.025-.119 1.935zm1.158.386l-.118 1.94-1.243-.054.174-1.925zm-1.103-4.948h-1.342l.188-1.886h1.327zm-.03.35l-.173 1.916-1.366-.03.193-1.9zm-.203 2.267l-.173 1.916-1.39-.045.192-1.9zm-.06 4.553l1.258.055-.119 1.945-1.311-.075zm1.12 2.351l-.12 1.945-1.375-.09.173-1.93zm-.144 2.296l-.114 1.95-1.44-.109.173-1.93zm-.139 2.302l-.119 1.954-1.484-.128.173-1.935zm-.138 2.3l-.12 1.98a84.585 84.585 0 01-1.568-.148l.173-1.94c.456.04.97.084 1.515.124zm-.139 2.312l-.119 1.955a50.795 50.795 0 01-1.633-.169l.173-1.94c.47.06 1 .12 1.579.169zm-.144 2.306l-.118 1.98a61.762 61.762 0 01-1.698-.194l.173-1.94c.48.055 1.04.114 1.643.169zm54.843 24.744l.074-2.272c.688.377 2.297.916 5.88.916 3.177 0 4.587-.426 5.21-.802l.09 2.232a.41.41 0 01-.055.065h.223c-.089.163-.762 1.054-5.444 1.054-4.374 0-5.73-.782-6.072-1.054h.317a2.098 2.098 0 01-.223-.139zm-6.928-11.674h1.138l.47 3.593h-1.197zm0 3.593h-1.232l-.282-3.593h1.143zm1.485-3.593h1.138l.564 3.593h-1.237zm1.484 0h1.138l.654 3.593h-1.233zm1.485 0h1.138l.747 3.593h-1.232zm1.484 0h.624l-.09 2.573zm.772 12.406c.703.411 2.356.99 6.127.99 3.608 0 5.048-.524 5.622-.99h.455a2.474 2.474 0 012.475 2.272c-.822.198-3.588.752-8.552.752-4.964 0-7.676-.564-8.467-.762a2.474 2.474 0 012.395-2.262zm-.099-3.464zM61.78 94.953a4.058 4.058 0 01.272 1.168h-1.227v-1.168zm-.955-.352v-1.128a5.023 5.023 0 01.796 1.128zm-4.95-3.84c-3.666 0-6.665 2.376-6.888 5.36H36.96l18.91-8.977 12.986 6.131-.094 2.846h-5.94c-.237-2.98-3.236-5.34-6.903-5.34zm3.326 3.84V93.34h1.282v1.26zm1.282.352v1.168H59.2v-1.168zm-1.282-1.98v-.707a6.433 6.433 0 011.129.737zm-1.633 1.614v-1.262h1.282v1.262zm1.282.351v1.168h-1.282v-1.168zm-1.282-1.98v-1.33a7.072 7.072 0 011.282.42v.91zm-1.633 1.614V93.31h1.282v1.262zm1.282.351v1.168h-1.282v-1.168zm-1.282-1.98V91.42a7.71 7.71 0 011.282.124v1.4zm-1.554 1.614v-1.262h1.203v1.262zm1.203.351v1.168H54.38v-1.168zm-1.203-1.98v-1.306a7.33 7.33 0 011.203-.143v1.514zm-1.559 1.614V93.28h1.233v1.262zm1.208.351v1.168h-1.163v-1.168zm-1.208-1.98v-.87a6.83 6.83 0 011.208-.426v1.297zm-1.559 1.614v-1.262h1.208v1.262zm1.208.352v1.168h-1.208v-1.168zm-1.05-1.98a5.939 5.939 0 011.05-.698v.698zm-1.3 1.613a4.845 4.845 0 01.791-1.128v1.128zm.791.352v1.168H49.69a4.058 4.058 0 01.272-1.168zm29.609 6.102l.569 1.36h-.495zm-.04-.99l-.044-1.227h.643l1.599 3.592H81.47zm.99-1.227h1.109l1.687 3.592h-1.163zm1.485 0h1.103l1.787 3.592h-1.198zm1.425-.703h-3.96l-.078-2.02 1.138.53h2.92zM68.9 92.518l-12.867-6.077a.346.346 0 00-.297 0l-20.488 9.714a.356.356 0 00-.193.396.351.351 0 00.342.272h33.335l-.045 1.302H27.513V96.64h2.682L55.87 84.763l13.07 6.043zm-8.378 9.898h-1.233l-.188-3.593h1.144zm-1.584 0h-1.237l-.094-3.593h1.143zm-1.588 0h-1.238v-3.593h1.143zm-1.589-3.593v3.593h-1.168l.09-3.593zm-1.43 0l-.09 3.593h-1.177l.178-3.593zm-1.435 0l-.179 3.593h-1.172l.267-3.593zm-22.562 0h1.05l-1.525 3.593h-1.143zm-2.014 3.598h-1.138l1.712-3.593h1.044zm3.434-3.593h1.054l-1.435 3.593H30.23zm1.43 0h1.074l-1.346 3.593h-1.148zm1.436 0h1.059l-1.257 3.593h-1.153zm1.43 0h1.064l-1.168 3.593h-1.153zm1.43 0h1.064l-1.074 3.593h-1.153zm1.43 0h1.07l-.99 3.593h-1.16zm1.435 0h1.07l-.896 3.593H39.36zm1.43 0h1.075l-.807 3.593H40.88zm1.436 0h1.074l-.718 3.593h-1.163zm1.43 0h1.079l-.629 3.593h-1.168zm1.435 0h1.05l-.496 3.593h-1.168zm1.43 0h1.08l-.446 3.593h-1.168zm1.43 0h1.084l-.356 3.593h-1.173zm1.436 0h1.079l-.268 3.593h-1.168zm-21.87 0l-1.706 3.593h-1.134l1.797-3.593zm-3.23 3.593h-1.134l1.89-3.593h1.04zm29.49 16.207h-1.238l.406-3.593h1.183zm.707-3.593h1.183l-.302 3.593h-1.237zm-2.296 3.593h-1.237l.455-3.593h1.168zm-1.589 0h-1.242l.495-3.593h1.183zm-1.588 0h-1.233l.555-3.593H50.5zm-1.589 0h-1.232l.608-3.593h1.178zm-1.589 0h-1.232l.648-3.598h1.183zm-1.588 0h-1.228l.703-3.593h1.183zm-1.589 0h-1.227l.752-3.598h1.178zm-1.588 0h-1.228l.807-3.593h1.183zm-1.584 0h-1.262l.861-3.593h1.178zm-1.588 0h-1.228l.906-3.593h1.178zm-1.589 0h-1.227l.96-3.593h1.173zm-1.589 0h-1.227l.99-3.593h1.173zm-1.588 0h-1.223l1.06-3.593h1.172zm-1.589 0H31.29l1.109-3.593h1.172zm-1.588 0h-1.233l1.163-3.593h1.168zm-1.589 0h-1.222l1.183-3.598h1.167zm-1.588 0h-1.218l1.262-3.593h1.168zm-1.589 0h-1.217l1.311-3.593h1.168zm-1.589 0h-1.212l1.366-3.593H25.9zm-1.588 0h-1.213l1.416-3.593h1.163zm-3-20.973c.99 0 1.911 0 2.822-.05v.777l-.703 1.218c-.683 0-1.39.03-2.108.03-2.663 0-4.731-.12-6.325-.278l.119-1.98c1.569.17 3.598.283 6.186.283zm-6.175-.619l.123-1.98c1.56.15 3.549.263 6.043.263.96 0 1.905 0 2.83-.054v1.98c-.905.034-1.85.049-2.82.049-2.564.01-4.612-.08-6.186-.258zm6.186 2.945h1.905l-1.148 1.98h-.757c-2.747 0-4.86-.114-6.473-.278l.119-1.98c1.598.164 3.672.278 6.344.278zm0 2.32h.544l-.495.827h2.53v1.114a87.13 87.13 0 01-2.59.034c-2.83 0-4.988-.113-6.626-.277l.12-1.98c1.642.169 3.76.283 6.517.283zm2.202.12h-.92l2.068-3.593h.832zm1.297-4.296v-3.3h3.33v3.3zm1.083.703h1.035l-1.89 3.593h-1.124zm-1.192-4.707l1.762-1.761 1.761 1.761zm-1.094.104a.351.351 0 00.247.6h.258v.103c-.926.035-1.87.054-2.83.054-2.475 0-4.455-.113-6.024-.267l.12-1.98c1.553.15 3.508.263 5.888.263 1.242 0 2.475-.04 3.652-.099zm-8.3-6.141l-.118 1.98a43.365 43.365 0 01-1.762-.208l.174-1.945c.5.05 1.068.114 1.707.173zm-.138 2.316l-.118 1.98a49.878 49.878 0 01-1.832-.228l.174-1.95c.514.084 1.103.129 1.776.198zm-.143 2.316l-.119 1.98a33.29 33.29 0 01-1.89-.248l.173-1.95c.524.065 1.133.144 1.836.218zm-.139 2.321l-.119 1.98a36.27 36.27 0 01-1.98-.263l.174-1.945c.554.065 1.188.149 1.925.228zm-.138 2.316l-.12 1.98a30.682 30.682 0 01-2.028-.283l.173-1.944c.55.079 1.203.168 1.975.247zm-.144 2.321l-.119 1.98a28.435 28.435 0 01-2.088-.292l.173-1.95q.841.128 2.034.277zm-.138 2.316l-.12 1.98a28.153 28.153 0 01-2.157-.312l.173-1.95c.574.094 1.272.193 2.104.282zm-.144 2.321l-.06 1.034h.347l.064-1.02c1.648.164 3.816.278 6.647.278.895 0 1.761 0 2.588-.035v1.98c-.822 0-1.683.035-2.573.035-4.776 0-7.651-.312-9.354-.644l.173-1.95a22.91 22.91 0 002.168.322zm9.789 10.72l-1.416 3.597H20.18l1.485-3.593zm-10.393 0h1.148l-1.717 3.592h-1.197zm-2.157 3.592H9.079l1.816-3.593h1.143zm3.711-3.593h1.148l-1.643 3.598h-1.197zm1.534 0h1.153l-1.618 3.593h-1.202zm1.54 0h1.153l-1.57 3.593h-1.202zm1.534 0h1.158l-1.52 3.593h-1.202zm1.534 0h1.158l-1.485 3.593h-1.212zm2.474-.703H9.222l13.362-5.151zm-13.228.703h1.148l-1.816 3.593H7.49zm-2.262 3.593H5.902l1.92-3.593h1.143zm-1.588 0H4.318l1.98-3.593h1.138zm51.185 0l.302-3.593h1.188l-.252 3.593zm1.589 0l.252-3.593h1.183l-.198 3.593zm1.588 0l.198-3.593h1.188l-.153 3.593zm1.584 0l.153-3.593h1.188l-.104 3.593zm1.589 0l.104-3.593h1.182l-.05 3.593zm2.652 0H64.63l.05-3.593h1.014zm0-4.296H24.618V113.1h-.351v1.148h-.965v-2.741h1.316v-1.485h-.351v1.153h-.965v-2.742h1.316v-1.484h-.351v1.153h-.965v-4.949h.821v1.603h.648v-.346h-.297v-1.257h2.059v1.603h.663v-.346h-.312v-1.257h2.064v1.603h.668v-.346h-.307v-1.257h2.059v1.603h.683v-.346h-.332v-1.257h2.044v1.603h.693v-.346h-.341v-1.257h2.063v1.603h.703v-.346h-.351v-1.257h2.058v1.603h.713v-.346h-.361v-1.257h2.063v1.603h.723v-.346h-.376v-1.257h2.063v1.603h.743v-.346h-.381v-1.257h2.058v1.603h.748v-.346h-.396v-1.257h2.063v1.603h.753v-.346h-.391v-1.257h2.063v1.603h.767v-.346h-.415v-1.257h2.039v1.603h.777v-.346h-.426v-1.257h2.064v1.603h.786v-.346h-.435v-1.257h2.059v1.603h.796v-.346h-.445v-1.257h2.06v1.603h.811v-.346h-.46v-1.257h2.064v1.603h.816v-.346h-.465v-1.257h2.059v1.603h.831v-.346h-.495v-1.257h2.06v1.603h.885v-.346h-.495v-1.257h.638l-.272 7.423a3.192 3.192 0 00-2.583 3.128zm17.816 17.707h-.693v.352h.693v1.484h-.693v.352h.693v1.291H66.39v-1.291h.742v-.352h-.742v-1.484h.742v-.352h-.742v-1.054h17.118zm0-1.757H66.39v-1.761h17.118zm0-14.608h-.693v.35h.693v1.486h-.693v.35h.693v1.486h-.693v.35h.693v1.486h-.693v.287h.693v1.484h-.693v.352h.693v1.484h-.693v.347h.693v1.484h-.693v.352h.693v.88H66.39v-.88h.742v-.352h-.742v-1.484h.742v-.347h-.742V123.3h.742v-.352h-.742v-1.484h.742v-.352h-.742v-1.484h.742v-.352h-.742v-1.484h.742v-.287h-.742v-1.485h.742v-.351h-.742v-1.455c.99.227 3.751.732 8.556.732 4.806 0 7.552-.495 8.562-.732zm4.949 17.202H84.23v-3.123h4.227zm0-3.826H84.23v-1.282h4.227zm0-20.983h-.866v-1.148h-.381v1.485h1.217v2.741h-.866v-1.153h-.351v1.485h1.217v2.742h-.866v-1.149h-.351v1.485h1.217v2.712h-.866v-1.094h-.351v1.485h1.217v2.717h-.866v-1.153h-.351v1.484h1.217v3.237h-.866v-1.153h-.351v1.485h1.217v2.712h-.866v-1.154h-.351v1.213H84.2v-13.362a3.187 3.187 0 00-3.181-3.182h-.09l-.291-7.423h1.37v1.603h.901v-.346h-.55v-1.257h2.06v1.603h.915v-.346h-.564v-1.257h2.059v1.603h.925v-.346h-.544v-1.257h1.247zm-.555-5.646l-1.88-3.593h1.094l1.98 3.593zm-2.746-4.296v-3.3h3.3v3.3zm5.32 4.296h-.99l-1.98-3.593h.891zm-3.672-10.061l1.762 1.761h-3.524zm-1.178 6.468l1.88 3.593H86.31l-1.787-3.593zm-4.103-4.038l.07.034h2.405a.287.287 0 00.089 0 .42.42 0 00.109 0h.257v1.485h-2.806l-1.291-.574-.06-1.485zm-3.033-38.542zm-.45-11.451zm-.446-11.452zm0 8.458a28.208 28.208 0 01-2.94.232c-.955 0-2.622-.163-3.33-.237l.084-2.52c.732.065 2.395.209 3.232.209.836 0 2.202-.134 2.855-.203zm-3.024-16.826l2.366-.035v.58h-5.112v-.58zm-2.672-.386l.08-2.341h4.854l.09 2.346-2.352.03zm5.38 1.628v.574h-5.796v-.574zm-2.698 1.663c.277 0 1.777-.05 2.475-.07l.094 2.52c-.673.029-2.148.098-2.549.098-.4 0-2.138-.069-2.885-.104l.084-2.514c.708.02 2.455.07 2.737.07zm-1.524-.386h2.91l-1.386.034zm1.54 3.286c.415 0 1.885-.07 2.563-.1l.099 2.52c-.664.04-2.114.133-2.648.133-.534 0-2.262-.094-2.999-.138l.084-2.52c.708.035 2.435.105 2.856.105zm-2.97 2.766c.747.045 2.45.139 3.009.139.559 0 1.98-.094 2.662-.139l.1 2.519c-.654.054-2.084.168-2.747.168-.664 0-2.38-.119-3.108-.168zm3.024 3.039c.682 0 2.093-.11 2.761-.169l.094 2.52c-.638.069-2.044.202-2.84.202-.797 0-2.475-.143-3.222-.208l.089-2.519c.668.055 2.35.174 3.048.174zm-2.782-18.158h5.122l.446.574h-6.063zm-1.306 1.846v-.574h7.73v.574zm.658.703h6.433l-.222.574h-6.058zm.119 21.176c.727.074 2.37.238 3.34.238a28.614 28.614 0 002.97-.233l.099 2.519a24.289 24.289 0 01-3.039.267 32.816 32.816 0 01-3.44-.277zm-.1 2.87c.723.084 2.366.273 3.465.273a23.804 23.804 0 003.048-.268l.1 2.52a21.28 21.28 0 01-3.138.296 28.995 28.995 0 01-3.548-.307zm-.093 2.866a28.748 28.748 0 003.558.307 21.245 21.245 0 003.152-.297l.1 2.519a18.474 18.474 0 01-3.237.331 25.858 25.858 0 01-3.657-.341zm-.094 2.87a25.892 25.892 0 003.667.341 19.3 19.3 0 003.251-.326l.1 2.514a16.866 16.866 0 01-3.336.361 23.507 23.507 0 01-3.766-.371zm-.154-5.939zm.055 8.83a23.923 23.923 0 003.78.37 17.32 17.32 0 003.351-.356l.094 2.514a15.43 15.43 0 01-3.43.396 21.582 21.582 0 01-3.88-.406zm-.094 2.87a21.572 21.572 0 003.89.405 15.87 15.87 0 003.464-.386l.099 2.514a14.475 14.475 0 01-3.529.42 19.622 19.622 0 01-3.989-.44zm-.1 2.87a20.29 20.29 0 004.004.435 14.46 14.46 0 003.544-.415l.099 2.514a13.362 13.362 0 01-3.628.455 18.42 18.42 0 01-4.102-.495zm-.093 2.875a19.167 19.167 0 004.112.465 13.777 13.777 0 003.643-.445l.094 2.514a12.803 12.803 0 01-3.722.495 17.39 17.39 0 01-4.211-.495zm-.1 2.87a17.816 17.816 0 004.227.495 13.02 13.02 0 003.736-.47l.1 2.51a11.946 11.946 0 01-3.821.494 16.44 16.44 0 01-4.32-.54zm-.148-6.003zm.055 8.874a16.752 16.752 0 004.266.51 12.565 12.565 0 003.835-.496l.099 2.51a11.52 11.52 0 01-3.924.539 15.752 15.752 0 01-4.43-.57zm-.094 2.875a16.188 16.188 0 004.454.554 12.327 12.327 0 003.959-.52l.094 2.505a11.15 11.15 0 01-4.019.569 15.03 15.03 0 01-4.538-.604zm-.1 2.87a15.485 15.485 0 004.554.59 11.823 11.823 0 004.033-.55l.099 2.474c-.495.208-1.702.599-4.118.599a14.58 14.58 0 01-4.651-.629zm-.093 2.875a14.95 14.95 0 004.662.614c2.29 0 3.543-.341 4.132-.574l.099 2.474c-.465.218-1.683.629-4.217.629a14.04 14.04 0 01-4.76-.663zm-.1 2.876a14.644 14.644 0 004.776.643c2.386 0 3.643-.356 4.232-.599l.099 2.475c-.446.222-1.653.658-4.33.658-2.787 0-4.306-.495-4.875-.693zm-.148-6.053zm.055 8.908a14.233 14.233 0 004.884.673c2.475 0 3.736-.361 4.33-.623l.094 2.474h-.01c-.41.228-1.598.698-4.454.698-2.855 0-4.424-.495-4.983-.728zm-.094 2.875c.673.268 2.202.703 4.993.703 2.559 0 3.83-.376 4.424-.648l.1 2.474h.059c-.376.233-1.54.738-4.568.738-3.029 0-4.543-.495-5.092-.753zm-.1 2.876c.679.282 2.213.727 5.108.727 2.643 0 3.93-.38 4.523-.668l.094 2.44h.08c-.337.237-1.485.782-4.687.782s-4.662-.53-5.201-.787zm-.177 5.364l.084-2.474c.678.292 2.217.757 5.21.757 2.742 0 4.034-.386 4.628-.683l.094 2.415h.099c-.307.233-1.41.817-4.805.817-3.306 0-4.796-.555-5.32-.817zm-.1 2.86l.085-2.474c.683.307 2.232.782 5.325.782 2.815 0 4.122-.39 4.726-.703l.094 2.396h.034c-.267.232-1.321.86-4.914.86-3.464 0-4.949-.593-5.444-.86zm-.093 2.866l.084-2.474c.683.316 2.241.806 5.443.806 2.885 0 4.217-.4 4.82-.722l.01 2.39h.13c-.233.223-1.233.896-5.029.896-3.652 0-5.112-.624-5.577-.896zm-.094 2.86l.079-2.444c.683.331 2.256.831 5.547.831 2.97 0 4.31-.406 4.92-.742l.093 2.355h.139c-.193.218-1.133.94-5.137.94-3.825 0-5.27-.662-5.7-.94zm-.1 2.866l.085-2.435c.683.346 2.266.861 5.656.861 3.039 0 4.405-.416 5.018-.767l.09 2.34h.153c-.139.184-.99.99-5.246.99-4.004 0-5.444-.697-5.83-.99zm-.093 2.86l.079-2.42c.688.361 2.281.886 5.77.886 3.113 0 4.498-.42 5.117-.782l.09 2.316h.083c-.118.188-.89 1.02-5.35 1.02-4.186 0-5.582-.743-5.938-1.02zM46.135 64.651h2.366l.243.619h-2.851zm-.658 1.935v-.618h3.687v.618zm.149 19.825l.05-1.484h3.384v.272l-2.583 1.207zm.109.352l-.124.059v-.06zM48.5 70.674l.03.757h-2.395v-.757zm-2.326-.757l.045-1.307h2.202l.05 1.307zm2.385 2.217l.055 1.445H46.05l.05-1.445zm.05 1.821l.06 1.485h-2.698l.05-1.485zm.07 1.836l.059 1.485h-2.826l.05-1.485zm.073 1.831l.06 1.485h-2.97l.05-1.485zm.07 1.836l.06 1.485h-3.094l.05-1.485zm-.129-11.526h-2.786l-.119-.618h3.024zm.203 13.362l.06 1.485h-3.232l.054-1.485zm.07 1.831l.059 1.485h-3.36l.049-1.485zm6.893-.307l13.134 6.147-.054 1.484-13.006-6.017-.074.158-.074-.158L30.11 96.309h-2.608v-1.485h2.584a.406.406 0 00.148-.034zM30.953 93.706l-.946.445h-2.103l-1.41-1.41a42.065 42.065 0 004.27-.614zm-.233-1.93a42.669 42.669 0 01-4.548.643l-.777-.777a.356.356 0 00-.495 0l-.93.935a71.026 71.026 0 01-4.019.114c-2.375 0-4.325-.114-5.869-.262l.119-1.98a62.25 62.25 0 005.74.253 61.251 61.251 0 0010.556-.846zm-.262-2.257a60.242 60.242 0 01-10.517.851c-2.266 0-4.181-.114-5.715-.257l.118-1.98a62.58 62.58 0 005.588.248 67.932 67.932 0 0010.298-.782zm-.268-2.252a68.452 68.452 0 01-10.258.777 62.1 62.1 0 01-5.568-.247l.119-1.98a65.6 65.6 0 005.444.238 78.142 78.142 0 0010.046-.718zm-.267-2.256a76.979 76.979 0 01-10.001.712c-2.024 0-3.88-.104-5.444-.237l.119-1.98c1.554.129 3.395.233 5.29.233a88.46 88.46 0 009.784-.648zm-.267-2.252a89.267 89.267 0 01-9.75.599 66.69 66.69 0 01-5.265-.228l.12-1.98c1.563.12 3.389.213 5.131.213 3.731 0 8.304-.445 9.531-.574zm-.267-2.252c-1.232.129-5.78.57-9.492.57-1.737 0-3.553-.095-5.112-.213l.119-1.98c1.588.104 3.404.198 4.983.198 3.281 0 8.027-.396 9.28-.495zm-.267-2.251c-1.262.108-5.979.494-9.235.494-1.574 0-3.38-.089-4.949-.198l.119-1.98c1.613.1 3.43.184 4.835.184 2.82 0 7.745-.341 9.022-.435zm-.263-2.252c-1.296.094-6.18.43-8.982.43-1.395 0-3.202-.084-4.815-.183l.119-1.95c1.653.085 3.464.159 4.686.159 2.36 0 7.468-.287 8.765-.361zm-.267-2.252c-1.326.074-6.384.361-8.725.361-1.207 0-3.019-.079-4.662-.158l.12-1.95c1.687.07 3.528.134 4.532.134 1.896 0 7.186-.233 8.507-.292zm-.272-2.271c-1.361.059-6.592.287-8.468.287-.99 0-2.83-.065-4.513-.134l.119-1.945c1.737.055 3.603.109 4.38.109 1.43 0 6.928-.173 8.26-.218zm-.267-2.252c-1.391.044-6.8.218-8.215.218-.772 0-2.628-.05-4.36-.104l.118-1.94c1.792.034 3.697.074 4.232.074.955 0 6.641-.119 8.002-.148zM13.176 53.665H26.92l1.41.88H11.771zm-3.538 2.474v-.886h20.82v.886zm2.346 1.584l-.703-.881h17.533l-.702.88zm15.02 2.504H13.146l.183-1.801h13.475zm-14.847.703h15.767v1.212H12.167zm0 8.65l1.4.05-.173 1.92-1.396-.07zm-.228 2.252l1.425.07-.173 1.92-1.445-.085zm-.228 2.252l1.446.089-.169 1.925-1.484-.109zm-.227 2.251l1.484.114-.173 1.925-1.484-.133zm-.228 2.257l1.485.134-.173 1.93c-.664-.065-1.193-.124-1.515-.159zm-.227 2.252c.326.04.856.094 1.519.158l-.173 1.935a49.786 49.786 0 01-1.54-.188zM10.79 83.1c.322.04.856.11 1.539.184l-.173 1.94a60.322 60.322 0 01-1.564-.218zm-.233 2.252c.327.055.871.134 1.569.218l-.173 1.94a32.794 32.794 0 01-1.589-.253zm-.227 2.257c.326.06.87.148 1.593.247l-.173 1.94a23.276 23.276 0 01-1.613-.282zm-.228 2.256c.332.07.876.174 1.613.283l-.173 1.944a24.198 24.198 0 01-1.633-.321zm-.228 2.262c.327.074.876.193 1.638.312l-.173 1.945a17.704 17.704 0 01-1.658-.352zm-.232 2.262c.331.089.876.217 1.663.351l-.174 1.94a14.119 14.119 0 01-1.682-.391zm-.228 2.261a15.628 15.628 0 001.688.391l-.179 1.94a11.823 11.823 0 01-1.702-.43zm-.228 2.262a13.09 13.09 0 001.708.43l-.173 1.94a10.61 10.61 0 01-1.728-.465zm-.207 2.261a11.59 11.59 0 001.732.466l-.174 1.945a8.69 8.69 0 01-1.751-.495zm-.228 2.272a9.972 9.972 0 001.757.495l-.178 1.95a7.81 7.81 0 01-1.772-.545zm-.228 2.267a8.725 8.725 0 001.782.53l-.094 1.038.351.03.09-.99c1.746.332 4.636.634 9.402.634q1.217 0 2.346-.03l-5.093 1.98c-6.334-.174-8.373-.946-8.957-1.272zm-.232 2.28c.782.387 2.845.99 8.155 1.213l-4.31 1.663c-2.653-.317-3.672-.757-4.033-.99zm-.228 2.272c.495.258 1.45.6 3.385.871l-3.613 1.391zm14.54-2.657v1.222l-14.352 5.528H5.1zm-21.28 11.046l2.093-3.623h.93l-2.019 3.593zm1.385 0l2.04-3.623h1.138l-1.98 3.593zm55.041-11.675c-1.836 0-2.38 1.06-2.405 1.104l-.035.074v4.548h4.88v-4.548l-.035-.074c-.005-.07-.554-1.128-2.385-1.128zm-.178 5.028h-1.54v-1.133h1.565zm0-1.484h-1.54v-1.252h1.565zm0-1.604h-1.54v-.579a1.98 1.98 0 011.565-.648zm1.915 3.088h-1.564v-1.133h1.574zm0-1.484h-1.564v-1.252h1.574zm0-1.604h-1.564v-1.227a1.98 1.98 0 011.564.648zm26.07 35.191a.381.381 0 00-.494-.03.327.327 0 00-.025.496.381.381 0 00.52.03.327.327 0 00.02-.52zM57.77 105.875c-2.267 0-3.197.876-3.237.915l.243.253s.886-.817 2.97-.817zm18.677 25.981h-7.82v.351h7.82zm-7.844-15.836a56.03 56.03 0 006.552.317v-.352a57.49 57.49 0 01-6.508-.312zM85.83 97.422h1.905v-1.905H85.83zm.702-1.202h.495v.495h-.495zm-15.465 52.487c.728.173 1.485.341 2.237.495l.322-.688a41.226 41.226 0 01-2.168-.495zm7.483-6.755a.366.366 0 00-.406-.317.346.346 0 00-.331.376.361.361 0 00.4.312.351.351 0 00.337-.371zm-6.537 1.024a.4.4 0 00.574.139.495.495 0 00.158-.614.406.406 0 00-.579-.139.495.495 0 00-.153.614zm6.136.742a.495.495 0 00-.044-.692.55.55 0 00-.738.04.495.495 0 00.045.692.55.55 0 00.737-.025zm-4.083-1.37a.46.46 0 00.154-.61.4.4 0 00-.574-.138.465.465 0 00-.159.609.4.4 0 00.58.139zm-1.826-.847a.371.371 0 00.42-.292.346.346 0 00-.256-.43.361.361 0 00-.421.292.351.351 0 00.257.43zm10.452 1.693a.42.42 0 00.361.495.445.445 0 00.52-.332.43.43 0 00-.361-.495.445.445 0 00-.52.332zm-8.72.455a.376.376 0 00.426-.292.356.356 0 00-.262-.43.366.366 0 00-.421.292.351.351 0 00.257.43zm3.336-1.53a.292.292 0 00-.277-.31.302.302 0 00-.332.261.297.297 0 00.277.312.302.302 0 00.337-.262zm3.959 2.277a.366.366 0 00.183-.494.426.426 0 00-.544-.174.371.371 0 00-.179.495.416.416 0 00.545.173zm-1.232-1.608a.391.391 0 00-.495-.074.337.337 0 00-.074.495.391.391 0 00.52.074.332.332 0 00.054-.495zm-.96 7.423c.791.11 1.593.213 2.41.307l.222-.703c-.801-.094-1.593-.193-2.37-.302zm2.692-7.69a.322.322 0 00-.411-.129.282.282 0 00-.139.386.327.327 0 00.416.129.282.282 0 00.134-.386zm-5.622-.228a.55.55 0 00-.738.04.495.495 0 00.045.693.55.55 0 00.737-.04.495.495 0 00-.054-.693zm-1.128 7.245c.776.144 1.563.277 2.37.406l.262-.698a97.398 97.398 0 01-2.31-.396zm8.18 1.124c.757.074 1.524.143 2.296.202l.154-.702c-.753-.06-1.485-.124-2.227-.198zm22.433.104c.792-.07 1.569-.154 2.34-.243l-.237-.698c-.757.09-1.52.168-2.291.238zm.99-7.795a.312.312 0 00.39-.173.272.272 0 00-.178-.366.312.312 0 00-.39.173.277.277 0 00.197.386zm-1.099.599a.307.307 0 00.114.604.307.307 0 00-.114-.604zm.752.821a.302.302 0 00.342.253.297.297 0 00.222-.356.292.292 0 00-.336-.248.302.302 0 00-.233.351zm-11.12.292a.371.371 0 00-.074-.534.42.42 0 00-.564.06.371.371 0 00.074.534.42.42 0 00.54-.06zm13.713-1.192a.426.426 0 00.307-.525.445.445 0 00-.554-.272.426.426 0 00-.302.525.435.435 0 00.544.272zm-1.336 4.25l3.791 11.012.703-.104-3.781-10.996zm-.267 9.151l.183.688q1.425-.173 2.82-.371l-.232-.678c-.92.129-1.846.252-2.776.361zm-8.626.698l.08.703c.885-.04 1.761-.09 2.632-.144l-.128-.698c-.857.05-1.718.1-2.584.139zm-2.217-9.165l1.282 11.516.703-.025-1.297-11.506zm-1.564 9.269v.708c.728 0 1.455-.025 2.173-.05l-.08-.703q-1.039.025-2.093.04zm10.393-13.03a.292.292 0 00-.337-.248.302.302 0 00-.227.356.297.297 0 00.341.248.297.297 0 00.208-.361zm-2.326 12.664l.129.697c.915-.074 1.816-.158 2.711-.252l-.183-.688a122.6 122.6 0 01-2.672.238zm.777-9.215l2.97 11.229.702-.074-2.97-11.214c-.247.014-.48.04-.717.054zm4.39-4.578a.307.307 0 10.336.248.292.292 0 00-.351-.253zm5.631-1.237a.495.495 0 00.035.693.55.55 0 00.737-.045.495.495 0 00-.064-.697.55.55 0 00-.723.044zm-.193-1.38a.361.361 0 00-.366.356.346.346 0 00.371.336.361.361 0 00.366-.356.346.346 0 00-.386-.342zm1.129.049a.287.287 0 00-.243.341.297.297 0 00.356.218.287.287 0 00.243-.341.297.297 0 00-.371-.223zm-4.227 1.059a.317.317 0 00-.396.178.282.282 0 00.178.366.327.327 0 00.396-.178.277.277 0 00-.193-.371zm8.71-2.598a.351.351 0 00-.213.455.366.366 0 00.45.243.351.351 0 00.213-.456.366.366 0 00-.465-.247zm-3.464 7.002l5.102 10.462.693-.178-5.087-10.432zm.713-4.454a.495.495 0 00-.035-.692.55.55 0 00-.737.044.495.495 0 00.034.693.55.55 0 00.703-.03zm-.124 13.451l.272.663c.99-.212 2.01-.435 2.97-.678l-.322-.653c-.985.253-1.96.475-2.955.683zm-6.587-5.087a80.08 80.08 0 002.474-.361l-.287-.693a109.2 109.2 0 01-2.44.351zm4.192-.643q1.311-.228 2.578-.495l-.332-.688c-.826.173-1.672.331-2.533.495zm-2.148 6.577l.232.673q1.455-.228 2.866-.495l-.272-.668c-.93.168-1.876.321-2.826.49zm-1.252-12.749a.366.366 0 00.237.495.416.416 0 00.52-.227.371.371 0 00-.238-.495.42.42 0 00-.52.227zm1.915-.91a.332.332 0 00-.124-.495.396.396 0 00-.495.129.337.337 0 00.13.495.391.391 0 00.494-.13zm-.841 4.568l4.424 10.778.703-.143-4.415-10.75zm-65.79 4.74a.272.272 0 00-.386.12.322.322 0 00.139.41.282.282 0 00.39-.124.317.317 0 00-.138-.405zm17.242-5.715a52.81 52.81 0 002.083.777l.456-.634c-.698-.237-1.371-.495-2.02-.737zm.861-2.801l-8.497 9.729.668.302 8.517-9.77c-.238-.078-.46-.172-.688-.266zm7.517 2.41L65.005 156.6l.703.188 6.399-10.783zm-14.673 5.018q-1.653-.757-3.147-1.584l-.52.446q1.524.86 3.222 1.652zm4.32 1.767q-1.395-.495-2.707-1.055l-.45.495q1.331.564 2.756 1.094zm4.83 1.558q-1.633-.465-3.172-.99l-.406.565q1.564.534 3.222.99zm1.485-9.486l-7.423 10.323.688.242 7.423-10.348zm-8.13-.243c.682.371 1.395.732 2.162 1.079l.495-.584q-1.09-.495-2.074-.99zm35.77-1.267a.277.277 0 00-.055-.406.322.322 0 00-.43.045.277.277 0 00.054.406.322.322 0 00.43-.045zm-47.787 2.385l.574-.36a20.26 20.26 0 01-2.083-2.163l-.624.277a20.943 20.943 0 002.133 2.246zm10.2-5.775l-11.56 7.22.539.495 11.644-7.28c-.232-.148-.43-.296-.623-.435zm-1.628 2.42a21.161 21.161 0 001.905 1.356l.584-.495a20.86 20.86 0 01-1.836-1.257zm-3.722 6.171a32.167 32.167 0 01-2.92-2.024l-.584.366a33.103 33.103 0 002.97 2.099zm8.413-6.562l-10.11 8.65c.203.134.41.263.623.392l10.15-8.69c-.212-.134-.44-.248-.628-.367zm-16.662 8.804a.426.426 0 00-.174.584.44.44 0 00.58.208.426.426 0 00.173-.579.44.44 0 00-.57-.228zm46.444 7.775q1.455.034 2.93.04v-.703c-.96 0-1.91 0-2.85-.035zm-.094-9.838l-1.282 11.382h.703l1.277-11.333zm-3.558-.411l-2.474 11.555.707.045 2.475-11.556zm-.94 10.036c.96.064 1.93.114 2.905.158l.079-.702q-1.43-.05-2.836-.149zM93.644 160h.703v-11.432h-.703zm-.733-14.846a.277.277 0 00.055.405.322.322 0 00.43-.044.282.282 0 00-.059-.406.312.312 0 00-.406.03zm-1.88 6.047c.703 0 1.41.04 2.123.05v-.703c-.688 0-1.37-.025-2.044-.05zm-16.024 5.028c-.99-.168-1.94-.346-2.89-.54l-.297.634c.965.203 1.945.386 2.94.56zm-20.835-44.247h.347v-3.648h-.347zm24.71 35.314L74.63 158.63l.707.11 4.251-11.344zm-3.846-.658l-5.206 11.12.708.144 5.211-11.13zm6.142 10.442l-.213.678q1.485.164 2.97.287l.148-.688q-1.45-.133-2.885-.292zm1.663-9.284l-3.549 11.437.708.074 3.598-11.451c-.262-.025-.505-.045-.738-.075zm-3.366 9.086q-1.4-.173-2.776-.38l-.247.657q1.385.213 2.81.396z" stroke-width=".495" fill="#32426b"/></svg>