<svg xmlns="http://www.w3.org/2000/svg" height="160" width="140" data-name="Слой 1"><path d="M69.545 4.526a.45.45 0 00.49-.416.49.49 0 00-.392-.534.45.45 0 00-.49.421.49.49 0 00.392.529zm-4.134.812a.362.362 0 00.298.406.347.347 0 00.382-.323.362.362 0 00-.298-.406.347.347 0 00-.382.323zm5.822-.979a.435.435 0 00-.386.465.42.42 0 00.435.41.44.44 0 00-.049-.875zm-2.48-1.223a.646.646 0 00-.025-.876.558.558 0 00-.822.03.646.646 0 00.025.875.558.558 0 00.822-.024zm-2.554.856a.714.714 0 00.597.808.695.695 0 00.753-.637.72.72 0 00-.597-.807.69.69 0 00-.753.636zM66.53 2.1a.435.435 0 00.387-.465.42.42 0 00-.436-.41.44.44 0 00.05.875zm1.39 3.16a.416.416 0 00.435.411.426.426 0 00.382-.489.42.42 0 00-.436-.41.43.43 0 00-.381.488zm2.725.72a.347.347 0 00.382-.323.362.362 0 00-.304-.406.357.357 0 00-.381.323.367.367 0 00.303.406zm8 0a.46.46 0 00.489-.421.49.49 0 00-.402-.538.49.49 0 00-.489.425.49.49 0 00.401.558zm-1.547-.274a.347.347 0 00.382-.323.362.362 0 00-.299-.406.347.347 0 00-.381.323.362.362 0 00.298.43zm-1.932 0a.695.695 0 00.763-.641.724.724 0 00-.607-.812.695.695 0 00-.763.665.724.724 0 00.607.822zm6.017 1.179a.342.342 0 00.382-.318.357.357 0 00-.298-.406.342.342 0 00-.382.318.357.357 0 00.298.44zm-8.767-2.119a.342.342 0 00.377-.318.352.352 0 00-.299-.4.347.347 0 00-.376.317.357.357 0 00.298.436zm1.218-.621a.352.352 0 00.382-.323.362.362 0 00-.299-.401.352.352 0 00-.381.318.362.362 0 00.298.44zm-2.015-.675a.548.548 0 000-.744.49.49 0 00-.7 0 .553.553 0 000 .749.49.49 0 00.7.029zm1.702 2.705a.455.455 0 00.49-.42.49.49 0 00-.397-.539.49.49 0 00-.49.426.49.49 0 00.397.568zM11.344 145.587a.357.357 0 00-.343.381.367.367 0 00.382.348.362.362 0 00.342-.382.367.367 0 00-.381-.347zm-.171-2.363a.528.528 0 00-.734.146.533.533 0 10.734-.146zM65.583 3.14a.646.646 0 00-.025-.876.558.558 0 00-.822.03.646.646 0 00.024.875.558.558 0 00.822-.029zM16.784 72.13l17.53-7.584-.078-.196-17.55 7.593a30.378 30.378 0 00-8.317 5.764A26.532 26.532 0 00.081 97.102h.206A26.332 26.332 0 018.51 77.859a30.334 30.334 0 018.273-5.729zm86.392-53.246a.621.621 0 10.764-.43.621.621 0 00-.764.43zM37.5 143.532a.65.65 0 00-.915.298.753.753 0 00.284.979.66.66 0 00.92-.304.749.749 0 00-.289-.973zm66.372-123.326a.44.44 0 10.602.152.44.44 0 00-.602-.152zm-64.93 124.847a.372.372 0 00-.141-.489.333.333 0 00-.46.152.372.372 0 00.142.489.333.333 0 00.46-.152zm-2.842.553a.66.66 0 00-.92.304.749.749 0 00.289.978.65.65 0 00.915-.298.753.753 0 00-.284-.984zm-24.208-3.268a.362.362 0 10.381.342.362.362 0 00-.381-.342zm26.561 3.483a.612.612 0 00-.489.705.587.587 0 00.665.519.612.612 0 00.49-.705.592.592 0 00-.666-.519zm75.061-129.774a.533.533 0 10-.367-.655.533.533 0 00.367.655zm-.978-.875a.362.362 0 00.21-.49.372.372 0 00-.49-.21.364.364 0 10.26.68zm3.268-.46a.367.367 0 00.21-.49.364.364 0 10-.68.26.372.372 0 00.48.22zm-3.88 2.123a.49.49 0 00.279-.616.49.49 0 10-.279.616zm-5.44.91a.621.621 0 10-.43-.768.626.626 0 00.44.768zm2.162.915a.729.729 0 10-.944-.42.734.734 0 00.954.42zm1.14-1.761a.621.621 0 10-.43-.768.621.621 0 00.44.768zm-3.469 3.014a.729.729 0 10-.939-.421.729.729 0 00.94.42zm3.538-2.364a.44.44 0 10.455.754.44.44 0 00-.455-.754zM49.677 145.895a.362.362 0 10.323.377.352.352 0 00-.304-.377zm24.633 10.49v.2h48.877v-.21zM73.2 48.567l-.147-.147c-2.099 2.128-5.04 1.86-7.138 1.258l-.059.2a10.49 10.49 0 002.862.426 6.086 6.086 0 004.501-1.737zm-17.892-.338l-.171.118c.044.059 1.032 1.414 3.67 1.766l.053-.186c-2.55-.362-3.523-1.688-3.532-1.698zm18.719 111.672h54.209v-.21h-54.21zm1.957-120.248a6.957 6.957 0 01-5.656.093l-.093.186a6.634 6.634 0 002.789.572 7.407 7.407 0 003.048-.66zm-2.882-.49c1.497 0 2.187-1.38 2.446-2.069.289.069.592.152.91.254l.367.113.079-.377a3.258 3.258 0 00-.548-2.348.347.347 0 10-.573.391 2.608 2.608 0 01.465 1.434 10.734 10.734 0 00-5.157-.186 4.09 4.09 0 01-2.118 0 .347.347 0 00-.445.2.352.352 0 00.2.45 3.459 3.459 0 001.659.138 2.69 2.69 0 002.705 2zM59.926 36.39c-.616.234-1.276.122-2.113 0a10.764 10.764 0 00-5.171.19 2.662 2.662 0 01.489-1.433.347.347 0 10-.573-.392 3.258 3.258 0 00-.548 2.349l.079.377.362-.113c.323-.103.626-.186.915-.254.25.69.939 2.07 2.446 2.07a2.696 2.696 0 002.73-1.987 3.425 3.425 0 001.654-.137.348.348 0 10-.245-.65zm-6.77 3.36l-.099.187a6.664 6.664 0 002.79.572 7.407 7.407 0 003.047-.66l-.083-.191a6.952 6.952 0 01-5.666.098zm4.676-6.604c.7.103 1.385.205 2.055.288h.04a.348.348 0 00.043-.694c-.66-.079-1.34-.181-2.035-.284-2.534-.382-5.161-.773-7.794-.308a.348.348 0 10.123.685c2.51-.44 5.078-.03 7.559.318zM40.22 143.453a.553.553 0 00-.817-.073.64.64 0 00-.063.87.553.553 0 00.817.074.64.64 0 00.063-.866zm1.957 2.398a.416.416 0 00-.455.381.44.44 0 00.362.49.416.416 0 00.455-.387.43.43 0 00-.366-.48zm-.895-1.429a.363.363 0 00.044.724.362.362 0 00.318-.386.347.347 0 00-.367-.333zm1.248.059a.563.563 0 00-.054.748.49.49 0 00.7.06.543.543 0 00.053-.745.49.49 0 00-.704-.058zm-2.31 1.252a.64.64 0 00-.063.871.553.553 0 00.817.074.646.646 0 00.068-.871.558.558 0 00-.826-.069zm4.717-1.644a.426.426 0 00-.455.387.44.44 0 00.362.49.416.416 0 00.455-.387.435.435 0 00-.367-.485zm1.698.89a.362.362 0 00-.319.387.342.342 0 10.68-.044.352.352 0 00-.366-.337zm-.847.906a.347.347 0 00-.318.382.352.352 0 00.362.342.362.362 0 00.318-.386.347.347 0 00-.367-.333zm-1.888 0a.553.553 0 00-.054.744.49.49 0 00.7.063.548.548 0 00.053-.743.49.49 0 00-.704-.044zm3.845.161a.362.362 0 10.323.377.352.352 0 00-.328-.357zm71.069-109.103a.528.528 0 10-.739.128.528.528 0 00.734-.128zm10.132 58.055a.553.553 0 00-.65-.49.646.646 0 00-.539.69.558.558 0 00.651.49.65.65 0 00.533-.69zm-.548-1.277a.416.416 0 00-.073-.592.43.43 0 00-.592.113.42.42 0 00.073.592.43.43 0 00.587-.113zm.925 3.004a.695.695 0 00-.979 0 .72.72 0 00-.048 1.003.685.685 0 00.978 0 .72.72 0 00.04-1.003zm-2.275-1.62a.695.695 0 00-.979 0 .72.72 0 00-.053 1.004.695.695 0 00.978 0 .72.72 0 00.049-1.003zm-.26-2.025a.548.548 0 00-.645-.49.65.65 0 00-.543.69.563.563 0 00.65.49.646.646 0 00.534-.69zm2.065 5.73a.43.43 0 00.074.596.44.44 0 00.597-.112.43.43 0 00-.074-.597.435.435 0 00-.602.112zm-1.986-1.542a.362.362 0 00-.025.49.347.347 0 00.49 0 .362.362 0 000-.49.352.352 0 00-.465 0zm0-5.71a.367.367 0 00-.025.49.352.352 0 00.49 0 .367.367 0 000-.49.352.352 0 00-.465 0zm3.45 3.225a.44.44 0 00-.52.704.435.435 0 00.597-.112.42.42 0 00-.078-.592zm1.795 6.081a.43.43 0 00-.529-.289.426.426 0 00-.318.49.43.43 0 00.529.288.426.426 0 00.318-.489zm0 1.336a.49.49 0 00-.387.543.455.455 0 00.553.347.49.49 0 00.391-.543.49.49 0 00-.552-.347zm-.842-3.582a.455.455 0 00-.65 0 .49.49 0 00-.035.66.46.46 0 00.651 0 .49.49 0 00.034-.66zm.127-1.6a.558.558 0 00-.65-.489.65.65 0 00-.539.69.553.553 0 00.651.49.646.646 0 00.524-.69zm2.202 7.868a.729.729 0 00.592-.827.705.705 0 00-.846-.529.729.729 0 00-.592.827.705.705 0 00.831.529zm-2.818-4.658a.352.352 0 00-.338.372.352.352 0 00.387.313.362.362 0 00.342-.377.347.347 0 00-.391-.308zm-60.667 47.893a.563.563 0 00-.103.744.49.49 0 00.695.093.548.548 0 00.102-.74.49.49 0 00-.694-.097zm1.228-1.889a.347.347 0 00-.426.255.357.357 0 00.23.445.347.347 0 00.426-.25.362.362 0 00-.245-.45zm-4.487-.24a.411.411 0 10.592-.112.43.43 0 00-.606.113zm57.688-55.231a.553.553 0 00-.122.753.49.49 0 00.694.093.548.548 0 00.103-.738.49.49 0 00-.675-.108zm-55.555 55.188a.65.65 0 00-.538.69.548.548 0 00.646.489.646.646 0 00.543-.69.558.558 0 00-.65-.49zm-1.096 1.707a.362.362 0 000 .49.347.347 0 00.49 0 .357.357 0 00.024-.49.352.352 0 00-.513 0zm6.36.313a.352.352 0 00-.43.255.362.362 0 00.23.45.352.352 0 00.43-.255.367.367 0 00-.234-.45zm48.593-56.596a.44.44 0 00-.46.396.426.426 0 00.362.49.44.44 0 00.46-.397.426.426 0 00-.367-.49zm1.492 1.859a.357.357 0 00-.23-.445.347.347 0 00-.425.25.357.357 0 00.23.444.347.347 0 00.42-.25zm-.029.944a.42.42 0 00.073.597.43.43 0 00.592-.113.413.413 0 10-.665-.489zm-3.116-3.131a.342.342 0 00-.426.25.362.362 0 00.225.454.347.347 0 00.43-.254.352.352 0 00-.234-.47zm-23.597 39.12c-4.07 0-6.488 3.117-6.488 5.979 0 3.376 2.417 6.492 6.488 6.492 3.562 0 5.979-3.116 5.979-6.492a6.091 6.091 0 00-5.98-5.979zm4.834-32.447H92.246v27.36h10.182zM72.49 147.47a.426.426 0 00-.455.397.411.411 0 00.358.489.43.43 0 00.46-.392.426.426 0 00-.363-.494zm40.481-108.726a.729.729 0 00-.45-1.385.729.729 0 10.45 1.385zm1.057-2.148a.44.44 0 00.122.87.445.445 0 00.377-.488.44.44 0 00-.5-.382zm-2.608 2.833a.621.621 0 10.866-.147.621.621 0 00-.866.147zm4.8-2.716a.49.49 0 10.602.309.49.49 0 00-.602-.304zm-6.302 1.14a.729.729 0 10.45 1.385.729.729 0 00-.45-1.385zm5.612.876a.621.621 0 10-.866.147.626.626 0 00.866-.147zm-11.845 2.05a.44.44 0 10.377-.49.44.44 0 00-.377.49zm-1.707-.729a.362.362 0 00-.23.46.363.363 0 10.69-.225.367.367 0 00-.46-.235zm15.763-2.446a.362.362 0 10.455.235.362.362 0 00-.455-.22zm16.023 68.838a.362.362 0 00.299-.411.352.352 0 00-.426-.265.362.362 0 00-.293.411.347.347 0 00.42.28zm-25.563-67.767a.44.44 0 00-.49-.376.44.44 0 00.123.87.44.44 0 00.367-.494zm-2.485.847a.528.528 0 10.738-.128.528.528 0 00-.738.128zm3.268.978a.621.621 0 10-.866.147.626.626 0 00.866-.161zm-8.993.21a.367.367 0 10.455.235.367.367 0 00-.455-.25zm34.214 61.974a.362.362 0 00.293-.41.352.352 0 00-.42-.26.357.357 0 00-.294.406.352.352 0 00.42.264zm-1.096-1.639a.357.357 0 00-.294.406.352.352 0 00.42.264.367.367 0 00.294-.41.352.352 0 00-.445-.26zm-.861-1.658a.49.49 0 00.552.43.553.553 0 00.46-.587.49.49 0 00-.552-.43.553.553 0 00-.46.587zm1.678 7.828a.49.49 0 00-.392.543.49.49 0 00.558.347.49.49 0 00.387-.543.455.455 0 00-.534-.357zm-2.006-9.16a.342.342 0 00.49 0 .357.357 0 00.028-.488.347.347 0 00-.489 0 .357.357 0 00-.01.479zm1.815 11.992a.362.362 0 00-.294.411.347.347 0 00.421.265.362.362 0 00.299-.411.352.352 0 00-.406-.274zm-32.1-89.435a.528.528 0 10.656-.367.533.533 0 00-.656.367zM98.49 22.53a.364.364 0 10.26.68.364.364 0 00-.26-.68zm24.164 65.022H93.411L76.987 69.938v17.614H72.68c-7.975 0-14.467 7.157-14.467 15.954v32.022c0 8.806 6.492 15.959 14.467 15.959h49.992c7.98 0 14.472-7.158 14.472-15.96v-32.03c-.005-8.797-6.492-15.955-14.472-15.955zm13.778 47.976c0 8.415-6.18 15.264-13.778 15.264H72.681c-7.593 0-13.772-6.85-13.772-15.264v-32.032c0-8.415 6.179-15.264 13.772-15.264h4.995V71.68l15.431 16.552h29.566c7.598 0 13.777 6.85 13.777 15.264zM99.786 20.955a.44.44 0 10.602.151.44.44 0 00-.602-.151zm-3.254 2.314a.367.367 0 00-.205.489.357.357 0 00.49.206.367.367 0 00.21-.49.372.372 0 00-.495-.205zM120.55 35.92a.372.372 0 00-.235.46.367.367 0 10.695-.225.372.372 0 00-.44-.235zm3.88 49.282h-.392a27.951 27.951 0 00-5.538-7.5 30.544 30.544 0 00-8.269-5.759l-17.53-7.588-.083.196 17.53 7.583a30.221 30.221 0 018.234 5.724 27.574 27.574 0 015.44 7.34h-6.34a29.531 29.531 0 00-4.52-5.427 21.336 21.336 0 00-4.282-2.984L81.483 64.209a55.804 55.804 0 01-1.512-9.912.533.533 0 000-.083c2.07-3.914 2.779-8.156 2.383-10.186 1.85-.656 3.062-2.936 3.562-5.46 19.501-1.082 28.89-3.914 33.332-6.13 4.893-2.447 5.06-4.595 5.064-4.683h-.21c0 .025-.191 2.168-5.01 4.54-4.428 2.182-13.773 4.996-33.137 6.077a13.547 13.547 0 00.225-2.417c0-1.419-.392-2.378-1.17-2.852a2.118 2.118 0 00-.46-.2c.108-1.268.162-2.52.162-3.729a51.748 51.748 0 00-.284-5.533c19.022-3.259 19.536-8.606 19.57-8.836h-.21c0 .054-.568 5.416-19.36 8.64a46.261 46.261 0 00-.215-1.56c1.184-.656 1.468-1.22 1.502-1.366a.49.49 0 000-.112V17.5c1.468-.225 7.632-1.404 7.632-5.23 0-2.676-9.017-6.526-11.776-7.647C75.87 2.323 68.298 0 64.217 0c-4.08 0-11.659 2.324-17.354 4.623-2.764 1.12-11.776 4.971-11.776 7.647 0 3.826 6.16 5.005 7.632 5.23v2.907a.323.323 0 000 .112c.05.147.319.71 1.502 1.365a44.476 44.476 0 00-.42 4.027c-10.343.195-18.342 1.198-23.768 2.994-4.403 1.468-7.143 3.425-8.146 5.871-1.688 4.139 2.255 8.2 2.294 8.244l.152-.147c-.039-.039-3.89-4.007-2.25-8.019 1.53-3.757 8.287-8.317 31.708-8.748a55.727 55.727 0 00-.093 3.063c0 1.165.059 2.378.157 3.61a1.85 1.85 0 00-.49.216c-.778.49-1.169 1.434-1.169 2.852a12.75 12.75 0 001.076 5.186c-6.521 1.605-10.303 4.052-11.252 7.29-1.13 3.914 2.446 7.623 2.495 7.657l.151-.147c-.039-.034-3.542-3.645-2.446-7.456.91-3.165 4.658-5.568 11.126-7.153.65 1.326 1.565 2.349 2.725 2.73-.43 2.001.274 6.297 2.378 10.275v.063a55.364 55.364 0 01-1.512 9.912L19.935 76.695l-.196.088a21.478 21.478 0 00-4.28 2.985 30.446 30.446 0 00-6.36 8.606c-2.98 5.92-4.326 12.745-4.752 19.403l-.093.245.079.03a84.93 84.93 0 00-.05 8.703l-.077.323h.093a99.858 99.858 0 00.709 8.112v.083a132.05 132.05 0 001.115 7.197l-.058.357h.127c.67 3.562 1.4 6.688 2.035 9.149v.171h.054c.89 3.425 1.575 5.519 1.595 5.568a.347.347 0 00.328.24.279.279 0 00.107 0 .342.342 0 00.22-.436c0-.049-.67-2.035-1.53-5.328l20.47.744c-.074 1.17-.167 2.378-.29 3.625h.206c.123-1.257.216-2.446.289-3.64l2.27.083q-.26 2.202-.65 4.54h.088v.045l3.106.357s.455-1.898.866-4.942h5.871a.49.49 0 00-.146.29.43.43 0 00.362.488.416.416 0 00.455-.381.445.445 0 00-.157-.392h9.29C52.462 152.622 60.378 160 69.898 160v-.205c-9.403 0-17.226-7.285-18.655-16.787h2.447c1.76 7.921 8.248 13.998 15.724 13.998v-.21c-7.368 0-13.758-5.98-15.514-13.788h2.446c2.163 6.522 7.867 11.194 14.54 11.194h53.564c8.528 0 15.47-7.622 15.47-16.991V102.2c0-9.37-6.942-16.997-15.47-16.997zm-15.657-4.829a3.718 3.718 0 002.618-.978 13.278 13.278 0 011.071.905 28.269 28.269 0 014.154 4.892h-2.73a21.121 21.121 0 00-2.676-2.974l-.132.156a21.395 21.395 0 012.578 2.828h-4.829c0-1.825-.024-3.483-.049-4.829zm-.68 4.83h-4.462a28.342 28.342 0 004.433-3.915c.044 1.145.054 2.48.054 3.914zm-8.855-10.275c.337-.49.636-.905.895-1.311l7.652 3.512c-.925 1.424-3.586 4.854-9.472 8.073h-3.346l-3.185-3.356a28.274 28.274 0 007.338-6.757l7.31 3.322.088-.19zm-9.007-5.871l7.339 3.39c-.27.406-.588.842-.95 1.307l-7.275-3.308c.338-.504.641-.949.91-1.438zm6.301 4.843a25.089 25.089 0 01-3.963 3.944 29.12 29.12 0 01-2.744 1.927l-4.472-4.701a25.338 25.338 0 001.85-1.85 26.67 26.67 0 002.069-2.617zm-8.806-6.042c-.28.45-.582.915-.925 1.395l-1.639-.734-.088.19 1.58.72a24.017 24.017 0 01-3.253 3.615l-2.716-2.857a24.282 24.282 0 003.914-3.772zm-8.807-.64c.377-.314.71-.612.979-.886l1.516 2.333c-.347.309-.724.627-1.135.95zm.979 2.142l-1.59-1.673.425-.338zm1.38-4.472l2.646 1.224c-.22.274-.602.709-1.135 1.257l-1.668-2.295zm1.364 2.633a28.94 28.94 0 01-1.066 1.007l-1.522-2.343c.392-.372.7-.7.925-.979zm1.982-33.837c.553.342.832 1.1.832 2.26 0 3.62-1.4 6.693-3.313 7.422-.729-2.27-.097-7.387.162-9.203 0-.122.034-.254.054-.381.474-.191 1.531-.558 2.27-.108zm-20.26 16.703h-.308a.186.186 0 00-.05 0 7.417 7.417 0 01-4.99 1.125l-.112-.024h-.044c-2.882-.49-5.025-2.676-5.925-3.758a5.382 5.382 0 002.818-.885 6.023 6.023 0 00.617-.49c.132-.107.274-.225.42-.337a3.914 3.914 0 014.144-.71c-.093.759-.322 1.679-.322 1.688l-.098.392.4.039.744.073c.749.079 1.282.132 2.3.162h.03a48.24 48.24 0 003.532-.235l.367-.034-.06-.367c0-.025-.102-.646-.22-1.63 2.134-.88 3.26-.117 4.12.646l.264.235a5.02 5.02 0 003.494 1.439c-.822.978-2.677 2.9-5.186 3.596h-.079a4.124 4.124 0 00-.489.127 7.388 7.388 0 01-5.362-1.062zm3.567 1.864l-.607.318c-1.096.572-2.231 1.164-2.896 1.189-.666.024-1.732-.572-2.77-1.106a27.481 27.481 0 00-.846-.43 8.498 8.498 0 003.376-1.14 8.317 8.317 0 003.748 1.16zm4.183-6.761c-.915-.798-2.26-1.683-4.614-.788-.337-3.102-.69-8.513.514-11.277.528-.069 1.076-.142 1.649-.225 2.695-.382 5.758-.813 8.37-.348a.348.348 0 00.123-.685c-2.725-.489-5.842-.044-8.591.348-.641.088-1.253.176-1.835.244h-.103l-.054.034a.396.396 0 00-.048.044l-.044.054v.03c-1.762 3.689-.676 11.962-.402 13.83-1.11.104-1.986.167-3.111.197a23.536 23.536 0 01-2.241-.157l-.357-.034a13.699 13.699 0 00.279-1.674.43.43 0 000-.078.245.245 0 000-.059.367.367 0 00-.035-.058.298.298 0 00-.034-.05.235.235 0 00-.054-.043l-.053-.04a4.638 4.638 0 00-5.045.69 5.622 5.622 0 01-4.354-.69c-2.569-1.575-4.374-5.244-5.25-10.645a24.469 24.469 0 00-.097-.651 24.521 24.521 0 012.118-5.475c2.446 1.673 6.977 3.17 15.402 3.17 8.425 0 13.014-1.511 15.44-3.2a21.449 21.449 0 012.03 5.661v.035c0 .122-.038.274-.068.465-.875 5.425-2.68 9.11-5.24 10.675a5.5 5.5 0 01-4.29.69zM45.9 22.613a4.765 4.765 0 00.132 1.761 18.102 18.102 0 00-1.263 4.756l.21.03a18.18 18.18 0 011.146-4.472 5.5 5.5 0 00.597 1.242 17.54 17.54 0 00-1.317 4.893l.206.03a18.014 18.014 0 011.248-4.707l.166.234a7.339 7.339 0 001.199 1.214 24.262 24.262 0 00-2.143 5.382 4.369 4.369 0 00-1.546-.304 43.452 43.452 0 01-.152-3.513 47.658 47.658 0 01.49-6.967c.288.133.64.27 1.032.411zm-.896-1.145v-2.412c.2.088.416.176.656.265v2.446c-.24-.123-.455-.216-.65-.308zm.861.362v-2.446l.656.22v2.447a13.08 13.08 0 01-.65-.23zm.866.304v-2.447c.206.064.426.123.651.186v2.447zm.861.25v-2.447l.656.161v2.447l-.274-.064zm.862.205v-2.447c.254.06.489.113.787.167v2.446zm.978.195v-2.446l.783.142v2.446zm.979.177v-2.447l.782.123v2.446zm.978.151v-2.446l.788.103v2.446c-.22-.04-.485-.073-.734-.113zm.979.137v-2.446l.787.093v2.446zm.978.118V20.92l.788.084v2.446zm.979.107v-2.446l.782.073v2.447zm.978.093v-2.446l.783.059v2.446zm.979.079v-2.447l.787.05v2.48zm.978.068v-2.48l.788.044v2.485zm.979.059v-2.486l.787.035v2.49zm.978.049v-2.496H60v2.5zm.979.034v-2.495h.782v2.505zm.978.03V21.38h.788v2.505zm.979 0V21.38h.787v2.51h-.787zm.978 0v-2.51h.72v2.51zm.925 0v-2.51h.714v2.51zm.924 0v-2.51h.783v2.504h-.543zm.979 0V21.38h.788v2.505zm.978 0V21.38h.788v2.495zm.979-.03v-2.5h.788v2.495zm.978-.04v-2.49l.783-.034v2.486zm.979-.048v-2.485l.783-.044v2.48zm.978-.059v-2.48l.788-.05v2.447zm.979-.073V21.19l.788-.06v2.447zm.978-.083v-2.447l.788-.073v2.446zm.979-.093v-2.447l.783-.083v2.446zm.978-.108v-2.446l.783-.093v2.446zm.979-.122v-2.447l.788-.102v2.446zm.978-.142v-2.446l.788-.123v2.447c.176.053-.059.053-.362.107zm.979-.157v-2.446l.788-.142v2.446zm.978-.176V20.31c.27-.054.534-.108.783-.166v2.446zm1.052 4.8a7.31 7.31 0 001.165-1.184v-.03a18.156 18.156 0 011.164 4.501l.206-.029a18.156 18.156 0 00-1.228-4.672 5.827 5.827 0 00.665-1.238 18.68 18.68 0 011.062 4.261l.21-.03a18.592 18.592 0 00-1.17-4.534 4.785 4.785 0 00.197-1.957c.386-.142.733-.28 1.032-.416a46.968 46.968 0 01.49 6.967c0 1.169-.055 2.387-.157 3.615a4.364 4.364 0 00-1.58.299 20.984 20.984 0 00-1.596-5.568zm.402-5.025v-2.446l.655-.162v2.447l-.49.122zm.86-.22v-2.446c.23-.064.45-.123.656-.186v2.446c-.205.064-.425.127-.655.19zm.862-.27v-2.445c.23-.074.45-.147.65-.22v2.446a5.607 5.607 0 01-.65.22zm.86-.312V19.28c.236-.088.456-.176.656-.264v2.412c-.19.123-.41.216-.65.313zm1.518-.768a6.081 6.081 0 01-.656.376V18.94c.245-.117.49-.225.656-.338zm.758-.685a2.216 2.216 0 01-.548.538v-2.334a6.052 6.052 0 00.548-.386zm-41.665-3.303v-.03a.377.377 0 00-.093-.082h-.122c-.069 0-7.339-.95-7.339-4.59 0-3.14 20.73-11.58 28.435-11.58 7.706 0 28.411 8.41 28.411 11.566 0 3.64-7.255 4.58-7.339 4.589a.328.328 0 00-.254.181v.034c0 .04-1.79 3.66-20.827 3.66-19.037 0-20.813-3.62-20.823-3.645a.347.347 0 00-.044-.088zm.607 3.846a2.104 2.104 0 01-.548-.538v-2.153a4.922 4.922 0 00.548.386zm.21.146v-2.348c.191.113.406.22.65.338v2.402a6.468 6.468 0 01-.645-.377zm2.114 22.296c-1.957-.67-3.4-3.772-3.4-7.442 0-1.16.283-1.923.836-2.26.763-.49 1.898-.064 2.31.112 0 .157.043.313.068.465.26 1.805.88 6.83.19 9.14zm.577.489c.411-1.11.49-2.936.406-4.707 1.042 3.034 2.52 5.147 4.428 6.312a6.419 6.419 0 003.586.949 4.501 4.501 0 01-3.014.67l-.86-.19.489.728c.039.054 2.74 3.856 6.8 4.6a.313.313 0 00.093.038 11.444 11.444 0 012.573 1.101c1.16.597 2.256 1.16 3.073 1.184h.024c.818 0 1.957-.631 3.205-1.272a12.143 12.143 0 012.686-1.174.323.323 0 00.132-.059c3.626-1.042 5.994-4.369 6.028-4.403l.489-.72-.856.182a4.545 4.545 0 01-2.98-.646 6.321 6.321 0 003.552-.94c1.903-1.154 3.386-3.277 4.403-6.325v.85c-.934 12.785-7.04 20.06-16.918 20.06a16.38 16.38 0 01-4.702-.719l-.053.2a16.498 16.498 0 004.755.73c9.545 0 15.607-6.708 16.963-18.538a7.828 7.828 0 00.386 2.084c.592 1.6-.098 7.368-3.483 12.231-2.28 3.283-6.537 7.192-13.87 7.192-7.335 0-11.591-3.914-13.871-7.192-3.366-4.848-4.056-10.616-3.459-12.216zm2.212 11.56c.225.373.455.74.704 1.097 2.378 3.425 6.81 7.49 14.443 7.49 7.632 0 12.065-4.07 14.438-7.49a20.6 20.6 0 00.719-1.116 56.303 56.303 0 001.468 9.086 17.647 17.647 0 01-2.975 2.808l-1.282-1.35v-5.23h-.21v4.98l-1.762-1.854-.073 5.538a22.432 22.432 0 01-10.309 2.422v.347-.347c-10.274 0-15.827-6.36-16.605-7.339a56.063 56.063 0 001.444-9.041zm18.43 16.865c.464-.063.92-.137 1.365-.225l.445 2.804c-.49.098-.979.19-1.512.26zm.088 2.867a24.48 24.48 0 01-1.527.147l-.147-2.852c.49-.034.93-.078 1.375-.137zm1.467-3.13c.465-.099.91-.201 1.346-.319l.587 2.765c-.49.132-.978.249-1.468.357zm1.547-.373c.455-.127.895-.259 1.316-.406l.729 2.71c-.49.162-.979.314-1.468.456zm1.516-.489c.44-.156.866-.323 1.277-.49l.861 2.653c-.455.19-.924.381-1.414.557zm1.468-.577c.318-.142.631-.284.93-.426l-.04 3.068h-.024zm-7.74 4.721c-.49.03-1.013.054-1.536.054V72.38c.489 0 .934 0 1.384-.044zM64.08 72.38v2.867a26.56 26.56 0 01-1.536-.054l.147-2.857c.465.024.924.044 1.4.044zm-14.442-5.05c.327.27.685.539 1.071.818l-1.257 2.446a25.458 25.458 0 01-1.199-.88zm-1.542 2.271c-.41-.328-.787-.64-1.13-.95l1.517-2.333a18.3 18.3 0 001.003.88zm2.794-1.336c.352.25.729.49 1.13.744l-1.125 2.53c-.44-.27-.861-.539-1.257-.813zm1.311.857c.377.225.773.445 1.19.665l-.98 2.588c-.454-.235-.895-.49-1.315-.729zm1.375.758c.391.2.807.396 1.238.587l-.847 2.652a20.162 20.162 0 01-1.365-.651zm1.429.67c.41.171.836.338 1.277.49l-.724 2.715c-.49-.176-.979-.362-1.414-.558zm1.467.568c.426.146.866.279 1.316.406l-.582 2.76a43.361 43.361 0 01-1.467-.456zm1.517.464c.436.118.886.22 1.346.314l-.446 2.803a32.588 32.588 0 01-1.467-.357zm1.551.358c.44.088.9.161 1.365.22l-.298 2.842a27.78 27.78 0 01-1.512-.259zm1.57.25q.676.087 1.38.131l-.151 2.857q-.778-.053-1.527-.146zm-12.788-6.02l-1.516 2.349a22.23 22.23 0 01-1.062-1.008l1.659-2.285c.23.24.538.568.924.944zm-1.203-1.291l.152.176L45.6 67.35c-.533-.538-.91-.978-1.13-1.247zM43.82 66.4c1.091 1.365 8.137 9.54 20.378 9.54a26.106 26.106 0 0010.274-2.074l-.054 4.281a33.127 33.127 0 01-10.21 1.497c-12.53 0-19.16-5.548-22.506-10.2l1.649-.75-.088-.19-1.679.768c-.342-.49-.645-.949-.92-1.4zm17.755 19.453a70.926 70.926 0 01-3.855-.25 18.729 18.729 0 014.99-3.214c.49 0 .979.03 1.468.03a36.6 36.6 0 0010.172-1.356l-.05 4.105-.259.034h-3.145a14.095 14.095 0 00-4.247.66c-.783.025-1.576.04-2.393.04-.817 0-1.575 0-2.338-.04a18.797 18.797 0 0110.392-3.126v-.205a19.017 19.017 0 00-10.74 3.322zm-8.146 39.419v-4.457l2.006.054v4.491a54.43 54.43 0 01-2.006-.088zm2.006 2.887v4.452l-2.01-.127v-4.453zm-2.01-10.133v-4.496l2.01.059v4.52zm0-7.275v-3.542l2.01.083v3.518c-.67-.015-1.34-.04-2.006-.059zm0-6.321v-3.577c.67.044 1.35.084 2.035.118 0 .406-.044.812-.044 1.228v2.314zm-2.207-6.527a20.46 20.46 0 01.836-3.615c.827.093 1.669.176 2.535.25a18.743 18.743 0 00-1.033 3.536 121.92 121.92 0 01-2.333-.17zm-.2 27.203v-4.404l2.2.108v4.462zm2.2 2.935v4.447l-2.2-.156v-4.438c.728.05 1.482.093 2.206.142zm-2.186-10.108v-4.472l2.202.084v4.5zm0-7.25v-3.572l2.202.112v3.543zm0-6.36v-3.626c.729.059 1.468.112 2.221.161v3.583a135.6 135.6 0 00-2.221-.137zm2.138-12.697a19.903 19.903 0 012.177-3.469q1.531.191 3.175.323a19.007 19.007 0 00-2.588 3.39c-.954-.087-1.879-.17-2.774-.263zm5.617-3.126q1.38.103 2.832.151a16.4 16.4 0 00-3.077 3.386c-.807-.044-1.605-.088-2.378-.147a19.193 19.193 0 012.613-3.41zm-17.57-15.27c3.572 3.968 10.07 8.655 21.038 9.159a18.944 18.944 0 00-4.804 3.205c-10.881-1.087-17.574-4.658-21.44-7.74a24.952 24.952 0 01-4.001-3.993l7.143-3.243a25.93 25.93 0 002.055 2.593zm-3.077-4.178c.27.445.568.915.89 1.39l-7.157 3.253c-.362-.465-.68-.905-.944-1.306zm-9.785 4.52c.254.407.548.847.89 1.317l-7.382 3.351.088.19 7.422-3.375C32.7 79.543 40.048 86.167 55.098 88.13a20.333 20.333 0 00-2.158 3.474C29.872 89.157 22.4 79.49 20.86 77.044zM20.17 99.45a46.591 46.591 0 01-10.764-2.534 28.152 28.152 0 012.26-6.708 24.301 24.301 0 008.054 2.5c.073 2.383.22 4.707.45 6.723zm6.57 11.561a39.101 39.101 0 012.33 4.844 21.845 21.845 0 01-2.868.489 18.685 18.685 0 00-3.009-4.824 20.642 20.642 0 003.572-.411zm3.254 7.447a46.2 46.2 0 011.223 4.579 20.235 20.235 0 01-2.71.49 39.786 39.786 0 00-1.263-4.531 23.18 23.18 0 002.75-.538zm-2.236-9.932a23.866 23.866 0 00-5.078-4.125c-.543-.543-.95-.88-1.12-1.022a9.897 9.897 0 01-.201-.778c7.26 2.035 16.845 3.743 29.433 4.472v3.576a219.943 219.943 0 01-23.014-2.123zm2.055-6.806a.43.43 0 00-.313-.44.401.401 0 00-.49.284 123.42 123.42 0 01-3.067-.68.646.646 0 00-.068-.436.558.558 0 00-.793-.215.607.607 0 00-.264.377c-.45-.113-.89-.225-1.321-.343a.749.749 0 00.117-.528.685.685 0 00-.773-.607.724.724 0 00-.572.803c-.49-.137-.979-.274-1.424-.416-.215-1.835-.362-3.963-.455-6.16 6.36 3.107 15.989 6.116 30.387 7.305v3.625a153.684 153.684 0 01-20.944-2.569zm-9.217.558c.107.524.22 1.008.347 1.429l.034.107.088.069a22.124 22.124 0 014.134 4.687c-2.167.279-7.974.64-16.047-1.761a29.844 29.844 0 01-.162-7.095 47.775 47.775 0 0011.606 2.564zm-4.688-21.967a13.278 13.278 0 011.072-.905 3.728 3.728 0 002.617.978h.025a255.247 255.247 0 000 9.52 21.527 21.527 0 01-6.625-2.137 24.717 24.717 0 014.301-5.382l-.132-.157a24.683 24.683 0 00-4.35 5.431 11.517 11.517 0 01-1.82-1.267 28.827 28.827 0 014.913-6.1zm-6.272 8.566a14.873 14.873 0 001.855 1.233 28.279 28.279 0 00-2.275 6.732 33.625 33.625 0 01-2.251-.93 39.938 39.938 0 012.671-7.054zm-3.351 9.785c.841.367 1.683.7 2.505.979a30.099 30.099 0 00.142 7.104 60.48 60.48 0 01-3.699-1.262v.039a59.37 59.37 0 011.052-6.894zm-1.282 9.702c7.114 2.603 12.877 3.215 16.684 3.215.435 0 .846 0 1.232-.025a17.975 17.975 0 013.068 4.839c-8.635.905-20.27-1.747-21.092-1.957a79.705 79.705 0 01.108-6.106zm.27 12.975a99.501 99.501 0 01-.285-4.016c2.447.533 9.903 2.035 17.041 2.035a38.94 38.94 0 005.025-.304 39.708 39.708 0 011.267 4.53 73.221 73.221 0 01-8.807.441h-.63c-3.426 0-13.328-1.423-13.514-1.467l-.098-1.253zm1.183 9.1c-.269-1.61-.523-3.287-.744-5.024 2.408.337 10.07 1.365 13.176 1.38h.646a75.178 75.178 0 009.296-.49c.23 1.443.425 3.019.567 4.741a97.567 97.567 0 01-9.32.22 110.336 110.336 0 01-13.567-1.17zm23.137 9.785l-17.819-.645a.49.49 0 00-.132-.137.612.612 0 00-.792.102l-.71-.029a.161.161 0 000-.049.44.44 0 00-.86 0l-.98-.034v.093c-.46-1.928-.939-4.13-1.394-6.536.43.058 1.013.141 1.727.225a.435.435 0 00.49.244.411.411 0 00.234-.156l.627.068a.602.602 0 00.244.348.621.621 0 00.861-.172.298.298 0 00.025-.058c2.383.24 5.46.489 8.894.548.881.024 1.723.029 2.53.029a97.35 97.35 0 007.026-.245c.097 1.938.107 4.061.029 6.36zm0-9.173a58.25 58.25 0 00-.568-4.75 23.41 23.41 0 002.701-.49c.245 1.566.43 3.22.548 4.97-.387.01-1.301.118-2.662.226zm2.588 9.266l-2.402-.083c.078-2.31.068-4.442 0-6.414a57.296 57.296 0 002.622-.254c.04 2.079-.015 4.33-.2 6.707zm-1.908-28.562c5.944.783 12.72 1.39 20.52 1.717v4.467c-6.85-.387-12.883-1.047-18.157-1.854a27.75 27.75 0 00-2.343-4.374zm4.633 11.551a37.946 37.946 0 00-1.12-4.212c5.015.709 10.665 1.286 17.006 1.634v4.403a219.733 219.733 0 01-15.866-1.869zm15.886 4.614v4.437c-5.054-.386-10.274-.895-14.932-1.39-.078-1.56-.22-3.16-.45-4.78 4.677.661 9.849 1.278 15.402 1.689zm-13.777 12.407a.49.49 0 00-.333-.435.435.435 0 00-.548.327.793.793 0 000 .108h-.49c.187-1.957.314-4.178.304-6.56 4.643.489 9.844.978 14.864 1.37v5.165zM20.326 90.12a219.623 219.623 0 010-9.183c3.67 4.222 12.457 11.16 31.538 13.327a21.527 21.527 0 00-.832 3.61C35.909 96.623 26.286 93.3 20.326 90.12zm30.706 50.163v-5.176l2.202.156v3.508c0 .49.024 1.013.063 1.512zm2.446 0a19.207 19.207 0 01-.063-1.512v-3.493l2.01.127v1.855a18.63 18.63 0 00.25 3.023zm.274-42.193a18.973 18.973 0 011.042-3.532c.724.058 1.468.112 2.217.156a18.102 18.102 0 00-1.15 3.498zm85.472 39.17c0 8.982-6.629 16.297-14.775 16.297H70.91c-8.146 0-14.775-7.315-14.775-16.297V102.2c0-8.988 6.63-16.302 14.775-16.302h4.095l.255-20.431 19.418 20.43h29.776c8.146 0 14.775 7.34 14.775 16.303zM77.745 59.757h-.21v6.12h.21zm-55.608 37.55a.523.523 0 00-.411.597.49.49 0 00.562.436.519.519 0 00.411-.597.49.49 0 00-.562-.436zm5.132 7.368a.362.362 0 10.333.372.347.347 0 00-.333-.372zm-2.848-.787a.333.333 0 00-.445.195.377.377 0 00.186.49.333.333 0 00.445-.196.377.377 0 00-.186-.49zm1.018 1.164a.338.338 0 00-.445.196.367.367 0 00.186.489.333.333 0 00.445-.196.377.377 0 00-.186-.489zm43.827-40.246l-.054-.2c-9.359 2.373-15.607-2.71-15.656-2.76l-.132.157a18.215 18.215 0 0010.857 3.425 20.177 20.177 0 004.985-.622zM51.86 60.427h-.21l-.412 6.136h.206zm-1.41-1.032l-.21-.03-.743 5.632h.205zm-24.173 39.63a.411.411 0 00-.49.332.44.44 0 00.314.524.411.411 0 00.489-.333.44.44 0 00-.313-.533zm36.239-32.952l-.49-.093a3.821 3.821 0 003.014 4.35l.132-.49c-3.165-.87-2.68-3.674-2.656-3.767zm-35.158 34.155a.548.548 0 00-.171.724.49.49 0 00.68.186.548.548 0 00.171-.724.49.49 0 00-.68-.21zm-4.893-5.186a.49.49 0 00-.67.22.548.548 0 00.206.714.49.49 0 00.67-.22.548.548 0 00-.225-.738zm-13.93 31.699a.362.362 0 10.382.342.362.362 0 00-.382-.342zm15.363-30.96a.347.347 0 00-.391-.304.357.357 0 00-.284.411.338.338 0 00.386.304.362.362 0 00.289-.397zm.03 2.177a.587.587 0 00-.368.729.548.548 0 00.69.391.592.592 0 00.362-.714.538.538 0 00-.685-.391zM67.47 144.52a.548.548 0 00-.646-.49.65.65 0 00-.543.69.563.563 0 00.65.49.646.646 0 00.549-.675zM61.928 11.072h1.061v3.366a4.193 4.193 0 01-.978-1.17 1.132 1.132 0 00-1.957 1.14 6.248 6.248 0 001.423 1.713 4.56 4.56 0 002.182 1.042 1.522 1.522 0 00.21 0 1.36 1.36 0 00.31-.054 1.316 1.316 0 00.302.054.979.979 0 00.206 0 4.545 4.545 0 002.177-1.032c12.153-.274 16.967-2.403 17.016-2.447l-.088-.186c-.049 0-4.765 2.104-16.688 2.398a6.36 6.36 0 001.198-1.507 1.132 1.132 0 00-1.957-1.14 3.914 3.914 0 01-1.11 1.272v-3.469h1.203a1.135 1.135 0 100-2.265h-1.203v-.979a1.13 1.13 0 10-2.26 0v.979h-1.062a1.135 1.135 0 000 2.265zm-.03-6.067a.43.43 0 00.382-.49.416.416 0 00-.436-.41.426.426 0 00-.381.489.42.42 0 00.435.411zm-1.468-2.27a.553.553 0 000-.749.49.49 0 00-.7 0 .548.548 0 000 .744.49.49 0 00.71.005zm2.256.303a.646.646 0 000-.876.553.553 0 00-.817 0 .646.646 0 000 .876.553.553 0 00.827 0zM59.535 4.8a.342.342 0 00.377-.318.352.352 0 00-.299-.402.347.347 0 00-.376.318.357.357 0 00.308.402zm4.462.2a.685.685 0 00.753-.636.714.714 0 00-.596-.802.69.69 0 00-.754.636.714.714 0 00.607.802zm-.068-2.9a.435.435 0 00.386-.465.42.42 0 00-.435-.41.44.44 0 00.048.875zm4.173 53.069l-.132-.161a6.258 6.258 0 01-3.533 1.247 8.141 8.141 0 01-3.914-1.257l-.117.176a8.22 8.22 0 004.012 1.291 6.36 6.36 0 003.694-1.296zm11.306-10.181l-.195-.069c-1.57 4.653-3.772 8.17-6.542 10.46l.133.162c2.793-2.314 5.014-5.866 6.604-10.553zm-28.552 9.06a26.42 26.42 0 01-2.804-9.295h-.205a26.537 26.537 0 002.823 9.384zm7.338-50.27a.435.435 0 00.387-.49.411.411 0 10-.387.49zm25.7 12.393l-.087-.191c-.05.024-5.514 2.446-19.536 2.446-14.022 0-19.57-2.412-19.634-2.446l-.088.19c.059.025 5.641 2.447 19.722 2.447 14.08 0 19.57-2.446 19.624-2.446zM56.38 3.596a.347.347 0 00.382-.318.367.367 0 00-.303-.411.357.357 0 00-.382.323.367.367 0 00.303.386zM9.485 128.468a.44.44 0 00.2.856.44.44 0 00-.2-.856zm51.567 8.547a.352.352 0 00-.289.406.342.342 0 00.416.264.362.362 0 00.294-.41.352.352 0 00-.421-.26zm.24-4.526a.49.49 0 00.386-.538.49.49 0 00-.558-.347.49.49 0 00-.386.538.455.455 0 00.572.367zm-50.868 2.77a.729.729 0 10-.69.763.72.72 0 00.69-.764zm52.526 5.073a.49.49 0 00-.553-.43.553.553 0 00-.46.587.49.49 0 00.553.43.548.548 0 00.475-.587zm-1.468-10.651a.357.357 0 00.294-.41.347.347 0 00-.42-.265.357.357 0 00-.294.41.347.347 0 00.415.26zm.172 5.152a.729.729 0 00-.592.822.695.695 0 00.846.528.724.724 0 00.592-.822.7.7 0 00-.851-.528zm-.181-1.576a.362.362 0 00-.294.416.347.347 0 00.42.265.362.362 0 00.294-.416.347.347 0 00-.425-.265zm3.375 11.087a.416.416 0 00.074.592.43.43 0 00.592-.113.42.42 0 00-.074-.592.426.426 0 00-.597.123zm-2.045-2.667a.362.362 0 00-.029.49.352.352 0 00.49 0 .362.362 0 00.029-.49.352.352 0 00-.495 0zm4.105 1.307a.724.724 0 00.054-1.003.695.695 0 00-.979 0 .71.71 0 00-.053.978.695.695 0 00.973.025zm-.523-2.055a.413.413 0 10-.666-.49.42.42 0 00.074.598.435.435 0 00.592-.108zm-1.346 1.605a.548.548 0 00-.646-.49.646.646 0 00-.543.69.558.558 0 00.651.49.65.65 0 00.538-.71zm-1.071-3.88a.43.43 0 00-.529-.289.426.426 0 00-.318.49.43.43 0 00.529.288.426.426 0 00.318-.509zm-1.82.039a.362.362 0 00.293-.406.347.347 0 00-.42-.264.352.352 0 00-.29.406.342.342 0 00.417.244zm-25.304-1.434a.519.519 0 00-.27.68.49.49 0 00.651.304.519.519 0 00.27-.68.49.49 0 00-.651-.304zm.489-2.245a.333.333 0 00-.416.25.377.377 0 00.25.445.333.333 0 00.415-.25.377.377 0 00-.25-.445zm.87 4.158a.333.333 0 00-.415.25.382.382 0 00.25.45.333.333 0 00.415-.25.387.387 0 00-.23-.45zm-28.077-1.996a.729.729 0 00-.69.764.734.734 0 00.768.69.729.729 0 00.69-.764.734.734 0 00-.749-.69zM21.7 87.273a.455.455 0 00-.513-.397.49.49 0 00-.372.543.45.45 0 00.489.402.49.49 0 00.416-.534zm-10.724 48.88a.621.621 0 10.86-.17.621.621 0 00-.84.185zm52.14 1.351a.49.49 0 00.386-.543.455.455 0 00-.553-.347.49.49 0 00-.391.543.49.49 0 00.557.347zm5.25 4.932a.362.362 0 00.024-.49.352.352 0 00-.49 0 .367.367 0 000 .49.352.352 0 00.465.014zm-3.89-2.96a.357.357 0 00.337-.372.342.342 0 00-.386-.313.367.367 0 00-.343.377.352.352 0 00.392.322zm-.49 1.61a.46.46 0 00.651 0 .49.49 0 00.034-.661.46.46 0 00-.65 0 .49.49 0 00-.044.675zM21.677 88.99a.367.367 0 00-.289.416.347.347 0 00.392.303.362.362 0 00.283-.416.347.347 0 00-.386-.303zM68.2 144.613a.695.695 0 00.978 0 .72.72 0 00.054-1.003.695.695 0 00-.978 0 .724.724 0 00-.064 1.003zm2.74.93a.42.42 0 00-.074-.597.44.44 0 10.074.597z" fill="#323d66"/></svg>