<svg xmlns="http://www.w3.org/2000/svg" height="160" width="189" version="1.1" data-name="Слой 1" id="Слой_1"><defs id="defs4"><style id="style2">.cls-7{fill:#32426b}</style></defs><g transform="translate(-39.384 -35.247) scale(.49317)" id="g659"><path class="cls-7" d="M236.84 365.25a1 1 0 00.16 1.4 1.1 1.1 0 001.48-.2 1 1 0 00-.16-1.39 1.11 1.11 0 00-1.48.19z" id="path24"/><path class="cls-7" d="M242.12 364.28a1 1 0 00-.16-1.4 1.11 1.11 0 00-1.48.2 1 1 0 00.16 1.39 1.11 1.11 0 001.48-.19z" id="path26"/><path class="cls-7" d="M245.18 360.79a.82.82 0 00-1.1.48 1 1 0 00.54 1.16.81.81 0 001.09-.49.93.93 0 00-.53-1.15z" id="path28"/><path class="cls-7" d="M247.3 362.25a.94.94 0 00.53 1.16.82.82 0 001.1-.49 1 1 0 00-.54-1.16.81.81 0 00-1.09.49z" id="path30"/><path class="cls-7" d="M227.24 368.36a.85.85 0 00.54-1.1.89.89 0 00-1.15-.48.86.86 0 00-.54 1.1.89.89 0 001.15.48z" id="path32"/><path class="cls-7" d="M247.35 358.7a.71.71 0 00-.36.95.73.73 0 00.94.42.71.71 0 00.36-.95.73.73 0 00-.94-.42z" id="path34"/><path class="cls-7" d="M236.25 362.5a.75.75 0 00-.69.77.71.71 0 00.8.63.75.75 0 00.69-.78.72.72 0 00-.8-.62z" id="path36"/><path class="cls-7" d="M244.69 363.6a.71.71 0 00-.36.95.74.74 0 00.94.43.71.71 0 00.36-1 .74.74 0 00-.94-.38z" id="path38"/><path class="cls-7" d="M234.23 366.09a.68.68 0 00-.32-.94.78.78 0 00-1 .34.67.67 0 00.33.93.78.78 0 00.99-.33z" id="path40"/><path class="cls-7" d="M231 369.14a.84.84 0 001-.54.74.74 0 00-.54-.94.84.84 0 00-1 .54.74.74 0 00.54.94z" id="path42"/><path class="cls-7" d="M253.47 359.8a.623.623 0 00-.67-1.05.61.61 0 00-.15.84.6.6 0 00.82.21z" id="path44"/><path class="cls-7" d="M256 357.64a.6.6 0 00.16-.83.59.59 0 00-.82-.21.62.62 0 00.66 1z" id="path46"/><path class="cls-7" d="M251.28 359.66a.6.6 0 00.16-.83.61.61 0 00-.83-.21.62.62 0 00-.15.84.59.59 0 00.82.2z" id="path48"/><path class="cls-7" d="M238.84 363.56a.581.581 0 10-.31-1.12.59.59 0 00-.44.72.6.6 0 00.75.4z" id="path50"/><path class="cls-7" d="M250.09 360.67a.61.61 0 00-.15.83.6.6 0 00.82.21.62.62 0 00-.67-1z" id="path52"/><path class="cls-7" d="M230.16 365.18a.63.63 0 00-.77.41.56.56 0 00.41.71.64.64 0 00.77-.41.55.55 0 00-.41-.71z" id="path54"/><path class="cls-7" d="M223.46 367.26a.58.58 0 00-.42-.72.63.63 0 00-.76.41.56.56 0 00.41.72.65.65 0 00.77-.41z" id="path56"/><path class="cls-7" d="M307.36 365.06a.94.94 0 00-.16 1.39 1.09 1.09 0 001.47.2 1 1 0 00.17-1.4 1.11 1.11 0 00-1.48-.19z" id="path58"/><path class="cls-7" d="M305 364.47a.94.94 0 00.16-1.39 1.1 1.1 0 00-1.48-.2 1 1 0 00-.16 1.4 1.11 1.11 0 001.48.19z" id="path60"/><path class="cls-7" d="M301.59 361.27a.8.8 0 00-1.09-.48.94.94 0 00-.54 1.15.82.82 0 001.1.49.94.94 0 00.53-1.16z" id="path62"/><path class="cls-7" d="M296.75 362.92a.81.81 0 001.09.49 1 1 0 00.54-1.16.83.83 0 00-1.1-.49.94.94 0 00-.53 1.16z" id="path64"/><path class="cls-7" d="M319.59 367.88a.87.87 0 00-.55-1.1.89.89 0 00-1.15.48.86.86 0 00.55 1.1.89.89 0 001.15-.48z" id="path66"/><path class="cls-7" d="M298.69 359.65a.71.71 0 00-.36-.95.74.74 0 00-.95.42.71.71 0 00.36.95.75.75 0 00.95-.42z" id="path68"/><path class="cls-7" d="M310.11 363.27a.74.74 0 00-.68-.77.71.71 0 00-.8.62.74.74 0 00.68.78.71.71 0 00.8-.63z" id="path70"/><path class="cls-7" d="M301 363.6a.76.76 0 00-.95.43.71.71 0 00.36 1 .76.76 0 001-.43.71.71 0 00-.41-1z" id="path72"/><path class="cls-7" d="M312.45 366.42a.66.66 0 00.32-.93.77.77 0 00-1-.34.68.68 0 00-.33.94.79.79 0 001.01.33z" id="path74"/><path class="cls-7" d="M314.16 367.66a.74.74 0 00-.54.94.84.84 0 001 .54.74.74 0 00.54-.94.84.84 0 00-1-.54z" id="path76"/><path class="cls-7" d="M293 359.59a.591.591 0 10-1-.63.61.61 0 00.15.84.6.6 0 00.85-.21z" id="path78"/><path class="cls-7" d="M290.46 357.43a.6.6 0 00-.15-.83.62.62 0 00-.67 1 .6.6 0 00.82-.17z" id="path80"/><path class="cls-7" d="M295.06 358.62a.6.6 0 00-.82.21.59.59 0 00.15.83.62.62 0 00.67-1z" id="path82"/><path class="cls-7" d="M307.14 362.44a.6.6 0 00-.75.39.61.61 0 00.44.73.62.62 0 00.76-.4.6.6 0 00-.45-.72z" id="path84"/><path class="cls-7" d="M294.76 360.87a.591.591 0 101 .63.59.59 0 00-.15-.83.59.59 0 00-.85.2z" id="path86"/><path class="cls-7" d="M315.87 366.3a.55.55 0 00.41-.71.63.63 0 00-.77-.41.56.56 0 00-.41.71.65.65 0 00.77.41z" id="path88"/><path class="cls-7" d="M323 367.67a.57.57 0 00.41-.72.65.65 0 00-.77-.41.56.56 0 00-.41.72.65.65 0 00.77.41z" id="path90"/><path class="cls-7" d="M318.81 133.64a.75.75 0 00.75-.75.75.75 0 10-.75.75z" id="path92"/><path class="cls-7" d="M264.94 152.44a.67.67 0 00-.58.74.66.66 0 10.58-.74z" id="path94"/><path class="cls-7" d="M257.6 143v.43c.15 0 15-.14 21.33-11.8l-.38-.2C272.4 142.82 257.75 143 257.6 143z" id="path96"/><path class="cls-7" d="M334 90.75v-1.46l-1.16.88c-2.36 1.77-15.74 10.59-47.48 10.59-17.63 0-29.38 3.88-34.93 11.53a18.78 18.78 0 00-2.88 15.07l.35 1.52.91-1.27c1.9-2.62 9.42-11.18 26.59-11.18 39.87 0 58.32-13.31 58.6-25.68zM275.44 115c-15.67 0-23.67 6.95-26.74 10.52a17.32 17.32 0 012.92-12.41c5.26-7.26 16.63-10.94 33.78-10.94 28.38 0 42.17-6.81 47.06-10-1.77 11.59-21.38 22.83-57.02 22.83z" id="path98"/><path class="cls-7" d="M261.06 154.51a.66.66 0 00.15 1.31.67.67 0 00.58-.73.65.65 0 00-.73-.58z" id="path100"/><path class="cls-7" d="M311.65 135.56a1.083 1.083 0 10-1.74-1.29 1.07 1.07 0 00.22 1.51 1.09 1.09 0 001.52-.22z" id="path102"/><path class="cls-7" d="M308.84 133.38a.75.75 0 00.75-.74.76.76 0 00-.75-.75.75.75 0 00-.74.75.74.74 0 00.74.74z" id="path104"/><path class="cls-7" d="M248.24 156.93a1.13 1.13 0 10.41 1.54 1.13 1.13 0 00-.41-1.54z" id="path106"/><path class="cls-7" d="M249.48 154.4a.8.8 0 00-.53 1 .8.8 0 001.53-.46.81.81 0 00-1-.54z" id="path108"/><path class="cls-7" d="M247 154.81a1.3 1.3 0 00-1.46-1.16 1.32 1.32 0 101.46 1.16z" id="path110"/><path class="cls-7" d="M316.05 135a.9.9 0 00.73-1 .91.91 0 00-1-.73.9.9 0 00-.72 1 .88.88 0 00.99.73z" id="path112"/><path class="cls-7" d="M258.08 155.45a1 1 0 10.35 1.31 1 1 0 00-.35-1.31z" id="path114"/><path class="cls-7" d="M313.43 134.13a.75.75 0 00.74-.75.74.74 0 00-.74-.74.75.75 0 00-.75.74.76.76 0 00.75.75z" id="path116"/><path class="cls-7" d="M254.6 154.19a.81.81 0 00-.54 1 .8.8 0 10.54-1z" id="path118"/><path class="cls-7" d="M253.19 155.92a1.13 1.13 0 10.41 1.54 1.14 1.14 0 00-.41-1.54z" id="path120"/><path class="cls-7" id="rect122" d="M262.81 286.46h.43v7.84h-.43z"/><path class="cls-7" d="M269.55 285.76h-5.44V295h5.44zm-1.42 7.83h-2.6v-6.42h2.6z" id="path124"/><path class="cls-7" d="M306.62 135.27a1 1 0 10-1-1 1 1 0 001 1z" id="path126"/><path class="cls-7" d="M291.55 109a1.27 1.27 0 101.78-.26 1.28 1.28 0 00-1.78.26z" id="path128"/><path class="cls-7" d="M291.44 112.08a.9.9 0 00.32 1.77.9.9 0 10-.32-1.77z" id="path130"/><path class="cls-7" d="M295.94 110.28a1 1 0 101 1 1 1 0 00-1-1z" id="path132"/><path class="cls-7" id="rect134" d="M292.49 315.35h.43v15.57h-.43z"/><path class="cls-7" d="M288.35 110.34a1.49 1.49 0 101.48 1.48 1.48 1.48 0 00-1.48-1.48z" id="path136"/><path class="cls-7" d="M283 111a1.49 1.49 0 101.49 1.49A1.49 1.49 0 00283 111z" id="path138"/><path class="cls-7" d="M277.72 109.74a1.27 1.27 0 101.78-.26 1.26 1.26 0 00-1.78.26z" id="path140"/><path class="cls-7" d="M286.41 108a1.27 1.27 0 10.26 1.77 1.26 1.26 0 00-.26-1.77z" id="path142"/><path class="cls-7" id="rect144" d="M272.1 286.46h.43v7.84h-.43z"/><path class="cls-7" d="M267.58 309a4.15 4.15 0 104.15-4.19 4.17 4.17 0 00-4.15 4.19zm4.37-2.75a2.75 2.75 0 012.5 2.53H272zm0 3h2.5a2.75 2.75 0 01-2.5 2.53zm-.43-3v2.53H269a2.73 2.73 0 012.52-2.51zm0 3v2.53a2.73 2.73 0 01-2.5-2.53z" id="path146"/><path class="cls-7" transform="rotate(-35.07 236.51 307.998)" id="rect148" d="M230.5 307.8h12.1v.42h-12.1z"/><path class="cls-7" transform="rotate(-35.07 294.885 307.994)" id="rect150" d="M288.87 307.8h12.1v.42h-12.1z"/><path class="cls-7" d="M304.9 109.54a.74.74 0 10.74.74.74.74 0 00-.74-.74z" id="path152"/><path class="cls-7" id="rect154" d="M234.32 315.35h.43v15.57h-.43z"/><path class="cls-7" d="M298.33 108a.74.74 0 10.74.74.74.74 0 00-.74-.74z" id="path156"/><path class="cls-7" d="M278.07 112.76a.9.9 0 101 .73.89.89 0 00-1-.73z" id="path158"/><path class="cls-7" d="M269.71 313.7l.17-.39a4.7 4.7 0 01-.12-8.53l-.19-.38a5.13 5.13 0 00.14 9.3z" id="path160"/><path class="cls-7" d="M299.31 110.37a1.09 1.09 0 00.23 1.52 1.07 1.07 0 001.51-.22 1.09 1.09 0 10-1.74-1.3z" id="path162"/><path class="cls-7" d="M211.36 277.49v-.42a3.35 3.35 0 00-3.33 3.37h.42a2.93 2.93 0 012.91-2.95z" id="path164"/><path class="cls-7" d="M208.93 280.44a2.44 2.44 0 102.43-2.45 2.44 2.44 0 00-2.43 2.45zm3.45 0a1 1 0 11-1-1 1 1 0 011 1z" id="path166"/><path class="cls-7" d="M213.38 295h5.44v-9.25h-5.44zm1.42-7.84h2.61v6.42h-2.61z" id="path168"/><path class="cls-7" d="M209.35 285.76h-5.44V295h5.44zm-1.42 7.83h-2.61v-6.42h2.61z" id="path170"/><path class="cls-7" id="rect172" d="M202.84 286.46h.43v7.84h-.43z"/><path class="cls-7" id="rect174" d="M212.26 286.46h.43v7.84h-.43z"/><path class="cls-7" d="M301 305.86a.72.72 0 00-.84 0l-9.07 6.7a.7.7 0 00.42 1.27h2.66v17.8h12.91v-17.8h2.66a.71.71 0 00.67-.48.72.72 0 00-.26-.8zm-3.32 24.35h-2.09v-1.3h2.09zm0-1.73h-2.09v-1.8h2.09zm0-2.22h-2.09v-1.8h2.09zm0-2.23h-2.09v-1.8h2.09zm0-2.22h-2.09V320h2.09zm0-2.23h-2.09v-1.79h2.09zm0-2.22h-2.09v-1.8h2.09zm0-2.22h-2.09v-1.31h2.09zm8 6.67h-1.15v.42h1.15V324h-1.15v.43h1.15v1.8h-1.15v.42h1.15v1.8h-1.15v.43h1.15v1.3h-2.09v-.65h-.43v.65h-2.3v-.65h-.43v.65h-2.3v-1.3h1v-.43h-1v-1.8h1v-.42h-1v-1.8h1V324h-1v-1.8h1v-.42h-1V320h2.3v1h.43v-1h2.3v1h.43v-1h2.09zm-5.25-6.25v1.8h-2.3v-1.8zm-2.3-.42v-1.31h2.3v1.31zm2.3 2.65v1.79h-2.3v-1.79zm2.73-2.23v1.8h-2.3v-1.8zm-2.3-.42v-1.31h2.3v1.31zm2.3 2.65v1.79h-2.3v-1.79zm2.52 1.79h-2.09v-1.79h2.09zm0-2.22h-2.09v-1.8h2.09zm0-2.22h-2.09v-1.31h2.09zm-12-2.72l6.92-5.11 7 5.11z" id="path176"/><path class="cls-7" d="M293.24 295h5.44v-9.25h-5.44zm1.41-7.84h2.61v6.42h-2.61z" id="path178"/><path class="cls-7" id="rect180" d="M332.66 286.46h.43v7.84h-.43z"/><path class="cls-7" id="rect182" d="M301.66 286.46h.43v7.84h-.43z"/><path class="cls-7" d="M302.71 295h5.44v-9.25h-5.44zm1.42-7.84h2.61v6.42h-2.61z" id="path184"/><path class="cls-7" id="rect186" d="M267.77 238.25h.43v3.83h-.43z"/><path class="cls-7" d="M269.58 243.17h3.83a.71.71 0 00.71-.71v-4.21a.71.71 0 00-.71-.71h-3.83a.71.71 0 00-.71.71v4.21a.71.71 0 00.71.71zm.71-4.21h2.41v2.8h-2.41z" id="path188"/><path class="cls-7" d="M302.71 275.83h5.44v-9.26h-5.44zm1.42-7.84h2.61v6.42h-2.61z" id="path190"/><path class="cls-7" id="rect192" d="M292.08 286.46h.43v7.84h-.43z"/><path class="cls-7" id="rect194" d="M292.08 267.48h.43v7.84h-.43z"/><path class="cls-7" id="rect196" d="M301.66 267.48h.43v7.84h-.43z"/><path class="cls-7" d="M293.24 275.83h5.44v-9.26h-5.44zm1.41-7.84h2.61v6.42h-2.61z" id="path198"/><path class="cls-7" d="M342.08 180.78a.75.75 0 00.75-.74.76.76 0 00-.75-.75.75.75 0 00-.74.75.74.74 0 00.74.74z" id="path200"/><path class="cls-7" d="M243 156.46a1.32 1.32 0 101.46 1.15 1.3 1.3 0 00-1.46-1.15z" id="path202"/><path class="cls-7" d="M333.64 295h5.44v-9.25h-5.44zm1.42-7.84h2.6v6.42h-2.6z" id="path204"/><path class="cls-7" d="M240.49 154.19a.8.8 0 00-.53 1 .794.794 0 101.52-.46.8.8 0 00-.99-.54z" id="path206"/><path class="cls-7" d="M235.86 156a.87.87 0 00-.76 1 .88.88 0 001 .76.87.87 0 10-.2-1.72z" id="path208"/><path class="cls-7" d="M234 158.68a.66.66 0 00.15 1.31.67.67 0 00.58-.73.65.65 0 00-.73-.58z" id="path210"/><path class="cls-7" d="M239.65 156.89a1.13 1.13 0 10.41 1.54 1.13 1.13 0 00-.41-1.54z" id="path212"/><path class="cls-7" d="M246.26 128.91c-.06-.13-6.07-12.6 0-22.4 5-8 16.33-12 33.78-12 29.34 0 43.4-6.23 50-11.46 7.24-5.7 7.47-11.34 7.48-11.58h-.43c0 .06-.23 5.67-7.31 11.25-6.58 5.19-20.55 11.37-49.77 11.37-17.61 0-29.1 4.11-34.14 12.2-6.22 10-.11 22.69-.05 22.82z" id="path214"/><path class="cls-7" d="M293.92 146.31l.84-2a10.75 10.75 0 0110.08-6c16.09 0 23.59-4.68 23.59-14.73v-2l-1.26 1.56c-.05.06-4.77 5.71-18.42 5.71-6.19 0-10.64 1.66-13.21 4.92-3.51 4.45-2.18 10.19-2.12 10.43zm2.73-11.64c2.29-2.91 6.36-4.38 12.1-4.38 10.44 0 15.9-3.15 18.19-5-.53 5.73-4.24 11.6-22.1 11.6a12.37 12.37 0 00-10.28 5 11 11 0 012.09-7.22z" id="path216"/><path class="cls-7" d="M303.26 136.19a.76.76 0 00.75-.75.75.75 0 00-.75-.74.74.74 0 00-.74.74.75.75 0 00.74.75z" id="path218"/><path class="cls-7" d="M206.72 171.41c0-.06-3.47-6.49 0-13 3.89-7.33 14.6-11.88 31.84-13.5v-.43c-17.39 1.64-28.22 6.26-32.18 13.73-3.55 6.71 0 13.33 0 13.4z" id="path220"/><path class="cls-7" d="M345.44 179.87a1 1 0 10-1-1 1 1 0 001 1z" id="path222"/><path class="cls-7" id="rect224" d="M323.09 286.46h.43v7.84h-.43z"/><path class="cls-7" d="M329.6 285.76h-5.44V295h5.44zm-1.42 7.83h-2.6v-6.42h2.6z" id="path226"/><path class="cls-7" d="M331.62 277.49v-.42a3.36 3.36 0 00-3.34 3.37h.43a2.93 2.93 0 012.91-2.95z" id="path228"/><path class="cls-7" d="M329.19 280.44a2.43 2.43 0 102.43-2.45 2.44 2.44 0 00-2.43 2.45zm3.44 0a1 1 0 11-1-1 1 1 0 011 1z" id="path230"/><path class="cls-7" d="M232.73 156.71a1 1 0 10.35 1.31 1 1 0 00-.35-1.31z" id="path232"/><path class="cls-7" d="M228.1 158a.66.66 0 00-.58.73.65.65 0 00.73.58.66.66 0 10-.15-1.31z" id="path234"/><path class="cls-7" d="M350.47 180.16a1.09 1.09 0 10-1.52.22 1.09 1.09 0 001.52-.22z" id="path236"/><path class="cls-7" transform="rotate(-35.08 325.862 308.016)" id="rect238" d="M319.83 307.8h12.1v.42h-12.1z"/><path class="cls-7" d="M277 331.81h-3.87v3.64H277zm-.42 3.21h-3v-2.78h3z" id="path240"/><path class="cls-7" d="M244.31 275.83h5.44v-9.26h-5.44zm1.42-7.84h2.6v6.42h-2.6z" id="path242"/><path class="cls-7" d="M260.79 323.94a.35.35 0 00.17.66h21.54a.36.36 0 00.17-.67l-10.91-6a.34.34 0 00-.34 0zm10.8-5.3l9.54 5.25h-18.82z" id="path244"/><path class="cls-7" id="rect246" d="M243.31 267.48h.43v7.84h-.43z"/><path class="cls-7" d="M244.31 295h5.44v-9.25h-5.44zm1.42-7.84h2.6v6.42h-2.6z" id="path248"/><path class="cls-7" d="M234.83 275.83h5.44v-9.26h-5.44zm1.42-7.84h2.6v6.42h-2.6z" id="path250"/><path class="cls-7" id="rect252" d="M233.73 267.48h.43v7.84h-.43z"/><path class="cls-7" d="M277 340.93h-3.87v3.63H277zm-.42 3.21h-3v-2.78h3z" id="path254"/><path class="cls-7" id="polygon256" d="M266.74 322.41l.21.37 4.79-2.74 2.22 1.06.18-.38-2.42-1.16z"/><path class="cls-7" d="M277 336.36h-3.87V340H277zm-.42 3.2h-3v-2.78h3z" id="path258"/><path class="cls-7" id="rect260" d="M243.31 286.46h.43v7.84h-.43z"/><path class="cls-7" d="M269.85 340.93H266v3.63h3.87zm-.42 3.21h-3v-2.78h3z" id="path262"/><path class="cls-7" id="rect264" d="M262.14 330.92h.43v13.7h-.43z"/><path class="cls-7" d="M269.85 336.36H266V340h3.87zm-.42 3.2h-3v-2.78h3z" id="path266"/><path class="cls-7" d="M273.53 111.9a1.08 1.08 0 101.51-.22 1.07 1.07 0 00-1.51.22z" id="path268"/><path class="cls-7" d="M269.85 331.81H266v3.64h3.87zm-.42 3.21h-3v-2.78h3z" id="path270"/><path class="cls-7" d="M308.45 140.79c-10.18 0-11.05 3.71-11.08 3.87l.42.09s.88-3.53 10.66-3.53c11.14 0 25 0 29.68-13.1l-.4-.15c-4.58 12.82-17.73 12.82-29.28 12.82z" id="path272"/><path class="cls-7" d="M269.55 266.57h-5.44v9.26h5.44zm-1.42 7.84h-2.6V268h2.6z" id="path274"/><path class="cls-7" d="M278.87 285.76h-5.44V295h5.44zm-1.42 7.83h-2.6v-6.42h2.6z" id="path276"/><path class="cls-7" d="M234.83 295h5.44v-9.25h-5.44zm1.42-7.84h2.6v6.42h-2.6z" id="path278"/><path class="cls-7" d="M333.14 174.25c-5.82 6.75-.69 14-.64 14.12l.35-.25c-.05-.07-5-7.1.61-13.6 2.48-2.87 6.32-3.22 10.39-3.59 5.2-.47 10.58-1 13.23-7l-.38-.17c-2.56 5.8-7.81 6.27-12.89 6.74-3.97.37-8.08.74-10.67 3.75z" id="path280"/><path class="cls-7" d="M261.88 113.25a.75.75 0 100 1.49.75.75 0 000-1.49z" id="path282"/><path class="cls-7" d="M269.74 111.2a.9.9 0 10.32 1.77.9.9 0 00-.32-1.77z" id="path284"/><path class="cls-7" d="M266.16 113.25a.75.75 0 10.74.75.74.74 0 00-.74-.75z" id="path286"/><path class="cls-7" id="rect288" d="M262.81 267.48h.43v7.84h-.43z"/><path class="cls-7" d="M242.79 305.86a.72.72 0 00-.84 0l-9.16 6.69a.7.7 0 00-.25.8.69.69 0 00.67.48h2.66v17.8h12.91v-17.8h2.65a.71.71 0 00.68-.48.72.72 0 00-.25-.79zm-3.41 24.35h-2.09v-1.3h2.09zm0-1.73h-2.09v-1.8h2.09zm0-2.22h-2.09v-1.8h2.09zm0-2.23h-2.09v-1.8h2.09zm0-2.22h-2.09V320h2.09zm0-2.23h-2.09v-1.79h2.09zm0-2.22h-2.09v-1.8h2.09zm0-2.22h-2.09v-1.31h2.09zm8 6.67h-1v.42h1V324h-1v.43h1v1.8h-1v.42h1v1.8h-1v.43h1v1.3h-2.1v-.65h-.42v.65h-2.31v-.65h-.42v.65h-2.3v-1.3h1.24v-.43h-1.24v-1.8h1.24v-.42h-1.24v-1.8h1.24V324h-1.24v-1.8h1.24v-.42h-1.24V320h2.3v1h.42v-1h2.31v1h.42v-1h2.1zm-5.25-6.25v1.8h-2.3v-1.8zm-2.3-.42v-1.31h2.3v1.31zm2.3 2.65v1.79h-2.3v-1.79zm2.73-2.23v1.8h-2.31v-1.8zm-2.31-.42v-1.31h2.31v1.31zm2.31 2.65v1.79h-2.31v-1.79zm2.52 1.79h-2.1v-1.79h2.1zm0-2.22h-2.1v-1.8h2.1zm0-2.22h-2.1v-1.31h2.1zm-12-2.72l7-5.11 6.91 5.11z" id="path290"/><path class="cls-7" id="rect292" d="M272.1 267.48h.43v7.84h-.43z"/><path class="cls-7" d="M278.87 266.57h-5.44v9.26h5.44zm-1.42 7.84h-2.6V268h2.6z" id="path294"/><path class="cls-7" id="rect296" d="M233.73 286.46h.43v7.84h-.43z"/><path class="cls-7" d="M147.28 275.21l.83-2a10 10 0 019.29-5.53c14.93 0 21.89-4.35 21.89-13.69v-2l-1.29 1.57c0 .05-4.4 5.27-17 5.27-5.75 0-9.88 1.54-12.27 4.58-3.27 4.14-2 9.47-2 9.7zm2.59-10.94c2.11-2.67 5.86-4 11.15-4 9.53 0 14.59-2.84 16.77-4.55-.52 5.24-4 10.57-20.39 10.57a11.41 11.41 0 00-9.47 4.53 10.05 10.05 0 011.94-6.55z" id="path298"/><path class="cls-7" d="M163.51 265a1.07 1.07 0 00-.22-1.51 1.09 1.09 0 10.22 1.51z" id="path300"/><path class="cls-7" d="M158.48 264.71a1 1 0 10-1-1 1 1 0 001 1z" id="path302"/><path class="cls-7" d="M155.12 265.62a.75.75 0 100-1.49.75.75 0 000 1.49z" id="path304"/><path class="cls-7" d="M156.89 255.77c5.2-.48 10.58-1 13.23-7l-.38-.18c-2.56 5.8-7.81 6.28-12.89 6.74-4 .36-8.08.74-10.67 3.74-5.82 6.75-.69 14.05-.64 14.12l.35-.24c0-.07-5-7.1.61-13.6 2.5-2.86 6.32-3.21 10.39-3.58z" id="path306"/><path class="cls-7" d="M208.79 321.74l.49-.51c-.14-.14-14.18-13.78-19.52-26.21a.36.36 0 00-.33-.21.33.33 0 00-.32.23c-4.64 12.22-19.36 25.71-19.51 25.84l.48.52c.15-.13 14.36-13.16 19.38-25.32 5.62 12.34 19.19 25.52 19.33 25.66z" id="path308"/><path class="cls-7" d="M188.61 308.39a5.24 5.24 0 105.24 5.24 5.25 5.25 0 00-5.24-5.24zm-.35 9a3.8 3.8 0 01-3.43-3.43h3.43zm0-4.14h-3.43a3.8 3.8 0 013.43-3.43zm.71 4.14V314h3.42a3.79 3.79 0 01-3.39 3.41zm0-4.14v-3.43a3.79 3.79 0 013.42 3.43z" id="path310"/><path class="cls-7" d="M195.91 312.63a6.3 6.3 0 00-6.3-6.3v.7a5.6 5.6 0 015.59 5.6z" id="path312"/><path class="cls-7" id="rect314" d="M133.14 352.83h58.02v.71h-58.02z"/><path class="cls-7" id="rect316" d="M94.78 331.45h61.54v.71H94.78z"/><path class="cls-7" id="polygon318" d="M168.96 328.07h41.3v-.71h-42.01v11.41h.71z"/><path class="cls-7" id="rect320" d="M187.61 357.72h.71v19.08h-.71z"/><path class="cls-7" id="rect322" d="M169.61 357.72h.71v19.08h-.71z"/><path class="cls-7" id="rect324" d="M151.36 357.72h.71v19.08h-.71z"/><path class="cls-7" id="rect326" d="M197.44 332.95h.71v13.91h-.71z"/><path class="cls-7" d="M154 333.65h-10.84a.7.7 0 00-.71.7v4.42a.71.71 0 00.71.71H154a.71.71 0 00.71-.71v-4.42a.7.7 0 00-.71-.7zm-5.78 4.41h-4.36v-3h4.36zm5.07 0h-4.36v-3h4.36z" id="path328"/><path class="cls-7" d="M138.25 333.65h-10.84a.7.7 0 00-.71.7v4.42a.71.71 0 00.71.71h10.84a.71.71 0 00.71-.71v-4.42a.7.7 0 00-.71-.7zm-5.78 4.41h-4.36v-3h4.36zm5.07 0h-4.36v-3h4.36z" id="path330"/><path class="cls-7" d="M122.5 333.65h-10.85a.7.7 0 00-.71.7v4.42a.71.71 0 00.71.71h10.85a.71.71 0 00.71-.71v-4.42a.7.7 0 00-.71-.7zm-5.78 4.41h-4.36v-3h4.36zm5.07 0h-4.36v-3h4.36z" id="path332"/><path class="cls-7" d="M106.74 333.65H95.89a.7.7 0 00-.71.7v4.42a.71.71 0 00.71.71h10.85a.71.71 0 00.71-.71v-4.42a.7.7 0 00-.71-.7zm-5.74 4.41h-4.4v-3h4.4zm5.07 0h-4.36v-3H106z" id="path334"/><path class="cls-7" id="rect336" d="M155.44 334.35h.71v4.41h-.71z"/><path class="cls-7" id="rect338" d="M139.69 334.35h.71v4.41h-.71z"/><path class="cls-7" id="rect340" d="M123.93 334.35h.71v4.41h-.71z"/><path class="cls-7" id="rect342" d="M108.17 334.35h.71v4.41h-.71z"/><path class="cls-7" id="rect344" d="M126.95 340.93h11.3v.71h-11.3z"/><path class="cls-7" id="rect346" d="M111.18 340.93h11.3v.71h-11.3z"/><path class="cls-7" id="rect348" d="M95.66 340.93h11.3v.71h-11.3z"/><path class="cls-7" id="rect350" d="M144.15 285.1h7.18v.71h-7.18z"/><path class="cls-7" id="rect352" d="M160.46 295.97h3.7v.71h-3.7z"/><path class="cls-7" d="M396.52 275.21l.83-2a10 10 0 019.28-5.53c14.94 0 21.9-4.35 21.9-13.69v-2l-1.26 1.56c0 .05-4.41 5.27-17 5.27-5.75 0-9.88 1.54-12.28 4.58-3.26 4.14-2 9.47-2 9.7zm2.59-10.94c2.11-2.67 5.86-4 11.15-4 9.53 0 14.59-2.84 16.77-4.55-.53 5.24-4 10.57-20.4 10.57a11.39 11.39 0 00-9.46 4.53 10.05 10.05 0 011.94-6.55z" id="path354"/><path class="cls-7" d="M412.75 265a1.09 1.09 0 00-1.75-1.3 1.083 1.083 0 101.74 1.29z" id="path356"/><circle class="cls-7" cx="407.72" cy="263.73" r=".98" id="circle358"/><path class="cls-7" d="M404.36 265.62a.75.75 0 10-.74-.75.74.74 0 00.74.75z" id="path360"/><path class="cls-7" d="M406.13 255.77c5.2-.48 10.58-1 13.23-7l-.39-.18c-2.55 5.8-7.8 6.28-12.88 6.74-4 .36-8.08.74-10.67 3.74-5.82 6.75-.69 14.05-.64 14.12l.34-.24c-.05-.07-5-7.1.62-13.6 2.48-2.86 6.32-3.21 10.39-3.58z" id="path362"/><path class="cls-7" d="M333.65 321.23l.5.51c.14-.14 13.7-13.32 19.33-25.66 5 12.16 19.23 25.19 19.37 25.32l.48-.52c-.15-.13-14.86-13.62-19.5-25.84a.35.35 0 00-.33-.23.37.37 0 00-.33.21c-5.33 12.43-19.37 26.07-19.52 26.21z" id="path364"/><path class="cls-7" d="M462.06 368.89l-8.51-10.46h.73a.71.71 0 00.71-.71v-4.54a.7.7 0 00-.71-.7h-1.46v-22.4h3.51a.71.71 0 00.69-.56.71.71 0 00-.42-.8 96.22 96.22 0 01-15.29-8.72v-4.71h3a.71.71 0 00.67-.5.73.73 0 00-.27-.8l-8.94-6.15a.72.72 0 00-.4-.12h-8.07a56.345 56.345 0 01-3.18-4 .7.7 0 00-.57-.29l-22.05-.18v-19.38h.76a.71.71 0 00.71-.71v-4.72a.71.71 0 00-.71-.71h-13.91a.71.71 0 00-.71.71v4.72a.71.71 0 00.71.71h.76v19.28h-3.82v-8.4h.15a.7.7 0 00.63-.39.69.69 0 00-.06-.73l-4.58-6.26a.73.73 0 00-.56-.29.57.57 0 00-.56.26l-5.05 6.26a.7.7 0 00.55 1.15h.19V303l-13.61-.11c-3.61-5.13-6.83-10.87-8.23-16.37a.71.71 0 00-1.37 0 45.59 45.59 0 01-5.29 11.89v-22.32h2.1v-3.74h-2.1v-5.62h2.1v-3.25h-8.94l-1.72-56.31a.7.7 0 00.68-.7V203a.71.71 0 00-.71-.71h-.12l-.09-2.85h.21a.7.7 0 00.66-.46l.83-2.17h.51a.7.7 0 00.71-.7v-2.63a.71.71 0 00-.71-.71h-.65l-1.79-2.34a.69.69 0 00-.56-.28h-3.55l.75-1.8a10 10 0 019.29-5.52c14.93 0 21.89-4.35 21.89-13.69v-2l-1.29 1.59c0 .05-4.4 5.26-17 5.26-5.75 0-9.88 1.54-12.27 4.58-3.27 4.14-2 9.48-2 9.7l.46 1.91h-3.36a.72.72 0 00-.57.28l-1.78 2.34h-.65a.71.71 0 00-.71.71v2.63a.7.7 0 00.71.7h.51l.83 2.17a.69.69 0 00.66.46h.2l-.08 2.85h-.12a.71.71 0 00-.71.71v3.44a.7.7 0 00.68.7l-1.72 56.31H317.2v-13.42h1.8v-4.86h-1.43a4.74 4.74 0 001.14-3.12 4.13 4.13 0 10-8.21 0 4.79 4.79 0 001.14 3.12h-1.43v4.86H312v2.49h-3.5a.7.7 0 00-.71.7v2l-2.24-.5v-3.62a.71.71 0 00-.71-.71h-2.2L300.81 166a.71.71 0 00.71-.71v-5.55a.71.71 0 00-.71-.71h-.16l-.05-2.39h.21a.71.71 0 00.67-.47l.83-2.33h.5a.71.71 0 00.71-.71v-2.8a.71.71 0 00-.71-.71h-.64l-1.78-2.51a.74.74 0 00-.58-.3h-11a.73.73 0 00-.58.3l-1.79 2.51h-.63a.71.71 0 00-.71.71v2.8a.71.71 0 00.71.71h.5l.83 2.33a.71.71 0 00.67.47h.19V159h-.16a.7.7 0 00-.71.71v5.55a.71.71 0 00.71.71L286 246.19h-1.2a.7.7 0 00-.7.71v3.1l-2.25-.51v-4.68a.71.71 0 00-.71-.71h-3.88v-7.21h1.78a.71.71 0 00.71-.71V233a.71.71 0 00-.71-.71h-15.11a.71.71 0 00-.71.71v3.17a.71.71 0 00.71.71h1.78v7.21h-3.89a.71.71 0 00-.71.71v4.68l-2.24.51v-3.09a.71.71 0 00-.71-.71h-1.57L255 160.45c16.4-2.76 24-9 24-19.44v-1.56l-1.18 1c-.07.07-6.09 5.16-22.23 7.43v-3.19a.7.7 0 00-.7-.71h-.15l-.07-3.39h.22a.7.7 0 00.66-.47l.83-2.33h.51a.7.7 0 00.7-.71v-2.8a.7.7 0 00-.7-.71h-.64l-1.79-2.51a.68.68 0 00-.57-.3h-11.11a.68.68 0 00-.57.3l-1.79 2.51h-.64a.71.71 0 00-.71.71v2.8a.71.71 0 00.71.71h.5l.84 2.33a.7.7 0 00.66.47h.22l-.06 3.39h-.16a.71.71 0 00-.71.71V149h-2.14c-14.75 0-24.51 3.19-29 9.49a14.58 14.58 0 00-2 12.49l.5 1.45.78-1.32c0-.09 5.56-9 21.63-9 3.85 0 7.44-.09 10.81-.26l-1.6 88.6h-1.85a.71.71 0 00-.71.71v3.62l-2.25.5v-2a.7.7 0 00-.71-.7H231v-2.49h1.72v-4.89h-1.42a4.79 4.79 0 001.14-3.12 4.13 4.13 0 10-8.22 0 4.79 4.79 0 001.14 3.12H224v4.86h1.82v13.42h-10.91l-1.73-71.09a.72.72 0 00.69-.71v-3.44a.7.7 0 00-.71-.7h-.1L213 183h.21a.71.71 0 00.66-.45l.83-2.17h.51a.71.71 0 00.71-.71V177a.71.71 0 00-.71-.71h-.65l-1.84-2.29a.69.69 0 00-.56-.28h-7a.7.7 0 00-.56.28l-1.79 2.34h-.65a.7.7 0 00-.7.71v2.62a.7.7 0 00.7.71h.52l.82 2.17a.72.72 0 00.66.45h.22l-.12 4.58h-.1a.7.7 0 00-.7.7v3.44a.71.71 0 00.69.71l-1.74 71.09h-8.94v3.25h2.11v5.62h-2.11v3.74h2.11v18.77-.06 3.69a45.13 45.13 0 01-5.34-12 .71.71 0 00-1.38 0c-1.39 5.5-4.62 11.24-8.22 16.37L167 303v-8.32h.14a.69.69 0 00.64-.4.7.7 0 00-.08-.75l-5.05-6.26a.59.59 0 00-.57-.26.73.73 0 00-.56.29l-4.58 6.26a.69.69 0 00-.06.73.71.71 0 00.63.39h.15v8.4h-3.81v-19.21h.75a.71.71 0 00.71-.71v-4.72a.71.71 0 00-.71-.71h-13.93a.71.71 0 00-.71.71v4.72a.71.71 0 00.71.71h.76v19.37l-22.05.18a.72.72 0 00-.57.29c-1 1.39-2.07 2.72-3.18 4h-8.09a.72.72 0 00-.4.12L98.21 314a.71.71 0 00.4 1.3h3v4.7a96.22 96.22 0 01-15.29 8.73.71.71 0 00.28 1.36h3.5v22.4h-1.45a.7.7 0 00-.71.7v4.54a.71.71 0 00.71.71h.73l-8.51 10.46a.7.7 0 00-.08.75.68.68 0 00.63.4h6.52v19.65h41.36v6.19h66v-8.23h7V389a.71.71 0 00.71.71h4.22a.7.7 0 00.7-.71v-3.5h5.37v-16h3.37a.69.69 0 00.64-.41.7.7 0 00-.1-.76l-4.11-4.83h.2v-20.58h12.46v1.7H231v-1.7h22.58v1.7h3.83v1.46a.71.71 0 00.71.71h26.68a.71.71 0 00.71-.71v-1.46h3.83v-1.7H312v1.7h5.25v-1.7h12.42v20.61h.2l-4.12 4.83a.7.7 0 00-.1.76.69.69 0 00.64.41h3.38v16H335V389a.71.71 0 00.71.71h4.21a.71.71 0 00.71-.71v-1.33h7v8.23h66v-6.2H455V370h6.52a.7.7 0 00.55-1.15zM336.83 179.44c2.11-2.67 5.86-4 11.15-4 9.54 0 14.59-2.83 16.77-4.54-.52 5.24-4 10.57-20.39 10.57a11.41 11.41 0 00-9.47 4.53 10 10 0 011.94-6.56zm-131.36-4.35h6.34l.92 1.21h-8.18zm-2.65 3.83v-1.2h11.63v1.2zm1.32 1.42h9l-.46 1.21h-8.08zm7.54 8.61v2h-6.18v-2zm-6-1.76l.1-4.23h5.79l.1 4.23-3 .09zm5.23 5.2c-.94.06-2 .12-2.23.12-.23 0-1.3-.06-2.23-.12zm-2.23.55c.34 0 2.11-.12 3.13-.18l.11 4.72c-1 .1-2.75.27-3.24.27-.49 0-2.26-.17-3.25-.27l.11-4.72c.98.06 2.75.18 3.1.18zm0 5.23c.51 0 2.25-.16 3.25-.27l.12 4.72c-1 .14-2.71.36-3.37.36-.66 0-2.41-.22-3.38-.36l.12-4.72c.96.1 2.7.27 3.22.27zm0 5.24c.68 0 2.39-.22 3.38-.36l.12 4.72a27.53 27.53 0 01-3.5.45 27.08 27.08 0 01-3.5-.45l.11-4.72c.95.14 2.71.36 3.35.36zm0 5.23a27.57 27.57 0 003.51-.44l.11 4.72a21.79 21.79 0 01-3.62.53 21.91 21.91 0 01-3.63-.53l.12-4.72a27.13 27.13 0 003.47.44zm0 5.24a21 21 0 003.63-.53l.12 4.72a18.35 18.35 0 01-3.75.62 18.12 18.12 0 01-3.75-.62l.11-4.72a21.16 21.16 0 003.6.53zm0 5.23a17.92 17.92 0 003.76-.6l.11 4.71a11.08 11.08 0 01-7.75 0l.12-4.71a17.82 17.82 0 003.72.6zm0 5.24a15.22 15.22 0 003.88-.69l.12 4.71a13.58 13.58 0 01-4 .79 13.73 13.73 0 01-4-.79l.12-4.71a15.22 15.22 0 003.84.69zm0 5.23a13.68 13.68 0 004-.76l.11 4.7a10.21 10.21 0 01-8.25 0l.11-4.7a13.69 13.69 0 003.99.76zm0 5.24a12.41 12.41 0 004.13-.84l.12 4.7a10 10 0 01-8.51 0l.12-4.7a12.53 12.53 0 004.1.84zm-4.27 4.32a10.45 10.45 0 008.53 0l.12 4.69a9.83 9.83 0 01-8.76 0zm-.12 5.16a10.23 10.23 0 008.78 0l.11 4.69a9.7 9.7 0 01-9 0zm-.13 5.17a10.15 10.15 0 009 0l.12 4.68a9.67 9.67 0 01-9.26 0zm-.13 5.17a10.19 10.19 0 009.29 0l.11 4.67a9.6 9.6 0 01-9.51 0zm-.12 5.17a10.16 10.16 0 009.54 0l.08 3.67h-9.71zm7.91 5.5h-6.29a9.17 9.17 0 01-1-.41h8.31a9.17 9.17 0 01-1.06.41zm.56 1.42v5.62h-2v-5.62zm-3.36 0v5.62H207v-5.62zm-3.37 0v5.62h-1.94v-5.62zm-10.77-1.42v-.41h8.78a7.12 7.12 0 00.71.41zm7.41 1.42v5.62h-1.94v-5.62zm-3.36 0v5.62H197v-5.62zm3.29 34.45l-.59-.73h.59zm0 .67v1.62h1.26v-.11c.95 1.13 2 2.33 3.08 3.58l-1.09.77c-2.36-2.75-4.3-5.2-5.76-7.1v-.16h1.38zm.43.51c.19.23.37.46.57.69h-.57zm15 36.75h-1.73v-2.38h1.73zm-4.26 2v-.6h1.53v.6zm0-2v-2.38h1.53v2.38zm5.49-14.23l-1-.86v-1.87c.71.66 1.43 1.31 2.16 2v3h-2.16v-.95h.53a.73.73 0 00.67-.46.72.72 0 00-.27-.86zm-3.06-2.65h.65v.57zm-4.84-4.44h.24v.21zm-14-19.14c.08.12.18.25.28.38H197zm.08 1.8h1.26c.29.39.61.8 1 1.24v1.78h1.17v-.28c1.2 1.51 2.6 3.23 4.2 5.1l-1.38 1a99.82 99.82 0 01-6.15-8.27zm2.64 1.79l.63.81h-.63zm5.21 6.37l.91 1.05-1.38 1-.91-1.09zm.46 3.14l1.39-1c.48.56 1 1.12 1.5 1.69h-2.31zm7.58 2.08l1 1v.32h-1.75l-.55-.59v-.72zm1 .38l-.37-.38h.37zm2.52 5.21l-1.67-1.63h1.67zm-4.89-3.42c.43.45.88.9 1.33 1.36h-1.33zm2.73 2.77l.82.81h-.82zm-1.77-3.21h1.34v1.37c-.45-.46-.88-.93-1.34-1.37zm-1.39-1.46l-.25-.27h.25zm-.39 1h-1.91v-1.31h.69c.4.48.81.91 1.22 1.35zm-2.34-1.31v1.31l-1.19-1.31zm.43 1.81v-.08h2.3v1.8h-.65c-.5-.47-1.05-1.05-1.65-1.68zm2.73 2.15h1.74l.56.56v1.23h-1.15c-.28-.26-.67-.64-1.15-1.13zm2.3 2.22v.61l-.68-.59zm.43.95V320h1.26l.83.8v1h-1.05v.08l-1.08-.93zm2.09 5.3h-1.05v.42h1.05v.4h-1.55v3.13h-.54v-.65h-.43v.65h-.56v-4.08h3.08zm-.55 2.65h.55v1.3h-.55zm0-.43v-.4h.55v.4zm-1 3.15V333h-1.53v-1.36zm0 2.78v.9h-1.53v-.9zm1 .9v-.9h1.73v.9zm0-2.32v-1.36h1.73V333zm2-4.91H221v-4.41l-.17-.15c-1-.91-2-1.82-3-2.74v-2.1q2.12 2 4.39 4v6.33h-4.39zm-1.42-10.72h-2.09v-1.8h.31l1.78 1.76zm-1.18-1.8h1.18v1.16zm1.18-.42h-1.6l-.49-.5v-.81h2.09zm-4.26-2.72c-1.1-1.14-2.14-2.26-3.14-3.35l2.41-1.76 6.91 5.11zm-.59 0h-2c-.71-.77-1.39-1.53-2.05-2.28l1.12-.82c.93 1.05 1.89 2.08 2.9 3.14zm-5-3.35l-.9-1 1.11-.78.89 1zm-8.13-10l-.67-.9h1.42l.7.9zm-1.45-2.32v-1.59l1.18 1.59zm-17.38 7.65A123.24 123.24 0 01169 316.89V313a61.09 61.09 0 006.61-8.62zm-4.84 0A62.25 62.25 0 01169 312v-5.41c.75-1.07 1.22-1.81 1.4-2.11zm-7.75.06h2.54c-.24.37-.6.93-1.1 1.64h-.17v.24c-.36.51-.79 1.1-1.27 1.74zm0 4.76c.47-.61.9-1.17 1.27-1.69v5.21c-.4.45-.83.91-1.27 1.37zm0 5.91c.44-.46.86-.9 1.27-1.35v3.83c-.49.51-.91.93-1.27 1.29zm0 5.74c2.12-2 17.62-17 22.52-31.63 5.15 15.41 22 31.15 22.75 31.85l4.2 3.62H167zm-4.88-31.95l3.54 4.39h-6.75zm3.46 9.7v3.55h-1.4v.71h1.4v3.54h-1.4v.71h1.4v3.54h-1.4v.71h1.4v3.55h-1.4v.71h1.4v3.54h-1.4v.71h1.4v3.54h-1.4v.71h1.4v3.55h-1.4v.71h1.4v3.54h-1.4v.71h1.4v3.54h-1.4v.71h1.4v3.19h-6.5v-3.15h1.4v-.71h-1.4v-3.54h1.4v-.71h-1.4v-3.54h1.4v-.71h-1.4v-3.55h1.4v-.71h-1.4v-3.54h1.4v-.71h-1.4v-3.54h1.4v-.71h-1.4v-3.55h1.4v-.71h-1.4v-3.54h1.4v-.71h-1.4v-3.54h1.4v-.71h-1.4v-3.55h1.4v-.71h-1.4v-3.19h6.5v3.19h-1.4v.71zm-7.92 5.91v2.13c-3.7 5.16-13 16.34-27.35 22H127c16.87-7.32 26.43-21.95 27.77-24.11zM151 328.67h-3.3a56.42 56.42 0 009.94-5.6v2.44a55.28 55.28 0 01-6.64 3.16zm6.61-2.35v2.35h-4.76c1.69-.67 3.28-1.51 4.79-2.35zm-11.79 2.35h-3.34a59.2 59.2 0 0015.16-9.67v3.19a55.94 55.94 0 01-11.79 6.48zm-5.19 0h-3.33A62.41 62.41 0 00157.64 314v4a58.34 58.34 0 01-16.98 10.67zm-5.18 0h-3.34c12.94-5.61 21.57-15.52 25.5-20.81V313a61.44 61.44 0 01-22.13 15.67zm18.41-24.11c-2 3.17-11.91 17.44-28.79 24.11h-3.33c16.78-7.28 26.32-21.78 27.75-24.07zm-11-4.61v-3.55h2v-.71h-2v-3.54h2v-.71h-2v-3.55h2v-.7h-2v-3.32h9.56v3.32h-1.75v.7h1.75v3.55h-1.75v.71h1.75v3.54h-1.75v.71h1.75v3.6h-1.75v.7h1.75v2.28h-9.56v-2.28h2v-.7zm5.82 4.65c-2.08 3.25-11.95 17.43-28.75 24.07h-3.33c16.68-7.24 26.21-21.62 27.72-24zm1.93-25.45h3.27v3.3h-3.28zm-5.23 0h4.52v3.3h-4.52zm-4 3.3v-3.3h3.28v3.3zm2.08 22.2c-2.14 3.32-12 17.41-28.73 24h-3.33c16.59-7.2 26.1-21.45 27.7-24zm-5.21 0c-2.2 3.4-12 17.4-28.7 24h-3.33c16.49-7.16 26-21.3 27.67-23.95zm-5.21 0c-2.26 3.48-12.09 17.39-28.68 23.94H101c16.4-7.12 25.89-21.14 27.64-23.91zm-5.21 0c-2.31 3.55-12.14 17.37-28.65 23.9h-3.33c16.32-7.08 25.8-21 27.61-23.87zm-13.48 4.36c-1.56 1.68-3.2 3.25-4.87 4.73h-1.85l5-4.73zm-8.78 8c-.85.66-1.69 1.29-2.53 1.9v-3.71h4.79l-1.36 1.11h-2.37v.7zm6.06-8l-5 4.73h-2.77l6.07-4.73zm-10.74 4.73l6.87-4.73h1l-6.07 4.73h-1.78zm-11.12 14.93c6.17-3.08 20.83-11.3 30-23.84h2.86c-2.35 3.61-12.16 17.36-28.62 23.86zM89.36 357v-3.12h2.21V357zm2.09 31.27h-2.09v-11.78h2.09zm2.14-16.49v3.28h-4.23v-5h4.23v1h-2.77v.7zm1.41 16.5h-2.13v-11.79H95zm3.58 0h-2.13v-11.79h2.16zm.28-13.21H94.3v-3.28h4.59zm0-4H94.3v-1h4.59zm5.3.7v3.28H99.6v-3.28zm-4.59-.7v-1h4.59v1zm2.59 17.19H100v-11.77h2.16zm3.58 0h-2.16v-11.77h2.16zm3.59 0h-2.17v-11.77h2.17zm.13-13.21h-4.56v-3.28h4.59zm0-4h-4.56v-1h4.59zm5.42.7v3.28h-4.59v-3.28zm-4.59-.7v-1h4.59v1zm2.62 17.19h-2.17v-11.75h2.17zm3.58 0h-2.17v-11.75h2.17zm3.58 0h-2.17v-11.75h2.17zm.11-13.21h-4.59v-3.28h4.59zm0-4h-4.59v-1h4.59zm.71 0v-1h4.59v5h-4.59v-3.28h3.68v-.7zm2.76 17.19h-2.16v-11.73h2.16zm3.58 0h-2.13v-11.73h2.16zm3.32-10v3h-1.25v7h-.62v-11.73h1.9zm0-3.19h-4.36v-5h.6a.7.7 0 00.65-.42l3.11-7.11zm0-16.1l-4.22 9.65H82.91l8.3-10.19h39.37zm-38.3-2v-3.12h2.29V357zm3 0v-3.12h2.29V357zm3 0v-3.12h2.29V357zm3 0v-3.12h2.29V357zm3 0v-3.12h2.29V357zm3 0v-3.12h2.29V357zm3 0v-3.12h2.29V357zm3 0v-3.12h2.29V357zm3 0v-3.12h2.29V357zm3 0v-3.12h2.29V357zm3 0v-3.12h2.29V357zm3 0v-3.12h2.29V357zm3 0v-3.12h1.94V357zm2.3-4.53H93.43v-2.87h-.71v2.33h-1.19v-4.13h1.9v-3h-.71v2.33h-1.19V343h1.9v-3h-.71v2.33h-1.19v-4.13h1.9v-3h-.71v2.33h-1.19v-4.12h1.9v-3h-.71v2.33h-1.19v-2.52h66.11v10h-10.59a.63.63 0 00-.27.06L123.69 350a.8.8 0 00-.33.3H94.78v.71h28.58a.7.7 0 00.61.35h6.61zm-3.13-2.4l19.78-8.48h30.06l5.66 2.43v.14h.33L197 350zm61.66-13.19v3.93h-4.74v-3.94zm-4.74-.71v-3.58h4.74v3.58zm4.74 5.35V345l-4.74-2v-1.56zm5.46-4.64v3.93h-4.75v-3.94zm-4.75-.71v-3.58h4.75v3.58zm4.75 5.35V345h-4.75v-3.57zm0 4.28v1.65l-3.86-1.65zm-.5 8.17h.79v3.1H194zm-1.42 25.79v1.58H132v-1.58zM132 378.26v-22.1h6v22.1zm9-16.41V367h-1.61v-5.12zm-1.61-.71v-5H141v5zm1.61 6.54v5.11h-1.61v-5.11zm0 5.82v4.76h-1.61v-4.76zm.71-.71v-5.11h.71V367h-.71v-5.12h2v3.56h.71v-3.56h2v3.56h.7v-3.56h1.69V367H148v.71h.84v5.11H148v.71h.84v4.76h-1.74v-1.49h-.7v1.46h-2v-1.46h-.71v1.46h-2v-4.76h.71v-.71zm0-11.65v-5h2v5zm2.68 0v-5h2v5zm2.68 0v-5h1.69v5zm3.1 17.12v-22.1h6v22.1zm9-16.41V367h-1.62v-5.12zm-1.62-.71v-5h1.62v5zm1.62 6.54v5.11h-1.62v-5.11zm0 5.82v4.76h-1.62v-4.76zm.71-.71v-5.11h.92V367h-.8v-5.12h2v3.56h.71v-3.56h2v3.56h.71v-3.56h1.62V367h-.57v.71h.57v5.11h-.57v.71h.57v4.76h-1.62v-1.49h-.71v1.46h-2v-1.46H162v1.46h-2v-4.76h.92v-.71zm0-11.65v-5h2v5zm2.68 0v-5h2v5zm2.68 0v-5h1.62v5zm3 17.12v-22.1h6.06v22.1zm9.1-16.41V367h-1.62v-5.12zm-1.62-.71v-5h1.62v5zm1.62 6.54v5.11h-1.62v-5.11zm0 5.82v4.76h-1.62v-4.76zm.71-.71v-5.11h.92V367h-.92v-5.12h2v3.56h.71v-3.56h2v3.56h.71v-3.56h1.62V367h-.57v.71h.57v5.11h-.57v.71h.57v4.76h-1.62v-1.49h-.71v1.46h-2v-1.46h-.71v1.46h-2v-4.76h.92v-.71zm0-11.65v-5h2v5zm2.68 0v-5h2v5zm2.68 0v-5h1.62v5zm3 17.12v-22.1h6.07v22.1zM132 354.74v-3.34h60.62v3.34zm57 39.73h-53.37v-1.83H189zm4.92 0h-3.5v-3.25h-56.2v3.25h-3.5v-11.79h63.18zm1-13.21H194v-18.91l.85 1.85zm1.85 5h-1.17v-20.5l1.14 2.48zm1.85 0h-1.14v-16.8a.68.68 0 00.35.09h.79zm1.85 0h-1.17v-16.73h1.14zm1.88 0h-1.17v-16.73h1.17zm4.22 2h-2.8v-18.73h2.8zm5.36-12.17h-1.28v-2.33h-.71v3h2v4.12h-1.28v-2.32h-.71v3h2v2.42h-4v-14.45h2V372h2zm0-4.84h-1.28v-1.74h1.28zm3.26-3.16h-16.94L194 359v-.54h12.88zM195.54 357v-3.12h2.29V357zm3 0v-3.12h2.29V357zm3 0v-3.12h2.29V357zm3 0v-3.12h2V357zm7.19 4.89h.17v.19zm.17-18.89v4.13h-1.28v-2.33h-.71v3h2v4.13h-1.28v-2.33h-.71v3h2v4.13h-1.28v-2.33h-.71v3h2v3.71h-.77l-.51-.6v-1.31h-.71v.48l-2-2.3v-4.28a.7.7 0 00-.7-.7H194v-1h6.42a.74.74 0 00.62-.35h5.4v-.71h-5.39a.72.72 0 00-.32-.3L196 348v-16.2a.7.7 0 00-.7-.71h-11.67a.71.71 0 00-.71.71v10.59l-5.24-2.24a.67.67 0 00-.28-.06H167v-14h44.9v6.47h-1.28v-2.33h-.71v3h2v4.12h-1.28v-2.25h-.71v3h2v4.13h-1.28v-2.33h-.71v3zm4.5-1.47h-.55v-1h.55zm9.38 0H218v-4.77h7.78zm0-6.19H218v-.9h7.78zm0-2.32H218v-3.51h4.64v-7l-.08-.07q-2.48-2.19-4.74-4.37v-4.26h2.66a.7.7 0 00.42-1.27l-9.07-6.7a.72.72 0 00-.84 0l-2.94 2.16-.89-1 3.27-2.3-.24-.35-3.32 2.33c-1.58-1.8-3-3.48-4.26-5v-1.25h2.52v3h1.35v-.42h-.93v-2.6h2.52v3h1.44v-.42h-1v-2.6H211v3h1.52v-.42h-1.1v-2.6H214v3h1.61v-.42h-1.18v-2.6h2.51v3h1.71v-.42h-1.28v-2.6h2.52v3h1.79v-.42h-1.36v-2.6h2.51v3h1.88v-.42h-1.45v-2.6h2.56zm0-34h-25.32l-.7-.9h26zm0-2.32h-27.12c-.72-.95-1.29-1.73-1.71-2.31v-18.3h28.83zm0-22h-30.94v-.9h30.94zm-12-2.32v-5.62h1.95v5.62zm3.37 0v-5.62h1.94v5.62zm3.36 0v-5.62h1.94v5.62zm5.3 0h-1.94v-5.62h1.94zm0-7h-12.87a6.35 6.35 0 00.72-.41h12.12zm75.5-13.46h2.8v2.59l-2.8-.63zm-.11-1.42h-.6a.7.7 0 00-.7.71v2.36l-2.25-.5v-4a.74.74 0 00-.09-.33 10.45 10.45 0 003.57-1.29zm-12-102.23h10.31l1 1.39h-12.35zm-2.66 4.19V151h15.63v1.38zm1.3 1.42h13l-.49 1.38h-12zm6.59 6.73l4.9-.09.08 3.9c-1.44.06-4.59.19-5 .19-.41 0-3.7-.13-5.13-.19l.08-3.9zm-5-1.54l.06-2.39h9.78l.05 2.39zm10 7l.06 2.71c-1.41.09-4.48.28-5.08.28-.79 0-3.83-.19-5.22-.28l.06-2.71zm-5 3.41c.61 0 3.67-.18 5.09-.27l.08 3.91c-1.38.11-4.38.36-5.17.36-1.05 0-4-.24-5.32-.36l.09-3.91c1.34-.01 4.36.17 5.17.17zm0 4.42c.81 0 3.78-.24 5.18-.35l.08 3.9c-1.36.15-4.29.45-5.27.45-1.3 0-4.1-.3-5.4-.45l.08-3.9c1.3.01 4.19.25 5.27.25zm0 4.43c1 0 3.9-.3 5.28-.45l.08 3.91c-1.33.17-4.19.53-5.36.53a49.14 49.14 0 01-5.5-.53l.09-3.91c1.25.05 3.98.35 5.34.35zm0 4.42c1.19 0 4-.35 5.37-.53l.09 3.9a47.44 47.44 0 01-5.47.63 38.36 38.36 0 01-5.58-.62l.08-3.91a49.1 49.1 0 005.44.43zm0 4.42a45.09 45.09 0 005.47-.62l.09 3.91a38.84 38.84 0 01-5.56.71 31.25 31.25 0 01-5.68-.7l.09-3.91a39.13 39.13 0 005.51.51zm0 4.42a37.81 37.81 0 005.57-.7l.08 3.91a32.71 32.71 0 01-5.66.79 26.34 26.34 0 01-5.76-.77l.08-3.92a31.3 31.3 0 005.61.59zm0 4.43a32.16 32.16 0 005.67-.79l.08 3.91a28.19 28.19 0 01-5.75.87 22.67 22.67 0 01-5.86-.85l.09-3.91a26.47 26.47 0 005.68.67zm0 4.42a28 28 0 005.76-.86l.08 3.9a24.9 24.9 0 01-5.85 1 20 20 0 01-5.95-.92l.09-3.91a23.15 23.15 0 005.78.69zm0 4.42a24.81 24.81 0 005.86-.94l.08 3.91a22.22 22.22 0 01-5.94 1 17.47 17.47 0 01-6-1l.08-3.9a20.13 20.13 0 005.82.83zm0 4.42a22.69 22.69 0 005.95-1l.08 3.9a20.06 20.06 0 01-6 1.11 16 16 0 01-6.14-1.06l.09-3.9a18.21 18.21 0 005.92.85zm0 4.42a20.3 20.3 0 006-1.09l.08 3.91a18.45 18.45 0 01-6.13 1.18 14.77 14.77 0 01-6.22-1.12l.08-3.9a16.65 16.65 0 006.09.92zm0 4.43a18.77 18.77 0 006.14-1.16l.09 3.89a16.86 16.86 0 01-6.23 1.26 13.77 13.77 0 01-6.32-1.17l.09-3.9a15.36 15.36 0 006.12.95zm-6.43 3.19a14.52 14.52 0 006.33 1.13 17 17 0 006.23-1.23l.09 3.9a15.89 15.89 0 01-6.33 1.33c-3.69 0-5.58-.75-6.41-1.23zm-.1 4.38a13.8 13.8 0 006.42 1.17 16.21 16.21 0 006.34-1.29l.08 3.89a15 15 0 01-6.42 1.4c-3.87 0-5.71-.77-6.5-1.28zm-.09 4.39c1 .54 2.87 1.2 6.51 1.2a15.34 15.34 0 006.43-1.35l.08 3.88a14 14 0 01-6.52 1.47c-4 0-5.82-.78-6.59-1.31zm-.1 4.39c.95.57 2.86 1.23 6.6 1.23a14.46 14.46 0 006.53-1.41l.08 3.88a13.42 13.42 0 01-6.61 1.53c-4.16 0-5.94-.79-6.69-1.34zm-.1 4.4c.95.59 2.86 1.26 6.7 1.26a13.85 13.85 0 006.62-1.48l.08 3.88a12.87 12.87 0 01-6.71 1.59c-4.27 0-6.05-.79-6.77-1.36zm-.09 4.4c.94.61 2.86 1.28 6.78 1.28A13.37 13.37 0 00301 243l.08 3.87a10.21 10.21 0 01-4 1.44.66.66 0 00-.15 0h-4.23a.67.67 0 00-.45.18 17.83 17.83 0 01-2.5-.34v-1.25a.71.71 0 00-.71-.71h-1.6zm8.69 6.45v3l-2.79-.63v-2.32zm-4.18-.84a.79.79 0 000 .13v2.72l-2.24-.51v-2.65a17.85 17.85 0 002.21.31zm-3.69-1.28v.1l-.2-.1zm-2.8 0h1.77a4.61 4.61 0 001 .54v2.77l-2.8-.63zm-7.87-2.12h2.79v3.67l-2.79-.63zm-13-10v-1.79h13.71v1.75zm11.22 1.42v11.26l-4.21-.94a.55.55 0 00-.31 0l-4.21.94v-11.3zm-13.33 8.62h2.8v3l-2.8.63zm-5.08 2.12v2.68l-2.79.63v-3.24l.13-.07zm-2.46-11a15 15 0 01-13.3 0l.08-4.64a14.14 14.14 0 006.53 1.41 14 14 0 006.6-1.45zM248.3 166c1 0 4-.31 5.36-.45l.09 4.66c-1.33.18-4.24.54-5.45.54s-4.08-.36-5.42-.53l.09-4.67c1.38.19 4.3.45 5.33.45zm-5.33-.88l.07-3.41q5.75-.36 10.53-1.08l.08 4.49c-1.35.14-4.34.45-5.35.45-1.01 0-3.96-.26-5.3-.41zm5.33 6.06c1.24 0 4.1-.36 5.46-.54l.08 4.67a46.67 46.67 0 01-5.54.63 49.38 49.38 0 01-5.51-.62l.08-4.67c1.37.22 4.21.57 5.43.57zm0 5.18a47.33 47.33 0 005.55-.62l.09 4.67a40 40 0 01-5.64.71 40 40 0 01-5.6-.7l.08-4.67a47.79 47.79 0 005.52.65zm0 5.19a39.05 39.05 0 005.65-.71l.09 4.67a33.5 33.5 0 01-5.74.8 33.51 33.51 0 01-5.69-.79l.08-4.67a39.06 39.06 0 005.61.74zm0 5.18a31.94 31.94 0 005.7-.73l.09 4.67a28 28 0 01-5.83.88 28 28 0 01-5.78-.87l.08-4.67a32 32 0 005.74.76zm0 5.19a28.5 28.5 0 005.84-.87l.09 4.66a18.73 18.73 0 01-11.81 0l.09-4.66a28.46 28.46 0 005.79.95zm0 5.18a24.88 24.88 0 005.93-.95l.09 4.66a17.8 17.8 0 01-12 0l.09-4.67a24.82 24.82 0 005.89 1zm0 5.18a22.41 22.41 0 006-1l.09 4.66a19.86 19.86 0 01-6.12 1.12 19.53 19.53 0 01-6.06-1.11l.08-4.66a22.49 22.49 0 006.01 1.03zm0 5.19a20.13 20.13 0 006.13-1.11l.08 4.66a16.51 16.51 0 01-12.36 0l.08-4.66a20.15 20.15 0 006.07 1.15zm0 5.18a18.55 18.55 0 006.22-1.17l.09 4.65a16.66 16.66 0 01-6.31 1.28 16.48 16.48 0 01-6.24-1.26l.08-4.66a18.31 18.31 0 006.16 1.2zm0 5.19a16.86 16.86 0 006.32-1.25l.08 4.65a15.44 15.44 0 01-6.4 1.35 15.67 15.67 0 01-6.34-1.32l.09-4.65a17.08 17.08 0 006.25 1.26zm0 5.18a15.82 15.82 0 006.41-1.31l.09 4.64a15.48 15.48 0 01-12.93 0l.09-4.64a15.85 15.85 0 006.34 1.35zm0 5.19a15 15 0 006.51-1.38l.09 4.63a15.28 15.28 0 01-13.12 0l.08-4.64a15.08 15.08 0 006.44 1.43zm-5.15-96.05h10.31l1 1.39h-12.3zm-2.66 4.19V135h15.63v1.39zm1.3 1.42h13l-.49 1.38h-12.02zm11.49 7.6l.06 2.78c-3 .36-6.38.61-10.07.73l.06-3.51zm-9.93-1.37l.07-3.39h9.77l.07 3.39zm-12.54 16.68c-13.28 0-19.66 5.76-21.89 8.41a13.1 13.1 0 012.15-9.79c4.22-5.9 13.59-8.89 27.86-8.89 24.07 0 35.11-5.7 38.54-8-.6 8.82-7.4 18.27-46.66 18.27zm10.87 76.47a15.73 15.73 0 0013.32 0l.09 4.63a12.4 12.4 0 01-6.79 1.63 12.54 12.54 0 01-6.7-1.58zm-.09 5.14a15.63 15.63 0 0013.51 0l.07 3.95H254a.71.71 0 00-.71.71v.91a12.93 12.93 0 01-2.62.6.65.65 0 00-.34-.1h-4.21a.73.73 0 00-.3.07 10.13 10.13 0 01-4.27-1.47zm9.41 6.51a13.74 13.74 0 002.29-.52v2.95l-2.25.51V249a.78.78 0 00-.04-.2zm-1.37.93v2.32l-2.8.63v-3zm-8.08-2.31a10.33 10.33 0 003.92 1.34.58.58 0 00-.06.26v4l-2.24.5v-2.36a.71.71 0 00-.71-.71h-1zm-2.59 4.43h2.79v2l-2.79.63zm-5.13 2.15v1.61l-2.8.63V254zm-5.47-15a3.15 3.15 0 11-2.69 3.12 2.93 2.93 0 012.69-3.12zm1.25 104.24h-2.41v-93.18h2.41zm-4.23-94.56v-2h6v2zm22 92.86h-10.13v-1h10.08zm6.28 0h-4.87v-2.39h-12.9v2.39H231v-4.77h22.58zm0-6.19H231v-.9h22.58zm0-10.75l-2.31 1.29a.71.71 0 00.35 1.33h2V333H231v-32.55h2.22v3h1.17v-.42h-.74v-2.6h2.51v3h1.26v-.42h-.83v-2.6h2.52v3h1.35v-.42h-.93v-2.6h2.52v3h1.44v-.42h-1v-2.6H245v3h1.52v-.42h-1.1v-2.6H248v3h1.61v-.42h-1.21v-2.6h2.51v3h1.71v-.42h-1.28v-2.6h2.27zm0-25.53H231v-.9h22.58zm0-2.32H231v-15.48h2.22v2.38h1.17v-.42h-.74v-2h2.51v2.38h1.26v-.42h-.83v-2h2.52v2.38h1.35v-.42h-.93v-2h2.52v2.38h1.44v-.42h-1v-2H245v2.38h1.52v-.42h-1.1v-2H248v2.38h1.61v-.42h-1.21v-2h2.51v2.38h1.71v-.42h-1.28v-2h2.27zm0-16.86H231V279h22.58zm0-2.32H231v-15.48h2.22v2.69h1.17v-.43h-.74v-2.26h2.51v2.69h1.26v-.43h-.83v-2.26h2.52v2.69h1.35v-.43h-.93v-2.26h2.52v2.69h1.44v-.43h-1v-2.26H245v2.69h1.52v-.43h-1.1v-2.26H248v2.69h1.61v-.43h-1.21v-2.26h2.51v2.69h1.71v-.43h-1.28v-2.26h2.27zm0-16.86h-16.92l4-.9h12.83zm0-2.32h-6.49l6.49-1.45zm3.83 84.85H255v-16h2.41zm13.34 2.17h-5.66V331h5.66zm7.09 0h-5.72V331h5.67zm6.25 0h-4.83V330.3a.71.71 0 00-.71-.71h-14.22a.71.71 0 00-.71.71v15.07h-4.84v-18.19h25.26zm3.83-2.21h-2.41v-16H288zm-33.58-17.44l17.22-9.6 17.05 9.6zm.66-2v-67.18l2.41-.54v66.39zm16.46-69.16c-7 0-9.6 3.1-10.16 3.91h-2.47v-2.8l12.63-2.82 12.63 2.82v2.8h-2.46c-.62-.8-3.21-3.9-10.22-3.9zm8.27 3.91h-2.47V257a8 8 0 012.42 1.52zm-2.9-1.66v1.66h-2.41v-2.25a12.68 12.68 0 012.36.6zm-2.79-.66v2.32h-2.36V256a18.64 18.64 0 012.31.2zm-2.79-.16v2.48h-2.37v-2.31a18.81 18.81 0 012.32-.2zm-2.79.23v2.25h-2.37v-1.66a13.65 13.65 0 012.32-.58zm-2.79.76v1.49h-2.47a8.23 8.23 0 012.42-1.51zm18.42 2.9v.91h-25.31v-.91zm-23.37 2.32v2.53h1.17v-.43h-.75v-2.1h2.52v2.53H265v-.43h-.83v-2.1h2.52v2.53H268v-.43h-.92v-2.1h2.52v2.53h1.4v-.43h-1v-2.1h2.51v2.53h1.53v-.43H273v-2.1h2.52v2.53h1.61v-.43h-1.19v-2.1h2.52v2.53h1.71v-.43h-1.28v-2.1h2.52v2.53h1.79v-.43h-1.37v-2.1h2.34v15.28h-25.31v-15.27zm23.37 16.87v.73h-25.31v-.73zm-23.37 2.15v2.38h1.17v-.42h-.75v-2h2.52v2.38H265v-.42h-.83v-2h2.52v2.38H268v-.42h-.92v-2h2.52v2.38h1.4v-.42h-1v-2h2.51v2.38h1.53v-.42H273v-2h2.52v2.38h1.61v-.42h-1.19v-2h2.52v2.38h1.71v-.42h-1.28v-2h2.52v2.38h1.79v-.42h-1.37v-2h2.34v15.44h-25.31v-15.11zm23.37 16.86v.9h-25.31v-.9zm-23.37 2.32v3h1.17v-.42h-.75v-2.6h2.52v3H265V303h-.83v-2.6h2.52v3H268v-.42h-.92v-2.6h2.52v3h1.4v-.42h-1v-2.6h2.51v3h1.53v-.42H273v-2.6h2.52v3h1.61v-.42h-1.19v-2.6h2.52v3h1.71v-.42h-1.28v-2.6h2.52v3h1.79v-.42h-1.37v-2.6h2.34v21.14l-12.18-6.86a.71.71 0 00-.69 0l-12.39 6.91v-21.02zm24.79 21.94V256l2.41.54v67.17zm20.19 19.11h-10.12v-1h10.07zm6.22 0h-4.8v-2.39h-12.96v2.39h-4.87v-4.77H312zm0-6.19h-22.63v-.9H312zm0-2.32h-22.63v-5.81h2a.71.71 0 00.35-1.33l-2.32-1.3v-24.1h2.23v3h1.17v-.42h-.8v-2.6h2.51v3h1.26V303H295v-2.6h2.52v3h1.35v-.42h-.93v-2.6h2.52v3h1.44v-.42h-1v-2.6h2.52v3h1.52v-.42h-1.1v-2.6h2.52v3h1.62v-.42h-1.19v-2.6h2.52v3H311v-.42h-1.28v-2.6H312zm0-34h-22.63v-.9H312zm0-2.32h-22.63v-15.39h2.23v2.38h1.17v-.42H292v-2h2.51v2.38h1.26v-.42H295v-2h2.52v2.38h1.35v-.42h-.93v-2h2.52v2.38h1.44v-.42h-1v-2h2.52v2.38h1.52v-.42h-1.1v-2h2.52v2.38h1.62v-.42h-1.19v-2h2.52v2.38H311v-.42h-1.28v-2H312zm0-16.86h-22.63v-.8H312zm0-2.32h-22.63v-15.39h2.23v2.69h1.17v-.43H292v-2.26h2.51v2.69h1.26v-.43H295v-2.26h2.52v2.69h1.35v-.43h-.93v-2.26h2.52v2.69h1.44v-.43h-1v-2.26h2.52v2.69h1.52v-.43h-1.1v-2.26h2.52v2.69h1.62v-.43h-1.19v-2.26h2.52v2.69H311v-.43h-1.28v-2.26H312zm-9.74-17.76l4 .9h-16.89v-.9zm-12.84-1.42v-1.4l6.5 1.45zm22.58 2.19l-9.53-2.13h-.06l-30.71-6.87a.81.81 0 00-.31 0l-30.72 6.87h-.05l-9.62 2.13v-2.84l40.46-9 40.46 9zm0-4.29l-2.79-.63V254H312zm141.62 97.69V357h-2.21v-3.12zm-18.4-44.76l6.88 4.73h-1.78l-6.07-4.73zm1.29 7.26l-1.36-1.11h4.79V319c-.84-.61-1.68-1.24-2.52-1.9h1.47v-.7zm-3.51-7.26l6.07 4.73h-2.77l-5-4.73zm-2.77 0l5 4.73h-1.84a67.82 67.82 0 01-4.88-4.73zm-7.09-4.3c9.15 12.54 23.81 20.76 30 23.84h-4.22c-16.46-6.5-26.27-20.25-28.62-23.86zm-3.71 0c1.82 2.86 11.29 16.79 27.62 23.87h-3.34c-16.51-6.53-26.33-20.35-28.64-23.9zm-5.21 0c1.75 2.77 11.24 16.79 27.64 23.91h-3.33c-16.58-6.55-26.42-20.46-28.68-23.94zm-5.21 0c1.67 2.65 11.17 16.79 27.67 23.95h-3.34c-16.65-6.58-26.5-20.58-28.7-24zm-5.21 0c1.59 2.54 11.1 16.79 27.69 24h-3.29c-16.73-6.61-26.58-20.7-28.73-24zM390.52 300v-3.6h1.75v-.71h-1.75v-3.54h1.75v-.71h-1.75v-3.55h1.75v-.7h-1.75v-3.32h9.56v3.32h-2v.7h2v3.55h-2v.71h2v3.54h-2v.71h2v3.6h-2v.7h2v2.28h-9.56v-2.28h1.75v-.7zm8.1 4.69c1.52 2.41 11 16.79 27.73 24H423c-16.8-6.64-26.66-20.82-28.75-24.07zm-.34-25.49h3.27v3.3h-3.27zm-5.24 0h4.53v3.3H393zm-4 3.3v-3.3h3.27v3.3zm4.35 22.15c1.43 2.29 11 16.79 27.75 24.07h-3.33c-16.81-6.72-26.73-20.99-28.76-24.16zm-8.12-.07h2.91c1.35 2.16 10.9 16.79 27.78 24.11h-3.34c-14.35-5.67-23.65-16.85-27.35-22zm0 3.33c3.93 5.29 12.57 15.2 25.5 20.81h-3.33A61.4 61.4 0 01385.29 313zm0 6.18a62.35 62.35 0 0020.32 14.63h-3.34a58.34 58.34 0 01-17-10.58zm0 5a59.37 59.37 0 0015.13 9.65h-3.33a55.77 55.77 0 01-11.8-6.46zm0 4.05a56.16 56.16 0 009.95 5.6h-3.32a55.28 55.28 0 01-6.61-3.16zm0 3.25c1.52.84 3.1 1.63 4.76 2.35h-4.76zm0 3.76h66.13v2.52h-1.19v-2.33h-.71v3h1.9v4.12h-1.19v-2.36h-.71v3h1.9v4.13h-1.19v-2.33h-.71v3h1.9v4.13h-1.19v-2.33h-.71v3h1.9v4.13h-1.19v-2.33h-.71v2.87h-37.15v-.97H419a.7.7 0 00.61-.35h28.59v-.71h-28.63a.69.69 0 00-.33-.3l-23.08-9.89a.71.71 0 00-.28-.06h-10.59zm65.36 23.81V357h-2.29v-3.12zm-3 0V357h-2.29v-3.12zm-3 0V357h-2.29v-3.12zm-3 0V357h-2.29v-3.12zm-3 0V357h-2.29v-3.12zm-3 0V357h-2.29v-3.12zm-3 0V357h-2.29v-3.12zm-3 0V357h-2.29v-3.12zm-3 0V357h-2.29v-3.12zm-3 0V357h-2.29v-3.12zm-3 0V357h-2.29v-3.12zm-3 0V357h-2.29v-3.12zm-3 0V357h-1.94v-3.12zm-33.82-65l3.21 4.39h-6.75zm3 9.7v3.55h-1.4v.71h1.4v3.54h-1.4v.71h1.4v3.54h-1.4v.71h1.4v3.55h-1.4v.71h1.4v3.54h-1.4v.71h1.4v3.54h-1.4v.71h1.4v3.55h-1.4v.71h1.4v3.54h-1.4v.71h1.4v3.54h-1.4v.71h1.4v3.19h-6.5v-3.23h1.4v-.71h-1.4v-3.54h1.4v-.71h-1.4v-3.54h1.4v-.71h-1.4v-3.55h1.4v-.71h-1.4v-3.54h1.4v-.71h-1.4v-3.54h1.4v-.71h-1.4v-3.55h1.4v-.71h-1.4v-3.54h1.4v-.71h-1.4v-3.54h1.4v-.71h-1.4v-3.55h1.4v-.71h-1.4v-3.19h6.5v3.19h-1.4v.71zm-7.81 5.8v3.6c-.49-.64-.92-1.23-1.28-1.74v-.24h-.17c-.49-.71-.86-1.27-1.1-1.64zm-1.28 8.28v-5.21c.38.52.8 1.08 1.28 1.69v4.89c-.49-.46-.91-.92-1.32-1.37zm1.28 2.39v3.77c-.36-.36-.79-.78-1.28-1.29v-3.83c.37.45.79.89 1.28 1.35zm-3.39-10.7c.18.3.65 1 1.4 2.11V312a62.25 62.25 0 01-5.77-7.55zm-5.21 0A61.09 61.09 0 00374 313v3.88a123.34 123.34 0 01-10.6-12.53zm-13.93-15.15c4.9 14.66 20.4 29.63 22.53 31.63v3.84h-49.51l4.19-3.62c.75-.74 17.61-16.48 22.75-31.89zm-25.61 51.89v-.6h1.8v.6zm0-2v-2.38h1.8v2.38zm0-3.8v-.9h1.8v.9zm4.61-17.95h-.6v-1.8h2.31c-.66.62-1.18 1.21-1.75 1.74zm-8.51 8.31a.72.72 0 00.66.46h.59v.95h-1.42v-3.92l1.42-1.3V324l-1.05.9a.7.7 0 00-.24.77zm5.7 2.81h-.52v-1.8h.52zm0-2.22h-.52v-.13h.52zm12-25.81h.72v1c-.39.5-.8 1-1.25 1.59h-1.27v-.4c.61-.82 1.21-1.55 1.77-2.25zm-1.8 1.53v-1.53h1.25c-.42.43-.84.95-1.28 1.49zm5.95-3h-.33l.38-.52zm.12-2.32h-1.35c.61-.81 1.11-1.48 1.49-2v1.81zm-1 1.42l-.67.9h-1.44l.7-.9zm-1.74 2.32l-.35.46v-.46zm-2.37 3c-1.31 1.64-2.84 3.49-4.56 5.46l-1.1-.8q2.37-2.65 4.31-5v.31zm-5.5 6.53c-.7.79-1.42 1.6-2.17 2.42h-2q1.58-1.65 3-3.23zm-1.12 3.83v1.31h-2.22c.41-.44.82-.87 1.22-1.31zm-5.46 4.64v1.11h-1.14zm-2.1.66v-1.34H328zm2.1-4.8l-.8.81h-1.3v-1.31h2.1zm0 .6v.21h-.2zm.42.63h1c-.34.35-.68.71-1 1.06zm2.31.11v1.69h-1.64zm-.87-.53h-1.5v-.63l.66-.68h1.65v.4zm-1.44-1.24v-.07h.06zm1.44-1.48h-5.88l6.92-5.11 2.22 1.62c-1.09 1.14-2.18 2.31-3.32 3.5zm-3.09 3.14c-.28.29-.57.57-.87.86v-.86zm.6 0h.63v1.49l-.31.31h-1.79V317c.44-.47.93-1 1.41-1.44zm-2.88 4.93l-1.42 1.32v-2.09c.48-.44.95-.89 1.42-1.34zm-1.85 1.71l-1.45 1.32-.17.15v4.41h1.62v1h-2.85v-6.33c1-.87 1.93-1.73 2.85-2.6zm0 1.35v3.53h-.62v-3zm.43 4.53h1.42v3.55h1.65V333h-1.78v-3.94h-1.35zm3.07.4h-.24v-.4h.24zm-.24 1.73v-1.3h.24v1.3zm1.24-1.3h.86v1.3h-.86zm0-.43v-1.4h-1.24v-.4h2.1v1.8zm-1.24-2.22v-.13h2.1v.13zm0-4h.6l-.6.52zm1.1-.42h-1.1v-1.3l.53-.5h1.57v.93zm1.42-1.23v-.6h.66zm1.1-1h-1.1V318l.25-.25h2.06v.61c-.57.55-.98.95-1.27 1.22zm1.63-1.79h.11l-.19.18zm2.61-5.37l1.63-1.82 1.54 1.12-.6.7zm1.3 1.41c-.4.45-.8.89-1.18 1.29v-1.29zm1.27-4.31c2.07-2.38 3.87-4.58 5.34-6.44v.39h1.79c-1.85 2.59-3.77 5-5.6 7.18zm5.77-6.47v-.51l1.61-2.09h1.26l-.09 1c-.44.64-.88 1.28-1.33 1.91v-.29zM346 294c-.43.6-1.11 1.54-2 2.74h-26.8v-20.65H346zm-3.12 4.16c-.22.29-.46.59-.71.9h-25v-.9zm-24.12 2.32v3H320v-.42h-.75v-2.6h2.52v3H323v-.42h-.83v-2.6h2.52v3H326v-.42h-.92v-2.6h2.52v3h1.44V303h-1v-2.6h2.51v3h1.53v-.42H331v-2.6h2.52v3h1.61v-.42h-1.19v-2.6h2.52v3h1.7v-.42h-1.27v-2.6h2.52v2.05c-1.38 1.65-2.93 3.46-4.66 5.38l-2.76-2a.72.72 0 00-.84 0l-9.06 6.7a.7.7 0 00.42 1.27h2.66v4l-1.42 1.35v-3.79h-.43v4.19c-1 1-2.11 1.95-3.21 2.92l-.07.07v7h3.28v1.44h.43v-1.44h.92V333h-7.47v-32.55zm5.87 34v.9h-7.43v-.9zm.43 0h1.72v.9h-1.68zm2.72-1.42v-1.36h1.8v1.3zm1.28-2.78v-1.3h.52v1.3zm19-56.44v.9H317.2v-.9zm-30.95-1.42v-5.62h1.95v5.62zm3.36 0v-5.62h1.95v5.62zm3.37 0v-5.62h1.94v5.62zm3.36 0v-5.62h1.94v5.62zm10.87-7h-7.61a7.88 7.88 0 01-.69-.41h9a7.6 7.6 0 01-.61.3zm1.16 1.42v5.62h-1.95v-5.62zm-3.37 0v5.62H334v-5.62zm-3.36 0v5.62h-1.94v-5.62zm8.14 5.62v-5.62h1.95v5.62zm3.37 0v-5.62H346v5.62zm4-7.45v.41H339a5.51 5.51 0 00.53-.41zm-17-73.3h6.34l.92 1.2h-8.18zm-2.64 3.83v-1.21h11.62v1.21zm1.32 1.41h9l-.46 1.21h-8.06zm7.52 6.9l.06 2h-6.18l.06-2zm-6-1.42l.09-2.85h5.8l.08 2.85zm3 5.11c.36 0 2.12-.14 3.13-.22l.12 3.69c-1 .12-2.73.33-3.25.33s-2.27-.21-3.25-.33l.12-3.69c1.15-.03 2.92.11 3.27.11zm0 4.22c.54 0 2.26-.2 3.26-.32l.11 3.69a31 31 0 01-3.37.44A31 31 0 01331 215l.11-3.69c.98.14 2.7.34 3.24.34zm0 4.23a29.07 29.07 0 003.39-.43l.11 3.69a11.61 11.61 0 01-7 0l.11-3.69a28.81 28.81 0 003.53.32zm0 4.23a22.81 22.81 0 003.51-.53l.11 3.69a17.56 17.56 0 01-3.62.64 17.77 17.77 0 01-3.63-.64l.12-3.69a22.63 22.63 0 003.65.42zm0 4.23a18.11 18.11 0 003.64-.63l.11 3.68a9.75 9.75 0 01-7.5 0l.11-3.68a18 18 0 003.78.52zm0 4.22a14.6 14.6 0 003.76-.72l.12 3.68a9.28 9.28 0 01-7.76 0l.11-3.68a14.67 14.67 0 003.91.61zm0 4.23a12.75 12.75 0 003.89-.82l.11 3.68a9 9 0 01-8 0l.11-3.68a12.75 12.75 0 004.03.71zm0 4.23a11.19 11.19 0 004-.92l.11 3.67a8.65 8.65 0 01-8.26 0l.11-3.67a11.19 11.19 0 004.18.79zm0 4.23a10.19 10.19 0 004.14-1l.12 3.67a8.53 8.53 0 01-8.52 0l.12-3.67a10.19 10.19 0 004.28.89zm-4.27 3.13a8.91 8.91 0 008.54 0l.11 3.66a8.41 8.41 0 01-8.76 0zm-.13 4.15a8.86 8.86 0 008.8 0l.11 3.64a8.31 8.31 0 01-9 0zm-.12 4.15a8.8 8.8 0 009 0l.11 3.63a8.27 8.27 0 01-9.27 0zm-.13 4.15a8.79 8.79 0 009.3 0l.11 3.62a8.26 8.26 0 01-9.52 0zm-.13 4.15a8.86 8.86 0 009.56 0l.07 2.5h-9.71zm-.42 3.92a5.51 5.51 0 00.53.41H317.2v-.41zM314.63 239a3.15 3.15 0 11-2.69 3.12 2.93 2.93 0 012.69-3.12zm1.15 104.24h-2.41v-93.18h2.41zm-4.13-94.56v-2h6v2zm5.55 88.09h7.47v4.77h-7.47zm8 4.77h-.07v-4.77h1.72v2.38h-1.65zm1.41-1h.24v1h-.24zM331 361.9h.16l-.16.19zm4 22.17h-4v-2.42h2v-3h-.71v2.32H331v-4.12h2v-3h-.71v2.33H331V372h2v-2.45h2zm-4-12.8v-1.74h1.27v1.74zm8.15 17h-2.75v-18.74h2.79zm2.59-2h-1.17v-16.74h1.17zm1.85 0h-1.14v-16.74h1.14zm1.85 0h-1.14v-16.74h.79a.68.68 0 00.35-.09zm1.85 0h-1.14v-18l1.14-2.48zm1.56-8v3H348V364.2l.85-1.85zm0-19.29l-4.21 9.14h-16.87l8.25-9.68h12.87zm-12.49-2v-3.12h2V357zm2.71 0v-3.12h2.29V357zm3 0v-3.12h2.29V357zm3 0v-3.12h2.29V357zm3.78 0h-.78v-3.12h.78zm0-4.53h-13.2a.7.7 0 00-.71.7v4.28l-2 2.3v-.48h-.71v1.31l-.51.6H331v-3.71h2v-3h-.71v2.33H331v-4.13h2v-3h-.71v2.33H331v-4.13h2v-3h-.71v2.33H331V343h2v-3h-.71v2.33H331v-4.13h2v-3h-.71v2.33H331v-4.12h2v-3h-.71v2.33H331v-6.47h45v14h-10.47a.67.67 0 00-.28.06l-5.25 2.06V331.8a.71.71 0 00-.71-.71h-11.6a.71.71 0 00-.71.71V348l-4.82 2a.72.72 0 00-.32.3h-5.39v.71h5.4a.75.75 0 00.63.35h6.41zm5-11.75v-3.9h4.75v3.93zm4.75.71V343l-4.75 2v-3.6zm-4.75-5.35v-3.58h4.75v3.58zM348.4 345v-3.57h4.74V345zm3.85.71l-3.85 1.65v-1.65zm-3.85-5v-3.91h4.74v3.93zm0-4.64v-3.58h4.74v3.58zM345.9 350l13.78-5.91h.32v-.14l5.66-2.43h30.06l19.79 8.48zm66.45 12.52l3.11 7.11a.71.71 0 00.65.42h.6v5h-4.36zm-1.41 17.17v1.58h-60.63v-1.58zm-60.63-1.42v-22.1h6.07v22.1zm7.49-5.47v-5.11h.56V367h-.56v-5.12h1.61v3.56h.71v-3.56h2v3.56h.71v-3.56h2V367h-.92v.71h.92v5.11h-.92v.71h.92v4.76h-2v-1.49h-.71v1.46h-2v-1.46h-.71v1.46h-1.61v-4.76h.56v-.71zm0-11.65v-5h1.61v5zm2.32 0v-5h2v5zm2.68 0v-5h2v5zm4.3.71V367h-1.62v-5.12zm-1.62-.71v-5h1.62v5zm1.62 6.54v5.11h-1.62v-5.11zm0 5.82v4.76h-1.62v-4.77zm1.42 4.76v-22.1h6.06v22.1zm7.48-5.47v-5.11h.57V367H376v-5.12h1.62v3.56h.71v-3.56h2v3.56h.67v-3.56h2V367h-.92v.71h.92v5.11h-.92v.71h.92v4.76h-2v-1.49h-.71v1.46h-2v-1.46h-.71v1.46H376v-4.76h.57v-.71zm0-11.65v-5h1.62v5zm2.33 0v-5h2v5zm2.68 0v-5h2v5zm4.3.71V367h-1.62v-5.12zm-1.62-.71v-5h1.62v5zm1.62 6.54v5.11h-1.62v-5.11zm0 5.82v4.76h-1.62v-4.77zm1.42 4.76v-22.1h6v22.1zm7.42-5.47v-5.11h.85V367h-.84v-5.12h1.68v3.56h.71v-3.56h2v3.56h.71v-3.56h2V367h-.71v.71h.71v5.11h-.71v.71h.71v4.76h-2v-1.49h-.71v1.46h-2v-1.46h-.71v1.46h-1.68v-4.76h.84v-.71zm0-11.65v-5h1.68v5zm2.39 0v-5h2v5zm2.68 0v-5h2v5zm4.3.71V367h-1.62v-5.12zm-1.62-.71v-5h1.62v5zm1.62 6.54v5.11h-1.62v-5.11zm0 5.82v4.76h-1.62v-4.77zm1.41 4.76v-22.1h6v22.1zm-54.62-23.52v-3.35h60.63v3.34zm57 39.73H354v-1.83h53.3zm4.91 0h-3.49v-3.25h-56.2v3.25H349v-11.8h63.17zm2-6.19h-.62v-7h-1.28v-4.77h1.9zm3.59 0h-2.17v-11.8h2.17zm3.58 0h-2.17v-11.8h2.17zm.59-17.19h-3.68v.7h3.7v3.28h-4.59v-5H422zm5.3.7v3.28h-4.59v-3.28zm-4.59-.7v-1h4.59v1zm2.31 17.18h-2.17v-11.79H425zm3.58 0h-2.16v-11.79h2.16zm3.58 0H430v-11.79h2.16zm.45-13.21H428v-3.28h4.59zm0-4H428v-1h4.59zm5.42.7v3.28h-4.58v-3.28zm-4.58-.7v-1H438v1zm2.29 17.19h-2.16v-11.77h2.16zm3.58 0h-2.16v-11.77h2.16zm3.58 0h-2.16v-11.77h2.16zm.43-13.21h-4.59v-3.28h4.59zm0-4h-4.59v-1h4.59zm5.3.7v3.28H444v-3.28zm-4.59-.7v-1h4.59v1zm2.44 17.19h-2.16v-11.75h2.16zm3.58 0h-2.16v-11.75h2.16zm3.51 0h-2.09v-11.75h2.09zm0-13.21h-4.23v-3.28h2.77v-.7h-2.77v-1h4.23zm-37-6.45l-4.22-9.58v-.54h39.37l8.3 10.19z" id="path366"/><path class="cls-7" d="M354.32 308.39a5.24 5.24 0 105.24 5.24 5.25 5.25 0 00-5.24-5.24zm-.35 9a3.8 3.8 0 01-3.43-3.43H354zm0-4.14h-3.43a3.8 3.8 0 013.43-3.43zm.71 4.14V314h3.42a3.8 3.8 0 01-3.42 3.41zm0-4.14v-3.43a3.8 3.8 0 013.42 3.43z" id="path368"/><path class="cls-7" d="M353.32 307v-.7a6.31 6.31 0 00-6.3 6.3h.71a5.6 5.6 0 015.59-5.6z" id="path370"/><path class="cls-7" id="rect372" d="M351.77 352.83h58.02v.71h-58.02z"/><path class="cls-7" id="rect374" d="M386.61 331.45h61.54v.71h-61.54z"/><path class="cls-7" id="polygon376" d="M332.67 328.07h41.3v10.7h.71v-11.41h-42.01z"/><path class="cls-7" id="rect378" d="M354.61 357.72h.71v19.08h-.71z"/><path class="cls-7" id="rect380" d="M372.61 357.72h.71v19.08h-.71z"/><path class="cls-7" id="rect382" d="M390.87 357.72h.71v19.08h-.71z"/><path class="cls-7" id="rect384" d="M344.78 332.95h.71v13.91h-.71z"/><path class="cls-7" d="M400.48 338.77v-4.42a.7.7 0 00-.71-.7h-10.85a.7.7 0 00-.71.7v4.42a.71.71 0 00.71.71h10.85a.71.71 0 00.71-.71zm-6.49-.71h-4.36v-3H394zm5.07 0h-4.36v-3h4.36z" id="path386"/><path class="cls-7" d="M415.53 333.65h-10.85a.7.7 0 00-.71.7v4.42a.71.71 0 00.71.71h10.85a.71.71 0 00.71-.71v-4.42a.7.7 0 00-.71-.7zm-5.78 4.41h-4.36v-3h4.36zm5.07 0h-4.36v-3h4.36z" id="path388"/><path class="cls-7" d="M431.28 333.65h-10.84a.7.7 0 00-.71.7v4.42a.71.71 0 00.71.71h10.84a.71.71 0 00.71-.71v-4.42a.7.7 0 00-.71-.7zm-5.77 4.41h-4.37v-3h4.37zm5.07 0h-4.37v-3h4.37z" id="path390"/><path class="cls-7" d="M447 333.65h-10.81a.7.7 0 00-.71.7v4.42a.71.71 0 00.71.71H447a.71.71 0 00.71-.71v-4.42a.7.7 0 00-.71-.7zm-5.78 4.41h-4.32v-3h4.36zm5.07 0H442v-3h4.36z" id="path392"/><path class="cls-7" id="rect394" d="M386.78 334.35h.71v4.41h-.71z"/><path class="cls-7" id="rect396" d="M402.54 334.35h.71v4.41h-.71z"/><path class="cls-7" id="rect398" d="M418.29 334.35h.71v4.41h-.71z"/><path class="cls-7" id="rect400" d="M434.05 334.35h.71v4.41h-.71z"/><path class="cls-7" id="rect402" d="M404.68 340.93h11.3v.71h-11.3z"/><path class="cls-7" id="rect404" d="M420.45 340.93h11.3v.71h-11.3z"/><path class="cls-7" id="rect406" d="M435.97 340.93h11.3v.71h-11.3z"/><path class="cls-7" id="rect408" d="M391.6 285.1h7.18v.71h-7.18z"/><path class="cls-7" id="rect410" d="M378.77 295.97h3.7v.71h-3.7z"/><path class="cls-7" d="M323.7 381.68c-.41 0-40.58 2.33-49.46-30.46a.71.71 0 00-1.37.37c8 29.6 40.54 31.55 48.94 31.55 1.22 0 1.93 0 2-.05a.7.7 0 00.66-.75.74.74 0 00-.77-.66z" id="path412"/><path class="cls-7" d="M289.39 364.19c8 5.52 19.52 8.32 34.12 8.33a.71.71 0 000-1.42c-14.31 0-25.52-2.72-33.31-8.08a.712.712 0 00-.81 1.17z" id="path414"/><path class="cls-7" d="M283 357.75a.68.68 0 00.41-.14.69.69 0 00.17-1 16.11 16.11 0 01-2.66-5.37.71.71 0 10-1.39.29 17.25 17.25 0 002.9 5.9.7.7 0 00.57.32z" id="path416"/><path class="cls-7" d="M270.47 350.72a.7.7 0 00-.87.5c-8.88 32.77-49.06 30.48-49.46 30.46a.72.72 0 00-.76.66.71.71 0 00.66.75c.05 0 .76.05 2 .05 8.4 0 40.92-1.95 48.93-31.55a.7.7 0 00-.5-.87z" id="path418"/><path class="cls-7" d="M219.62 371.81a.7.7 0 00.7.71 91.82 91.82 0 0013.61-.95.72.72 0 00.6-.81.7.7 0 00-.81-.59 91.74 91.74 0 01-13.4.93.7.7 0 00-.7.71z" id="path420"/><path class="cls-7" d="M239.58 369.75a.71.71 0 00.69.53.55.55 0 00.18 0c20.9-5.34 23.77-18.17 23.88-18.71a.71.71 0 10-1.38-.29c0 .12-2.86 12.52-22.86 17.63a.72.72 0 00-.51.84z" id="path422"/><path class="cls-7" d="M129.52 189.81a.25.25 0 00.16-.06c16.17-14.31 42.36-14.88 46.38-14.88h.53a.24.24 0 000-.47c-.3 0-29.62-.58-47.23 15a.23.23 0 00.15.41z" id="path424"/><path class="cls-7" d="M120.36 222.91a.77.77 0 00.76-.79c-.27-9.54 2.76-17.56 9-23.83 15.21-15.29 45.09-15.88 49.54-15.88h.57a.77.77 0 000-1.54c-1.39 0-34.37-.61-51.23 16.32-6.56 6.59-9.74 15-9.46 25a.77.77 0 00.82.72z" id="path426"/><path class="cls-7" d="M172.1 196a.77.77 0 00-.77-.76c-43.58.84-44.08 24.44-44.08 24.68a.77.77 0 00.77.77.78.78 0 00.78-.77c0-.23.48-22.33 42.56-23.13a.77.77 0 00.74-.79z" id="path428"/><path class="cls-7" d="M124.78 238.21a.8.8 0 00.51.19.87.87 0 00.31-.07.75.75 0 00.46-.7c.13-9.41 14-20.15 14.11-20.26a.774.774 0 10-.94-1.23c-.56.43-13.09 10.15-14.57 19.8-3.25-3.3-12.17-13.66-9.83-25.72a.78.78 0 00-.61-.91.77.77 0 00-.9.61c-3.02 15.48 10.87 27.77 11.46 28.29z" id="path430"/><path class="cls-7" d="M383.08 174.88c.29 0 29.44-.58 46.91 14.87a.22.22 0 00.15.06.25.25 0 00.18-.08.25.25 0 000-.33c-17.61-15.57-46.93-15-47.23-15a.24.24 0 00-.23.24.23.23 0 00.22.24z" id="path432"/><path class="cls-7" d="M379.41 182.41c.33 0 33.71-.58 50.1 15.88 6.24 6.27 9.28 14.29 9 23.83a.76.76 0 00.75.79.78.78 0 00.78-.75c.28-10-2.91-18.38-9.47-25-16.86-16.93-49.82-16.36-51.23-16.32a.77.77 0 000 1.54z" id="path434"/><path class="cls-7" d="M430.9 220a.78.78 0 00.77.77.78.78 0 00.77-.77c0-.24-.51-23.84-44.09-24.68a.73.73 0 00-.78.76.77.77 0 00.75.79c41.98.75 42.58 22.85 42.58 23.13z" id="path436"/><path class="cls-7" d="M435 235.94c-1.49-9.65-14-19.37-14.58-19.8a.774.774 0 00-.94 1.23c.14.11 14 10.85 14.11 20.26a.79.79 0 00.46.7.88.88 0 00.32.07.78.78 0 00.5-.19c.6-.52 14.48-12.81 11.47-28.29a.775.775 0 10-1.52.3c2.37 12.06-6.55 22.42-9.82 25.72z" id="path438"/><path class="cls-7" d="M453.57 392.28h-36.86a.36.36 0 000 .71h36.86a.36.36 0 100-.71z" id="path440"/><path class="cls-7" d="M127.42 392.28h-36a.36.36 0 000 .71h36a.36.36 0 100-.71z" id="path442"/></g></svg>