<svg xmlns="http://www.w3.org/2000/svg" height="160" width="195" data-name="Слой 1"><path d="M49.549 21.426c15.732-1.206 27.015 9.036 27.106 9.168l.154-.164c-.112-.107-11.486-10.444-27.303-9.227-12.48.962-28.615 12.809-28.78 12.926l.138.186c.18-.122 16.269-11.932 28.685-12.889zM110.499.555c9.036-1.175 15.483 1.015 15.547 1.063l.074-.218c-.064 0-6.558-2.227-15.647-1.063-9.088 1.164-20.08 11.188-20.196 11.289l.154.164c.1-.111 11.044-10.066 20.069-11.235zm-2.2 17.565l8.504 13.729c.532-.378.962-.665 1.233-.845a16.099 16.099 0 011.765-1.037l-8.541-13.845a29.668 29.668 0 00-2.96 1.998zm-30.252 84.667a86.014 86.014 0 011.881-.612l-.324-.685c-.632.196-1.26.404-1.881.616zm1.775 3.72a75.678 75.678 0 011.86-.595l-.334-.707c-.628.191-1.244.388-1.866.595zm3.386 11.246a.415.415 0 10-.218-.531.415.415 0 00.218.51zm-6.91-18.602a61.48 61.48 0 011.903-.638l-.324-.685c-.638.202-1.27.42-1.903.638zm4.571 19.527a.335.335 0 10.404.25.335.335 0 00-.41-.26zm4.22-.866a.335.335 0 00.25-.404.33.33 0 00-.404-.245.335.335 0 00-.25.404.33.33 0 00.399.234zM74.54 95.489a87.202 87.202 0 011.924-.659l-.324-.685a82.16 82.16 0 00-1.924.664zm-7.053-14.685c.67-.26 1.334-.531 2.004-.755l-.319-.68c-.67.24-1.345.494-2.014.755zm1.765 3.678a74.7 74.7 0 011.982-.733l-.319-.68c-.664.233-1.328.478-1.987.733zm3.524 7.34c.643-.234 1.291-.462 1.94-.686l-.32-.68c-.653.218-1.301.446-1.95.686zm-1.765-3.667c.654-.25 1.308-.484 1.961-.713l-.319-.68c-.659.229-1.312.463-1.971.712zm18.204 25.511a.335.335 0 00.175-.452.35.35 0 00-.457-.18.346.346 0 00.282.632zm2.126-.739a.335.335 0 10-.33-.34.33.33 0 00.33.314zm-.085 2.796a.574.574 0 10.749-.303.569.569 0 00-.75.276zm2.269-2.567a.33.33 0 00.34-.324.335.335 0 10-.67 0 .33.33 0 00.33.297zm-7.627 3.433a.443.443 0 00-.207-.86.443.443 0 10.207.86zm4.837-1.355a.675.675 0 10-.813-.494.675.675 0 00.813.467zm2.073-.425a.41.41 0 10-.532-.207.41.41 0 00.532.18zM119.19 7.528a.404.404 0 10.531.234.404.404 0 00-.531-.26zM87.205 116.956a.574.574 0 10-.303-.75.574.574 0 00.303.75zM65.71 77.094a79.493 79.493 0 012.03-.78l-.324-.681c-.675.25-1.355.531-2.03.786zm23.104 39.176a.67.67 0 00.808.5.68.68 0 00.5-.813.672.672 0 00-1.308.313zM63.957 73.432c.68-.281 1.366-.531 2.046-.807l-.318-.68c-.686.26-1.372.53-2.052.807zm-17.496-41.79a.441.441 0 00.35-.532.441.441 0 10-.866.17.436.436 0 00.505.361zm-.867 1.185a.34.34 0 00.266-.394.345.345 0 00-.399-.265.335.335 0 00-.26.398.33.33 0 00.393.26zm3.258-2.44a.404.404 0 10-.531-.228.41.41 0 00.531.25zm-4.56 1.743a.49.49 0 10.42-.887.49.49 0 00-.42.887zm3.45-.037a.574.574 0 10-.272-.765.569.569 0 00.277.765zm-.26 96.768a.372.372 0 00.196-.058l2.317-1.472a.377.377 0 10-.404-.633l-2.312 1.467a.377.377 0 00-.117.532.372.372 0 00.32.164zM194.23 81.56L143.76 2.4a.399.399 0 00-.34-.17 93.872 93.872 0 00-19.756 3.874c-5.416-1.1-11.252-1.318-15.801.936-12.862 6.378-25.023 24.501-28.488 29.97a9.79 9.79 0 01-1.207.68c-3.401-3.316-16.97-14.977-33.957-8.854-19.42 7-43.454 27.6-43.693 27.808a.367.367 0 00-.09.451l3.268 6.586c-1.153.659-1.807 1.063-1.844 1.063a.457.457 0 00-.107.095C.683 66.258.933 68.527.95 68.622a.324.324 0 000 .096l38.799 91.066a.383.383 0 00.223.212.484.484 0 00.122 0 .388.388 0 00.186-.048c56.625-32.32 74.52-36.14 76.072-36.407.66.325 3.822 1.738 6.586.463 1.807-.835 3.034-2.631 3.646-5.315.563-.473 3.763-3.072 11.129-7.484a40.58 40.58 0 0013.048 9.036l-2.062-3.72 4.326-.139s-4.97-1.818-11.007-7.643c10.38-5.889 26.808-14.164 51.74-24.337a1.594 1.594 0 00.782-.972 2.254 2.254 0 00-.324-1.855zm-.877 0c-3.37 1.419-26.516 11.23-41.265 18.841-3.981 2.057-7.441 3.896-10.38 5.538l-.622-1.036a473.292 473.292 0 0118.645-10.423c7.972-4.198 29.928-12.798 32.915-13.962zm-.819-1.276c-3.136 1.223-24.953 9.77-32.894 13.952a437.207 437.207 0 00-18.666 10.47l-.531-.887a409.77 409.77 0 0118.692-10.476c3.838-2.004 10.689-4.943 17.173-7.61 1.738-.256 2.838-.384 2.88-.389a.377.377 0 00.287-.558l-.159-.287a898.864 898.864 0 0112.692-5.038zm-26.394-3.03h.032l1.664-.148 2.434 4.188c-.627.075-1.27.16-1.919.25l-4.475-7.739a50.22 50.22 0 011.983-.047l1.552 2.657-1.313.117a.377.377 0 00-.346.404.383.383 0 00.372.35zm4.54 4.747l2.056 3.54c-.606.1-1.244.218-1.897.34l-2.105-3.625c.66-.069 1.302-.149 1.93-.223zm-7.224-8.982l-1.562-2.727h1.977l1.562 2.69c-.574.021-1.238.037-1.993.069zm-6.133-6.91l-1.557-2.753c.675 0 1.302-.026 1.876-.026l1.557 2.716c-.595.053-1.228.074-1.892.106zm2.301.734l1.568 2.727c-.584 0-1.222.053-1.897.095l-1.557-2.764c.67-.026 1.307-.058 1.886-.058zm-4.3-4.21l-1.546-2.747h1.865l1.558 2.71a23.173 23.173 0 00-1.882.043zm-1.987-3.523l-1.552-2.748c.664 0 1.286 0 1.85.037l1.551 2.71q-.877-.01-1.855.006zm-1.993-3.524l-1.547-2.742c.66 0 1.276.042 1.834.074l1.552 2.7a65.761 65.761 0 00-1.845-.027zm-1.988-3.524l-1.552-2.737c.659 0 1.276.064 1.828.106l1.547 2.69c-.59-.022-1.18-.043-1.828-.053zm-1.998-3.529l-1.542-2.732c.654.038 1.265.09 1.818.144l1.536 2.684a52.08 52.08 0 00-1.818-.09zm-1.994-3.534l-1.54-2.727c.653.053 1.259.117 1.806.186l1.536 2.658c-.563-.032-1.164-.064-1.807-.112zm-1.998-3.535l-1.536-2.72c.648.068 1.254.143 1.796.222l1.531 2.658c-.558-.048-1.158-.106-1.796-.154zm-2.004-3.545l-1.53-2.71c.653.085 1.254.18 1.796.27l1.515 2.658a37.101 37.101 0 00-1.786-.212zm-.27-.026a41.42 41.42 0 00-1.93-.128l-1.557-2.785c.68.053 1.334.122 1.95.197zm.462.818l1.541 2.732a51.678 51.678 0 00-1.924-.09l-1.563-2.79c.675.042 1.324.111 1.946.153zm1.998 3.54l1.547 2.737a43.751 43.751 0 00-1.919-.053l-1.568-2.796c.675.032 1.324.07 1.935.117zm1.993 3.534l1.552 2.743c-.611 0-1.254-.027-1.919 0l-1.562-2.796a28.2 28.2 0 011.924.059zm1.993 3.53l1.552 2.742h-1.913l-1.573-2.753h1.929zm1.993 3.523l1.558 2.753c-.612 0-1.255 0-1.92.048l-1.562-2.8a81.028 81.028 0 011.919.004zm1.993 3.524l1.558 2.753c-.612 0-1.255.043-1.919.085l-1.568-2.8a60.433 60.433 0 011.924-.033zm1.988 3.518l1.557 2.764c-.61 0-1.249.059-1.913.106l-1.573-2.816c.67 0 1.313-.038 1.924-.048zm1.988 3.519l1.557 2.758a54.31 54.31 0 00-1.918.139l-1.563-2.796a66.375 66.375 0 011.919-.096zm1.982 3.513l1.563 2.77a56.36 56.36 0 00-1.919.164l-1.594-2.806a73.52 73.52 0 011.966-.123zm1.988 3.513l1.563 2.775c-.611.053-1.255.111-1.919.19l-1.594-2.805a80.5 80.5 0 011.945-.154zm.25 0a107.39 107.39 0 011.903-.085l1.568 2.732c-.59.032-1.233.07-1.908.122zm1.727-.845l-1.568-2.737h1.972l1.558 2.657c-.553.043-1.218.048-1.967.07zm-1.998-3.486l-1.557-2.711c.786 0 1.45.027 1.96.048l1.558 2.657a58.058 58.058 0 00-1.966-.005zm-2.004-3.503l-1.541-2.695c.792 0 1.456.048 1.961.08l1.547 2.658c-.558-.011-1.217-.043-1.967-.043zm-2.004-3.487l-1.546-2.7c.792.032 1.456.08 1.956.123l1.541 2.657a69.981 69.981 0 00-1.95-.069zm-1.998-3.486l-1.547-2.69a51.85 51.85 0 011.956.155l1.531 2.657c-.542-.058-1.19-.058-1.94-.111zm-2.004-3.487l-1.54-2.684c.807.064 1.471.139 1.955.197l1.525 2.657a32.491 32.491 0 00-1.94-.159zm-2.003-3.492l-1.531-2.657a47.77 47.77 0 011.95.244l1.52 2.615a38.7 38.7 0 00-1.94-.19zm-2.004-3.491l-1.525-2.658c.823.106 1.493.213 1.955.292l1.51 2.6a62.338 62.338 0 00-1.94-.224zm-2.004-3.492l-1.52-2.658c.84.128 1.51.25 1.956.34l1.499 2.583c-.494-.058-1.175-.164-1.935-.255zm-2.003-3.498L141.91 35.5c.85.149 1.53.298 1.966.393l1.483 2.557c-.52-.064-1.18-.176-1.934-.282zm-2.01-3.497l-3.321-5.793c.76.18 1.43.361 1.987.532l3.274 5.639c-.515-.085-1.174-.24-1.94-.367zm-.287-.042c-.531-.09-1.137-.17-1.77-.25l-3.353-5.931c.638.111 1.233.239 1.786.361zm-2.051-.282a40.25 40.25 0 00-1.93-.17l-3.4-6.07c.685.085 1.344.181 1.97.293zm-2.2-.186a38.2 38.2 0 00-1.77-.058l-3.423-6.187q.914.059 1.786.16zm.451.803l1.563 2.79c-.58 0-1.175-.027-1.775-.027l-1.595-2.848c.627.026 1.25.085 1.807.085zm2.01 3.587l1.567 2.801h-1.786l-1.594-2.854c.627.016 1.228.037 1.812.064zm2.008 3.588l1.568 2.8c-.584 0-1.185 0-1.79.033l-1.595-2.85c.632 0 1.233.011 1.817.027zm2.004 3.577l1.568 2.8q-.877 0-1.802.064l-1.594-2.848c.638-.005 1.238-.011 1.828-.005zm1.999 3.571l1.567 2.801c-.584 0-1.19.053-1.807.096l-1.594-2.849c.638-.021 1.228-.021 1.834-.021zm1.993 3.561l1.594 2.806c-.59.032-1.196.07-1.812.128l-1.595-2.849a74.707 74.707 0 011.813-.074zm1.998 3.567l1.594 2.8c-.59.043-1.2.09-1.823.155l-1.594-2.844c.617-.042 1.228-.08 1.823-.1zm1.988 3.555l1.594 2.806a48.45 48.45 0 00-1.833.181l-1.595-2.849c.627-.047 1.238-.095 1.834-.127zm1.993 3.55l1.568 2.801a64.8 64.8 0 00-1.845.208l-1.567-2.838c.627-.059 1.238-.112 1.844-.16zm1.982 3.546l1.595 2.811c-.6.064-1.217.138-1.85.234l-1.594-2.849a89.885 89.885 0 011.85-.186zm1.988 3.55l1.595 2.811c-.606.07-1.228.155-1.86.256l-1.595-2.844c.632-.08 1.254-.154 1.86-.212zm1.988 3.545l4.565 8.153c-.616.122-1.238.25-1.855.383L157.41 74.4c.622-.085 1.26-.17 1.87-.24zm.239-.032a61.033 61.033 0 011.93-.18l4.517 7.972-1.887.335zm2.18-.202a49.48 49.48 0 011.918-.112l4.475 7.797c-.622.085-1.254.181-1.892.287zm6.797 8.387l2.094 3.646c-.617.117-1.244.24-1.882.372l-2.125-3.72a73.034 73.034 0 011.913-.287zm5.782 4.04c-5.888 2.444-11.799 5.011-15.264 6.824a410.275 410.275 0 00-18.703 10.48v-.031c16.625-10.731 28.684-15.514 33.967-17.263zm-1.318-.825l-2.051-3.523c.67-.08 1.323-.15 1.95-.213l2.015 3.423c-.596.1-1.233.207-1.914.324zm.15-3.757a96.333 96.333 0 011.822-.165l1.961 3.306-1.78.266zm2.072-.18l1.541-.118 1.807 3.221-1.392.186zm2.376-.17c1.09-.065 2.003-.102 2.657-.128l-2.248.903zm1.85-.846l-42.35-69.226c1.02.451 1.706.78 1.94.903l41.887 68.28c-.346.005-.856.027-1.478.054zm-.261 0l-2.004.106-42.498-70.353c.766.308 1.451.6 2.041.856zm-2.259.122c-.659.043-1.376.096-2.126.16L132.333 9.44c.697.255 1.36.532 1.972.755zm-2.386.181l-1.813.165-42.61-72.384c.665.218 1.308.436 1.92.66zm-2.062.191c-.628.064-1.276.133-1.94.213l-2.43-4.178.628-.053a.383.383 0 00.345-.409.377.377 0 00-.409-.34l-.983.085-1.536-2.658h1.063a.377.377 0 10.026-.749c-.106 0-.67-.027-1.546 0l-1.563-2.684c.627 0 .989.027 1.015.027a.383.383 0 00.394-.356.377.377 0 00-.357-.394c-.106 0-.643-.032-1.498-.042l-1.552-2.658.94.043a.377.377 0 10.054-.75c-.101 0-.622-.042-1.446-.063l-1.547-2.658c.532 0 .85.053.872.059a.379.379 0 10.064-.755c-.096 0-.6-.048-1.387-.08l-1.547-2.657c.494.032.781.058.803.064a.383.383 0 00.414-.335.377.377 0 00-.335-.415c-.1 0-.58-.058-1.34-.106l-1.54-2.658c.451.038.712.07.728.075a.378.378 0 00.095-.75c-.095 0-.531-.069-1.286-.127l-1.53-2.631c.403.043.637.074.653.08a.378.378 0 00.107-.75c-.09 0-.532-.074-1.233-.143l-1.52-2.62.573.085a.383.383 0 00.436-.314.377.377 0 00-.313-.43c-.085 0-.532-.086-1.175-.165l-1.515-2.605.495.085a.379.379 0 00.143-.744c-.085 0-.489-.085-1.127-.18l-1.504-2.589.42.08a.377.377 0 10.154-.733c-.08 0-.462-.096-1.063-.197l-1.493-2.567.335.069a.372.372 0 00.451-.276.383.383 0 00-.276-.458c-.08 0-.441-.1-1.02-.212l-1.462-2.52.25.06a.377.377 0 10.191-.73c-.069 0-.41-.105-.957-.228l-3.263-5.612a27.78 27.78 0 011.446.473l-7.35-11.927s-.373-.186-1.027-.467l-5.575-9.6q.957.277 1.866.575zm-39.32-63.646a42.495 42.495 0 00-2.089-.834l-5.272-9.184c.616.154 1.222.319 1.818.489zm-1.7 10.487l3.427 6.197c-.563 0-1.142 0-1.716.042l-3.44-6.287c.585 0 1.16.021 1.728.048zm3.858 6.973l1.594 2.86c-.568 0-1.142.026-1.727.068l-1.595-2.912a37.123 37.123 0 011.728-.016zm2.009 3.63l1.594 2.865q-.86 0-1.738.095l-1.594-2.912c.58-.032 1.164-.048 1.754-.048zm2.004 3.625l1.594 2.86c-.574.026-1.153.068-1.743.121l-1.595-2.902c.58-.042 1.17-.069 1.744-.08zm1.998 3.614l1.594 2.854a41.28 41.28 0 00-1.754.154l-1.594-2.902a39.392 39.392 0 011.754-.106zm1.998 3.609l1.595 2.854c-.585.042-1.17.1-1.765.175l-1.594-2.896a39.94 39.94 0 011.764-.133zm1.993 3.598l1.595 2.854c-.58.053-1.175.122-1.77.207l-1.594-2.896c.59-.09 1.185-.123 1.764-.165zm1.988 3.598l1.595 2.849c-.59.064-1.186.143-1.786.234l-1.595-2.892q.904-.117 1.786-.191zm1.983 3.588l1.594 2.848c-.59.075-1.185.16-1.791.26l-1.594-2.89c.605-.086 1.2-.16 1.79-.218zm1.982 3.582l1.595 2.843c-.59.08-1.196.176-1.802.282l-1.595-2.88a51.567 51.567 0 011.802-.245zm1.977 3.571l1.595 2.855a61.53 61.53 0 00-1.813.302l-1.594-2.886a83.07 83.07 0 011.812-.27zm1.983 3.583l1.594 2.848c-.6.096-1.212.208-1.823.33l-1.594-2.886a46.286 46.286 0 011.823-.292zm1.977 3.577l4.581 8.301c-.61.133-1.222.282-1.823.431l-4.602-8.414a43.414 43.414 0 011.844-.318zm9.19 8.185l2.125 3.72c-4.533.946-9.567 2.301-13.106 4.098-3.652 1.86-8.026 4.852-12.442 8.2l-1.744-3.093c3.896-3.805 7.664-7.026 10.63-8.62 3.949-2.126 9.397-3.471 14.536-4.305zm-23.615 16.183l-1.09.84-1.647-2.912 1.005-.994zm-1.27.978l-1.09.845-1.536-2.72c.33-.341.665-.676.994-1.01zm-1.265.989c-.367.287-.733.574-1.095.866l-1.483-2.482 1.063-1.063zm-.096 2.987l-.606.367.596-.388zm.117.196l.532.888-1.154.691-.531-.888zm51.64-24.671c-1.414.531-6.639 2.583-12.682 5.038l-.489-.871c6.075-2.456 11.3-4.47 12.645-4.991zm-.649-1.015c-1.413.531-6.606 2.545-12.633 4.98l-.49-.867 2.802-1.121h.67a.388.388 0 00.324-.197.34.34 0 00.042-.202c4.321-1.711 7.712-3.008 8.76-3.412zm-.648-1.02a777.15 777.15 0 00-8.711 3.39l-.532-.85a719.574 719.574 0 018.706-3.365zm-.654-1.021c-1.09.414-4.438 1.69-8.695 3.364l-.531-.845c4.294-1.68 7.653-2.95 8.695-3.343zm-.648-1.02c-1.063.414-4.433 1.679-8.69 3.342l-.532-.845a709.57 709.57 0 018.685-3.322zm-.649-1.016a594.135 594.135 0 00-8.679 3.317l-.042-.07a83.392 83.392 0 011.594-.61.377.377 0 00.191-.532l-.244-.394c3.3-1.27 5.788-2.195 6.654-2.519zm-.648-1.02c-.914.34-3.386 1.26-6.649 2.514l-.532-.845a687.713 687.713 0 016.644-2.493zm-.649-1.026c-.914.335-3.38 1.249-6.643 2.493l-.532-.84c3.296-1.25 5.772-2.158 6.639-2.477zm-.653-1.02c-.91.334-3.37 1.238-6.628 2.476l-.531-.845c3.29-1.238 5.76-2.126 6.627-2.455zm-.649-1.016a597.25 597.25 0 00-6.622 2.45l-.531-.845a454.969 454.969 0 016.622-2.429zm-.648-1.02c-.909.324-3.36 1.212-6.612 2.434l-.531-.845c3.284-1.222 5.745-2.126 6.606-2.413zm-.648-1.02c-.91.324-3.36 1.2-6.607 2.412l-.531-.845c3.284-1.212 5.74-2.083 6.6-2.391zm-.654-1.016c-.914.324-3.354 1.19-6.596 2.392l-.531-.845a605.513 605.513 0 016.59-2.37zm-.654-1.02c-.909.324-3.343 1.185-6.585 2.375l-.532-.845a449.816 449.816 0 016.586-2.349zm-.648-1.015a415.53 415.53 0 00-6.58 2.349l-.532-.845a396.06 396.06 0 016.575-2.328zm-.649-1.02a470.76 470.76 0 00-6.569 2.327l-.531-.845c3.284-1.18 5.713-2.014 6.563-2.307zm-.648-1.021c-.898.308-3.317 1.142-6.564 2.306l-.532-.84c3.28-1.174 5.703-1.998 6.554-2.29zm-.649-1.02c-.898.307-3.31 1.131-6.553 2.29l-.531-.845a368.034 368.034 0 016.548-2.264zm-.653-1.016c-.899.298-3.3 1.11-6.543 2.264l-.531-.845a398.531 398.531 0 016.542-2.243zm-.643-1.02c-.899.297-3.296 1.1-6.532 2.243l-.532-.846a339.151 339.151 0 016.532-2.221zm-.649-1.02c-.898.297-3.29 1.062-6.527 2.22l-.531-.844a386.756 386.756 0 016.521-2.2zm-.654-1.021c-.898.292-3.284 1.063-6.521 2.2l-.531-.84a317.345 317.345 0 016.51-2.179zm-.653-1.02c-.893.292-3.274 1.062-6.506 2.184l-.531-.845a303.595 303.595 0 016.505-2.158zm-.649-1.016a418.74 418.74 0 00-6.5 2.158l-.531-.845c3.279-1.11 5.655-1.871 6.5-2.126zm-.648-1.02c-.898.281-3.264 1.063-6.495 2.126l-.531-.845c3.274-1.106 5.644-1.855 6.484-2.126zm-.649-1.02c-.898.28-3.258 1.025-6.484 2.125l-.531-.845a313.4 313.4 0 016.479-2.094zm-.648-1.021c-.898.276-3.253 1.015-6.479 2.094l-.531-.84a270.263 270.263 0 016.473-2.073zm-.654-1.02c-.893.276-3.242 1.004-6.463 2.072l-.531-.84c3.274-1.063 5.623-1.801 6.463-2.051zm-.648-1.016c-.893.266-3.237.983-6.458 2.052l-.531-.845a307.576 307.576 0 016.457-2.03zm-.649-1.02c-.892.265-3.226.972-6.452 2.03l-.531-.845a246.264 246.264 0 016.441-2.01zm-.648-1.02c-.893.26-3.22.961-6.442 2.008l-.531-.845c3.274-1.063 5.602-1.743 6.436-1.988zm-.648-1.01c-.893.26-3.19.945-6.431 1.987l-.532-.84c3.274-1.063 5.602-1.727 6.431-1.966zm-.649-1.021c-.893.26-3.189.935-6.426 1.966l-.531-.84c3.274-1.062 5.591-1.71 6.42-1.945zm-.648-1.015c-.893.25-3.19.92-6.415 1.945l-.532-.845c3.28-1.036 5.586-1.69 6.41-1.924zm-.649-1.02c-.893.25-3.189.903-6.41 1.923l-.53-.845c3.278-1.026 5.574-1.674 6.377-1.903zm-.653-1.021c-.888.244-3.19.893-6.378 1.903l-.532-.84c3.28-1.02 5.57-1.658 6.378-1.882zm-.649-1.02c-.893.244-3.189.882-6.378 1.88l-.531-.839c3.28-1.015 5.56-1.642 6.378-1.86zm-.648-1.021c-.893.24-3.163.872-6.378 1.865l-.532-.84a174.163 174.163 0 016.378-1.844zm-.649-1.02c-.893.239-3.157.855-6.378 1.844l-.531-.83c3.28-1.004 5.538-1.594 6.378-1.833zm-.653-1.026c-.883.234-3.136.845-6.352 1.828l-.531-.845a169.46 169.46 0 016.351-1.807zm-.649-1.02c-.882.228-3.13.828-6.346 1.801l-.531-.877c3.322-.94 5.58-1.493 6.378-1.69zm-.616-.968c-.888.213-3.136.765-6.378 1.695l-.468-.754c3.317-.93 5.575-1.478 6.378-1.675zm-.596-.936c-.887.213-3.135.76-6.377 1.675l-.468-.755c3.311-.92 5.57-1.456 6.378-1.648zm-.59-.93c-.892.208-3.14.75-6.377 1.648l-.463-.755c3.295-.903 5.56-1.435 6.378-1.594zm-.595-.93c-.893.202-3.146.734-6.378 1.627l-.462-.755c3.29-.893 5.554-1.42 6.378-1.595zm-.595-.935c-.893.202-3.146.728-6.378 1.594l-.468-.754c3.285-.883 5.55-1.398 6.378-1.595zm-.611-.93c-.893.196-3.147.717-6.378 1.594l-.463-.75c3.274-.87 5.539-1.381 6.378-1.556zm-.59-.936c-.898.197-3.152.713-6.378 1.563l-.468-.755a150.322 150.322 0 016.378-1.536zm-.595-.93c-.899.197-3.158.696-6.378 1.536l-.41-.75a150.654 150.654 0 016.352-1.514zm-.596-.93c-.898.191-3.157.686-6.346 1.515l-.467-.755a146.51 146.51 0 016.35-1.488zm-.595-.935c-.898.191-3.157.68-6.34 1.493l-.463-.75a150.872 150.872 0 016.34-1.471zm-.59-.93c-.904.186-3.162.67-6.34 1.472l-.463-.755a143.41 143.41 0 016.335-1.446zm-.595-.93c-.904.18-3.163.659-6.33 1.45l-.463-.754c3.226-.797 5.501-1.26 6.33-1.425zm-.596-.936c-.903.18-3.162.648-6.324 1.43l-.463-.75a149.49 149.49 0 016.325-1.408zm-.595-.93c-.903.175-3.162.638-6.314 1.408l-.462-.749a142.012 142.012 0 016.314-1.387zm-.563-.93c-.904.175-3.19.627-6.304 1.387l-.462-.755c3.189-.76 5.474-1.206 6.303-1.36zm-.59-.936c-.909.176-3.19.622-6.304 1.366l-.462-.749c3.189-.75 5.469-1.185 6.303-1.34zm-.595-.93c-.91.17-3.19.612-6.293 1.345l-.495-.728c3.19-.739 5.459-1.17 6.293-1.324zm-.596-.935c-.909.17-3.189.606-6.287 1.329l-.463-.75a142.464 142.464 0 016.288-1.302zm-.595-.93c-.909.165-3.189.595-6.277 1.307l-.462-.75c3.189-.717 5.448-1.137 6.277-1.28zm-.59-.93c-.914.16-3.189.584-6.271 1.286l-.463-.75a153.925 153.925 0 016.272-1.264zm-.595-.936c-.914.165-3.19.58-6.266 1.265l-.457-.744a141.22 141.22 0 016.26-1.244zm-.595-.93c-.915.16-3.19.564-6.256 1.244l-.462-.744c3.157-.686 5.426-1.063 6.255-1.223zm-.628-.93c-.919.154-3.189.532-6.25 1.222l-.462-.744c3.146-.675 5.416-1.063 6.25-1.206zm-.595-.93c-.92.149-3.189.531-6.245 1.201l-.457-.744c3.136-.664 5.405-1.063 6.24-1.185zm-.595-.935c-.92.154-3.189.531-6.234 1.185l-.458-.744c3.13-.654 5.4-1.031 6.23-1.164zm-.595-.93c-.92.148-3.19.53-6.224 1.163l-.457-.744c3.12-.637 5.39-1.015 6.218-1.142zm-.59-.93c-.92.143-3.19.53-6.219 1.147l-.462-.75c3.114-.626 5.384-.993 6.218-1.126zm-.596-.936c-.92.143-3.189.531-6.207 1.132l-.463-.75c3.11-.616 5.374-.977 6.208-1.105zm-.595-.93c-.92.138-3.189.531-6.202 1.11l-.457-.743c3.098-.612 5.368-.968 6.197-1.063zm-.574-.957c-.92.144-3.189.5-6.192 1.095l-.457-.744c3.093-.6 5.358-.951 6.192-1.063zm-.59-.93a156.6 156.6 0 00-6.186 1.063l-.325-.531a.377.377 0 00-.34-.176c3.19-.611 5.538-.967 6.378-1.063zm-.584-.909c-1.27.186-5.05.77-9.865 1.802-.404-.175-.84-.367-1.323-.569a154.715 154.715 0 0110.725-1.956zm-.596-.93c-1.366.191-5.634.845-10.959 2.01a25.19 25.19 0 00-1.382-.532 157.785 157.785 0 0111.884-2.18zm-.606-.951c-1.467.207-6.277.93-12.128 2.243l-1.451-.532a161.285 161.285 0 0113.122-2.424zm-.59-.93c-1.594.217-6.994 1.02-13.382 2.492-.495-.175-1.005-.345-1.526-.531a161.969 161.969 0 0114.446-2.695zm-.595-.93c-1.69.228-7.78 1.116-14.727 2.769a91.487 91.487 0 00-1.595-.495 159.41 159.41 0 0115.881-2.997zm-1.238-1.946l.643 1.01a162.843 162.843 0 00-16.179 3.083 64.107 64.107 0 00-2.514-.654 94.1 94.1 0 0118.05-3.423zM125.46 7.315l5.24 9.136a44.842 44.842 0 00-1.828-.632l-5.006-8.865c.536.117 1.068.239 1.594.361zm-1.892-.425l4.985 8.823a49.598 49.598 0 00-2.083-.606l-3.518-6.277a.303.303 0 000-.154.34.34 0 00-.234-.25l-1.063-1.876c.653.1 1.297.234 1.913.345zm-2.18-.393l1.09 1.945a.335.335 0 00.218.627.383.383 0 00.107-.048l3.364 6.006a37.47 37.47 0 00-1.844-.425l-3.19-5.799a.473.473 0 00.128-.16.489.489 0 00-.228-.653.5.5 0 00-.362 0l-.935-1.695c.558.042 1.09.122 1.653.207zm-1.95-.25l1.02 1.839a.531.531 0 00-.1.133.489.489 0 00.228.653.457.457 0 00.325 0l3.103 5.671a38.624 38.624 0 00-1.775-.297l-4.443-8.121q.83.042 1.642.127zM108.2 7.708c2.726-1.35 5.984-1.759 9.348-1.594l4.433 8.11a23.056 23.056 0 00-3.189-.207l7.733 14.026a25.788 25.788 0 012.913-.175l3.444 6.298a25.134 25.134 0 00-2.812.314l.388.706a25.41 25.41 0 012.833-.27l1.594 2.912a25.963 25.963 0 00-2.78.35l.394.708a27.489 27.489 0 012.79-.314l1.595 2.918c-.909.085-1.834.207-2.743.377l.388.707a28.84 28.84 0 012.764-.34l1.595 2.913c-.904.09-1.813.223-2.716.398l.393.707a31.683 31.683 0 012.726-.372l1.595 2.907c-.893.107-1.791.25-2.684.43l.388.708a31.721 31.721 0 012.695-.404l1.594 2.902c-.882.117-1.77.265-2.657.457l.382.701a33.68 33.68 0 012.658-.43l1.594 2.902c-.871.127-1.748.281-2.625.478l.388.707a31.52 31.52 0 012.657-.457l1.595 2.897c-.861.132-1.733.302-2.594.504l.383.702a34.442 34.442 0 012.604-.484l1.594 2.892c-.855.148-1.711.324-2.567.531l.383.696c.86-.202 1.722-.366 2.578-.531l1.594 2.88c-.84.155-1.69.335-2.535.532l.383.696c.85-.207 1.7-.382 2.545-.531l1.595 2.891c-.83.16-1.674.35-2.509.569l.383.701c.84-.212 1.685-.398 2.52-.531l1.594 2.891a39.06 39.06 0 00-2.482.595l.382.697a43.01 43.01 0 012.488-.58l4.608 8.43a37.236 37.236 0 00-8.276 3.066c-4.427 2.397-10.55 8.239-16.226 14.298a65.58 65.58 0 01-5.453-9.238q1.483-1.461 3.189-3.024a28.589 28.589 0 001.988 3.37l.186-.133a27.893 27.893 0 01-1.999-3.396 139.452 139.452 0 0110.986-8.988l-.404-.638a139.16 139.16 0 00-10.911 8.924 48.076 48.076 0 01-1.425-3.274 122.593 122.593 0 0110.534-8.504l-.404-.638a122.641 122.641 0 00-10.417 8.387 84.556 84.556 0 01-1.222-3.46 107.67 107.67 0 019.827-7.791l-.404-.638a109.258 109.258 0 00-9.678 7.648 95.414 95.414 0 01-1.063-3.545 96.89 96.89 0 018.934-6.984l-.404-.637a97.98 97.98 0 00-8.759 6.819q-.531-1.802-1.01-3.63a88.977 88.977 0 017.94-6.08l-.403-.639a89.078 89.078 0 00-7.75 5.916 200.13 200.13 0 01-.78-2.94l-.192-.711a79.537 79.537 0 016.91-5.177l-.404-.638a81.206 81.206 0 00-6.692 5.007c-.33-1.239-.659-2.456-.988-3.641a71.81 71.81 0 015.846-4.29l-.404-.637a76.834 76.834 0 00-5.644 4.14 100.282 100.282 0 00-1.063-3.571 66.777 66.777 0 014.842-3.497l-.404-.638q-2.493 1.642-4.683 3.37c-.18-.564-.361-1.117-.531-1.653a46.033 46.033 0 00-.665-1.797 64.98 64.98 0 014.029-2.87l-.399-.632a63.16 63.16 0 00-3.922 2.78q-.733-1.776-1.499-3.227a59.143 59.143 0 013.55-2.509l-.403-.637a60.012 60.012 0 00-3.503 2.476 31.47 31.47 0 00-1.86-2.981c1.1-.845 2.27-1.67 3.486-2.466l-.403-.633a56.009 56.009 0 00-3.524 2.493 20.813 20.813 0 00-2.381-2.615 52.432 52.432 0 013.938-2.865l-.404-.638a53.102 53.102 0 00-4.098 2.987 8.504 8.504 0 00-.893-.685l-.117.196a6.208 6.208 0 01.83.633q-1.706 1.387-3.221 2.833l-.128-.144a43.79 43.79 0 00-5.017-4.581 74.435 74.435 0 018.637-7.574l-8.563-13.51a88.45 88.45 0 00-9.035 9.099l6.91 10.55c-10.981-7.441-20.436-4.99-22.855-4.156 4.741-7.08 15.472-21.786 26.702-27.356zm16.619 107.436l.532.967c-.373.287-.649.532-.84.675l-.574-1.063zm-.989-.436l.442-.532.047.085zm10.157-5.735l-1.222.76-.42-.744 1.153-.808zm-.303-.92l.835-.579c.207.266.414.532.627.782l-.967.6zm-6.521 4.688l1.105-.818.282.494-1.148.744zm.053.532l-1.143.75-.127-.224 1.063-.925zm1.238-1.494l1.106-.807.324.574-1.148.738zm1.292-.94l1.095-.792.366.659-1.132.717zm1.28-.925l1.133-.803.414.734-1.174.739zm1.866-3.163l-.903-1.477.531-.585a31.96 31.96 0 001.063 1.515c-.25.186-.473.377-.69.563zm-.175.15l-1.063.887-.728-1.324c.297-.334.595-.675.903-1.015zm-1.222 1.062l-1.063.91-.638-1.144.956-1.063zm-1.234 1.063c-.356.303-.701.606-1.063.904l-.531-.93.946-1.09zm-1.217 1.063l-1.063.92-.409-.723.946-1.095zm-1.217 1.063l-1.063.925-.287-.531.941-1.1zm-1.217 1.063l-1.063.925-.17-.303.935-1.105zm-.834 1.754l.106.191-.989.66v-.043zm-1.281.138l-.07-.117.814-.967.16.271zm.212.84l-.074.048.07-.059zm.298.07l.989-.66.531.904c-.367.265-.686.505-.957.712zm1.18-.782c.345-.234.728-.484 1.143-.75l.483.856c-.414.282-.792.532-1.121.787zm1.329-.877l1.148-.744.467.84c-.404.265-.78.531-1.132.76zm1.334-.866l1.148-.74.467.835-1.132.744zm1.339-.861l1.127-.718.468.84-1.127.712zm1.318-.835l1.18-.744.478.85c-.414.25-.807.495-1.19.734zm1.371-.866l1.228-.766.532.856-1.276.765zm1.42-.882l.988-.617c.223.271.446.531.675.797l-1.137.665zm-16.211-62.764a31.89 31.89 0 011.855 2.982 54.807 54.807 0 00-3.806 3.189 44.24 44.24 0 00-1.679-3.083q1.7-1.573 3.63-3.083zm-4.029 2.424a24.836 24.836 0 00-1.993-2.743 55.238 55.238 0 013.29-2.886 20.898 20.898 0 012.29 2.6c-1.275.993-2.465 2.03-3.587 3.034zm6.24 1.233a38.9 38.9 0 011.493 3.231 59.46 59.46 0 00-3.863 3.237q-.702-1.685-1.451-3.264a60.19 60.19 0 013.821-3.204zm1.786 3.96q.324.818.638 1.721c.19.558.382 1.138.568 1.728a76.124 76.124 0 00-3.763 3.189q-.632-1.728-1.296-3.402a69.791 69.791 0 013.853-3.237zm1.45 4.214c.352 1.148.702 2.344 1.064 3.577q-1.914 1.562-3.593 3.125c-.383-1.17-.776-2.339-1.19-3.497a61.82 61.82 0 013.72-3.205zm1.271 4.369q.484 1.775.983 3.646a80.628 80.628 0 00-3.438 3.04c-.357-1.175-.723-2.37-1.111-3.566q1.669-1.552 3.566-3.12zm1.196 4.448l.16.612.813 3.045a83.052 83.052 0 00-3.322 3.003c-.34-1.17-.691-2.381-1.063-3.614a76.464 76.464 0 013.412-3.046zm1.19 4.46q.495 1.828 1.005 3.63a99.312 99.312 0 00-3.269 3.013c-.33-1.143-.675-2.354-1.063-3.625a84.098 84.098 0 013.343-3.018zm1.239 4.432c.35 1.201.707 2.387 1.063 3.545q-1.738 1.557-3.258 3.04a87.303 87.303 0 01-1.063-3.56 93.96 93.96 0 013.258-3.025zm1.34 4.326a74.731 74.731 0 001.222 3.455 95.68 95.68 0 00-3.19 3.014 95.904 95.904 0 01-1.1-2.913c-.053-.16-.111-.335-.17-.5a98.992 98.992 0 013.237-3.077zm1.514 4.205a49.263 49.263 0 001.424 3.274q-1.706 1.551-3.189 3.013a72.928 72.928 0 01-1.419-3.274q1.478-1.456 3.184-2.987zm-51.964-45.83a19.91 19.91 0 0110.827-.793c-1.914 2.525-3.078 4.2-3.078 4.2l8.18 13.972a60.287 60.287 0 014.783-7.664l-5.66-9.338c3.949 1.466 8.413 4.172 13.117 8.913.292.292.58.6.856.914a58.235 58.235 0 00-9.918 14.983.372.372 0 00.208.488.345.345 0 00.143.027.367.367 0 00.345-.234 57.523 57.523 0 019.695-14.69 27.78 27.78 0 011.966 2.657c-7.324 7.808-10.528 15.291-10.576 15.413a.377.377 0 00.202.495.35.35 0 00.143.032.388.388 0 00.351-.234c.048-.117 3.189-7.404 10.295-15.052q.893 1.43 1.695 2.992c-7.536 7.866-10.837 15.302-10.885 15.414a.377.377 0 00.197.494.356.356 0 00.149.032.377.377 0 00.345-.229c.048-.111 3.253-7.324 10.556-15.004q.765 1.547 1.467 3.19c-7.558 7.823-10.864 15.035-10.912 15.147a.377.377 0 00.346.531.372.372 0 00.34-.223c.048-.106 3.242-7.074 10.54-14.696a83.03 83.03 0 011.301 3.38c-7.44 7.696-10.677 14.547-10.725 14.654a.377.377 0 00.186.5.314.314 0 00.154.036.377.377 0 00.346-.217c.047-.107 3.189-6.703 10.326-14.186q.606 1.711 1.191 3.492c-7.196 7.5-10.353 13.925-10.401 14.02a.377.377 0 00.175.532.372.372 0 00.165.037.383.383 0 00.34-.212c.048-.101 3.077-6.267 9.987-13.543q.568 1.754 1.132 3.55c-6.91 7.26-9.95 13.219-9.998 13.288a.372.372 0 00.34.531.367.367 0 00.335-.207c.048-.09 2.956-5.798 9.567-12.825l1.106 3.567c-6.607 6.983-9.509 12.479-9.567 12.57a.377.377 0 00.165.53.324.324 0 00.17.043.372.372 0 00.335-.202c.047-.085 2.827-5.341 9.147-12.091.366 1.18.738 2.36 1.121 3.55-6.293 6.692-9.078 11.746-9.11 11.826a.377.377 0 00.15.531.446.446 0 00.18.043.367.367 0 00.33-.197c.047-.08 2.7-4.916 8.737-11.384q.563 1.732 1.164 3.47c-6.064 6.447-8.716 11.125-8.759 11.204a.377.377 0 00.144.532.388.388 0 00.186.048.383.383 0 00.33-.192c.036-.074 2.577-4.55 8.375-10.773.404 1.143.819 2.28 1.255 3.412-5.873 6.23-8.446 10.566-8.504 10.63a.377.377 0 00.138.531.388.388 0 00.186.048.377.377 0 00.33-.186c.037-.069 2.508-4.225 8.131-10.236q.654 1.658 1.356 3.3c-5.767 6.07-8.297 10.136-8.334 10.205a.372.372 0 00.122.531.383.383 0 00.197.059.377.377 0 00.319-.181c.042-.07 2.476-3.976 8.025-9.854a67.5 67.5 0 005.177 9.62c-5.708 6.325-10.481 12.224-11.847 13.91L79.147 38.8zm-3.412-1.877l41.87 81.116a72.022 72.022 0 00-2.317-.377l-6.128-12.023a.473.473 0 00.085-.117.377.377 0 00-.196-.494l-.25-.106-1.552-3.035a.436.436 0 00.085-.117.383.383 0 00-.197-.5l-.25-.1-1.546-3.04a.425.425 0 00.08-.112.377.377 0 00-.192-.5l-.255-.1-1.546-3.04a.377.377 0 00.08-.118.372.372 0 00-.192-.494l-.255-.106-1.536-3.035a.303.303 0 00.08-.117.372.372 0 00-.192-.494l-.255-.107-1.547-3.035a.319.319 0 00.085-.116.377.377 0 00-.196-.495c-.075-.037-.17-.069-.25-.106l-1.547-3.035a.457.457 0 00.08-.117.372.372 0 00-.191-.494l-.255-.112-1.558-3.056a.425.425 0 00.08-.111.377.377 0 00-.191-.5l-.255-.106-1.547-3.003a.33.33 0 00.08-.112.377.377 0 00-.192-.5l-.255-.106-1.541-3.045a.388.388 0 00.085-.117.383.383 0 00-.197-.494l-.25-.096-1.552-3.045a.319.319 0 00.085-.117.372.372 0 00-.196-.495l-.245-.095-1.552-3.046a.415.415 0 00.085-.127.372.372 0 00-.207-.49l-.24-.095-3.565-6.994a.372.372 0 00.074-.436l-6.734-13.213a.308.308 0 00-.096-.122l-.42-.32-3.927-7.706a41.017 41.017 0 012.63 2.073zM49.607 137.727l1.477-.803 1.813 3.87c-.532.292-1.063.557-1.478.791zm1.594 3.965l-1.286.696-1.87-3.795 1.376-.75zm.064-4.874l1.51-.813 1.817 3.88c-.531.281-1.063.531-1.51.802zm1.706-.92l1.595-.834 1.823 3.88-1.568.834zm7.585 1.706l1.913-.983 1.393 2.971-1.712 1.403zm1.413 3.54c-.531.436-1.015.85-1.467 1.233l-1.764-3.784 1.648-.856zm.697-4.63l1.913-.972 1.19 2.53c-.6.473-1.174.93-1.727 1.377zm2.126-1.062l1.85-.936 1.036 2.09-1.717 1.339zm11.262-4.869c-.654.431-1.297.872-1.935 1.313l-.425-.86 2.089-1zm-.064-.648l2.094-.983.117.234q-.983.621-1.956 1.27zM48.852 80.98l1.42 2.886c-.702.398-1.393.802-2.068 1.2l-1.414-2.87q1.015-.605 2.062-1.216zm-2.397.531l-1.419-2.875c.675-.415 1.36-.824 2.062-1.239l1.425 2.897c-.702.415-1.393.824-2.068 1.228zm4.146 3.019l1.419 2.88c-.702.394-1.393.793-2.068 1.186l-1.408-2.854c.67-.399 1.355-.803 2.057-1.201zm1.748 3.556l1.42 2.88c-.702.388-1.393.782-2.073 1.17l-1.414-2.865c.68-.383 1.366-.781 2.067-1.17zm1.749 3.555l1.42 2.88c-.708.384-1.399.772-2.074 1.154l-1.413-2.864c.675-.378 1.365-.771 2.067-1.16zm1.749 3.556l1.413 2.875q-1.063.569-2.072 1.143l-1.414-2.865c.68-.372 1.371-.76 2.073-1.142zm1.748 3.55l1.414 2.876q-1.063.558-2.078 1.126l-1.414-2.864c.68-.367 1.371-.75 2.062-1.127zm1.744 3.55l1.413 2.87c-.707.373-1.398.745-2.078 1.111l-1.408-2.859c.675-.361 1.376-.739 2.073-1.11zm1.743 3.546l1.408 2.86c-.707.36-1.403.727-2.083 1.094l-1.403-2.844c.701-.361 1.376-.728 2.078-1.1zm1.738 3.529l1.408 2.864c-.707.362-1.403.723-2.083 1.063l-1.377-2.816c.654-.367 1.345-.734 2.052-1.122zm1.754 3.571l6.378 12.91-2.121 1.047-6.335-12.851c.68-.372 1.37-.734 2.078-1.095zm4.39 14.707l1.924 3.895-2.084 1.032-1.924-3.89c.691-.341 1.388-.687 2.084-1.027zm.202-.101l2.089-1.02 1.918 3.9-2.083 1.02zm4.342 3.56l.436.894c-.643.446-1.286.898-1.914 1.355l-.632-1.223zm-.128-.775l-1.918-3.901 2.094-1.005 1.913 3.901zm-2.253-4.576l-6.378-12.916c.691-.35 1.393-.696 2.126-1.063l6.351 12.995zm-6.697-13.623l-1.408-2.864c.685-.356 1.387-.707 2.1-1.063l1.408 2.875c-.713.362-1.414.712-2.1 1.063zm-1.738-3.54l-1.392-2.848a96.286 96.286 0 012.094-1.063l1.408 2.87c-.723.346-1.424.702-2.11 1.052zm-1.738-3.528l-1.414-2.876q1.032-.531 2.095-1.063l1.413 2.892c-.685.34-1.408.696-2.094 1.057zm-1.748-3.55l-1.414-2.876c.686-.372 1.387-.739 2.094-1.106l1.419 2.892c-.712.372-1.408.733-2.1 1.1zm-1.744-3.551l-1.413-2.88q1.03-.559 2.088-1.117l1.42 2.891c-.707.378-1.409.745-2.095 1.117zm-1.748-3.556L54.3 91.53l2.083-1.132 1.425 2.896c-.707.383-1.409.755-2.094 1.127zm-1.749-3.55l-1.414-2.886q1.02-.574 2.084-1.148l1.419 2.897q-1.058.579-2.089 1.148zm-1.748-3.561l-1.42-2.88q1.032-.59 2.084-1.17l1.424 2.902q-1.063.585-2.088 1.159zm-1.749-3.556l-1.393-2.875q1.032-.595 2.079-1.185l1.424 2.902q-1.079.579-2.11 1.169zm-1.754-3.56l-1.424-2.897c.685-.404 1.376-.803 2.083-1.201l1.424 2.912q-1.052.6-2.083 1.196zM46.95 76.62l-1.404-2.87c.68-.404 1.377-.808 2.073-1.211l1.42 2.89q-1.027.59-2.09 1.191zm-.197.112c-.696.415-1.387.824-2.062 1.233l-1.409-2.86 2.073-1.248zm-2.254 1.355c-.696.42-1.382.845-2.051 1.265l-1.403-2.843a114.16 114.16 0 012.04-1.281zm.33.675l1.419 2.876q-1.063.627-2.046 1.249l-1.42-2.86q1.016-.627 2.042-1.265zm1.754 3.55l1.414 2.87c-.697.41-1.382.824-2.052 1.234l-1.408-2.854c.675-.415 1.35-.83 2.056-1.25zm1.748 3.546l1.414 2.864q-1.063.612-2.057 1.217l-1.408-2.848c.67-.41 1.366-.824 2.062-1.233zm1.744 3.54l1.413 2.864c-.696.399-1.381.803-2.051 1.201l-1.425-2.849q1.026-.605 2.073-1.217zm1.748 3.534l1.414 2.865q-1.063.6-2.057 1.19l-1.414-2.849q1.016-.595 2.068-1.206zm1.744 3.54l1.413 2.859q-1.063.59-2.062 1.174l-1.398-2.838c.67-.398 1.36-.797 2.057-1.195zm1.743 3.534l1.414 2.86a119.3 119.3 0 00-2.063 1.163l-1.408-2.849c.68-.388 1.371-.78 2.067-1.174zm1.743 3.534l1.414 2.86q-1.063.574-2.062 1.142l-1.409-2.843q.989-.574 2.052-1.159zm1.743 3.53l1.44 2.822c-.7.382-1.392.76-2.061 1.137l-1.404-2.833zm1.733 3.518l1.409 2.849c-.707.372-1.393.744-2.068 1.116l-1.398-2.833c.702-.372 1.366-.765 2.068-1.132zm1.754 3.55l6.335 12.846c-.696.346-1.392.686-2.083 1.037l-6.314-12.756zm4.385 14.659l1.924 3.89-2.078 1.037-1.93-3.88zm.18 5.602l2.079-1.037.823 1.664c-.643.478-1.27.956-1.881 1.424zm2.28-1.138l2.079-1.03.627 1.27c-.643.462-1.281.93-1.898 1.387zm21.866-6.638l.532 1.19c-6.814 3.072-15.026 7.101-20.09 9.62a169.077 169.077 0 0119.569-10.81zm-12.687 2.216l1.701-.781c-.531.324-1.063.654-1.594.988zm12.905-2.312c.531-.255 1.105-.531 1.658-.755l.532 1.207-1.67.744zm1.865-.845l1.675-.733.531 1.211c-.531.229-1.1.474-1.674.729zm1.882-.818l1.685-.707.531 1.212c-.531.217-1.1.451-1.685.701zm1.897-.792l1.84-.728.53 1.217a57.66 57.66 0 00-1.843.723zm2.052-.808c.616-.24 1.233-.473 1.855-.696l.531 1.238-1.483.531-.382.144zm2.067-.776c.622-.223 1.244-.447 1.871-.66l.532 1.24-1.86.642zm2.084-.734a96.122 96.122 0 011.988-.648l.574 1.18-2.02.707zm-16.046-51.48l1.425 2.876a42.993 42.993 0 00-1.994-.34l-1.424-2.913c.728.133 1.366.245 1.993.377zm-2.402-1.211l-1.425-2.908c.697.117 1.361.25 1.978.388l1.419 2.87a40.446 40.446 0 00-1.972-.35zm4.252 4.942l1.435 2.892a36.795 36.795 0 00-2.01-.335l-1.434-2.934c.701.122 1.371.24 2.003.377zm1.86 3.72l1.424 2.882a33.731 33.731 0 00-2.03-.335l-1.43-2.918c.713.117 1.393.26 2.03.393zm1.844 3.721l1.425 2.876a36.507 36.507 0 00-2.041-.325l-1.435-2.917c.717.111 1.403.26 2.046.393zm1.85 3.72l1.43 2.935a38.184 38.184 0 00-2.063-.32l-1.424-2.907c.707.085 1.398.202 2.051.34zm1.844 3.721l1.43 2.88a34.131 34.131 0 00-2.078-.313l-1.435-2.928c.728.149 1.424.27 2.078.409zm1.844 3.72l1.425 2.876a32.523 32.523 0 00-2.094-.303l-1.43-2.918c.717.138 1.435.255 2.094.388zm1.845 3.721l1.424 2.875a32.48 32.48 0 00-2.126-.303l-1.43-2.912c.728.133 1.435.25 2.126.383zm1.844 3.72l1.424 2.876a30.972 30.972 0 00-2.126-.287l-1.435-2.929c.723.133 1.435.245 2.132.383zm1.844 3.72l6.42 12.959c-.685-.054-1.397-.101-2.125-.144l-6.447-13.154c.738.133 1.435.244 2.147.382zm4.433 13.618l.744 1.514c-.66.075-1.34.154-2.03.25l-.899-1.86q1.09.042 2.185.096zm.26 0c.734.042 1.451.095 2.126.154l.558 1.116c-.638.058-1.297.127-1.972.202zm2.015-.606l-6.41-12.931c.786.164 1.557.361 2.317.59l6.298 12.553c-.728-.064-1.467-.133-2.232-.191zm-6.825-13.777l-1.424-2.87c.781.16 1.546.351 2.285.57l1.409 2.816a46.296 46.296 0 00-2.296-.5zm-1.85-3.72l-1.418-2.865c.776.16 1.53.346 2.253.558l1.42 2.823c-.76-.186-1.51-.356-2.28-.505zm-1.844-3.72l-1.419-2.865c.787.165 1.536.35 2.233.531l1.413 2.817c-.744-.154-1.488-.324-2.253-.467zm-1.839-3.72l-1.424-2.87c.803.17 1.547.355 2.211.53l1.408 2.818c-.717-.144-1.456-.309-2.21-.458zm-1.85-3.721l-1.418-2.86c.786.165 1.514.351 2.179.532l1.414 2.811a65.95 65.95 0 00-2.2-.478zm-1.886-3.742l-1.419-2.865c.792.17 1.52.356 2.158.532l1.414 2.817q-.994-.24-2.153-.484zm-1.844-3.72l-1.42-2.87a45.85 45.85 0 012.127.531l1.419 2.828c-.633-.144-1.345-.314-2.116-.49zm-1.844-3.72l-1.436-2.892a51.61 51.61 0 012.126.531l1.404 2.892a27.43 27.43 0 00-2.084-.532zm-1.86-3.748l-1.42-2.87c.77.176 1.472.356 2.084.532l1.419 2.827c-.617-.149-1.318-.319-2.073-.462zm-1.85-3.72l-1.42-2.86c.777.176 1.473.362 2.068.532l1.435 2.833c-.622-.17-1.318-.34-2.073-.479zm-1.855-3.72l-1.42-2.86c.766.18 1.457.367 2.047.532l1.414 2.816c-.6-.18-1.292-.35-2.03-.515zm-.282-.06a35.052 35.052 0 00-1.956-.355l-1.424-2.902c.69.122 1.35.255 1.961.393zm-2.227-.398c-.622-.09-1.27-.164-1.93-.223l-1.424-2.94c.665.07 1.308.16 1.93.261zm.41.84l1.43 2.918a35.265 35.265 0 00-1.951-.223l-1.414-2.977c.67.07 1.318.154 1.945.255zm1.838 3.72l1.43 2.918a31.42 31.42 0 00-1.972-.212l-1.43-2.95c.692.064 1.345.149 1.983.244zm1.829 3.72l1.435 2.94c-.643-.09-1.308-.16-1.988-.213l-1.44-2.97c.696.074 1.36.159 2.003.255zm1.833 3.748l1.435 2.923a33.58 33.58 0 00-2.014-.202l-1.43-2.96c.702.074 1.377.154 2.015.25zm1.829 3.72l1.435 2.924a34.514 34.514 0 00-2.025-.187l-1.435-2.965c.733.08 1.387.16 2.035.25zm1.839 3.753l1.43 2.912c-.67-.08-1.35-.138-2.047-.18l-1.43-2.956c.713.08 1.393.155 2.057.245zm1.823 3.72l1.44 2.934a36.55 36.55 0 00-2.068-.17l-1.44-2.977c.723.07 1.414.144 2.078.229zm1.833 3.72l1.43 2.918a37.987 37.987 0 00-2.083-.16l-1.43-2.965c.717.085 1.414.154 2.094.245zm1.823 3.72l1.435 2.924a37.785 37.785 0 00-2.126-.154l-1.43-2.96c.74.08 1.441.143 2.132.228zm1.823 3.721l1.44 2.94a30.62 30.62 0 00-2.125-.133l-1.446-2.987c.733.074 1.446.133 2.142.218zm1.829 3.72l6.457 13.166a91.344 91.344 0 00-2.179-.08l-6.415-13.255c.733.085 1.446.138 2.147.218zm4.395 13.82l.914 1.892c-.654.09-1.323.186-2.004.292l-1.062-2.211c.738.069 1.44.08 2.163.096zm-.34 3.752c.627-.197 1.249-.388 1.876-.574l.532 1.11-1.845.638zm2.1-.638c.632-.18 1.264-.356 1.902-.531l.484.993-1.855.633zm2.125-.585l1.526-.388.34-.032.393.798-1.78.6zm2.126-.44a135.06 135.06 0 012.041-.155l.149.298-1.818.6zm-.356-.724l-.531-1.063c.776.07 1.52.15 2.221.229l.34.68c-.659.107-1.334.16-2.02.223zm1.557-1.594l-6.271-12.495a23.46 23.46 0 012.391.893.367.367 0 00.213 0l6.043 11.947c-.733-.09-1.53-.196-2.386-.292zm-6.734-13.415l-1.408-2.811a22.636 22.636 0 012.35.871.367.367 0 00.212 0l1.43 2.812a23.917 23.917 0 00-2.594-.819zm-1.87-3.72l-1.409-2.812a21.074 21.074 0 012.312.85.35.35 0 00.207 0l1.43 2.807a23.747 23.747 0 00-2.551-.803zm-1.871-3.72l-1.409-2.812a20.43 20.43 0 012.27.829.345.345 0 00.207 0l1.435 2.811a23.423 23.423 0 00-2.514-.797zm-1.866-3.721l-1.43-2.78a20.345 20.345 0 012.222.797.367.367 0 00.213 0l1.43 2.807a25.57 25.57 0 00-2.445-.798zm-1.876-3.72l-1.408-2.807a20.244 20.244 0 012.184.776.367.367 0 00.213 0l1.43 2.806a24.369 24.369 0 00-2.43-.765zm-1.87-3.721l-1.404-2.806a21.382 21.382 0 012.126.754.35.35 0 00.207 0l1.43 2.807a32.894 32.894 0 00-2.37-.755zm-1.866-3.72l-1.414-2.817a18.868 18.868 0 012.126.728.35.35 0 00.207 0l1.435 2.811c-.616-.19-1.408-.457-2.365-.717zm-1.871-3.72l-1.425-2.834a19.208 19.208 0 012.073.723.367.367 0 00.213 0l1.435 2.817a41.126 41.126 0 00-2.307-.712zM91.1 73.81l-1.413-2.822a19.575 19.575 0 012.03.706.367.367 0 00.212 0l1.435 2.817c-.558-.228-1.328-.473-2.274-.733zm-1.865-3.72l-1.414-2.818c1.222.367 1.961.66 1.982.67a.415.415 0 00.213 0l1.446 2.833a27.662 27.662 0 00-2.238-.718zm-1.892-3.78l-1.409-2.81c1.207.361 1.935.648 1.961.659a.356.356 0 00.197 0l1.446 2.833c-.473-.15-1.228-.41-2.195-.68zm-1.876-3.72l-3.657-7.281a17.364 17.364 0 012.083 1.132.367.367 0 00.277.058l3.454 6.782c-.467-.197-1.211-.446-2.157-.69zm-.298-.085a43.39 43.39 0 00-2.02-.5l-3.81-7.696c.813.282 1.53.574 2.125.85zm-2.301-.531a33.37 33.37 0 00-1.935-.357l-3.901-7.972a27.13 27.13 0 012.004.569zm-2.206-.4c-.617-.09-1.254-.17-1.908-.228l-3.933-8.12q1.015.148 1.93.366zm-2.169-.249a28.29 28.29 0 00-2.035-.09l-3.997-8.318a24.46 24.46 0 012.067.213zm.388.803l1.43 2.95a28.62 28.62 0 00-2.046-.086L76.83 62c.696-.032 1.382.01 2.051.059zM80.7 65.88l1.43 2.955a28.68 28.68 0 00-2.052-.085l-1.44-2.992c.696-.037 1.387.021 2.062.069zm1.818 3.758l1.43 2.955a32.645 32.645 0 00-2.063-.08l-1.435-2.992c.697-.022 1.393.005 2.068.064zm1.807 3.72l1.44 2.971a37.419 37.419 0 00-2.067-.074L82.25 73.22c.702 0 1.398.042 2.073.1zm1.818 3.752l1.435 2.966a29.58 29.58 0 00-2.073-.069l-1.446-2.998c.707-.026 1.403.011 2.084.064zm1.807 3.72l1.44 2.972a33.564 33.564 0 00-2.078-.059l-1.446-3.008c.707-.005 1.403.027 2.084.08zm1.823 3.764l1.43 2.955a33.71 33.71 0 00-2.084-.048l-1.44-2.998c.728-.005 1.408.022 2.094.075zm1.801 3.72l1.44 2.976a33.901 33.901 0 00-2.088-.042l-1.456-3.019c.722.005 1.424.027 2.126.075zm1.818 3.747l1.435 2.971A34.348 34.348 0 0092.732 95l-1.446-3.003a30.45 30.45 0 012.105.054zm1.807 3.72l1.435 2.966a25.76 25.76 0 00-2.126 0l-1.445-2.997c.733-.016 1.435 0 2.136.037zm1.807 3.721l1.446 2.987h-2.1l-1.456-3.03c.707.016 1.414.027 2.11.064zm1.813 3.747l6.415 13.255h-2.126l-6.378-13.287c.712.016 1.392.027 2.089.053zm4.384 13.994l1.063 2.243c-.675.106-1.36.223-2.057.345l-1.094-2.498a30.644 30.644 0 012.088-.069zm-1.206 2.631a77.94 77.94 0 00-1.988.388l-1.244-2.838a56.232 56.232 0 012.126-.128zm-2.216.43c-.649.139-1.308.282-1.967.436l-1.36-3.104c.696-.08 1.387-.143 2.072-.196zm-2.19.49a85.04 85.04 0 00-1.945.488l-1.462-3.332c.68-.106 1.36-.202 2.036-.282zm-2.169.53a67.27 67.27 0 00-5.25 1.638c-3.482 1.254-7.75 3.098-12.193 5.166l-1.903-3.885c3.768-1.733 7.335-3.258 10.354-4.342a42.466 42.466 0 017.525-1.914zm-17.65 6.91l-2.126.984-1.908-3.902 2.126-.983zm-4.343-3.593l-6.346-12.952a91.47 91.47 0 012.126-1l6.33 13.022c-.696.293-1.403.622-2.11.957zm-5.315-14.35c-.467.218-.93.441-1.387.665l-1.408-2.881c.696-.34 1.398-.68 2.126-1.015l1.413 2.896zm-3.13-2.891l-1.409-2.87a97.91 97.91 0 012.126-1.037l1.414 2.892a66.02 66.02 0 01-2.126 1.063zm-1.738-3.545l-1.414-2.844c.691-.35 1.398-.701 2.126-1.063l1.42 2.902c-.724.362-1.42.702-2.127 1.053zm-1.743-3.53l-1.42-2.89a72.047 72.047 0 012.127-1.063l1.424 2.912c-.739.35-1.435.702-2.131 1.042zm-1.749-3.565l-1.419-2.897L60.46 92.8l1.424 2.912c-.728.362-1.435.702-2.13 1.058zm-1.749-3.572l-1.419-2.897q1.063-.531 2.126-1.095l1.425 2.913c-.734.367-1.435.728-2.132 1.09zm-1.748-3.572L54.83 86.72q1.063-.564 2.126-1.116l1.425 2.917q-1.09.553-2.126 1.106zm-1.754-3.571l-1.42-2.902a60.87 60.87 0 012.127-1.132l1.424 2.918a96.38 96.38 0 00-2.131 1.126zm-1.754-3.577l-1.419-2.87q1.036-.585 2.094-1.148l1.43 2.918c-.712.356-1.409.733-2.105 1.11zm-1.754-3.577l-1.424-2.918q1.036-.58 2.094-1.159l1.43 2.929c-.707.388-1.404.792-2.1 1.158zm-1.76-3.593l-1.418-2.891q1.063-.596 2.094-1.18l1.424 2.912q-1.057.585-2.1 1.17zm-1.753-3.556l-4.204-8.578q1.063-.569 2.126-1.132l4.204 8.53q-1.063.58-2.126 1.18zm-.197.112l-2.078 1.212-4.252-8.626q1.063-.58 2.126-1.164zm-2.27 1.329c-.7.414-1.386.834-2.061 1.249l-4.273-8.653c.68-.393 1.376-.797 2.094-1.201zm-2.253 1.366a156.4 156.4 0 00-2.046 1.28L36.4 67.108c.67-.41 1.366-.819 2.079-1.239zm-2.237 1.403c-.696.44-1.377.882-2.036 1.312l-4.347-8.77q.999-.62 2.062-1.27zm.335.68l1.403 2.838-2.03 1.297-1.404-2.828q.994-.643 2.036-1.307zm1.738 3.518l1.413 2.86c-.69.43-1.37.856-2.03 1.275l-1.408-2.838c.659-.43 1.339-.86 2.03-1.318zm1.748 3.535l1.414 2.849c-.696.425-1.377.85-2.036 1.265l-1.408-2.833c.664-.42 1.345-.85 2.036-1.281zm1.749 3.524l1.408 2.848c-.696.42-1.376.84-2.04 1.25l-1.404-2.833c.665-.415 1.345-.84 2.041-1.265zm1.743 3.523l1.409 2.85q-1.063.621-2.041 1.238L45.8 91.987c.665-.415 1.345-.83 2.041-1.228zm1.743 3.524l1.409 2.849q-1.063.611-2.041 1.222l-1.409-2.832c.665-.41 1.35-.824 2.068-1.239zm1.744 3.524l1.408 2.843q-1.063.606-2.046 1.207l-1.403-2.828q.994-.606 2.046-1.222zm1.738 3.518l1.408 2.844c-.701.398-1.382.802-2.046 1.196l-1.403-2.833q1.004-.585 2.046-1.207zm1.743 3.519l1.403 2.838c-.696.399-1.382.792-2.04 1.185l-1.41-2.827q1.005-.596 2.052-1.196zm1.738 3.513l1.403 2.828a146.3 146.3 0 00-2.046 1.169l-1.398-2.817c.664-.388 1.35-.781 2.046-1.18zm1.733 3.503l1.43 2.843q-1.064.58-2.047 1.159l-1.398-2.823a56.68 56.68 0 012.02-1.18zm1.748 3.534l6.314 12.756-2.083 1.063-6.277-12.65q1.004-.59 2.051-1.17zm4.364 14.579l1.929 3.88-1.828.93-1.84-3.917zm-.107 4.91a617.417 617.417 0 00-7.696 3.987l-1.823-3.885c2.376-1.265 4.975-2.658 7.68-4.018zm-7.573 4.784l2.014 4.294c-.489.42-.866.755-1.116.978l-2.27-4.55zm.196-.106l1.627-.85 1.812 3.853-1.446 1.243zm12.81-.978c4.698-2.35 14.19-7.048 21.897-10.524l.648 1.478a389.668 389.668 0 00-7.935 3.603c-7.441 3.45-16.476 8.074-24.348 12.225a214.876 214.876 0 019.743-6.793zm22.104-10.63l1.669-.744.648 1.483-1.669.739zm1.876-.834a92.75 92.75 0 011.674-.729l.649 1.489-1.675.722zm1.881-.819c.585-.25 1.148-.484 1.685-.701l.643 1.472-1.68.717zm1.893-.787c.659-.27 1.275-.531 1.844-.722l.627 1.424-1.828.765zm2.056-.802l.367-.138 1.499-.532.585 1.345-1.829.75zm2.079-.75l1.87-.664.532 1.26-1.84.739zm2.083-.738l2.025-.707.563 1.17-2.04.791zm2.238-.782l1.85-.643.53 1.122-1.828.685zm2.067-.717l1.855-.633.531 1.09c-.574.197-1.185.415-1.85.66zm2.068-.702l1.785-.605.532 1.062a92.62 92.62 0 00-1.786.606zm2.003-.675l1.818-.605.569 1.126c-.532.154-1.132.34-1.845.569zm1.813-1.121l1.063-.064-.941.308zm.223.446l1.52-.494v-.053h.08l.643 1.249c-.346.08-.893.213-1.659.43zm-.59-1.18l-.319-.627c1.249.15 2.36.314 3.311.468-.866.037-1.87.09-2.987.165zM72.87 34.295l3.923 7.7c-.532-.387-1.377-.935-2.419-1.535l-3.864-7.712a44.462 44.462 0 012.36 1.547zm-2.721-1.76l3.875 7.734a36.312 36.312 0 00-2.206-1.143l-3.853-7.776q1.148.574 2.184 1.185zm-2.52-1.366l3.865 7.792a38.428 38.428 0 00-2.068-.877l-3.848-7.845a38.9 38.9 0 012.052.93zm-2.364-1.063l3.853 7.861a29.392 29.392 0 00-1.967-.654l-3.837-7.93c.67.256 1.318.474 1.95.729zm-2.249-.818l3.838 7.935a26.64 26.64 0 00-2.18-.531l-3.863-8.031a38.14 38.14 0 012.205.632zm-18.549.25a27.845 27.845 0 0116.062-.941l3.875 8.047a22.69 22.69 0 00-6.952-.26l7.217 17.31a25.076 25.076 0 017.558-.792l3.981 8.275a22.243 22.243 0 00-4.603.441c-1.063.224-2.179.5-3.29.814l.293.696a48.27 48.27 0 013.146-.77 21.504 21.504 0 014.82-.415l1.441 2.987a23.386 23.386 0 00-4.512.425 51.305 51.305 0 00-3.61.866l.293.702a49.86 49.86 0 013.466-.83 22.663 22.663 0 014.73-.398l1.445 2.998a24.14 24.14 0 00-4.422.403 48.493 48.493 0 00-3.922.925l.287.702q1.913-.532 3.774-.888a23.242 23.242 0 014.65-.377l1.44 2.998a25.023 25.023 0 00-4.331.377 51.27 51.27 0 00-4.252.983l.292.696a50.008 50.008 0 014.087-.935 24.502 24.502 0 014.555-.372l1.451 3.008a26.112 26.112 0 00-4.252.362 51.76 51.76 0 00-4.565 1.025l.292.702a49.866 49.866 0 014.4-.983 25.134 25.134 0 014.476-.351l1.446 2.997a27.01 27.01 0 00-4.151.351 53.798 53.798 0 00-4.885 1.063l.293.702c1.594-.42 3.189-.77 4.72-1.031a26.792 26.792 0 014.379-.34l1.45 3.013a28.238 28.238 0 00-4.055.324 53.064 53.064 0 00-5.208 1.111l.292.702a51.023 51.023 0 015.033-1.063 27.887 27.887 0 014.305-.314l1.44 3.003a29.083 29.083 0 00-3.959.308 54.557 54.557 0 00-5.517 1.148l.293.702a52.41 52.41 0 015.357-1.1 30.167 30.167 0 014.21-.314l1.445 3.014a31.756 31.756 0 00-3.87.292 54.005 54.005 0 00-5.845 1.18l.292.701a52.798 52.798 0 015.676-1.132 30.933 30.933 0 014.124-.292l1.446 3.003a34.074 34.074 0 00-3.773.282 55.806 55.806 0 00-6.198 1.2l.293.702a54.541 54.541 0 016.006-1.158 36.205 36.205 0 014.034-.282l1.44 3.003a39.054 39.054 0 00-3.673.271 56.806 56.806 0 00-6.537 1.217l.298.702a55.222 55.222 0 016.33-1.17 38.023 38.023 0 013.943-.276l1.457 3.035a52.745 52.745 0 00-10.45 1.493l.298.713a51.496 51.496 0 0110.508-1.473l6.378 13.261c-5.347.064-11.247.744-16.668 2.695-3.04 1.1-6.633 2.657-10.433 4.38l-6.335-12.97a105.48 105.48 0 018.913-3.624l-.351-.707a105.288 105.288 0 00-8.908 3.62l-1.419-2.897a109.441 109.441 0 018.87-3.689l-.334-.675a109.64 109.64 0 00-8.866 3.689l-1.408-2.891c2.838-1.35 5.804-2.626 8.823-3.72l-.335-.681a111.697 111.697 0 00-8.817 3.747l-1.425-2.907a113.045 113.045 0 018.786-3.8l-.335-.68a112.96 112.96 0 00-8.78 3.805l-1.42-2.908a108.59 108.59 0 018.744-3.858l-.335-.68a112.406 112.406 0 00-8.738 3.863l-1.424-2.912c2.811-1.403 5.734-2.743 8.7-3.917l-.33-.675a112.86 112.86 0 00-8.7 3.917l-1.424-2.918a114.31 114.31 0 018.663-3.97l-.335-.675c-2.95 1.196-5.846 2.55-8.658 3.975l-1.424-2.918c2.79-1.44 5.687-2.816 8.62-4.028l-.334-.675a111.826 111.826 0 00-8.616 4.028l-1.424-2.917a112.332 112.332 0 018.578-4.088l-.335-.675c-2.912 1.239-5.798 2.658-8.573 4.088l-1.43-2.924a117.12 117.12 0 018.542-4.14l-.335-.675a114.86 114.86 0 00-8.536 4.14l-1.435-2.933a116.821 116.821 0 018.504-4.194l-.33-.675c-2.88 1.27-5.74 2.705-8.503 4.194l-1.425-2.913c2.748-1.51 5.597-2.96 8.461-4.252l-.334-.675a122.015 122.015 0 00-8.456 4.252l-4.162-8.504a155.704 155.704 0 018.504-4.108l-8.605-17.486a130.548 130.548 0 00-8.461 4.05L32.53 35.15a85.432 85.432 0 0111.937-5.607zm-12.155 5.67l4.54 9.275q-1.09.574-2.127 1.148l-4.512-9.205a58.46 58.46 0 012.1-1.212zm-2.333 1.34l4.512 9.2c-.722.393-1.435.792-2.126 1.185l-4.49-9.13a56.27 56.27 0 012.104-1.255zm-2.307 1.371l4.486 9.126-2.126 1.212-4.464-9.036a75.805 75.805 0 012.104-1.312zm-2.285 1.414l4.46 9.035q-1.064.633-2.127 1.25l-4.432-8.967q1.047-.675 2.099-1.329zm-2.27 1.467l4.433 8.956-2.089 1.275-4.406-8.87q1.02-.713 2.063-1.361zM1.243 57.025a237.257 237.257 0 0119.665-14.77l4.4 8.87a206.903 206.903 0 00-6.234 4.035l7.924 18.124c1.871-1.33 4.22-2.918 6.995-4.667l4.353 8.77c-7.048 4.618-11.89 8.424-12.001 8.504a.377.377 0 00.234.67.377.377 0 00.175-.054c.112-.085 4.9-3.853 11.868-8.424l1.403 2.822c-7.069 4.582-11.916 8.371-12.027 8.456a.377.377 0 00-.059.532.367.367 0 00.293.143.377.377 0 00.233-.08c.112-.09 4.906-3.832 11.895-8.37l1.414 2.838c-7.096 4.539-11.953 8.302-12.06 8.387a.372.372 0 00-.069.531.377.377 0 00.532.07c.106-.086 4.91-3.806 11.932-8.303l1.403 2.833c-7.117 4.497-11.975 8.233-12.086 8.318a.383.383 0 00-.07.531.377.377 0 00.298.144.383.383 0 00.234-.074c.106-.085 4.916-3.785 11.964-8.244l1.403 2.833c-7.143 4.46-12.006 8.174-12.118 8.26a.383.383 0 00-.069.53.377.377 0 00.298.144.393.393 0 00.228-.074c.112-.085 4.927-3.763 11.996-8.185l1.408 2.833c-7.17 4.422-12.038 8.116-12.15 8.2a.372.372 0 00-.069.532.383.383 0 00.298.149.372.372 0 00.229-.08c.111-.08 4.932-3.72 12.027-8.12l1.403 2.832c-7.19 4.385-12.064 8.057-12.176 8.137a.377.377 0 00.228.68.372.372 0 00.229-.08c.112-.079 4.932-3.72 12.054-8.062l1.409 2.828c-7.223 4.347-12.097 7.998-12.225 8.083a.377.377 0 10.452.601c.112-.08 4.938-3.72 12.086-8.01l1.403 2.828c-7.244 4.316-12.123 7.946-12.224 8.03a.372.372 0 00-.074.532.377.377 0 00.531.075c.106-.08 4.938-3.678 12.113-7.973l1.403 2.828c-7.266 4.252-12.145 7.893-12.256 7.972a.383.383 0 00-.075.532.372.372 0 00.298.149.367.367 0 00.229-.075c.106-.08 4.942-3.662 12.139-7.903l1.398 2.817c-7.287 4.252-12.166 7.85-12.278 7.93a.377.377 0 00-.074.531.361.361 0 00.297.154.404.404 0 00.229-.074c.106-.08 4.943-3.651 12.16-7.86l1.398 2.816a143.151 143.151 0 00-12.298 7.887.377.377 0 00.223.68.404.404 0 00.228-.074 141.222 141.222 0 0112.193-7.797l6.277 12.64c-10.194 5.17-19.41 10.31-21.292 11.362zm42.827 83.768l-.33.17.33-.18zM4.032 64.355l.6 1.2-.303.17.09.208.314-.17.426.85-.351.192.095.207.357-.191.425.855-.394.213.09.207.4-.218.425.856-.436.234.095.207.442-.239.425.856-.479.26.09.207.49-.265.425.855-.532.282.096.207.532-.287.425.856-.569.308.09.208.58-.309.425.856-.617.324.09.208.628-.33.425.856-.659.35.09.208.67-.356.43.855-.712.372.09.208.718-.378.43.861-.754.394.09.207.76-.399.431.856-.803.415.09.207.814-.42.425.861-.85.436.095.207.856-.441.425.856-.893.457.09.207.904-.462.426.86-.941.479.095.207.947-.483.425.855-.984.5.09.207.995-.505.425.861-1.031.532.095.207 1.063-.531.426.855-1.063.532.09.207 1.063-.531.43.86-1.126.564.09.207 1.138-.568.425.855-1.17.585.09.207 1.18-.585.426.856-1.217.606.09.207 1.228-.61.425.86-1.26.622.091.207 1.27-.627.425.861-1.307.643.09.208 1.318-.649.431.856-1.36.664.095.207 1.366-.67.425.862-1.403.685.09.208 1.414-.691.425.86-1.45.702.095.208 1.456-.707.426.855-1.494.729.09.207 1.505-.734.43.861-1.546.744.095.208 1.552-.75.425.861-1.594.766.09.207 1.595-.77.425.86-1.658.771.09.207 1.648-.786.425.86-1.632.83.09.207 1.69-.808.431.861-1.759.803.09.207 1.744-.824.425.856-1.775.824.09.207 1.786-.85.425.86-1.823.862.09.207 1.834-.866.43.86-1.875.883.095.207 1.882-.887.425.86-1.919.899.09.207 1.93-.903.425.86-1.966.92.095.207 1.972-.924.49.983-2.015.946.09.207 2.025-.951.49.988-2.068.973.095.207 2.073-.978.49.984-2.127.999.09.207 2.126-1.004.49.983-2.164 1.03.09.208 2.174-1.036.49.988-2.217 1.063.09.208 2.227-1.063.49.983-2.265 1.063.09.207 2.275-1.09.49.984-2.318 1.11.096.208 2.322-1.116.49.983-2.366 1.143.09.207 2.376-1.148.49.983-2.419 1.17.096.207 2.423-1.175.484.984-2.45 1.222.09.202 2.472-1.201.489.983-2.514 1.228.095.207 2.52-1.233.489.983-2.562 1.26.09.202 2.573-1.26.489.983-2.61 1.287.09.207 2.62-1.292.49.984-2.658 1.312.09.208 2.658-1.318.484.983-2.706 1.345.09.207 2.717-1.35.489.983-2.759 1.371.09.208 2.77-1.377.489.983-2.796 1.409.09.202 2.817-1.403.484.983-2.854 1.43.095.207 2.86-1.435.489.978-2.902 1.461.09.208 2.913-1.467.489.983-2.955 1.493.095.208 2.96-1.499.49.983-3.003 1.52.09.208 3.009-1.526.489.983-3.051 1.552.095.208 3.057-1.558.489.978-3.1 1.595.091.207 3.11-1.594.483.983-3.146 1.594.095.208 3.152-1.595.49.978-3.19 1.648.09.207 3.19-1.648.489.978-3.248 1.675.096.207 3.247-1.68.49.978-3.29 1.706.09.208 3.3-1.706.49.977-3.344 1.738.096.208 3.348-1.744.484.978-3.386 1.77.09.207 3.397-1.77.489.979-3.439 1.796.096.207 3.444-1.801.483.977-3.47 1.84.09.207 3.492-1.84.33.66a.372.372 0 00.223.196h.181l-3.78 1.994.096.207 5.15-2.716.447 1-5.15 2.72.09.208 5.15-2.722.155.356a.399.399 0 00.228.208.441.441 0 00.117 0 .372.372 0 00.186-.048l1.302-.733.144.302-6.835 3.63.09.203 6.84-3.625.457.988-6.845 3.646.09.208 6.867-3.657.462.989-6.866 3.667.09.207 6.872-3.667.107.228a.377.377 0 00.531.176l4.544-2.36.176.324-11.762 6.304.09.207 11.778-6.309.531.946-11.868 6.4.09.207 11.864-6.378.531.946-11.953 6.41.096.207 11.942-6.442.532.952-12.039 6.494.09.208 12.023-6.506.377.702a1062.86 1062.86 0 00-14.653 7.972l-.324-.77 1.01-.532-.09-.207-1.01.531-.436-1.02 1.01-.532-.09-.207-1.01.531-.431-1.02 1-.532-.091-.207-1 .532-.435-1.015.994-.532-.09-.207-.99.531-.435-1.015.988-.531-.09-.208-.989.532-.43-1.02.978-.532-.09-.207-.979.531-.435-1.02.978-.532-.09-.207-.979.531-.43-1.015.967-.531-.09-.208-.968.532-.435-1.015.961-.505-.09-.213-.957.532-.435-1.02.956-.5-.09-.208-.957.5-.43-1.02.946-.495-.09-.207-.947.494-.436-1.015.946-.494-.09-.207-.946.489-.43-1.016.935-.489-.09-.207-.936.49-.436-1.021.93-.484-.09-.207-.925.483-.436-1.02.925-.473-.09-.207-.925.473-.43-1.016.914-.473-.09-.207-.915.468-.436-1.015.914-.468-.09-.207-.914.467-.43-1.02.903-.462-.09-.208-.904.463-.436-1.02.898-.458-.09-.207-.893.457-.436-1.015.893-.452-.09-.207-.893.446-.43-1.015.882-.446-.09-.208-.883.447-.436-1.02.877-.442-.085-.207-.882.441-.43-1.02.871-.436-.09-.208-.872.436-.436-1.015.867-.436-.09-.207-.862.43-.436-1.015.861-.43-.09-.207-.861.43-.43-1.02.85-.42-.09-.207-.85.42-.437-1.016.845-.42-.09-.207-.845.415-.43-1.015.84-.415-.091-.207-.84.414-.436-1.02.835-.41-.09-.207-.83.41-.436-1.021.83-.404-.091-.207-.83.404-.435-1.02.824-.4-.09-.207-.819.399-.436-1.015.813-.393-.09-.208-.813.394-.43-1.02.807-.389-.09-.207-.808.388-.436-1.02.803-.383-.09-.208-.798.383-.436-1.015.792-.383-.09-.207-.792.377-.43-1.015.786-.377-.09-.207-.787.377-.436-1.02.781-.373-.09-.207-.781.372-.43-1.02.775-.362-.09-.212-.776.366-.436-1.015.77-.361-.09-.207-.765.356-.436-1.015.76-.357-.09-.207-.76.356-.43-1.02.754-.35-.09-.208-.755.35-.378-.876.75-.351-.09-.207-.745.35-.377-.882.744-.345-.09-.208-.744.346-.372-.877.733-.346-.09-.207-.734.346-.372-.883.728-.34-.09-.207-.728.34-.372-.877.717-.345-.09-.208-.718.346-.388-.893.718-.346-.09-.207-.713.34-.377-.877.707-.34-.09-.207-.702.34-.378-.877.702-.34-.09-.207-.702.34L15.64 96l.691-.335-.085-.208-.696.335-.372-.877.685-.335-.09-.207-.686.335-.372-.882.68-.33-.09-.207-.68.33-.378-.878.675-.329-.09-.207-.67.33-.377-.878.67-.33-.09-.207-.67.325-.372-.877.675-.34-.09-.208-.66.324-.372-.876.654-.325-.09-.207-.654.319-.372-.877.643-.319-.09-.207-.644.319-.377-.877.643-.32-.09-.206-.638.318-.378-.882.633-.319-.09-.207-.633.319-.372-.877.627-.319-.09-.207-.627.319-.372-.883.621-.313-.09-.207-.622.313-.372-.877.611-.313-.09-.208-.611.314-.377-.882.61-.309-.09-.207-.605.308-.378-.877.6-.308-.09-.207-.595.308-.377-.877.595-.308-.09-.207-.596.303-.372-.877.585-.303-.09-.208-.585.303-.372-.877.58-.303-.091-.207-.58.303-.371-.882.568-.298-.09-.207-.569.297-.377-.876.569-.298-.09-.207-.564.297-.393-.85.531-.298-.09-.207-.532.292-.377-.877.531-.292-.09-.207-.532.292-.372-.877.532-.292-.09-.213-.532.292-.372-.876.532-.293-.09-.207-.532.292-.378-.877.532-.292-.09-.207-.532.292-.377-.882.531-.287-.09-.208-.532.287-.377-.877.531-.287-.09-.207-.531.287-.372-.877.531-.287-.09-.207-.532.282-.531-1.212zm-2.344 4.119a5.846 5.846 0 01.308-2.562l.532 1.244a8.169 8.169 0 00-.298 2.583zm.792 1.86a10.008 10.008 0 01.186-2.849l.319.755a8.041 8.041 0 00-.303 2.562zm.452 1.063a9.726 9.726 0 01.196-2.828l.32.755a7.972 7.972 0 00-.314 2.54zm.451 1.063a9.62 9.62 0 01.202-2.806l.314.749a7.733 7.733 0 00-.324 2.52zm.452 1.063a9.328 9.328 0 01.213-2.785l.324.76A7.67 7.67 0 004.037 74zm.447 1.063a9.243 9.243 0 01.223-2.764l.33.765a7.717 7.717 0 00-.346 2.482zm.451 1.063a9.163 9.163 0 01.234-2.743l.324.766a7.67 7.67 0 00-.35 2.466zm.452 1.063a8.87 8.87 0 01.245-2.716l.324.765a7.44 7.44 0 00-.356 2.44zm.452 1.063a8.764 8.764 0 01.25-2.695l.33.765a7.228 7.228 0 00-.367 2.424zm.452 1.063a8.504 8.504 0 01.26-2.658l.33.77a7.303 7.303 0 00-.378 2.403zM6.54 79.9a8.45 8.45 0 01.272-2.658l.329.77a7.25 7.25 0 00-.388 2.387zm.447 1.063a8.387 8.387 0 01.282-2.631l.35.733a7.164 7.164 0 00-.393 2.365zm.452 1.063a8.116 8.116 0 01.292-2.605l.33.771a7.164 7.164 0 00-.404 2.35zm.451 1.063a7.909 7.909 0 01.303-2.583l.33.776a7.053 7.053 0 00-.41 2.327zm.452 1.063a7.972 7.972 0 01.308-2.562l.335.781a6.872 6.872 0 00-.42 2.307zm.452 1.063a7.818 7.818 0 01.319-2.546l.335.781a6.91 6.91 0 00-.43 2.29zm.452 1.063a7.579 7.579 0 01.33-2.52l.329.782a7.058 7.058 0 00-.436 2.269zm.452 1.063a7.515 7.515 0 01.334-2.498l.335.78a6.91 6.91 0 00-.441 2.254zm.446 1.062a7.59 7.59 0 01.35-2.47l.336.78a6.729 6.729 0 00-.452 2.233zm.452 1.063a7.44 7.44 0 01.361-2.45l.335.787a6.835 6.835 0 00-.462 2.21zm.451 1.063a7.26 7.26 0 01.373-2.428l.334.786a6.84 6.84 0 00-.473 2.195zm.452 1.063a7.186 7.186 0 01.383-2.402l.335.787a6.638 6.638 0 00-.479 2.173zm.452 1.063a7.111 7.111 0 01.388-2.375l.335.786a6.74 6.74 0 00-.484 2.153zm.452 1.063a6.963 6.963 0 01.398-2.36l.335.787a6.76 6.76 0 00-.494 2.126zm.452 1.063a6.91 6.91 0 01.409-2.333l.335.787a6.755 6.755 0 00-.532 2.126zm.446 1.063a6.91 6.91 0 01.425-2.312l.335.787a6.792 6.792 0 00-.531 2.126zm.452 1.063a6.766 6.766 0 01.436-2.285l.334.787a6.766 6.766 0 00-.531 2.083zm.452 1.063a6.872 6.872 0 01.44-2.264l.34.792a6.782 6.782 0 00-.53 2.062zm.451 1.063a6.713 6.713 0 01.452-2.237l.34.786a6.686 6.686 0 00-.531 2.047zm.452 1.063a6.745 6.745 0 01.462-2.221l.335.792a6.994 6.994 0 00-.531 2.03zm.452 1.063a6.74 6.74 0 01.473-2.195l.335.792a6.835 6.835 0 00-.532 2.01zm.452 1.063a6.649 6.649 0 01.483-2.174l.335.792a6.91 6.91 0 00-.531 1.993zm.451 1.063a6.612 6.612 0 01.49-2.152l.34.792a7.122 7.122 0 00-.57 1.977zm.452 1.063a6.644 6.644 0 01.5-2.126l.34.797a7.016 7.016 0 00-.574 1.956zm.452 1.063a6.548 6.548 0 01.531-2.126l.34.803a7.467 7.467 0 00-.584 1.929zm.452 1.063a6.575 6.575 0 01.531-2.078l.34.803a7.287 7.287 0 00-.59 1.913zm.451 1.063a6.638 6.638 0 01.532-2.057l.34.797-.048.112a7.44 7.44 0 00-.531 1.786zm.5 1.18a7.149 7.149 0 01.494-2.126l.399.93a7.154 7.154 0 00-.532 2.01zm.532 1.228a7.212 7.212 0 01.494-2.153l.398.936a7.44 7.44 0 00-.558 2.009zm.531 1.227a7.212 7.212 0 01.494-2.152l.399.935a7.202 7.202 0 00-.532 2.01zm.531 1.234a7.239 7.239 0 01.495-2.158l.398.935a7.44 7.44 0 00-.558 2.01zm.532 1.227a7.239 7.239 0 01.494-2.158l.399.936a7.202 7.202 0 00-.532 2.009zm.531 1.228a7.08 7.08 0 01.495-2.158l.398.936a7.44 7.44 0 00-.558 2.009zm.532 1.228a7.239 7.239 0 01.494-2.158l.399.935a7.186 7.186 0 00-.532 2.015zm.531 1.227a7.08 7.08 0 01.495-2.157l.398.935a7.404 7.404 0 00-.558 2.014zm.532 1.228a7.276 7.276 0 01.494-2.158l.399.936a7.186 7.186 0 00-.532 2.014zm.531 1.233a7.138 7.138 0 01.495-2.163l.398.936a7.44 7.44 0 00-.558 2.014zm.532 1.228a7.303 7.303 0 01.494-2.163l.399.935a7.234 7.234 0 00-.532 2.015zm.531 1.228a7.138 7.138 0 01.495-2.163l.398.935a7.265 7.265 0 00-.558 2.014zm.532 1.228a7.138 7.138 0 01.489-2.164l.398.936a7.234 7.234 0 00-.531 2.014zm.531 1.227a7.17 7.17 0 01.495-2.163l.398.936a7.069 7.069 0 00-.558 2.02zm.532 1.233a6.978 6.978 0 01.489-2.168l.398.935a7.212 7.212 0 00-.531 2.02zm.531 1.228a7.164 7.164 0 01.495-2.168l.398.93a7.143 7.143 0 00-.558 2.025zm.532 1.228a6.978 6.978 0 01.489-2.169l.398.93a7.292 7.292 0 00-.531 2.025zm.531 1.228a7.361 7.361 0 01.49-2.174l.403.935a7.186 7.186 0 00-.531 2.025zm.532 1.227a7.042 7.042 0 01.489-2.168l.398.93a7.34 7.34 0 00-.531 2.025zm.531 1.233a7.292 7.292 0 01.495-2.179l.393.936a7.34 7.34 0 00-.532 2.025zm.532 1.228a7.095 7.095 0 01.489-2.179l.398.935a7.34 7.34 0 00-.531 2.025zm.531 1.228a7.44 7.44 0 01.49-2.18l.398.936a7.366 7.366 0 00-.532 2.03zm.532 1.228a7.127 7.127 0 01.489-2.18l.398.936a7.366 7.366 0 00-.531 2.03zm.531 1.227a7.287 7.287 0 01.49-2.179l.398.936a7.366 7.366 0 00-.532 2.03zm.532 1.233a7.122 7.122 0 01.489-2.184l.398.935a7.44 7.44 0 00-.531 2.03zm.531 1.228a7.281 7.281 0 01.49-2.184l.398.935a7.44 7.44 0 00-.532 2.03zm.532 1.228a7.154 7.154 0 01.489-2.185l.398.936a7.44 7.44 0 00-.531 2.03zm.531 1.228a7.319 7.319 0 01.49-2.185l.398.936a7.398 7.398 0 00-.532 2.035zm.532 1.227a7.186 7.186 0 01.489-2.184l.398.935a7.212 7.212 0 00-.531 2.036zm.531 1.233a7.345 7.345 0 01.49-2.19l.398.936a7.398 7.398 0 00-.532 2.036zm.532 1.228a7.18 7.18 0 01.489-2.19l.398.936a7.212 7.212 0 00-.531 2.035zm.531 1.228a7.18 7.18 0 01.484-2.19l.398.936a7.398 7.398 0 00-.531 2.035zm.532 1.228a7.212 7.212 0 01.489-2.19l.398.93a7.292 7.292 0 00-.531 2.04zm.531 1.227a7.18 7.18 0 01.484-2.19l.398.93a7.526 7.526 0 00-.531 2.042zm.532 1.228a7.058 7.058 0 01.489-2.19l.398.93a7.143 7.143 0 00-.531 2.047zm.531 1.233a7.234 7.234 0 01.484-2.2l.398.935a7.51 7.51 0 00-.531 2.046zm.532 1.228a7.143 7.143 0 01.489-2.2l.398.935a7.143 7.143 0 00-.531 2.046zm.531 1.228a7.265 7.265 0 01.484-2.2l.398.935a7.51 7.51 0 00-.531 2.046zm.532 1.227a7.143 7.143 0 01.489-2.2l.398.935a7.143 7.143 0 00-.531 2.047zm.531 1.228a7.297 7.297 0 01.484-2.2l.398.935a7.51 7.51 0 00-.531 2.046zm.856 2.01l-.335-.777a7.202 7.202 0 01.489-2.206l.324.766a.43.43 0 00.09.127 7.382 7.382 0 00-.882 1.93zm.26.61l-.069-.16v-.722a.218.218 0 000-.058.4.4 0 01.037-.202.266.266 0 010-.064c0-.07 0-.138.043-.207v-.075c0-.069.032-.143.053-.218v-.08l.064-.212-.17-.064c0-.069.048-.143.074-.212l.032-.107c.027-.069.059-.138.085-.212l.048-.112v-.037h.048a.388.388 0 00.186-.048l.983-.531a7.303 7.303 0 00-.478 2.482zm1.488-.845a7.042 7.042 0 01.558-2.519l1.26-.696a7.388 7.388 0 00-.489 2.46zm1.563-.887a7.058 7.058 0 01.569-2.504l1.26-.69a7.404 7.404 0 00-.5 2.444zm1.563-.883a7.191 7.191 0 01.579-2.487l1.26-.686a7.265 7.265 0 00-.532 2.424zm1.567-.882a7.25 7.25 0 01.585-2.46l1.254-.686a7.372 7.372 0 00-.531 2.402zm1.563-.877a7.228 7.228 0 01.595-2.44l1.25-.68a7.34 7.34 0 00-.532 2.381zm1.568-.871a7.308 7.308 0 01.59-2.419l1.249-.675a7.44 7.44 0 00-.532 2.355zm1.562-.872a7.313 7.313 0 01.596-2.397l1.243-.67a7.366 7.366 0 00-.531 2.333zm1.563-.866a7.398 7.398 0 01.276-2.52l1.244-.67a7.505 7.505 0 00-.531 2.313zm1.595-.861a7.313 7.313 0 01.584-2.35l1.25-.664a7.5 7.5 0 00-.532 2.285zm1.562-.856a7.382 7.382 0 01.58-2.317h.031l1.207-.649a7.638 7.638 0 00-.5 2.27zm1.568-.856a7.27 7.27 0 01.574-2.301l1.244-.66a7.595 7.595 0 00-.495 2.244zm1.563-.845a7.44 7.44 0 01.563-2.275l1.26-.664a7.547 7.547 0 00-.49 2.222zm1.562-.845a7.44 7.44 0 01.532-2.238l1.265-.67a7.531 7.531 0 00-.479 2.201zm1.563-.84a7.537 7.537 0 01.531-2.21l1.27-.665a7.701 7.701 0 00-.467 2.179zm1.562-.834a7.489 7.489 0 01.532-2.19l1.275-.664a7.893 7.893 0 00-.457 2.152zm1.563-.835a7.552 7.552 0 01.531-2.168l1.265-.654a7.84 7.84 0 00-.44 2.126zm1.557-.823a7.829 7.829 0 01.5-2.158l1.254-.649a7.824 7.824 0 00-.425 2.126zm1.563-.819a7.712 7.712 0 01.483-2.126l1.255-.648a7.808 7.808 0 00-.41 2.088c-.765.059-1.211.293-1.658.527zm1.562-.813a7.701 7.701 0 01.463-2.126l1.254-.643a7.972 7.972 0 00-.388 2.062zm1.563-.813a7.616 7.616 0 01.441-2.084l1.254-.632a8.116 8.116 0 00-.372 2.035zm1.557-.803a7.972 7.972 0 01.42-2.057l1.26-.632a7.84 7.84 0 00-.351 2.009zm1.563-.797a7.86 7.86 0 01.393-2.03l1.26-.628a7.94 7.94 0 00-.325 1.983zm1.562-.792a8.025 8.025 0 01.367-2.004l1.26-.622a8.142 8.142 0 00-.303 1.956zm1.558-.787a7.972 7.972 0 01.345-1.977l.951-.77a8.025 8.025 0 00-.276 1.918zm1.562-.78a7.898 7.898 0 01.32-1.946l1.253-.606a7.792 7.792 0 00-.244 1.887zm1.557-.777a7.93 7.93 0 01.287-1.908l1.483-.707a8.233 8.233 0 00-.255 1.871zm1.42-1.03a8.2 8.2 0 01.292-1.888l1.477-.69a7.738 7.738 0 00-.255 1.838zm1.743-.851a8.19 8.19 0 01.297-1.855l1.478-.68a7.738 7.738 0 00-.26 1.807zm1.743-.84a8.02 8.02 0 01.298-1.818l1.472-.675a8.222 8.222 0 00-.255 1.775zm1.749-.83a7.903 7.903 0 01.292-1.785l1.472-.67a7.94 7.94 0 00-.255 1.749zm1.743-.818a8.153 8.153 0 01.287-1.754l1.472-.659a7.797 7.797 0 00-.25 1.717zm1.743-.808a8.174 8.174 0 01.26-1.7l1.468-.649a8.09 8.09 0 00-.24 1.685zm3.253-1.477l-1.51.68a8.036 8.036 0 01.272-1.695l1.467-.643a8.09 8.09 0 00-.229 1.674zm1.743-.77l-1.51.669a8.084 8.084 0 01.261-1.674l1.467-.633a7.802 7.802 0 00-.218 1.653zm2.2-.952c-.637.27-1.29.531-1.966.85a7.707 7.707 0 01.245-1.647l1.924-.814a7.393 7.393 0 00-.202 1.627zm2.212-.936l-1.983.84a7.712 7.712 0 01.229-1.594c.67-.282 1.323-.532 1.956-.808a7.542 7.542 0 00-.202 1.578zm2.216-.908c-.638.255-1.297.531-1.988.813a7.786 7.786 0 01.223-1.595l1.962-.797a7.44 7.44 0 00-.197 1.595zm2.232-.888c-.638.25-1.307.532-2.004.792a7.659 7.659 0 01.224-1.595c.696-.276 1.36-.531 1.998-.786a7.494 7.494 0 00-.218 1.605zm2.211-.84c-.627.234-1.28.479-1.982.75a7.765 7.765 0 01.244-1.595c.691-.266 1.329-.531 1.945-.739a7.829 7.829 0 00-.207 1.6zm2.264-.776c-.632.224-1.312.463-2.046.734a7.808 7.808 0 01.234-1.595c.723-.265 1.398-.531 2.025-.738a5.91 5.91 0 00-.213 1.6zm2.211-.738c-.595.19-1.254.409-1.987.659a6.378 6.378 0 01.25-1.595c.722-.255 1.37-.478 1.966-.675a7.164 7.164 0 00-.218 1.584zm.229-.075a7.51 7.51 0 01.255-1.642 66.42 66.42 0 012.126-.665 6.202 6.202 0 00-.234 1.675c-.585.133-1.291.34-2.137.606zm4.252-1.143c-.07 0-.66.107-1.919.447a6.633 6.633 0 01.266-1.685c1.02-.292 1.658-.446 1.972-.531a7.972 7.972 0 00-.287 1.743zm1.594.57a9.227 9.227 0 01-1.328-.532 7.409 7.409 0 01.308-1.728 8.69 8.69 0 001.063.627c-.005.298-.037.846-.037 1.606zM76.362 37.072c1.18 1.063 1.887 1.791 2.036 1.956l41.036 79.08a44.01 44.01 0 00-1.382-.27zm41.807 86.357c0-.729.032-1.26.053-1.595a6.378 6.378 0 001.228.404 3.396 3.396 0 00.16 1.499 8.68 8.68 0 01-1.44-.308zm1.7.324a3.056 3.056 0 01-.196-1.478 4.539 4.539 0 00.76.07 3.87 3.87 0 00.74-.075 3.72 3.72 0 00.36 1.414 6.07 6.07 0 01-1.652.069zm2.786-.42a4.635 4.635 0 01-.893.298 3.513 3.513 0 01-.361-1.409 2.976 2.976 0 00.287-.09 3.72 3.72 0 00.77-.41 3.561 3.561 0 01.819 1.25 4.034 4.034 0 01-.611.36zm.808-.5a3.821 3.821 0 00-.813-1.243 4.252 4.252 0 00.871-.941 4.252 4.252 0 011.154.877 5.124 5.124 0 01-1.191 1.307zm1.334-1.51a4.656 4.656 0 00-1.148-.865 7.08 7.08 0 00.616-1.239 18.3 18.3 0 011.18.734 7.972 7.972 0 01-.638 1.37zm1.105-2.928a12.155 12.155 0 01-.377 1.34 19.715 19.715 0 00-1.18-.728 11.161 11.161 0 00.372-1.302zm.117-.202l-1.174-.69c.16-.144.462-.388.92-.745l1.062.766c-.52.43-.781.654-.797.67zm1.005-.807l-1.063-.766c.34-.265.765-.58 1.28-.94l1.064.77c-.521.351-.941.686-1.27.936zm1.45-1.063l-1.062-.771a88.7 88.7 0 011.323-.914l1.02.77c-.456.33-.892.628-1.27.904zm1.489-1.063l-1.015-.771 1.35-.893.988.765c-.467.314-.893.622-1.312.904zm1.52-1.026l-.983-.77 1.376-.878.957.766zm1.547-1.01l-.952-.765 1.398-.861.92.76-1.345.871zm1.567-.994l-.908-.744 1.413-.85.888.76zm1.595-.978l-.888-.754 1.154-.68c.25.276.5.53.754.818zm.946-8.025a64.17 64.17 0 01-1.483-1.983l.67-.712 1.355 2.259zm-.654-2.865c.324-.345.654-.69.984-1.031l1.461 2.455-1.063.861zm2.073 4.597l.319-.19.531.887-.164.1zm.84.968l.127-.08.394.654a7.348 7.348 0 01-.49-.569zm.319-.192l1.158-.69.617 1.03-1.175.654zm1.775 2.408c-.255-.25-.505-.531-.76-.776l1.004-.563c.303.276.59.531.792.75zm1.244-.702c-.208-.212-.5-.483-.787-.754l1.525-.84c.293.266.574.531.776.75zm1.716-.956a17.15 17.15 0 00-.77-.755l1.53-.834a10.306 10.306 0 01.766.754zm1.728-.941a8.504 8.504 0 00-.755-.76l1.541-.83a6.814 6.814 0 01.744.766zm1.738-.935a6.835 6.835 0 00-.74-.766l1.547-.818a4.783 4.783 0 01.729.776c-.521.276-1.031.547-1.52.813zm1.732-.915a4.523 4.523 0 00-.712-.78l1.552-.82a3.72 3.72 0 01.702.798zm1.744-.908a3.837 3.837 0 00-.686-.803l1.557-.808a3.014 3.014 0 01.67.819zm1.738-.893a3.077 3.077 0 00-.649-.83l1.568-.802a2.657 2.657 0 01.622.85zm1.748-.883a2.865 2.865 0 00-.616-.855l1.594-.792a2.657 2.657 0 01.574.877zm1.738-.871a2.94 2.94 0 00-.553-.877l1.664-.824a2.487 2.487 0 01.569.882zm1.882-.925a2.748 2.748 0 00-.564-.888l1.68-.813a2.514 2.514 0 01.563.883zm1.881-.92a2.657 2.657 0 00-.531-.882l1.684-.808a2.37 2.37 0 01.532.883zm1.887-.903a2.509 2.509 0 00-.532-.888c.532-.27 1.122-.531 1.69-.802a2.35 2.35 0 01.532.887zm1.892-.904a2.567 2.567 0 00-.532-.887l1.696-.797a2.301 2.301 0 01.531.893zm1.897-.887a2.556 2.556 0 00-.531-.898l1.706-.792a2.328 2.328 0 01.494.903zm1.898-.882a2.413 2.413 0 00-.49-.904l1.712-.787a2.275 2.275 0 01.468.915zm1.902-.872a2.482 2.482 0 00-.467-.92l1.711-.78a2.184 2.184 0 01.447.93zm1.903-.866a2.402 2.402 0 00-.446-.93l1.722-.776a2.296 2.296 0 01.414.946zm1.903-.856a2.392 2.392 0 00-.42-.946l1.897-.85a2.04 2.04 0 01.34.988zm2.03-.904a2.339 2.339 0 00-.345-.988l1.908-.85a1.967 1.967 0 01.266 1.036zm3.875-1.7l-1.829.797a2.158 2.158 0 00-.276-1.031l1.919-.845a1.945 1.945 0 01.191 1.084zm2.062-.888l-1.807.792a2.168 2.168 0 00-.213-1.063l1.924-.845a1.866 1.866 0 01.101 1.116zm2.067-.888l-1.817.776a2.04 2.04 0 00-.16-1.11l1.93-.845a1.881 1.881 0 01.053 1.185zm2.09-.882l-1.818.77a2.126 2.126 0 00-.112-1.158l1.94-.845a1.866 1.866 0 01-.005 1.239zm2.077-.871l-1.807.754a2.126 2.126 0 00-.058-1.2l1.945-.84a1.87 1.87 0 01-.074 1.27zm2.078-.867l-1.79.744a2.195 2.195 0 000-1.254l1.945-.83a1.887 1.887 0 01-.15 1.346zm2.073-.855l-1.775.733a2.2 2.2 0 00.059-1.307l1.94-.83a1.919 1.919 0 01-.192 1.409zm1.84-1.111a.94.94 0 01-.378.531l-1.143.468a2.243 2.243 0 00.112-1.36l1.27-.532a1.366 1.366 0 01.144.898zM13.146 59.289a.372.372 0 00-.112.463l8.238 17.225a.372.372 0 00.255.208h.08a.377.377 0 00.245-.09c.047-.038 1.504-1.239 4.124-3.131l-8.839-17.54a172.932 172.932 0 00-3.98 2.87zm29.391-26.537a.345.345 0 00.266-.398.335.335 0 00-.399-.26.33.33 0 00-.26.393.34.34 0 00.404.27zm7.622-.739a.67.67 0 10-.792-.531.675.675 0 00.802.537zm12.325 33.192l-.319-.68c-.696.276-1.398.563-2.094.86l.324.676c.707-.282 1.403-.574 2.1-.85zm-11.16-34.722a.672.672 0 10-.26-1.318.672.672 0 00.26 1.318zM56 29.829a.41.41 0 00-.298-.76.41.41 0 00.298.76zm3.189.813a.335.335 0 00.266-.393.336.336 0 10-.66.128.335.335 0 00.431.27zm2.944 39.091q1.063-.43 2.073-.829l-.324-.68c-.691.266-1.382.531-2.073.834zm31.587 45.15a.574.574 0 10.749-.303.569.569 0 00-.75.303zM57.122 30.456a.489.489 0 10-.234-.654.489.489 0 00.234.654zm-3.694-.308a.404.404 0 00.229-.532.399.399 0 00-.532-.228.404.404 0 00-.233.531.41.41 0 00.536.25zm1.154.898a.574.574 0 00.765-.27.569.569 0 00-.27-.76.574.574 0 10-.495 1.03zm-2.472.718a.586.586 0 00.495-1.063.58.58 0 00-.766.27.574.574 0 00.271.793zm-4.49 7.685l8.418 17.54c.707-.304 1.42-.607 2.126-.904l-8.265-17.54c-.75.287-1.514.585-2.28.899zm40.621 75.758a.406.406 0 00-.324-.744.404.404 0 00-.207.532.399.399 0 00.531.212zm61.818-28.96a.675.675 0 10-.925-.213.67.67 0 00.925.213zm.531-1.85a.67.67 0 00.213-.925.68.68 0 00-.93-.212.675.675 0 00.717 1.121zm1.977-2.86a.34.34 0 00.223-.425.345.345 0 00-.425-.217.337.337 0 00.202.643zm-.797 3.769a.574.574 0 10-.532-.617.574.574 0 00.516.617zm.648-1.977a.404.404 0 00-.531-.6.404.404 0 10.531.6zm-1.993-1.308a.34.34 0 00.218-.425.335.335 0 10-.218.425zm-2.243.872a.345.345 0 000 .489.354.354 0 00.532-.468.345.345 0 00-.548-.021zm-7.005-11.66a18.437 18.437 0 013.12-1.68l-.404-.654a19.702 19.702 0 00-3.114 1.69zm2.18 3.523a20.048 20.048 0 013.151-1.632l-.404-.659a21.26 21.26 0 00-3.146 1.648zm-48.318 39.612a.406.406 0 10-.128-.803.404.404 0 00-.335.463.41.41 0 00.447.34zm47.302-23.524a.335.335 0 00-.1.462.34.34 0 00.462.107.345.345 0 00.106-.468.34.34 0 00-.473-.101zm11.438-7.09a.574.574 0 00.09-1.143.574.574 0 10-.09 1.143zm-8.079 4.348a.335.335 0 00-.1.462.34.34 0 00.462.106.345.345 0 00.106-.467.34.34 0 00-.468-.101zm-1.376.27a.416.416 0 10-.064.83.416.416 0 00.064-.83zm11.161-5.607a.489.489 0 10-.303-.621.489.489 0 00.298.643zm1.967-.35a.335.335 0 10-.426-.218.335.335 0 00.42.218zM138.589 67.06l.393.643.399-.271a18.172 18.172 0 012.7-1.446l-.399-.648a18.72 18.72 0 00-2.716 1.467zm7.366 19.447a.443.443 0 00.473.75.443.443 0 10-.473-.75zm8.414-4.252a.405.405 0 00-.377-.717.405.405 0 10.377.717zm-6.144 2.992a.41.41 0 00.026-.574.41.41 0 10-.026.574zm-.34.83a.574.574 0 10.531.616.569.569 0 00-.531-.648zm-2.36-7.76a21.818 21.818 0 013.189-1.595l-.404-.659a22.966 22.966 0 00-3.162 1.595zM109.915 10.1a.441.441 0 10-.531-.345.446.446 0 00.536.313zm1.292.447a.574.574 0 10-.271-.76.569.569 0 00.276.717zm2.429-.075a.672.672 0 00-.26-1.318.672.672 0 10.26 1.318zm-4.577.835a.336.336 0 00-.132-.66.34.34 0 00-.266.394.335.335 0 00.404.234zm5.751-2.397a.67.67 0 10-.792-.532.675.675 0 00.792.532zm-2.487-.08a.41.41 0 00-.298-.76.41.41 0 00.298.76zM96.585 115.128a.489.489 0 10-.685.085.489.489 0 00.685-.064zm1.287.388a.34.34 0 00.345-.33.34.34 0 00-.675 0 .345.345 0 00.33.351zm9.896-104.985a.489.489 0 10-.234-.654.489.489 0 00.234.675zm-1.749.627a.33.33 0 00.26-.393.34.34 0 00-.393-.266.345.345 0 00-.265.398.335.335 0 00.398.282zm28.568 49.428c.478-.308.967-.616 1.461-.92a17.008 17.008 0 011.595-.85l-.404-.648a19.43 19.43 0 00-1.594.856l-1.467.925zm-6.654-10.752a58.65 58.65 0 013.072-1.759l-.394-.643a64.62 64.62 0 00-3.072 1.76zm2.227 3.599a52.445 52.445 0 012.561-1.515l.5-.26-.393-.644c-.16.08-.32.16-.473.25a60.38 60.38 0 00-2.589 1.53zm-4.46-7.207q1.504-.883 3.099-1.707l-.399-.637q-1.594.829-3.088 1.732zm10.694 17.278l.377.68.925-.605a16.944 16.944 0 012.153-1.148l-.399-.643a17.114 17.114 0 00-2.158 1.158c-.298.176-.595.378-.898.574zm-4.018-6.49a105.63 105.63 0 012.009-1.222c.34-.196.69-.377 1.063-.531l-.399-.643c-.35.17-.696.35-1.03.531a65.9 65.9 0 00-2.026 1.233zm-8.892-14.397q1.499-.893 3.099-1.717l-.442-.632q-1.594.818-3.093 1.722zM116.925 8.6a.41.41 0 00-.297-.76.41.41 0 00.297.76zm1.154.899a.574.574 0 10-.271-.766.574.574 0 00.244.74zm-2.472.712a.574.574 0 10-.27-.766.574.574 0 00.244.74zm8.733 27.106l-.394-.643a41.286 41.286 0 00-3.103 1.716l.398.638a30.74 30.74 0 013.072-1.754z" fill="#323d66"/></svg>