<svg xmlns="http://www.w3.org/2000/svg" height="160" width="149" version="1.1" data-name="Слой 1" id="Слой_1"><defs id="defs847"><style id="style845"/></defs><path id="path863" d="M114.376 54.066a.448.448 0 10.064.891.448.448 0 00-.064-.89zm.209-1.492a.632.632 0 10.895-.035.632.632 0 00-.895.015zm-12.788.776a.37.37 0 00-.075.736.37.37 0 10.075-.736zm-10.24-3.045c-3.354 4.587-1.677 10.04-1.662 10.096l.204-.065c0-.055-1.662-5.409 1.627-9.907 3.07-4.19 9.285-6.314 18.48-6.314 14.599 0 21.595-3.105 24.879-5.702 3.602-2.841 3.717-5.643 3.722-5.762h-.214c0 .03-.125 2.836-3.658 5.617-3.274 2.573-10.23 5.638-24.744 5.638-9.255-.025-15.53 2.13-18.634 6.379zm-1.493 97.101a.438.438 0 00.368-.497.428.428 0 00-.462-.393.448.448 0 00-.369.497.423.423 0 00.443.373zm9.638-94.28a.378.378 0 00-.408.333.373.373 0 00.334.403.363.363 0 00.403-.328.368.368 0 00-.349-.428zm13.25-.065a.75.75 0 10-.154 1.493.75.75 0 00.155-1.493zm-5.229-.85a.632.632 0 10.93.855.627.627 0 00-.034-.89.637.637 0 00-.916.015zm4.399-.433a.632.632 0 10.034.895.637.637 0 00-.054-.915zm-1.866 1.343a.75.75 0 00-.154 1.493.75.75 0 10.154-1.493zM74.47 145.73a5.135 5.135 0 105.135 5.135 5.14 5.14 0 00-5.135-5.135zm0 9.563a4.428 4.428 0 114.434-4.428 4.433 4.433 0 01-4.434 4.428zM105.52 53.04a.539.539 0 10.791.732.539.539 0 10-.791-.732zm2.204.667a.448.448 0 10.498.413.448.448 0 00-.498-.403zM93.672 146.84a.353.353 0 00-.369.343.348.348 0 10.369-.343zm-1.99.125a.562.562 0 00.054.756.498.498 0 00.712-.065.557.557 0 00-.055-.756.498.498 0 00-.707.065zm11.99-94.46a.448.448 0 00.066.89.453.453 0 00.418-.497.448.448 0 00-.478-.393zm13.017.906a.498.498 0 00-.537.432.498.498 0 10.97.1.498.498 0 00-.428-.532zM57.558 124.2l-.11-.185c-9.175 5.364-12.051 12.644-12.08 12.713l.198.08c.025-.075 2.881-7.284 11.992-12.608zm-12.28 28.137a29.143 29.143 0 001.02 7.643h.223a28.91 28.91 0 01-1.03-7.643zm-1.538 0a30.72 30.72 0 00.96 7.643h.22a30.491 30.491 0 01-.966-7.643zm14.848-27.112l-.11-.185c-9.175 5.364-12.051 12.644-12.08 12.713l.198.075c.02-.07 2.876-7.28 11.992-12.604zm-16.385 27.112a32.273 32.273 0 00.92 7.643h.219a31.99 31.99 0 01-.93-7.643zm6.15 0a26.043 26.043 0 001.144 7.643h.219a25.874 25.874 0 01-1.15-7.643zm-1.538 0a27.486 27.486 0 001.085 7.643h.239a27.307 27.307 0 01-1.09-7.643zm-25.237-84.05a.537.537 0 10-.373-.667.537.537 0 00.373.667zm-1.791.453a.449.449 0 00-.468-.766.448.448 0 00-.15.612.453.453 0 00.608.154zm20.898 83.592a33.67 33.67 0 00.88 7.643h.22a33.392 33.392 0 01-.891-7.643zm-26.88-73.198a30.735 30.735 0 018.375-5.821L40.008 65.6l-.084-.199-17.819 7.723a30.979 30.979 0 00-8.458 5.861 26.983 26.983 0 00-8.43 19.724h.21a26.78 26.78 0 018.379-19.575zm2.489-8.115a.37.37 0 10-.264-.692.37.37 0 10.264.692zm57.967 76.387a3.98 3.98 0 00-3.22 3.3l.215.024a3.682 3.682 0 013.045-3.115zm-.79 6.618l-.086.194a3.184 3.184 0 001.18.214 3.408 3.408 0 002.692-1.358l-.165-.135a3.095 3.095 0 01-3.617 1.085zM23.204 66.655a.632.632 0 10-.438-.781.637.637 0 00.438.781zm51.25 72.716a11.534 11.534 0 014.01.721l.046-.209a11.668 11.668 0 00-4.056-.721zm0 4.055a7.464 7.464 0 107.464 7.463 7.464 7.464 0 00-7.449-7.468zm0 14.18a6.737 6.737 0 116.737-6.736 6.747 6.747 0 01-6.722 6.732zm0-12.777a6.04 6.04 0 106.046 6.04 6.046 6.046 0 00-6.03-6.045zm0 11.872a5.832 5.832 0 115.832-5.831 5.837 5.837 0 01-5.817 5.846zm-13.23-5.836a13.19 13.19 0 002.438 7.647l.179-.114a12.967 12.967 0 01-2.408-7.533zm9.543-12.56c-7.095 1.702-8.881 8.877-8.901 8.957l.209.045c0-.07 1.776-7.115 8.742-8.792zm-2.527 20.59a10.17 10.17 0 001.746 1.09h.498a9.708 9.708 0 01-2.14-1.289zm-4.94-11.633l.204.045c0-.06 1.492-5.971 7.314-7.35l-.05-.208c-5.95 1.423-7.453 7.438-7.468 7.513zm-.538 3.612a11.653 11.653 0 002.195 6.812l.174-.114a11.444 11.444 0 01-2.155-6.698zm1.538 0a10.116 10.116 0 001.955 5.971l.174-.114a9.922 9.922 0 01-1.92-5.857zM33.286 62.978a.537.537 0 10-.373-.662.537.537 0 00.373.662zm-3.787.866a.632.632 0 10-.437-.776.632.632 0 00.437.776zm50.255 78.617a9.872 9.872 0 011.055.75l.145-.153a10.45 10.45 0 00-1.085-.777zm5.509 11.941A11.325 11.325 0 0181.576 160h.333a11.628 11.628 0 003.548-5.568zM117.988 52.44a.363.363 0 00-.403.329.368.368 0 00.328.408.378.378 0 00.408-.334.373.373 0 00-.333-.423zm-86.31 11.345a.498.498 0 00.28-.632.498.498 0 00-.911.348.498.498 0 00.632.284zm.623-1.692a.368.368 0 00.209-.497.363.363 0 00-.498-.214.373.373 0 00.269.691zm3.324-.497a.373.373 0 00-.27-.692.378.378 0 00-.213.498.373.373 0 00.483.219zM99.389 65.4l-.085.2 17.833 7.712a30.85 30.85 0 018.37 5.821 26.78 26.78 0 018.364 19.57h.209a26.983 26.983 0 00-8.43-19.724 31.064 31.064 0 00-8.413-5.856zm21.759-11.897a.373.373 0 00-.408.334.363.363 0 00.328.403.368.368 0 00.408-.329.378.378 0 00-.308-.408zm-2.812.125a.542.542 0 10.762-.03.542.542 0 00-.742.03zm18.192-7.902l.09-.721-.623.373c-1.259.751-8.334 4.423-24.042 2.771-8.728-.915-14.744.393-17.883 3.891-2.533 2.822-2.334 6.305-2.215 7.305l.095.77.522-.581c1.07-1.2 5.235-5.05 13.733-4.15 19.73 2.07 29.556-3.558 30.343-9.658zm-30.248 8.956c-7.752-.816-12.076 2.21-13.778 3.812a8.623 8.623 0 012.09-5.971c2.354-2.622 6.469-3.94 12.285-3.94a47.767 47.767 0 015.006.283c14.036 1.493 21.216-1.174 23.804-2.488-1.468 5.608-11.748 10.155-29.387 8.304zm-19.604 99.7a13.867 13.867 0 01-3.205 5.597h.289a14.007 14.007 0 003.12-5.548zm-7.852-16.023a13.255 13.255 0 00-4.374-.746v.194a12.987 12.987 0 014.33.742zM28.34 65.66a.741.741 0 10-.955-.423.741.741 0 00.955.423zm1.22-1.125a.448.448 0 00.462.767.448.448 0 10-.463-.767zm-6.091 2.702a.448.448 0 00.463.766.448.448 0 10-.463-.766zm2.677-2.488a.632.632 0 10-.438-.776.627.627 0 00.438.732zm-.18 2.205a.736.736 0 10-.955-.423.731.731 0 00.956.378zm56.814 75.974a11.444 11.444 0 013.174 7.937h.214a11.683 11.683 0 00-3.2-8.081zm-1.344-3.075a13.21 13.21 0 011.448 1.065l.144-.154a13.146 13.146 0 00-1.492-1.09zm.13 4.03a9.917 9.917 0 012.866 6.967h.214a10.116 10.116 0 00-2.916-7.07zm6.155 6.967a13.176 13.176 0 00-3.563-9.021l-.164.129a12.977 12.977 0 013.513 8.892zm-13.25-9.952a9.892 9.892 0 013.686.717l.045-.21a10.126 10.126 0 00-3.732-.716zm6.124.239a11.176 11.176 0 011.254.91l.145-.154a11.743 11.743 0 00-1.284-.935zm-62.31-70.88a.373.373 0 00.208-.497.363.363 0 00-.497-.21.373.373 0 00-.214.499.378.378 0 00.502.208zm47.408-65.42a.353.353 0 00.388-.324.368.368 0 00-.308-.408.353.353 0 00-.384.323.363.363 0 00.304.408zm.916-2.1a.567.567 0 00-.025-.762.498.498 0 00-.712 0 .562.562 0 000 .757.498.498 0 00.737.005zM57.876 61.41h-.209l-.423 6.24h.21zm4.598-57.819a.348.348 0 00.388-.323.363.363 0 00-.309-.413.353.353 0 00-.388.323.373.373 0 00.309.413zm5.642 7.623h1.08v3.424a4.175 4.175 0 01-.995-1.19 1.152 1.152 0 00-1.99 1.16 6.354 6.354 0 001.447 1.741 4.637 4.637 0 002.22 1.06 1.557 1.557 0 00.214 0 1.393 1.393 0 00.313-.06 1.353 1.353 0 00.309.06.995.995 0 00.213 0 4.632 4.632 0 002.21-1.05c12.36-.278 17.256-2.443 17.305-2.488l-.084-.189c-.055 0-4.862 2.14-16.977 2.438a6.468 6.468 0 001.219-1.53 1.152 1.152 0 00-1.99-1.16 4.015 4.015 0 01-1.125 1.294v-3.528h1.224a1.15 1.15 0 100-2.298h-1.184V7.9a1.154 1.154 0 00-2.304 0v.996h-1.08a1.15 1.15 0 000 2.298zm-.03-6.17a.438.438 0 00.388-.497.423.423 0 00-.442-.418.433.433 0 00-.388.497.428.428 0 00.442.418zm7.056 60.819l-.055-.204c-9.518 2.413-15.872-2.757-15.922-2.806l-.134.159a18.525 18.525 0 0011.04 3.483 20.52 20.52 0 005.071-.632zm-18.29-10.947A26.869 26.869 0 0154 45.463h-.209a26.988 26.988 0 002.871 9.544zm11.861 12.236l-.497-.095a3.886 3.886 0 003.065 4.424l.134-.498c-3.22-.886-2.722-3.737-2.702-3.831zm.184-64.083a.657.657 0 00-.024-.89.562.562 0 00-.831 0 .657.657 0 00.024.89.562.562 0 00.831-.025zm9.887 1.791a.348.348 0 00.383-.323.358.358 0 00-.303-.408.353.353 0 00-.383.323.363.363 0 00.303.383zM63.225 54.196l.06-.204a9.35 9.35 0 01-5-3.483l-.18.114a9.578 9.578 0 005.12 3.548zm11.18 1.89l-.134-.164a6.364 6.364 0 01-3.592 1.27 8.28 8.28 0 01-3.98-1.28l-.12.18a8.36 8.36 0 004.08 1.313 6.468 6.468 0 003.747-1.343zM64.32 3.842a.438.438 0 00.393-.497.433.433 0 00-.443-.418.438.438 0 00-.393.497.428.428 0 00.443.373zm12.678 2.195a.348.348 0 00.388-.329.353.353 0 10-.697-.084.373.373 0 00.309.413zm-1.12-1.493a.458.458 0 00.498-.423.498.498 0 00-.398-.542.468.468 0 00-.498.427.498.498 0 00.383.553zm-.806-1.408a.657.657 0 00-.025-.89.567.567 0 00-.836.029.657.657 0 00.025.89.567.567 0 00.821-.014zm2.916.368a.557.557 0 000-.756.498.498 0 00-.711 0 .562.562 0 000 .76.498.498 0 00.716.01zm-3.777 1.801a.423.423 0 00.443.418.433.433 0 00.388-.497.428.428 0 00-.442-.418.438.438 0 00-.389.497zm-3.98-.259a.707.707 0 00.766-.651.721.721 0 00-.607-.816.702.702 0 00-.766.646.736.736 0 00.607.821zm7.349-.651a.448.448 0 00-.393.497.428.428 0 00.448.413.448.448 0 00-.055-.89zm-5.12-.379a.726.726 0 00.607.821.707.707 0 00.766-.646.731.731 0 00-.607-.821.707.707 0 00-.766.646zM70.161 2.09a.438.438 0 00.393-.473.428.428 0 00-.443-.418.448.448 0 00.05.89zm1.672 1.06a.657.657 0 00-.025-.891.567.567 0 00-.836.03.657.657 0 00.025.89.567.567 0 00.836-.03zm.965-1.06a.438.438 0 00.393-.473.428.428 0 00-.442-.418.448.448 0 00.05.89zm-1.14 3.294a.368.368 0 00.304.413.353.353 0 00.389-.329.368.368 0 00-.304-.413.353.353 0 00-.388.329zm18.8 11.016l-.085-.194c-.055.025-5.613 2.488-19.873 2.488-14.26 0-19.903-2.453-19.968-2.488l-.09.194c.06.025 5.737 2.488 20.058 2.488 14.32 0 19.902-2.488 19.957-2.488zm37.014 120.85a.632.632 0 10-.88-.173.632.632 0 00.88.154zm-1.816 3.22a.632.632 0 10.174-.876.627.627 0 00-.174.856zm-84.2-14.818l-6.1-6.1c-.756-.756-.836-1.154-.816-1.323a.209.209 0 01.09-.17l-.055-.09-.05-.094a.438.438 0 00-.194.314c-.05.373.244.88.876 1.493l6.1 6.1zm-19.336 30.8a.219.219 0 01-.06-.179l-.203-.06a.428.428 0 00.09.359c.223.303.79.453 1.686.453h8.623v-.21h-8.623c-1.07 0-1.408-.228-1.513-.363zm-19.987-4.115h-.214c0 2.433 3.428 3.17 3.483 3.18l.04-.21c-.055-.004-3.31-.706-3.31-2.97zm5.25 2.951v.214l12.513-.776v-.21zm117.88-16.6a.741.741 0 00.776-.7.746.746 0 00-.702-.782.741.741 0 00-.776.702.746.746 0 00.702.78zm18.31 10.45l-.04.209c.03 0 3.29.706 3.29 2.985h.213c-.01-2.433-3.438-3.17-3.473-3.174zm3.702-.07a6.966 6.966 0 00-5.234-1.662l-12.265 1.02a3.617 3.617 0 00-2.896-2.239c.139-.497.288-1.065.438-1.652h.054v-.174a141.916 141.916 0 002.065-9.304h.13l-.06-.364c.423-2.289.816-4.752 1.134-7.319v-.045q.244-1.935.428-3.936c.125-1.393.224-2.836.294-4.314h.094l-.08-.323a83.712 83.712 0 00-.05-8.857l.08-.03-.094-.249c-.428-6.772-1.801-13.713-4.831-19.733a30.964 30.964 0 00-6.469-8.753 21.7 21.7 0 00-4.354-3.035L93.064 67.65a27.242 27.242 0 00.224-3.757c0-1.07-1.562-1.771-4.637-2.074-.498-.05-.995-.08-1.418-.105a59.211 59.211 0 01-.771-6.468.373.373 0 000-.08c2.104-3.98 2.826-8.3 2.423-10.365 2.533-.9 3.89-4.801 3.89-8.224 0-1.443-.397-2.419-1.188-2.901a2.154 2.154 0 00-.468-.204 45.15 45.15 0 00.164-3.792 48.633 48.633 0 00-.527-7.424c1.204-.666 1.492-1.239 1.527-1.388a.463.463 0 000-.114v-2.95c1.493-.235 7.762-1.434 7.762-5.325 0-2.722-9.17-6.638-11.976-7.777C82.277 2.363 74.569 0 70.42 0c-4.15 0-11.832 2.289-17.649 4.627-2.811 1.14-11.977 5.056-11.977 7.778 0 3.886 6.265 5.09 7.763 5.319v2.955a.308.308 0 000 .115c.05.149.323.721 1.527 1.388a48.633 48.633 0 00-.527 7.424c0 1.184.054 2.418.154 3.672a1.88 1.88 0 00-.498.219c-.79.497-1.189 1.458-1.189 2.9 0 3.454 1.388 7.395 3.98 8.245-.437 2.035.28 6.404 2.419 10.45a.249.249 0 000 .064 56.758 56.758 0 01-1.543 10.081L25.42 77.94l-.2.09a21.844 21.844 0 00-4.353 3.035 30.964 30.964 0 00-6.469 8.752c-3.03 6.026-4.398 12.967-4.831 19.739l-.095.244.08.03a86.463 86.463 0 00-.05 8.857l-.08.323h.095c.07 1.493.169 2.92.298 4.314.13 1.393.264 2.647.423 3.936v.1c.324 2.567.717 5.03 1.135 7.319l-.055.363h.13a140.871 140.871 0 002.064 9.304c-2.692-.179-6.005-.363-7.96-.363-3.777 0-5.026 1.597-5.076 1.662l.17.13s1.243-1.583 4.905-1.583c1.99 0 5.344.19 8.041.368.18.687.348 1.314.498 1.891-2.777-.298-6.43-.642-8.549-.642-3.791 0-5.075 2.622-5.085 2.652l.19.09c0-.025 1.243-2.528 4.895-2.528 2.135 0 5.827.349 8.608.647l.383 1.354-7.588-.632a7.857 7.857 0 00-1.234 0h-.1a6.702 6.702 0 00-3.9 1.642 4.25 4.25 0 000 6.503 6.837 6.837 0 004.607 1.687q.314 0 .627-.03l12.26-.995a3.622 3.622 0 003.354 2.269h10.51l.084-.055c.06-.04.995-.697 1.597-2.677h4.194a35.572 35.572 0 00.662 4.214h.727a35.024 35.024 0 1168.341 0h.727a35.572 35.572 0 00.662-4.214h4.194c.577 1.99 1.538 2.637 1.593 2.677l.09.055h10.374a3.826 3.826 0 00.796-.085 3.757 3.757 0 002.632-2.164l12.305 1.02q.313.03.627.03c.214 0 .428 0 .637-.03a6.677 6.677 0 003.98-1.657 4.244 4.244 0 000-6.499zm-18.116-16.51l-.05-.313a112.497 112.497 0 01-13.798 1.184c-2.2.05-4.17.025-5.866-.03q.06-.84.134-1.641c.194-.05.328-.095.348-.1l2.827-2.826c.96.03 1.99.045 3.12.045h.656c3.16 0 10.947-1.06 13.4-1.403a204.808 204.808 0 01-.781 5.105zM74.43 85.564a7.135 7.135 0 00.797.04c.93 0 2.458-.16 3.458-1.07v.184l-.07.846a.219.219 0 00-.065.07c-1.02 1.746-3.98 1.378-4.025 1.378a.343.343 0 00-.398.298.353.353 0 00.303.398 6.493 6.493 0 00.796.045c.881 0 2.3-.154 3.29-.995l-.095 1.13s-.025 0-.035.03c-1.13 1.602-3.831 1.243-3.861 1.238a.348.348 0 00-.398.299.353.353 0 00.298.398 5.97 5.97 0 00.797.05 5.11 5.11 0 003.11-.93l-.105 1.228c-1.244 1.453-3.672 1.105-3.697 1.1a.353.353 0 10-.105.697 5.792 5.792 0 00.797.05 5.095 5.095 0 002.92-.832l-.104 1.3c-1.364 1.268-3.483.935-3.483.93a.353.353 0 00-.403.293.348.348 0 00.283.403 5.538 5.538 0 00.801.055 5.16 5.16 0 002.742-.737l-.114 1.364a4.682 4.682 0 01-3.304.771.348.348 0 00-.408.279.353.353 0 00.278.413 4.702 4.702 0 00.806.064 5.27 5.27 0 002.553-.641l-.114 1.418a4.747 4.747 0 01-3.105.612.354.354 0 00-.15.691 4.478 4.478 0 00.821.07 5.538 5.538 0 002.364-.537l-.065.741s-.219.756-3.045.756-3.04-.746-3.045-.761l-1.16-13.987a6.25 6.25 0 011.493-4.702 3.548 3.548 0 015.474 0 5.97 5.97 0 011.462 3.413c-.965 1.797-4.114 1.438-4.15 1.433a.358.358 0 00-.392.309.353.353 0 00.253.398zm4.946-2.025a.542.542 0 000-.09c0-.224-.054-.448-.094-.667.353-.084.701-.169 1.045-.263a7.02 7.02 0 01.04.741c0 .91-.06 2.1-.16 3.384l-.995.134.164-1.99a7.857 7.857 0 000-1.244zm1.155-1.075a27.003 27.003 0 001.587-.498 10.28 10.28 0 01.075 1.29c0 .835-.035 1.91-.085 3.07-.552.099-1.115.193-1.687.278.09-1.269.154-2.448.154-3.349 0-.269-.02-.532-.044-.786zm1.443 6.782c-.085 1.423-.18 2.801-.254 3.906l-1.93.174c.119-1.065.268-2.408.397-3.806a87.176 87.176 0 001.787-.274zm.04 10.449v-.239c0-1.423-.996-2.622-1.732-3.324l1.662-.149c.577.592 1.657 1.91 1.657 3.483v.12c-.543.024-1.07.06-1.627.099zm1.587 2.717v3.677l-1.588.084v-3.647zm-3.026-2.627a3.762 3.762 0 00-2.194-2.692l.07-.826c.497-.035 1.03-.07 1.537-.115.727.657 1.816 1.881 1.816 3.304v.249zm1.23 2.751v3.647l-1.15.045v-3.617zm-1.852-12.992a235.413 235.413 0 01-.398 3.792l-.89.07.308-3.742zm-9.23 9.18a.896.896 0 00.29.618c.536.552 1.7.83 3.457.83s2.926-.278 3.458-.83a.93.93 0 00.294-.587l.075-.926a3.075 3.075 0 011.537 1.946c-1.12 2.348-5.304 2.15-5.344 2.144a.363.363 0 00-.368.333.348.348 0 00.328.374h.373c.996 0 3.687-.155 5.106-1.737v.87a.333.333 0 00-.045.07c-1.04 2.449-5.35 2.24-5.394 2.235a.363.363 0 00-.368.333.348.348 0 00.328.373h.373c.996 0 3.687-.159 5.106-1.741v.87a.547.547 0 00-.045.07c-1.045 2.453-5.35 2.244-5.394 2.24a.358.358 0 00-.368.328.343.343 0 00.328.373h.373c.996 0 3.687-.16 5.106-1.742v.876a.299.299 0 00-.045.065c-1.045 2.453-5.35 2.244-5.394 2.239a.363.363 0 00-.368.333.343.343 0 00.328.368h.373c.996 0 3.687-.159 5.105-1.741v.876a.299.299 0 00-.044.064c-1.045 2.453-5.35 2.244-5.394 2.24a.363.363 0 00-.368.333.353.353 0 00.328.373h.373c.996 0 3.687-.154 5.105-1.737v1.17c-.288.328-1.681 1.642-5.473 1.642-3.791 0-5.17-1.319-5.473-1.642v-10.23a2.91 2.91 0 011.627-2.608zm7.175 13.853c1.99-.577 2.638-1.532 2.677-1.592l.06-.09v-1.846l1.15-.05v2.961a3.184 3.184 0 01-.344.657 374.98 374.98 0 01-3.543.09zm4.09-.567v-3.025l1.593-.08v3.03c-.04.07-.17.319-.358.597l-1.523.055a3.413 3.413 0 00.274-.572zm1.792 0v-3.11c12.847-.692 22.68-2.373 30.148-4.408-.055.209-.105.413-.16.602-.178.144-.586.497-1.144 1.035a24.55 24.55 0 00-5.309 4.343 228.685 228.685 0 01-23.849 2.07 5.722 5.722 0 00.314-.517zm25.874 13.842l.691-.691c-.05.234-.104.497-.154.726zm.363 2.847l-.115.114v-.12zm.274 0c.666.034 1.383.07 2.154.09l-2.642 2.641-.229.07c.08-.826.174-1.612.279-2.363zm.114-2.822c.07-.348.144-.686.219-.995l3.592-3.592c1.115 0 2.235-.07 3.334-.15a2.224 2.224 0 01-.169.2l-4.662 4.66a59.419 59.419 0 01-2.309-.09zm7.961-8.986a8.125 8.125 0 01.09 1.319c-.667.06-1.339.11-2.015.144a3.762 3.762 0 00-.14-2.373l3.677-3.11a59.436 59.436 0 004.33-.851 225.731 225.731 0 01-5.907 4.772l-.05.04zm-.82 4.573a3.1 3.1 0 00.308-.368 95.26 95.26 0 001.781-.15 4.115 4.115 0 01-.97 1.637l-3.434 3.434c-.786 0-1.517 0-2.209-.03zm1.129-3.274a8.414 8.414 0 00-.09-1.274c.428-.333 3.483-2.722 6.18-5.006a54.664 54.664 0 003.637-1.045c-2.488 2.354-6.702 6.021-8.02 7.156-.593.094-1.14.154-1.717.204zm7.742-9.663c-.662.199-1.314.378-1.95.542l1.258-1.065a7.802 7.802 0 00.856-.865c-.05.487-.104.955-.174 1.423zm-.249-1.99c-1.955.592-3.926-1.891-3.946-1.916a.353.353 0 00-.497-.06.348.348 0 00-.06.498c.08.104 1.732 2.184 3.737 2.279a1.647 1.647 0 01-.134.13l-.647.546a.294.294 0 00-.095 0c-1.96.498-3.801-1.85-3.821-1.875a.353.353 0 00-.498-.065.348.348 0 00-.064.497c.074.1 1.602 2.06 3.562 2.215l-.87.736h-.04c-1.94.333-3.593-1.836-3.608-1.856a.354.354 0 00-.567.423c.07.09 1.468 1.92 3.369 2.15l-.926.78c-1.9.135-3.378-1.815-3.393-1.835a.353.353 0 00-.568.418c.06.084 1.324 1.776 3.18 2.08l-.995.84c-1.861-.064-3.125-1.796-3.135-1.816a.353.353 0 10-.577.408 5.533 5.533 0 002.985 2.025l-1.04.881a4.667 4.667 0 01-2.876-1.791.358.358 0 00-.497-.09.353.353 0 00-.09.498 5.443 5.443 0 002.782 1.99l-1.085.916a4.712 4.712 0 01-2.627-1.762.358.358 0 00-.498-.104.353.353 0 00-.104.497 5.329 5.329 0 002.577 1.921l-.567.498s-.692.373-2.687-1.623c-1.995-1.995-1.622-2.681-1.612-2.691l9.056-10.728a6.245 6.245 0 014.363-2.279h.195a3.533 3.533 0 013.672 3.866 5.97 5.97 0 01-1.364 3.438zm-15.305 3.906h-.224a3.543 3.543 0 00-.498-.145 22.655 22.655 0 014.15-4.687l.09-.07.034-.11c.13-.432.244-.92.354-1.452.13 0 .751-.06 1.741-.19zm3.592-9.076q-1.035.308-2.15.597a.707.707 0 00.14-.343.731.731 0 00-.577-.841.702.702 0 00-.791.617.756.756 0 00.398.78c-.528.135-1.065.27-1.617.399a.642.642 0 00-.269-.677.572.572 0 00-.811.22.672.672 0 00.035.696l-.533.124a.592.592 0 00-.258-.104.662.662 0 00-.667.303c-.572.12-1.15.239-1.742.353a.403.403 0 000-.189.423.423 0 00-.497-.338.453.453 0 00-.319.532.438.438 0 00.06.14c-.294.054-.587.114-.886.164a.318.318 0 00-.214 0l-.05.035a163.926 163.926 0 01-19.902 2.224v-3.682c14.673-1.14 24.57-4.12 31.138-7.25-.13 2.24-.264 4.369-.488 6.235zm-7.105 10.384a2.9 2.9 0 012.985-.686l-.602.716a.866.866 0 00-.234.642c0 .766.617 1.786 1.861 3.03 1.244 1.244 2.25 1.861 3.016 1.861a.886.886 0 00.622-.214l.711-.597a3.015 3.015 0 01-.293 2.463c-2.443.87-5.265-2.23-5.295-2.259a.348.348 0 00-.497-.03.353.353 0 000 .498c.11.124 2.403 2.657 4.896 2.657h.194l-.612.612a.448.448 0 00-.08 0c-2.463.995-5.363-2.195-5.393-2.23a.354.354 0 00-.528.473c.115.125 2.409 2.657 4.901 2.657h.194l-.617.617h-.08c-2.487.996-5.363-2.199-5.393-2.229a.353.353 0 10-.527.468c.114.13 2.408 2.662 4.9 2.662h.195l-.612.612a.378.378 0 00-.08 0c-2.488.995-5.369-2.194-5.398-2.23a.353.353 0 00-.523.474c.11.124 2.408 2.657 4.901 2.657h.19l-.613.612a.448.448 0 00-.08 0c-2.487.995-5.363-2.2-5.393-2.23a.353.353 0 10-.527.468c.114.13 2.408 2.662 4.9 2.662h.195l-.826.826c-.433.03-2.349-.025-5.02-2.697-2.673-2.672-2.728-4.587-2.698-5.02zm2.373 16.943c0 .129-.04.253-.054.383l-1.125 1.124c-.154.07-1.453.637-2.403-.064.08-.608.164-1.19.259-1.752.89.115 1.99.224 3.313.309zm-1.07 1.686l.97-.965a62.13 62.13 0 00-.253 2.174c-.577.135-1.532.27-1.95-.149l-.075-.074-1.488 1.467c.075-.85.16-1.666.259-2.443 1.085.692 2.513 0 2.528-.01zm21.715-7.07c-.04.428-.08.846-.125 1.269-.184 0-10.26 1.458-13.743 1.492h-.995l3.29-3.289a4.359 4.359 0 001.054-1.81 97.604 97.604 0 0010.782-1.717 86.123 86.123 0 01-.273 4.055zm.383-6.966a97.47 97.47 0 01-9.996 1.687c1.602-1.384 5.831-5.046 8.11-7.26a63.427 63.427 0 001.771-.622c.1 2.075.14 4.15.1 6.175zm-.334-9.071v-.04a55.2 55.2 0 01-1.363.498 5.21 5.21 0 00.667-4.125l-.2.07a5.035 5.035 0 01-.785 4.164 66.76 66.76 0 01-2.08.677c.074-.547.13-1.08.179-1.612a6.643 6.643 0 001.433-3.722 4.687 4.687 0 00-.448-2.269c.498-.199.995-.408 1.528-.632a59.33 59.33 0 011.06 6.971zm-1.78-9.767c-.767.348-1.533.661-2.29.945a28.979 28.979 0 00-2.318-6.847 14.768 14.768 0 001.885-1.253 40.637 40.637 0 012.722 7.155zm-12.828-15.808a3.782 3.782 0 002.662-.995 13.504 13.504 0 011.09.92 29.163 29.163 0 014.975 6.2 11.713 11.713 0 01-1.85 1.289 25.177 25.177 0 00-4.42-5.524l-.139.16a24.963 24.963 0 014.374 5.473 21.893 21.893 0 01-6.737 2.174c.08-3.667.045-7.2 0-9.682zm-.105 12.544a24.715 24.715 0 008.165-2.563 28.63 28.63 0 012.274 6.822l-.806.288a4.836 4.836 0 00-1.692-.224 6.782 6.782 0 00-4.19 1.832 44.876 44.876 0 01-4.253.681c.234-2.05.383-4.413.477-6.836zm-.642-2.384c-6.165 3.195-15.987 6.469-31.247 7.693v-.105c0-1.552-.995-2.836-1.593-3.483 19.65-1.99 28.89-8.926 32.865-13.325.015 2.493.025 5.827-.05 9.22zm-8.956-15.708c.343-.498.647-.92.91-1.334l7.748 3.583c-1.732 2.677-9.499 12.305-32.84 14.728.074-1.11.169-2.488.254-3.916 13.683-2.334 20.564-8.568 23.789-12.887L113.4 79.7l.09-.194zm-9.16-5.971l7.418 3.443c-.273.413-.597.856-.965 1.329L96 71.586c.349-.498.652-.95.926-1.448zm6.339 4.936a25.516 25.516 0 01-4.03 4.01c-3.314 2.642-8.688 5.648-16.918 7.18.05-1.144.08-2.204.08-3.03a11.345 11.345 0 00-.075-1.358A26.7 26.7 0 0095.906 71.75zM92.95 68.327l1.383.642c-.283.458-.592.93-.94 1.418l-.896-.408a10.096 10.096 0 00.453-1.662zm-2.095-3.483c0 .766-1.776 1.393-3.98 1.393-2.205 0-3.98-.627-3.98-1.393s1.775-1.393 3.98-1.393c2.204 0 3.98.607 3.98 1.378zM73.76 73.362c.472-.064.935-.139 1.388-.229l.453 2.852a21.84 21.84 0 01-1.538.263zm.09 2.916a24.88 24.88 0 01-1.553.15l-.15-2.901c.498-.035.946-.08 1.399-.14zm1.492-3.184c.468-.1.925-.204 1.363-.324l.597 2.812c-.497.134-.995.253-1.492.363zm1.567-.379c.463-.129.91-.263 1.344-.413l.736 2.757c-.497.164-.995.318-1.493.463zm1.543-.497c.448-.16.88-.328 1.299-.498l.875 2.697c-.463.194-.94.388-1.438.567zm1.493-.587c.432-.194.855-.393 1.253-.597l.996 2.637c-.448.224-.911.448-1.394.657zm1.443-.692l.497-.274a5.443 5.443 0 001.781 2.03l.06.135c-.428.254-.876.497-1.338.741zm5.115-9.305H84.97l-.234-2.229-.214.025.234 2.22c-.403 0-.726.044-.945.07a5.568 5.568 0 00-.617-2.09 18.65 18.65 0 001.89-2.31c.26-.368.498-.75.732-1.134q.239 2.752.706 5.444zm-1.99-4.721a18.818 18.818 0 01-1.678 2.074 9.643 9.643 0 00-1.557-1.816c3.433-3.2 5.628-8.225 6.384-14.822a8.016 8.016 0 00.393 2.12c.617 1.616-.085 7.483-3.528 12.439zm1.164-11.27c-1.493 4.418-3.543 7.826-6.1 10.16a27.197 27.197 0 00-4.36-2.423 6.563 6.563 0 011.439-.538.328.328 0 00.134-.06c3.692-1.06 6.095-4.443 6.135-4.478l.498-.74-.876.193a4.503 4.503 0 01-3.03-.662 6.379 6.379 0 003.612-.95c1.936-1.174 3.443-3.334 4.478-6.434v.871c-.542 7.414-2.796 13.012-6.498 16.455a14.176 14.176 0 00-1.368-1.095c2.572-2.353 4.627-5.787 6.125-10.215zm-15.092 5.552h-.314a.19.19 0 00-.05 0c-.158.1-.323.19-.497.274l-1.682.682a7.06 7.06 0 01-2.87.184l-.115-.025h-.07c-2.93-.498-5.11-2.722-6.025-3.821a5.513 5.513 0 002.87-.901 6.115 6.115 0 00.623-.498c.134-.11.273-.229.423-.343a3.98 3.98 0 014.214-.716c-.094.77-.328 1.706-.328 1.716l-.1.398.408.04.761.08c.757.074 1.3.129 2.334.159h.03a49.077 49.077 0 003.592-.239l.374-.035-.06-.373c0-.025-.105-.657-.224-1.657 2.393-.995 3.538.055 4.478.896a5.105 5.105 0 003.553 1.463c-.836.995-2.722 2.95-5.275 3.657h-.08a4.195 4.195 0 00-.497.13A7.488 7.488 0 0170.6 51.19zm1.543 2.956a4.478 4.478 0 01-1.493.498c-.672-.03-1.761-.588-2.811-1.13-.289-.15-.578-.298-.866-.438a7.777 7.777 0 001.134-.204 27.367 27.367 0 014.05 1.269zM51.82 22.943a4.846 4.846 0 00.134 1.791 18.624 18.624 0 00-1.284 4.837l.214.03a18.49 18.49 0 011.165-4.548 5.593 5.593 0 00.607 1.264 18.022 18.022 0 00-1.339 4.975l.21.03a18.32 18.32 0 011.268-4.786l.17.239a7.3 7.3 0 001.223 1.234 24.5 24.5 0 00-2.184 5.473 4.443 4.443 0 00-1.573-.309 43.984 43.984 0 01-.154-3.572 48.469 48.469 0 01.498-7.086c.298.145.647.284 1.045.428zm-.91-1.164v-2.453c.203.09.427.179.666.268v2.488c-.249-.11-.453-.209-.667-.303zm.875.373v-2.488l.667.224v2.488zm.88.303v-2.487c.21.064.433.124.667.189v2.488zm.876.254v-2.488l.667.165v2.487l-.279-.064zm1.214 5.712c2.488 1.702 7.096 3.225 15.664 3.225s13.235-1.538 15.703-3.254a21.814 21.814 0 012.065 5.756v.035c0 .125-.04.284-.07.498-.89 5.513-2.726 9.26-5.328 10.852a5.593 5.593 0 01-4.324.697c-.93-.811-2.304-1.712-4.692-.802-.344-3.154-.702-8.657.522-11.469.537-.07 1.095-.144 1.677-.229 2.742-.388 5.856-.825 8.513-.353a.354.354 0 00.125-.696c-2.772-.498-5.941-.045-8.738.353-.651.09-1.273.179-1.86.249h-.11l-.055.034a.403.403 0 00-.05.045.219.219 0 00-.04.055v.03c-1.79 3.752-.686 12.166-.407 14.066a46.7 46.7 0 01-3.165.204 27.661 27.661 0 01-2.279-.159l-.363-.04a13.932 13.932 0 00.284-1.701.219.219 0 000-.08.249.249 0 000-.06 534496090000 534496090000 0 00-.07-.11.403.403 0 00-.05-.044l-.06-.04a4.727 4.727 0 00-5.13.702 5.717 5.717 0 01-4.428-.702c-2.612-1.602-4.448-5.334-5.334-10.822-.05-.323-.085-.552-.104-.667a24.938 24.938 0 012.104-5.573zm-.338-5.503V20.43c.259.06.498.115.801.17v2.487zm.995.2v-2.489l.796.145v2.488zm.995.178V20.81l.796.124v2.488zm.995.155v-2.488l.802.104v2.488c-.23-.03-.498-.065-.752-.104zm.996.139v-2.488l.8.095v2.487zm.995.12v-2.49l.8.085v2.488zm.995.109V21.33l.796.075v2.487zm.995.094v-2.488l.796.06v2.488zm.995.08v-2.488l.801.05v2.523zm.995.07V21.54l.801.045v2.527zm.995.06v-2.528l.802.034v2.533zm.996.05v-2.538h.796v2.542zm.995.034v-2.538h.8v2.548zm.995.03v-2.548h.801v2.548zm.995 0v-2.548h.801v2.553h-.8zm.995 0v-2.553h.727v2.553zm.936 0v-2.553h.726v2.553zm.94 0v-2.553h.796v2.548h-.542zm.995 0v-2.548h.801v2.548zm.995 0v-2.548h.801v2.538zm.996-.03v-2.543h.8v2.538zm.995-.04v-2.533l.796-.034v2.527zm.995-.05V21.59l.796-.045v2.523zm.995-.06v-2.522l.801-.05v2.488zm.995-.074v-2.488l.801-.06v2.488zm.995-.084V21.41l.801-.075v2.488c.11.04-.159.04-.433.07zm.995-.095v-2.488l.797-.084v2.487zm.996-.11v-2.487l.8-.095V23.6zm.995-.124v-2.488l.8-.104v2.488zm.995-.144v-2.488l.801-.124V23.3c.18.065-.085.065-.368.12zm.995-.16V20.78c.279-.045.547-.095.801-.145v2.488zm.995-.178V20.6c.274-.055.543-.11.796-.17v2.488zm2.254 3.677v-.03a18.465 18.465 0 011.184 4.577l.21-.03a18.465 18.465 0 00-1.25-4.751 5.926 5.926 0 00.677-1.259 19.067 19.067 0 011.08 4.334l.214-.03a18.908 18.908 0 00-1.19-4.612 4.866 4.866 0 00.2-1.99c.393-.145.746-.284 1.05-.424a47.767 47.767 0 01.497 7.086c0 1.184-.055 2.423-.154 3.677a4.448 4.448 0 00-1.612.303 21.341 21.341 0 00-2.1-5.622 7.434 7.434 0 001.662-1.234zm-.368-4.11v-2.488c.234-.065.458-.125.667-.19v2.489c.239.054.035.119-.2.184zm.88-.264v-2.488c.235-.075.458-.15.662-.224v2.488c.264.06.045.14-.194.204zm.876-.319v-2.487c.24-.09.463-.18.667-.27v2.454c.269.104.045.199-.199.299zm-1.965.642l-.498.125-.174.04V20.39l.667-.165zm3.906 11.494c.562.349.846 1.12.846 2.3 0 3.681-1.423 6.806-3.369 7.547-.741-2.308-.1-7.513.16-9.354.024-.13.04-.264.06-.393.92-.19 2-.562 2.77-.105zm-.398-12.937a6.185 6.185 0 01-.667.384v-2.439a7.464 7.464 0 00.667-.343zm.771-.691a2.373 2.373 0 01-.557.542V18.75a6.155 6.155 0 00.557-.393zm-42.372-3.36a.124.124 0 000-.035.383.383 0 00-.095-.084h-.12c-.074 0-7.463-.97-7.463-4.668C41.058 9.24 62.14.657 69.978.657c7.836 0 29.361 8.553 29.361 11.763 0 3.702-7.38 4.657-7.464 4.667a.333.333 0 00-.258.184.11.11 0 000 .04c0 .035-1.822 3.717-21.182 3.717s-21.167-3.682-21.177-3.707a.498.498 0 00-.055-.085zm.617 3.906a2.14 2.14 0 01-.558-.547v-2.19a5.006 5.006 0 00.558.394zm.214.15v-2.389a6.847 6.847 0 00.666.343v2.443a6.185 6.185 0 01-.199-.383zm2.15 22.679c-1.991-.682-3.454-3.841-3.454-7.573 0-1.18.284-1.956.846-2.3.776-.497 1.93-.059 2.348.12 0 .155.045.319.07.473.727 1.836 1.359 6.941.657 9.295zm.586.497c.423-1.134.498-2.985.418-4.791 1.055 3.085 2.558 5.234 4.478 6.418a6.523 6.523 0 003.643.966 4.568 4.568 0 01-3.06.681l-.876-.194.497.742c.04.054 2.787 3.92 6.917 4.677a.318.318 0 00.094.04 11.638 11.638 0 012.617 1.12c1.18.606 2.294 1.179 3.125 1.203h.025a6.419 6.419 0 002.836-.8c2.095.935 4.394 2.303 5.911 4.199a15.838 15.838 0 01-8.493 2.264 16.659 16.659 0 01-4.782-.732l-.054.204a16.803 16.803 0 004.836.742 16.047 16.047 0 008.633-2.309 7.722 7.722 0 011.234 2.344 16.639 16.639 0 01-9.872 2.985c-7.464 0-11.788-3.98-14.106-7.314-3.458-4.946-4.16-10.813-3.553-12.435zm2.712 11.753c.229.378.463.751.717 1.115 2.418 3.483 6.926 7.618 14.688 7.618a17.34 17.34 0 0010.056-2.986 6.847 6.847 0 01.134 1.334c0 2.184.16 4.727.995 6.737A22.754 22.754 0 0170.42 72.86c-10.45 0-16.097-6.469-16.888-7.464a57.017 57.017 0 001.483-9.19zm17.072 20.231c-.498.03-1.03.055-1.563.055v-2.916c.498 0 .95 0 1.409-.044zm-1.772-2.86v2.915c-.532 0-1.05-.025-1.562-.055l.15-2.905c.462.015.93.034 1.412.034zM55.627 68.44c.333.274.697.548 1.09.831l-1.279 2.488a25.892 25.892 0 01-1.219-.895zm-1.577 2.31a25.382 25.382 0 01-1.15-.966l1.543-2.374c.293.28.637.583 1.02.896zm2.84-1.36c.36.255.742.498 1.15.757l-1.144 2.573a27.122 27.122 0 01-1.279-.826zm1.334.872c.384.228.787.457 1.21.676l-.996 2.632c-.467-.238-.915-.497-1.343-.741zm1.399.77c.398.205.82.404 1.258.598l-.88 2.697c-.498-.21-.94-.433-1.388-.662zm1.453.682c.418.175.85.344 1.298.498l-.736 2.762c-.498-.18-.995-.369-1.438-.568zm1.492.578c.433.149.881.283 1.339.413l-.592 2.806a42.849 42.849 0 01-1.493-.463zm1.543.472c.443.12.9.224 1.368.319l-.448 2.85a25.2 25.2 0 01-1.492-.362zm1.577.364q.682.134 1.388.223l-.303 2.891a34.216 34.216 0 01-1.538-.263zm1.597.253q.687.09 1.403.135l-.154 2.906q-.791-.055-1.552-.15zm-13.006-6.12l-1.543 2.379a22.604 22.604 0 01-1.08-1.025l1.692-2.324c.23.244.543.577.936.96zm-1.234-1.313l.154.179-1.697 2.333a19.301 19.301 0 01-1.15-1.268zm-3.354 1.547c1.11 1.388 8.275 9.703 20.724 9.703a26.64 26.64 0 0014.146-4.036 6.14 6.14 0 002.329.418c2.985 0 4.657-1.254 5.523-3.403l.836.383A24.321 24.321 0 0181.5 79.194a3.483 3.483 0 00-.776-.995l-.13.169a3.26 3.26 0 01.697.9c-.547.19-1.115.364-1.697.528a4.777 4.777 0 00-1.687-1.607l-.09.194a4.478 4.478 0 011.563 1.493c-.388.104-.796.199-1.204.288a5.438 5.438 0 00-.468-.592 4.25 4.25 0 00-6.503 0 5.866 5.866 0 00-.945 1.408c-12.644-.044-19.35-5.652-22.754-10.37l1.671-.76-.044-.21-1.712.782a26.583 26.583 0 01-.935-1.423zm-2.652 6.926c3.752 4.17 10.683 9.12 22.51 9.35a7.678 7.678 0 000 .995l.21 2.537c-14.814-.144-23.412-4.517-28.03-8.2a25.376 25.376 0 01-4.07-4.06l7.265-3.299a27.088 27.088 0 002.12 2.667zm-3.13-4.249c.274.453.577.93.906 1.413l-7.28 3.309c-.368-.473-.686-.92-.96-1.329zm-9.951 4.598c.258.413.557.86.905 1.338l-7.508 3.408.09.194 7.548-3.433c3.98 5.364 13.618 13.738 35 13.868l.298 3.547c-32.447-.07-42.16-12.544-43.956-15.395zm-8.18 7.508c4.478 5.125 16.39 14.23 44.751 14.23l.045.538a3.622 3.622 0 00-2.254 2.985c-22.057-.273-35.089-4.478-42.517-8.424a293.819 293.819 0 01-.01-9.339zm26.008 36.452a3.25 3.25 0 01.244.816l-2.488-.214a2.314 2.314 0 000-.542l-.025-.1-4.085-4.085 2.433.194zm-3.613-3.906c.797.055 1.603.115 2.414.165l2.488 2.463c.06.189.452 1.492.124 2.179l-.936-.07a3.553 3.553 0 00-.273-.94zm-3.09-3.1l-1.99-1.99c-1.468-1.468-4.095-1.114-4.548-1.04-.159-.204-.796-.995-1.662-2.105q1.419.26 2.926.498l.184.219.04.04h.055s2.622-.23 4.125 1.274l3.324 3.323q-1.24-.114-2.439-.229zm-7.642 35.064a90.676 90.676 0 01-.309 2.12h-2.11c.115-1.229.21-2.413.284-3.562a1.826 1.826 0 01.567 1.298v.1zm-1.354-.248a1.99 1.99 0 00-.497-1.185l1.99.075c-.045.378-.094.761-.144 1.144zm-.646-4.01c.08-2.35.07-4.519 0-6.524a58.153 58.153 0 002.667-.259c.044 2.16 0 4.449-.21 6.867zm-.19-9.34a59.234 59.234 0 00-.577-4.832 23.809 23.809 0 002.747-.497c.249 1.592.438 3.274.557 5.055-.413.055-1.348.164-2.727.274zm-1.1-7.598a41.443 41.443 0 00-1.283-4.618c.443-.06.886-.134 1.314-.214l2.224 2.225c.179.676.343 1.378.497 2.104a20.216 20.216 0 01-2.751.503zm-1.736-7.4l-.632.075a19.002 19.002 0 00-3.06-4.906q.393 0 .747-.044l3.15 2.667a3.622 3.622 0 00-.294 1.423 3.772 3.772 0 00.09.786zM23.688 107.5a6.25 6.25 0 01-2.284-4.369 3.737 3.737 0 011.025-2.84 3.682 3.682 0 012.647-1.026h.174a5.97 5.97 0 013.443 1.378c.588 1.956-1.89 3.931-1.92 3.951a.353.353 0 00.219.627.333.333 0 00.219-.074c.1-.08 2.184-1.732 2.274-3.737a1.647 1.647 0 01.129.134l.547.647a.289.289 0 000 .094c.498 1.96-1.85 3.802-1.876 3.822a.353.353 0 00-.064.497.353.353 0 00.278.135.378.378 0 00.214-.07c.095-.075 2.06-1.607 2.21-3.568l.736.871a.134.134 0 000 .045c.333 1.93-1.831 3.587-1.856 3.607a.353.353 0 00.423.563c.09-.07 1.92-1.493 2.15-3.374l.786.93c.149 1.911-1.817 3.38-1.836 3.394a.353.353 0 00.209.637.338.338 0 00.209-.07c.08-.06 1.776-1.318 2.084-3.174l.836.995c-.064 1.856-1.8 3.12-1.82 3.13a.358.358 0 00-.08.497.348.348 0 00.288.15.353.353 0 00.204-.065 5.533 5.533 0 002.025-2.986l.876 1.04a4.657 4.657 0 01-1.791 2.881.353.353 0 00-.09.498.353.353 0 00.498.094 5.434 5.434 0 001.99-2.786l.916 1.085a4.702 4.702 0 01-1.757 2.627.353.353 0 00-.104.497.348.348 0 00.293.164.343.343 0 00.194-.06 5.27 5.27 0 001.916-2.577l.497.568s.379.691-1.617 2.686c-1.995 1.996-2.682 1.623-2.691 1.618zm-.458.537l2.956 2.488a46.13 46.13 0 01-11.743-1.99 30.352 30.352 0 01-.164-7.215 49.996 49.996 0 006.423 1.796 6.966 6.966 0 002.528 4.921zm3.98-12.25a2.786 2.786 0 01.732.055 65.86 65.86 0 002.08.86 10.046 10.046 0 011.776 1.439c1.314 1.313 3.349 3.582 5.06 5.533l-1.388-.27a.438.438 0 00-.318-.447.408.408 0 00-.498.289l-.617-.13-.423-.497a.557.557 0 000-.558.498.498 0 00-.656-.204c-.299-.343-.588-.676-.871-.995a.388.388 0 00-.12-.134 39.447 39.447 0 00-1.343-1.438 6.31 6.31 0 00-2.816-1.702.498.498 0 00.328-.268.557.557 0 00-.209-.727.498.498 0 00-.682.224.557.557 0 00.15.677 5.11 5.11 0 00-1.384-.08c-.054-.82-.094-1.657-.134-2.488.458.224.936.448 1.423.667h-.15zm4.28 6.324a.567.567 0 00-.687-.268l-.637-.752c-.11-.13-.229-.249-.348-.373a.602.602 0 00.343-.731.547.547 0 00-.696-.393.577.577 0 00-.379.457 7.31 7.31 0 00-.875-.592.632.632 0 000-.1.498.498 0 00-.572-.442.498.498 0 00-.25.134 6.518 6.518 0 00-1.268-.383l-.075-1.05a5.573 5.573 0 014.454 1.816c.343.344.736.762 1.154 1.224a.443.443 0 00-.304.334.453.453 0 00.319.532.408.408 0 00.498-.303c.218.243.442.497.671.766a.557.557 0 00-.05.612.498.498 0 00.692.189l.234.274a70.415 70.415 0 01-2.17-.498.687.687 0 00-.05-.453zm6.657 8.404l-3.736-4.413c.701.144 1.423.283 2.159.418a178.944 178.944 0 011.851 2.343l.04.05h.064c.03 0 2.926-.527 4.424.995l1.816 1.816c-.836-.074-1.662-.154-2.488-.238l-.104-.1a3.747 3.747 0 00-4.02-.87zm-.955-6.777c-1.751-1.99-3.886-4.383-5.25-5.747a11.603 11.603 0 00-1.104-.995c8.17 3.07 20.137 5.628 37.462 5.837v3.552c-12.772-.099-22.983-1.149-31.108-2.647zM25.34 97.505a1.214 1.214 0 00-.15.04l.07.199.095-.025c0 .283.034.567.06.84h-.12a4.413 4.413 0 00-3.364 1.23 4.18 4.18 0 00-.497.612 46.593 46.593 0 01-6.727-1.901 28.63 28.63 0 012.298-6.822 24.715 24.715 0 008.166 2.563c.044 1.11.08 2.214.169 3.264zm-4.026-15.923a13.504 13.504 0 011.09-.92 3.796 3.796 0 002.662.995h.025a259.583 259.583 0 000 9.683 21.893 21.893 0 01-6.737-2.175 25.137 25.137 0 014.374-5.473l-.135-.16a25.103 25.103 0 00-4.423 5.524 11.713 11.713 0 01-1.851-1.289 29.476 29.476 0 014.995-6.155zm-6.379 8.713a15.126 15.126 0 001.886 1.254 28.76 28.76 0 00-2.313 6.846 34.198 34.198 0 01-2.29-.945 40.617 40.617 0 012.717-7.125zm-3.408 9.951a32.74 32.74 0 002.548.996 30.352 30.352 0 00.149 7.224 55.407 55.407 0 01-3.767-1.283v.04a60.38 60.38 0 011.07-6.962zm-1.304 9.867c7.235 2.647 13.097 3.27 16.968 3.27.443 0 .86 0 1.254-.026a18.28 18.28 0 013.12 4.921c-8.783.921-20.62-1.776-21.451-1.99-.04-1.99-.01-4.065.11-6.16zm.274 13.196a99.054 99.054 0 01-.288-4.085c2.487.542 10.07 2.07 17.33 2.07a39.602 39.602 0 005.11-.309 40.304 40.304 0 011.289 4.618 75.308 75.308 0 01-9.578.433c-3.483 0-13.554-1.448-13.743-1.493q-.07-.592-.12-1.22zm1.204 9.255a121.847 121.847 0 01-.751-5.11c2.443.343 10.235 1.388 13.4 1.403H25a76.457 76.457 0 009.454-.498c.234 1.468.433 3.07.577 4.822a99.462 99.462 0 01-9.478.224 112.213 112.213 0 01-13.808-1.165zm1.891 9.155v.095c-.468-1.956-.955-4.2-1.418-6.648.438.06 1.03.144 1.761.229a.433.433 0 00.498.249.418.418 0 00.239-.16l.637.07a.612.612 0 00.248.354.632.632 0 00.876-.175.304.304 0 000-.06c2.423.244 5.553.498 9.046.558.896.025 1.757.03 2.573.03 2.945 0 5.363-.12 7.145-.249a78.38 78.38 0 010 6.493l-18.122-.661a.572.572 0 00-.134-.135.622.622 0 00-.806.105l-.687-.025a.164.164 0 000-.05.448.448 0 00-.537-.333.453.453 0 00-.339.353zm.702 2.911c1.12.075 2.074.144 2.701.194a.358.358 0 00-.094.264.368.368 0 00.388.348.373.373 0 00.353-.388.358.358 0 00-.07-.18h.264l.035-.044.13-.144 2.164.08a7.11 7.11 0 00-2.428 2.11c-.274-.03-1.408-.17-2.926-.34a46.98 46.98 0 01-.508-1.885zM6.84 156.542a6.255 6.255 0 01-4.697-1.493 3.538 3.538 0 010-5.473 5.97 5.97 0 013.413-1.458c1.796.995 1.433 4.115 1.433 4.145a.353.353 0 00.304.393h.045a.348.348 0 00.348-.309c0-.134.318-2.776-1.035-4.259h.189l.85.07a.274.274 0 00.07.06c1.747 1.02 1.379 3.98 1.374 4.03a.353.353 0 00.303.393h.045a.348.348 0 00.348-.309c0-.119.324-2.592-.955-4.08l1.135.09s0 .025.03.035c1.602 1.13 1.243 3.831 1.238 3.861a.353.353 0 00.299.398h.05a.358.358 0 00.353-.304c0-.109.318-2.393-.866-3.9l1.214.099c1.453 1.244 1.1 3.672 1.1 3.697a.348.348 0 00.294.403h.084a.358.358 0 00.348-.299c0-.104.319-2.194-.77-3.721l1.288.11c1.269 1.357.935 3.482.93 3.482a.358.358 0 00.289.408h.06a.358.358 0 00.348-.293 5.508 5.508 0 00-.677-3.538l1.359.11a4.667 4.667 0 01.766 3.303.353.353 0 00.284.408h.064a.358.358 0 00.349-.288 5.443 5.443 0 00-.578-3.359l1.413.12a4.717 4.717 0 01.617 3.1.353.353 0 00.27.417h.074a.353.353 0 00.343-.278 5.29 5.29 0 00-.468-3.185l.747.065s.756.219.756 3.045-.751 3.045-.761 3.045zm25.953 1.249H22.528a2.9 2.9 0 01-2.607-1.627l.946-.08a.86.86 0 00.617-.288c.547-.538.826-1.702.826-3.459 0-1.756-.28-2.92-.826-3.458a.925.925 0 00-.593-.293l-.92-.075a3.04 3.04 0 011.945-1.532c2.344 1.114 2.145 5.294 2.145 5.339a.353.353 0 00.333.373.348.348 0 00.349-.334c0-.174.189-3.756-1.722-5.473h.866a.299.299 0 00.065.045c2.453 1.045 2.239 5.349 2.239 5.394a.358.358 0 00.333.373.358.358 0 00.353-.334c0-.174.184-3.756-1.726-5.473h.865a.299.299 0 00.065.045c2.453 1.045 2.244 5.349 2.24 5.394a.358.358 0 00.333.373.353.353 0 00.353-.334c0-.174.184-3.756-1.722-5.473h.861a.299.299 0 00.065.045c2.453 1.045 2.244 5.349 2.239 5.394a.358.358 0 00.333.373.353.353 0 00.354-.334c0-.174.184-3.756-1.722-5.473h.86a.333.333 0 00.07.045c2.449 1.045 2.24 5.349 2.24 5.394a.353.353 0 00.328.373h.025a.348.348 0 00.348-.334c0-.174.19-3.756-1.721-5.473h1.164c.328.289 1.637 1.682 1.637 5.473 0 3.792-1.234 5.13-1.558 5.414zm1.911-8.882c-.582-1.99-1.537-2.637-1.597-2.677l-.085-.06h-10.36a3.752 3.752 0 00-3.442 2.28l-2.185-.185a.368.368 0 00-.363-.248.373.373 0 00-.299.194l-1.12-.095c-.114-.388-.238-.83-.382-1.333 1.682.184 2.876.333 2.906.338h.064l.035-.055s1.19-1.711 2.816-2.264l14.4.523a110.424 110.424 0 01-.283 3.572zm.17 6.15a14.176 14.176 0 000-5.443h.825a4.742 4.742 0 01.498 2.677.353.353 0 00.303.393h.045a.358.358 0 00.353-.309 5.633 5.633 0 00-.398-2.766h1.19a4.647 4.647 0 01.497 2.677.353.353 0 00.304.393h.05a.358.358 0 00.188-.065c0 .448 0 .89.035 1.334h-2.567v.209h2.572c0 .298.045.592.07.89zm3.905-4.607a4.145 4.145 0 00-.283-.836h.348c-.005.278-.035.557-.05.836zm-4.91-30.984a2.91 2.91 0 01-.852-2.06 2.851 2.851 0 01.16-.94l.721.616a.925.925 0 00.647.23c.766 0 1.781-.628 3.015-1.862 1.234-1.234 1.866-2.264 1.861-3.03a.91.91 0 00-.214-.622l-.587-.697a3.04 3.04 0 012.453.289c.86 2.443-2.234 5.254-2.264 5.284a.353.353 0 00.234.617.343.343 0 00.234-.09c.13-.114 2.791-2.527 2.657-5.09l.612.608a.204.204 0 000 .08c.995 2.487-2.2 5.368-2.23 5.398a.348.348 0 00-.03.497.358.358 0 00.265.115.343.343 0 00.233-.09c.13-.114 2.792-2.522 2.652-5.09l.612.612a.448.448 0 000 .08c.996 2.488-2.194 5.364-2.229 5.393a.353.353 0 000 .498.343.343 0 00.264.12.363.363 0 00.234-.09c.13-.115 2.786-2.528 2.652-5.09l.612.607a.498.498 0 000 .084c.995 2.488-2.2 5.364-2.23 5.394a.353.353 0 00-.029.498.373.373 0 00.264.119.328.328 0 00.234-.095c.129-.114 2.791-2.522 2.657-5.09l.612.612a.15.15 0 000 .08c.995 2.488-2.2 5.369-2.234 5.394a.353.353 0 00-.025.497.343.343 0 00.263.12.353.353 0 00.234-.09c.13-.114 2.792-2.528 2.652-5.09l.826.82c.025.439-.03 2.35-2.702 5.021-2.672 2.672-4.587 2.727-5.015 2.697zm7.697 18.908c.03-.797.05-1.613.05-2.449l1.054.11a50.586 50.586 0 00-1.09 2.358zm2.632-5.016l-2.637-.279a51.978 51.978 0 00-.433-4.861c1.637.249 3.339.498 5.09.707l.677.676a35.86 35.86 0 00-2.682 3.777zm4.647-6.717a.353.353 0 00-.065.497.348.348 0 00.234.13c-.313.318-.627.642-.93.995l-1.826-1.826-.15.149 1.837 1.836c-.2.219-.394.448-.588.672l-2.81-2.817a14.26 14.26 0 003.845-3.85l.563.562a4.677 4.677 0 01-1.543 2.244.358.358 0 00-.065.497.343.343 0 00.284.14.348.348 0 00.214-.075 5.563 5.563 0 001.677-2.24l.866.867a4.707 4.707 0 01-1.528 2.239zm1.682-.831a4.254 4.254 0 00.428-.851l.254.259zm1.219-1.055l-2.612-2.622c1.09.1 2.199.189 3.338.273l.996 1.06c-.588.408-1.155.856-1.707 1.309zm1.87-1.433l-.86-.91c.652.05 1.309.094 1.99.134-.378.268-.746.532-1.134.796zm17.416-6.568a35.427 35.427 0 00-11.713 3.21q-3.05-.145-5.916-.349c.328-.836-.13-2.214-.154-2.284L50.9 114.98c5.971.383 12.604.602 19.903.602h.224zm0-3.98h-.219c-8.598 0-16.21-.31-22.958-.832l-3.483-3.483a4.24 4.24 0 00-1.423-.915 201.518 201.518 0 0025.376 1.692v1.671l.06.09c.035.06.692.995 2.672 1.592zm6.155 3.94c-.284 0-.557-.05-.84-.06a4.339 4.339 0 00.84-.293zm0-3.174a4.722 4.722 0 01-2.677.497.343.343 0 00-.398.299.353.353 0 00.304.398 4.573 4.573 0 00.616.035 5.25 5.25 0 002.155-.438v1.229a4.722 4.722 0 01-2.677.497.343.343 0 00-.398.304.368.368 0 00.06.239c-.448 0-.891 0-1.334.034v-2.567h-.209v2.572c-.298 0-.592.045-.89.065v-3.98a14.2 14.2 0 005.448 0zm2.378 3.433c-.557-.08-1.114-.15-1.676-.204v-1.25l1.721-.034zm2.115.363a33.846 33.846 0 00-1.906-.338l.045-1.518 1.896-.055zm.21.05l.039-1.99c8.528-.28 15.957-.876 22.416-1.682l-4.752 4.752q-5.006.656-10.847 1.104a35.129 35.129 0 00-6.847-2.164zm11.528 4.667q3.408-.328 6.518-.731l.244.497-2.986 2.986a35.74 35.74 0 00-3.776-2.752zm8.17 7.036c-.194-.23-.388-.463-.592-.687a4.389 4.389 0 00.85.428zm-1.423-2.364a.348.348 0 00-.498-.064.363.363 0 00-.134.228 28.387 28.387 0 00-.97-.925l1.826-1.826-.15-.15-1.845 1.832c-.224-.2-.448-.388-.677-.583l2.816-2.816a13.435 13.435 0 001.742 2.11 13.156 13.156 0 002.11 1.741l-.558.558a4.677 4.677 0 01-2.249-1.538.353.353 0 00-.557.428 5.563 5.563 0 002.239 1.677l-.886.866a4.677 4.677 0 01-2.229-1.538zm2.896 4.18a50.8 50.8 0 01.328-2.617l.354-.354a27.26 27.26 0 002.453.423c-.08.498-.16 1.055-.234 1.612l-.07-.07-2.115 1.991c-.263-.328-.492-.662-.736-.985zm2.423 2.274l-.91-.08a33.666 33.666 0 00-.682-1.035l1.99-1.88.05.034a68.303 68.303 0 00-.299 2.816zm3.319 9.225a35.054 35.054 0 00-2.518-6.34c.821.055 1.757.105 2.797.145a98.437 98.437 0 000 6.185zm-2.986-9.2a.353.353 0 000-.07l1.528-1.493c.498.393 1.408.284 1.99.15q-.074.776-.134 1.582a90.132 90.132 0 01-3.394-.17zm3.483 3.015q1.603.05 3.508.055c.821 0 1.677 0 2.573-.03 3.846-.09 7.244-.363 9.757-.627a.736.736 0 001.379-.154c.93-.11 1.671-.21 2.194-.284-.458 2.448-.95 4.692-1.418 6.648v-.095l-1.871.065a.532.532 0 00-.637-.04.463.463 0 00-.07.07l-15.385.557c-.12-2.21-.12-4.26-.06-6.165zm.816 18.838c0-.279.05-.557.065-.836a4.145 4.145 0 00.284.836zm3.981 0h-.791a4.652 4.652 0 01-.498-2.677.353.353 0 00-.303-.393.348.348 0 00-.398.299 5.588 5.588 0 00.398 2.771h-1.224a4.722 4.722 0 01-.498-2.677.343.343 0 00-.303-.393.338.338 0 00-.24.055q0-.662-.029-1.329h2.568v-.214H110.2c0-.298-.045-.592-.065-.885h3.981a14.176 14.176 0 000 5.443zm-4.02-6.15a36.323 36.323 0 00-.548-3.707l15.276-.557a.438.438 0 00.806-.03l.995-.035c-.15.572-.293 1.105-.428 1.592h-1.711a.363.363 0 00-.707 0h-7.852l-.09.06c-.054.04-.995.697-1.592 2.677zm16.952 8.802c-2.344-1.114-2.15-5.299-2.145-5.339a.353.353 0 00-.333-.373.363.363 0 00-.373.333c0 .175-.184 3.757 1.726 5.474h-.865a.299.299 0 00-.065-.045c-2.453-1.04-2.244-5.344-2.24-5.389a.354.354 0 00-.706-.04c0 .175-.184 3.757 1.722 5.474h-.86a.299.299 0 00-.066-.045c-2.453-1.04-2.244-5.344-2.239-5.389a.354.354 0 00-.706-.04c0 .175-.184 3.757 1.721 5.474h-.86a.333.333 0 00-.07-.045c-2.448-1.04-2.24-5.344-2.24-5.389a.348.348 0 00-.328-.373.353.353 0 00-.373.333c0 .175-.189 3.757 1.722 5.474h-.866a.299.299 0 00-.065-.045c-2.453-1.04-2.239-5.344-2.239-5.389a.353.353 0 10-.701-.04c0 .175-.19 3.757 1.721 5.474h-1.164c-.328-.284-1.642-1.677-1.642-5.474 0-3.796 1.319-5.174 1.642-5.473h10.28a2.916 2.916 0 012.607 1.632l-.945.075a.876.876 0 00-.617.293c-.553.538-.831 1.697-.831 3.458 0 1.762.278 2.921.83 3.459a.886.886 0 00.593.288l.92.08a3.055 3.055 0 01-1.945 1.567zm19.759-2.627a5.97 5.97 0 01-3.414 1.458c-1.796-.965-1.438-4.115-1.433-4.145a.354.354 0 00-.701-.09c0 .13-.319 2.772 1.035 4.255h-.184l-.851-.07a.443.443 0 00-.07-.065c-1.746-1.02-1.378-3.98-1.373-4.025a.348.348 0 00-.304-.393.353.353 0 00-.398.298c0 .125-.318 2.593.955 4.086l-1.134-.095a.17.17 0 00-.03-.03c-1.597-1.13-1.239-3.836-1.234-3.861a.354.354 0 00-.701-.1c0 .11-.319 2.394.865 3.901l-1.214-.1c-1.453-1.243-1.104-3.676-1.1-3.696a.348.348 0 00-.293-.403.348.348 0 00-.403.293c0 .1-.318 2.195.771 3.722l-1.288-.11c-1.27-1.358-.936-3.482-.93-3.482a.358.358 0 00-.29-.408.353.353 0 00-.408.288 5.508 5.508 0 00.677 3.538l-1.358-.13a4.712 4.712 0 01-.771-3.303.353.353 0 10-.692-.13 5.404 5.404 0 00.577 3.36l-1.413-.12a4.722 4.722 0 01-.617-3.1.354.354 0 00-.692-.15 5.364 5.364 0 00.468 3.18l-.741-.06s-.757-.219-.757-3.045.747-3.045.762-3.045l13.991-1.164a6.29 6.29 0 014.698 1.492 3.548 3.548 0 010 5.474zm-17.739-5.11v.214l12.5-.791v-.21zm-4.01-9.583a.448.448 0 00-.871-.204.443.443 0 00.328.537.453.453 0 00.543-.348zm1.786 7.841a.254.254 0 01.06.184l.204.055a.428.428 0 00-.09-.358c-.224-.299-.791-.453-1.687-.453h-8.623v.214h8.623c1.07-.015 1.408.21 1.513.343zM24.822 107.158l9.385 8.26.139-.16-9.394-8.284zm-1.492-5.971l-.15-.15c-1.721 1.722.18 4.668.2 4.698l.173-.12c-.024-.03-1.836-2.831-.233-4.433zm15.355 11.076zM56.423 60.36l-.214-.03-.756 5.727h.209zm-29.56 30.521a.348.348 0 00.392.308.368.368 0 00.289-.422.353.353 0 00-.393-.309.363.363 0 00-.269.423zm2.268 6.916a.368.368 0 00.289-.418.353.353 0 00-.398-.308.363.363 0 00-.289.418.348.348 0 00.418.308zm-12.499 48.564a.542.542 0 10-.751.154.547.547 0 00.771-.154zm10.21-57.077a.498.498 0 00.384-.558.463.463 0 00-.523-.403.498.498 0 00-.378.553.458.458 0 00.517.408zm-13.036 39.567a.373.373 0 00-.348.393.369.369 0 00.736-.04.373.373 0 00-.388-.353zm.935 11.38a.746.746 0 00.782.701.741.741 0 00.701-.776.746.746 0 00-.781-.702.741.741 0 00-.692.786zm.996-2.727a.747.747 0 00-1.493.074.741.741 0 00.781.702.731.731 0 00.726-.766zm-.936-6.897a.443.443 0 00-.333.538.448.448 0 10.333-.538zm2.588 8.534a.632.632 0 10-.876.174.632.632 0 00.856-.174zm83.592 6.05a27.297 27.297 0 01.95 7.145h.214a27.675 27.675 0 00-.955-7.195zm4.478-1.11a32.009 32.009 0 011.08 8.255h.214a32.248 32.248 0 00-1.09-8.31zm-1.493.369a30.551 30.551 0 011.035 7.886h.214a30.69 30.69 0 00-1.045-7.936zm2.986-.742a33.596 33.596 0 011.124 8.628h.214a33.736 33.736 0 00-1.134-8.677zm-4.478 1.115a28.81 28.81 0 01.995 7.513h.214a29.232 29.232 0 00-.995-7.568zm25.068-14.042a.368.368 0 10-.349-.388.363.363 0 00.334.388zm-53.057-3.229A24.635 24.635 0 0051.1 159.98h.747a23.714 23.714 0 01-1.04-4.214h.87a22.953 22.953 0 001.075 4.214h.224a22.888 22.888 0 01-1.085-4.214h.876a21.724 21.724 0 001.125 4.214h.76a21.037 21.037 0 01-1.168-4.214h6.796a15.151 15.151 0 002.03 3.9l-.313.314h1.448a14.33 14.33 0 1122.087 0h1.418l-.318-.313a15.012 15.012 0 002.035-3.901h6.797a21.396 21.396 0 01-1.17 4.214h.757a21.734 21.734 0 001.13-4.214h.875a22.888 22.888 0 01-1.085 4.214h.224a23.386 23.386 0 001.075-4.214h.87a23.714 23.714 0 01-1.04 4.214h.747a24.635 24.635 0 00-23.386-32.427zm3.428.95a23.799 23.799 0 0110.977 4.583l-.617.617a23.033 23.033 0 00-10.36-4.324zm0 1.09a22.764 22.764 0 0110.206 4.264l-.622.622a21.893 21.893 0 00-9.584-4.005zm8.25 4.817c-1.542.12-3.07.234-4.567.333l.044-2.592a20.998 20.998 0 014.508 2.259zm-30.91 3.543l.623.621a22.938 22.938 0 00-4.254 10.335h-.871a23.839 23.839 0 014.488-10.956zm-2.527 10.946h-.87a22.764 22.764 0 014.17-10.185l.621.622a21.893 21.893 0 00-3.936 9.573zm4.429-9.056l2.771 2.772h-4.453a20.35 20.35 0 011.667-2.762zm-1.463 8.46a.358.358 0 00-.363.352.383.383 0 00.064.224H54.01a.353.353 0 00-.328-.383.333.333 0 00-.204.065c.08-.453.174-.906.278-1.349l6.09.16a14.007 14.007 0 00-.278 1.527H55.93a.328.328 0 00.07-.194.353.353 0 00-.324-.373zm-5.14 4.308a.308.308 0 00.13.045h.049a.353.353 0 00.348-.309 5.573 5.573 0 00-.398-2.766h1.224a4.717 4.717 0 01.498 2.677.348.348 0 00.303.393h.045a.353.353 0 00.348-.309 5.568 5.568 0 00-.398-2.766h1.224a4.717 4.717 0 01.498 2.677.353.353 0 00.304.393h.044a.353.353 0 00.349-.309 5.568 5.568 0 00-.398-2.766h1.224a4.717 4.717 0 01.497 2.677.353.353 0 00.304.393h.045a.348.348 0 00.348-.309 5.568 5.568 0 00-.398-2.766h1.229a4.742 4.742 0 01.497 2.677.353.353 0 00.304.393h.045a.348.348 0 00.348-.309 5.538 5.538 0 00-.393-2.766h.721c-.03.413-.054.826-.054 1.249a15.116 15.116 0 00.323 3.095h-9.165c-.03-.383-.05-.821-.06-1.264zm.164 2.418a25.812 25.812 0 01-.09-.89h9.2c.065.303.145.597.23.89zm9.2-7.886l-6.09-.164c.134-.528.293-1.05.463-1.563h6.18a14.534 14.534 0 00-.568 1.757zm1.622-3.931l-5.846-5.852c.184-.233.373-.462.567-.691l5.767 5.767c-.19.283-.348.542-.503.806zm2.647-3.314a15.365 15.365 0 00-2.035 2.364l-5.752-5.752q.458-.528.94-1.03a.368.368 0 00.07.243.358.358 0 00.28.14.348.348 0 00.213-.075 5.652 5.652 0 001.677-2.239l.866.866a4.717 4.717 0 01-1.538 2.244.358.358 0 00-.065.497.353.353 0 00.28.135.343.343 0 00.213-.07 5.652 5.652 0 001.677-2.239l.866.866a4.717 4.717 0 01-1.538 2.244.348.348 0 00-.065.497.343.343 0 00.28.14.378.378 0 00.213-.07 5.652 5.652 0 001.677-2.24l.866.867a4.717 4.717 0 01-1.538 2.244.348.348 0 00-.065.497.343.343 0 00.28.14.378.378 0 00.213-.07 5.652 5.652 0 001.677-2.24l.866.867a3.483 3.483 0 01-.573 1.204zm-2.065-5.025c.428-.309.871-.603 1.324-.876l.945.995zm3.553 3.816l-.856-.85 2.03.079a15.6 15.6 0 00-1.174.77zm-.995-3.682l-1.065-1.12a19.191 19.191 0 011.9-.995l2.165 2.234c-.945-.035-1.95-.07-2.98-.12zm6.344.154h-.264c-.88 0-1.81 0-2.781-.04l-2.26-2.333a21.197 21.197 0 015.31-1.598zm0-4.687a21.928 21.928 0 00-9.583 4.005l-.622-.622a22.789 22.789 0 0110.21-4.264zm0-1.095a23.013 23.013 0 00-10.354 4.324l-.588-.617a23.804 23.804 0 0110.947-4.582zm1.597 6.568a17.34 17.34 0 00-.89.135v-7.668c.293-.03.592-.06.89-.08zm4.558-6.195a4.722 4.722 0 01-2.677.498.343.343 0 00-.398.304.348.348 0 00.304.393 4.573 4.573 0 00.617.034 5.234 5.234 0 002.154-.432v1.229a4.652 4.652 0 01-2.677.497.348.348 0 00-.398.304.353.353 0 00.304.398c.024 0 .263.03.617.03a5.234 5.234 0 002.154-.433v1.254a4.652 4.652 0 01-2.677.497.354.354 0 00-.094.702 4.573 4.573 0 00.617.035 5.25 5.25 0 002.154-.438v1.194a3.528 3.528 0 01-.358.189 14.868 14.868 0 00-2.369-.19 14.564 14.564 0 00-1.622.09v-7.587a24.99 24.99 0 011.493-.06.343.343 0 00-.209.273.348.348 0 00.304.394 4.573 4.573 0 00.617.034 5.32 5.32 0 002.154-.433zm1.846 5.145l-1.144.06v-3.767c.423.07.836.15 1.249.244zm2.324-.144c-.712.05-1.418.09-2.11.13l.1-3.399a20.4 20.4 0 012.06.597zm.12 2.821c1.024-.07 2.069-.139 3.119-.219l-1.334 1.334a14.688 14.688 0 00-1.776-1.115zm3.034 2.12a18.956 18.956 0 00-.681-.577l5.617-5.593c.234.19.463.378.687.572zm2.901 3.548c-.03-.05-.06-.1-.084-.15l.164.065zm1.314 2.89c-.075-.233-.16-.457-.244-.686h.965zm6.01 2.04a.562.562 0 00-.81.085.667.667 0 00-.09.662h-.647a.438.438 0 00.04-.229.428.428 0 00-.463-.393.448.448 0 00-.368.498.363.363 0 00.04.124h-1.27a.552.552 0 00-.153-.567.498.498 0 00-.712.065.552.552 0 00-.09.497h-.666l3.567-3.483h.12a.468.468 0 00-.164.398.423.423 0 00.462.388.438.438 0 00.368-.497.453.453 0 00-.149-.294h.926c.045.125.084.244.124.363a.403.403 0 00-.05.045.662.662 0 00.065.886.537.537 0 00.294.13c.169.666.313 1.348.418 2.04h-.608a.647.647 0 00-.164-.717zm-1.99-5.547l.498-.498c.084.16.164.319.244.498zm-.428-3.28l.617-.621a22.769 22.769 0 014.175 10.185h-.87a21.893 21.893 0 00-3.917-9.563zm.826 2.613l-.711.667h-3.404l2.777-2.772a20.898 20.898 0 011.343 2.105zm-3.373 3.483h3.035l-3.394 3.314a.085.085 0 010-.025.388.388 0 00-.109-.284 14.385 14.385 0 00-.498-2.08zm8.633 6.598a.313.313 0 00-.14-.05.343.343 0 00-.393.299 5.608 5.608 0 00.368 2.706v.065H97.04a4.722 4.722 0 01-.497-2.677.348.348 0 00-.304-.393.343.343 0 00-.393.299 5.588 5.588 0 00.398 2.771H95.02a4.722 4.722 0 01-.498-2.677.348.348 0 00-.303-.393.343.343 0 00-.393.299 5.623 5.623 0 00.393 2.771h-1.224a4.747 4.747 0 01-.498-2.677.348.348 0 00-.303-.393.353.353 0 00-.398.299 5.652 5.652 0 00.398 2.771H90.97a4.652 4.652 0 01-.498-2.677.354.354 0 00-.701-.094 5.588 5.588 0 00.398 2.771h-1.23l-.03-.05a15.007 15.007 0 00.588-4.144v-.15h8.897v1.324zm-.06-1.538h-8.857c0-.298-.025-.592-.05-.885h8.832c.05.293.07.592.095.885zm-.17-1.592H97.3a22.993 22.993 0 00-4.234-10.335l.617-.621a23.73 23.73 0 014.503 10.956zm-5.801-10.603a4.712 4.712 0 01-2.244-1.543.353.353 0 00-.498-.064.363.363 0 00-.07.497 5.642 5.642 0 002.245 1.677l-.866.856a4.712 4.712 0 01-2.244-1.543.353.353 0 00-.498-.064.348.348 0 00-.064.497 5.473 5.473 0 002.239 1.677l-.866.87a4.707 4.707 0 01-2.25-1.542.353.353 0 00-.556.428 5.473 5.473 0 002.239 1.677l-.866.866a4.2 4.2 0 01-1.9-1.155 15.086 15.086 0 00-1.494-1.597l5.603-5.602c.348.308.692.627 1.025.955a.333.333 0 00-.244.065.363.363 0 00-.07.497 5.652 5.652 0 002.24 1.677zm17.166-30.85a.378.378 0 00.19-.497.343.343 0 00-.453-.2.378.378 0 00-.19.498.338.338 0 00.453.2zm-39.746 2.642h.214v-8.613c0-1.065.224-1.403.358-1.492a.214.214 0 01.184-.055l.055-.204a.413.413 0 00-.358.084c-.299.224-.453.797-.453 1.687zm56.972 19.784a.537.537 0 10-.746-.15.532.532 0 00.746.15zm-16.21-23.59a.383.383 0 00.188-.498.338.338 0 00-.452-.199.378.378 0 00-.19.498.338.338 0 00.473.199zM74.45 79.786c-2.433 0-3.17 3.423-3.18 3.483l.21.045c0-.035.706-3.294 2.985-3.294zm51.748 52.245a.498.498 0 10-.463-.497.498.498 0 00.488.487zM71.286 85.26l.786 12.5h.209l-.756-12.51zm28.162 60.306a25.77 25.77 0 01.936 6.772h.214a26.187 26.187 0 00-.91-6.826zm-25.003-23.749a30.352 30.352 0 019.34 1.468l.045-.209a30.64 30.64 0 00-9.385-1.493zm0 1.538a28.894 28.894 0 019.011 1.443l.045-.21a29.009 29.009 0 00-9.056-1.447zm0 3.075a25.78 25.78 0 018.35 1.388l.05-.21a26.058 26.058 0 00-8.4-1.387zm0-1.538a27.367 27.367 0 018.678 1.413l.05-.204a27.536 27.536 0 00-8.728-1.418zm0-4.612a31.845 31.845 0 019.668 1.492l.045-.209a32.138 32.138 0 00-9.713-1.492zm10.041-.23a33.651 33.651 0 00-10.04-1.522v.214a33.512 33.512 0 0110.016 1.518zm1.767 7.514a27.62 27.62 0 0114.066 15.624l.19-.095a27.785 27.785 0 00-14.147-15.708zm-.697 1.145l-.11.179a26.038 26.038 0 0113.48 14.987l.194-.095a26.257 26.257 0 00-13.539-15.071zm1.493-2.463a29.148 29.148 0 0114.653 16.25l.19-.094a29.357 29.357 0 00-14.734-16.34zm.801-1.319a30.7 30.7 0 0115.27 16.863l.19-.095a30.89 30.89 0 00-15.316-16.967zm.801-1.314a32.213 32.213 0 0115.818 17.51l.194-.094a32.462 32.462 0 00-15.922-17.6zm17.201 16.823l.19-.094a33.97 33.97 0 00-16.475-18.226l-.115.179a33.78 33.78 0 0116.43 18.141zM85.118 6.06a.468.468 0 00.498-.427.498.498 0 00-.408-.548.498.498 0 00-.498.433.498.498 0 00.408.542zM56.26 33.357c2.562-.457 5.175-.064 7.697.314.712.11 1.414.214 2.09.293h.005a.354.354 0 00.045-.706c-.672-.08-1.363-.184-2.07-.289-2.577-.388-5.25-.786-7.926-.313a.354.354 0 10.124.696zm2.94 7.031l-.099.19a6.777 6.777 0 002.836.581 7.533 7.533 0 003.1-.671l-.084-.194a7.07 7.07 0 01-5.767.094zm6.892-3.418c-.627.239-1.304.124-2.154 0a10.947 10.947 0 00-5.26.194 2.707 2.707 0 01.498-1.458.353.353 0 10-.582-.398 3.314 3.314 0 00-.558 2.388l.08.383.373-.114c.324-.105.632-.19.926-.259.258.702.96 2.105 2.487 2.105a2.742 2.742 0 002.777-2.02 3.518 3.518 0 001.687-.14.358.358 0 00.204-.457.353.353 0 00-.493-.224zm16.211-1.777a.353.353 0 00-.094.498 2.722 2.722 0 01.497 1.458 10.947 10.947 0 00-5.26-.194 4.16 4.16 0 01-2.154 0 .353.353 0 00-.453.204.358.358 0 00.204.458 3.518 3.518 0 001.687.139 2.742 2.742 0 002.757 2.03c1.522 0 2.224-1.403 2.488-2.105.293.07.602.155.925.259l.373.114.08-.383a3.314 3.314 0 00-.557-2.388.353.353 0 00-.508-.09zM79.615 49.35l-.15-.149c-2.129 2.165-5.124 1.89-7.259 1.279l-.06.204a10.668 10.668 0 002.911.433A6.19 6.19 0 0079.6 49.35zm-18.196-.343l-.17.12c.04.06 1.046 1.438 3.732 1.796l.025-.21c-2.602-.348-3.592-1.696-3.602-1.706zm15.25-8.618l-.099.19a6.747 6.747 0 002.836.581 7.533 7.533 0 003.1-.671l-.09-.194a7.06 7.06 0 01-5.761.094zm4.926-34.591a.717.717 0 00.777-.657.736.736 0 00-.617-.826.707.707 0 00-.777.642.736.736 0 00.603.84zm6.12 1.199a.358.358 0 00.389-.329.363.363 0 00-.304-.412.348.348 0 00-.388.323.368.368 0 00.289.418zm-7.672-2.791a.358.358 0 00.383-.324.368.368 0 00-.303-.413.358.358 0 00-.388.324.368.368 0 00.293.413zm3.518 1.577a.353.353 0 00.388-.329.368.368 0 00-.304-.413.353.353 0 00-.388.329.368.368 0 00.289.413zm-3.841.497a.463.463 0 00.497-.428.498.498 0 00-.403-.542.458.458 0 00-.497.428.498.498 0 00.388.532zm34.83 110.303zm-1.92-17.654a.498.498 0 00-.573.443.527.527 0 00.418.607.498.498 0 00.567-.443.527.527 0 00-.418-.617zm8.458 2.313l.12.18c.024 0 2.83-1.827 4.428-.23l.15-.149c-1.733-1.731-4.678.17-4.708.19zm-8.295-3.692a.557.557 0 00.21-.726.498.498 0 00-.682-.224.552.552 0 00-.21.727.498.498 0 00.672.213zm-1.662.26a.348.348 0 00.399-.31.363.363 0 00-.289-.417.353.353 0 00-.398.308.363.363 0 00.279.408zm-3.363 8.956a.348.348 0 10-.333.378.353.353 0 00.323-.374zm3.627 5.294l.154.139 8.285-9.394-.16-.14zm1.717-21.605a.353.353 0 00-.393.309.368.368 0 00.288.422.348.348 0 00.393-.308.363.363 0 00-.298-.418zm-5.847 22.764c.757-.756 1.16-.83 1.324-.816a.209.209 0 01.17.09l.183-.105a.398.398 0 00-.313-.194c-.373-.055-.881.244-1.493.876l-6.095 6.095.149.15zm6.315-24.879a.463.463 0 00-.523.403.498.498 0 00.383.558.463.463 0 00.498-.408.498.498 0 00-.368-.568zm-4.976 13.201a.453.453 0 00.318-.532.418.418 0 00-.497-.339.448.448 0 00-.319.533.418.418 0 00.488.323zm-1.796 1.264a.498.498 0 00.691-.19.557.557 0 00-.179-.736.498.498 0 00-.687.19.557.557 0 00.165.72zm3.677-2.055a.552.552 0 00.696-.398.597.597 0 00-.368-.742.557.557 0 00-.702.393.607.607 0 00.364.732z" stroke-width=".498" fill="#323d66"/></svg>