<svg xmlns="http://www.w3.org/2000/svg" height="160" width="152" version="1.1" data-name="Слой 1" id="Слой_1"><defs id="defs4"><style id="style2"/></defs><path id="path28" d="M103.301 145.299a.38.38 0 00-.217.469.346.346 0 00.44.232.38.38 0 00.217-.47.346.346 0 00-.44-.231zm-.573 11.589a.588.588 0 00.593-.588.573.573 0 10-.593.588zm1.798-1.616a.287.287 0 10-.573 0 .296.296 0 00.277.312.291.291 0 00.296-.312zm19.078-1.57a.43.43 0 00-.587.232.494.494 0 00.217.627.435.435 0 00.588-.232.494.494 0 00-.218-.628zm-.173 3.606a.543.543 0 00.084-.732.494.494 0 00-.686-.088.543.543 0 00-.084.73.494.494 0 00.686.085zm-50.239-1.566a.494.494 0 00.307-.618.46.46 0 00-.578-.326.494.494 0 00-.312.618.464.464 0 00.583.326zm50.22 2.055a.356.356 0 00-.395.31.37.37 0 00.291.42.35.35 0 00.395-.31.366.366 0 00-.291-.42zm-19.997-5.499a.395.395 0 00-.366-.414.4.4 0 10.366.414zm-9.668 5.41a.632.632 0 00-.212.835.558.558 0 00.785.222.627.627 0 00.208-.83.553.553 0 00-.78-.208zm9.238.084a.613.613 0 10.553.632.603.603 0 00-.553-.627zm20.18-5.202a.321.321 0 00.143.405.282.282 0 00.38-.153.316.316 0 00-.143-.405.282.282 0 00-.38.173zm-50.323-2.05a.296.296 0 00.237-.346.287.287 0 00-.326-.257.306.306 0 00-.238.35.291.291 0 00.327.273zm50.2.385a.454.454 0 00-.322.529.415.415 0 00.494.34.445.445 0 00.321-.523.425.425 0 00-.514-.326zm-34.284-7.998a58.924 58.924 0 005.72 14.42l.178-.104a58.652 58.652 0 01-5.69-14.36zm14.252 4.896a.41.41 0 00-.563.183.454.454 0 00.172.602.405.405 0 00.564-.182.464.464 0 00-.173-.583zm-1.023 2.771a.538.538 0 00.203.707.494.494 0 00.662-.218.538.538 0 00-.203-.701.494.494 0 00-.662.232zm.35 3.221a.543.543 0 00.08.731.494.494 0 00.687-.079.543.543 0 00-.08-.73.494.494 0 00-.686.108zm1.073-4.194a.301.301 0 00-.242.346.291.291 0 00.326.257.306.306 0 00.242-.346.291.291 0 00-.326-.237zm19.819 5.785a.494.494 0 00-.548-.455.494.494 0 00-.425.583.494.494 0 00.543.455.524.524 0 00.43-.564zm-37.623 2.83a.291.291 0 00-.291.297.296.296 0 00.277.316.291.291 0 00.291-.297.296.296 0 00-.277-.296zm-.74-.73a.296.296 0 00-.297.296.301.301 0 00.282.316.291.291 0 00.291-.297.296.296 0 00-.277-.296zm1.797-.495a.35.35 0 00-.395-.306.36.36 0 00-.291.42.35.35 0 00.395.306.37.37 0 00.291-.395zm-2.667 1.127a.306.306 0 10.281.316.301.301 0 00-.281-.316zm39.81-9.273a.282.282 0 00-.38.153.321.321 0 00.144.405.282.282 0 00.38-.153.316.316 0 00-.168-.405zm-43.841 8.359a.282.282 0 00-.376.163.316.316 0 00.154.4.282.282 0 00.375-.168.301.301 0 00-.178-.395zm6.669 1.062a.464.464 0 00.069.627.4.4 0 00.583-.074.464.464 0 00-.07-.627.4.4 0 00-.607.079zm1.694-1.304a.4.4 0 00-.588.074.494.494 0 00.07.627.405.405 0 00.587-.074.464.464 0 00-.093-.627zm16.742.86a.494.494 0 00-.662.216.529.529 0 00.202.702.494.494 0 00.662-.212.543.543 0 00-.227-.707zm-14.608-18.817l-2.885.104a31.339 31.339 0 01.796-11.604l-.203-.065a31.532 31.532 0 00-.79 11.787v.099l3.077-.109zm14.519 18.09a.375.375 0 00.217-.47.336.336 0 00-.44-.227.37.37 0 00-.217.465.346.346 0 00.44.207zm-28.36 1.235a.346.346 0 00-.415.282.375.375 0 00.266.44.35.35 0 00.41-.282.366.366 0 00-.261-.465zm-4.763-.301a.375.375 0 00-.217.494.346.346 0 00.44.227.38.38 0 00.217-.47.34.34 0 00-.44-.276zm.267-1.645a.603.603 0 00-.494.696.578.578 0 00.652.494.608.608 0 00.494-.696.578.578 0 00-.637-.52zm32.036-2.668a.282.282 0 00.355-.207.311.311 0 00-.192-.38.287.287 0 00-.356.207.311.311 0 00.193.355zm-30.692 4.392a.494.494 0 00-.662.217.538.538 0 00.153.657s.03.035.054.045a.494.494 0 00.139.044.356.356 0 00.276.247.494.494 0 00.38-.222.287.287 0 00.025-.07c0-.049.025-.172.05-.35a.494.494 0 00-.188-.287.494.494 0 00-.227-.306zm-2.134-8.59a.385.385 0 00.435.33.39.39 0 00.31-.454.375.375 0 00-.429-.336.405.405 0 00-.316.434zm2.588 7.187a.543.543 0 00-.173.711.494.494 0 00.672.183.538.538 0 00.173-.712.494.494 0 00-.672-.207zm4.832 1.58a.282.282 0 00-.376.163.316.316 0 00.153.4.282.282 0 00.376-.162.316.316 0 00-.153-.415zm-1.127-.701a.35.35 0 00-.415.282.375.375 0 00.267.44.346.346 0 00.41-.282.366.366 0 00-.262-.465zm25.688-13.585h.212c.139-3.952 2.1-13.08 2.12-13.175l-.208-.044c-.03.079-1.996 9.213-2.134 13.194zm-26.923 12.844a.405.405 0 00-.573-.153.46.46 0 00-.148.607.405.405 0 00.573.159.494.494 0 00.138-.667zm-1.16.642a.608.608 0 00-.495.697.578.578 0 00.657.494.608.608 0 00.494-.697.588.588 0 00-.666-.528zM91.78 158a.494.494 0 00-.543.46.494.494 0 00.43.578.494.494 0 00.543-.455.519.519 0 00-.44-.617zm-2.964-1.872a.35.35 0 00.395.306.36.36 0 00.287-.42.34.34 0 00-.39-.306.36.36 0 00-.287.385zm.776 1.976a.543.543 0 00.084.731.494.494 0 00.687-.084.543.543 0 00-.084-.731.494.494 0 00-.682.03zm.034-.84a.287.287 0 10-.573 0 .306.306 0 00.282.316.291.291 0 00.296-.37zm31.992.119a.494.494 0 00-.425.578.494.494 0 00.543.454.494.494 0 00.425-.578.494.494 0 00-.539-.509zm.39-3.765a.37.37 0 00.494-.197.41.41 0 00-.188-.529.366.366 0 00-.494.198.405.405 0 00.212.474zm-31.804 2.47a.548.548 0 00.084.732.494.494 0 00.687-.084.543.543 0 00-.079-.732.494.494 0 00-.687.045zm1.517 1.418a.321.321 0 00.109-.42.282.282 0 00-.39-.113.321.321 0 00-.11.42.282.282 0 00.396.074zm-3.083.652a.366.366 0 00-.291.42l.687-.109a.356.356 0 00-.39-.35zm3.127-3.863a.494.494 0 00-.543.455.494.494 0 00.43.578.494.494 0 00.543-.455.494.494 0 00-.425-.617zm-.38-1.437a.366.366 0 00-.494-.148.415.415 0 00-.143.548.37.37 0 00.519.148.42.42 0 00.138-.588zm1.112 3.21a.632.632 0 00-.213.83.558.558 0 00.786.228.637.637 0 00.212-.835.558.558 0 00-.78-.262zm28.72-1.353a.385.385 0 00.04.519.331.331 0 00.494-.045.38.38 0 00-.045-.518.326.326 0 00-.484.005zm-31.729-2.228a.316.316 0 00-.109.415.277.277 0 00.39.114.316.316 0 00.11-.415.277.277 0 00-.386-.153zm-.188-3.566a.311.311 0 00-.103.415.277.277 0 00.39.113.311.311 0 00.104-.415.277.277 0 00-.386-.128zm17.167 9.385a.35.35 0 00-.38.327.36.36 0 00.306.405.35.35 0 00.38-.322.366.366 0 00-.301-.469zm-16.613-4.11a.39.39 0 00-.045.524.336.336 0 00.494.045.39.39 0 00.045-.52.336.336 0 00-.49-.108zm.345-3.542a.42.42 0 00-.464.39.435.435 0 00.366.495.43.43 0 00.464-.39.445.445 0 00-.36-.554zm17.972 7.41a.37.37 0 00-.47.267.405.405 0 00.253.494.37.37 0 00.469-.267.405.405 0 00-.222-.538zm.958-27.194c.03.173 3.113 17.315 2.105 27.303h.212c.988-10.018-2.08-27.17-2.114-27.357zm11.135 26.72a.553.553 0 00-.78.227.627.627 0 00.212.83.553.553 0 00.78-.222.632.632 0 00-.207-.88zm1.482-.938a.637.637 0 00-.212-.835.563.563 0 00-.786.227.637.637 0 00.213.835.558.558 0 00.78-.272zm-15.388.582a.282.282 0 00.356-.202.311.311 0 00-.193-.38.287.287 0 00-.356.202.311.311 0 00.188.336zm1.976-26.068c0 .055.608 5.168.79 10.216h.213c-.188-5.058-.786-10.176-.79-10.23zm-27.54 27.081a.282.282 0 00-.376.163.306.306 0 00.154.4.282.282 0 00.375-.163.316.316 0 00-.148-.444zm10.71-127.658a.37.37 0 00.365-.37.366.366 0 00-.365-.366.37.37 0 00-.37.366.375.375 0 00.37.37zM9.709 154.941a.46.46 0 00.578.326.494.494 0 00.306-.617.454.454 0 00-.578-.326.494.494 0 00-.306.617zm-.726-.81a.415.415 0 00-.494-.365.44.44 0 00-.346.494.42.42 0 00.494.37.445.445 0 00.346-.499zm.44-1.546a.291.291 0 00.33.252.301.301 0 00.238-.346.291.291 0 00-.326-.257.306.306 0 00-.262.351zm-6.175-16.717c-.025.08-2.283 8.245-.272 21.88l.207-.03c-1.976-13.585.242-21.711.267-21.795zm6.095 14.405a.405.405 0 00-.563.188.454.454 0 00.173.598.4.4 0 00.563-.183.46.46 0 00-.173-.603zM84.134 36.971l.415-.988a5.3 5.3 0 014.975-2.964c7.953 0 11.658-2.307 11.658-7.272v-.988l-.622.77c0 .03-2.352 2.826-9.095 2.826-3.063 0-5.256.815-6.526 2.43-1.733 2.199-1.081 5.035-1.052 5.153zm1.344-5.75c1.131-1.433 3.142-2.164 5.977-2.164 5.158 0 7.855-1.551 8.986-2.47-.262 2.825-2.095 5.73-10.922 5.73a6.1 6.1 0 00-5.074 2.47 5.434 5.434 0 011.033-3.567zm3.265.75a.366.366 0 00.366-.365.37.37 0 00-.366-.37.375.375 0 00-.37.37.37.37 0 00.375.365zm1.66-.45a.494.494 0 10-.494-.493.494.494 0 00.509.494zM38.781 53.787h.261l.41 1.067a.346.346 0 00.326.227h.104l-.054 2.258h-.05a.35.35 0 00-.35.35v1.7a.35.35 0 00.34.346l-.232 9.144.697.064.035-1.413a13.62 13.62 0 001.733.217 13.402 13.402 0 001.734-.217l.05 1.917.701.138-.242-9.88a.346.346 0 00.341-.346V57.66a.35.35 0 00-.35-.35h-.045l-.06-2.258h.104a.35.35 0 00.331-.228l.405-1.067h.252a.35.35 0 00.351-.35v-1.3a.346.346 0 00-.35-.345H44.9l-.88-1.161a.37.37 0 00-.28-.139h-3.459a.356.356 0 00-.276.139l-.885 1.16h-.32a.346.346 0 00-.351.346v1.3a.35.35 0 00.33.38zm3.225 13.768a14.499 14.499 0 01-1.729-.218l.06-2.331c.494.064 1.333.173 1.67.173.335 0 1.185-.11 1.674-.173l.054 2.331a14.252 14.252 0 01-1.729.218zm1.482-9.515l.025.988h-3.038v-.988zm-2.964-.874l.05-2.085h2.86l.05 2.085L42 57.21zm2.579 2.574c-.46.03-.988.059-1.102.059-.113 0-.637-.03-1.101-.06zm-1.097.247c.173 0 1.048-.055 1.547-.09l.059 2.332c-.494.05-1.359.134-1.606.134-.247 0-1.116-.084-1.605-.134l.06-2.331c.498.054 1.373.089 1.545.089zm0 2.588c.257 0 1.117-.084 1.61-.133l.06 2.332c-.494.064-1.344.177-1.67.177-.326 0-1.185-.113-1.664-.177l.054-2.332c.494.07 1.353.153 1.61.153zm1.976-8.215H40.03l-.227-.593h4.446zm-3.561-3.186h3.132l.454.598h-4.026zm-1.305 1.294h5.756v.603h-5.74zm-27.209 76.396a14 14 0 00-3.952 3.863l.178.11a13.797 13.797 0 013.868-3.795c2.569-1.684 10.502-5.631 10.581-5.67l-.093-.189c-.06.035-8.008 3.987-10.582 5.681zm29.146-79.488c0-.035-1.714-3.211 0-6.422 1.922-3.621 7.212-5.864 15.724-6.67v-.207c-8.59.81-13.936 3.093-15.892 6.783-1.759 3.31 0 6.585 0 6.615zM60.59 28.37c-.03-.06-2.998-6.224 0-11.065 2.47-3.952 8.062-5.928 16.688-5.928 14.493 0 21.439-3.078 24.7-5.662 3.57-2.815 3.69-5.596 3.69-5.715h-.208c0 .025-.114 2.8-3.611 5.557-3.25 2.564-10.157 5.617-24.586 5.617-8.704 0-14.375 2.025-16.865 6.027-3.078 4.94-.055 11.209 0 11.268zM9.852 149.468a.306.306 0 00-.242.35.291.291 0 00.331.257.306.306 0 00.237-.35.291.291 0 00-.326-.257zm3.868 8.398a.35.35 0 00-.415.281.375.375 0 00.262.44.346.346 0 00.415-.282.375.375 0 00-.262-.45zm2.134-.045a.282.282 0 00-.375.168.311.311 0 00.153.4.282.282 0 00.375-.168.316.316 0 00-.153-.424zm-1.126-.701a.35.35 0 00-.415.281.375.375 0 00.262.44.346.346 0 00.415-.282.375.375 0 00-.262-.45zm2.312-.36a.282.282 0 00-.376.167.316.316 0 00.154.4.282.282 0 00.375-.168.321.321 0 00-.153-.41zm.854.987a.282.282 0 00-.375.168.316.316 0 00.158.4.277.277 0 00.37-.168.311.311 0 00-.153-.415zm1.542-.316a.291.291 0 00-.292.296.296.296 0 00.277.312.296.296 0 00.296-.297.301.301 0 00-.281-.326zM9.22 155.919a.613.613 0 00-.494.697.583.583 0 00.657.494.613.613 0 00.494-.697.583.583 0 00-.657-.508zm1.349 1.73a.494.494 0 00-.662.217.538.538 0 00.202.706.494.494 0 00.662-.217.538.538 0 00-.202-.721zm-1.616-.08a.375.375 0 00-.212.47.336.336 0 00.44.227.37.37 0 00.222-.47.336.336 0 00-.45-.241zm2.07-1.328a.543.543 0 00-.173.716.494.494 0 00.672.183.543.543 0 00.168-.717.494.494 0 00-.667-.197zm2.47.133a.405.405 0 00-.573-.158.464.464 0 00-.143.612.4.4 0 00.573.154.46.46 0 00.128-.623zm-1.156.642a.603.603 0 00-.494.697.583.583 0 00.652.494.608.608 0 00.494-.702.583.583 0 00-.667-.504zm-.494-1.077a.35.35 0 00.41-.281.366.366 0 00-.262-.44.346.346 0 00-.415.277.375.375 0 00.297.43zm-3.097-7.36a.4.4 0 00-.316.46.385.385 0 00.43.335.405.405 0 00.315-.46.375.375 0 00-.424-.35zM72.184 19.646a.445.445 0 00-.36.494.445.445 0 10.874-.158.44.44 0 00-.509-.35zm6.536-.094a.736.736 0 10.736.736.736.736 0 00-.731-.75zm-4.668.435a.538.538 0 10.75-.109.538.538 0 00-.745.094zm-3.641.672a.366.366 0 100 .73.366.366 0 100-.73zm5.888-.242a.44.44 0 00-.36.494.445.445 0 10.874-.158.44.44 0 00-.509-.351zm-.172-1.482a.627.627 0 10.874-.129.632.632 0 00-.87.1zm-7.83 1.739a.366.366 0 10.37.365.366.366 0 00-.365-.395zm41.288 31.902a.494.494 0 10.494.494.494.494 0 00-.494-.494zM92.888 31.665a.543.543 0 00-.114-.75.529.529 0 00-.746.108.538.538 0 00.86.642zm19.177 22.027a.534.534 0 10-.751.114.543.543 0 00.756-.114zm-7.297-.78c-1.61 2.045-.988 4.678-.988 4.791l.228.944h-1.665a.34.34 0 00-.277.138l-.884 1.156h-.321a.35.35 0 00-.35.351v1.294a.35.35 0 00.35.351h.257l.405 1.072a.356.356 0 00.326.222h.104l-.045 1.413h-.06a.35.35 0 00-.35.35v1.695a.346.346 0 00.336.346l-.06 1.976c.267-.05.534-.089.801-.123h-.094l.054-1.828a34.79 34.79 0 001.551.108c.183 0 1.048-.064 1.547-.108l.05 1.6h.7l-.049-1.615a.346.346 0 00.336-.346v-1.694a.35.35 0 00-.35-.351h-.06l-.044-1.413h.103a.356.356 0 00.326-.222l.405-1.072h.257a.35.35 0 00.351-.35v-1.295a.35.35 0 00-.35-.35h-.322l-.884-1.157a.34.34 0 00-.277-.138h-1.753l.37-.89a4.94 4.94 0 014.584-2.731c7.38 0 10.819-2.149 10.819-6.763v-.988l-.623.77c-.024 0-2.178 2.604-8.397 2.604-2.826-.01-4.866.751-6.052 2.253zm-2.193 13.426l.03-.987h2.988l.035.987zm.05-1.694l.044-1.413h2.86l.045 1.413zm3.457-2.11h-3.986l-.227-.597h4.446zm.88-1.298h-5.73v-.593h5.745zm-1.304-1.892l.454.597h-4.04l.449-.597zm3.374-5.02a5.627 5.627 0 00-4.674 2.238 4.99 4.99 0 01.954-3.225c1.047-1.32 2.9-1.976 5.513-1.976 4.708 0 7.207-1.403 8.284-2.248-.247 2.579-1.976 5.212-10.063 5.212zm-5.538-3.551c-2.875 3.334-.346 6.94-.316 6.975l.168-.119c-.025-.034-2.47-3.507.306-6.718 1.225-1.418 3.122-1.59 5.128-1.773 2.573-.238 5.226-.494 6.54-3.458l-.193-.09c-1.26 2.866-3.858 3.103-6.362 3.33-1.951.198-3.977.37-5.256 1.853zM91.312 34.249c-5.034 0-5.459 1.832-5.474 1.911l.208.04s.435-1.739 5.266-1.739c5.498 0 12.35 0 14.662-6.476l-.198-.07c-2.262 6.334-8.749 6.334-14.464 6.334zm16.613 19.018a.37.37 0 10.366.366.366.366 0 00-.366-.366zM96.43 30.712a.366.366 0 10-.366-.366.366.366 0 00.366.366zM66.212 35.32v.207c.074 0 7.44-.064 10.537-5.824l-.183-.099c-3.067 5.646-10.305 5.716-10.354 5.716zm23.371-16.515a.37.37 0 10.366.37.366.366 0 00-.39-.37zm14.375-9.277v-.721l-.578.43c-1.166.874-7.77 5.231-23.45 5.231-8.709 0-14.518 1.917-17.255 5.7a9.253 9.253 0 00-1.428 7.44l.173.756.455-.627c.933-1.3 4.653-5.528 13.135-5.528 19.666 0 28.78-6.575 28.924-12.68zM75.005 21.51c-7.746 0-11.698 3.457-13.21 5.196a8.516 8.516 0 011.443-6.125c2.599-3.587 8.215-5.434 16.687-5.434 14.02 0 20.827-3.36 23.248-4.94-.9 5.745-10.562 11.302-28.168 11.302zm18.772 9.445a.37.37 0 00.37-.366.375.375 0 00-.37-.37.37.37 0 00-.366.37.366.366 0 00.356.366zm1.3.44a.445.445 0 10-.52-.361.445.445 0 00.51.36zm-8.76-13.339a.37.37 0 10.371.371.37.37 0 00-.38-.366zm-3.398 2.001a.45.45 0 00-.36.494.445.445 0 00.518.356.435.435 0 00.356-.494.445.445 0 00-.524-.35zm3.888-.84a.529.529 0 00.108.746.538.538 0 00.751-.108.529.529 0 00-.108-.746.538.538 0 00-.761.113zm-3.834-.671a.627.627 0 10.875-.129.627.627 0 00-.885.133zm-1.585.652a.736.736 0 10.736.736.736.736 0 00-.746-.731zm3.754 0a.494.494 0 10.494.494.494.494 0 00-.504-.514zm-4.708-1.156a.627.627 0 10.129.879.632.632 0 00-.139-.9zm-5.928 137.933a.366.366 0 00.262.44.34.34 0 00.41-.282.36.36 0 00-.262-.435.34.34 0 00-.43.257zM31.8 132.707a18.638 18.638 0 01-7.518-6.867l-.183.099a18.816 18.816 0 007.608 6.955zm11.856 20.253a.366.366 0 00.41.307.35.35 0 00.326-.38.37.37 0 00-.41-.307.35.35 0 00-.36.36zm9.035 4.743a.425.425 0 00.119.593.435.435 0 00.608-.08.425.425 0 00-.119-.597.44.44 0 00-.642.064zm-.874-1.3a.282.282 0 00-.286.292.316.316 0 00.316.291.277.277 0 00.286-.286.316.316 0 00-.35-.316zm-.958 1.013a.366.366 0 00-.376.38.41.41 0 00.415.386.36.36 0 00.376-.375.42.42 0 00-.45-.41zm-2.525-1.521a.538.538 0 00-.73.05.494.494 0 00.059.69.534.534 0 00.73-.054.464.464 0 00-.093-.706zm1.7.024a.331.331 0 00-.272.406.38.38 0 00.435.286.336.336 0 00.276-.405.385.385 0 00-.474-.306zm-4.851-.602a.494.494 0 00-.593.4.494.494 0 00.43.563.494.494 0 00.597-.405.494.494 0 00-.469-.578zm-.297-1.561a.494.494 0 00.06.686.548.548 0 00.736-.049.494.494 0 00-.06-.692.543.543 0 00-.77.035zm-.069 3.542a.553.553 0 00-.573.578.637.637 0 00.627.588.558.558 0 00.574-.578.632.632 0 00-.662-.583zm1.72-1.324a.272.272 0 00.128-.386.321.321 0 00-.41-.123.282.282 0 00-.129.39.316.316 0 00.376.099zm-.218-4.041a.494.494 0 00-.627.044.4.4 0 00.054.588.46.46 0 00.627-.044.4.4 0 00-.089-.608zm.593 5.093a.558.558 0 00-.578.578.642.642 0 00.632.588.558.558 0 00.573-.578.637.637 0 00-.662-.608zm1.684.203a.494.494 0 00.139.696.524.524 0 00.681-.128.494.494 0 00-.143-.697.494.494 0 00-.711.109zm23.322-2.599a.42.42 0 00-.494-.37.44.44 0 00-.346.494.415.415 0 00.47.365.435.435 0 00.335-.509zm-5.36-19.216c0 .089-2.663 9.277-.815 22.338l.207-.03c-1.842-13.011.78-22.16.81-22.23zm23.05-11.58L71.606 132l.09.188 17.996-8.16zm-16.974 29.482a.296.296 0 00.237-.346.291.291 0 00-.326-.257.306.306 0 00-.237.351.287.287 0 00.326.252zm-.41-2.559a.405.405 0 00-.563.188.454.454 0 00.173.598.405.405 0 00.568-.183.464.464 0 00-.158-.603zm-9.42 6.052a.494.494 0 00-.149-.613.405.405 0 00-.573.158.46.46 0 00.148.608.4.4 0 00.573-.153zm-1.976.296a.366.366 0 00-.262.44.34.34 0 00.41.281.366.366 0 00.262-.44.346.346 0 00-.4-.276zm-3.172.622a.316.316 0 00-.153.4.282.282 0 00.375.169.321.321 0 00.154-.4.282.282 0 00-.366-.164zm.86-.988a.316.316 0 00-.158.4.282.282 0 00.375.169.311.311 0 00.153-.4.277.277 0 00-.36-.159zm3.32 1.107a.366.366 0 00-.263.44.34.34 0 00.41.281.366.366 0 00.262-.44.346.346 0 00-.4-.271zm-5.721-.44a.306.306 0 10.296.297.296.296 0 00-.286-.287zm-1.117.529a.272.272 0 00-.286.286.316.316 0 00.316.292.277.277 0 00.287-.287.316.316 0 00-.307-.281zm4.703-.133a.311.311 0 00-.153.4.282.282 0 00.376.168.321.321 0 00.153-.4.282.282 0 00-.366-.173zm-9.633-3.458a.366.366 0 00-.405-.307.35.35 0 00-.326.38.366.366 0 00.405.312.356.356 0 00.336-.366zm-16.445-9.97a.346.346 0 00.44-.231.38.38 0 00-.217-.47.346.346 0 00-.44.233.375.375 0 00.227.489zm-.425 6.946a.395.395 0 00-.365.415.39.39 0 00.39.39.405.405 0 00-.025-.805zm-.133-3.458a.405.405 0 00.563.183.46.46 0 00.173-.602.4.4 0 00-.563-.183.46.46 0 00-.163.617zm.198 9.386a.613.613 0 10.592.588.588.588 0 00-.583-.568zm-.149-7.825a.306.306 0 00-.242-.35.291.291 0 00-.326.257.301.301 0 00.242.345.287.287 0 00.326-.252zm.396 5.696a.613.613 0 10.592.588.588.588 0 00-.617-.588zm-.331-1.19a.494.494 0 00.686.084.543.543 0 00.08-.731.494.494 0 00-.687-.084.543.543 0 00-.104.73zm-2.095 2.144a.375.375 0 00.217.469.346.346 0 00.44-.232.385.385 0 00-.217-.47.34.34 0 00-.465.233zm-1.319 0a.316.316 0 00-.197.38.287.287 0 00.36.207.311.311 0 00.193-.38.287.287 0 00-.38-.227zm2.356-2.9a.311.311 0 00.193-.38.287.287 0 00-.356-.208.311.311 0 00-.192.38.282.282 0 00.33.188zm-.093 1.25a.306.306 0 000 .612.301.301 0 00.276-.316.296.296 0 00-.301-.316zm-2.223 3.3a.366.366 0 00-.307.405.356.356 0 00.386.326.366.366 0 00.306-.405.356.356 0 00-.41-.346zm1.432-.41a.543.543 0 00-.202.706.494.494 0 00.662.217.543.543 0 00.202-.706.494.494 0 00-.686-.227zm13.24-8.408a.301.301 0 00-.327.266.307.307 0 00.613.04.301.301 0 00-.287-.306zm-10.869.928a.543.543 0 00-.202.707.494.494 0 00.662.217.538.538 0 00.202-.706.494.494 0 00-.662-.218zm14.38 3.458a.36.36 0 00-.405-.306.346.346 0 00-.326.38.37.37 0 00.41.307.346.346 0 00.322-.38zm-.36 1.774a.494.494 0 00-.06-.692.548.548 0 00-.735.055.494.494 0 00.059.691.548.548 0 00.736-.054zm-2.164-8.29a.287.287 0 10-.04.569.291.291 0 00.327-.262.296.296 0 00-.287-.306zm.539 2.47a.301.301 0 00.326-.266.307.307 0 00-.613-.04.301.301 0 00.242.302zm1.042 1.142a.36.36 0 00-.405-.307.346.346 0 00-.326.38.366.366 0 00.405.307.35.35 0 00.326-.38zm-1.521.864a.4.4 0 00-.055-.588.494.494 0 00-.627.045.405.405 0 00.05.588.464.464 0 00.632-.025zm-7.964-11.055a1.156 1.156 0 101.156 1.156 1.156 1.156 0 00-1.156-1.156zm8.576 13.249a.296.296 0 00.287.306.301.301 0 00.326-.267.307.307 0 00-.613-.04zm-8.576 1.442a1.16 1.16 0 101.156 1.16 1.16 1.16 0 00-1.156-1.16zm0-7.346a1.16 1.16 0 101.156 1.156 1.156 1.156 0 00-1.156-1.156zm5.296 6.743l1.482 1.082v-.267l-1.482-1.072.074-3.6 1.413 1.032v-.252l-1.418-1.038.074-3.616 1.635 1.21c0-.078 0-.157.035-.237l-1.665-1.23.07-3.616 2.163 1.601c0-.079.035-.153.05-.227l-2.204-1.63.055-2.717h-.213l-.05 2.568-1.205-.889.055-3.636 4.416 3.276c0-.07.045-.144.07-.213l-4.481-3.32.05-3.635 5.532 4.105.089-.198-5.592-4.174v-1.428H41.6v1.27l-.553-.41-.124.168.672.494-.05 3.636-.533-.396-.123.168.652.494-.054 3.636-.494-.375-.124.168.642.479-.054 3.636-.494-.356-.128.168.607.45-.054 3.63-.46-.336-.123.168.583.43-.054 3.631-.44-.316-.123.168.558.405-.05 3.63-.42-.296-.123.173.538.376-.024 1.635h.212v-1.482l1.112.77v.722h.212v-.578l.746.494.118-.173-.86-.593zm-1.17-12.641l1.2.884-.075 3.616-1.18-.87zm.888 16.065l-1.111-.77.054-3.622 1.131.82zm.08-3.829l-1.137-.82.054-3.63 1.156.844zm.078-3.863l-1.156-.85.05-3.63 1.18.864zM37.56 132.85a1.156 1.156 0 101.156 1.156 1.156 1.156 0 00-1.156-1.156zm44.766 25.036a.306.306 0 000 .607.306.306 0 000-.607zM37.758 73.284a.553.553 0 000-.74.464.464 0 00-.692.024.543.543 0 000 .736.494.494 0 00.692-.02zm2.094.084a.543.543 0 000-.736.494.494 0 00-.691 0 .553.553 0 000 .736.494.494 0 00.691 0zm-1.304 1.566a.583.583 0 00.637-.533.613.613 0 00-.494-.682.588.588 0 00-.637.538.603.603 0 00.494.677zm-1.778 0a.37.37 0 10-.366-.346.356.356 0 00.346.346zm16.158 34.496a.291.291 0 00.218.355.306.306 0 00.128-.597.296.296 0 00-.365.242zm-17.17-35.938a.494.494 0 000-.633.405.405 0 00-.594 0 .464.464 0 000 .628.4.4 0 00.573.005zm-2.105.41a.37.37 0 10-.366-.346.35.35 0 00.346.346zm7.83 11.045c-1.482 1.6-4.125 2.268-7.835 1.976v.208a22.4 22.4 0 001.586.064c2.964 0 5.107-.711 6.421-2.12a5.162 5.162 0 001.295-3.951l-.208.034a4.905 4.905 0 01-1.28 3.79zm1.017-9.84a.356.356 0 00-.365-.346.36.36 0 00-.326.39.356.356 0 00.365.346.36.36 0 00.326-.39zm-3.013.291a.301.301 0 00.252.341.291.291 0 00.316-.267.301.301 0 00-.252-.34.287.287 0 00-.301.266zm3.023-2.03a.548.548 0 000-.736.494.494 0 00-.692 0 .543.543 0 000 .736.494.494 0 00.707 0zm-1.65 1.393a.583.583 0 00.637-.533.603.603 0 00-.494-.677.583.583 0 00-.637.533.603.603 0 00.509.677zm-19.394 30.455a.464.464 0 00-.07-.627.375.375 0 00-.271-.09.39.39 0 00-.316.164.494.494 0 000 .573l.044.054a.405.405 0 00.628-.074zm.608 2.914a.356.356 0 00-.366-.227.287.287 0 00-.089 0 .36.36 0 00-.183.494.37.37 0 00.05.084.336.336 0 00.405.124.366.366 0 00.197-.475zm-.144 1.285a.277.277 0 00.035.089.282.282 0 00.523-.208.296.296 0 00-.345-.242.291.291 0 00-.198.36zm-.064-2.54a.464.464 0 00-.07-.627.415.415 0 00-.266-.089.405.405 0 00-.316.163.494.494 0 00.044.593s0 .04.045.055a.395.395 0 00.578-.094zm10.092-32.944a.291.291 0 00.317-.267.301.301 0 00-.252-.34.291.291 0 00-.317.271.296.296 0 00.267.336zm-8.23 36.832a.109.109 0 00-.04 0 .494.494 0 00-.493.455.534.534 0 00.153.435.445.445 0 00.277.143.494.494 0 00.543-.455.494.494 0 00-.44-.578zm-1.319-.676a.494.494 0 00-.41.187.538.538 0 00.05.692l.03.044a.494.494 0 00.691-.088.548.548 0 00-.084-.732.46.46 0 00-.267-.103zm-1.813-18.441c-.405-10.868 5.148-15.457 9.88-17.413l-.084-.193c-4.791 1.976-10.423 6.644-10.013 17.616zm22.586-17.112a.385.385 0 00.42-.35.4.4 0 00-.331-.45.385.385 0 00-.42.355.395.395 0 00.34.445zM20.65 97.559a.296.296 0 00-.277-.316.203.203 0 00-.079 0 .296.296 0 00-.217.281.34.34 0 00.04.158.291.291 0 00.236.159.296.296 0 00.307-.282zm.286 2.544a.296.296 0 00-.276-.316.375.375 0 00-.08 0 .296.296 0 00-.217.281.34.34 0 00.04.159.291.291 0 00.237.158.296.296 0 00.306-.282zm.055 3.414a.35.35 0 00.281-.297.257.257 0 000-.123.356.356 0 00-.054-.149.336.336 0 00-.326-.163.36.36 0 00-.292.42.39.39 0 00.07.168.336.336 0 00.33.144zm26.379-26.39a.291.291 0 00.316-.266.301.301 0 00-.247-.341.291.291 0 00-.321.266.306.306 0 00.262.341zm6.422 30.93a.346.346 0 00-.455.207.366.366 0 00.183.494.35.35 0 00.455-.208.36.36 0 00-.198-.494zm-1.359.74a.494.494 0 00-.686-.089.543.543 0 00-.084.732.494.494 0 00.686.088.543.543 0 00.07-.73zm.618 1.418a.46.46 0 00-.632-.035l.202.277a.548.548 0 00.03.598.494.494 0 00.686.089.548.548 0 00.08-.736.494.494 0 00-.381-.193zm1.71-10.295a.306.306 0 10.29.297.291.291 0 00-.306-.297zm-.747 4.802a.494.494 0 00-.069.627.405.405 0 00.588.074.464.464 0 00.069-.627.4.4 0 00-.603-.074zm.519-1.803a.35.35 0 00-.395.311.36.36 0 00.291.42.346.346 0 00.39-.311.36.36 0 00-.3-.42zm-.919 3.458a.464.464 0 00-.07.627.395.395 0 00.584.074.464.464 0 00.069-.627.395.395 0 00-.598-.07zm-2.223-.554a.366.366 0 00.494-.148.42.42 0 00-.138-.548.36.36 0 00-.494.148.415.415 0 00.138.548zm1.457 1.73a.38.38 0 00-.044-.52.326.326 0 00-.494.045.385.385 0 00.04.519.331.331 0 00.493-.045zm-8.976-31.616a.306.306 0 00.065-.608.287.287 0 00-.316.267.301.301 0 00.247.34zm7.702 31.517a.494.494 0 00-.494-.45c.094-.356.178-.721.247-1.097l-.208-.034c-.074.405-.168.8-.271 1.185a.524.524 0 00-.262.494.568.568 0 00.06.183c-.13.41-.268.8-.41 1.161a.553.553 0 00-.584.297.637.637 0 00.139.765c-.173.386-.336.707-.47.954a.543.543 0 00-.415.291.632.632 0 00.213.835.553.553 0 00.79-.183.632.632 0 00-.212-.835.617.617 0 00-.134-.05c.119-.231.262-.523.42-.859a.548.548 0 00.672-.266.632.632 0 00-.212-.835c.128-.326.252-.677.37-1.048a.435.435 0 00.331.09.494.494 0 00.425-.598zm.104 3.458a.494.494 0 00-.43.578.494.494 0 00.548.454.494.494 0 00.425-.578.494.494 0 00-.548-.47zm-.796-.43a.282.282 0 00-.395.113.311.311 0 00.109.415.277.277 0 00.39-.108.321.321 0 00-.089-.435zm-5.27-35.716a.287.287 0 00.315-.267.301.301 0 00-.251-.34.291.291 0 00-.317.266.301.301 0 00.252.341zm.152.914a.4.4 0 00.331.45.385.385 0 00.42-.356.4.4 0 00-.33-.445.385.385 0 00-.42.35zm-.824-2.006a.494.494 0 000-.632.4.4 0 00-.588 0 .494.494 0 000 .632.405.405 0 00.588 0zM28.965 90.396l-.03.208a45.151 45.151 0 006.387.494c4.94 0 8.31-1.166 10.024-3.458 2.628-3.537.316-8.571.291-8.62l-.188.088c.025.05 2.278 4.97-.271 8.398-2.322 3.142-7.776 4.095-16.213 2.89zM46.64 74.237a.287.287 0 00.316-.266.301.301 0 00-.252-.341.306.306 0 00-.064.607zM24.627 110.3c-.182-.311-.365-.617-.533-.924a.538.538 0 00-.109-.672.494.494 0 00-.281-.103.203.203 0 000-.045c-.198-.39-.38-.78-.554-1.17a.38.38 0 000-.445.336.336 0 00-.222-.129 12.48 12.48 0 01-.296-.75.321.321 0 00.064-.38.282.282 0 00-.242-.149c-.134-.4-.252-.8-.36-1.2a.435.435 0 00.28-.366.445.445 0 00-.365-.494h-.123a.672.672 0 000-.084c-.084-.405-.158-.81-.218-1.215a.306.306 0 00.07-.38.296.296 0 00-.149-.134v-.04h-.242a.311.311 0 00-.103.416.296.296 0 00.148.133h.074q.079.543.193 1.082c0 .079.034.163.054.242a.43.43 0 00-.148.286.44.44 0 00.276.465h.06c.093.35.192.706.306 1.057l.074.207a.321.321 0 00-.064.376.291.291 0 00.207.143h.03c.064.183.143.36.212.543l.074.183a.203.203 0 00-.054.035.38.38 0 00-.054.494.36.36 0 00.128.099.316.316 0 00.242 0q.148.34.311.681c.04.084.075.168.119.252.03.064.064.124.099.188a.43.43 0 00-.178.148.543.543 0 00.05.697l.029.034a.464.464 0 00.385.099.43.43 0 00.183-.079c.158.287.331.578.494.87a.316.316 0 000 .33.277.277 0 00.39.11.311.311 0 00.109-.416.277.277 0 00-.366.01zm25.16-31.764a.291.291 0 00.32-.267.311.311 0 00-.251-.34.296.296 0 00-.321.271.306.306 0 00.252.341zm4.94 9.85h.207c-.237-7.612-4.515-11.312-4.56-11.361l-.133.158c.05.05 4.258 3.695 4.495 11.208zM48.66 77.35a.385.385 0 00.42-.351.41.41 0 00-.33-.45.385.385 0 00-.42.356.395.395 0 00.34.45zm6.081 20.337a.287.287 0 10.573 0 .291.291 0 00-.291-.296.296.296 0 00-.272.301zm-7.118-21.953a.588.588 0 00.637-.538.598.598 0 00-.494-.677.578.578 0 00-.632.534.603.603 0 00.499.686zm-12.844-.988a.291.291 0 00.316-.266.301.301 0 00-.252-.341.287.287 0 00-.316.266.301.301 0 00.247.361zm72.479 31.502h.03a22.092 22.092 0 001.916-.133l.988-.099-.064-.37c0-.08-1.26-7.939.163-11.263l1.334-.178a79.751 79.751 0 012.159-.282 20.664 20.664 0 013.606-.143 10.374 10.374 0 011.2.133.351.351 0 00.124-.691 12.197 12.197 0 00-1.418-.149 31.077 31.077 0 00-5.77.435l-1.245.173-.276.035h-.035l-.07.024a.203.203 0 00-.054.035.193.193 0 00-.049.04.267.267 0 00-.044.059v.03c-1.458 3.042-.593 9.805-.351 11.475l-.262.03c-.603.059-1.037.103-1.857.128-.82.025-1.255-.07-1.858-.129l-.232-.024a10.75 10.75 0 00.217-1.334.35.35 0 00-.696-.054 13.407 13.407 0 01-.292 1.61l-.098.395 1.027.104c.608.094 1.057.138 1.902.163zm6.204 6.175l.139.163c2.336-1.931 4.189-4.885 5.508-8.788l-.198-.07c-1.324 3.884-3.142 6.813-5.453 8.715zm-18.01-18.51c2.094-.37 4.228-.054 6.298.257a63.16 63.16 0 001.71.242h.044a.35.35 0 00.04-.696c-.55-.07-1.112-.153-1.69-.237-2.124-.317-4.318-.648-6.52-.257a.35.35 0 00-.287.405.356.356 0 00.4.306zm-2.05 4.446a22.472 22.472 0 002.38 7.904l.183-.099a22.299 22.299 0 01-2.356-7.81zm16.711 17.374a3.952 3.952 0 00-2.692-1.062c-.074 0-1.847.118-2.52 1.042l.174.124c.607-.84 2.341-.954 2.351-.959a3.725 3.725 0 012.579 1.048l.044.044h.06c3.359-.963 9.301-4.53 11.337-17.591l-.208-.03c-2.01 12.894-7.81 16.47-11.13 17.429zM100.051 99.09a2.238 2.238 0 002.257-1.59 2.989 2.989 0 001.418-.119.351.351 0 10-.247-.657 3.315 3.315 0 01-1.729 0 9.025 9.025 0 00-4.258.138 2.183 2.183 0 01.375-1.076.35.35 0 00-.089-.494.356.356 0 00-.494.088 2.836 2.836 0 00-.469 2.006l.08.38.37-.118c.271-.084.523-.153.765-.213.228.623.786 1.7 2.016 1.7zm12.285 10.79a.35.35 0 00-.336-.613s-1.654.874-4.648.874a11.95 11.95 0 01-4.505-.845c-.203-.079-.455-.178-.613.07a.366.366 0 00.054.454.336.336 0 00.243.104l.059.024a12.562 12.562 0 004.762.894c3.191-.02 4.91-.963 4.984-.963zm-5.014-.85h.06a5.958 5.958 0 012.964 0l.059-.203a6.051 6.051 0 00-3.038 0 6.061 6.061 0 00-3.043 0l.064.202a5.967 5.967 0 012.934-.02zm-4.678-9.288l-.089-.192a5.79 5.79 0 01-4.698.079l-.093.183a5.493 5.493 0 002.331.494 6.22 6.22 0 002.55-.583zm10.137-2.964a3.31 3.31 0 01-1.729 0 .351.351 0 10-.247.657 2.989 2.989 0 001.418.119 2.238 2.238 0 002.257 1.59c1.21 0 1.789-1.076 2.01-1.664.248.06.495.128.771.212l.366.119.079-.38a2.791 2.791 0 00-.464-2.006.356.356 0 00-.494-.089.35.35 0 00-.09.494 2.183 2.183 0 01.376 1.077 9.094 9.094 0 00-4.253-.158zm-.603 2.86l-.094.183a5.523 5.523 0 002.332.494 6.22 6.22 0 002.549-.548l-.084-.193a5.8 5.8 0 01-4.703.035zm-1.778 12.118l-.08-.192a8.931 8.931 0 01-2.963.494 12.246 12.246 0 01-3.265-.494l-.065.197a12.35 12.35 0 003.33.524 8.828 8.828 0 003.043-.558zm-12.676 6.521l.153.148zm20.441-2.47h.213v-3.3h-.213zm-.869.939h.212v-3.295h-.212zm-.864.943h.207v-3.295h-.207zm31.97 15.61a13.165 13.165 0 00-3.788-2.618l-21.593-10.216-.143-.064a52.057 52.057 0 00-3.364-7.064c0-1.778-.04-2.964-.054-3.344a32.999 32.999 0 002.964-6.788 3.117 3.117 0 001.131-.578c1.408-1.13 2.312-3.591 2.312-6.268 0-1.2-.331-2.011-.988-2.421a1.818 1.818 0 00-.42-.178 1.195 1.195 0 00-.178-.05c.074-.987.119-1.93.119-2.855 0-11.979-4.244-18.603-12.943-20.125l-.232-.04a24.566 24.566 0 00-3.977-.306c-6.372 0-10.937 2.045-13.743 6.2-2.247 3.315-3.374 7.978-3.403 14.024l-.272-.059v-1.788a.35.35 0 00-.35-.35h-1.088l-.874-41.724a.346.346 0 00.35-.345v-2.747a.35.35 0 00-.35-.35h-.064v-1.176h.104a.35.35 0 00.33-.233l.41-1.156h.248a.346.346 0 00.35-.345v-1.393a.35.35 0 00-.35-.351h-.312l-.884-1.235a.346.346 0 00-.286-.148H81.63a.356.356 0 00-.287.148l-.88 1.235h-.315a.35.35 0 00-.351.35v1.389a.346.346 0 00.35.345h.248l.41 1.156a.356.356 0 00.33.233h.104l-.024 1.175h-.08a.35.35 0 00-.35.351v2.747a.346.346 0 00.35.345l-.874 39.634h-.592a.35.35 0 00-.351.35v1.517l-1.107-.247v-2.317a.35.35 0 00-.35-.35h-1.922v-3.547h.88a.346.346 0 00.35-.346v-1.571a.346.346 0 00-.35-.346h-7.5a.346.346 0 00-.35.346v1.57a.346.346 0 00.35.347h.88v3.561h-1.922a.35.35 0 00-.35.35v2.318l-1.112.247V86.66a.346.346 0 00-.346-.35h-.75l-.796-42.36c8.101-1.359 11.856-4.446 11.856-9.604v-.77l-.578.494c-.04.034-3.014 2.544-10.982 3.67v-1.58a.35.35 0 00-.35-.351h-.139l-.03-1.67h.104a.35.35 0 00.331-.232l.41-1.156h.247a.35.35 0 00.351-.35v-1.384a.35.35 0 00-.35-.35h-.312l-.884-1.236a.346.346 0 00-.287-.148h-5.434a.346.346 0 00-.286.148l-.884 1.235h-.312a.35.35 0 00-.35.35V32.4a.35.35 0 00.35.35h.247l.41 1.157a.35.35 0 00.331.232h.104l-.03 1.67h-.074a.35.35 0 00-.35.35v2.105H56.97c-7.287 0-12.108 1.58-14.326 4.693a7.212 7.212 0 00-.988 6.17l.242.711.39-.647c.025-.045 2.742-4.446 10.685-4.446 1.902 0 3.676-.044 5.335-.133l-.785 43.768h-.716c-.435-6.101-2.698-10.429-5.83-13.338a17.522 17.522 0 00-4.94-3.211 21.163 21.163 0 00-8.373-1.695c-8.867 0-19.221 5.345-19.221 20.412a85.338 85.338 0 002.608 21.321.336.336 0 00.148.198s.104.064.262.143c.598.301 2.238.963 5.167 1.106h.307c.024.593.044 1.176.054 1.69a.331.331 0 00-.311-.153.203.203 0 00-.08 0c-.133.044-3.156 1.111-3.798 5.804-.939.425-5.552 2.52-10.112 5.093-4.021 2.273-5.459 4.2-5.972 5.281-.638.104-2.658.538-3.849 1.976-4.342 5.217-1.897 23.549-1.482 26.256q.03.237.045.311a.346.346 0 00.346.296h.049a.35.35 0 00.296-.4l-.064-.44c-.415-3.023-2.657-20.747 1.374-25.569a5.73 5.73 0 013.043-1.645.741.741 0 000 .159c-.03.602-.613 14.75.83 20.14a.346.346 0 00.335.262.282.282 0 00.09 0 .35.35 0 00.251-.43c-1.418-5.286-.815-19.76-.81-19.923 0-.025.227-2.426 5.928-5.632 4.253-2.4 8.566-4.386 9.845-4.964.297.85 1.235 2.47 3.043 4.317a36.106 36.106 0 006.916 5.355.346.346 0 00.173.045.36.36 0 00.173-.045.35.35 0 00.178-.301 5.503 5.503 0 01.553-2.189 2.47 2.47 0 001.042.643c-.093 1.28-.138 6.59 0 29.792v.494a.35.35 0 00.351.351.346.346 0 00.346-.35v-.495c-.04-8.057-.114-26.927 0-29.61a9.534 9.534 0 002.065.193 9.692 9.692 0 002.094-.198c-.079 1.562-.113 7.356 0 29.615v.494a.35.35 0 00.351.351.35.35 0 00.35-.35v-.495c-.039-8.313-.118-28.157 0-29.812a2.668 2.668 0 00.865-.494 5.38 5.38 0 01.494 2.075.336.336 0 00.173.296.321.321 0 00.178.05.35.35 0 00.168-.04 30.336 30.336 0 006.916-5.37c1.62-1.773 2.697-3.413 3.033-4.307 1.28.573 5.587 2.559 9.85 4.964 4.595 2.594 5.617 4.664 5.844 5.365-.316.212-.642.45-.958.711a11.816 11.816 0 00-.82-1.042 3.27 3.27 0 01.924-.494l-.05-.202a3.428 3.428 0 00-1.022.533 14.326 14.326 0 00-2.811-2.425c-2.574-1.69-10.522-5.642-10.601-5.681l-.094.187c.079.04 8.017 3.987 10.581 5.671a14.217 14.217 0 012.757 2.372 7.262 7.262 0 00-1.482 1.615 16.198 16.198 0 00-2.638-2.287c-1.937-1.265-6.916-3.809-9.282-5.02.182-.251.365-.493.543-.78l-.173-.113q-.276.41-.563.8l-1.131-.568-.094.188 1.102.553a28.27 28.27 0 01-1.423 1.744c-.677-.37-1.171-.643-1.349-.761l-.113.178c.182.118.652.38 1.319.746a29.667 29.667 0 01-1.591 1.635 44.612 44.612 0 01-1.393-.84l-.114.178c.302.192.77.494 1.349.815a32.633 32.633 0 01-1.734 1.526l-1.28-.8-.113.178 1.225.766a33.517 33.517 0 01-1.877 1.422l-1.013-.647-.114.178.944.598c-.287.197-.455.301-.46.306l.11.178s.207-.129.538-.36l3.626 2.311c.034-.064.069-.123.098-.188l-3.537-2.252c.465-.326 1.117-.81 1.873-1.428l2.79 1.71.11-.183-2.866-1.68c.544-.45 1.127-.988 1.734-1.536l2.233 1.299.123-.173-2.198-1.275a28.29 28.29 0 001.59-1.645l1.073.588.889.494.133-.168-.923-.494-1.048-.548c.494-.548.988-1.136 1.423-1.754 2.371 1.2 7.36 3.755 9.297 5.024a15.506 15.506 0 012.628 2.287 11.436 11.436 0 00-.736 1.28c-1.482 2.964-2.964 8.857-1.818 20.283h.213c-1.142-11.362.335-17.215 1.778-20.14a11.757 11.757 0 01.711-1.245c.336.356.638.707.914 1.028-3.2 5.221-2.534 17.29-2.055 22.625h-.03a.583.583 0 00-.656.494.613.613 0 00.494.701.529.529 0 00.316-.06l.099.92c.024.237.059.494.064.538a.35.35 0 00.346.306h.044a.35.35 0 00.306-.375c0-.202-2.529-20.481 2.416-25.742a11.99 11.99 0 013.063-2.213c0 .079-.37 17.112 1.062 21.864a.36.36 0 00.336.247h.103a.35.35 0 00.233-.435c-1.482-4.94-1.082-20.031-1.023-22.007l20.852-9.88-.104.282c-1.66 4.534-3.107 10.339-2.54 15.936l.03.311 4.14.084-3.152 3.76.05.177c.148.529 3.62 12.7 7.33 17.557.09.113.173.232.262.336a.346.346 0 00.494.044.34.34 0 00.104-.38.277.277 0 00-.034-.064s0-.03-.025-.045a6.209 6.209 0 01-.262-.34c-3.384-4.447-6.694-15.576-7.138-17.118l3.7-4.416.153-.183-4.817-.099h-.163c-.815-9.301 3.952-19.152 5.701-22.407 0 .148.79 30.134 5.928 44.677.03.079.054.153.08.232.024.079 1.2-.168 1.2-.168v-.064c-1.893-13.733 2.05-27.392 2.741-29.64a7.677 7.677 0 002.189.44h.138a6.847 6.847 0 002.327-.435l.064.203c.835 2.77 4.52 16.064 2.677 29.437v.064c0 .02 1.151.311 1.2.168.05-.143.055-.153.08-.232 5.216-14.78 5.903-35.36 5.928-44.677.054.104.108.212.172.326 1.868 3.547 6.314 13.071 5.523 22.081l-4.707.1 2.44 8.293c-.277.988-2.752 9.515-6.264 13.768a.262.262 0 00-.06.109.346.346 0 00.598.336l.267-.336c3.66-4.703 6.062-13.407 6.16-13.788l.03-.094-2.238-7.607 4.412-.089.03-.311c.577-5.716-.94-11.644-2.644-16.218l20.852 9.88c.06 1.976.47 17.057-1.023 22.007a.35.35 0 00.232.435h.104a.36.36 0 00.336-.247c1.482-4.88 1.151-18.797 1.062-21.864a12.088 12.088 0 013.068 2.213c4.801 5.113 2.574 24.398 2.42 25.688v.069a.35.35 0 00.307.39h.044a.356.356 0 00.311-.193.435.435 0 00.035-.113c.074-.9 2.53-20.857-2.623-26.37zm-82.26 0a6.348 6.348 0 00-.696.914 29.75 29.75 0 00-.909-1.027 7.227 7.227 0 011.482-1.61 11.13 11.13 0 01.83 1.052 10.06 10.06 0 00-.706.671zm41.126-62.243c11.224 0 16.45 6.279 16.45 19.76 0 .914-.044 1.862-.119 2.826a3.275 3.275 0 00-.746.143l-.217.069c-.311-1.442-1.531-5.997-4.658-7.094a.845.845 0 01.054-.069c1.359-1.452 3.75-1.126 3.77-1.126l.103-.692c-.114 0-2.766-.38-4.377 1.334-1.072 1.136-1.403 2.89-.988 5.217-13.244-.065-18.154-3.132-19.987-5.676a5.963 5.963 0 01-.988-2.302 4.94 4.94 0 01.109-2.426l-.657-.237a6.037 6.037 0 00.677 4.94 7.306 7.306 0 00.85 1.15c-2.925.92-4.254 5.627-4.63 7.01a3.952 3.952 0 00-.814-.207h-.168a37.054 37.054 0 01-.119-2.825c.005-13.491 5.231-19.77 16.455-19.77zM90.22 93.464h-8.333v-.445h6.342l1.976.445zm-8.333 8.333v-7.632h1.12v1.329h.579v-.207h-.37v-1.122h1.244v1.329h.623v-.207h-.41v-1.122h1.24v1.329h.666v-.207h-.454v-1.122h1.245v1.329h.711v-.207h-.494v-1.122h1.245v.929a4.392 4.392 0 00-.163 1.265v.024h-.163v4.57h1.18a5.928 5.928 0 00.495.844zm8.891.697l.149.133a3.201 3.201 0 00.444.302 2.85 2.85 0 00.692.276v.055a2.93 2.93 0 01-.657-.297h-9.534v-.45zm-1.625-2.238v-.45c.05.154.104.302.163.45zm-.163-5.661v-.43h.331a1.808 1.808 0 00-.306.43zm-7.128-2.277V91.6l3.206.717zm5.883-3.211h1.379v1.28l-1.379-.307zm-.059-.702h-.291a.35.35 0 00-.351.351v1.166l-1.107-.247v-1.976a.346.346 0 00-.044-.163 5.473 5.473 0 001.763-.637zM81.758 37.91h5.093l.494.682H81.29zm-1.314 2.07v-.687h7.721v.687zm.642.696h6.422l-.247.687h-5.928zM84.342 44l2.415-.044.045 1.931c-.712.03-2.268.089-2.47.089-.203 0-1.828-.06-2.534-.089l.044-1.931zm-2.47-.76v-1.176h4.831l.025 1.175zm4.94 3.457l.03 1.344c-.697.044-2.219.133-2.51.133-.395 0-1.897-.089-2.579-.133l.03-1.344zm-2.47 1.69c.301 0 1.808-.094 2.514-.134l.04 1.927c-.687.06-2.169.178-2.56.178-.518 0-1.975-.119-2.622-.173l.044-1.932c.702.025 2.198.119 2.599.119zm0 2.183c.4 0 1.867-.118 2.564-.178l.039 1.932c-.672.07-2.12.222-2.603.222-.643 0-2.03-.148-2.673-.222l.045-1.932c.681.045 2.109.163 2.638.163zm0 2.184c.494 0 1.926-.149 2.608-.218l.04 1.927c-.658.089-2.075.267-2.653.267a24.067 24.067 0 01-2.712-.262l.044-1.932c.657.04 2.026.203 2.683.203zm0 2.188c.592 0 1.976-.178 2.657-.267l.04 1.932a23.218 23.218 0 01-2.697.306 19.009 19.009 0 01-2.762-.301l.045-1.932a24.275 24.275 0 002.722.247zm0 2.183a23.43 23.43 0 002.702-.306l.04 1.932a19.76 19.76 0 01-2.742.346 15.497 15.497 0 01-2.806-.341l.04-1.932a19.404 19.404 0 002.77.287zm0 2.184a19.295 19.295 0 002.746-.346l.04 1.932a16.662 16.662 0 01-2.791.39 13.012 13.012 0 01-2.85-.385l.044-1.932a15.462 15.462 0 002.816.326zm0 2.183a15.852 15.852 0 002.796-.385l.04 1.932a13.926 13.926 0 01-2.836.43 11.199 11.199 0 01-2.895-.42l.04-1.932a13.18 13.18 0 002.855.35zm0 2.184a13.832 13.832 0 002.84-.425l.045 1.932a12.35 12.35 0 01-2.89.469 9.88 9.88 0 01-2.94-.455l.045-1.931a11.44 11.44 0 002.9.395zm0 2.188a12.3 12.3 0 002.894-.464l.04 1.926a10.977 10.977 0 01-2.934.494 8.823 8.823 0 01-2.989-.494l.044-1.931a9.88 9.88 0 002.94.454zm0 2.184a10.986 10.986 0 002.939-.494l.04 1.931a10.003 10.003 0 01-2.965.544 7.795 7.795 0 01-3.028-.524l.04-1.927a8.892 8.892 0 002.969.455zm0 2.183a10.033 10.033 0 002.988-.538l.04 1.926a9.09 9.09 0 01-3.028.588 7.306 7.306 0 01-3.078-.553l.045-1.932a8.057 8.057 0 003.023.494zm0 2.184a9.297 9.297 0 003.033-.573l.04 1.926a8.398 8.398 0 01-3.078.623 6.753 6.753 0 01-3.117-.583l.04-1.927a7.598 7.598 0 003.072.519zm-3.127 1.63a7.183 7.183 0 003.122.553 8.467 8.467 0 003.082-.603l.04 1.922a7.731 7.731 0 01-3.122.657c-1.828 0-2.757-.37-3.167-.608zm-.05 2.164a6.867 6.867 0 003.172.577 7.958 7.958 0 003.127-.637l.04 1.917a7.272 7.272 0 01-3.172.692c-1.907 0-2.816-.38-3.211-.628zm-.05 2.163c.495.267 1.424.598 3.217.598a7.538 7.538 0 003.176-.667l.045 1.917a7 7 0 01-3.221.721c-1.976 0-2.88-.385-3.256-.647zm-.044 2.169c.47.281 1.408.612 3.26.612a7.227 7.227 0 003.227-.696l.039 1.912a6.585 6.585 0 01-3.27.76c-2.05 0-2.935-.39-3.3-.667zm-.04 2.168c.465.292 1.414.623 3.306.623a6.862 6.862 0 003.275-.726l.04 1.911a6.308 6.308 0 01-3.315.79c-2.115 0-2.964-.39-3.35-.676zm-.049 2.174c.465.306 1.418.637 3.355.637a6.62 6.62 0 003.32-.756l.039 1.912a5.246 5.246 0 01-1.976.712h-2.154a.366.366 0 00-.227.084 8.314 8.314 0 01-1.235-.168v-.643a.35.35 0 00-.35-.35h-.82zm4.298 3.186v1.458l-1.383-.307v-1.15zm-2.07-.41a.252.252 0 000 .064v1.34l-1.111-.248v-1.314a8.15 8.15 0 001.092.148zm-1.822-.632v.044l-.1-.044zm-1.379 0h.87a2.396 2.396 0 00.494.267v1.343l-1.379-.306zm-3.917-1.057h1.383v1.808l-1.383-.306zm-6.422-4.94v-.89h6.768v.87zm5.538.691v5.563l-2.08-.464a.4.4 0 00-.153 0l-2.08.464V81.72zm-6.58 4.264h1.378v1.482l-1.378.306zm4.446 1.536l17.072 3.819c0 .464 0 .933.045 1.412l-1.843-.41-15.22-3.413a.267.267 0 00-.153 0l-14.983 3.35V90.87zm3.304 38.117l1.186-.573h.949a.173.173 0 00.167-.134.178.178 0 00-.084-.197l-.163-.09.727-.35.83.494-1.799.874zm.366.696l-2.47 1.19h-1.833l2.47-1.19zm-8.23-1.635l4.59-2.598 4.697 2.588zm4.54-34.224c-3.458 0-4.742 1.527-5.02 1.927h-1.22v-1.379l6.24-1.398 6.239 1.398v1.379h-1.225c-.272-.4-1.556-1.927-5.014-1.927zm4.085 1.927h-1.22v-.736a4.066 4.066 0 011.22.736zm-1.432-.815v.815h-1.171V91.29a6.303 6.303 0 011.17.311zm-1.379-.326v1.14h-1.17v-1.224a9.243 9.243 0 011.17.084zm-1.378-.084v1.225h-1.17V91.26a9.173 9.173 0 011.17-.084zm-1.383.113v1.112H70.4v-.8a6.773 6.773 0 011.166-.312zm-1.378.376v.736h-1.216a4.199 4.199 0 011.216-.736zm9.104 1.417v.445H66.815v-.445zm-11.55 1.146v1.245h.578v-.207h-.365v-1.038H69.2v1.245h.622v-.207h-.415v-1.038h1.25v1.245h.667v-.207h-.455v-1.038h1.245v1.245h.707v-.207h-.494v-1.038h1.245v1.245h.755v-.207h-.543v-1.038h1.24v1.245h.8v-.207h-.588v-1.038h1.245v1.245h.84v-.207h-.632v-1.038h1.245v1.245h.884v-.207h-.672v-1.038h1.156v7.549H66.815v-7.529zm11.55 8.33v.404H66.815v-.365zm-11.55 1.066v1.176h.578v-.213h-.365v-.963H69.2v1.176h.622v-.213h-.415v-.963h1.25v1.176h.667v-.213h-.455v-.963h1.245v1.176h.707v-.213h-.494v-.963h1.245v1.176h.755v-.213h-.543v-.963h1.24v1.176h.8v-.213h-.588v-.963h1.245v1.176h.84v-.213h-.632v-.963h1.245v1.176h.884v-.213h-.672v-.963h1.156v7.627H66.815v-7.607zm11.55 8.329v.445H66.815v-.445zm-11.55 1.146v1.482h.578v-.212h-.365v-1.28H69.2v1.482h.622v-.212h-.415v-1.28h1.25v1.482h.667v-.212h-.455v-1.28h1.245v1.482h.707v-.212h-.494v-1.28h1.245v1.482h.755v-.212h-.543v-1.28h1.24v1.483h.8v-.213h-.588v-1.28h1.245v1.483h.84v-.213h-.632v-1.28h1.245v1.483h.884v-.213h-.672v-1.28h1.156v10.543l-6.017-3.389a.36.36 0 00-.346 0l-6.115 3.409V113.12zm-1.63-21.938v32.791l-1.19.667V91.424zm-7.686 2.282h-.494v-.445h.44c.049.168.054.317.054.465zm2.42-3.952v-1.457h1.379v1.15zm2.06-1.912a6.57 6.57 0 001.127-.262V88.8l-1.107.247V87.71a.385.385 0 00-.02-.104zm3.211-.588v1.324l-1.388.321v-1.595l.064-.035zm-1.215-5.434a7.484 7.484 0 01-6.575 0l.044-2.297a7.825 7.825 0 006.487 0zm-3.305-34.87c.494 0 1.976-.149 2.648-.223l.044 2.307c-.657.089-2.094.267-2.692.267-.598 0-2.015-.178-2.677-.267l.04-2.307c.686.104 2.128.252 2.637.252zm-2.633-.43l.03-1.69a58.896 58.896 0 005.206-.528l.04 2.213c-.672.074-2.144.227-2.643.227-.499 0-1.956-.124-2.633-.193zm2.633 2.993c.608 0 2.026-.178 2.692-.267l.045 2.307a24.398 24.398 0 01-2.737.307 23.282 23.282 0 01-2.722-.307l.04-2.307c.677.134 2.075.297 2.682.297zm0 2.56a23.38 23.38 0 002.742-.307l.044 2.307a19.76 19.76 0 01-2.786.35 19.024 19.024 0 01-2.766-.35l.04-2.307a23.366 23.366 0 002.726.336zm0 2.558a19.157 19.157 0 002.786-.346l.045 2.307a16.52 16.52 0 01-2.83.39 16.129 16.129 0 01-2.817-.39l.045-2.307a18.54 18.54 0 002.771.376zm0 2.564a16.302 16.302 0 002.836-.39l.044 2.307a14.227 14.227 0 01-2.88.434 13.891 13.891 0 01-2.86-.434l.044-2.303a16.228 16.228 0 002.816.415zm0 2.559a13.832 13.832 0 002.885-.43l.04 2.307a12.41 12.41 0 01-2.925.494 12.177 12.177 0 01-2.905-.47l.04-2.306a13.773 13.773 0 002.865.434zm0 2.564a12.547 12.547 0 002.93-.47l.044 2.302a8.833 8.833 0 01-5.928 0l.04-2.302a12.35 12.35 0 002.914.5zm0 2.558a11.12 11.12 0 002.964-.494l.04 2.302a8.442 8.442 0 01-6.012 0l.04-2.302a11.11 11.11 0 002.968.524zm0 2.56a9.93 9.93 0 003.023-.544l.045 2.302a8.235 8.235 0 01-6.11 0l.044-2.302a10.102 10.102 0 002.998.573zm0 2.563a9.144 9.144 0 003.073-.583l.04 2.302a7.973 7.973 0 01-6.2 0l.044-2.302a9.144 9.144 0 003.043.613zm0 2.559a8.398 8.398 0 003.117-.613l.045 2.298a7.731 7.731 0 01-3.162.666 7.617 7.617 0 01-3.132-.657l.04-2.297a8.398 8.398 0 003.092.643zm0 2.564a7.815 7.815 0 003.167-.652l.044 2.297a7.647 7.647 0 01-6.387 0l.04-2.297a7.864 7.864 0 003.136.682zm0 2.559a7.346 7.346 0 003.216-.682l.04 2.292a6.748 6.748 0 01-3.256.741 6.822 6.822 0 01-3.22-.721l.039-2.297a7.356 7.356 0 003.181.696zM59.05 29.995h5.098l.494.682h-6.076zm-1.309 2.07v-.687h7.716v.687zm.637.697H64.8l-.247.686h-5.928zm5.681 3.759l.025 1.373a57.888 57.888 0 01-4.975.356l.035-1.729zm-4.905-.702l.03-1.67h4.83l.03 1.67zm-6.195 8.24c-6.56 0-9.717 2.85-10.818 4.155a6.496 6.496 0 011.067-4.831c2.08-2.915 6.713-4.397 13.757-4.397 11.89 0 17.345-2.816 19.044-3.952-.296 4.367-3.66 9.035-23.05 9.035zm5.35 37.79a7.77 7.77 0 006.58 0l.04 2.283a6.091 6.091 0 01-3.35.81 6.17 6.17 0 01-3.314-.785zm-.05 2.535a6.536 6.536 0 003.32.746 6.461 6.461 0 003.355-.766l.04 1.976h-.589a.35.35 0 00-.35.351v.45a6.279 6.279 0 01-1.29.291.37.37 0 00-.168-.044h-2.08a.296.296 0 00-.148.034 5.118 5.118 0 01-2.109-.726zm-.044 2.54a5.261 5.261 0 001.937.661.35.35 0 00-.025.129v1.976l-1.111.247V88.77a.346.346 0 00-.346-.351h-.494zm.104 2.183v.988l-.346.079c0-.356 0-.707-.04-1.053zm-.706 11.856v-2.727c.128-1.349.232-2.712.296-4.06h.494a61.157 61.157 0 01-.494 7.631h-.687c.035-.281.07-.558.109-.844zm-.988 8.778h-.712c.178-.949.37-2.016.568-3.172h.42v1.73c-.074.488-.158.973-.247 1.432zm.276-.326v.326h-.064c.05-.119.07-.227.094-.356zm-1.526 3.013c.03-.138.06-.291.094-.444h.686c-.03.153-.064.3-.094.444zm.528.702c-.04.158-.074.31-.108.454v-.454zm-.844-2.688l-.168.84h-.494c.118-.494.301-1.22.494-2.188v1.348zm-.312 1.542c-.03.158-.064.306-.094.444h-1.205a3.996 3.996 0 00.642-.316.356.356 0 00.114-.128zm-.242 1.146c-.059.271-.103.494-.133.607h-.015v-.612zm-.37 0v.676a8.966 8.966 0 01-1.097.188v-.864zm0 1.398v.094h.578v-.213h-.143a1.482 1.482 0 00.281-.084.34.34 0 00.208-.242l.212-.948h.36v1.333c-.044.178-.073.307-.093.37a9.623 9.623 0 01-2.47.495v-.608a10.374 10.374 0 001.096-.207zm2.084-10.868c-.044.326-.093.647-.143.963h-.237v-.37l.089-.593zm-.237-.702c.025-.148.045-.296.065-.45h.335l-.049.455zm.06 1.877q-.08.529-.163 1.038h-.346c.06-.331.113-.682.173-1.038zm-.282 1.74c-.05.29-.099.577-.143.859v-.86zm-.148 4.712c.054-.262.109-.548.163-.84h.706c-.059.292-.118.568-.173.84zm.988-5.434c.114-.711.232-1.452.34-2.213h.104v1.176h.45l-.163 1.037zm.657-1.25v-.963h.415c-.05.321-.094.647-.143.963zm-.217-1.664c.024-.149.044-.297.064-.45h.721l-.01.474zm-.11-13.832h.297c0 .395.035.8.04 1.205l-.336.074zm-.083 2.02l.43-.099v1.408l-.435.099c.02-.44.025-.934.03-1.428zm-.04 2.13l.435-.1v.307h-.415v-.208zm-.034.908h.271v1.329h.08c0 .296-.04.593-.065.89h-.405c.074-.722.114-1.463.143-2.219zm-.163 2.92h.296v1.042c-.07.716-.148 1.423-.232 2.13h-.34q.172-1.517.3-3.172zm0 3.868c-.035.286-.07.563-.109.844h-.34q.049-.415.103-.844zm-34.94 10.62a85.733 85.733 0 01-2.54-20.99c0-14.547 9.974-19.71 18.52-19.71s18.52 5.163 18.52 19.71a85.654 85.654 0 01-2.544 20.99c-.425.223-2.075.989-5.207 1.087.045-1.26.094-2.41.109-2.776a34.293 34.293 0 002.371-5.874 1.576 1.576 0 00.346.045 1.517 1.517 0 001.517-1.517v-.143c.958-.929 1.482-2.574 1.482-4.703 0-1.264-.336-2.104-.988-2.47a2.282 2.282 0 00-1.932 0c-.34-1.309-1.576-5.177-4.347-6.308 2.47-3.31 1.754-6.422 1.739-6.491l-.682.168c0 .079 1.729 7.632-10.483 11.337-4.1 1.245-9.48.627-10.156-.42-.035-.06-.099-.158.084-.365 1.062-1.206.682-3.409.38-5.177a55.74 55.74 0 01-.148-.885l-.692.1c.045.286.094.592.149.903.054.311.118.697.173 1.057-2.688.638-3.295 4.61-3.424 6.052a2.238 2.238 0 00-1.857.024c-.662.38-.988 1.22-.988 2.47 0 2.03.494 3.626 1.353 4.575a1.635 1.635 0 00-.024.271 1.517 1.517 0 001.516 1.517 1.447 1.447 0 00.494-.089 33.765 33.765 0 002.391 5.928c0 .36.07 1.512.124 2.776-3.172-.118-4.827-.87-5.252-1.091zm30.133 3.804a.114.114 0 00-.099.074.119.119 0 00.04.119 4.13 4.13 0 01.632.613v1.916a10.423 10.423 0 00-1.19-2.213v-1.067c.385 0 .79-.035 1.19-.064v.593c-.35.024-.573.03-.583.03zm.573.188v.296a3.853 3.853 0 00-.286-.281zm-1.19-1.447v-1.048c.45-.084.85-.177 1.19-.271v1.254c-.405.03-.815.05-1.2.065zm-2.801.281c0-.33 0-.682.03-1.032l.592-.03v.815a.331.331 0 00-.217.198h-.129l.109.069a.35.35 0 00.183.39 4.609 4.609 0 011.531 1.339v.148a5.123 5.123 0 00-1.842-1.348l-.07-.03a.356.356 0 00-.202 0v-.301h.06v-.213zm1.862.45h.237v.227a3.54 3.54 0 00-.247-.227zm-1.027-.707v-.805a17.08 17.08 0 001.264-.138v.953c-.573-.005-1.008-.005-1.274-.01zm-24.206-10.566a1.482 1.482 0 00.306-.465h.054l-.024-.093a1.482 1.482 0 00.084-.47 1.512 1.512 0 00-2.673-.988c-.632-.84-.988-2.198-.988-3.868 0-.686.114-1.566.642-1.877.529-.311 1.374.035 1.65.198a.36.36 0 00.346 0 .336.336 0 00.178-.292c0-.054.212-5.177 2.845-5.893.119 1.131.08 2.213-.469 2.84a.953.953 0 00-.148 1.206c.593.923 2.964 1.437 5.617 1.437a19.083 19.083 0 005.33-.721c4.475-1.359 7.163-3.24 8.768-5.118 3.078 1.062 4.21 6.254 4.219 6.309a.35.35 0 00.202.247.356.356 0 00.317 0c.276-.164 1.116-.494 1.65-.198.533.296.642 1.19.642 1.877 0 1.734-.38 3.132-1.057 3.952a1.512 1.512 0 10-2.218 2.025 34.086 34.086 0 01-2.391 5.894v.024c-2.1 3.952-5.37 7.771-10.216 7.771-4.846 0-8.126-3.809-10.22-7.78a34.486 34.486 0 01-2.461-6.017zm2.539 7.662c2.692 4.42 6.19 6.837 10.117 6.837 3.927 0 7.41-2.426 10.122-6.857a190.647 190.647 0 00-.133 4.619c-1.107 1.536-4.165 5.034-10.073 6.916-5.612-1.769-8.65-5.014-9.88-6.65a.257.257 0 000-.088c-.025-1.146-.099-3.31-.168-4.777zm5.142 18.989a46.354 46.354 0 01-.884-.568 5.622 5.622 0 01.158-.959l-.178-.178a6.758 6.758 0 00-.177.988 34.327 34.327 0 01-.885-.612 7.76 7.76 0 01.178-1.275l-.173-.172a7.553 7.553 0 00-.202 1.304 32.744 32.744 0 01-1.033-.771 7.46 7.46 0 01.267-1.482l-.173-.173a7.998 7.998 0 00-.291 1.517 25.91 25.91 0 01-.85-.692 7.356 7.356 0 01.252-1.714l-.173-.173a7.672 7.672 0 00-.281 1.72c-.287-.248-.578-.495-.865-.771a7.326 7.326 0 01.227-1.843l-.173-.173a7.588 7.588 0 00-.257 1.853c-.261-.252-.523-.494-.78-.766l-.128-.134h.079a7.267 7.267 0 01.202-1.832l-.173-.178a7.608 7.608 0 00-.237 1.882 20.854 20.854 0 01-.825-.934 7.178 7.178 0 01.183-1.822l-.173-.178a7.07 7.07 0 00-.212 1.748 15.78 15.78 0 01-.825-1.13 7.005 7.005 0 01.153-1.483l-.173-.173a6.832 6.832 0 00-.188 1.344 6.264 6.264 0 01-.588-1.16v-.579c.494-3.374 2.357-4.599 3.043-4.94.114.188.297.465.544.795a9.45 9.45 0 00-1.151 1.21l.173.12a9.312 9.312 0 011.106-1.162c.232.302.524.653.865 1.028a9.223 9.223 0 00-.865.88l.173.118a9.045 9.045 0 01.835-.845c.262.282.558.578.884.884-.178.163-.41.386-.667.672l.178.119a8.99 8.99 0 01.647-.652c.297.271.618.548.988.83-.153.138-.34.326-.548.548l.178.118c.207-.222.39-.405.538-.538.336.262.692.524 1.077.785a9.252 9.252 0 00-.494.494l.173.119c.198-.207.37-.375.494-.494.336.222.696.44 1.067.652q-.222.217-.534.548l.178.119c.218-.232.4-.42.549-.558.345.197.711.39 1.091.578-.173.163-.39.39-.632.662l.178.118c.257-.286.494-.518.652-.686.454.222.924.434 1.423.632-.233.202-.544.494-.89.855l.178.118c.376-.39.707-.692.934-.89.321.124.642.248.988.362-1.047 1.091-3.794 4.248-4.17 6.97zm4.98-1.275c-3.112 0-3.35-.953-3.354-.953h-.109a22.432 22.432 0 013.374-4.52 22.121 22.121 0 013.399 4.564c-.129.232-.702.91-3.325.91zm11.065-3.665c-.217.237-.44.47-.666.691a7.904 7.904 0 00-.648-2.88l-.153.183a7.637 7.637 0 01.598 2.9c-.277.262-.558.519-.84.77a7.83 7.83 0 00-.617-2.613l-.148.183a7.543 7.543 0 01.563 2.599c-.282.247-.568.494-.85.701a8.022 8.022 0 00-.568-2.253l-.153.188a7.82 7.82 0 01.523 2.223c-.355.277-.701.534-1.032.77a7.948 7.948 0 00-.39-1.891l-.158.197a7.48 7.48 0 01.35 1.833q-.494.331-.889.608a6.99 6.99 0 00-.311-1.398l-.158.192a7.025 7.025 0 01.276 1.334c-.4.257-.74.464-.987.613-.366-2.722-3.118-5.889-4.165-7.005.356-.119.697-.247 1.028-.376.212.178.538.494.918.86l.198-.094c-.356-.37-.667-.657-.894-.855.494-.197.988-.415 1.423-.632.192.183.494.464.805.84l.193-.094a13.697 13.697 0 00-.796-.845c.376-.187.741-.38 1.087-.578a11.856 11.856 0 01.84.875l.197-.1c-.34-.384-.637-.686-.844-.878.37-.218.726-.435 1.062-.657a10.7 10.7 0 01.953.988l.193-.094a11.639 11.639 0 00-.988-.988c.38-.262.74-.524 1.077-.786a10.443 10.443 0 011.121 1.19l.193-.093a10.794 10.794 0 00-1.146-1.23c.35-.277.671-.554.988-.825.78.682 3.013 2.934 2.964 6.274-.055.059-.104.093-.163.153zm.366-.405c-.07-3.27-2.228-5.489-3.028-6.195.326-.306.617-.603.884-.884.805.696 2.964 2.865 2.964 6.086-.252.316-.509.642-.835.993zm1.032-1.26c-.108-3.147-2.218-5.27-3.038-5.972.341-.38.633-.726.865-1.033.721.618 2.88 2.707 3.003 5.83-.232.34-.508.735-.844 1.175zm1.023-1.482c-.252-3.043-2.356-5.078-3.073-5.686a12.7 12.7 0 00.524-.76c.711.355 2.658 1.644 3.092 5.3a4.13 4.13 0 01-.558 1.141zm3.547-.336c-.632-.301-1.176-.548-1.59-.74l-.747-.342a9.75 9.75 0 00-.118-.72c.074.276.108.444.108.449a.39.39 0 000 .044v.252l.702.321v-.138c.37.148.929.375 1.625.677zm.76.366l-.553-.262v-.232l.554.242zm0-1.023l-.553-.237v-.425h-.207v.331c-.736-.311-1.304-.538-1.625-.667v-2.86a7.524 7.524 0 01.395 1.062l-.178.124.119.173.113-.08a7.356 7.356 0 01.168.92.104.104 0 00.064.088l.183.07a.282.282 0 00.163.064c.292.118.766.31 1.359.568zm0-1.082l-.785-.33h.786zm-.236-1.032l3.457-2.52 3.419 2.52zm4.88 3.423l.232.119h-.232zm-1.348.119v-.79c.37.177.75.365 1.136.563v.222zm1.136.212v.494l-.934-.494zm-.87-1.101h.87v.43zm-.266-.208v-.89H59.9v.89zm0-1.101v-.643H59.9v.643zm-.213 1.309v.884l-1.126-.544v-.345zm-1.136-.208v-.321c.227.099.454.208.692.321zm0-.553v-.336h1.141v.87zm0-.548v-.643h1.141v.643zm-1.245 2.134v-.282l.736.34h-.622zm1.037.494l-.494-.238h.494zm0-1.092l-.533-.247h.533zm0-.455H56.18v-.864l1.037.464zm0-.647l-.538-.242h.538zm0-.454H56.17v-.633h1.037zm3.952 4.698l-.163-.094h.163zm0-.302h-.553a137.044 137.044 0 00-3.176-1.645v-.31c1.166.552 2.47 1.2 3.73 1.92zm0-.84l-.084-.049h.084zm0-.261h-.494c-.187-.104-.375-.193-.563-.297v-.592h.638c.133.064.266.138.395.207zm0-1.097h-.38l-.687-.35v-.54h1.033zm0-1.097h-1.032v-.889h1.032zm0-1.101h-1.032v-.642h1.032zm1.784 5.686l-.445-.257-.637-.356v-.326c.375.217.75.445 1.116.672a.356.356 0 00-.064.281zm1.309.825a35.73 35.73 0 00-.884-.564h.44l.444.297zm0-1.853l-.623.346a46.385 46.385 0 00-1.768-1.057v-.939c.805.44 1.61.91 2.39 1.398zm0-.494a42.907 42.907 0 00-2.391-1.388v-3.399h1.314a.35.35 0 00.207-.632l-4.51-3.295a.35.35 0 00-.41 0l-4.525 3.305a.45.45 0 00-.084.084 6.827 6.827 0 00-.148-.731l4.59-3.226-.12-.173-4.53 3.181a6.6 6.6 0 00-.577-1.403v-1.314a9.48 9.48 0 002.588-.518.104.104 0 00.06-.07l.079-.316h.444v-.212h-.4c.074-.306.178-.736.301-1.28h.924v1.483h.667v-.213h-.454v-1.28h1.244v1.483h.707v-.213h-.494v-1.28h1.245v1.483h.756v-.213h-.544v-1.28h1.245v1.483h.795v-.213h-.587v-1.279h1.244v1.482h.855v-.212H63.1v-1.28h1.136zm0-12.098h-7.904c.03-.143.064-.291.099-.444h7.79zm0-1.146H56.55l.173-.84h.91v-4.574h-.065q.084-.494.163-1.037v-.035c.06-.375.114-.756.168-1.141h.623v1.176h.706v-.213h-.494v-.963h1.245v1.176h.756v-.213h-.544v-.963h1.245v1.176h.795v-.213h-.587v-.963h1.244v1.176h.855v-.213H63.1v-.963h1.136zm-.015-8.314h-6.234l.06-.45h6.174zm0-1.146H58.15c.252-2.09.435-4.238.494-6.303h.598v-.208h-.494v-1.121h1.245v1.329h.755v-.208h-.543v-1.121h1.245v1.329h.795v-.208h-.588v-1.121h1.245v1.329h.84v-.208H63.1v-1.121h1.136zm0-8.334h-5.582v-.444h5.582zm0-1.146h-3.21l3.21-.736zm.89 33.019l.42.287h-.935zm.987 2.964c-.35-.301-.74-.613-1.19-.934v-.266c.41.286.81.582 1.19.889zm0-1.2c-.35-.267-.706-.524-1.072-.781h1.072zm-.217-1.482a15.212 15.212 0 00-.583-.4l7.815-4.358 5.814 3.276-.73.35-5.025-2.771a.178.178 0 00-.173 0l-5.25 2.964a.178.178 0 00.088.331h9.228l-1.19.573zm2.539 5.434a.395.395 0 00-.04-.08 8.037 8.037 0 00-1.58-2.06v-.375a15.917 15.917 0 011.62 1.58zm0-1.976a19.68 19.68 0 00-1.62-1.482v-1.087a17.35 17.35 0 011.62 1.422zm.766 1.936l-.188.099-.074.044-.292-.064v-.731c.06.074.129.148.183.222a.35.35 0 00.282.139h.089zm0-1.087c-.173-.212-.36-.42-.554-.627v-1.141c.198.207.386.42.554.632zm.35-2.47a.35.35 0 00-.35.351v.637a15.576 15.576 0 00-2.352-2.178h7.568l-2.47 1.19zm.939.702l-.588.286v-.286zm-.558 2.47h-.03v-.287l.43-.207v.202h.188zm2.1-.988l-1.068.494h-.425v-.1l1.482-.72zm-1.483-.37v-.495h1.023zm2.164.053l-.46.218v-.316l.46-.223zm0-1.101l-.706.34h-1.665v.806l-.43.207v-.894l1.072-.518h1.729zm1.605.34h-.444v.208l-.46.223v-.331l1.033-.494h.711zm2.298-1.086h-.727l2.47-1.19h.8zm4.016-1.902h-.84l.939-.454.39.222zm.563-1.482l-.445.217-.746-.42v-.088l1.19-.573zm0-1.097l-1.19.573V91.132l1.19.262zm2.238 1.23l-1.537.727v-.42l1.537-.746zm0-1.22l-1.537.746v-.864l1.537-.741zm.854.815l-.642.307v-.44l.642-.311zm0-1.225l-.642.311v-.86l.642-.31zm0-1.091l-.642.31v-1.402h-.212v1.482l-1.537.74v-9.533h1.112v1.482h.578v-.213h-.37v-1.28h1.244v1.483h.623v-.213h-.41v-1.28h1.24v1.483h.666v-.212h-.454v-1.28h1.245v1.482h.711v-.212h-.494v-1.28h1.245v1.482h.756v-.212h-.544v-1.28h1.245v1.482h.796v-.212h-.618v-1.28h1.245v1.482h.682a113.205 113.205 0 00-2.04 3.152l-2.698-1.976a.356.356 0 00-.415 0l-4.475 3.305a.35.35 0 00-.129.39.356.356 0 00.336.242h1.314zm-.252-2.545l3.419-2.519 2.529 1.848-.415.671zm4.076.702l-.534.257v-.257zm-.534.855h.988l-.988.494zm-1.348 0h.113l-.113.054zm0 1.096h.079l-.08.04zm-.208 1.388l-1.037.494v-.454l.672-.321h.365zm0-1.245l-1.037.494v-.642h1.037zm0-.35h-1.037l1.037-.494zm0-.736l-1.037.494v-.652h1.037zm0-.366h-1.037v-.642h1.037zm.208 2.599v-.188h.4zm1.14-.539l-.296.138h-.854v-.069l1.14-.548zm0-1.265l-.627.307h-.494v-.603l.593-.286h.549zm0-.795h-.108l.109-.05zm0-.281l-.592.281h-.558v-.642h1.14zm1.35 1.699l-1.142.538v-.494l.346-.168h.795zm0-.316h-.361l.36-.178zm0-1.102h-1.142v-.153l1.018-.494h.123zm1.24.83l-.569.272h-.454v-.277l1.032-.494zm0-1.29l-.95.46h-.073v-.642h1.032zm-.144-.884c.07-.113.188-.3.336-.548l.519.38-.09.168zm1.838 1.374l-.988.47v-.525a.331.331 0 00.123-.138l.237-.494h.875c-.08.287-.168.509-.257.736zm1.398-3.26a57.18 57.18 0 00-.87 1.975l-.617-.45c.405-.8.933-1.797 1.482-2.76zm0-2.639c-.746 1.216-1.507 2.638-2.06 3.725l-.47-.34c.687-1.097 1.7-2.683 2.53-3.869zm0-.844c-.163.227-.341.494-.519.74h-.598v-1.279h1.117zm0-1.24H81.886v-.445h11.155zm0-4.876a13.689 13.689 0 01-.588-1.625l-.074-.242-.672.207.07.237A11.535 11.535 0 0093.05 109v2.223H81.887v-7.578h1.12v1.176h.579v-.213h-.37v-.963h1.244v1.176h.623v-.213h-.41v-.963h1.24v1.176h.666v-.213h-.454v-.963h1.245v1.176h.711v-.213h-.494v-.963h1.245v1.176h.756v-.213h-.544v-.963h1.245v1.176h.796v-.213h-.618v-.963h1.245v1.176h.84v-.213h-.628v-.963h.307q.375 1.15.81 2.218zm1.892 5.928a43.96 43.96 0 00-1.19 2.233v-.988c.226-.37.454-.716.671-1.018a.331.331 0 00.064-.202v-3.715a.346.346 0 00-.187-.311 2.233 2.233 0 01-.549-.593v-1.344q.563 1.206 1.19 2.292zm-1.19-.035v-3.507l.034.03v3.458a.301.301 0 00-.045.059zm-.89-10.122a2.786 2.786 0 00.563-.069l-.153-.681a2.075 2.075 0 01-1.512-.228l-.182-.138a3.78 3.78 0 01-.41-.39 3.78 3.78 0 00.41.39 1.57 1.57 0 00.182.133 2.42 2.42 0 01-.36-.242c-1.23-.988-2.055-3.285-2.055-5.72 0-.944.227-1.556.667-1.828.755-.464 1.976.153 1.976.158a.35.35 0 00.306 0 .366.366 0 00.198-.237c.42-1.778 1.847-5.928 3.843-6.768a1.798 1.798 0 01.884-.128c2.633 2.337 8.166 4.599 19.735 4.599a.336.336 0 00.272-.128.356.356 0 00.064-.277c0-.06 0-.114-.03-.168-.35-1.778-.252-3.176.287-4.18a4.105 4.105 0 011.768 1.102c2.011 2.046 2.688 5.894 2.698 5.928a.34.34 0 00.187.252.356.356 0 00.317 0s1.244-.617 1.976-.158c.44.272.666.884.666 1.828 0 2.435-.825 4.737-2.055 5.72a2.13 2.13 0 01-1.872.494l-.153.682a2.83 2.83 0 00.563.07c-1.507 4.579-5.71 14.167-14.415 14.167a11.243 11.243 0 01-6.94-2.4c-4.1-3.123-6.412-8.591-7.435-11.743zm2.895 15.398l.178.223a16.005 16.005 0 006.338 4.515l.054-.129.03-.064a17.448 17.448 0 01-4.634-2.786 11.752 11.752 0 01-1.976-2.07v-1.077q.084.094.178.193c1.61 1.768 5.364 5.33 9.983 5.928-1.383.746-3.458 2.188-3.75 4.298-1.08-.494-3.852-1.843-5.497-3.26a6.224 6.224 0 01-.721-.727 184.127 184.127 0 01-.193-5.004zm5.508 26.948c-.054.637-.099 1.28-.138 1.931 0 .223-.025.445-.04.672-.128-.82-.257-1.645-.38-2.47.079-.845.163-1.655.257-2.435l.103.82c.055.533.124 1.027.188 1.521zm-2.762-18.12c0 .326.055.687.084 1.077a5.83 5.83 0 01-.558-.232l-.168-.084c-.034-.43-.064-.82-.094-1.171.213.168.46.306.727.45zm-.755-.672c0-.286-.04-.538-.06-.76.247.162.494.316.746.469 0 .212.035.45.05.711a11.53 11.53 0 01-.568-.321zm.86 1.976c.251 3.122.696 7.988 1.377 13.24-.088.424-.177.893-.266 1.402-.03.153-.055.306-.08.464a242.79 242.79 0 01-1.758-15.407 6.303 6.303 0 00.716.346zm.044-2.144l.74.42q0 .296.045.637l-.73-.36c-.03-.208-.045-.44-.065-.672zm.074.944c.227.118.47.232.726.355a318.11 318.11 0 001.087 11.762c-.03.094-.158.549-.326 1.28-.03.133-.065.272-.1.425a271.115 271.115 0 01-1.397-13.753zm.884-.405c.252.138.494.266.731.385 0 .178.025.36.04.553-.193-.084-.672-.291-.727-.32-.024-.174-.039-.381-.054-.574zm.687 14.464c.118-.558.227-.988.31-1.324 0 .202.045.405.07.612.06.52.124 1.038.188 1.566-.08.578-.148 1.181-.218 1.799 0 .197-.039.4-.064.602-.133-.948-.262-1.892-.38-2.82.015-.154.044-.297.094-.435zm.345 5.034c.04.276.084.553.129.834.089.588.188 1.171.286 1.754q-.04.934-.044 1.882v.707c-.188-.914-.36-1.848-.529-2.786.02-.816.074-1.616.139-2.391zm-.044 4.154c.138.711.277 1.413.425 2.11 0 .587.034 1.18.064 1.778 0 .202 0 .4.025.598-.257-.988-.494-2.05-.736-3.113 0-.75.034-1.482.064-2.208.034.282.084.558.138.835zm.464-9.737c-.024.188-.054.38-.084.574a307.83 307.83 0 01-1.299-13.585l.726.31c.183 2.59.494 6.522.944 10.933-.119.563-.213 1.17-.306 1.768zm-.494-13.377l.731.356c.134 2.094.336 4.97.623 8.264a71.128 71.128 0 00-.341 1.68c-.035.183-.064.365-.099.548-.474-4.49-.77-8.442-.933-10.848zm.944.46l.726.33c.079 1.305.193 3.039.34 5.054-.123.464-.251.988-.39 1.571-.039.163-.073.336-.113.494-.272-2.93-.454-5.503-.583-7.45zm-3.952-1.2c.03.35.06.745.099 1.185a12.51 12.51 0 01-.573-.336l-.168-.104-.104-1.25c.188.158.435.326.721.504zm-.766-.791l-.06-.78c.238.182.495.36.752.533 0 .217.034.494.054.77a9.634 9.634 0 01-.578-.395zm-.81-1.408c.163.153.34.301.529.454 0 .163.03.425.054.776l-.124-.109a4.19 4.19 0 01-.42-.415c-.044-.242-.054-.474-.064-.706zm.05 1.032l.177.168c.104.099.237.208.38.321l.104 1.275a10.856 10.856 0 01-.41-.287l-.172-.123c-.055-.455-.08-.904-.104-1.354zm3.062 23.786v.573a151.469 151.469 0 01-2.964-22.724c.163.124.366.262.593.41.346 4.051 1.131 11.881 2.5 19.563a21.851 21.851 0 00-.153 2.178zM96.943 128c.233.143.494.291.736.425.302 3.62.9 9.796 1.868 16.213-.07.494-.139.988-.198 1.482 0 .167-.04.33-.054.494-1.294-7.317-2.035-14.662-2.376-18.614zm2.352 23.124c0-.988 0-1.976.074-2.89l.148.795q.311 1.62.657 3.211v2.371a56.316 56.316 0 01-.904-3.487zm.914-.36v.567c-.272-1.29-.524-2.603-.761-3.922.06-.716.138-1.403.222-2.05.04.237.074.494.114.716.158.988.33 2.016.494 3.018a26.225 26.225 0 00-.094 1.67zm.163-3.207c0 .203-.03.41-.04.618a146.322 146.322 0 01-.573-3.537q.153-1.048.326-1.912l.09.667c.108.795.217 1.595.335 2.4-.05.574-.099 1.161-.138 1.764zm0 7.855v-2.258l.178.77q.31 1.3.642 2.535c.05.573.099 1.15.163 1.734l.06.494q-.56-1.606-1.043-3.275zm1.037-11.338c0 .213-.044.42-.064.638a225.06 225.06 0 01-.282-2.204 77.18 77.18 0 01.346-2.39c.03.261.054.523.084.785.045.42.094.84.138 1.265a89.14 89.14 0 00-.222 1.906zm.43-3.369l-.089.613c-.074-.667-.143-1.329-.212-1.976.143-.81.286-1.571.43-2.272 0 .242.044.494.064.736.034.35.064.701.098 1.057-.098.593-.197 1.21-.291 1.842zm.538-3.2c-.04.187-.074.38-.108.572-.055-.588-.104-1.16-.153-1.724.039-.178.074-.35.113-.518a53.44 53.44 0 01.38-1.606c0 .222.035.455.05.682 0 .271.044.548.064.83-.113.558-.232 1.15-.346 1.763zm.055-8.922a.331.331 0 00.192-.06.346.346 0 00.158-.291 3.043 3.043 0 01.252-1.18c0 .182 0 .38.03.587.054.929.118 2.1.207 3.458-.03.084-.518 1.695-.563 1.858l-.276-4.372zm.568 5.898l-.119.538c-.04-.494-.074-.963-.108-1.427.044-.163.084-.321.123-.494.173-.632.321-1.122.425-1.453 0 .203.06.988.074 1.142a64.192 64.192 0 00-.395 1.694zm.691-2.836c-.04.159-.084.322-.128.494a415.915 415.915 0 01-.326-5.493 4.446 4.446 0 01.528-.736v.37a11.362 11.362 0 00.257 1.922c.025.568.06 1.19.1 1.878-.11.4-.258.923-.43 1.565zm5.86-2.549a6.422 6.422 0 01-2.229.455h-.108a6.175 6.175 0 01-2.105-.415l-.133-.04a10.823 10.823 0 01-.494-3.892 11.184 11.184 0 012.776-1.665 11.273 11.273 0 012.781 1.665 10.927 10.927 0 01-.489 3.892zm1.382 2.411v.39a54.421 54.421 0 00-.568-2.04c.025-.42.045-.82.064-1.195a11.431 11.431 0 00.366-2.742 2.322 2.322 0 01.173.213 3.715 3.715 0 01.281.405 386.318 386.318 0 01-.291 4.97zm.697 2.796c0 .148 0 .297-.035.445a77.522 77.522 0 00-.518-2.199c.158-2.4.271-4.381.34-5.65a3.878 3.878 0 01.158.394 2.964 2.964 0 01.163.939.346.346 0 00.159.291.366.366 0 00.128.05 478.367 478.367 0 01-.395 5.725zm.627 2.989l-.044.494a97.277 97.277 0 00-.46-2.322c.178-2.277.341-4.634.494-6.916.064-.025.326-.138.726-.326v.252c-.148 2.258-.37 5.33-.681 8.808zm.544 3.142l-.06.553c-.123-.84-.252-1.65-.39-2.426.39-4.184.657-7.904.825-10.433l.726-.355v.256a387.006 387.006 0 01-1.101 12.405zm1.328-12.77c.233-.119.494-.247.732-.385v.266c-.228 3.192-.736 9.5-1.591 16.189-.03.212-.054.424-.084.632a86.715 86.715 0 00-.297-2.524 400.906 400.906 0 001.24-14.178zm2.964-.376l.544-.286c0 .084 0 .173-.025.262-.41 4.94-1.59 17.082-3.927 26.819l-.208.85c.04-.81.07-1.616.08-2.411l.177-.87c1.843-9.232 2.811-19.76 3.167-24.27zm-.172-.148c.034-.45.064-.825.084-1.131.256-.173.494-.346.75-.529 0 .09 0 .188-.024.297 0 .262-.045.588-.074.988-.178.104-.361.202-.544.296zm-.159-.706c0 .237-.04.494-.059.805l-.538.252-.193.084c.025-.36.05-.682.07-.963.251-.149.493-.302.74-.465-.02.094-.024.193-.034.287zm-.617 1.299l.538-.242v.252a231.08 231.08 0 01-2.964 22.931c-.049.257-.098.494-.153.77 0-.869 0-1.723-.059-2.568 1.368-8.22 2.134-16.904 2.47-21.064zm-.34-.716c-.263 3.522-.96 11.91-2.249 20.17-.034.227-.069.459-.108.686a70.537 70.537 0 00-.188-2.583c1.023-7.539 1.596-14.87 1.823-18.135.242-.128.494-.272.74-.415a1.33 1.33 0 00-.034.277zm2.686-.277c-.548 9.505-1.887 21.365-5.038 31.048l-.297.879c.104-.88.188-1.759.252-2.633.084-.311.163-.627.242-.948 2.56-10.172 3.814-23.42 4.204-28.217l.198-.119c.158-.104.311-.203.45-.306zm.084-1.635c0 .346-.034.701-.054 1.057a4.94 4.94 0 01-.444.326l-.198.124c.05-.598.079-1.048.099-1.31.217-.167.425-.345.617-.518-.02.109-.02.217-.02.321zm.247-7.504v.38c-2.074 3.014-6.698 5.202-6.748 5.222l.09.193c.049-.025 4.445-2.115 6.649-5.049v1.081c-1.542 2.104-4.506 3.72-5.756 4.332l.094.188c1.216-.598 4.041-2.134 5.652-4.17v1.097c-1.25 1.517-3.25 2.703-4.748 3.458l.09.188a15.709 15.709 0 004.579-3.28v.346c0 .696-.05 1.422-.084 2.163-1.334 1.61-4.733 3.295-6.096 3.952l-.129.06a4.886 4.886 0 00-1.625-2.811 9.692 9.692 0 00-1.872-1.344l-.252-.143c4.797-.647 8.66-4.446 10.161-6.15-.014.064-.02.173-.02.286zm0-1.432c-.75.923-5.65 6.639-11.554 6.639-3.364 0-6.422-1.858-8.531-3.626-.129-.109-.252-.212-.37-.321l.36.316a22.995 22.995 0 01-3.014-3.008v-5.098l.173.256c3.028 4.446 6.95 6.847 11.362 6.847 4.495 0 8.487-2.52 11.535-7.108v.365c.044 1.092.06 2.712.04 4.738zm-19.493-1.976c.144.138.292.266.445.4zm-3.161 2.05h.207v-3.74h-.207zm9.386 11.91c-.494-.627-.272-2.845-.272-2.87h-.207c0 .094-.243 2.327.33 3.033a2.964 2.964 0 001.838.553 4.94 4.94 0 001.759-.35l-.074-.198c-2.154.825-3.36-.163-3.364-.163zm.405-.41a2.638 2.638 0 001.339.306 4.229 4.229 0 00.904-.104l-.045-.207a2.964 2.964 0 01-2.07-.163 4.397 4.397 0 01-.113-1.64h-.213c0 .148-.084 1.482.173 1.798zm9.593-9.114h.213v-3.3h-.213zm-89.3-7.76a24.03 24.03 0 01-.597-1.053.632.632 0 00.094-.726.563.563 0 00-.425-.292.494.494 0 00-.188 0l-.064-.133a19.483 19.483 0 01-.405-.914.543.543 0 00.148-.306.494.494 0 00-.43-.578h-.064v-.04a22.07 22.07 0 01-.365-1.111.42.42 0 00.084-.03.415.415 0 00.143-.548.37.37 0 00-.36-.198.272.272 0 00-.159.05.42.42 0 00-.138.548.4.4 0 00.153.148l.06.03c.088.301.197.642.326.988 0 .069.044.128.069.197a.524.524 0 00-.237.267l-.158-.35c-.257-.574-.42-.989-.425-.989l-.198.084c0 .045.208.494.494 1.092.099.217.208.46.326.711.178.38.37.78.568 1.171l.222.425a.617.617 0 00.065.36.494.494 0 00.118.144.494.494 0 00.163.109c.153.256.302.494.44.681l.114-.089.054-.04a10.658 10.658 0 01-.331-.493.494.494 0 00.168-.054c.153.276.316.563.494.854a.534.534 0 00-.257.074.632.632 0 00-.212.835.494.494 0 00.123.148.538.538 0 00.657.08.632.632 0 00.212-.835.548.548 0 00-.281-.218zm-1.481-1.814c-.05-.104-.104-.202-.153-.306a34.597 34.597 0 01-.425-.865h.05a.445.445 0 00.197 0c.104.252.222.494.346.786.034.074.074.148.108.227a.588.588 0 00-.113.153zm72.069 7.929h.207v-3.735h-.207zm-69.224-10.908a24.616 24.616 0 01-2.094-7.83h-.208a24.61 24.61 0 002.114 7.904zm1.418-7.785c.178.598.721 1.931 1.951 1.931a2.223 2.223 0 002.159-1.748 2.628 2.628 0 001.363-.144.346.346 0 00.183-.459.35.35 0 00-.46-.183c-.464.203-1.056.1-1.807-.024a8.852 8.852 0 00-4.11.074 4.243 4.243 0 00.178-1.354.366.366 0 00-.366-.336.35.35 0 00-.331.366 4.387 4.387 0 01-.366 1.724l-.35.76.79-.286a7.998 7.998 0 011.166-.321zm18.16 14.583h-.213v3.235h.212zm-16.224 3.314h-.212v2.584h.212zm4.471-6.456a4.322 4.322 0 012.317 0 .41.41 0 00.109 0 .385.385 0 00.108 0 4.308 4.308 0 012.312 0 .356.356 0 00.415-.277.35.35 0 00-.277-.41 5.073 5.073 0 00-2.563 0 5.073 5.073 0 00-2.564 0 .346.346 0 00-.272.41.35.35 0 00.415.277zm-5.34 5.483h-.207v2.688h.207zm16.41-1.576H46.3v3.063h.213zm-8.66-1.872h.238c1.106-.03 3.69-.099 4.821-.87a.35.35 0 00.094-.493.356.356 0 00-.494-.094c-.958.657-3.492.721-4.446.746h-.355c-.9-.03-3.295-.1-4.535-.766a.348.348 0 10-.331.613c1.383.75 3.808.82 4.846.85zm5.435-14.103c-.751.123-1.339.227-1.803.024a.35.35 0 10-.277.642 2.623 2.623 0 001.363.144 2.223 2.223 0 002.16 1.748c1.23 0 1.773-1.333 1.975-1.931a7.998 7.998 0 011.166.321l.682.247-.232-.692a14.237 14.237 0 01-.38-1.827.35.35 0 00-.692.113c.093.578.177.988.247 1.304a8.892 8.892 0 00-4.21-.093zm-6.477 8.595a6.61 6.61 0 001.043.084h.03a6.61 6.61 0 001.042-.084c.158-.025.34-.054.681-.089l.341-.03-.024-.345c0-.07-.529-7.124.736-10.033a15.847 15.847 0 001.976-.494c1.57-.494 3.349-1.013 5.562-.623a.35.35 0 10.119-.691c-2.377-.415-4.239.148-5.884.647a13.778 13.778 0 01-2.198.538.35.35 0 00-.306.39.538.538 0 000 .085c-1.127 2.77-.865 8.457-.771 9.919l-.385.054a6.422 6.422 0 01-.949.074 6.466 6.466 0 01-.948-.074l-.326-.05a9.094 9.094 0 00.182-1.125.352.352 0 00-.701-.055 11.673 11.673 0 01-.247 1.403l-.099.395.405.035c.38.015.568.045.721.07zm5.928 7.87c-3.21 2.395-6.273 1.926-6.303 1.921l-.035.208a5.874 5.874 0 00.727.039 9.682 9.682 0 005.735-1.976c3.799-2.835 6.234-8.255 7.237-16.11h-.208c-.968 7.747-3.379 13.116-7.133 15.917zm-2.47-.989a.348.348 0 00-.464-.518s-.494.395-1.976.395-1.941-.38-1.976-.395a.35.35 0 00-.494.024.356.356 0 000 .494c.064.06.677.578 2.435.578 1.76 0 2.446-.533 2.51-.592zm42.924-3.043h.207v-3.872h-.207zm3.784 4.97l-4.891 3.433.124.173 4.89-3.433zm-27.383-14.099h2.688v-4.569h-2.688zm.697-3.868h1.29v3.172h-1.29zm28.158 13.338h2.687v-4.574h-2.687zm.701-3.873h1.285v3.172h-1.285zm-5.384 3.873h2.702v-4.574h-2.688zm.701-3.873h1.284v3.172h-1.26zm3.458 3.523h.212v-3.873h-.187zm-59.586 3.19h-.163v2.915h.208zm.87.989h-.213v2.796h.213zm7.207 12.409a1.156 1.156 0 101.156-1.156 1.156 1.156 0 00-1.156 1.156zm22.724-25.955h.212v-3.872h-.212zm.494 9.727h2.687v-4.574h-2.687zm.697-3.873h1.289v3.172h-1.29zm-1.196 3.522h.212v-3.872h-.212zm53.742-36.555a.36.36 0 00-.326.39.35.35 0 00.365.341.36.36 0 00.326-.39.35.35 0 00-.37-.36zm5.236 3.522a.296.296 0 00-.316.272.301.301 0 00.252.336.287.287 0 00.316-.267.301.301 0 00-.257-.36zm-65.207 29.195a.282.282 0 00.395-.114.321.321 0 00-.109-.42.277.277 0 00-.39.114.321.321 0 00.074.4zm95.04 29.235c.029.089 2.652 9.237.81 22.23l.207.03c1.853-13.062-.785-22.23-.815-22.34zm-31.02-59.024a.385.385 0 00.415-.355.395.395 0 00-.33-.445.38.38 0 00-.416.35.4.4 0 00.331.45zm4.664 6.21l.207-.05a16.208 16.208 0 00-4.762-7.864l-.133.158a16.02 16.02 0 014.688 7.756zm25.944 61.813a65.518 65.518 0 01-.538 13.23l.207.03a65.602 65.602 0 00.544-13.275zm-24.205-51.45a13.832 13.832 0 00-1.19-4.253l-.189.1a13.407 13.407 0 011.171 4.178zm17.734 65.08a.538.538 0 00-.207.701.494.494 0 00.662.217.534.534 0 00.202-.706.494.494 0 00-.642-.212zm2.055-3.863a.415.415 0 00-.47.365.44.44 0 00.347.494.42.42 0 00.494-.37.435.435 0 00-.356-.49zm-2.51 2.47a.494.494 0 00-.671.182.543.543 0 00.173.717.494.494 0 00.667-.183.543.543 0 00-.154-.731zm2.278.375a.608.608 0 00-.494-.697.583.583 0 00-.652.494.608.608 0 00.494.697.583.583 0 00.667-.509zm-.213.953a.34.34 0 00-.44.228.38.38 0 00.218.494.346.346 0 00.44-.233.37.37 0 00-.203-.503zm-18.188-1.976a.316.316 0 00-.144-.405.282.282 0 00-.38.153.311.311 0 00.143.4.277.277 0 00.4-.157zm-8.848-79.844a.287.287 0 00.316-.267.296.296 0 00-.252-.336.287.287 0 00-.316.267.296.296 0 00.252.336zm-7.904-1.719a.306.306 0 00.252.336.291.291 0 00.321-.267.296.296 0 00-.252-.336.291.291 0 00-.301.267zm2.327-.247a.356.356 0 00.366.346.366.366 0 00.326-.39.347.347 0 10-.692.044zm-.949-.39a.583.583 0 00.638-.534.608.608 0 00-.494-.677.583.583 0 00-.638.534.603.603 0 00.514.677zm2.99 1.17a.291.291 0 00.32-.266.306.306 0 00-.252-.341.296.296 0 00-.32.267.311.311 0 00.27.34zm-1.34-2.563a.548.548 0 00-.024-.736.46.46 0 00-.687.024.543.543 0 000 .736.464.464 0 00.731-.024zM114 74.801a.395.395 0 00.331.444.38.38 0 00.415-.356.4.4 0 00-.331-.444.38.38 0 00-.395.36zm.874-1.443a.291.291 0 00.317-.267.296.296 0 00-.252-.336.287.287 0 00-.317.267.296.296 0 00.272.336zm24.448 84.132a.578.578 0 00-.657.494.613.613 0 00.494.697.583.583 0 00.657-.494.608.608 0 00-.494-.697zm-25.455-83.603a.291.291 0 00.316-.272.301.301 0 00-.252-.336.287.287 0 00-.316.267.301.301 0 00.252.34zm-.672-1.092a.464.464 0 000-.627.395.395 0 00-.588 0 .464.464 0 000 .627.405.405 0 00.588 0zm-1.749.86a.385.385 0 00.42-.351.4.4 0 00-.331-.445.38.38 0 00-.42.35.395.395 0 00.331.445zm27.437 83.648a.464.464 0 00-.149-.608.4.4 0 00-.573.153.46.46 0 00.149.608.4.4 0 00.573-.153zm2.47-1.542a.46.46 0 00.577-.326.494.494 0 00-.306-.617.46.46 0 00-.578.326.494.494 0 00.307.617zm.108-5.532a.306.306 0 00.242.35.291.291 0 00.326-.257.301.301 0 00-.237-.345.291.291 0 00-.33.252zm1.23 1.333a.454.454 0 00.173-.597.41.41 0 00-.568-.188.46.46 0 00-.173.603.41.41 0 00.568.182zm.494-2.035a.39.39 0 00-.311-.454.385.385 0 00-.435.33.405.405 0 00.316.46.375.375 0 00.45-.336zm-18.09-25.5l17.996 8.16.09-.187-18.002-8.166zm18.085 9.88l-12.676-5.75-.089.188 12.676 5.74zm-18.613 23.45a.464.464 0 00-.07.627.405.405 0 00.588.074.494.494 0 00.07-.627.405.405 0 00-.588-.094zm2.035-.252a.346.346 0 00-.39.306.36.36 0 00.286.42.346.346 0 00.395-.306.36.36 0 00-.291-.44zm13.066-2.307a.311.311 0 00.163-.395.282.282 0 00-.37-.173.311.311 0 00-.164.395.282.282 0 00.371.153zm.128 1.635a.366.366 0 00.262-.44.346.346 0 00-.41-.281.375.375 0 00-.267.44.35.35 0 00.435.261zm-11.678-6.54a14.82 14.82 0 01.914-3.503l-.192-.079a14.76 14.76 0 00-.93 3.552zm14.099 3.196a.301.301 0 00-.237-.346.291.291 0 00-.331.257.306.306 0 00.242.346.291.291 0 00.326-.267zm-6.382 1.857a.311.311 0 00-.163.395.287.287 0 00.375.173.316.316 0 00.158-.395.277.277 0 00-.37-.183zm-.045 3.364a.306.306 0 00-.153.4.282.282 0 00.375.163.316.316 0 00.154-.4.282.282 0 00-.376-.182zm1.126-.701a.366.366 0 00-.261.44.346.346 0 00.41.281.375.375 0 00.266-.44.346.346 0 00-.415-.291zm.988.746a.36.36 0 00-.261.434.34.34 0 00.41.282.37.37 0 00.266-.44.346.346 0 00-.395-.286zm-.024-2.964a.37.37 0 00-.494-.227.415.415 0 00-.213.523.366.366 0 00.494.222.41.41 0 00.232-.518zm-9.88 2.494a.306.306 0 000 .608.306.306 0 000-.608zm1.645-.049a.296.296 0 00-.277.311.296.296 0 00.297.297.306.306 0 000-.608zm4.367-10.413s1.976 1.289 2.914 2l.129-.168c-.944-.716-2.91-1.976-2.93-2.01zm5.28 5.928l.03-.094a6.071 6.071 0 000-2.91l-.079-.301-.311.044-.627.08c-.228-1.557-.771-4.708-1.482-5.168-.712-.46-3.211.924-4.713 1.867-.79-.42-1.433-.676-1.739-.607-.988.222-1.556 2.875-1.769 4.154-.76-.05-1.2-.089-1.22-.094h-.266l-.094.252c-.025.07-.593 1.64 0 2.767a.346.346 0 00.494.143.356.356 0 00.143-.494 2.87 2.87 0 01-.06-1.941 56.429 56.429 0 0011.1-.218 5.212 5.212 0 010 2.09c-.38.173-2.207.77-9 .538a.356.356 0 00-.35.341.346.346 0 00.335.36c1.067.035 2.01.055 2.85.055 5.598 0 6.595-.701 6.7-.795zm-9.973-2.9c.311-1.788.874-3.428 1.21-3.503.519-.04 3.236 1.66 5.735 3.424a57.95 57.95 0 01-6.945.064zm8.022-.173c-1.067-.77-2.964-2.095-4.52-3.013 1.7-1.038 3.315-1.779 3.631-1.68.326.262.855 2.574 1.166 4.663zm-2.741 5.123a.405.405 0 00-.213.518.37.37 0 00.494.228.42.42 0 00.213-.524.37.37 0 00-.494-.237zm-1.512-.494a.306.306 0 00-.163.395.287.287 0 00.375.173.316.316 0 00.158-.395.277.277 0 00-.37-.173zm-17.2-80.027a.588.588 0 00.636-.539.608.608 0 00-.494-.677.588.588 0 00-.637.539.608.608 0 00.494.652zM57.74 40.868a.395.395 0 00-.267.494.4.4 0 00.494.267.395.395 0 00.262-.494.39.39 0 00-.489-.267zm1.225 1.116a.652.652 0 10.721.574.652.652 0 00-.72-.574zm10.013 64.22h-.212v3.873h.212zm-7.41-64.002a.558.558 0 10.203.76.563.563 0 00-.203-.76zm-.632-1.047a.652.652 0 10-1.294.148.652.652 0 101.294-.148zm-5.483.607a.43.43 0 00.099.855.43.43 0 00-.1-.855zm-.9 1.304a.321.321 0 00-.286.36.326.326 0 10.287-.36zm7.628-2.109a.39.39 0 00-.262.494.392.392 0 10.751-.227.39.39 0 00-.489-.252zm45.941 31.517a.543.543 0 000-.736.464.464 0 00-.691.024.543.543 0 000 .737.464.464 0 00.677-.01zm-36.985 44.86a2.05 2.05 0 102.05-2.065 2.06 2.06 0 00-2.065 2.08zm2.154-1.354a1.349 1.349 0 011.235 1.25H73.29zm0 1.482h1.235a1.349 1.349 0 01-1.235 1.25zm-.208-1.482v1.25h-1.235a1.349 1.349 0 011.22-1.235zm0 1.482v1.25a1.349 1.349 0 01-1.235-1.25zM53.907 42.108a.494.494 0 10.173.652.494.494 0 00-.173-.652zm-2.292.647a.321.321 0 00-.282.36.326.326 0 10.647-.073.331.331 0 00-.365-.287zm5.705-.553a.553.553 0 10.203.76.553.553 0 00-.203-.76zm-8.324 42.834l-.108.178c.03 0 3.053 1.976 3.512 7.138h.207c-.469-5.315-3.581-7.296-3.61-7.316zm-4.337-9.88a.36.36 0 00.321-.39.346.346 0 00-.365-.346.37.37 0 00.044.736zm9.203 27.2a.282.282 0 00.395-.114.316.316 0 00-.108-.415.277.277 0 00-.39.114.316.316 0 00.103.415zm-22.304-13.65l-.024.208a30.682 30.682 0 003.912.277c3.74 0 6.383-.91 7.904-2.707 2.223-2.668 1.062-6.383 1.052-6.422l-.202.064c0 .04 1.136 3.646-.988 6.22-1.986 2.321-5.894 3.111-11.664 2.36zm21.692 15.808a.445.445 0 00.365-.494.43.43 0 00-.464-.39.435.435 0 00-.366.494.42.42 0 00.455.37zm14.66-63.473a.321.321 0 00-.286.36.326.326 0 10.647-.073.331.331 0 00-.37-.307zm-3.18-.173a.39.39 0 00-.263.494.392.392 0 10.751-.227.39.39 0 00-.489-.267zm1.723.618a.494.494 0 10.173.647.494.494 0 00-.198-.647zm-33.028 33.32c-4.259 1.19-11.392 4.84-11.278 15.94h.212c-.113-10.961 6.916-14.567 11.125-15.738zm36.392-34.792a.326.326 0 10.36.286.326.326 0 00-.36-.296zm-5.81 1.694a.553.553 0 10.203.76.553.553 0 00-.202-.76zm8.162 77.952l.084-.192a2.322 2.322 0 01-.06-4.21l-.089-.192a2.534 2.534 0 00.065 4.594zm29.718-46.638a.37.37 0 00-.044-.736.366.366 0 00-.326.39.356.356 0 00.37.346zm-1.748 6.946c.034.054 3.65 4.876 9.983 4.876.302 0 .613 0 .929-.035V84.6c-6.778.494-10.685-4.702-10.725-4.757zm12.972 7.276h.089v-.212h-.09c-5.799 0-9.973-1.23-12.403-3.656a6.358 6.358 0 01-2-4.085h-.213c0 .089 0 2.188 2.06 4.234 2.47 2.465 6.693 3.72 12.557 3.72zm-12.888-14.192a.291.291 0 00.32-.267.301.301 0 00-.251-.336.291.291 0 00-.321.267.301.301 0 00.252.336zm-6.388 12.127c-1.022-5.36 1.74-7.108 1.769-7.123l-.109-.183c-.03 0-2.92 1.833-1.867 7.346zm21.089 4.772v-.212c-8.087 0-13.461-1.704-15.976-5.073a7.568 7.568 0 01-1.28-6.2l-.202-.06a7.775 7.775 0 001.31 6.383c2.553 3.438 7.987 5.177 16.148 5.177zm-9.92-15.911a.366.366 0 00.327-.39.347.347 0 10-.692.044.356.356 0 00.365.36zm-1.975-.168a.296.296 0 00.32-.272.306.306 0 00-.251-.336.291.291 0 00-.321.267.306.306 0 00.247.356zm3.759.168a.583.583 0 00.632-.539.593.593 0 00-.494-.671.578.578 0 00-.637.533.598.598 0 00.494.692zm-.77-1.65a.548.548 0 00-.026-.736.464.464 0 00-.691 0 .548.548 0 00.025.736.464.464 0 00.686.015zm-2.021.207a.464.464 0 000-.627.4.4 0 00-.588 0 .494.494 0 000 .632.405.405 0 00.583.01zM83.25 100.691h.207v-3.873h-.207zm-14.247-3.873h-.212v3.873h.212zm3.117-.45h-2.687v4.57h2.687zm-.701 3.873h-1.285v-3.156h1.285zm.701 5.602h-2.687v4.575h2.687zm-.701 3.873h-1.285v-3.171h1.285zm2.168-12.898h-.207v3.873h.207zm0 9.386h-.207v3.873h.207zm3.137-.35h-2.687v4.573h2.687zm-.701 3.872h-1.285v-3.171h1.285zm-5.316 14.242l.104.183 2.366-1.359 1.092.529.094-.193-1.195-.573zM76.7 96.383h-2.688v4.57H76.7zm-.702 3.873h-1.284v-3.171h1.284zm-3.893-15.432h1.892a.35.35 0 00.351-.351v-2.085a.346.346 0 00-.35-.345h-1.893a.346.346 0 00-.35.345v2.085a.35.35 0 00.35.35zm.351-2.085h1.19v1.383h-1.19zm15.492 17.967h.212v-3.873h-.212zm-4.16.247h2.678v-4.57h-2.687zm.702-3.868h1.284v3.171H84.49zM71.419 82.388h-.208v1.892h.208z" stroke-width=".494" fill="#32426b"/></svg>