<?xml version="1.0" encoding="UTF-8" standalone="no"?>
<svg
   xmlns:dc="http://purl.org/dc/elements/1.1/"
   xmlns:cc="http://creativecommons.org/ns#"
   xmlns:rdf="http://www.w3.org/1999/02/22-rdf-syntax-ns#"
   xmlns:svg="http://www.w3.org/2000/svg"
   xmlns="http://www.w3.org/2000/svg"
   xmlns:sodipodi="http://sodipodi.sourceforge.net/DTD/sodipodi-0.dtd"
   xmlns:inkscape="http://www.inkscape.org/namespaces/inkscape"
   inkscape:version="1.0 (4035a4fb49, 2020-05-01)"
   height="160"
   width="189"
   sodipodi:docname="icon-2.svg"
   version="1.1"
   viewBox="0 0 188.99999 160"
   data-name="Слой 1"
   id="Слой_1">
  <metadata
     id="metadata447">
    <rdf:RDF>
      <cc:Work
         rdf:about="">
        <dc:format>image/svg+xml</dc:format>
        <dc:type
           rdf:resource="http://purl.org/dc/dcmitype/StillImage" />
        <dc:title></dc:title>
      </cc:Work>
    </rdf:RDF>
  </metadata>
  <sodipodi:namedview
     inkscape:current-layer="Слой_1"
     inkscape:window-maximized="1"
     inkscape:window-y="-8"
     inkscape:window-x="-8"
     inkscape:cy="177.19458"
     inkscape:cx="158.45234"
     inkscape:zoom="1.495531"
     showgrid="false"
     id="namedview445"
     inkscape:window-height="1017"
     inkscape:window-width="1920"
     inkscape:pageshadow="2"
     inkscape:pageopacity="0"
     guidetolerance="10"
     gridtolerance="10"
     objecttolerance="10"
     borderopacity="1"
     bordercolor="#666666"
     pagecolor="#ffffff" />
  <defs
     id="defs4">
    <style
       id="style2">.cls-1{font-size:14px;font-family:Montserrat-ExtraBold, Montserrat;font-weight:800;letter-spacing:0.1em;}.cls-1,.cls-7{fill:#32426b;}.cls-2{letter-spacing:0.09em;}.cls-3{letter-spacing:0.09em;}.cls-4{letter-spacing:0.08em;}.cls-5{letter-spacing:0.1em;}.cls-6{letter-spacing:0.09em;}</style>
  </defs>
  <g
     transform="matrix(0.49317264,0,0,0.49317264,-39.384122,-35.247048)"
     id="g659">
    <path
       class="cls-7"
       d="m 236.84,365.25 a 1,1 0 0 0 0.16,1.4 1.1,1.1 0 0 0 1.48,-0.2 1,1 0 0 0 -0.16,-1.39 1.11,1.11 0 0 0 -1.48,0.19 z"
       id="path24" />
    <path
       class="cls-7"
       d="m 242.12,364.28 a 1,1 0 0 0 -0.16,-1.4 1.11,1.11 0 0 0 -1.48,0.2 1,1 0 0 0 0.16,1.39 1.11,1.11 0 0 0 1.48,-0.19 z"
       id="path26" />
    <path
       class="cls-7"
       d="m 245.18,360.79 a 0.82,0.82 0 0 0 -1.1,0.48 1,1 0 0 0 0.54,1.16 0.81,0.81 0 0 0 1.09,-0.49 0.93,0.93 0 0 0 -0.53,-1.15 z"
       id="path28" />
    <path
       class="cls-7"
       d="m 247.3,362.25 a 0.94,0.94 0 0 0 0.53,1.16 0.82,0.82 0 0 0 1.1,-0.49 1,1 0 0 0 -0.54,-1.16 0.81,0.81 0 0 0 -1.09,0.49 z"
       id="path30" />
    <path
       class="cls-7"
       d="m 227.24,368.36 a 0.85,0.85 0 0 0 0.54,-1.1 0.89,0.89 0 0 0 -1.15,-0.48 0.86,0.86 0 0 0 -0.54,1.1 0.89,0.89 0 0 0 1.15,0.48 z"
       id="path32" />
    <path
       class="cls-7"
       d="m 247.35,358.7 a 0.71,0.71 0 0 0 -0.36,0.95 0.73,0.73 0 0 0 0.94,0.42 0.71,0.71 0 0 0 0.36,-0.95 0.73,0.73 0 0 0 -0.94,-0.42 z"
       id="path34" />
    <path
       class="cls-7"
       d="m 236.25,362.5 a 0.75,0.75 0 0 0 -0.69,0.77 0.71,0.71 0 0 0 0.8,0.63 0.75,0.75 0 0 0 0.69,-0.78 0.72,0.72 0 0 0 -0.8,-0.62 z"
       id="path36" />
    <path
       class="cls-7"
       d="m 244.69,363.6 a 0.71,0.71 0 0 0 -0.36,0.95 0.74,0.74 0 0 0 0.94,0.43 0.71,0.71 0 0 0 0.36,-1 0.74,0.74 0 0 0 -0.94,-0.38 z"
       id="path38" />
    <path
       class="cls-7"
       d="m 234.23,366.09 a 0.68,0.68 0 0 0 -0.32,-0.94 0.78,0.78 0 0 0 -1,0.34 0.67,0.67 0 0 0 0.33,0.93 0.78,0.78 0 0 0 0.99,-0.33 z"
       id="path40" />
    <path
       class="cls-7"
       d="m 231,369.14 a 0.84,0.84 0 0 0 1,-0.54 0.74,0.74 0 0 0 -0.54,-0.94 0.84,0.84 0 0 0 -1,0.54 0.74,0.74 0 0 0 0.54,0.94 z"
       id="path42" />
    <path
       class="cls-7"
       d="m 253.47,359.8 a 0.62277604,0.62277604 0 0 0 -0.67,-1.05 0.61,0.61 0 0 0 -0.15,0.84 0.6,0.6 0 0 0 0.82,0.21 z"
       id="path44" />
    <path
       class="cls-7"
       d="m 256,357.64 a 0.6,0.6 0 0 0 0.16,-0.83 0.59,0.59 0 0 0 -0.82,-0.21 0.62,0.62 0 0 0 0.66,1 z"
       id="path46" />
    <path
       class="cls-7"
       d="m 251.28,359.66 a 0.6,0.6 0 0 0 0.16,-0.83 0.61,0.61 0 0 0 -0.83,-0.21 0.62,0.62 0 0 0 -0.15,0.84 0.59,0.59 0 0 0 0.82,0.2 z"
       id="path48" />
    <path
       class="cls-7"
       d="m 238.84,363.56 a 0.58105507,0.58105507 0 1 0 -0.31,-1.12 0.59,0.59 0 0 0 -0.44,0.72 0.6,0.6 0 0 0 0.75,0.4 z"
       id="path50" />
    <path
       class="cls-7"
       d="m 250.09,360.67 a 0.61,0.61 0 0 0 -0.15,0.83 0.6,0.6 0 0 0 0.82,0.21 0.62,0.62 0 0 0 -0.67,-1 z"
       id="path52" />
    <path
       class="cls-7"
       d="m 230.16,365.18 a 0.63,0.63 0 0 0 -0.77,0.41 0.56,0.56 0 0 0 0.41,0.71 0.64,0.64 0 0 0 0.77,-0.41 0.55,0.55 0 0 0 -0.41,-0.71 z"
       id="path54" />
    <path
       class="cls-7"
       d="m 223.46,367.26 a 0.58,0.58 0 0 0 -0.42,-0.72 0.63,0.63 0 0 0 -0.76,0.41 0.56,0.56 0 0 0 0.41,0.72 0.65,0.65 0 0 0 0.77,-0.41 z"
       id="path56" />
    <path
       class="cls-7"
       d="m 307.36,365.06 a 0.94,0.94 0 0 0 -0.16,1.39 1.09,1.09 0 0 0 1.47,0.2 1,1 0 0 0 0.17,-1.4 1.11,1.11 0 0 0 -1.48,-0.19 z"
       id="path58" />
    <path
       class="cls-7"
       d="m 305,364.47 a 0.94,0.94 0 0 0 0.16,-1.39 1.1,1.1 0 0 0 -1.48,-0.2 1,1 0 0 0 -0.16,1.4 1.11,1.11 0 0 0 1.48,0.19 z"
       id="path60" />
    <path
       class="cls-7"
       d="m 301.59,361.27 a 0.8,0.8 0 0 0 -1.09,-0.48 0.94,0.94 0 0 0 -0.54,1.15 0.82,0.82 0 0 0 1.1,0.49 0.94,0.94 0 0 0 0.53,-1.16 z"
       id="path62" />
    <path
       class="cls-7"
       d="m 296.75,362.92 a 0.81,0.81 0 0 0 1.09,0.49 1,1 0 0 0 0.54,-1.16 0.83,0.83 0 0 0 -1.1,-0.49 0.94,0.94 0 0 0 -0.53,1.16 z"
       id="path64" />
    <path
       class="cls-7"
       d="m 319.59,367.88 a 0.87,0.87 0 0 0 -0.55,-1.1 0.89,0.89 0 0 0 -1.15,0.48 0.86,0.86 0 0 0 0.55,1.1 0.89,0.89 0 0 0 1.15,-0.48 z"
       id="path66" />
    <path
       class="cls-7"
       d="m 298.69,359.65 a 0.71,0.71 0 0 0 -0.36,-0.95 0.74,0.74 0 0 0 -0.95,0.42 0.71,0.71 0 0 0 0.36,0.95 0.75,0.75 0 0 0 0.95,-0.42 z"
       id="path68" />
    <path
       class="cls-7"
       d="m 310.11,363.27 a 0.74,0.74 0 0 0 -0.68,-0.77 0.71,0.71 0 0 0 -0.8,0.62 0.74,0.74 0 0 0 0.68,0.78 0.71,0.71 0 0 0 0.8,-0.63 z"
       id="path70" />
    <path
       class="cls-7"
       d="m 301,363.6 a 0.76,0.76 0 0 0 -0.95,0.43 0.71,0.71 0 0 0 0.36,1 0.76,0.76 0 0 0 1,-0.43 0.71,0.71 0 0 0 -0.41,-1 z"
       id="path72" />
    <path
       class="cls-7"
       d="m 312.45,366.42 a 0.66,0.66 0 0 0 0.32,-0.93 0.77,0.77 0 0 0 -1,-0.34 0.68,0.68 0 0 0 -0.33,0.94 0.79,0.79 0 0 0 1.01,0.33 z"
       id="path74" />
    <path
       class="cls-7"
       d="m 314.16,367.66 a 0.74,0.74 0 0 0 -0.54,0.94 0.84,0.84 0 0 0 1,0.54 0.74,0.74 0 0 0 0.54,-0.94 0.84,0.84 0 0 0 -1,-0.54 z"
       id="path76" />
    <path
       class="cls-7"
       d="m 293,359.59 a 0.59095262,0.59095262 0 1 0 -1,-0.63 0.61,0.61 0 0 0 0.15,0.84 0.6,0.6 0 0 0 0.85,-0.21 z"
       id="path78" />
    <path
       class="cls-7"
       d="m 290.46,357.43 a 0.6,0.6 0 0 0 -0.15,-0.83 0.62,0.62 0 0 0 -0.67,1 0.6,0.6 0 0 0 0.82,-0.17 z"
       id="path80" />
    <path
       class="cls-7"
       d="m 295.06,358.62 a 0.6,0.6 0 0 0 -0.82,0.21 0.59,0.59 0 0 0 0.15,0.83 0.62,0.62 0 0 0 0.67,-1 z"
       id="path82" />
    <path
       class="cls-7"
       d="m 307.14,362.44 a 0.6,0.6 0 0 0 -0.75,0.39 0.61,0.61 0 0 0 0.44,0.73 0.62,0.62 0 0 0 0.76,-0.4 0.6,0.6 0 0 0 -0.45,-0.72 z"
       id="path84" />
    <path
       class="cls-7"
       d="m 294.76,360.87 a 0.59095262,0.59095262 0 1 0 1,0.63 0.59,0.59 0 0 0 -0.15,-0.83 0.59,0.59 0 0 0 -0.85,0.2 z"
       id="path86" />
    <path
       class="cls-7"
       d="m 315.87,366.3 a 0.55,0.55 0 0 0 0.41,-0.71 0.63,0.63 0 0 0 -0.77,-0.41 0.56,0.56 0 0 0 -0.41,0.71 0.65,0.65 0 0 0 0.77,0.41 z"
       id="path88" />
    <path
       class="cls-7"
       d="m 323,367.67 a 0.57,0.57 0 0 0 0.41,-0.72 0.65,0.65 0 0 0 -0.77,-0.41 0.56,0.56 0 0 0 -0.41,0.72 0.65,0.65 0 0 0 0.77,0.41 z"
       id="path90" />
    <path
       class="cls-7"
       d="m 318.81,133.64 a 0.75,0.75 0 0 0 0.75,-0.75 0.75,0.75 0 1 0 -0.75,0.75 z"
       id="path92" />
    <path
       class="cls-7"
       d="m 264.94,152.44 a 0.67,0.67 0 0 0 -0.58,0.74 0.66,0.66 0 1 0 0.58,-0.74 z"
       id="path94" />
    <path
       class="cls-7"
       d="m 257.6,143 v 0.43 c 0.15,0 15,-0.14 21.33,-11.8 l -0.38,-0.2 C 272.4,142.82 257.75,143 257.6,143 Z"
       id="path96" />
    <path
       class="cls-7"
       d="m 334,90.75 v -1.46 l -1.16,0.88 c -2.36,1.77 -15.74,10.59 -47.48,10.59 -17.63,0 -29.38,3.88 -34.93,11.53 a 18.78,18.78 0 0 0 -2.88,15.07 l 0.35,1.52 0.91,-1.27 c 1.9,-2.62 9.42,-11.18 26.59,-11.18 39.87,0 58.32,-13.31 58.6,-25.68 z M 275.44,115 c -15.67,0 -23.67,6.95 -26.74,10.52 a 17.32,17.32 0 0 1 2.92,-12.41 c 5.26,-7.26 16.63,-10.94 33.78,-10.94 28.38,0 42.17,-6.81 47.06,-10 -1.77,11.59 -21.38,22.83 -57.02,22.83 z"
       id="path98" />
    <path
       class="cls-7"
       d="m 261.06,154.51 a 0.66,0.66 0 0 0 0.15,1.31 0.67,0.67 0 0 0 0.58,-0.73 0.65,0.65 0 0 0 -0.73,-0.58 z"
       id="path100" />
    <path
       class="cls-7"
       d="m 311.65,135.56 a 1.0830166,1.0830166 0 1 0 -1.74,-1.29 1.07,1.07 0 0 0 0.22,1.51 1.09,1.09 0 0 0 1.52,-0.22 z"
       id="path102" />
    <path
       class="cls-7"
       d="m 308.84,133.38 a 0.75,0.75 0 0 0 0.75,-0.74 0.76,0.76 0 0 0 -0.75,-0.75 0.75,0.75 0 0 0 -0.74,0.75 0.74,0.74 0 0 0 0.74,0.74 z"
       id="path104" />
    <path
       class="cls-7"
       d="m 248.24,156.93 a 1.13,1.13 0 1 0 0.41,1.54 1.13,1.13 0 0 0 -0.41,-1.54 z"
       id="path106" />
    <path
       class="cls-7"
       d="m 249.48,154.4 a 0.8,0.8 0 0 0 -0.53,1 0.8,0.8 0 0 0 1.53,-0.46 0.81,0.81 0 0 0 -1,-0.54 z"
       id="path108" />
    <path
       class="cls-7"
       d="m 247,154.81 a 1.3,1.3 0 0 0 -1.46,-1.16 1.32,1.32 0 1 0 1.46,1.16 z"
       id="path110" />
    <path
       class="cls-7"
       d="m 316.05,135 a 0.9,0.9 0 0 0 0.73,-1 0.91,0.91 0 0 0 -1,-0.73 0.9,0.9 0 0 0 -0.72,1 0.88,0.88 0 0 0 0.99,0.73 z"
       id="path112" />
    <path
       class="cls-7"
       d="m 258.08,155.45 a 1,1 0 1 0 0.35,1.31 1,1 0 0 0 -0.35,-1.31 z"
       id="path114" />
    <path
       class="cls-7"
       d="m 313.43,134.13 a 0.75,0.75 0 0 0 0.74,-0.75 0.74,0.74 0 0 0 -0.74,-0.74 0.75,0.75 0 0 0 -0.75,0.74 0.76,0.76 0 0 0 0.75,0.75 z"
       id="path116" />
    <path
       class="cls-7"
       d="m 254.6,154.19 a 0.81,0.81 0 0 0 -0.54,1 0.8,0.8 0 1 0 0.54,-1 z"
       id="path118" />
    <path
       class="cls-7"
       d="m 253.19,155.92 a 1.13,1.13 0 1 0 0.41,1.54 1.14,1.14 0 0 0 -0.41,-1.54 z"
       id="path120" />
    <rect
       class="cls-7"
       x="262.81"
       y="286.45999"
       width="0.43000001"
       height="7.8400002"
       id="rect122" />
    <path
       class="cls-7"
       d="m 269.55,285.76 h -5.44 V 295 h 5.44 z m -1.42,7.83 h -2.6 v -6.42 h 2.6 z"
       id="path124" />
    <path
       class="cls-7"
       d="m 306.62,135.27 a 1,1 0 1 0 -1,-1 1,1 0 0 0 1,1 z"
       id="path126" />
    <path
       class="cls-7"
       d="m 291.55,109 a 1.27,1.27 0 1 0 1.78,-0.26 1.28,1.28 0 0 0 -1.78,0.26 z"
       id="path128" />
    <path
       class="cls-7"
       d="m 291.44,112.08 a 0.9,0.9 0 0 0 0.32,1.77 0.9,0.9 0 1 0 -0.32,-1.77 z"
       id="path130" />
    <path
       class="cls-7"
       d="m 295.94,110.28 a 1,1 0 1 0 1,1 1,1 0 0 0 -1,-1 z"
       id="path132" />
    <rect
       class="cls-7"
       x="292.48999"
       y="315.35001"
       width="0.43000001"
       height="15.57"
       id="rect134" />
    <path
       class="cls-7"
       d="m 288.35,110.34 a 1.49,1.49 0 1 0 1.48,1.48 1.48,1.48 0 0 0 -1.48,-1.48 z"
       id="path136" />
    <path
       class="cls-7"
       d="m 283,111 a 1.49,1.49 0 1 0 1.49,1.49 A 1.49,1.49 0 0 0 283,111 Z"
       id="path138" />
    <path
       class="cls-7"
       d="m 277.72,109.74 a 1.27,1.27 0 1 0 1.78,-0.26 1.26,1.26 0 0 0 -1.78,0.26 z"
       id="path140" />
    <path
       class="cls-7"
       d="m 286.41,108 a 1.27,1.27 0 1 0 0.26,1.77 1.26,1.26 0 0 0 -0.26,-1.77 z"
       id="path142" />
    <rect
       class="cls-7"
       x="272.10001"
       y="286.45999"
       width="0.43000001"
       height="7.8400002"
       id="rect144" />
    <path
       class="cls-7"
       d="m 267.58,309 a 4.15,4.15 0 1 0 4.15,-4.19 4.17,4.17 0 0 0 -4.15,4.19 z m 4.37,-2.75 a 2.75,2.75 0 0 1 2.5,2.53 H 272 Z m 0,3 h 2.5 a 2.75,2.75 0 0 1 -2.5,2.53 z m -0.43,-3 v 2.53 H 269 a 2.73,2.73 0 0 1 2.52,-2.51 z m 0,3 v 2.53 a 2.73,2.73 0 0 1 -2.5,-2.53 z"
       id="path146" />
    <rect
       class="cls-7"
       x="230.5"
       y="307.79999"
       width="12.1"
       height="0.41999999"
       transform="rotate(-35.07,236.51016,307.99758)"
       id="rect148" />
    <rect
       class="cls-7"
       x="288.87"
       y="307.79999"
       width="12.1"
       height="0.41999999"
       transform="rotate(-35.07,294.88473,307.99386)"
       id="rect150" />
    <path
       class="cls-7"
       d="m 304.9,109.54 a 0.74,0.74 0 1 0 0.74,0.74 0.74,0.74 0 0 0 -0.74,-0.74 z"
       id="path152" />
    <rect
       class="cls-7"
       x="234.32001"
       y="315.35001"
       width="0.43000001"
       height="15.57"
       id="rect154" />
    <path
       class="cls-7"
       d="m 298.33,108 a 0.74,0.74 0 1 0 0.74,0.74 0.74,0.74 0 0 0 -0.74,-0.74 z"
       id="path156" />
    <path
       class="cls-7"
       d="m 278.07,112.76 a 0.9,0.9 0 1 0 1,0.73 0.89,0.89 0 0 0 -1,-0.73 z"
       id="path158" />
    <path
       class="cls-7"
       d="m 269.71,313.7 0.17,-0.39 a 4.7,4.7 0 0 1 -0.12,-8.53 l -0.19,-0.38 a 5.13,5.13 0 0 0 0.14,9.3 z"
       id="path160" />
    <path
       class="cls-7"
       d="m 299.31,110.37 a 1.09,1.09 0 0 0 0.23,1.52 1.07,1.07 0 0 0 1.51,-0.22 1.09,1.09 0 1 0 -1.74,-1.3 z"
       id="path162" />
    <path
       class="cls-7"
       d="m 211.36,277.49 v -0.42 a 3.35,3.35 0 0 0 -3.33,3.37 h 0.42 a 2.93,2.93 0 0 1 2.91,-2.95 z"
       id="path164" />
    <path
       class="cls-7"
       d="m 208.93,280.44 a 2.44,2.44 0 1 0 2.43,-2.45 2.44,2.44 0 0 0 -2.43,2.45 z m 3.45,0 a 1,1 0 1 1 -1,-1 1,1 0 0 1 1,1 z"
       id="path166" />
    <path
       class="cls-7"
       d="m 213.38,295 h 5.44 v -9.25 h -5.44 z m 1.42,-7.84 h 2.61 v 6.42 h -2.61 z"
       id="path168" />
    <path
       class="cls-7"
       d="m 209.35,285.76 h -5.44 V 295 h 5.44 z m -1.42,7.83 h -2.61 v -6.42 h 2.61 z"
       id="path170" />
    <rect
       class="cls-7"
       x="202.84"
       y="286.45999"
       width="0.43000001"
       height="7.8400002"
       id="rect172" />
    <rect
       class="cls-7"
       x="212.25999"
       y="286.45999"
       width="0.43000001"
       height="7.8400002"
       id="rect174" />
    <path
       class="cls-7"
       d="m 301,305.86 a 0.72,0.72 0 0 0 -0.84,0 l -9.07,6.7 a 0.7,0.7 0 0 0 0.42,1.27 h 2.66 v 17.8 h 12.91 v -17.8 h 2.66 a 0.71,0.71 0 0 0 0.67,-0.48 0.72,0.72 0 0 0 -0.26,-0.8 z m -3.32,24.35 h -2.09 v -1.3 h 2.09 z m 0,-1.73 h -2.09 v -1.8 h 2.09 z m 0,-2.22 h -2.09 v -1.8 h 2.09 z m 0,-2.23 h -2.09 v -1.8 h 2.09 z m 0,-2.22 h -2.09 V 320 h 2.09 z m 0,-2.23 h -2.09 v -1.79 h 2.09 z m 0,-2.22 h -2.09 v -1.8 h 2.09 z m 0,-2.22 h -2.09 v -1.31 h 2.09 z m 8,6.67 h -1.15 v 0.42 h 1.15 V 324 h -1.15 v 0.43 h 1.15 v 1.8 h -1.15 v 0.42 h 1.15 v 1.8 h -1.15 v 0.43 h 1.15 v 1.3 h -2.09 v -0.65 h -0.43 v 0.65 h -2.3 v -0.65 h -0.43 v 0.65 h -2.3 v -1.3 h 1 v -0.43 h -1 v -1.8 h 1 v -0.42 h -1 v -1.8 h 1 V 324 h -1 v -1.8 h 1 v -0.42 h -1 V 320 h 2.3 v 1 h 0.43 v -1 h 2.3 v 1 h 0.43 v -1 h 2.09 z m -5.25,-6.25 v 1.8 h -2.3 v -1.8 z m -2.3,-0.42 v -1.31 h 2.3 v 1.31 z m 2.3,2.65 v 1.79 h -2.3 v -1.79 z m 2.73,-2.23 v 1.8 h -2.3 v -1.8 z m -2.3,-0.42 v -1.31 h 2.3 v 1.31 z m 2.3,2.65 v 1.79 h -2.3 v -1.79 z m 2.52,1.79 h -2.09 v -1.79 h 2.09 z m 0,-2.22 h -2.09 v -1.8 h 2.09 z m 0,-2.22 h -2.09 v -1.31 h 2.09 z m -12,-2.72 6.92,-5.11 7,5.11 z"
       id="path176" />
    <path
       class="cls-7"
       d="m 293.24,295 h 5.44 v -9.25 h -5.44 z m 1.41,-7.84 h 2.61 v 6.42 h -2.61 z"
       id="path178" />
    <rect
       class="cls-7"
       x="332.66"
       y="286.45999"
       width="0.43000001"
       height="7.8400002"
       id="rect180" />
    <rect
       class="cls-7"
       x="301.66"
       y="286.45999"
       width="0.43000001"
       height="7.8400002"
       id="rect182" />
    <path
       class="cls-7"
       d="m 302.71,295 h 5.44 v -9.25 h -5.44 z m 1.42,-7.84 h 2.61 v 6.42 h -2.61 z"
       id="path184" />
    <rect
       class="cls-7"
       x="267.76999"
       y="238.25"
       width="0.43000001"
       height="3.8299999"
       id="rect186" />
    <path
       class="cls-7"
       d="m 269.58,243.17 h 3.83 a 0.71,0.71 0 0 0 0.71,-0.71 v -4.21 a 0.71,0.71 0 0 0 -0.71,-0.71 h -3.83 a 0.71,0.71 0 0 0 -0.71,0.71 v 4.21 a 0.71,0.71 0 0 0 0.71,0.71 z m 0.71,-4.21 h 2.41 v 2.8 h -2.41 z"
       id="path188" />
    <path
       class="cls-7"
       d="m 302.71,275.83 h 5.44 v -9.26 h -5.44 z m 1.42,-7.84 h 2.61 v 6.42 h -2.61 z"
       id="path190" />
    <rect
       class="cls-7"
       x="292.07999"
       y="286.45999"
       width="0.43000001"
       height="7.8400002"
       id="rect192" />
    <rect
       class="cls-7"
       x="292.07999"
       y="267.48001"
       width="0.43000001"
       height="7.8400002"
       id="rect194" />
    <rect
       class="cls-7"
       x="301.66"
       y="267.48001"
       width="0.43000001"
       height="7.8400002"
       id="rect196" />
    <path
       class="cls-7"
       d="m 293.24,275.83 h 5.44 v -9.26 h -5.44 z m 1.41,-7.84 h 2.61 v 6.42 h -2.61 z"
       id="path198" />
    <path
       class="cls-7"
       d="m 342.08,180.78 a 0.75,0.75 0 0 0 0.75,-0.74 0.76,0.76 0 0 0 -0.75,-0.75 0.75,0.75 0 0 0 -0.74,0.75 0.74,0.74 0 0 0 0.74,0.74 z"
       id="path200" />
    <path
       class="cls-7"
       d="m 243,156.46 a 1.32,1.32 0 1 0 1.46,1.15 1.3,1.3 0 0 0 -1.46,-1.15 z"
       id="path202" />
    <path
       class="cls-7"
       d="m 333.64,295 h 5.44 v -9.25 h -5.44 z m 1.42,-7.84 h 2.6 v 6.42 h -2.6 z"
       id="path204" />
    <path
       class="cls-7"
       d="m 240.49,154.19 a 0.8,0.8 0 0 0 -0.53,1 0.7940403,0.7940403 0 1 0 1.52,-0.46 0.8,0.8 0 0 0 -0.99,-0.54 z"
       id="path206" />
    <path
       class="cls-7"
       d="m 235.86,156 a 0.87,0.87 0 0 0 -0.76,1 0.88,0.88 0 0 0 1,0.76 0.87,0.87 0 1 0 -0.2,-1.72 z"
       id="path208" />
    <path
       class="cls-7"
       d="m 234,158.68 a 0.66,0.66 0 0 0 0.15,1.31 0.67,0.67 0 0 0 0.58,-0.73 0.65,0.65 0 0 0 -0.73,-0.58 z"
       id="path210" />
    <path
       class="cls-7"
       d="m 239.65,156.89 a 1.13,1.13 0 1 0 0.41,1.54 1.13,1.13 0 0 0 -0.41,-1.54 z"
       id="path212" />
    <path
       class="cls-7"
       d="m 246.26,128.91 c -0.06,-0.13 -6.07,-12.6 0,-22.4 5,-8 16.33,-12 33.78,-12 29.34,0 43.4,-6.23 50,-11.46 7.24,-5.7 7.47,-11.34 7.48,-11.58 h -0.43 c 0,0.06 -0.23,5.67 -7.31,11.25 -6.58,5.19 -20.55,11.37 -49.77,11.37 -17.61,0 -29.1,4.11 -34.14,12.2 -6.22,10 -0.11,22.69 -0.05,22.82 z"
       id="path214" />
    <path
       class="cls-7"
       d="m 293.92,146.31 0.84,-2 a 10.75,10.75 0 0 1 10.08,-6 c 16.09,0 23.59,-4.68 23.59,-14.73 v -2 l -1.26,1.56 c -0.05,0.06 -4.77,5.71 -18.42,5.71 -6.19,0 -10.64,1.66 -13.21,4.92 -3.51,4.45 -2.18,10.19 -2.12,10.43 z m 2.73,-11.64 c 2.29,-2.91 6.36,-4.38 12.1,-4.38 10.44,0 15.9,-3.15 18.19,-5 -0.53,5.73 -4.24,11.6 -22.1,11.6 a 12.37,12.37 0 0 0 -10.28,5 11,11 0 0 1 2.09,-7.22 z"
       id="path216" />
    <path
       class="cls-7"
       d="m 303.26,136.19 a 0.76,0.76 0 0 0 0.75,-0.75 0.75,0.75 0 0 0 -0.75,-0.74 0.74,0.74 0 0 0 -0.74,0.74 0.75,0.75 0 0 0 0.74,0.75 z"
       id="path218" />
    <path
       class="cls-7"
       d="m 206.72,171.41 c 0,-0.06 -3.47,-6.49 0,-13 3.89,-7.33 14.6,-11.88 31.84,-13.5 v -0.43 c -17.39,1.64 -28.22,6.26 -32.18,13.73 -3.55,6.71 0,13.33 0,13.4 z"
       id="path220" />
    <path
       class="cls-7"
       d="m 345.44,179.87 a 1,1 0 1 0 -1,-1 1,1 0 0 0 1,1 z"
       id="path222" />
    <rect
       class="cls-7"
       x="323.09"
       y="286.45999"
       width="0.43000001"
       height="7.8400002"
       id="rect224" />
    <path
       class="cls-7"
       d="m 329.6,285.76 h -5.44 V 295 h 5.44 z m -1.42,7.83 h -2.6 v -6.42 h 2.6 z"
       id="path226" />
    <path
       class="cls-7"
       d="m 331.62,277.49 v -0.42 a 3.36,3.36 0 0 0 -3.34,3.37 h 0.43 a 2.93,2.93 0 0 1 2.91,-2.95 z"
       id="path228" />
    <path
       class="cls-7"
       d="m 329.19,280.44 a 2.43,2.43 0 1 0 2.43,-2.45 2.44,2.44 0 0 0 -2.43,2.45 z m 3.44,0 a 1,1 0 1 1 -1,-1 1,1 0 0 1 1,1 z"
       id="path230" />
    <path
       class="cls-7"
       d="m 232.73,156.71 a 1,1 0 1 0 0.35,1.31 1,1 0 0 0 -0.35,-1.31 z"
       id="path232" />
    <path
       class="cls-7"
       d="m 228.1,158 a 0.66,0.66 0 0 0 -0.58,0.73 0.65,0.65 0 0 0 0.73,0.58 0.66,0.66 0 1 0 -0.15,-1.31 z"
       id="path234" />
    <path
       class="cls-7"
       d="m 350.47,180.16 a 1.09,1.09 0 1 0 -1.52,0.22 1.09,1.09 0 0 0 1.52,-0.22 z"
       id="path236" />
    <rect
       class="cls-7"
       x="319.82999"
       y="307.79999"
       width="12.1"
       height="0.41999999"
       transform="rotate(-35.08,325.86163,308.01565)"
       id="rect238" />
    <path
       class="cls-7"
       d="m 277,331.81 h -3.87 v 3.64 H 277 Z m -0.42,3.21 h -3 v -2.78 h 3 z"
       id="path240" />
    <path
       class="cls-7"
       d="m 244.31,275.83 h 5.44 v -9.26 h -5.44 z m 1.42,-7.84 h 2.6 v 6.42 h -2.6 z"
       id="path242" />
    <path
       class="cls-7"
       d="m 260.79,323.94 a 0.35,0.35 0 0 0 0.17,0.66 h 21.54 a 0.36,0.36 0 0 0 0.17,-0.67 l -10.91,-6 a 0.34,0.34 0 0 0 -0.34,0 z m 10.8,-5.3 9.54,5.25 h -18.82 z"
       id="path244" />
    <rect
       class="cls-7"
       x="243.31"
       y="267.48001"
       width="0.43000001"
       height="7.8400002"
       id="rect246" />
    <path
       class="cls-7"
       d="m 244.31,295 h 5.44 v -9.25 h -5.44 z m 1.42,-7.84 h 2.6 v 6.42 h -2.6 z"
       id="path248" />
    <path
       class="cls-7"
       d="m 234.83,275.83 h 5.44 v -9.26 h -5.44 z m 1.42,-7.84 h 2.6 v 6.42 h -2.6 z"
       id="path250" />
    <rect
       class="cls-7"
       x="233.73"
       y="267.48001"
       width="0.43000001"
       height="7.8400002"
       id="rect252" />
    <path
       class="cls-7"
       d="m 277,340.93 h -3.87 v 3.63 H 277 Z m -0.42,3.21 h -3 v -2.78 h 3 z"
       id="path254" />
    <polygon
       class="cls-7"
       points="266.74,322.41 266.95,322.78 271.74,320.04 273.96,321.1 274.14,320.72 271.72,319.56 "
       id="polygon256" />
    <path
       class="cls-7"
       d="m 277,336.36 h -3.87 V 340 H 277 Z m -0.42,3.2 h -3 v -2.78 h 3 z"
       id="path258" />
    <rect
       class="cls-7"
       x="243.31"
       y="286.45999"
       width="0.43000001"
       height="7.8400002"
       id="rect260" />
    <path
       class="cls-7"
       d="M 269.85,340.93 H 266 v 3.63 h 3.87 z m -0.42,3.21 h -3 v -2.78 h 3 z"
       id="path262" />
    <rect
       class="cls-7"
       x="262.14001"
       y="330.92001"
       width="0.43000001"
       height="13.7"
       id="rect264" />
    <path
       class="cls-7"
       d="M 269.85,336.36 H 266 V 340 h 3.87 z m -0.42,3.2 h -3 v -2.78 h 3 z"
       id="path266" />
    <path
       class="cls-7"
       d="m 273.53,111.9 a 1.08,1.08 0 1 0 1.51,-0.22 1.07,1.07 0 0 0 -1.51,0.22 z"
       id="path268" />
    <path
       class="cls-7"
       d="M 269.85,331.81 H 266 v 3.64 h 3.87 z m -0.42,3.21 h -3 v -2.78 h 3 z"
       id="path270" />
    <path
       class="cls-7"
       d="m 308.45,140.79 c -10.18,0 -11.05,3.71 -11.08,3.87 l 0.42,0.09 c 0,0 0.88,-3.53 10.66,-3.53 11.14,0 25,0 29.68,-13.1 l -0.4,-0.15 c -4.58,12.82 -17.73,12.82 -29.28,12.82 z"
       id="path272" />
    <path
       class="cls-7"
       d="m 269.55,266.57 h -5.44 v 9.26 h 5.44 z m -1.42,7.84 h -2.6 V 268 h 2.6 z"
       id="path274" />
    <path
       class="cls-7"
       d="m 278.87,285.76 h -5.44 V 295 h 5.44 z m -1.42,7.83 h -2.6 v -6.42 h 2.6 z"
       id="path276" />
    <path
       class="cls-7"
       d="m 234.83,295 h 5.44 v -9.25 h -5.44 z m 1.42,-7.84 h 2.6 v 6.42 h -2.6 z"
       id="path278" />
    <path
       class="cls-7"
       d="m 333.14,174.25 c -5.82,6.75 -0.69,14 -0.64,14.12 l 0.35,-0.25 c -0.05,-0.07 -5,-7.1 0.61,-13.6 2.48,-2.87 6.32,-3.22 10.39,-3.59 5.2,-0.47 10.58,-1 13.23,-7 l -0.38,-0.17 c -2.56,5.8 -7.81,6.27 -12.89,6.74 -3.97,0.37 -8.08,0.74 -10.67,3.75 z"
       id="path280" />
    <path
       class="cls-7"
       d="m 261.88,113.25 a 0.75,0.75 0 1 0 0,1.49 0.75,0.75 0 0 0 0,-1.49 z"
       id="path282" />
    <path
       class="cls-7"
       d="m 269.74,111.2 a 0.9,0.9 0 1 0 0.32,1.77 0.9,0.9 0 0 0 -0.32,-1.77 z"
       id="path284" />
    <path
       class="cls-7"
       d="m 266.16,113.25 a 0.75,0.75 0 1 0 0.74,0.75 0.74,0.74 0 0 0 -0.74,-0.75 z"
       id="path286" />
    <rect
       class="cls-7"
       x="262.81"
       y="267.48001"
       width="0.43000001"
       height="7.8400002"
       id="rect288" />
    <path
       class="cls-7"
       d="m 242.79,305.86 a 0.72,0.72 0 0 0 -0.84,0 l -9.16,6.69 a 0.7,0.7 0 0 0 -0.25,0.8 0.69,0.69 0 0 0 0.67,0.48 h 2.66 v 17.8 h 12.91 v -17.8 h 2.65 a 0.71,0.71 0 0 0 0.68,-0.48 0.72,0.72 0 0 0 -0.25,-0.79 z m -3.41,24.35 h -2.09 v -1.3 h 2.09 z m 0,-1.73 h -2.09 v -1.8 h 2.09 z m 0,-2.22 h -2.09 v -1.8 h 2.09 z m 0,-2.23 h -2.09 v -1.8 h 2.09 z m 0,-2.22 h -2.09 V 320 h 2.09 z m 0,-2.23 h -2.09 v -1.79 h 2.09 z m 0,-2.22 h -2.09 v -1.8 h 2.09 z m 0,-2.22 h -2.09 v -1.31 h 2.09 z m 8,6.67 h -1 v 0.42 h 1 V 324 h -1 v 0.43 h 1 v 1.8 h -1 v 0.42 h 1 v 1.8 h -1 v 0.43 h 1 v 1.3 h -2.1 v -0.65 h -0.42 v 0.65 h -2.31 v -0.65 h -0.42 v 0.65 h -2.3 v -1.3 h 1.24 v -0.43 h -1.24 v -1.8 h 1.24 v -0.42 h -1.24 v -1.8 h 1.24 V 324 h -1.24 v -1.8 h 1.24 v -0.42 h -1.24 V 320 h 2.3 v 1 h 0.42 v -1 h 2.31 v 1 h 0.42 v -1 h 2.1 z m -5.25,-6.25 v 1.8 h -2.3 v -1.8 z m -2.3,-0.42 v -1.31 h 2.3 v 1.31 z m 2.3,2.65 v 1.79 h -2.3 v -1.79 z m 2.73,-2.23 v 1.8 h -2.31 v -1.8 z m -2.31,-0.42 v -1.31 h 2.31 v 1.31 z m 2.31,2.65 v 1.79 h -2.31 v -1.79 z m 2.52,1.79 h -2.1 v -1.79 h 2.1 z m 0,-2.22 h -2.1 v -1.8 h 2.1 z m 0,-2.22 h -2.1 v -1.31 h 2.1 z m -12,-2.72 7,-5.11 6.91,5.11 z"
       id="path290" />
    <rect
       class="cls-7"
       x="272.10001"
       y="267.48001"
       width="0.43000001"
       height="7.8400002"
       id="rect292" />
    <path
       class="cls-7"
       d="m 278.87,266.57 h -5.44 v 9.26 h 5.44 z m -1.42,7.84 h -2.6 V 268 h 2.6 z"
       id="path294" />
    <rect
       class="cls-7"
       x="233.73"
       y="286.45999"
       width="0.43000001"
       height="7.8400002"
       id="rect296" />
    <path
       class="cls-7"
       d="m 147.28,275.21 0.83,-2 a 10,10 0 0 1 9.29,-5.53 c 14.93,0 21.89,-4.35 21.89,-13.69 v -2 l -1.29,1.57 c 0,0.05 -4.4,5.27 -17,5.27 -5.75,0 -9.88,1.54 -12.27,4.58 -3.27,4.14 -2,9.47 -2,9.7 z m 2.59,-10.94 c 2.11,-2.67 5.86,-4 11.15,-4 9.53,0 14.59,-2.84 16.77,-4.55 -0.52,5.24 -4,10.57 -20.39,10.57 a 11.41,11.41 0 0 0 -9.47,4.53 10.05,10.05 0 0 1 1.94,-6.55 z"
       id="path298" />
    <path
       class="cls-7"
       d="m 163.51,265 a 1.07,1.07 0 0 0 -0.22,-1.51 1.09,1.09 0 1 0 0.22,1.51 z"
       id="path300" />
    <path
       class="cls-7"
       d="m 158.48,264.71 a 1,1 0 1 0 -1,-1 1,1 0 0 0 1,1 z"
       id="path302" />
    <path
       class="cls-7"
       d="m 155.12,265.62 a 0.75,0.75 0 1 0 0,-1.49 0.75,0.75 0 0 0 0,1.49 z"
       id="path304" />
    <path
       class="cls-7"
       d="m 156.89,255.77 c 5.2,-0.48 10.58,-1 13.23,-7 l -0.38,-0.18 c -2.56,5.8 -7.81,6.28 -12.89,6.74 -4,0.36 -8.08,0.74 -10.67,3.74 -5.82,6.75 -0.69,14.05 -0.64,14.12 l 0.35,-0.24 c 0,-0.07 -5,-7.1 0.61,-13.6 2.5,-2.86 6.32,-3.21 10.39,-3.58 z"
       id="path306" />
    <path
       class="cls-7"
       d="m 208.79,321.74 0.49,-0.51 c -0.14,-0.14 -14.18,-13.78 -19.52,-26.21 a 0.36,0.36 0 0 0 -0.33,-0.21 0.33,0.33 0 0 0 -0.32,0.23 c -4.64,12.22 -19.36,25.71 -19.51,25.84 l 0.48,0.52 c 0.15,-0.13 14.36,-13.16 19.38,-25.32 5.62,12.34 19.19,25.52 19.33,25.66 z"
       id="path308" />
    <path
       class="cls-7"
       d="m 188.61,308.39 a 5.24,5.24 0 1 0 5.24,5.24 5.25,5.25 0 0 0 -5.24,-5.24 z m -0.35,9 a 3.8,3.8 0 0 1 -3.43,-3.43 h 3.43 z m 0,-4.14 h -3.43 a 3.8,3.8 0 0 1 3.43,-3.43 z m 0.71,4.14 V 314 h 3.42 a 3.79,3.79 0 0 1 -3.39,3.41 z m 0,-4.14 v -3.43 a 3.79,3.79 0 0 1 3.42,3.43 z"
       id="path310" />
    <path
       class="cls-7"
       d="m 195.91,312.63 a 6.3,6.3 0 0 0 -6.3,-6.3 v 0.7 a 5.6,5.6 0 0 1 5.59,5.6 z"
       id="path312" />
    <rect
       class="cls-7"
       x="133.14"
       y="352.82999"
       width="58.02"
       height="0.70999998"
       id="rect314" />
    <rect
       class="cls-7"
       x="94.779999"
       y="331.45001"
       width="61.540001"
       height="0.70999998"
       id="rect316" />
    <polygon
       class="cls-7"
       points="168.96,328.07 210.26,328.07 210.26,327.36 168.25,327.36 168.25,338.77 168.96,338.77 "
       id="polygon318" />
    <rect
       class="cls-7"
       x="187.61"
       y="357.72"
       width="0.70999998"
       height="19.08"
       id="rect320" />
    <rect
       class="cls-7"
       x="169.61"
       y="357.72"
       width="0.70999998"
       height="19.08"
       id="rect322" />
    <rect
       class="cls-7"
       x="151.36"
       y="357.72"
       width="0.70999998"
       height="19.08"
       id="rect324" />
    <rect
       class="cls-7"
       x="197.44"
       y="332.95001"
       width="0.70999998"
       height="13.91"
       id="rect326" />
    <path
       class="cls-7"
       d="m 154,333.65 h -10.84 a 0.7,0.7 0 0 0 -0.71,0.7 v 4.42 a 0.71,0.71 0 0 0 0.71,0.71 H 154 a 0.71,0.71 0 0 0 0.71,-0.71 v -4.42 a 0.7,0.7 0 0 0 -0.71,-0.7 z m -5.78,4.41 h -4.36 v -3 h 4.36 z m 5.07,0 h -4.36 v -3 h 4.36 z"
       id="path328" />
    <path
       class="cls-7"
       d="m 138.25,333.65 h -10.84 a 0.7,0.7 0 0 0 -0.71,0.7 v 4.42 a 0.71,0.71 0 0 0 0.71,0.71 h 10.84 a 0.71,0.71 0 0 0 0.71,-0.71 v -4.42 a 0.7,0.7 0 0 0 -0.71,-0.7 z m -5.78,4.41 h -4.36 v -3 h 4.36 z m 5.07,0 h -4.36 v -3 h 4.36 z"
       id="path330" />
    <path
       class="cls-7"
       d="m 122.5,333.65 h -10.85 a 0.7,0.7 0 0 0 -0.71,0.7 v 4.42 a 0.71,0.71 0 0 0 0.71,0.71 h 10.85 a 0.71,0.71 0 0 0 0.71,-0.71 v -4.42 a 0.7,0.7 0 0 0 -0.71,-0.7 z m -5.78,4.41 h -4.36 v -3 h 4.36 z m 5.07,0 h -4.36 v -3 h 4.36 z"
       id="path332" />
    <path
       class="cls-7"
       d="M 106.74,333.65 H 95.89 a 0.7,0.7 0 0 0 -0.71,0.7 v 4.42 a 0.71,0.71 0 0 0 0.71,0.71 h 10.85 a 0.71,0.71 0 0 0 0.71,-0.71 v -4.42 a 0.7,0.7 0 0 0 -0.71,-0.7 z m -5.74,4.41 h -4.4 v -3 h 4.4 z m 5.07,0 h -4.36 v -3 H 106 Z"
       id="path334" />
    <rect
       class="cls-7"
       x="155.44"
       y="334.35001"
       width="0.70999998"
       height="4.4099998"
       id="rect336" />
    <rect
       class="cls-7"
       x="139.69"
       y="334.35001"
       width="0.70999998"
       height="4.4099998"
       id="rect338" />
    <rect
       class="cls-7"
       x="123.93"
       y="334.35001"
       width="0.70999998"
       height="4.4099998"
       id="rect340" />
    <rect
       class="cls-7"
       x="108.17"
       y="334.35001"
       width="0.70999998"
       height="4.4099998"
       id="rect342" />
    <rect
       class="cls-7"
       x="126.95"
       y="340.92999"
       width="11.3"
       height="0.70999998"
       id="rect344" />
    <rect
       class="cls-7"
       x="111.18"
       y="340.92999"
       width="11.3"
       height="0.70999998"
       id="rect346" />
    <rect
       class="cls-7"
       x="95.660004"
       y="340.92999"
       width="11.3"
       height="0.70999998"
       id="rect348" />
    <rect
       class="cls-7"
       x="144.14999"
       y="285.10001"
       width="7.1799998"
       height="0.70999998"
       id="rect350" />
    <rect
       class="cls-7"
       x="160.46001"
       y="295.97"
       width="3.7"
       height="0.70999998"
       id="rect352" />
    <path
       class="cls-7"
       d="m 396.52,275.21 0.83,-2 a 10,10 0 0 1 9.28,-5.53 c 14.94,0 21.9,-4.35 21.9,-13.69 v -2 l -1.26,1.56 c 0,0.05 -4.41,5.27 -17,5.27 -5.75,0 -9.88,1.54 -12.28,4.58 -3.26,4.14 -2,9.47 -2,9.7 z m 2.59,-10.94 c 2.11,-2.67 5.86,-4 11.15,-4 9.53,0 14.59,-2.84 16.77,-4.55 -0.53,5.24 -4,10.57 -20.4,10.57 a 11.39,11.39 0 0 0 -9.46,4.53 10.05,10.05 0 0 1 1.94,-6.55 z"
       id="path354" />
    <path
       class="cls-7"
       d="m 412.75,265 a 1.0900115,1.0900115 0 0 0 -1.75,-1.3 1.0830166,1.0830166 0 1 0 1.74,1.29 z"
       id="path356" />
    <circle
       class="cls-7"
       cx="407.72"
       cy="263.73001"
       r="0.98000002"
       id="circle358" />
    <path
       class="cls-7"
       d="m 404.36,265.62 a 0.75,0.75 0 1 0 -0.74,-0.75 0.74,0.74 0 0 0 0.74,0.75 z"
       id="path360" />
    <path
       class="cls-7"
       d="m 406.13,255.77 c 5.2,-0.48 10.58,-1 13.23,-7 l -0.39,-0.18 c -2.55,5.8 -7.8,6.28 -12.88,6.74 -4,0.36 -8.08,0.74 -10.67,3.74 -5.82,6.75 -0.69,14.05 -0.64,14.12 l 0.34,-0.24 c -0.05,-0.07 -5,-7.1 0.62,-13.6 2.48,-2.86 6.32,-3.21 10.39,-3.58 z"
       id="path362" />
    <path
       class="cls-7"
       d="m 333.65,321.23 0.5,0.51 c 0.14,-0.14 13.7,-13.32 19.33,-25.66 5,12.16 19.23,25.19 19.37,25.32 l 0.48,-0.52 c -0.15,-0.13 -14.86,-13.62 -19.5,-25.84 a 0.35,0.35 0 0 0 -0.33,-0.23 0.37,0.37 0 0 0 -0.33,0.21 c -5.33,12.43 -19.37,26.07 -19.52,26.21 z"
       id="path364" />
    <path
       class="cls-7"
       d="m 462.06,368.89 -8.51,-10.46 h 0.73 a 0.71,0.71 0 0 0 0.71,-0.71 v -4.54 a 0.7,0.7 0 0 0 -0.71,-0.7 h -1.46 v -22.4 h 3.51 a 0.71,0.71 0 0 0 0.69,-0.56 0.71,0.71 0 0 0 -0.42,-0.8 96.22,96.22 0 0 1 -15.29,-8.72 v -4.71 h 3 a 0.71,0.71 0 0 0 0.67,-0.5 0.73,0.73 0 0 0 -0.27,-0.8 l -8.94,-6.15 a 0.72,0.72 0 0 0 -0.4,-0.12 h -8.07 c -1.11,-1.28 -2.18,-2.61 -3.18,-4 a 0.7,0.7 0 0 0 -0.57,-0.29 l -22.05,-0.18 v -19.38 h 0.76 a 0.71,0.71 0 0 0 0.71,-0.71 v -4.72 a 0.71,0.71 0 0 0 -0.71,-0.71 h -13.91 a 0.71,0.71 0 0 0 -0.71,0.71 v 4.72 a 0.71,0.71 0 0 0 0.71,0.71 h 0.76 v 19.28 h -3.82 v -8.4 h 0.15 a 0.7,0.7 0 0 0 0.63,-0.39 0.69,0.69 0 0 0 -0.06,-0.73 l -4.58,-6.26 a 0.73,0.73 0 0 0 -0.56,-0.29 0.57,0.57 0 0 0 -0.56,0.26 l -5.05,6.26 a 0.7,0.7 0 0 0 0.55,1.15 H 376 V 303 l -13.61,-0.11 c -3.61,-5.13 -6.83,-10.87 -8.23,-16.37 a 0.71,0.71 0 0 0 -1.37,0 45.59,45.59 0 0 1 -5.29,11.89 v -22.32 h 2.1 v -3.74 h -2.1 v -5.62 h 2.1 v -3.25 h -8.94 l -1.72,-56.31 a 0.7,0.7 0 0 0 0.68,-0.7 V 203 a 0.71,0.71 0 0 0 -0.71,-0.71 h -0.12 l -0.09,-2.85 h 0.21 a 0.7,0.7 0 0 0 0.66,-0.46 l 0.83,-2.17 h 0.51 a 0.7,0.7 0 0 0 0.71,-0.7 v -2.63 a 0.71,0.71 0 0 0 -0.71,-0.71 h -0.65 l -1.79,-2.34 a 0.69,0.69 0 0 0 -0.56,-0.28 h -3.55 l 0.75,-1.8 a 10,10 0 0 1 9.29,-5.52 c 14.93,0 21.89,-4.35 21.89,-13.69 v -2 l -1.29,1.59 c 0,0.05 -4.4,5.26 -17,5.26 -5.75,0 -9.88,1.54 -12.27,4.58 -3.27,4.14 -2,9.48 -2,9.7 l 0.46,1.91 h -3.36 a 0.72,0.72 0 0 0 -0.57,0.28 l -1.78,2.34 h -0.65 a 0.71,0.71 0 0 0 -0.71,0.71 v 2.63 a 0.7,0.7 0 0 0 0.71,0.7 h 0.51 l 0.83,2.17 a 0.69,0.69 0 0 0 0.66,0.46 h 0.2 l -0.08,2.85 h -0.12 a 0.71,0.71 0 0 0 -0.71,0.71 v 3.44 a 0.7,0.7 0 0 0 0.68,0.7 l -1.72,56.31 H 317.2 v -13.42 h 1.8 v -4.86 h -1.43 a 4.74,4.74 0 0 0 1.14,-3.12 4.13,4.13 0 1 0 -8.21,0 4.79,4.79 0 0 0 1.14,3.12 h -1.43 v 4.86 H 312 v 2.49 h -3.5 a 0.7,0.7 0 0 0 -0.71,0.7 v 2 l -2.24,-0.5 v -3.62 a 0.71,0.71 0 0 0 -0.71,-0.71 h -2.2 L 300.81,166 v 0 a 0.71,0.71 0 0 0 0.71,-0.71 v -5.55 a 0.71,0.71 0 0 0 -0.71,-0.71 h -0.16 l -0.05,-2.39 h 0.21 a 0.71,0.71 0 0 0 0.67,-0.47 l 0.83,-2.33 h 0.5 a 0.71,0.71 0 0 0 0.71,-0.71 v -2.8 a 0.71,0.71 0 0 0 -0.71,-0.71 h -0.64 l -1.78,-2.51 a 0.74,0.74 0 0 0 -0.58,-0.3 h -11 a 0.73,0.73 0 0 0 -0.58,0.3 l -1.79,2.51 h -0.63 a 0.71,0.71 0 0 0 -0.71,0.71 v 2.8 a 0.71,0.71 0 0 0 0.71,0.71 h 0.5 l 0.83,2.33 a 0.71,0.71 0 0 0 0.67,0.47 H 288 V 159 h -0.16 a 0.7,0.7 0 0 0 -0.71,0.71 v 5.55 a 0.71,0.71 0 0 0 0.71,0.71 v 0 L 286,246.19 h -1.2 a 0.7,0.7 0 0 0 -0.7,0.71 v 3.1 l -2.25,-0.51 v -4.68 a 0.71,0.71 0 0 0 -0.71,-0.71 h -3.88 v -7.21 h 1.78 a 0.71,0.71 0 0 0 0.71,-0.71 V 233 a 0.71,0.71 0 0 0 -0.71,-0.71 h -15.11 a 0.71,0.71 0 0 0 -0.71,0.71 v 3.17 a 0.71,0.71 0 0 0 0.71,0.71 h 1.78 v 7.21 h -3.89 a 0.71,0.71 0 0 0 -0.71,0.71 v 4.68 l -2.24,0.51 v -3.09 a 0.71,0.71 0 0 0 -0.71,-0.71 h -1.57 L 255,160.45 c 16.4,-2.76 24,-9 24,-19.44 v -1.56 l -1.18,1 c -0.07,0.07 -6.09,5.16 -22.23,7.43 v -3.19 a 0.7,0.7 0 0 0 -0.7,-0.71 h -0.15 l -0.07,-3.39 h 0.22 a 0.7,0.7 0 0 0 0.66,-0.47 l 0.83,-2.33 h 0.51 a 0.7,0.7 0 0 0 0.7,-0.71 v -2.8 a 0.7,0.7 0 0 0 -0.7,-0.71 h -0.64 l -1.79,-2.51 a 0.68,0.68 0 0 0 -0.57,-0.3 h -11.11 a 0.68,0.68 0 0 0 -0.57,0.3 l -1.79,2.51 h -0.64 a 0.71,0.71 0 0 0 -0.71,0.71 v 2.8 a 0.71,0.71 0 0 0 0.71,0.71 h 0.5 l 0.84,2.33 a 0.7,0.7 0 0 0 0.66,0.47 H 242 l -0.06,3.39 h -0.16 a 0.71,0.71 0 0 0 -0.71,0.71 V 149 h -2.14 c -14.75,0 -24.51,3.19 -29,9.49 a 14.58,14.58 0 0 0 -2,12.49 l 0.5,1.45 0.78,-1.32 c 0,-0.09 5.56,-9 21.63,-9 3.85,0 7.44,-0.09 10.81,-0.26 l -1.6,88.6 h -1.85 a 0.71,0.71 0 0 0 -0.71,0.71 v 3.62 l -2.25,0.5 v -2 a 0.7,0.7 0 0 0 -0.71,-0.7 H 231 v -2.49 h 1.72 v -4.89 h -1.42 a 4.79,4.79 0 0 0 1.14,-3.12 4.13,4.13 0 1 0 -8.22,0 4.79,4.79 0 0 0 1.14,3.12 H 224 v 4.86 h 1.82 v 13.42 h -10.91 l -1.73,-71.09 a 0.72,0.72 0 0 0 0.69,-0.71 v -3.44 a 0.7,0.7 0 0 0 -0.71,-0.7 h -0.1 L 213,183 h 0.21 a 0.71,0.71 0 0 0 0.66,-0.45 l 0.83,-2.17 h 0.51 a 0.71,0.71 0 0 0 0.71,-0.71 V 177 a 0.71,0.71 0 0 0 -0.71,-0.71 h -0.65 L 212.72,174 a 0.69,0.69 0 0 0 -0.56,-0.28 h -7 A 0.7,0.7 0 0 0 204.6,174 l -1.79,2.34 h -0.65 a 0.7,0.7 0 0 0 -0.7,0.71 v 2.62 a 0.7,0.7 0 0 0 0.7,0.71 h 0.52 l 0.82,2.17 a 0.72,0.72 0 0 0 0.66,0.45 h 0.22 l -0.12,4.58 h -0.1 a 0.7,0.7 0 0 0 -0.7,0.7 v 3.44 a 0.71,0.71 0 0 0 0.69,0.71 l -1.74,71.09 h -8.94 v 3.25 h 2.11 v 5.62 h -2.11 v 3.74 h 2.11 v 18.77 -0.06 0.41 3.28 a 45.13,45.13 0 0 1 -5.34,-12 0.71,0.71 0 0 0 -1.38,0 c -1.39,5.5 -4.62,11.24 -8.22,16.37 L 167,303 v -8.32 h 0.14 a 0.69,0.69 0 0 0 0.64,-0.4 0.7,0.7 0 0 0 -0.08,-0.75 l -5.05,-6.26 a 0.59,0.59 0 0 0 -0.57,-0.26 0.73,0.73 0 0 0 -0.56,0.29 l -4.58,6.26 a 0.69,0.69 0 0 0 -0.06,0.73 0.71,0.71 0 0 0 0.63,0.39 h 0.15 v 8.4 h -3.81 v -19.21 h 0.75 a 0.71,0.71 0 0 0 0.71,-0.71 v -4.72 a 0.71,0.71 0 0 0 -0.71,-0.71 h -13.93 a 0.71,0.71 0 0 0 -0.71,0.71 v 4.72 a 0.71,0.71 0 0 0 0.71,0.71 h 0.76 v 19.37 l -22.05,0.18 a 0.72,0.72 0 0 0 -0.57,0.29 c -1,1.39 -2.07,2.72 -3.18,4 h -8.09 a 0.72,0.72 0 0 0 -0.4,0.12 L 98.21,314 a 0.71,0.71 0 0 0 0.4,1.3 h 3 v 4.7 a 96.22,96.22 0 0 1 -15.29,8.73 0.71,0.71 0 0 0 0.28,1.36 h 3.5 v 22.4 h -1.45 a 0.7,0.7 0 0 0 -0.71,0.7 v 4.54 a 0.71,0.71 0 0 0 0.71,0.71 h 0.73 l -8.51,10.46 a 0.7,0.7 0 0 0 -0.08,0.75 0.68,0.68 0 0 0 0.63,0.4 h 6.52 v 19.65 h 41.36 v 6.19 h 66 v -8.23 h 7 V 389 a 0.71,0.71 0 0 0 0.71,0.71 h 4.22 a 0.7,0.7 0 0 0 0.7,-0.71 v -3.5 h 5.37 v -16 h 3.37 a 0.69,0.69 0 0 0 0.64,-0.41 0.7,0.7 0 0 0 -0.1,-0.76 l -4.11,-4.83 h 0.2 v -20.58 h 12.46 v 1.7 H 231 v -1.7 h 22.58 v 1.7 h 3.83 v 1.46 a 0.71,0.71 0 0 0 0.71,0.71 h 26.68 a 0.71,0.71 0 0 0 0.71,-0.71 v -1.46 h 3.83 v -1.7 H 312 v 1.7 h 5.25 v -1.7 h 12.42 v 20.61 h 0.2 l -4.12,4.83 a 0.7,0.7 0 0 0 -0.1,0.76 0.69,0.69 0 0 0 0.64,0.41 h 3.38 v 16 H 335 V 389 a 0.71,0.71 0 0 0 0.71,0.71 h 4.21 a 0.71,0.71 0 0 0 0.71,-0.71 v -1.33 h 7 v 8.23 h 66 v -6.2 H 455 V 370 h 6.52 a 0.7,0.7 0 0 0 0.55,-1.15 z M 336.83,179.44 c 2.11,-2.67 5.86,-4 11.15,-4 9.54,0 14.59,-2.83 16.77,-4.54 -0.52,5.24 -4,10.57 -20.39,10.57 a 11.41,11.41 0 0 0 -9.47,4.53 10,10 0 0 1 1.94,-6.56 z m -131.36,-4.35 h 6.34 l 0.92,1.21 h -8.18 z m -2.65,3.83 v -1.2 h 11.63 v 1.2 z m 1.32,1.42 h 9 l -0.46,1.21 h -8.08 z m 7.54,8.61 v 2 h -6.18 v -2 z m -6,-1.76 0.1,-4.23 h 5.79 l 0.1,4.23 -3,0.09 z m 5.23,5.2 c -0.94,0.06 -2,0.12 -2.23,0.12 -0.23,0 -1.3,-0.06 -2.23,-0.12 z m -2.23,0.55 c 0.34,0 2.11,-0.12 3.13,-0.18 l 0.11,4.72 c -1,0.1 -2.75,0.27 -3.24,0.27 -0.49,0 -2.26,-0.17 -3.25,-0.27 l 0.11,-4.72 c 0.98,0.06 2.75,0.18 3.1,0.18 z m 0,5.23 c 0.51,0 2.25,-0.16 3.25,-0.27 l 0.12,4.72 c -1,0.14 -2.71,0.36 -3.37,0.36 -0.66,0 -2.41,-0.22 -3.38,-0.36 l 0.12,-4.72 c 0.96,0.1 2.7,0.27 3.22,0.27 z m 0,5.24 c 0.68,0 2.39,-0.22 3.38,-0.36 l 0.12,4.72 a 27.53,27.53 0 0 1 -3.5,0.45 27.08,27.08 0 0 1 -3.5,-0.45 l 0.11,-4.72 c 0.95,0.14 2.71,0.36 3.35,0.36 z m 0,5.23 a 27.57,27.57 0 0 0 3.51,-0.44 l 0.11,4.72 a 21.79,21.79 0 0 1 -3.62,0.53 21.91,21.91 0 0 1 -3.63,-0.53 l 0.12,-4.72 a 27.13,27.13 0 0 0 3.47,0.44 z m 0,5.24 a 21,21 0 0 0 3.63,-0.53 l 0.12,4.72 a 18.35,18.35 0 0 1 -3.75,0.62 18.12,18.12 0 0 1 -3.75,-0.62 l 0.11,-4.72 a 21.16,21.16 0 0 0 3.6,0.53 z m 0,5.23 a 17.92,17.92 0 0 0 3.76,-0.6 l 0.11,4.71 a 11.08,11.08 0 0 1 -7.75,0 l 0.12,-4.71 a 17.82,17.82 0 0 0 3.72,0.6 z m 0,5.24 a 15.22,15.22 0 0 0 3.88,-0.69 l 0.12,4.71 a 13.58,13.58 0 0 1 -4,0.79 13.73,13.73 0 0 1 -4,-0.79 l 0.12,-4.71 a 15.22,15.22 0 0 0 3.84,0.69 z m 0,5.23 a 13.68,13.68 0 0 0 4,-0.76 l 0.11,4.7 a 10.21,10.21 0 0 1 -8.25,0 l 0.11,-4.7 a 13.69,13.69 0 0 0 3.99,0.76 z m 0,5.24 a 12.41,12.41 0 0 0 4.13,-0.84 l 0.12,4.7 a 10,10 0 0 1 -8.51,0 l 0.12,-4.7 a 12.53,12.53 0 0 0 4.1,0.84 z m -4.27,4.32 a 10.45,10.45 0 0 0 8.53,0 l 0.12,4.69 a 9.83,9.83 0 0 1 -8.76,0 z m -0.12,5.16 a 10.23,10.23 0 0 0 8.78,0 l 0.11,4.69 a 9.7,9.7 0 0 1 -9,0 z m -0.13,5.17 a 10.15,10.15 0 0 0 9,0 l 0.12,4.68 a 9.67,9.67 0 0 1 -9.26,0 z m -0.13,5.17 a 10.19,10.19 0 0 0 9.29,0 l 0.11,4.67 a 9.6,9.6 0 0 1 -9.51,0 z m -0.12,5.17 a 10.16,10.16 0 0 0 9.54,0 l 0.08,3.67 h -9.71 z m 7.91,5.5 h -6.29 a 9.17,9.17 0 0 1 -1,-0.41 h 8.31 a 9.17,9.17 0 0 1 -1.06,0.41 z m 0.56,1.42 v 5.62 h -2 v -5.62 z m -3.36,0 v 5.62 H 207 v -5.62 z m -3.37,0 v 5.62 h -1.94 v -5.62 z m -10.77,-1.42 v -0.41 h 8.78 a 7.12,7.12 0 0 0 0.71,0.41 z m 7.41,1.42 v 5.62 h -1.94 v -5.62 z m -3.36,0 v 5.62 H 197 v -5.62 z m 3.29,34.45 -0.59,-0.73 h 0.59 z m 0,0.67 v 1.62 h 1.26 v -0.11 c 0.95,1.13 2,2.33 3.08,3.58 l -1.09,0.77 c -2.36,-2.75 -4.3,-5.2 -5.76,-7.1 v -0.16 h 1.38 z m 0.43,0.51 c 0.19,0.23 0.37,0.46 0.57,0.69 h -0.57 z m 15,36.75 h -1.73 v -2.38 h 1.73 z m -4.26,2 v -0.6 h 1.53 v 0.6 z m 0,-2 v -2.38 h 1.53 v 2.38 z m 5.49,-14.23 -1,-0.86 v -1.87 c 0.71,0.66 1.43,1.31 2.16,2 v 3 h -2.16 v -0.95 h 0.53 a 0.73,0.73 0 0 0 0.67,-0.46 0.72,0.72 0 0 0 -0.27,-0.86 z m -3.06,-2.65 h 0.65 v 0.57 z m -4.84,-4.44 h 0.24 V 318 Z m -14,-19.14 c 0.08,0.12 0.18,0.25 0.28,0.38 H 197 Z m 0.08,1.8 h 1.26 c 0.29,0.39 0.61,0.8 1,1.24 v 1.78 h 1.17 v -0.28 c 1.2,1.51 2.6,3.23 4.2,5.1 l -1.38,1 a 99.82,99.82 0 0 1 -6.15,-8.27 z m 2.64,1.79 0.63,0.81 h -0.63 z m 5.21,6.37 0.91,1.05 -1.38,1 -0.91,-1.09 z m 0.46,3.14 1.39,-1 c 0.48,0.56 1,1.12 1.5,1.69 h -2.31 z m 7.58,2.08 1,1 v 0.32 h -1.75 l -0.55,-0.59 v -0.72 z m 1,0.38 -0.37,-0.38 h 0.37 z m 2.52,5.21 -1.67,-1.63 h 1.67 z M 211.58,316 c 0.43,0.45 0.88,0.9 1.33,1.36 h -1.33 z m 2.73,2.77 0.82,0.81 h -0.82 z m -1.77,-3.21 h 1.34 v 1.37 c -0.45,-0.46 -0.88,-0.93 -1.34,-1.37 z m -1.39,-1.46 -0.25,-0.27 h 0.25 z m -0.39,1 h -1.91 v -1.31 h 0.69 c 0.4,0.48 0.81,0.91 1.22,1.35 z m -2.34,-1.31 v 1.31 0 l -1.19,-1.31 z m 0.43,1.81 v -0.08 h 2.3 v 1.8 h -0.65 c -0.5,-0.47 -1.05,-1.05 -1.65,-1.68 z m 2.73,2.15 h 1.74 l 0.56,0.56 v 1.23 h -1.15 c -0.28,-0.26 -0.67,-0.64 -1.15,-1.13 z m 2.3,2.22 v 0.61 l -0.68,-0.59 v 0 z m 0.43,0.95 V 320 h 1.26 l 0.83,0.8 v 1 h -1.05 v 0.08 l -1.08,-0.93 z m 2.09,5.3 h -1.05 v 0.42 h 1.05 v 0.4 h -1.55 v 3.13 h -0.54 v -0.65 h -0.43 v 0.65 h -0.56 v -4.08 h 3.08 z m -0.55,2.65 h 0.55 v 1.3 h -0.55 z m 0,-0.43 v -0.4 h 0.55 v 0.4 z m -1,3.15 V 333 h -1.53 v -1.36 z m 0,2.78 v 0.9 h -1.53 v -0.9 z m 1,0.9 v -0.9 h 1.73 v 0.9 z m 0,-2.32 v -1.36 h 1.73 V 333 Z m 2,-4.91 H 221 v -4.41 l -0.17,-0.15 c -1,-0.91 -2,-1.82 -3,-2.74 v -2.1 q 2.12,2 4.39,4 v 6.33 h -4.39 z m -1.42,-10.72 h -2.09 v -1.8 h 0.31 l 1.78,1.76 z m -1.18,-1.8 h 1.18 v 1.16 z m 1.18,-0.42 h -1.6 l -0.49,-0.5 v -0.81 h 2.09 z m -4.26,-2.72 c -1.1,-1.14 -2.14,-2.26 -3.14,-3.35 l 2.41,-1.76 6.91,5.11 z m -0.59,0 h -2 c -0.71,-0.77 -1.39,-1.53 -2.05,-2.28 l 1.12,-0.82 c 0.93,1.05 1.89,2.08 2.9,3.14 z m -5,-3.35 -0.9,-1 1.11,-0.78 0.89,1 z m -8.13,-10 -0.67,-0.9 h 1.42 l 0.7,0.9 z M 197,296.71 v -1.59 l 1.18,1.59 z m -17.38,7.65 A 123.24,123.24 0 0 1 169,316.89 V 313 a 61.09,61.09 0 0 0 6.61,-8.62 z m -4.84,0 A 62.25,62.25 0 0 1 169,312 v -5.41 c 0.75,-1.07 1.22,-1.81 1.4,-2.11 z m -7.75,0.06 h 2.54 c -0.24,0.37 -0.6,0.93 -1.1,1.64 h -0.17 v 0.24 c -0.36,0.51 -0.79,1.1 -1.27,1.74 z m 0,4.76 c 0.47,-0.61 0.9,-1.17 1.27,-1.69 v 5.21 c -0.4,0.45 -0.83,0.91 -1.27,1.37 z m 0,5.91 c 0.44,-0.46 0.86,-0.9 1.27,-1.35 v 3.83 c -0.49,0.51 -0.91,0.93 -1.27,1.29 z m 0,5.74 c 2.12,-2 17.62,-17 22.52,-31.63 5.15,15.41 22,31.15 22.75,31.85 l 4.2,3.62 H 167 Z m -4.88,-31.95 3.54,4.39 h -6.75 z m 3.46,9.7 v 3.55 h -1.4 v 0.71 h 1.4 v 3.54 h -1.4 v 0.71 h 1.4 v 3.54 h -1.4 v 0.71 h 1.4 v 3.55 h -1.4 v 0.71 h 1.4 v 3.54 h -1.4 v 0.71 h 1.4 v 3.54 h -1.4 v 0.71 h 1.4 v 3.55 h -1.4 v 0.71 h 1.4 v 3.54 h -1.4 v 0.71 h 1.4 v 3.54 h -1.4 v 0.71 h 1.4 v 3.19 h -6.5 v -3.15 h 1.4 v -0.71 h -1.4 v -3.54 h 1.4 v -0.71 h -1.4 v -3.54 h 1.4 v -0.71 h -1.4 v -3.55 h 1.4 v -0.71 h -1.4 v -3.54 h 1.4 v -0.71 h -1.4 v -3.54 h 1.4 v -0.71 h -1.4 v -3.55 h 1.4 v -0.71 h -1.4 v -3.54 h 1.4 v -0.71 h -1.4 v -3.54 h 1.4 v -0.71 h -1.4 v -3.55 h 1.4 v -0.71 h -1.4 v -3.19 h 6.5 v 3.19 h -1.4 v 0.71 z m -7.92,5.91 v 2.13 c -3.7,5.16 -13,16.34 -27.35,22 H 127 c 16.87,-7.32 26.43,-21.95 27.77,-24.11 z M 151,328.67 h -3.3 a 56.42,56.42 0 0 0 9.94,-5.6 v 2.44 a 55.28,55.28 0 0 1 -6.64,3.16 z m 6.61,-2.35 v 2.35 h -4.76 c 1.69,-0.67 3.28,-1.51 4.79,-2.35 z m -11.79,2.35 h -3.34 A 59.2,59.2 0 0 0 157.64,319 v 3.19 a 55.94,55.94 0 0 1 -11.79,6.48 z m -5.19,0 H 137.3 A 62.41,62.41 0 0 0 157.64,314 v 4 a 58.34,58.34 0 0 1 -16.98,10.67 z m -5.18,0 h -3.34 c 12.94,-5.61 21.57,-15.52 25.5,-20.81 V 313 a 61.44,61.44 0 0 1 -22.13,15.67 z m 18.41,-24.11 c -2,3.17 -11.91,17.44 -28.79,24.11 h -3.33 c 16.78,-7.28 26.32,-21.78 27.75,-24.07 z m -11,-4.61 v -3.55 h 2 v -0.71 h -2 v -3.54 h 2 v -0.71 h -2 v -3.55 h 2 v -0.7 h -2 v -3.32 h 9.56 v 3.32 h -1.75 v 0.7 h 1.75 v 3.55 h -1.75 v 0.71 h 1.75 v 3.54 h -1.75 v 0.71 h 1.75 v 3.6 h -1.75 v 0.7 h 1.75 v 2.28 h -9.56 v -2.28 h 2 V 300 Z m 5.82,4.65 c -2.08,3.25 -11.95,17.43 -28.75,24.07 h -3.33 c 16.68,-7.24 26.21,-21.62 27.72,-24 z m 1.93,-25.45 h 3.27 v 3.3 h -3.28 z m -5.23,0 h 4.52 v 3.3 h -4.52 z m -4,3.3 v -3.3 h 3.28 v 3.3 z m 2.08,22.2 c -2.14,3.32 -12,17.41 -28.73,24 h -3.33 c 16.59,-7.2 26.1,-21.45 27.7,-24 z m -5.21,0 c -2.2,3.4 -12,17.4 -28.7,24 h -3.33 c 16.49,-7.16 26,-21.3 27.67,-23.95 z m -5.21,0 c -2.26,3.48 -12.09,17.39 -28.68,23.94 H 101 c 16.4,-7.12 25.89,-21.14 27.64,-23.91 z m -5.21,0 c -2.31,3.55 -12.14,17.37 -28.65,23.9 h -3.33 c 16.32,-7.08 25.8,-21 27.61,-23.87 z m -13.48,4.36 c -1.56,1.68 -3.2,3.25 -4.87,4.73 h -1.85 l 5,-4.73 z m -8.78,8 c -0.85,0.66 -1.69,1.29 -2.53,1.9 v -3.71 h 4.79 l -1.36,1.11 h -2.37 v 0.7 z m 6.06,-8 -5,4.73 h -2.77 l 6.07,-4.73 z m -10.74,4.73 6.87,-4.73 h 1 l -6.07,4.73 h -1.78 z m -11.12,14.93 c 6.17,-3.08 20.83,-11.3 30,-23.84 h 2.86 c -2.35,3.61 -12.16,17.36 -28.62,23.86 z M 89.36,357 v -3.12 h 2.21 V 357 Z m 2.09,31.27 h -2.09 v -11.78 h 2.09 z m 2.14,-16.49 v 3.28 h -4.23 v -5 h 4.23 v 1 h -2.77 v 0.7 z M 95,388.28 H 92.87 V 376.49 H 95 Z m 3.58,0 h -2.13 v -11.79 h 2.16 z m 0.28,-13.21 H 94.3 v -3.28 h 4.59 z m 0,-4 H 94.3 v -1 h 4.59 z m 5.3,0.7 v 3.28 H 99.6 v -3.28 z m -4.59,-0.7 v -1 h 4.59 v 1 z m 2.59,17.19 H 100 v -11.77 h 2.16 z m 3.58,0 h -2.16 v -11.77 h 2.16 z m 3.59,0 h -2.17 v -11.77 h 2.17 z m 0.13,-13.21 h -4.56 v -3.28 h 4.59 z m 0,-4 h -4.56 v -1 h 4.59 z m 5.42,0.7 v 3.28 h -4.59 v -3.28 z m -4.59,-0.7 v -1 h 4.59 v 1 z m 2.62,17.19 h -2.17 v -11.75 h 2.17 z m 3.58,0 h -2.17 v -11.75 h 2.17 z m 3.58,0 h -2.17 v -11.75 h 2.17 z m 0.11,-13.21 h -4.59 v -3.28 h 4.59 z m 0,-4 h -4.59 v -1 h 4.59 z m 0.71,0 v -1 h 4.59 v 5 h -4.59 v -3.28 h 3.68 v -0.7 z m 2.76,17.19 h -2.16 v -11.73 h 2.16 z m 3.58,0 h -2.13 v -11.73 h 2.16 z m 3.32,-10 v 3 h -1.25 v 7 h -0.62 v -11.73 h 1.9 z m 0,-3.19 h -4.36 v -5 h 0.6 a 0.7,0.7 0 0 0 0.65,-0.42 l 3.11,-7.11 z m 0,-16.1 -4.22,9.65 H 82.91 l 8.3,-10.19 h 39.37 z m -38.3,-2 v -3.12 h 2.29 V 357 Z m 3,0 v -3.12 h 2.29 V 357 Z m 3,0 v -3.12 h 2.29 V 357 Z m 3,0 v -3.12 h 2.29 V 357 Z m 3,0 v -3.12 h 2.29 V 357 Z m 3,0 v -3.12 h 2.29 V 357 Z m 3,0 v -3.12 h 2.29 V 357 Z m 3,0 v -3.12 h 2.29 V 357 Z m 3,0 v -3.12 h 2.29 V 357 Z m 3,0 v -3.12 h 2.29 V 357 Z m 3,0 v -3.12 h 2.29 V 357 Z m 3,0 v -3.12 h 2.29 V 357 Z m 3,0 v -3.12 h 1.94 V 357 Z m 2.3,-4.53 H 93.43 v -2.87 h -0.71 v 2.33 h -1.19 v -4.13 h 1.9 v -3 h -0.71 v 2.33 H 91.53 V 343 h 1.9 v -3 h -0.71 v 2.33 h -1.19 v -4.13 h 1.9 v -3 h -0.71 v 2.33 h -1.19 v -4.12 h 1.9 v -3 h -0.71 v 2.33 h -1.19 v -2.52 h 66.11 v 10 h -10.59 a 0.63,0.63 0 0 0 -0.27,0.06 L 123.69,350 a 0.8,0.8 0 0 0 -0.33,0.3 H 94.78 v 0.71 h 28.58 a 0.7,0.7 0 0 0 0.61,0.35 h 6.61 z m -3.13,-2.4 19.78,-8.48 h 30.06 l 5.66,2.43 v 0.14 h 0.33 L 197,350 Z m 61.66,-13.19 v 3.93 h -4.74 v -3.94 z m -4.74,-0.71 v -3.58 h 4.74 v 3.58 z m 4.74,5.35 V 345 l -4.74,-2 v -1.56 z m 5.46,-4.64 v 3.93 h -4.75 v -3.94 z m -4.75,-0.71 v -3.58 h 4.75 v 3.58 z m 4.75,5.35 V 345 h -4.75 v -3.57 z m 0,4.28 v 1.65 l -3.86,-1.65 z m -0.5,8.17 h 0.79 V 357 H 194 Z m -1.42,25.79 v 1.58 H 132 v -1.58 z M 132,378.26 v -22.1 h 6 v 22.1 z m 9,-16.41 V 367 h -1.61 v -5.12 z m -1.61,-0.71 v -5 H 141 v 5 z m 1.61,6.54 v 5.11 h -1.61 v -5.11 z m 0,5.82 v 4.76 h -1.61 v -4.76 z m 0.71,-0.71 v -5.11 h 0.71 V 367 h -0.71 v -5.12 h 2 v 3.56 h 0.71 v -3.56 h 2 v 3.56 h 0.7 v -3.56 h 1.69 V 367 H 148 v 0.71 h 0.84 v 5.11 H 148 v 0.71 h 0.84 v 4.76 h -1.74 v -1.49 h -0.7 v 1.46 h -2 v -1.46 h -0.71 v 1.46 h -2 v -4.76 h 0.71 v -0.71 z m 0,-11.65 v -5 h 2 v 5 z m 2.68,0 v -5 h 2 v 5 z m 2.68,0 v -5 h 1.69 v 5 z m 3.1,17.12 v -22.1 h 6 v 22.1 z m 9,-16.41 V 367 h -1.62 v -5.12 z m -1.62,-0.71 v -5 h 1.62 v 5 z m 1.62,6.54 v 5.11 h -1.62 v -5.11 z m 0,5.82 v 4.76 h -1.62 v -4.76 z m 0.71,-0.71 v -5.11 h 0.92 V 367 H 160 v -5.12 h 2 v 3.56 h 0.71 v -3.56 h 2 v 3.56 h 0.71 v -3.56 h 1.62 V 367 h -0.57 v 0.71 h 0.57 v 5.11 h -0.57 v 0.71 h 0.57 v 4.76 h -1.62 v -1.49 h -0.71 v 1.46 h -2 V 376.8 H 162 v 1.46 h -2 v -4.76 h 0.92 v -0.71 z m 0,-11.65 v -5 h 2 v 5 z m 2.68,0 v -5 h 2 v 5 z m 2.68,0 v -5 h 1.62 v 5 z m 3,17.12 v -22.1 h 6.06 v 22.1 z m 9.1,-16.41 V 367 h -1.62 v -5.12 z m -1.62,-0.71 v -5 h 1.62 v 5 z m 1.62,6.54 v 5.11 h -1.62 v -5.11 z m 0,5.82 v 4.76 h -1.62 v -4.76 z m 0.71,-0.71 v -5.11 h 0.92 V 367 h -0.92 v -5.12 h 2 v 3.56 h 0.71 v -3.56 h 2 v 3.56 h 0.71 v -3.56 h 1.62 V 367 h -0.57 v 0.71 h 0.57 v 5.11 h -0.57 v 0.71 h 0.57 v 4.76 h -1.62 v -1.49 h -0.71 v 1.46 h -2 v -1.46 h -0.71 v 1.46 h -2 v -4.76 h 0.92 v -0.71 z m 0,-11.65 v -5 h 2 v 5 z m 2.68,0 v -5 h 2 v 5 z m 2.68,0 v -5 h 1.62 v 5 z m 3,17.12 v -22.1 h 6.07 v 22.1 z M 132,354.74 v -3.34 h 60.62 v 3.34 z m 57,39.73 h -53.37 v -1.83 H 189 Z m 4.92,0 h -3.5 v -3.25 h -56.2 v 3.25 h -3.5 v -11.79 h 63.18 z m 1,-13.21 H 194 v -18.91 l 0.85,1.85 z m 1.85,5 h -1.17 v -20.5 l 1.14,2.48 z m 1.85,0 h -1.14 v -16.8 a 0.68,0.68 0 0 0 0.35,0.09 h 0.79 z m 1.85,0 h -1.17 v -16.73 h 1.14 z m 1.88,0 h -1.17 v -16.73 h 1.17 z m 4.22,2 h -2.8 v -18.73 h 2.8 z m 5.36,-12.17 h -1.28 v -2.33 h -0.71 v 3 h 2 v 4.12 h -1.28 v -2.32 h -0.71 v 3 h 2 v 2.42 h -4 v -14.45 h 2 V 372 h 2 z m 0,-4.84 h -1.28 v -1.74 h 1.28 z m 3.26,-3.16 H 198.25 L 194,359 v -0.54 h 12.88 z M 195.54,357 v -3.12 h 2.29 V 357 Z m 3,0 v -3.12 h 2.29 V 357 Z m 3,0 v -3.12 h 2.29 V 357 Z m 3,0 v -3.12 h 2 V 357 Z m 7.19,4.89 h 0.17 v 0.19 z M 211.9,343 v 4.13 h -1.28 v -2.33 h -0.71 v 3 h 2 v 4.13 h -1.28 v -2.33 h -0.71 v 3 h 2 v 4.13 h -1.28 v -2.33 h -0.71 v 3 h 2 v 3.71 h -0.77 l -0.51,-0.6 v -1.31 h -0.71 v 0.48 l -2,-2.3 v -4.28 a 0.7,0.7 0 0 0 -0.7,-0.7 H 194 v -1 h 6.42 a 0.74,0.74 0 0 0 0.62,-0.35 h 5.4 v -0.71 h -5.39 a 0.72,0.72 0 0 0 -0.32,-0.3 L 196,348 v -16.2 a 0.7,0.7 0 0 0 -0.7,-0.71 h -11.67 a 0.71,0.71 0 0 0 -0.71,0.71 v 10.59 l -5.24,-2.24 a 0.67,0.67 0 0 0 -0.28,-0.06 H 167 v -14 h 44.9 v 6.47 h -1.28 v -2.33 h -0.71 v 3 h 2 v 4.12 h -1.28 v -2.25 h -0.71 v 3 h 2 v 4.13 h -1.28 v -2.33 h -0.71 v 3 z m 4.5,-1.47 h -0.55 v -1 h 0.55 z m 9.38,0 H 218 v -4.77 h 7.78 z m 0,-6.19 H 218 v -0.9 h 7.78 z m 0,-2.32 H 218 v -3.51 h 4.64 v -7 l -0.08,-0.07 q -2.48,-2.19 -4.74,-4.37 v -4.26 h 2.66 a 0.7,0.7 0 0 0 0.42,-1.27 l -9.07,-6.7 a 0.72,0.72 0 0 0 -0.84,0 l -2.94,2.16 -0.89,-1 3.27,-2.3 -0.24,-0.35 -3.32,2.33 c -1.58,-1.8 -3,-3.48 -4.26,-5 v -1.25 h 2.52 v 3 h 1.35 v -0.42 h -0.93 v -2.6 h 2.52 v 3 h 1.44 v -0.42 h -1 v -2.6 H 211 v 3 h 1.52 v -0.42 h -1.1 v -2.6 H 214 v 3 h 1.61 v -0.42 h -1.18 v -2.6 h 2.51 v 3 h 1.71 v -0.42 h -1.28 v -2.6 h 2.52 v 3 h 1.79 v -0.42 h -1.36 v -2.6 h 2.51 v 3 h 1.88 v -0.42 h -1.45 v -2.6 h 2.56 z m 0,-34 h -25.32 l -0.7,-0.9 h 26 z m 0,-2.32 h -27.12 c -0.72,-0.95 -1.29,-1.73 -1.71,-2.31 v -18.3 h 28.83 z m 0,-22 h -30.94 v -0.9 h 30.94 z m -12,-2.32 v -5.62 h 1.95 v 5.62 z m 3.37,0 v -5.62 h 1.94 v 5.62 z m 3.36,0 v -5.62 h 1.94 v 5.62 z m 5.3,0 h -1.94 v -5.62 h 1.94 z m 0,-7 h -12.87 a 6.35,6.35 0 0 0 0.72,-0.41 h 12.12 z m 75.5,-13.46 h 2.8 v 2.59 l -2.8,-0.63 z m -0.11,-1.42 h -0.6 a 0.7,0.7 0 0 0 -0.7,0.71 v 2.36 l -2.25,-0.5 v -4 a 0.74,0.74 0 0 0 -0.09,-0.33 10.45,10.45 0 0 0 3.57,-1.29 z m -12,-102.23 h 10.31 l 1,1.39 h -12.35 z m -2.66,4.19 V 151 h 15.63 v 1.38 z m 1.3,1.42 h 13 l -0.49,1.38 h -12 z m 6.59,6.73 4.9,-0.09 0.08,3.9 c -1.44,0.06 -4.59,0.19 -5,0.19 -0.41,0 -3.7,-0.13 -5.13,-0.19 l 0.08,-3.9 z m -5,-1.54 0.06,-2.39 h 9.78 l 0.05,2.39 z m 10,7 0.06,2.71 c -1.41,0.09 -4.48,0.28 -5.08,0.28 -0.79,0 -3.83,-0.19 -5.22,-0.28 l 0.06,-2.71 z m -5,3.41 c 0.61,0 3.67,-0.18 5.09,-0.27 l 0.08,3.91 c -1.38,0.11 -4.38,0.36 -5.17,0.36 -1.05,0 -4,-0.24 -5.32,-0.36 l 0.09,-3.91 c 1.34,-0.01 4.36,0.17 5.17,0.17 z m 0,4.42 c 0.81,0 3.78,-0.24 5.18,-0.35 l 0.08,3.9 c -1.36,0.15 -4.29,0.45 -5.27,0.45 -1.3,0 -4.1,-0.3 -5.4,-0.45 l 0.08,-3.9 c 1.3,0.01 4.19,0.25 5.27,0.25 z m 0,4.43 c 1,0 3.9,-0.3 5.28,-0.45 l 0.08,3.91 c -1.33,0.17 -4.19,0.53 -5.36,0.53 a 49.14,49.14 0 0 1 -5.5,-0.53 l 0.09,-3.91 c 1.25,0.05 3.98,0.35 5.34,0.35 z m 0,4.42 c 1.19,0 4,-0.35 5.37,-0.53 l 0.09,3.9 a 47.44,47.44 0 0 1 -5.47,0.63 38.36,38.36 0 0 1 -5.58,-0.62 l 0.08,-3.91 a 49.1,49.1 0 0 0 5.44,0.43 z m 0,4.42 a 45.09,45.09 0 0 0 5.47,-0.62 l 0.09,3.91 a 38.84,38.84 0 0 1 -5.56,0.71 31.25,31.25 0 0 1 -5.68,-0.7 l 0.09,-3.91 a 39.13,39.13 0 0 0 5.51,0.51 z m 0,4.42 a 37.81,37.81 0 0 0 5.57,-0.7 l 0.08,3.91 a 32.71,32.71 0 0 1 -5.66,0.79 26.34,26.34 0 0 1 -5.76,-0.77 l 0.08,-3.92 a 31.3,31.3 0 0 0 5.61,0.59 z m 0,4.43 a 32.16,32.16 0 0 0 5.67,-0.79 l 0.08,3.91 a 28.19,28.19 0 0 1 -5.75,0.87 22.67,22.67 0 0 1 -5.86,-0.85 l 0.09,-3.91 a 26.47,26.47 0 0 0 5.68,0.67 z m 0,4.42 a 28,28 0 0 0 5.76,-0.86 l 0.08,3.9 a 24.9,24.9 0 0 1 -5.85,1 20,20 0 0 1 -5.95,-0.92 l 0.09,-3.91 a 23.15,23.15 0 0 0 5.78,0.69 z m 0,4.42 a 24.81,24.81 0 0 0 5.86,-0.94 l 0.08,3.91 a 22.22,22.22 0 0 1 -5.94,1 17.47,17.47 0 0 1 -6,-1 l 0.08,-3.9 a 20.13,20.13 0 0 0 5.82,0.83 z m 0,4.42 a 22.69,22.69 0 0 0 5.95,-1 l 0.08,3.9 a 20.06,20.06 0 0 1 -6,1.11 16,16 0 0 1 -6.14,-1.06 l 0.09,-3.9 a 18.21,18.21 0 0 0 5.92,0.85 z m 0,4.42 a 20.3,20.3 0 0 0 6,-1.09 l 0.08,3.91 a 18.45,18.45 0 0 1 -6.13,1.18 14.77,14.77 0 0 1 -6.22,-1.12 l 0.08,-3.9 a 16.65,16.65 0 0 0 6.09,0.92 z m 0,4.43 a 18.77,18.77 0 0 0 6.14,-1.16 l 0.09,3.89 a 16.86,16.86 0 0 1 -6.23,1.26 13.77,13.77 0 0 1 -6.32,-1.17 l 0.09,-3.9 a 15.36,15.36 0 0 0 6.12,0.95 z m -6.43,3.19 a 14.52,14.52 0 0 0 6.33,1.13 17,17 0 0 0 6.23,-1.23 l 0.09,3.9 a 15.89,15.89 0 0 1 -6.33,1.33 c -3.69,0 -5.58,-0.75 -6.41,-1.23 z m -0.1,4.38 a 13.8,13.8 0 0 0 6.42,1.17 16.21,16.21 0 0 0 6.34,-1.29 l 0.08,3.89 a 15,15 0 0 1 -6.42,1.4 c -3.87,0 -5.71,-0.77 -6.5,-1.28 z m -0.09,4.39 c 1,0.54 2.87,1.2 6.51,1.2 a 15.34,15.34 0 0 0 6.43,-1.35 l 0.08,3.88 a 14,14 0 0 1 -6.52,1.47 c -4,0 -5.82,-0.78 -6.59,-1.31 z m -0.1,4.39 c 0.95,0.57 2.86,1.23 6.6,1.23 a 14.46,14.46 0 0 0 6.53,-1.41 l 0.08,3.88 a 13.42,13.42 0 0 1 -6.61,1.53 c -4.16,0 -5.94,-0.79 -6.69,-1.34 z m -0.1,4.4 c 0.95,0.59 2.86,1.26 6.7,1.26 a 13.85,13.85 0 0 0 6.62,-1.48 l 0.08,3.88 a 12.87,12.87 0 0 1 -6.71,1.59 c -4.27,0 -6.05,-0.79 -6.77,-1.36 z m -0.09,4.4 c 0.94,0.61 2.86,1.28 6.78,1.28 A 13.37,13.37 0 0 0 301,243 l 0.08,3.87 a 10.21,10.21 0 0 1 -4,1.44 0.66,0.66 0 0 0 -0.15,0 h -4.23 a 0.67,0.67 0 0 0 -0.45,0.18 17.83,17.83 0 0 1 -2.5,-0.34 v -1.25 a 0.71,0.71 0 0 0 -0.71,-0.71 h -1.6 z m 8.69,6.45 v 3 l -2.79,-0.63 v -2.32 z m -4.18,-0.84 a 0.79,0.79 0 0 0 0,0.13 v 2.72 l -2.24,-0.51 v -2.65 a 17.85,17.85 0 0 0 2.21,0.31 z m -3.69,-1.28 v 0.1 l -0.2,-0.1 z m -2.8,0 h 1.77 a 4.61,4.61 0 0 0 1,0.54 v 2.77 l -2.8,-0.63 z m -7.87,-2.12 h 2.79 v 3.67 l -2.79,-0.63 z m -13,-10 v -1.79 h 13.71 v 1.75 z m 11.22,1.42 v 11.26 l -4.21,-0.94 a 0.55,0.55 0 0 0 -0.31,0 l -4.21,0.94 v -11.3 z m -13.33,8.62 h 2.8 v 3 l -2.8,0.63 z m -5.08,2.12 v 2.68 l -2.79,0.63 v -3.24 l 0.13,-0.07 z m -2.46,-11 a 15,15 0 0 1 -13.3,0 l 0.08,-4.64 a 14.14,14.14 0 0 0 6.53,1.41 14,14 0 0 0 6.6,-1.45 z M 248.3,166 c 1,0 4,-0.31 5.36,-0.45 l 0.09,4.66 c -1.33,0.18 -4.24,0.54 -5.45,0.54 -1.21,0 -4.08,-0.36 -5.42,-0.53 l 0.09,-4.67 c 1.38,0.19 4.3,0.45 5.33,0.45 z m -5.33,-0.88 0.07,-3.41 q 5.75,-0.36 10.53,-1.08 l 0.08,4.49 c -1.35,0.14 -4.34,0.45 -5.35,0.45 -1.01,0 -3.96,-0.26 -5.3,-0.41 z m 5.33,6.06 c 1.24,0 4.1,-0.36 5.46,-0.54 l 0.08,4.67 a 46.67,46.67 0 0 1 -5.54,0.63 49.38,49.38 0 0 1 -5.51,-0.62 l 0.08,-4.67 c 1.37,0.22 4.21,0.57 5.43,0.57 z m 0,5.18 a 47.33,47.33 0 0 0 5.55,-0.62 l 0.09,4.67 a 40,40 0 0 1 -5.64,0.71 40,40 0 0 1 -5.6,-0.7 l 0.08,-4.67 a 47.79,47.79 0 0 0 5.52,0.65 z m 0,5.19 a 39.05,39.05 0 0 0 5.65,-0.71 l 0.09,4.67 a 33.5,33.5 0 0 1 -5.74,0.8 33.51,33.51 0 0 1 -5.69,-0.79 l 0.08,-4.67 a 39.06,39.06 0 0 0 5.61,0.74 z m 0,5.18 A 31.94,31.94 0 0 0 254,186 l 0.09,4.67 a 28,28 0 0 1 -5.83,0.88 28,28 0 0 1 -5.78,-0.87 l 0.08,-4.67 a 32,32 0 0 0 5.74,0.76 z m 0,5.19 a 28.5,28.5 0 0 0 5.84,-0.87 l 0.09,4.66 a 18.73,18.73 0 0 1 -11.81,0 l 0.09,-4.66 a 28.46,28.46 0 0 0 5.79,0.95 z m 0,5.18 a 24.88,24.88 0 0 0 5.93,-0.95 l 0.09,4.66 a 17.8,17.8 0 0 1 -12,0 l 0.09,-4.67 a 24.82,24.82 0 0 0 5.89,1 z m 0,5.18 a 22.41,22.41 0 0 0 6,-1 l 0.09,4.66 a 19.86,19.86 0 0 1 -6.12,1.12 19.53,19.53 0 0 1 -6.06,-1.11 l 0.08,-4.66 a 22.49,22.49 0 0 0 6.01,1.03 z m 0,5.19 a 20.13,20.13 0 0 0 6.13,-1.11 l 0.08,4.66 a 16.51,16.51 0 0 1 -12.36,0 l 0.08,-4.66 a 20.15,20.15 0 0 0 6.07,1.15 z m 0,5.18 a 18.55,18.55 0 0 0 6.22,-1.17 l 0.09,4.65 a 16.66,16.66 0 0 1 -6.31,1.28 16.48,16.48 0 0 1 -6.24,-1.26 l 0.08,-4.66 a 18.31,18.31 0 0 0 6.16,1.2 z m 0,5.19 a 16.86,16.86 0 0 0 6.32,-1.25 l 0.08,4.65 a 15.44,15.44 0 0 1 -6.4,1.35 15.67,15.67 0 0 1 -6.34,-1.32 l 0.09,-4.65 a 17.08,17.08 0 0 0 6.25,1.26 z m 0,5.18 a 15.82,15.82 0 0 0 6.41,-1.31 l 0.09,4.64 a 15.48,15.48 0 0 1 -12.93,0 l 0.09,-4.64 a 15.85,15.85 0 0 0 6.34,1.35 z m 0,5.19 a 15,15 0 0 0 6.51,-1.38 l 0.09,4.63 a 15.28,15.28 0 0 1 -13.12,0 l 0.08,-4.64 a 15.08,15.08 0 0 0 6.44,1.43 z m -5.15,-96.05 h 10.31 l 1,1.39 h -12.3 z m -2.66,4.19 V 135 h 15.63 v 1.39 z m 1.3,1.42 h 13 l -0.49,1.38 h -12.02 z m 11.49,7.6 0.06,2.78 c -3,0.36 -6.38,0.61 -10.07,0.73 l 0.06,-3.51 z m -9.93,-1.37 0.07,-3.39 h 9.77 l 0.07,3.39 z m -12.54,16.68 c -13.28,0 -19.66,5.76 -21.89,8.41 a 13.1,13.1 0 0 1 2.15,-9.79 c 4.22,-5.9 13.59,-8.89 27.86,-8.89 24.07,0 35.11,-5.7 38.54,-8 -0.6,8.82 -7.4,18.27 -46.66,18.27 z m 10.87,76.47 a 15.73,15.73 0 0 0 13.32,0 l 0.09,4.63 a 12.4,12.4 0 0 1 -6.79,1.63 12.54,12.54 0 0 1 -6.7,-1.58 z m -0.09,5.14 a 15.63,15.63 0 0 0 13.51,0 l 0.07,3.95 H 254 a 0.71,0.71 0 0 0 -0.71,0.71 v 0.91 a 12.93,12.93 0 0 1 -2.62,0.6 0.65,0.65 0 0 0 -0.34,-0.1 h -4.21 a 0.73,0.73 0 0 0 -0.3,0.07 10.13,10.13 0 0 1 -4.27,-1.47 z m 9.41,6.51 a 13.74,13.74 0 0 0 2.29,-0.52 v 2.95 l -2.25,0.51 V 249 A 0.78,0.78 0 0 0 251,248.8 Z m -1.37,0.93 v 2.32 l -2.8,0.63 v -3 z m -8.08,-2.31 a 10.33,10.33 0 0 0 3.92,1.34 0.58,0.58 0 0 0 -0.06,0.26 v 4 l -2.24,0.5 v -2.36 a 0.71,0.71 0 0 0 -0.71,-0.71 h -1 z m -2.59,4.43 h 2.79 v 2 l -2.79,0.63 z m -5.13,2.15 v 1.61 l -2.8,0.63 V 254 Z m -5.47,-15 a 3.15,3.15 0 1 1 -2.69,3.12 2.93,2.93 0 0 1 2.69,-3.12 z m 1.25,104.24 h -2.41 v -93.18 h 2.41 z m -4.23,-94.56 v -2 h 6 v 2 z m 22,92.86 h -10.13 v -1 h 10.08 z m 6.28,0 h -4.87 v -2.39 h -12.9 v 2.39 H 231 v -4.77 h 22.58 z m 0,-6.19 H 231 v -0.9 h 22.58 z m 0,-10.75 -2.31,1.29 a 0.71,0.71 0 0 0 0.35,1.33 h 2 V 333 H 231 v -32.55 h 2.22 v 3 h 1.17 v -0.42 h -0.74 v -2.6 h 2.51 v 3 h 1.26 v -0.42 h -0.83 v -2.6 h 2.52 v 3 h 1.35 v -0.42 h -0.93 v -2.6 h 2.52 v 3 h 1.44 v -0.42 h -1 v -2.6 H 245 v 3 h 1.52 v -0.42 h -1.1 v -2.6 H 248 v 3 h 1.61 v -0.42 h -1.21 v -2.6 h 2.51 v 3 h 1.71 v -0.42 h -1.28 v -2.6 h 2.27 z m 0,-25.53 H 231 v -0.9 h 22.58 z m 0,-2.32 H 231 v -15.48 h 2.22 v 2.38 h 1.17 v -0.42 h -0.74 v -2 h 2.51 v 2.38 h 1.26 v -0.42 h -0.83 v -2 h 2.52 v 2.38 h 1.35 v -0.42 h -0.93 v -2 h 2.52 v 2.38 h 1.44 v -0.42 h -1 v -2 H 245 v 2.38 h 1.52 v -0.42 h -1.1 v -2 H 248 v 2.38 h 1.61 v -0.42 h -1.21 v -2 h 2.51 v 2.38 h 1.71 v -0.42 h -1.28 v -2 h 2.27 z m 0,-16.86 H 231 V 279 h 22.58 z m 0,-2.32 H 231 v -15.48 h 2.22 v 2.69 h 1.17 v -0.43 h -0.74 v -2.26 h 2.51 v 2.69 h 1.26 v -0.43 h -0.83 v -2.26 h 2.52 v 2.69 h 1.35 v -0.43 h -0.93 v -2.26 h 2.52 v 2.69 h 1.44 v -0.43 h -1 v -2.26 H 245 v 2.69 h 1.52 v -0.43 h -1.1 v -2.26 H 248 v 2.69 h 1.61 v -0.43 h -1.21 v -2.26 h 2.51 v 2.69 h 1.71 v -0.43 h -1.28 v -2.26 h 2.27 z m 0,-16.86 h -16.92 l 4,-0.9 h 12.83 z m 0,-2.32 h -6.49 l 6.49,-1.45 z m 3.83,84.85 H 255 v -16 h 2.41 z m 13.34,2.17 h -5.66 V 331 h 5.66 z m 7.09,0 H 272.2 V 331 h 5.67 z m 6.25,0 h -4.83 V 330.3 a 0.71,0.71 0 0 0 -0.71,-0.71 h -14.22 a 0.71,0.71 0 0 0 -0.71,0.71 v 15.07 h -4.84 v -18.19 h 25.26 z M 288,343.2 h -2.41 v -16 H 288 Z m -33.58,-17.44 17.22,-9.6 17.05,9.6 z m 0.66,-2 v -67.18 l 2.41,-0.54 v 66.39 z m 16.46,-69.16 c -7,0 -9.6,3.1 -10.16,3.91 h -2.47 v -2.8 l 12.63,-2.82 12.63,2.82 v 2.8 h -2.46 c -0.62,-0.8 -3.21,-3.9 -10.22,-3.9 z m 8.27,3.91 h -2.47 V 257 a 8,8 0 0 1 2.42,1.52 z m -2.9,-1.66 v 1.66 h -2.41 v -2.25 a 12.68,12.68 0 0 1 2.36,0.6 z m -2.79,-0.66 v 2.32 h -2.36 V 256 a 18.64,18.64 0 0 1 2.31,0.2 z m -2.79,-0.16 v 2.48 h -2.37 v -2.31 a 18.81,18.81 0 0 1 2.32,-0.2 z m -2.79,0.23 v 2.25 h -2.37 v -1.66 a 13.65,13.65 0 0 1 2.32,-0.58 z m -2.79,0.76 v 1.49 h -2.47 A 8.23,8.23 0 0 1 265.7,257 Z m 18.42,2.9 v 0.91 h -25.31 v -0.91 z m -23.37,2.32 v 2.53 h 1.17 v -0.43 h -0.75 v -2.1 h 2.52 v 2.53 H 265 v -0.43 h -0.83 v -2.1 h 2.52 v 2.53 H 268 v -0.43 h -0.92 v -2.1 h 2.52 v 2.53 h 1.4 v -0.43 h -1 v -2.1 h 2.51 v 2.53 h 1.53 v -0.43 H 273 v -2.1 h 2.52 v 2.53 h 1.61 v -0.43 h -1.19 v -2.1 h 2.52 v 2.53 h 1.71 v -0.43 h -1.28 v -2.1 h 2.52 v 2.53 h 1.79 v -0.43 h -1.37 v -2.1 h 2.34 v 15.28 h -25.31 v -15.27 z m 23.37,16.87 v 0.73 h -25.31 v -0.73 z m -23.37,2.15 v 2.38 h 1.17 v -0.42 h -0.75 v -2 h 2.52 v 2.38 H 265 v -0.42 h -0.83 v -2 h 2.52 v 2.38 H 268 v -0.42 h -0.92 v -2 h 2.52 v 2.38 h 1.4 v -0.42 h -1 v -2 h 2.51 v 2.38 h 1.53 v -0.42 H 273 v -2 h 2.52 v 2.38 h 1.61 v -0.42 h -1.19 v -2 h 2.52 v 2.38 h 1.71 v -0.42 h -1.28 v -2 h 2.52 v 2.38 h 1.79 v -0.42 h -1.37 v -2 h 2.34 v 15.44 h -25.31 v -15.11 z m 23.37,16.86 v 0.9 h -25.31 v -0.9 z m -23.37,2.32 v 3 h 1.17 v -0.42 h -0.75 v -2.6 h 2.52 v 3 H 265 V 303 h -0.83 v -2.6 h 2.52 v 3 H 268 v -0.42 h -0.92 v -2.6 h 2.52 v 3 h 1.4 v -0.42 h -1 v -2.6 h 2.51 v 3 h 1.53 v -0.42 H 273 v -2.6 h 2.52 v 3 h 1.61 v -0.42 h -1.19 v -2.6 h 2.52 v 3 h 1.71 v -0.42 h -1.28 v -2.6 h 2.52 v 3 h 1.79 v -0.42 h -1.37 v -2.6 h 2.34 v 21.14 l -12.18,-6.86 a 0.71,0.71 0 0 0 -0.69,0 l -12.39,6.91 v -21.02 z m 24.79,21.94 V 256 l 2.41,0.54 v 67.17 z m 20.19,19.11 h -10.12 v -1 h 10.07 z m 6.22,0 h -4.8 v -2.39 h -12.96 v 2.39 h -4.87 v -4.77 H 312 Z m 0,-6.19 h -22.63 v -0.9 H 312 Z m 0,-2.32 h -22.63 v -5.81 h 2 a 0.71,0.71 0 0 0 0.35,-1.33 l -2.32,-1.3 v -24.1 h 2.23 v 3 h 1.17 v -0.42 H 292 v -2.6 h 2.51 v 3 h 1.26 V 303 H 295 v -2.6 h 2.52 v 3 h 1.35 v -0.42 h -0.93 v -2.6 h 2.52 v 3 h 1.44 v -0.42 h -1 v -2.6 h 2.52 v 3 h 1.52 v -0.42 h -1.1 v -2.6 h 2.52 v 3 h 1.62 v -0.42 h -1.19 v -2.6 h 2.52 v 3 H 311 v -0.42 h -1.28 v -2.6 H 312 Z m 0,-34 h -22.63 v -0.9 H 312 Z m 0,-2.32 h -22.63 v -15.39 h 2.23 v 2.38 h 1.17 v -0.42 H 292 v -2 h 2.51 v 2.38 h 1.26 v -0.42 H 295 v -2 h 2.52 v 2.38 h 1.35 v -0.42 h -0.93 v -2 h 2.52 v 2.38 h 1.44 v -0.42 h -1 v -2 h 2.52 v 2.38 h 1.52 v -0.42 h -1.1 v -2 h 2.52 v 2.38 h 1.62 v -0.42 h -1.19 v -2 h 2.52 v 2.38 H 311 v -0.42 h -1.28 v -2 H 312 Z m 0,-16.86 H 289.37 V 279 H 312 Z m 0,-2.32 h -22.63 v -15.39 h 2.23 v 2.69 h 1.17 v -0.43 H 292 v -2.26 h 2.51 v 2.69 h 1.26 v -0.43 H 295 v -2.26 h 2.52 v 2.69 h 1.35 v -0.43 h -0.93 v -2.26 h 2.52 v 2.69 h 1.44 v -0.43 h -1 v -2.26 h 2.52 v 2.69 h 1.52 v -0.43 h -1.1 v -2.26 h 2.52 v 2.69 h 1.62 v -0.43 h -1.19 v -2.26 h 2.52 v 2.69 H 311 v -0.43 h -1.28 v -2.26 H 312 Z m -9.74,-17.76 4,0.9 h -16.89 v -0.9 z m -12.84,-1.42 v -1.4 l 6.5,1.45 z m 22.58,2.19 -9.53,-2.13 h -0.06 l -30.71,-6.87 a 0.81,0.81 0 0 0 -0.31,0 l -30.72,6.87 h -0.05 l -9.62,2.13 v -2.84 l 40.46,-9 40.46,9 z m 0,-4.29 -2.79,-0.63 V 254 H 312 Z m 141.62,97.69 V 357 h -2.21 v -3.12 z m -18.4,-44.76 6.88,4.73 h -1.78 l -6.07,-4.73 z m 1.29,7.26 -1.36,-1.11 h 4.79 V 319 c -0.84,-0.61 -1.68,-1.24 -2.52,-1.9 h 1.47 v -0.7 z m -3.51,-7.26 6.07,4.73 h -2.77 l -5,-4.73 z m -2.77,0 5,4.73 h -1.84 a 67.82,67.82 0 0 1 -4.88,-4.73 z m -7.09,-4.3 c 9.15,12.54 23.81,20.76 30,23.84 h -4.22 c -16.46,-6.5 -26.27,-20.25 -28.62,-23.86 z m -3.71,0 c 1.82,2.86 11.29,16.79 27.62,23.87 h -3.34 c -16.51,-6.53 -26.33,-20.35 -28.64,-23.9 z m -5.21,0 c 1.75,2.77 11.24,16.79 27.64,23.91 h -3.33 c -16.58,-6.55 -26.42,-20.46 -28.68,-23.94 z m -5.21,0 c 1.67,2.65 11.17,16.79 27.67,23.95 h -3.34 c -16.65,-6.58 -26.5,-20.58 -28.7,-24 z m -5.21,0 c 1.59,2.54 11.1,16.79 27.69,24 h -3.29 c -16.73,-6.61 -26.58,-20.7 -28.73,-24 z M 390.52,300 v -3.6 h 1.75 v -0.71 h -1.75 v -3.54 h 1.75 v -0.71 h -1.75 v -3.55 h 1.75 v -0.7 h -1.75 v -3.32 h 9.56 v 3.32 h -2 v 0.7 h 2 v 3.55 h -2 v 0.71 h 2 v 3.54 h -2 v 0.71 h 2 v 3.6 h -2 v 0.7 h 2 v 2.28 h -9.56 v -2.28 h 1.75 V 300 Z m 8.1,4.69 c 1.52,2.41 11,16.79 27.73,24 H 423 c -16.8,-6.64 -26.66,-20.82 -28.75,-24.07 z m -0.34,-25.49 h 3.27 v 3.3 h -3.27 z m -5.24,0 h 4.53 v 3.3 H 393 Z m -4,3.3 v -3.3 h 3.27 v 3.3 z m 4.35,22.15 c 1.43,2.29 11,16.79 27.75,24.07 h -3.33 C 401,322 391.08,307.73 389.05,304.56 Z m -8.12,-0.07 h 2.91 c 1.35,2.16 10.9,16.79 27.78,24.11 h -3.34 c -14.35,-5.67 -23.65,-16.85 -27.35,-22 z m 0,3.33 c 3.93,5.29 12.57,15.2 25.5,20.81 h -3.33 A 61.4,61.4 0 0 1 385.29,313 Z m 0,6.18 a 62.35,62.35 0 0 0 20.32,14.63 h -3.34 a 58.34,58.34 0 0 1 -17,-10.58 z m 0,5 a 59.37,59.37 0 0 0 15.13,9.65 h -3.33 a 55.77,55.77 0 0 1 -11.8,-6.46 z m 0,4.05 a 56.16,56.16 0 0 0 9.95,5.6 h -3.32 a 55.28,55.28 0 0 1 -6.61,-3.16 z m 0,3.25 c 1.52,0.84 3.1,1.63 4.76,2.35 h -4.76 z m 0,3.76 h 66.13 v 2.52 h -1.19 v -2.33 h -0.71 v 3 h 1.9 v 4.12 h -1.19 v -2.36 h -0.71 v 3 h 1.9 v 4.13 h -1.19 v -2.33 h -0.71 v 3 h 1.9 v 4.13 h -1.19 v -2.33 h -0.71 v 3 h 1.9 v 4.13 h -1.19 v -2.33 h -0.71 v 2.87 H 412.35 V 351.4 H 419 a 0.7,0.7 0 0 0 0.61,-0.35 h 28.59 v -0.71 h -28.63 a 0.69,0.69 0 0 0 -0.33,-0.3 l -23.08,-9.89 a 0.71,0.71 0 0 0 -0.28,-0.06 h -10.59 z m 65.36,23.81 V 357 h -2.29 v -3.12 z m -3,0 V 357 h -2.29 v -3.12 z m -3,0 V 357 h -2.29 v -3.12 z m -3,0 V 357 h -2.29 v -3.12 z m -3,0 V 357 h -2.29 v -3.12 z m -3,0 V 357 h -2.29 v -3.12 z m -3,0 V 357 h -2.29 v -3.12 z m -3,0 V 357 h -2.29 v -3.12 z m -3,0 V 357 h -2.29 v -3.12 z m -3,0 V 357 h -2.29 v -3.12 z m -3,0 V 357 h -2.29 v -3.12 z m -3,0 V 357 h -2.29 v -3.12 z m -3,0 V 357 h -1.94 v -3.12 z m -33.82,-65 3.21,4.39 h -6.75 z m 3,9.7 v 3.55 h -1.4 v 0.71 h 1.4 v 3.54 h -1.4 v 0.71 h 1.4 v 3.54 h -1.4 v 0.71 h 1.4 v 3.55 h -1.4 v 0.71 h 1.4 v 3.54 h -1.4 v 0.71 h 1.4 v 3.54 h -1.4 v 0.71 h 1.4 v 3.55 h -1.4 v 0.71 h 1.4 v 3.54 h -1.4 v 0.71 h 1.4 v 3.54 h -1.4 v 0.71 h 1.4 v 3.19 h -6.5 v -3.23 h 1.4 v -0.71 h -1.4 v -3.54 h 1.4 v -0.71 h -1.4 v -3.54 h 1.4 v -0.71 h -1.4 v -3.55 h 1.4 v -0.71 h -1.4 v -3.54 h 1.4 v -0.71 h -1.4 v -3.54 h 1.4 v -0.71 h -1.4 v -3.55 h 1.4 v -0.71 h -1.4 v -3.54 h 1.4 v -0.71 h -1.4 v -3.54 h 1.4 v -0.71 h -1.4 v -3.55 h 1.4 v -0.71 h -1.4 v -3.19 h 6.5 v 3.19 h -1.4 v 0.71 z m -7.81,5.8 v 3.6 c -0.49,-0.64 -0.92,-1.23 -1.28,-1.74 v -0.24 h -0.17 c -0.49,-0.71 -0.86,-1.27 -1.1,-1.64 z m -1.28,8.28 v -5.21 c 0.38,0.52 0.8,1.08 1.28,1.69 v 4.89 c -0.49,-0.46 -0.91,-0.92 -1.32,-1.37 z m 1.28,2.39 v 3.77 c -0.36,-0.36 -0.79,-0.78 -1.28,-1.29 v -3.83 c 0.37,0.45 0.79,0.89 1.28,1.35 z m -3.39,-10.7 c 0.18,0.3 0.65,1 1.4,2.11 V 312 a 62.25,62.25 0 0 1 -5.77,-7.55 z m -5.21,0 A 61.09,61.09 0 0 0 374,313 v 3.88 a 123.34,123.34 0 0 1 -10.6,-12.53 z m -13.93,-15.15 c 4.9,14.66 20.4,29.63 22.53,31.63 v 3.84 h -49.51 l 4.19,-3.62 c 0.75,-0.74 17.61,-16.48 22.75,-31.89 z m -25.61,51.89 v -0.6 h 1.8 v 0.6 z m 0,-2 v -2.38 h 1.8 v 2.38 z m 0,-3.8 v -0.9 h 1.8 v 0.9 z m 4.61,-17.95 h -0.6 v -1.8 h 2.31 v 0 c -0.66,0.62 -1.18,1.21 -1.75,1.74 z m -8.51,8.31 a 0.72,0.72 0 0 0 0.66,0.46 h 0.59 v 0.95 h -1.42 v -3.92 l 1.42,-1.3 V 324 l -1.05,0.9 a 0.7,0.7 0 0 0 -0.24,0.77 z m 5.7,2.81 h -0.52 v -1.8 h 0.52 z m 0,-2.22 h -0.52 v -0.13 h 0.52 z m 12,-25.81 h 0.72 v 1 c -0.39,0.5 -0.8,1 -1.25,1.59 h -1.27 v -0.4 c 0.61,-0.82 1.21,-1.55 1.77,-2.25 z m -1.8,1.53 v -1.53 h 1.25 c -0.42,0.43 -0.84,0.95 -1.28,1.49 z m 5.95,-3 h -0.33 l 0.38,-0.52 z m 0.12,-2.32 h -1.35 c 0.61,-0.81 1.11,-1.48 1.49,-2 v 1.81 z m -1,1.42 -0.67,0.9 h -1.44 l 0.7,-0.9 z m -1.74,2.32 -0.35,0.46 v -0.46 z m -2.37,3 c -1.31,1.64 -2.84,3.49 -4.56,5.46 l -1.1,-0.8 q 2.37,-2.65 4.31,-5 v 0.31 z m -5.5,6.53 c -0.7,0.79 -1.42,1.6 -2.17,2.42 h -2 q 1.58,-1.65 3,-3.23 z m -1.12,3.83 v 1.31 h -2.22 c 0.41,-0.44 0.82,-0.87 1.22,-1.31 z m -5.46,4.64 v 1.11 h -1.14 z m -2.1,0.66 v -1.34 H 328 Z m 2.1,-4.8 -0.8,0.81 h -1.3 v -1.31 h 2.1 z m 0,0.6 v 0.21 h -0.2 z m 0.42,0.63 h 1 c -0.34,0.35 -0.68,0.71 -1,1.06 z m 2.31,0.11 v 1.69 h -1.64 z m -0.87,-0.53 h -1.5 v -0.63 l 0.66,-0.68 h 1.65 v 0.4 z m -1.44,-1.24 v -0.07 h 0.06 z m 1.44,-1.48 h -5.88 l 6.92,-5.11 2.22,1.62 c -1.09,1.14 -2.18,2.31 -3.32,3.5 z m -3.09,3.14 c -0.28,0.29 -0.57,0.57 -0.87,0.86 v -0.86 z m 0.6,0 h 0.63 v 1.49 l -0.31,0.31 h -1.79 V 317 c 0.44,-0.47 0.93,-1 1.41,-1.44 z m -2.88,4.93 -1.42,1.32 v -2.09 c 0.48,-0.44 0.95,-0.89 1.42,-1.34 z m -1.85,1.71 -1.45,1.32 -0.17,0.15 v 4.41 h 1.62 v 1 h -2.85 v -6.33 c 1,-0.87 1.93,-1.73 2.85,-2.6 z m 0,1.35 v 3.53 h -0.62 v -3 z m 0.43,4.53 h 1.42 v 3.55 h 1.65 V 333 h -1.78 v -3.94 h -1.35 z m 3.07,0.4 h -0.24 v -0.4 h 0.24 z m -0.24,1.73 v -1.3 h 0.24 v 1.3 z m 1.24,-1.3 h 0.86 v 1.3 h -0.86 z m 0,-0.43 v -1.4 h -1.24 v -0.4 h 2.1 v 1.8 z m -1.24,-2.22 v -0.13 h 2.1 v 0.13 z m 0,-4 h 0.6 l -0.6,0.52 z m 1.1,-0.42 h -1.1 v -1.3 l 0.53,-0.5 h 1.57 v 0.93 z m 1.42,-1.23 V 320 h 0.66 v 0 z m 1.1,-1 h -1.1 V 318 l 0.25,-0.25 h 2.06 v 0.61 c -0.57,0.55 -0.98,0.95 -1.27,1.22 z m 1.63,-1.79 H 332 l -0.19,0.18 z m 2.61,-5.37 1.63,-1.82 1.54,1.12 -0.6,0.7 z m 1.3,1.41 c -0.4,0.45 -0.8,0.89 -1.18,1.29 v -1.29 z m 1.27,-4.31 c 2.07,-2.38 3.87,-4.58 5.34,-6.44 v 0.39 h 1.79 c -1.85,2.59 -3.77,5 -5.6,7.18 z m 5.77,-6.47 v -0.51 l 1.61,-2.09 h 1.26 l -0.09,1 c -0.44,0.64 -0.88,1.28 -1.33,1.91 v -0.29 z M 346,294 c -0.43,0.6 -1.11,1.54 -2,2.74 H 317.2 V 276.09 H 346 Z m -3.12,4.16 c -0.22,0.29 -0.46,0.59 -0.71,0.9 h -25 v -0.9 z m -24.12,2.32 v 3 H 320 v -0.42 h -0.75 v -2.6 h 2.52 v 3 H 323 v -0.42 h -0.83 v -2.6 h 2.52 v 3 H 326 v -0.42 h -0.92 v -2.6 h 2.52 v 3 h 1.44 V 303 h -1 v -2.6 h 2.51 v 3 h 1.53 v -0.42 H 331 v -2.6 h 2.52 v 3 h 1.61 v -0.42 h -1.19 v -2.6 h 2.52 v 3 h 1.7 v -0.42 h -1.27 v -2.6 h 2.52 v 2.05 c -1.38,1.65 -2.93,3.46 -4.66,5.38 l -2.76,-2 a 0.72,0.72 0 0 0 -0.84,0 l -9.06,6.7 a 0.7,0.7 0 0 0 0.42,1.27 h 2.66 v 4 l -1.42,1.35 v -3.79 h -0.43 v 4.19 c -1,1 -2.11,1.95 -3.21,2.92 l -0.07,0.07 v 7 h 3.28 v 1.44 h 0.43 v -1.44 h 0.92 V 333 h -7.47 v -32.55 z m 5.87,34 v 0.9 h -7.43 v -0.9 z m 0.43,0 h 1.72 v 0.9 h -1.68 z m 2.72,-1.42 v -1.36 h 1.8 v 1.3 z m 1.28,-2.78 v -1.3 h 0.52 v 1.3 z m 19,-56.44 v 0.9 H 317.2 v -0.9 z m -30.95,-1.42 v -5.62 h 1.95 v 5.62 z m 3.36,0 v -5.62 h 1.95 v 5.62 z m 3.37,0 v -5.62 h 1.94 v 5.62 z m 3.36,0 v -5.62 h 1.94 v 5.62 z m 10.87,-7 h -7.61 a 7.88,7.88 0 0 1 -0.69,-0.41 h 9 a 7.6,7.6 0 0 1 -0.61,0.3 z m 1.16,1.42 v 5.62 h -1.95 v -5.62 z m -3.37,0 v 5.62 H 334 v -5.62 z m -3.36,0 v 5.62 h -1.94 v -5.62 z m 8.14,5.62 v -5.62 h 1.95 v 5.62 z m 3.37,0 v -5.62 H 346 v 5.62 z m 4,-7.45 v 0.41 H 339 a 5.51,5.51 0 0 0 0.53,-0.41 z m -17,-73.3 h 6.34 l 0.92,1.2 h -8.18 z m -2.64,3.83 v -1.21 h 11.62 v 1.21 z m 1.32,1.41 h 9 l -0.46,1.21 h -8.06 z m 7.52,6.9 0.06,2 h -6.18 l 0.06,-2 z m -6,-1.42 0.09,-2.85 h 5.8 l 0.08,2.85 z m 3,5.11 c 0.36,0 2.12,-0.14 3.13,-0.22 l 0.12,3.69 c -1,0.12 -2.73,0.33 -3.25,0.33 -0.52,0 -2.27,-0.21 -3.25,-0.33 l 0.12,-3.69 c 1.15,-0.03 2.92,0.11 3.27,0.11 z m 0,4.22 c 0.54,0 2.26,-0.2 3.26,-0.32 l 0.11,3.69 a 31,31 0 0 1 -3.37,0.44 A 31,31 0 0 1 331,215 l 0.11,-3.69 c 0.98,0.14 2.7,0.34 3.24,0.34 z m 0,4.23 a 29.07,29.07 0 0 0 3.39,-0.43 l 0.11,3.69 a 11.61,11.61 0 0 1 -7,0 l 0.11,-3.69 a 28.81,28.81 0 0 0 3.53,0.32 z m 0,4.23 a 22.81,22.81 0 0 0 3.51,-0.53 l 0.11,3.69 a 17.56,17.56 0 0 1 -3.62,0.64 17.77,17.77 0 0 1 -3.63,-0.64 l 0.12,-3.69 a 22.63,22.63 0 0 0 3.65,0.42 z m 0,4.23 a 18.11,18.11 0 0 0 3.64,-0.63 l 0.11,3.68 a 9.75,9.75 0 0 1 -7.5,0 l 0.11,-3.68 a 18,18 0 0 0 3.78,0.52 z m 0,4.22 a 14.6,14.6 0 0 0 3.76,-0.72 l 0.12,3.68 a 9.28,9.28 0 0 1 -7.76,0 l 0.11,-3.68 a 14.67,14.67 0 0 0 3.91,0.61 z m 0,4.23 a 12.75,12.75 0 0 0 3.89,-0.82 l 0.11,3.68 a 9,9 0 0 1 -8,0 l 0.11,-3.68 a 12.75,12.75 0 0 0 4.03,0.71 z m 0,4.23 a 11.19,11.19 0 0 0 4,-0.92 l 0.11,3.67 a 8.65,8.65 0 0 1 -8.26,0 l 0.11,-3.67 a 11.19,11.19 0 0 0 4.18,0.79 z m 0,4.23 a 10.19,10.19 0 0 0 4.14,-1 l 0.12,3.67 a 8.53,8.53 0 0 1 -8.52,0 l 0.12,-3.67 a 10.19,10.19 0 0 0 4.28,0.89 z m -4.27,3.13 a 8.91,8.91 0 0 0 8.54,0 l 0.11,3.66 a 8.41,8.41 0 0 1 -8.76,0 z m -0.13,4.15 a 8.86,8.86 0 0 0 8.8,0 l 0.11,3.64 a 8.31,8.31 0 0 1 -9,0 z m -0.12,4.15 a 8.8,8.8 0 0 0 9,0 l 0.11,3.63 a 8.27,8.27 0 0 1 -9.27,0 z m -0.13,4.15 a 8.79,8.79 0 0 0 9.3,0 l 0.11,3.62 a 8.26,8.26 0 0 1 -9.52,0 z m -0.13,4.15 a 8.86,8.86 0 0 0 9.56,0 l 0.07,2.5 h -9.71 z m -0.42,3.92 a 5.51,5.51 0 0 0 0.53,0.41 H 317.2 v -0.41 z M 314.63,239 a 3.15,3.15 0 1 1 -2.69,3.12 2.93,2.93 0 0 1 2.69,-3.12 z m 1.15,104.24 h -2.41 v -93.18 h 2.41 z m -4.13,-94.56 v -2 h 6 v 2 z m 5.55,88.09 h 7.47 v 4.77 h -7.47 z m 8,4.77 h -0.07 v -4.77 h 1.72 v 2.38 h -1.65 z m 1.41,-1 h 0.24 v 1 h -0.24 z M 331,361.9 h 0.16 l -0.16,0.19 z m 4,22.17 h -4 v -2.42 h 2 v -3 h -0.71 v 2.32 H 331 v -4.12 h 2 v -3 h -0.71 v 2.33 H 331 V 372 h 2 v -2.45 h 2 z m -4,-12.8 v -1.74 h 1.27 v 1.74 z m 8.15,17 h -2.75 v -18.74 h 2.79 z m 2.59,-2 h -1.17 v -16.74 h 1.17 z m 1.85,0 h -1.14 v -16.74 h 1.14 z m 1.85,0 h -1.14 v -16.74 h 0.79 a 0.68,0.68 0 0 0 0.35,-0.09 z m 1.85,0 h -1.14 v -18 l 1.14,-2.48 z m 1.56,-8 v 3 H 348 V 364.2 l 0.85,-1.85 z m 0,-19.29 -4.21,9.14 h -16.87 l 8.25,-9.68 h 12.87 z m -12.49,-2 v -3.12 h 2 V 357 Z m 2.71,0 v -3.12 h 2.29 V 357 Z m 3,0 v -3.12 h 2.29 V 357 Z m 3,0 v -3.12 h 2.29 V 357 Z m 3.78,0 h -0.78 v -3.12 h 0.78 z m 0,-4.53 h -13.2 a 0.7,0.7 0 0 0 -0.71,0.7 v 4.28 l -2,2.3 v -0.48 h -0.71 v 1.31 l -0.51,0.6 H 331 v -3.71 h 2 v -3 h -0.71 v 2.33 H 331 v -4.13 h 2 v -3 h -0.71 v 2.33 H 331 v -4.13 h 2 v -3 h -0.71 v 2.33 H 331 V 343 h 2 v -3 h -0.71 v 2.33 H 331 v -4.13 h 2 v -3 h -0.71 v 2.33 H 331 v -4.12 h 2 v -3 h -0.71 v 2.33 H 331 v -6.47 h 45 v 14 h -10.47 a 0.67,0.67 0 0 0 -0.28,0.06 L 360,342.39 V 331.8 a 0.71,0.71 0 0 0 -0.71,-0.71 h -11.6 a 0.71,0.71 0 0 0 -0.71,0.71 V 348 l -4.82,2 a 0.72,0.72 0 0 0 -0.32,0.3 h -5.39 v 0.71 h 5.4 a 0.75,0.75 0 0 0 0.63,0.35 h 6.41 z m 5,-11.75 v -3.9 h 4.75 v 3.93 z m 4.75,0.71 V 343 l -4.75,2 v -3.6 z m -4.75,-5.35 v -3.58 h 4.75 v 3.58 z M 348.4,345 v -3.57 h 4.74 V 345 Z m 3.85,0.71 -3.85,1.65 v -1.65 z m -3.85,-5 v -3.91 h 4.74 v 3.93 z m 0,-4.64 v -3.58 h 4.74 v 3.58 z m -2.5,13.93 13.78,-5.91 H 360 v -0.14 l 5.66,-2.43 h 30.06 l 19.79,8.48 z m 66.45,12.52 3.11,7.11 a 0.71,0.71 0 0 0 0.65,0.42 h 0.6 v 5 h -4.36 z m -1.41,17.17 v 1.58 h -60.63 v -1.58 z m -60.63,-1.42 v -22.1 h 6.07 v 22.1 z m 7.49,-5.47 v -5.11 h 0.56 V 367 h -0.56 v -5.12 h 1.61 v 3.56 h 0.71 v -3.56 h 2 v 3.56 h 0.71 v -3.56 h 2 V 367 h -0.92 v 0.71 h 0.92 v 5.11 h -0.92 v 0.71 h 0.92 v 4.76 h -2 v -1.49 h -0.71 v 1.46 h -2 v -1.46 h -0.71 v 1.46 h -1.61 v -4.76 h 0.56 v -0.71 z m 0,-11.65 v -5 h 1.61 v 5 z m 2.32,0 v -5 h 2 v 5 z m 2.68,0 v -5 h 2 v 5 z m 4.3,0.71 V 367 h -1.62 v -5.12 z m -1.62,-0.71 v -5 h 1.62 v 5 z m 1.62,6.54 v 5.11 h -1.62 v -5.11 z m 0,5.82 v 4.76 h -1.62 v -4.77 z m 1.42,4.76 v -22.1 h 6.06 v 22.1 z M 376,372.8 v -5.11 h 0.57 V 367 H 376 v -5.12 h 1.62 v 3.56 h 0.71 v -3.56 h 2 v 3.56 H 381 v -3.56 h 2 V 367 h -0.92 v 0.71 H 383 v 5.11 h -0.92 v 0.71 H 383 v 4.76 h -2 v -1.49 h -0.71 v 1.46 h -2 v -1.46 h -0.71 v 1.46 H 376 v -4.76 h 0.57 v -0.71 z m 0,-11.65 v -5 h 1.62 v 5 z m 2.33,0 v -5 h 2 v 5 z m 2.68,0 v -5 h 2 v 5 z m 4.3,0.71 V 367 h -1.62 v -5.12 z m -1.62,-0.71 v -5 h 1.62 v 5 z m 1.62,6.54 v 5.11 h -1.62 v -5.11 z m 0,5.82 v 4.76 h -1.62 v -4.77 z m 1.42,4.76 v -22.1 h 6 v 22.1 z m 7.42,-5.47 v -5.11 H 395 V 367 h -0.84 v -5.12 h 1.68 v 3.56 h 0.71 v -3.56 h 2 v 3.56 h 0.71 v -3.56 h 2 V 367 h -0.71 v 0.71 h 0.71 v 5.11 h -0.71 v 0.71 h 0.71 v 4.76 h -2 v -1.49 h -0.71 v 1.46 h -2 v -1.46 h -0.71 v 1.46 h -1.68 V 373.5 H 395 v -0.71 z m 0,-11.65 v -5 h 1.68 v 5 z m 2.39,0 v -5 h 2 v 5 z m 2.68,0 v -5 h 2 v 5 z m 4.3,0.71 V 367 h -1.62 v -5.12 z m -1.62,-0.71 v -5 h 1.62 v 5 z m 1.62,6.54 v 5.11 h -1.62 v -5.11 z m 0,5.82 v 4.76 h -1.62 v -4.77 z m 1.41,4.76 v -22.1 h 6 v 22.1 z m -54.62,-23.52 v -3.35 h 60.63 v 3.34 z m 57,39.73 H 354 v -1.83 h 53.3 z m 4.91,0 h -3.49 v -3.25 h -56.2 v 3.25 H 349 v -11.8 h 63.17 z m 2,-6.19 h -0.62 v -7 h -1.28 v -4.77 h 1.9 z m 3.59,0 h -2.17 v -11.8 h 2.17 z m 3.58,0 h -2.17 v -11.8 h 2.17 z m 0.59,-17.19 h -3.68 v 0.7 h 3.7 v 3.28 h -4.59 v -5 H 422 Z m 5.3,0.7 v 3.28 h -4.59 v -3.28 z m -4.59,-0.7 v -1 h 4.59 v 1 z m 2.31,17.18 h -2.17 V 376.49 H 425 Z m 3.58,0 h -2.16 v -11.79 h 2.16 z m 3.58,0 H 430 v -11.79 h 2.16 z m 0.45,-13.21 H 428 v -3.28 h 4.59 z m 0,-4 H 428 v -1 h 4.59 z m 5.42,0.7 v 3.28 h -4.58 v -3.28 z m -4.58,-0.7 v -1 H 438 v 1 z m 2.29,17.19 h -2.16 v -11.77 h 2.16 z m 3.58,0 h -2.16 v -11.77 h 2.16 z m 3.58,0 h -2.16 v -11.77 h 2.16 z m 0.43,-13.21 h -4.59 v -3.28 h 4.59 z m 0,-4 h -4.59 v -1 h 4.59 z m 5.3,0.7 v 3.28 H 444 v -3.28 z m -4.59,-0.7 v -1 h 4.59 v 1 z m 2.44,17.19 h -2.16 v -11.75 h 2.16 z m 3.58,0 h -2.16 v -11.75 h 2.16 z m 3.51,0 h -2.09 v -11.75 h 2.09 z m 0,-13.21 h -4.23 v -3.28 h 2.77 v -0.7 h -2.77 v -1 h 4.23 z m -37,-6.45 -4.22,-9.58 v -0.54 h 39.37 l 8.3,10.19 z"
       id="path366" />
    <path
       class="cls-7"
       d="m 354.32,308.39 a 5.24,5.24 0 1 0 5.24,5.24 5.25,5.25 0 0 0 -5.24,-5.24 z m -0.35,9 a 3.8,3.8 0 0 1 -3.43,-3.43 H 354 Z m 0,-4.14 h -3.43 a 3.8,3.8 0 0 1 3.43,-3.43 z m 0.71,4.14 V 314 h 3.42 a 3.8,3.8 0 0 1 -3.42,3.41 z m 0,-4.14 v -3.43 a 3.8,3.8 0 0 1 3.42,3.43 z"
       id="path368" />
    <path
       class="cls-7"
       d="m 353.32,307 v -0.7 a 6.31,6.31 0 0 0 -6.3,6.3 h 0.71 a 5.6,5.6 0 0 1 5.59,-5.6 z"
       id="path370" />
    <rect
       class="cls-7"
       x="351.76999"
       y="352.82999"
       width="58.02"
       height="0.70999998"
       id="rect372" />
    <rect
       class="cls-7"
       x="386.60999"
       y="331.45001"
       width="61.540001"
       height="0.70999998"
       id="rect374" />
    <polygon
       class="cls-7"
       points="332.67,328.07 373.97,328.07 373.97,338.77 374.68,338.77 374.68,327.36 332.67,327.36 "
       id="polygon376" />
    <rect
       class="cls-7"
       x="354.60999"
       y="357.72"
       width="0.70999998"
       height="19.08"
       id="rect378" />
    <rect
       class="cls-7"
       x="372.60999"
       y="357.72"
       width="0.70999998"
       height="19.08"
       id="rect380" />
    <rect
       class="cls-7"
       x="390.87"
       y="357.72"
       width="0.70999998"
       height="19.08"
       id="rect382" />
    <rect
       class="cls-7"
       x="344.78"
       y="332.95001"
       width="0.70999998"
       height="13.91"
       id="rect384" />
    <path
       class="cls-7"
       d="m 400.48,338.77 v -4.42 a 0.7,0.7 0 0 0 -0.71,-0.7 h -10.85 a 0.7,0.7 0 0 0 -0.71,0.7 v 4.42 a 0.71,0.71 0 0 0 0.71,0.71 h 10.85 a 0.71,0.71 0 0 0 0.71,-0.71 z m -6.49,-0.71 h -4.36 v -3 H 394 Z m 5.07,0 h -4.36 v -3 h 4.36 z"
       id="path386" />
    <path
       class="cls-7"
       d="m 415.53,333.65 h -10.85 a 0.7,0.7 0 0 0 -0.71,0.7 v 4.42 a 0.71,0.71 0 0 0 0.71,0.71 h 10.85 a 0.71,0.71 0 0 0 0.71,-0.71 v -4.42 a 0.7,0.7 0 0 0 -0.71,-0.7 z m -5.78,4.41 h -4.36 v -3 h 4.36 z m 5.07,0 h -4.36 v -3 h 4.36 z"
       id="path388" />
    <path
       class="cls-7"
       d="m 431.28,333.65 h -10.84 a 0.7,0.7 0 0 0 -0.71,0.7 v 4.42 a 0.71,0.71 0 0 0 0.71,0.71 h 10.84 a 0.71,0.71 0 0 0 0.71,-0.71 v -4.42 a 0.7,0.7 0 0 0 -0.71,-0.7 z m -5.77,4.41 h -4.37 v -3 h 4.37 z m 5.07,0 h -4.37 v -3 h 4.37 z"
       id="path390" />
    <path
       class="cls-7"
       d="m 447,333.65 h -10.81 a 0.7,0.7 0 0 0 -0.71,0.7 v 4.42 a 0.71,0.71 0 0 0 0.71,0.71 H 447 a 0.71,0.71 0 0 0 0.71,-0.71 v -4.42 a 0.7,0.7 0 0 0 -0.71,-0.7 z m -5.78,4.41 h -4.32 v -3 h 4.36 z m 5.07,0 H 442 v -3 h 4.36 z"
       id="path392" />
    <rect
       class="cls-7"
       x="386.78"
       y="334.35001"
       width="0.70999998"
       height="4.4099998"
       id="rect394" />
    <rect
       class="cls-7"
       x="402.54001"
       y="334.35001"
       width="0.70999998"
       height="4.4099998"
       id="rect396" />
    <rect
       class="cls-7"
       x="418.29001"
       y="334.35001"
       width="0.70999998"
       height="4.4099998"
       id="rect398" />
    <rect
       class="cls-7"
       x="434.04999"
       y="334.35001"
       width="0.70999998"
       height="4.4099998"
       id="rect400" />
    <rect
       class="cls-7"
       x="404.67999"
       y="340.92999"
       width="11.3"
       height="0.70999998"
       id="rect402" />
    <rect
       class="cls-7"
       x="420.45001"
       y="340.92999"
       width="11.3"
       height="0.70999998"
       id="rect404" />
    <rect
       class="cls-7"
       x="435.97"
       y="340.92999"
       width="11.3"
       height="0.70999998"
       id="rect406" />
    <rect
       class="cls-7"
       x="391.60001"
       y="285.10001"
       width="7.1799998"
       height="0.70999998"
       id="rect408" />
    <rect
       class="cls-7"
       x="378.76999"
       y="295.97"
       width="3.7"
       height="0.70999998"
       id="rect410" />
    <path
       class="cls-7"
       d="m 323.7,381.68 c -0.41,0 -40.58,2.33 -49.46,-30.46 a 0.71,0.71 0 0 0 -1.37,0.37 c 8,29.6 40.54,31.55 48.94,31.55 1.22,0 1.93,0 2,-0.05 a 0.7,0.7 0 0 0 0.66,-0.75 0.74,0.74 0 0 0 -0.77,-0.66 z"
       id="path412" />
    <path
       class="cls-7"
       d="m 289.39,364.19 c 8,5.52 19.52,8.32 34.12,8.33 a 0.71,0.71 0 0 0 0,-1.42 c -14.31,0 -25.52,-2.72 -33.31,-8.08 a 0.71151247,0.71151247 0 0 0 -0.81,1.17 z"
       id="path414" />
    <path
       class="cls-7"
       d="m 283,357.75 a 0.68,0.68 0 0 0 0.41,-0.14 0.69,0.69 0 0 0 0.17,-1 16.11,16.11 0 0 1 -2.66,-5.37 0.71,0.71 0 1 0 -1.39,0.29 17.25,17.25 0 0 0 2.9,5.9 0.7,0.7 0 0 0 0.57,0.32 z"
       id="path416" />
    <path
       class="cls-7"
       d="m 270.47,350.72 a 0.7,0.7 0 0 0 -0.87,0.5 c -8.88,32.77 -49.06,30.48 -49.46,30.46 a 0.72,0.72 0 0 0 -0.76,0.66 0.71,0.71 0 0 0 0.66,0.75 c 0.05,0 0.76,0.05 2,0.05 8.4,0 40.92,-1.95 48.93,-31.55 a 0.7,0.7 0 0 0 -0.5,-0.87 z"
       id="path418" />
    <path
       class="cls-7"
       d="m 219.62,371.81 a 0.7,0.7 0 0 0 0.7,0.71 91.82,91.82 0 0 0 13.61,-0.95 0.72,0.72 0 0 0 0.6,-0.81 0.7,0.7 0 0 0 -0.81,-0.59 91.74,91.74 0 0 1 -13.4,0.93 0.7,0.7 0 0 0 -0.7,0.71 z"
       id="path420" />
    <path
       class="cls-7"
       d="m 239.58,369.75 a 0.71,0.71 0 0 0 0.69,0.53 0.55,0.55 0 0 0 0.18,0 c 20.9,-5.34 23.77,-18.17 23.88,-18.71 a 0.71,0.71 0 1 0 -1.38,-0.29 c 0,0.12 -2.86,12.52 -22.86,17.63 a 0.72,0.72 0 0 0 -0.51,0.84 z"
       id="path422" />
    <path
       class="cls-7"
       d="m 129.52,189.81 a 0.25,0.25 0 0 0 0.16,-0.06 c 16.17,-14.31 42.36,-14.88 46.38,-14.88 h 0.53 a 0.24,0.24 0 0 0 0,-0.47 c -0.3,0 -29.62,-0.58 -47.23,15 a 0.23,0.23 0 0 0 0.15,0.41 z"
       id="path424" />
    <path
       class="cls-7"
       d="m 120.36,222.91 v 0 a 0.77,0.77 0 0 0 0.76,-0.79 c -0.27,-9.54 2.76,-17.56 9,-23.83 15.21,-15.29 45.09,-15.88 49.54,-15.88 h 0.57 a 0.77,0.77 0 0 0 0,-1.54 c -1.39,0 -34.37,-0.61 -51.23,16.32 -6.56,6.59 -9.74,15 -9.46,25 a 0.77,0.77 0 0 0 0.82,0.72 z"
       id="path426" />
    <path
       class="cls-7"
       d="m 172.1,196 a 0.77,0.77 0 0 0 -0.77,-0.76 v 0 c -43.58,0.84 -44.08,24.44 -44.08,24.68 a 0.77,0.77 0 0 0 0.77,0.77 0.78,0.78 0 0 0 0.78,-0.77 c 0,-0.23 0.48,-22.33 42.56,-23.13 A 0.77,0.77 0 0 0 172.1,196 Z"
       id="path428" />
    <path
       class="cls-7"
       d="m 124.78,238.21 a 0.8,0.8 0 0 0 0.51,0.19 0.87,0.87 0 0 0 0.31,-0.07 0.75,0.75 0 0 0 0.46,-0.7 c 0.13,-9.41 14,-20.15 14.11,-20.26 a 0.77403165,0.77403165 0 1 0 -0.94,-1.23 c -0.56,0.43 -13.09,10.15 -14.57,19.8 -3.25,-3.3 -12.17,-13.66 -9.83,-25.72 a 0.78,0.78 0 0 0 -0.61,-0.91 0.77,0.77 0 0 0 -0.9,0.61 c -3.02,15.48 10.87,27.77 11.46,28.29 z"
       id="path430" />
    <path
       class="cls-7"
       d="m 383.08,174.88 v 0 c 0.29,0 29.44,-0.58 46.91,14.87 a 0.22,0.22 0 0 0 0.15,0.06 0.25,0.25 0 0 0 0.18,-0.08 0.25,0.25 0 0 0 0,-0.33 c -17.61,-15.57 -46.93,-15 -47.23,-15 a 0.24,0.24 0 0 0 -0.23,0.24 0.23,0.23 0 0 0 0.22,0.24 z"
       id="path432" />
    <path
       class="cls-7"
       d="m 379.41,182.41 v 0 c 0.33,0 33.71,-0.58 50.1,15.88 6.24,6.27 9.28,14.29 9,23.83 a 0.76,0.76 0 0 0 0.75,0.79 v 0 a 0.78,0.78 0 0 0 0.78,-0.75 c 0.28,-10 -2.91,-18.38 -9.47,-25 -16.86,-16.93 -49.82,-16.36 -51.23,-16.32 a 0.77,0.77 0 0 0 0,1.54 z"
       id="path434" />
    <path
       class="cls-7"
       d="m 430.9,220 a 0.78,0.78 0 0 0 0.77,0.77 v 0 a 0.78,0.78 0 0 0 0.77,-0.77 c 0,-0.24 -0.51,-23.84 -44.09,-24.68 a 0.73,0.73 0 0 0 -0.78,0.76 0.77,0.77 0 0 0 0.75,0.79 c 41.98,0.75 42.58,22.85 42.58,23.13 z"
       id="path436" />
    <path
       class="cls-7"
       d="m 435,235.94 c -1.49,-9.65 -14,-19.37 -14.58,-19.8 a 0.77403165,0.77403165 0 0 0 -0.94,1.23 c 0.14,0.11 14,10.85 14.11,20.26 a 0.79,0.79 0 0 0 0.46,0.7 0.88,0.88 0 0 0 0.32,0.07 0.78,0.78 0 0 0 0.5,-0.19 c 0.6,-0.52 14.48,-12.81 11.47,-28.29 a 0.77466122,0.77466122 0 1 0 -1.52,0.3 c 2.37,12.06 -6.55,22.42 -9.82,25.72 z"
       id="path438" />
    <path
       class="cls-7"
       d="m 453.57,392.28 h -36.86 a 0.36,0.36 0 0 0 0,0.71 h 36.86 a 0.36,0.36 0 1 0 0,-0.71 z"
       id="path440" />
    <path
       class="cls-7"
       d="m 127.42,392.28 h -36 a 0.36,0.36 0 0 0 0,0.71 h 36 a 0.36,0.36 0 1 0 0,-0.71 z"
       id="path442" />
  </g>
</svg>
