<?xml version="1.0" encoding="UTF-8" standalone="no"?>
<svg
   xmlns:dc="http://purl.org/dc/elements/1.1/"
   xmlns:cc="http://creativecommons.org/ns#"
   xmlns:rdf="http://www.w3.org/1999/02/22-rdf-syntax-ns#"
   xmlns:svg="http://www.w3.org/2000/svg"
   xmlns="http://www.w3.org/2000/svg"
   xmlns:sodipodi="http://sodipodi.sourceforge.net/DTD/sodipodi-0.dtd"
   xmlns:inkscape="http://www.inkscape.org/namespaces/inkscape"
   inkscape:version="1.0 (4035a4fb49, 2020-05-01)"
   height="160"
   width="140"
   sodipodi:docname="icon-6.svg"
   version="1.1"
   viewBox="0 0 140 160"
   data-name="Слой 1"
   id="Слой_1">
  <metadata
     id="metadata1075">
    <rdf:RDF>
      <cc:Work
         rdf:about="">
        <dc:format>image/svg+xml</dc:format>
        <dc:type
           rdf:resource="http://purl.org/dc/dcmitype/StillImage" />
        <dc:title></dc:title>
      </cc:Work>
    </rdf:RDF>
  </metadata>
  <sodipodi:namedview
     inkscape:current-layer="Слой_1"
     inkscape:window-maximized="1"
     inkscape:window-y="-8"
     inkscape:window-x="-8"
     inkscape:cy="284.17999"
     inkscape:cx="158.45234"
     inkscape:zoom="1.495531"
     showgrid="false"
     id="namedview1073"
     inkscape:window-height="1017"
     inkscape:window-width="1920"
     inkscape:pageshadow="2"
     inkscape:pageopacity="0"
     guidetolerance="10"
     gridtolerance="10"
     objecttolerance="10"
     borderopacity="1"
     bordercolor="#666666"
     pagecolor="#ffffff" />
  <defs
     id="defs1006">
    <style
       id="style1004">.cls-1{fill:#323d66;}</style>
  </defs>
  <path
     style="stroke-width:0.489252"
     id="path1070"
     d="m 69.545163,4.525534 a 0.45011161,0.45011161 0 0 0 0.48925,-0.415864 0.48925175,0.48925175 0 0 0 -0.3914,-0.533285 0.45011161,0.45011161 0 0 0 -0.48925,0.420757 0.48925175,0.48925175 0 0 0 0.3914,0.528392 z m -4.13417,0.812158 a 0.3620463,0.3620463 0 0 0 0.29844,0.406079 0.34736874,0.34736874 0 0 0 0.38162,-0.322907 0.3620463,0.3620463 0 0 0 -0.29845,-0.406079 0.34736874,0.34736874 0 0 0 -0.38161,0.322907 z m 5.82209,-0.978504 a 0.43543406,0.43543406 0 0 0 -0.38651,0.464789 0.42075651,0.42075651 0 0 0 0.43544,0.410972 0.44032658,0.44032658 0 0 0 -0.0489,-0.875761 z m -2.4805,-1.223129 a 0.64581231,0.64581231 0 0 0 -0.0245,-0.875761 0.557747,0.557747 0 0 0 -0.82194,0.02936 0.64581231,0.64581231 0 0 0 0.0245,0.875761 0.557747,0.557747 0 0 0 0.82195,-0.02446 z m -2.5539,0.85619 a 0.71430756,0.71430756 0 0 0 0.59689,0.807266 0.69473749,0.69473749 0 0 0 0.75345,-0.636028 0.71920007,0.71920007 0 0 0 -0.59689,-0.807265 0.68984497,0.68984497 0 0 0 -0.75345,0.636027 z m 0.33269,-1.893404 a 0.43543406,0.43543406 0 0 0 0.38651,-0.464789 0.42075651,0.42075651 0 0 0 -0.43543,-0.410972 0.44032658,0.44032658 0 0 0 0.0489,0.875761 z m 1.38948,3.160566 a 0.41586399,0.41586399 0 0 0 0.43543,0.410972 0.42564902,0.42564902 0 0 0 0.38162,-0.489252 0.42075651,0.42075651 0 0 0 -0.43544,-0.410971 0.43054154,0.43054154 0 0 0 -0.38161,0.489251 z m 2.72513,0.7192 a 0.34736874,0.34736874 0 0 0 0.38162,-0.322906 0.3620463,0.3620463 0 0 0 -0.30334,-0.406079 0.35715378,0.35715378 0 0 0 -0.38162,0.322906 0.36693881,0.36693881 0 0 0 0.30334,0.406079 z m 7.99927,0 a 0.45989665,0.45989665 0 0 0 0.48925,-0.420756 0.48925175,0.48925175 0 0 0 -0.40119,-0.538177 0.48925175,0.48925175 0 0 0 -0.48925,0.425649 0.48925175,0.48925175 0 0 0 0.40119,0.557747 z M 77.099213,5.70463 a 0.34736874,0.34736874 0 0 0 0.38162,-0.322906 0.3620463,0.3620463 0 0 0 -0.29845,-0.406079 0.34736874,0.34736874 0 0 0 -0.38161,0.322906 0.3620463,0.3620463 0 0 0 0.29844,0.430542 z m -1.93254,0 a 0.69473749,0.69473749 0 0 0 0.76323,-0.640919 0.72409259,0.72409259 0 0 0 -0.60667,-0.812158 0.69473749,0.69473749 0 0 0 -0.76324,0.665382 0.72409259,0.72409259 0 0 0 0.60668,0.821943 z m 6.01779,1.179097 a 0.34247623,0.34247623 0 0 0 0.38162,-0.318014 0.35715378,0.35715378 0 0 0 -0.29844,-0.406078 0.34247623,0.34247623 0 0 0 -0.38162,0.318013 0.35715378,0.35715378 0 0 0 0.29844,0.440327 z m -8.76739,-2.11846 a 0.34247623,0.34247623 0 0 0 0.37672,-0.318014 0.35226126,0.35226126 0 0 0 -0.29844,-0.401186 0.34736874,0.34736874 0 0 0 -0.37672,0.318014 0.35715378,0.35715378 0 0 0 0.29844,0.435434 z m 1.21824,-0.62135 a 0.35226126,0.35226126 0 0 0 0.38161,-0.322906 0.3620463,0.3620463 0 0 0 -0.29844,-0.401186 0.35226126,0.35226126 0 0 0 -0.38162,0.318013 0.3620463,0.3620463 0 0 0 0.29845,0.440327 z M 71.619593,3.46875 a 0.54796196,0.54796196 0 0 0 0,-0.743663 0.48925175,0.48925175 0 0 0 -0.69963,0 0.55285448,0.55285448 0 0 0 0,0.748555 0.48925175,0.48925175 0 0 0 0.69963,0.02936 z m 1.7026,2.705562 a 0.45500413,0.45500413 0 0 0 0.48925,-0.420756 0.48925175,0.48925175 0 0 0 -0.3963,-0.538177 0.48925175,0.48925175 0 0 0 -0.48925,0.425649 0.48925175,0.48925175 0 0 0 0.3963,0.567532 z M 11.343773,145.58659 a 0.35715378,0.35715378 0 0 0 -0.34247,0.38162 0.36693881,0.36693881 0 0 0 0.38161,0.34737 0.3620463,0.3620463 0 0 0 0.34248,-0.38162 0.36693881,0.36693881 0 0 0 -0.38162,-0.34737 z m -0.17123,-2.36308 a 0.52839189,0.52839189 0 0 0 -0.73388,0.14677 0.53328441,0.53328441 0 1 0 0.73388,-0.14677 z M 65.582223,3.140951 a 0.64581231,0.64581231 0 0 0 -0.0245,-0.87576 0.557747,0.557747 0 0 0 -0.82194,0.02935 0.64581231,0.64581231 0 0 0 0.0245,0.87576 0.557747,0.557747 0 0 0 0.82194,-0.02935 z m -48.79797,68.989394 17.52989,-7.58341 -0.0783,-0.1957 -17.54946,7.59319 a 30.377641,30.377641 0 0 0 -8.3172797,5.76339 26.532122,26.532122 0 0 0 -8.28792002,19.39393 h 0.20549 a 26.331529,26.331529 0 0 1 8.22432002,-19.24227 30.333609,30.333609 0 0 1 8.2732397,-5.72913 z m 86.392077,-53.24527 a 0.62134972,0.62134972 0 1 0 0.76323,-0.43054 0.62134972,0.62134972 0 0 0 -0.76323,0.43054 z M 37.499173,143.53174 a 0.65070483,0.65070483 0 0 0 -0.9149,0.29844 0.7534477,0.7534477 0 0 0 0.28377,0.9785 0.66048986,0.66048986 0 0 0 0.91979,-0.30333 0.74855518,0.74855518 0 0 0 -0.28866,-0.97361 z M 103.87107,20.206055 a 0.44032658,0.44032658 0 1 0 0.60178,0.15167 0.44032658,0.44032658 0 0 0 -0.60178,-0.15167 z M 38.942473,145.05331 a 0.37183133,0.37183133 0 0 0 -0.14189,-0.48925 0.33269119,0.33269119 0 0 0 -0.45989,0.15167 0.37183133,0.37183133 0 0 0 0.14188,0.48925 0.33269119,0.33269119 0 0 0 0.4599,-0.15167 z m -2.84256,0.55285 a 0.66048986,0.66048986 0 0 0 -0.91979,0.30334 0.74855518,0.74855518 0 0 0 0.28866,0.9785 0.65070483,0.65070483 0 0 0 0.9149,-0.29844 0.7534477,0.7534477 0 0 0 -0.28377,-0.9834 z m -24.20817,-3.2682 a 0.3620463,0.3620463 0 1 0 0.38161,0.34248 0.3620463,0.3620463 0 0 0 -0.38161,-0.34248 z m 26.56147,3.48347 a 0.61156469,0.61156469 0 0 0 -0.48925,0.70453 0.5871021,0.5871021 0 0 0 0.66538,0.5186 0.61156469,0.61156469 0 0 0 0.48926,-0.70452 0.59199462,0.59199462 0 0 0 -0.66539,-0.51861 z M 113.51422,16.047415 a 0.53328441,0.53328441 0 1 0 -0.36694,-0.6556 0.53328441,0.53328441 0 0 0 0.36694,0.6556 z m -0.97851,-0.87576 a 0.3620463,0.3620463 0 0 0 0.21038,-0.489255 0.37183133,0.37183133 0 0 0 -0.48925,-0.210378 0.36391008,0.36391008 0 1 0 0.2593,0.680063 z m 3.26821,-0.4599 a 0.36693881,0.36693881 0 0 0 0.21037,-0.489252 0.36390939,0.36390939 0 1 0 -0.68006,0.259304 0.37183133,0.37183133 0 0 0 0.47947,0.220163 z m -3.87977,2.12335 a 0.48925175,0.48925175 0 0 0 0.27887,-0.61645 0.48925175,0.48925175 0 1 0 -0.27887,0.61645 z m -5.44048,0.91001 a 0.62134972,0.62134972 0 1 0 -0.43054,-0.76812 0.62624224,0.62624224 0 0 0 0.44033,0.76812 z m 2.16249,0.9149 a 0.72898511,0.72898511 0 1 0 -0.94425,-0.42075 0.73387763,0.73387763 0 0 0 0.95404,0.42075 z m 1.13996,-1.7613 a 0.62134972,0.62134972 0 1 0 -0.43054,-0.76813 0.62134972,0.62134972 0 0 0 0.44032,0.76813 z m -3.4688,3.01379 a 0.72898511,0.72898511 0 1 0 -0.93936,-0.42076 0.72898511,0.72898511 0 0 0 0.93936,0.42076 z m 3.53729,-2.36309 a 0.44032658,0.44032658 0 1 0 0.45501,0.75345 0.44032658,0.44032658 0 0 0 -0.45501,-0.75345 z M 49.676653,145.89482 a 0.3620463,0.3620463 0 1 0 0.32291,0.37673 0.35226126,0.35226126 0 0 0 -0.30334,-0.37673 z m 24.63383,10.48956 v 0.20059 h 48.876237 v -0.21038 z m -1.11061,-107.816405 -0.14677,-0.14677 c -2.09889,2.12824 -5.03929,1.85915 -7.13818,1.25737 l -0.0587,0.2006 a 10.489558,10.489558 0 0 0 2.86213,0.42564 6.0862918,6.0862918 0 0 0 4.50111,-1.73684 z m -17.89193,-0.33758 -0.17124,0.11742 c 0.044,0.0587 1.03232,1.41394 3.66939,1.7662 l 0.0538,-0.18592 c -2.549,-0.36205 -3.52261,-1.68792 -3.53239,-1.6977 z M 74.026713,159.9021 H 128.2358 v -0.21038 H 74.026713 Z m 1.95701,-120.248295 a 6.9571599,6.9571599 0 0 1 -5.65575,0.093 l -0.093,0.18592 a 6.6342537,6.6342537 0 0 0 2.78873,0.57242 7.4072715,7.4072715 0 0 0 3.04804,-0.66049 z m -2.8817,-0.48925 c 1.49711,0 2.18696,-1.37969 2.44626,-2.06953 0.28866,0.0685 0.592,0.15167 0.91001,0.25441 l 0.36694,0.11253 0.0783,-0.37673 a 3.2584167,3.2584167 0 0 0 -0.54796,-2.34841 0.34736874,0.34736874 0 1 0 -0.57243,0.39141 2.6077118,2.6077118 0 0 1 0.46479,1.4335 10.734183,10.734183 0 0 0 -5.15671,-0.18591 4.0901446,4.0901446 0 0 1 -2.11846,0 0.34736874,0.34736874 0 0 0 -0.44522,0.20059 0.35226126,0.35226126 0 0 0 0.20059,0.45011 3.4590099,3.4590099 0 0 0 1.65857,0.13699 2.6908846,2.6908846 0 0 0 2.70556,2.00104 z m -13.17555,-2.77405 c -0.61645,0.23484 -1.27694,0.12231 -2.11356,0 a 10.763539,10.763539 0 0 0 -5.17139,0.1908 2.6615295,2.6615295 0 0 1 0.48925,-1.4335 0.34736874,0.34736874 0 1 0 -0.57243,-0.39141 3.2584167,3.2584167 0 0 0 -0.54796,2.34841 l 0.0783,0.37673 0.36205,-0.11253 c 0.3229,-0.10274 0.62624,-0.18592 0.9149,-0.25441 0.24952,0.68984 0.93936,2.06953 2.44626,2.06953 a 2.6957771,2.6957771 0 0 0 2.73002,-1.98636 3.4247623,3.4247623 0 0 0 1.65367,-0.13699 0.34758402,0.34758402 0 1 0 -0.24462,-0.6507 z m -6.77124,3.36115 -0.0978,0.18592 a 6.6636088,6.6636088 0 0 0 2.78873,0.57242 7.4072715,7.4072715 0 0 0 3.04804,-0.66048 l -0.0832,-0.19081 a 6.9522674,6.9522674 0 0 1 -5.66554,0.0978 z m 4.67725,-6.60489 c 0.69963,0.10274 1.38458,0.20548 2.05485,0.28865 h 0.0391 a 0.34806574,0.34806574 0 0 0 0.044,-0.69473 c -0.66049,-0.0783 -1.34055,-0.18103 -2.03529,-0.28377 -2.53433,-0.38162 -5.16161,-0.77302 -7.79378,-0.30823 a 0.34789377,0.34789377 0 1 0 0.12231,0.68495 c 2.50986,-0.44032 5.07843,-0.0294 7.55894,0.31802 z M 40.219413,143.45346 a 0.55285448,0.55285448 0 0 0 -0.81705,-0.0734 0.64091979,0.64091979 0 0 0 -0.0636,0.87087 0.55285448,0.55285448 0 0 0 0.81705,0.0734 0.64091979,0.64091979 0 0 0 0.0636,-0.86597 z m 1.95701,2.39733 a 0.41586399,0.41586399 0 0 0 -0.455,0.38162 0.44032658,0.44032658 0 0 0 0.36204,0.48925 0.41586399,0.41586399 0 0 0 0.45501,-0.38651 0.43054154,0.43054154 0 0 0 -0.36694,-0.47947 z m -0.89533,-1.42862 a 0.3627178,0.3627178 0 0 0 0.044,0.7241 0.3620463,0.3620463 0 0 0 0.31802,-0.38651 0.34736874,0.34736874 0 0 0 -0.36694,-0.33269 z m 1.24759,0.0587 a 0.56263951,0.56263951 0 0 0 -0.0538,0.74856 0.48925175,0.48925175 0 0 0 0.69963,0.0587 0.54306944,0.54306944 0 0 0 0.0538,-0.74366 0.48925175,0.48925175 0 0 0 -0.70452,-0.0587 z m -2.30927,1.25249 a 0.64091979,0.64091979 0 0 0 -0.0636,0.87087 0.55285448,0.55285448 0 0 0 0.81705,0.0734 0.64581231,0.64581231 0 0 0 0.0685,-0.87086 0.557747,0.557747 0 0 0 -0.82684,-0.0685 z m 4.71639,-1.64389 a 0.42564902,0.42564902 0 0 0 -0.455,0.38651 0.44032658,0.44032658 0 0 0 0.36204,0.48925 0.41586399,0.41586399 0 0 0 0.45501,-0.38651 0.43543406,0.43543406 0 0 0 -0.36694,-0.48435 z m 1.6977,0.89044 a 0.3620463,0.3620463 0 0 0 -0.31801,0.38651 0.34247623,0.34247623 0 1 0 0.68006,-0.044 0.35226126,0.35226126 0 0 0 -0.36694,-0.33759 z m -0.8464,0.90512 a 0.34736874,0.34736874 0 0 0 -0.31802,0.38161 0.35226126,0.35226126 0 0 0 0.36205,0.34248 0.3620463,0.3620463 0 0 0 0.31801,-0.38651 0.34736874,0.34736874 0 0 0 -0.36693,-0.33269 z m -1.88851,0 a 0.55285448,0.55285448 0 0 0 -0.0538,0.74366 0.48925175,0.48925175 0 0 0 0.69963,0.0636 0.54796196,0.54796196 0 0 0 0.0538,-0.74366 0.48925175,0.48925175 0 0 0 -0.70453,-0.044 z m 3.84552,0.16145 a 0.3620463,0.3620463 0 1 0 0.3229,0.37672 0.35226126,0.35226126 0 0 0 -0.3278,-0.35715 z M 118.81281,36.943345 a 0.52839189,0.52839189 0 1 0 -0.73877,0.12721 0.52839189,0.52839189 0 0 0 0.73388,-0.12721 z m 10.13241,58.05461 a 0.55285448,0.55285448 0 0 0 -0.65071,-0.48925 0.64581231,0.64581231 0 0 0 -0.53817,0.68985 0.557747,0.557747 0 0 0 0.6507,0.48925 0.65070483,0.65070483 0 0 0 0.53329,-0.68985 z m -0.54796,-1.27694 a 0.41586399,0.41586399 0 0 0 -0.0734,-0.592 0.43054154,0.43054154 0 0 0 -0.592,0.11253 0.42075651,0.42075651 0 0 0 0.0734,0.59199 0.43054154,0.43054154 0 0 0 0.5871,-0.11252 z m 0.92468,3.004 a 0.69473749,0.69473749 0 0 0 -0.9785,0 0.71920007,0.71920007 0 0 0 -0.0489,1.00297 0.68495245,0.68495245 0 0 0 0.97851,0 0.71920007,0.71920007 0 0 0 0.0391,-1.00297 z m -2.27502,-1.61942 a 0.69473749,0.69473749 0 0 0 -0.9785,0 0.71920007,0.71920007 0 0 0 -0.0538,1.00296 0.69473749,0.69473749 0 0 0 0.9785,0 0.71920007,0.71920007 0 0 0 0.0489,-1.00296 z m -0.2593,-2.0255 a 0.54796196,0.54796196 0 0 0 -0.64581,-0.48926 0.65070483,0.65070483 0 0 0 -0.54307,0.68985 0.56263951,0.56263951 0 0 0 0.6507,0.48925 0.64581231,0.64581231 0 0 0 0.53329,-0.68984 z m 2.06464,5.72913 a 0.43054154,0.43054154 0 0 0 0.0734,0.59689 0.44032658,0.44032658 0 0 0 0.59689,-0.11253 0.43054154,0.43054154 0 0 0 -0.0734,-0.59688 0.43543406,0.43543406 0 0 0 -0.60178,0.11252 z m -1.98636,-1.54114 a 0.3620463,0.3620463 0 0 0 -0.0245,0.48925 0.34736874,0.34736874 0 0 0 0.48925,0 0.3620463,0.3620463 0 0 0 0,-0.48925 0.35226126,0.35226126 0 0 0 -0.46479,0 z m 0,-5.70957 a 0.36693881,0.36693881 0 0 0 -0.0245,0.48925 0.35226126,0.35226126 0 0 0 0.48925,0 0.36693881,0.36693881 0 0 0 0,-0.48925 0.35226126,0.35226126 0 0 0 -0.46479,0 z m 3.44922,3.22417 a 0.44032658,0.44032658 0 0 0 -0.5186,0.70452 0.43543406,0.43543406 0 0 0 0.59688,-0.11252 0.42075651,0.42075651 0 0 0 -0.0783,-0.592 z m 1.79556,6.081395 a 0.43054154,0.43054154 0 0 0 -0.52839,-0.28866 0.42564902,0.42564902 0 0 0 -0.31802,0.48925 0.43054154,0.43054154 0 0 0 0.52839,0.28866 0.42564902,0.42564902 0 0 0 0.31802,-0.48925 z m 0,1.33566 a 0.48925175,0.48925175 0 0 0 -0.38651,0.54307 0.45500413,0.45500413 0 0 0 0.55285,0.34737 0.48925175,0.48925175 0 0 0 0.3914,-0.54307 0.48925175,0.48925175 0 0 0 -0.55285,-0.34737 z m -0.84152,-3.581315 a 0.45500413,0.45500413 0 0 0 -0.6507,0 0.48925175,0.48925175 0 0 0 -0.0342,0.66049 0.45989665,0.45989665 0 0 0 0.65071,0 0.48925175,0.48925175 0 0 0 0.0342,-0.66049 z m 0.12721,-1.59986 a 0.557747,0.557747 0 0 0 -0.65071,-0.48925 0.65070483,0.65070483 0 0 0 -0.53817,0.68985 0.55285448,0.55285448 0 0 0 0.6507,0.48925 0.64581231,0.64581231 0 0 0 0.5235,-0.68985 z m 2.20163,7.867165 a 0.72898511,0.72898511 0 0 0 0.592,-0.82684 0.70452252,0.70452252 0 0 0 -0.84641,-0.52839 0.72898511,0.72898511 0 0 0 -0.59199,0.82684 0.70452252,0.70452252 0 0 0 0.83172,0.52839 z m -2.81809,-4.65768 a 0.35226126,0.35226126 0 0 0 -0.33758,0.37183 0.35226126,0.35226126 0 0 0 0.38651,0.31313 0.3620463,0.3620463 0 0 0 0.34247,-0.37673 0.34736874,0.34736874 0 0 0 -0.3914,-0.30823 z m -60.667207,47.89286 a 0.56263951,0.56263951 0 0 0 -0.10275,0.74366 0.48925175,0.48925175 0 0 0 0.69474,0.093 0.54796196,0.54796196 0 0 0 0.10274,-0.73877 0.48925175,0.48925175 0 0 0 -0.69473,-0.0979 z m 1.22802,-1.88851 a 0.34736874,0.34736874 0 0 0 -0.42565,0.25441 0.35715378,0.35715378 0 0 0 0.22995,0.44522 0.34736874,0.34736874 0 0 0 0.42565,-0.24952 0.3620463,0.3620463 0 0 0 -0.24463,-0.45011 z m -4.48644,-0.23974 a 0.41097147,0.41097147 0 1 0 0.59199,-0.11253 0.43054154,0.43054154 0 0 0 -0.60667,0.11253 z M 124.54195,90.761035 a 0.55285448,0.55285448 0 0 0 -0.12231,0.75345 0.48925175,0.48925175 0 0 0 0.69474,0.093 0.54796196,0.54796196 0 0 0 0.10274,-0.73877 0.48925175,0.48925175 0 0 0 -0.67517,-0.10764 z M 68.987423,145.94863 a 0.65070483,0.65070483 0 0 0 -0.53818,0.68984 0.54796196,0.54796196 0 0 0 0.64581,0.48926 0.64581231,0.64581231 0 0 0 0.54307,-0.68985 0.557747,0.557747 0 0 0 -0.6507,-0.48925 z m -1.09593,1.70749 a 0.3620463,0.3620463 0 0 0 0,0.48925 0.34736874,0.34736874 0 0 0 0.48925,0 0.35715378,0.35715378 0 0 0 0.0245,-0.48925 0.35226126,0.35226126 0 0 0 -0.51372,0 z m 6.36027,0.31312 a 0.35226126,0.35226126 0 0 0 -0.43054,0.25441 0.3620463,0.3620463 0 0 0 0.22995,0.45011 0.35226126,0.35226126 0 0 0 0.43054,-0.25441 0.36693881,0.36693881 0 0 0 -0.23484,-0.45011 z M 122.84425,91.372605 a 0.44032658,0.44032658 0 0 0 -0.4599,0.39629 0.42564902,0.42564902 0 0 0 0.36205,0.48925 0.44032658,0.44032658 0 0 0 0.4599,-0.39629 0.42564902,0.42564902 0 0 0 -0.36694,-0.48925 z m 1.49222,1.85915 a 0.35715378,0.35715378 0 0 0 -0.22995,-0.44522 0.34736874,0.34736874 0 0 0 -0.42565,0.24952 0.35715378,0.35715378 0 0 0 0.22995,0.44522 0.34736874,0.34736874 0 0 0 0.42075,-0.24952 z m -0.0294,0.94426 a 0.42075651,0.42075651 0 0 0 0.0734,0.59689 0.43054154,0.43054154 0 0 0 0.59199,-0.11253 0.41294703,0.41294703 0 1 0 -0.66538,-0.48925 z m -3.11653,-3.13121 a 0.34247623,0.34247623 0 0 0 -0.42565,0.24952 0.3620463,0.3620463 0 0 0 0.22505,0.455 0.34736874,0.34736874 0 0 0 0.43055,-0.25441 0.35226126,0.35226126 0 0 0 -0.23484,-0.46968 z M 97.593933,130.16537 c -4.07058,0 -6.48748,3.11653 -6.48748,5.97865 0,3.37584 2.4169,6.49238 6.48748,6.49238 3.561747,0 5.978647,-3.11654 5.978647,-6.49238 a 6.0911843,6.0911843 0 0 0 -5.978647,-5.97865 z M 102.42773,97.718195 H 92.246403 V 125.07715 H 102.42773 Z M 72.490423,147.4702 a 0.42564902,0.42564902 0 0 0 -0.45501,0.3963 0.41097147,0.41097147 0 0 0 0.35716,0.48925 0.43054154,0.43054154 0 0 0 0.45989,-0.3914 0.42564902,0.42564902 0 0 0 -0.36204,-0.49415 z M 112.97111,38.743795 a 0.72898511,0.72898511 0 0 0 -0.45011,-1.38459 0.72898511,0.72898511 0 1 0 0.45011,1.38459 z m 1.05678,-2.14782 a 0.44032658,0.44032658 0 0 0 0.12232,0.87087 0.44521909,0.44521909 0 0 0 0.37672,-0.48925 0.44032658,0.44032658 0 0 0 -0.49904,-0.38162 z m -2.60771,2.83277 a 0.62134972,0.62134972 0 1 0 0.86598,-0.14678 0.62134972,0.62134972 0 0 0 -0.86598,0.14678 z m 4.79956,-2.71535 a 0.48925175,0.48925175 0 1 0 0.60178,0.30823 0.48925175,0.48925175 0 0 0 -0.60178,-0.30334 z m -6.30156,1.13996 a 0.72898511,0.72898511 0 1 0 0.45011,1.38458 0.72898511,0.72898511 0 0 0 -0.45011,-1.38458 z m 5.61172,0.87576 a 0.62134972,0.62134972 0 1 0 -0.86598,0.14677 0.62624224,0.62624224 0 0 0 0.86598,-0.14677 z m -11.84479,2.04996 a 0.44032658,0.44032658 0 1 0 0.37672,-0.48925 0.44032658,0.44032658 0 0 0 -0.37672,0.48925 z m -1.70749,-0.72898 a 0.3620463,0.3620463 0 0 0 -0.22995,0.45989 0.36281556,0.36281556 0 1 0 0.68985,-0.22505 0.36693881,0.36693881 0 0 0 -0.4599,-0.23484 z m 15.76369,-2.44626 a 0.3620463,0.3620463 0 1 0 0.45501,0.23484 0.3620463,0.3620463 0 0 0 -0.45501,-0.22016 z m 16.023,68.837715 a 0.3620463,0.3620463 0 0 0 0.29844,-0.41097 0.35226126,0.35226126 0 0 0 -0.42565,-0.2642 0.3620463,0.3620463 0 0 0 -0.29355,0.41097 0.34736874,0.34736874 0 0 0 0.42076,0.27888 z M 108.2009,38.675295 a 0.44032658,0.44032658 0 0 0 -0.48925,-0.37672 0.44032658,0.44032658 0 0 0 0.12232,0.87087 0.44032658,0.44032658 0 0 0 0.36693,-0.49415 z m -2.4854,0.84641 a 0.52839189,0.52839189 0 1 0 0.73878,-0.12721 0.52839189,0.52839189 0 0 0 -0.73878,0.12721 z m 3.26821,0.9785 a 0.62134972,0.62134972 0 1 0 -0.86598,0.14678 0.62624224,0.62624224 0 0 0 0.86598,-0.16146 z m -8.992447,0.21038 a 0.36693881,0.36693881 0 1 0 0.454997,0.23484 0.36693881,0.36693881 0 0 0 -0.454997,-0.24952 z M 134.20463,102.6841 a 0.3620463,0.3620463 0 0 0 0.29356,-0.41097 0.35226126,0.35226126 0 0 0 -0.42076,-0.25931 0.35715378,0.35715378 0 0 0 -0.29355,0.40609 0.35226126,0.35226126 0 0 0 0.42075,0.26419 z m -1.09592,-1.639 a 0.35715378,0.35715378 0 0 0 -0.29355,0.40608 0.35226126,0.35226126 0 0 0 0.42076,0.2642 0.36693881,0.36693881 0 0 0 0.29355,-0.41097 0.35226126,0.35226126 0 0 0 -0.44522,-0.25931 z m -0.86108,-1.658555 a 0.48925175,0.48925175 0 0 0 0.55285,0.43054 0.55285448,0.55285448 0 0 0 0.4599,-0.5871 0.48925175,0.48925175 0 0 0 -0.55286,-0.43054 0.55285448,0.55285448 0 0 0 -0.45989,0.5871 z m 1.67813,7.828025 a 0.48925175,0.48925175 0 0 0 -0.3914,0.54307 0.48925175,0.48925175 0 0 0 0.55775,0.34738 0.48925175,0.48925175 0 0 0 0.38651,-0.54307 0.45500413,0.45500413 0 0 0 -0.53329,-0.35716 z m -2.00593,-9.158785 a 0.34247623,0.34247623 0 0 0 0.48925,0 0.35715378,0.35715378 0 0 0 0.0294,-0.48926 0.34736874,0.34736874 0 0 0 -0.48926,0 0.35715378,0.35715378 0 0 0 -0.01,0.47947 z m 1.81512,11.991555 a 0.3620463,0.3620463 0 0 0 -0.29355,0.41097 0.34736874,0.34736874 0 0 0 0.42076,0.26419 0.3620463,0.3620463 0 0 0 0.29844,-0.41097 0.35226126,0.35226126 0 0 0 -0.40608,-0.27398 z m -32.0998,-89.435215 a 0.52839189,0.52839189 0 1 0 0.65559,-0.36694 0.53328441,0.53328441 0 0 0 -0.65559,0.36694 z m -3.145887,1.91786 a 0.36390925,0.36390925 0 1 0 0.2593,0.68006 0.36390925,0.36390925 0 0 0 -0.2593,-0.68006 z M 122.6534,87.551545 H 93.410823 l -16.42418,-17.61306 v 17.61306 h -4.30541 c -7.97481,0 -14.46718,7.15775 -14.46718,15.954495 v 32.02153 c 0,8.80653 6.49237,15.95939 14.46718,15.95939 h 49.991737 c 7.9797,0 14.47207,-7.15775 14.47207,-15.95939 v -32.03131 c -0.005,-8.796745 -6.49237,-15.954495 -14.47207,-15.954495 z m 13.77733,47.976025 c 0,8.41513 -6.17925,15.26465 -13.77733,15.26465 H 72.681233 c -7.59319,0 -13.77244,-6.84952 -13.77244,-15.26465 v -32.03131 c 0,-8.415125 6.17925,-15.264655 13.77244,-15.264655 h 4.99526 v -16.55139 l 15.431,16.55139 h 29.565477 c 7.59808,0 13.77733,6.84953 13.77733,15.264655 z M 99.785813,20.954605 a 0.44032658,0.44032658 0 1 0 0.601777,0.15167 0.44032658,0.44032658 0 0 0 -0.601777,-0.15167 z m -3.25352,2.31416 a 0.36693881,0.36693881 0 0 0 -0.20549,0.48926 0.35715378,0.35715378 0 0 0 0.48926,0.20548 0.36693881,0.36693881 0 0 0 0.21037,-0.48925 0.37183133,0.37183133 0 0 0 -0.49414,-0.20549 z m 24.017367,12.65205 a 0.37183133,0.37183133 0 0 0 -0.23484,0.4599 0.36693881,0.36693881 0 1 0 0.69473,-0.22506 0.37183133,0.37183133 0 0 0 -0.44032,-0.23484 z m 3.87976,49.28233 h -0.3914 a 27.950953,27.950953 0 0 0 -5.53833,-7.50023 30.543987,30.543987 0 0 0 -8.26835,-5.75849 l -17.529887,-7.58829 -0.0832,0.1957 17.529887,7.5834 a 30.221081,30.221081 0 0 1 8.2341,5.72424 27.574229,27.574229 0 0 1 5.44048,7.33878 h -6.3407 a 29.531236,29.531236 0 0 0 -4.52069,-5.4258 21.336269,21.336269 0 0 0 -4.28095,-2.98444 v 0 L 81.482883,64.209355 a 55.804055,55.804055 0 0 1 -1.51179,-9.91224 0.53328441,0.53328441 0 0 0 0,-0.0832 c 2.06953,-3.91402 2.77895,-8.15583 2.38265,-10.18622 1.84938,-0.6556 3.06272,-2.93552 3.56176,-5.46005 19.501567,-1.08125 28.890307,-3.91402 33.332717,-6.13033 4.89252,-2.44626 5.05886,-4.59407 5.06375,-4.68214 h -0.21037 c 0,0.0245 -0.19081,2.16739 -5.00994,4.54026 -4.42773,2.18206 -13.77244,4.99526 -33.137017,6.0765 a 13.547381,13.547381 0 0 0 0.22505,-2.4169 c 0,-1.41883 -0.3914,-2.37776 -1.16931,-2.85234 a 2.1184601,2.1184601 0 0 0 -0.4599,-0.20059 c 0.10764,-1.26716 0.16146,-2.51965 0.16146,-3.7281 a 51.748158,51.748158 0 0 0 -0.28377,-5.53344 c 19.022107,-3.25841 19.535817,-8.605934 19.570067,-8.835882 h -0.21038 c 0,0.05382 -0.56753,5.416012 -19.359687,8.640182 -0.0636,-0.53328 -0.13699,-1.05189 -0.21527,-1.56071 1.18399,-0.6556 1.46776,-1.21824 1.502,-1.36501 a 0.48925175,0.48925175 0 0 0 0,-0.11253 v -2.90615 c 1.46776,-0.22506 7.63233,-1.40416 7.63233,-5.230106 0,-2.676207 -9.01691,-6.526618 -11.77629,-7.647005 -5.69975,-2.299453 -13.27337,-4.623399 -17.35373,-4.623399 -4.08036,0 -11.65887,2.323946 -17.35376,4.623429 -2.76427,1.120387 -11.77629,4.970798 -11.77629,7.647005 0,3.825946 6.15968,5.005046 7.63233,5.230106 v 2.90615 a 0.32290616,0.32290616 0 0 0 0,0.11253 c 0.0489,0.14677 0.31801,0.70941 1.502,1.36501 -0.1957,1.26227 -0.33269,2.61261 -0.42075,4.02654 -10.34279,0.1957 -18.34205,1.19867 -23.76785,2.99422 -4.40327,1.46776 -7.14308,3.42477 -8.14605,5.87102 -1.68791,4.13907 2.25545,8.19986 2.29459,8.2439 l 0.15167,-0.14678 c -0.0391,-0.0391 -3.88955,-4.00697 -2.25056,-8.01884 1.53136,-3.75745 8.28793,-8.31728 31.70841,-8.74782 -0.0538,0.97851 -0.093,2.00594 -0.093,3.06272 0,1.16442 0.0587,2.37776 0.15656,3.61068 a 1.8493716,1.8493716 0 0 0 -0.48925,0.21527 c -0.77791,0.48925 -1.16931,1.43351 -1.16931,2.85234 a 12.749901,12.749901 0 0 0 1.07635,5.18606 c -6.52172,1.60475 -10.30364,4.05101 -11.25279,7.28986 -1.13017,3.91401 2.44626,7.62254 2.49519,7.65679 l 0.15167,-0.14678 c -0.0391,-0.0343 -3.54219,-3.64493 -2.44626,-7.4562 0.91001,-3.16546 4.65767,-5.56768 11.12558,-7.15286 0.65071,1.32587 1.56561,2.34841 2.72513,2.73003 -0.43054,2.00104 0.27399,6.29667 2.37777,10.27428 0,0 0,0.0391 0,0.0636 a 55.363728,55.363728 0 0 1 -1.51179,9.91224 l -27.0018,12.49059 -0.19571,0.0881 v 0 a 21.478152,21.478152 0 0 0 -4.28095,2.98444 30.446136,30.446136 0 0 0 -6.3602697,8.60593 v 0 0 c -2.97954,5.91995 -4.32499,12.745015 -4.75064,19.403725 l -0.093,0.24462 0.0783,0.0294 a 84.929211,84.929211 0 0 0 -0.0489,8.70379 l -0.0783,0.3229 h 0.093 c 0.0685,1.46776 0.16635,2.87191 0.28866,4.24181 0.12231,1.3699 0.2593,2.60283 0.42075,3.86998 v 0.0832 0 c 0.31802,2.52454 0.70453,4.94634 1.1155,7.19689 l -0.0587,0.35716 h 0.1272 c 0.67028,3.56175 1.39926,6.68807 2.03529,9.14901 v 0.17123 h 0.0538 c 0.89044,3.42477 1.57539,5.51876 1.59496,5.56769 a 0.34736874,0.34736874 0 0 0 0.3277997,0.23973 0.2788735,0.2788735 0 0 0 0.10763,0 0.34247623,0.34247623 0 0 0 0.22017,-0.43543 c 0,-0.0489 -0.6702797,-2.03529 -1.5313597,-5.32794 l 20.4702897,0.74366 c -0.0734,1.16931 -0.16634,2.37776 -0.28866,3.62535 h 0.20549 c 0.12231,-1.25737 0.21527,-2.44625 0.28866,-3.64003 l 2.27013,0.0832 q -0.25931,2.20164 -0.65071,4.54026 h 0.0881 c 0,0 0,0.0294 0,0.044 l 3.10675,0.35716 c 0,0 0.455,-1.8983 0.86597,-4.94145 h 5.87102 a 0.48925175,0.48925175 0 0 0 -0.14677,0.28866 0.43054154,0.43054154 0 0 0 0.36204,0.48925 0.41586399,0.41586399 0 0 0 0.45501,-0.38161 0.44521909,0.44521909 0 0 0 -0.15656,-0.3914 h 9.29089 c 1.42861,9.61378 9.34471,16.99171 18.86554,16.99171 v -0.20549 c -9.40341,0 -17.22655,-7.28495 -18.65516,-16.78622 h 2.44625 c 1.76131,7.92097 8.24879,13.99749 15.72456,13.99749 v -0.21038 c -7.36814,0 -13.75776,-5.97866 -15.51418,-13.78711 h 2.44626 c 2.16249,6.52171 7.86717,11.19407 14.54056,11.19407 h 53.563277 c 8.52766,0 15.47014,-7.62255 15.47014,-16.99171 v -35.01095 c 0,-9.369165 -6.94248,-16.996605 -15.47014,-16.996605 z m -15.65605,-4.82891 a 3.7183133,3.7183133 0 0 0 2.6175,-0.97851 13.278293,13.278293 0 0 1 1.07146,0.90512 28.268966,28.268966 0 0 1 4.15374,4.89252 h -2.73002 a 21.120998,21.120998 0 0 0 -2.67621,-2.97465 l -0.1321,0.15656 a 21.394979,21.394979 0 0 1 2.57836,2.82787 h -4.82891 c 0,-1.82491 -0.0245,-3.48347 -0.0489,-4.82891 z m -0.68006,4.82891 h -4.46198 a 28.342354,28.342354 0 0 0 4.43262,-3.91401 c 0.044,1.14485 0.0538,2.4805 0.0538,3.91401 z m -8.855457,-10.27428 c 0.33759,-0.48926 0.63603,-0.90512 0.895327,-1.3112 l 7.6519,3.51283 c -0.92469,1.42372 -3.58622,4.85338 -9.471907,8.07265 h -3.34649 l -3.18502,-3.35626 a 28.273859,28.273859 0 0 0 7.33877,-6.75657 l 7.309417,3.32202 0.0881,-0.19081 z m -9.00712,-5.87103 7.33877,3.39052 c -0.26909,0.40608 -0.5871,0.84151 -0.94915,1.3063 l -7.27517,-3.30734 c 0.33759,-0.50393 0.64092,-0.94915 0.91001,-1.4384 z m 6.30156,4.8436 a 25.08883,25.08883 0 0 1 -3.96294,3.94337 29.120264,29.120264 0 0 1 -2.7447,1.92765 l -4.47176,-4.70171 a 25.338348,25.338348 0 0 0 1.84937,-1.84937 26.669113,26.669113 0 0 0 2.06953,-2.6175 z m -8.80653,-6.04226 c -0.27888,0.45011 -0.58221,0.9149 -0.92469,1.39437 l -1.63899,-0.73388 -0.0881,0.19081 1.58029,0.7192 a 24.017368,24.017368 0 0 1 -3.25353,3.61557 l -2.71534,-2.85723 a 24.281564,24.281564 0 0 0 3.91401,-3.77213 z m -8.80653,-0.64092 c 0.37672,-0.31312 0.70941,-0.61157 0.9785,-0.88555 l 1.51668,2.33373 c -0.34737,0.30823 -0.72409,0.62625 -1.13506,0.94915 z m 0.9785,2.14292 -1.59007,-1.67324 0.42565,-0.33758 z m 1.37969,-4.47176 2.64685,1.22313 c -0.22016,0.27398 -0.60178,0.70941 -1.13506,1.25738 l -1.66835,-2.29459 z m 1.36501,2.63217 c -0.30823,0.30823 -0.66538,0.64582 -1.06657,1.00786 l -1.52157,-2.34351 c 0.3914,-0.37183 0.69963,-0.69963 0.92469,-0.97851 z m 1.98147,-33.83665 c 0.55286,0.34248 0.83173,1.10082 0.83173,2.26035 0,3.62046 -1.39926,6.69296 -3.31223,7.42195 -0.72899,-2.27013 -0.0979,-7.38771 0.16145,-9.20283 0,-0.12231 0.0343,-0.25441 0.0538,-0.38162 0.47457,-0.1908 1.53135,-0.55774 2.27012,-0.10763 z m -20.25991,16.70306 h -0.044 -0.0685 -0.1321 -0.0636 a 0.18591567,0.18591567 0 0 0 -0.0489,0 7.4170565,7.4170565 0 0 1 -4.99036,1.12528 l -0.11253,-0.0245 h -0.044 c -2.88169,-0.48925 -5.02461,-2.6762 -5.92483,-3.75745 a 5.3817693,5.3817693 0 0 0 2.81809,-0.88554 6.022689,6.022689 0 0 0 0.61645,-0.48926 c 0.1321,-0.10763 0.27398,-0.22505 0.42076,-0.33758 v 0 a 3.914014,3.914014 0 0 1 4.14396,-0.70942 c -0.093,0.75834 -0.3229,1.67814 -0.3229,1.68792 l -0.0979,0.3914 0.40118,0.0391 0.74366,0.0734 c 0.74856,0.0783 1.28184,0.1321 2.29949,0.16146 h 0.0293 c 1.26227,-0.0342 2.25056,-0.11253 3.5324,-0.23485 l 0.36694,-0.0342 -0.0587,-0.36694 c 0,-0.0245 -0.10274,-0.64581 -0.22016,-1.62921 v 0 c 2.13313,-0.88065 3.25841,-0.11742 4.1195,0.64581 v 0 l 0.26419,0.23484 a 5.019723,5.019723 0 0 0 3.49326,1.4384 c -0.82194,0.97851 -2.67621,2.90127 -5.18607,3.596 h -0.0783 a 4.1243923,4.1243923 0 0 0 -0.48925,0.12721 7.3877014,7.3877014 0 0 1 -5.3622,-1.06168 z m 3.56664,1.86405 -0.60667,0.31801 c -1.09592,0.57243 -2.23099,1.16442 -2.89637,1.18888 -0.66538,0.0245 -1.73195,-0.57242 -2.76917,-1.10571 -0.27887,-0.14677 -0.56263,-0.29355 -0.8464,-0.43054 a 8.4983029,8.4983029 0 0 0 3.37584,-1.13995 8.3172798,8.3172798 0 0 0 3.74766,1.15952 z m 4.1831,-6.76146 c -0.9149,-0.79748 -2.26034,-1.68303 -4.61364,-0.7877 -0.33758,-3.10185 -0.68984,-8.51298 0.51372,-11.27725 0.52839,-0.0685 1.07635,-0.14188 1.64877,-0.22506 2.69578,-0.38161 5.7585,-0.81215 8.3711,-0.34736 a 0.34789723,0.34789723 0 0 0 0.12231,-0.68496 c -2.72513,-0.48925 -5.84166,-0.044 -8.59126,0.34737 -0.64092,0.0881 -1.25248,0.17613 -1.83469,0.24463 h -0.0294 -0.0734 l -0.0538,0.0342 a 0.39629392,0.39629392 0 0 0 -0.0489,0.044 l -0.044,0.0538 v 0.0294 c -1.76131,3.68896 -0.67517,11.96221 -0.40119,13.83115 -1.1106,0.10274 -1.98636,0.16634 -3.11164,0.1957 -0.9785,-0.0245 -1.51178,-0.0783 -2.24077,-0.15656 l -0.35715,-0.0343 a 13.699049,13.699049 0 0 0 0.27887,-1.67324 c 0,0 0,0 0,0 a 0.43054154,0.43054154 0 0 0 0,-0.0783 0.24462588,0.24462588 0 0 0 0,-0.0587 0.36693881,0.36693881 0 0 0 -0.0342,-0.0587 0.29844357,0.29844357 0 0 0 -0.0343,-0.0489 0.23484084,0.23484084 0 0 0 -0.0538,-0.044 l -0.0538,-0.0391 v 0 a 4.6381066,4.6381066 0 0 0 -5.04419,0.68985 5.6215026,5.6215026 0 0 1 -4.35434,-0.68985 c -2.56857,-1.57539 -4.37391,-5.24478 -5.24967,-10.64612 -0.044,-0.31312 -0.0783,-0.53817 -0.0978,-0.6507 a 24.521298,24.521298 0 0 1 2.11846,-5.47473 c 2.44626,1.67324 6.97673,3.17035 15.40165,3.17035 8.42491,0 13.01409,-1.51179 15.44078,-3.1997 a 21.448797,21.448797 0 0 1 2.0304,5.66064 v 0.0343 c 0,0.12231 -0.0391,0.27398 -0.0685,0.46478 -0.87576,5.42581 -2.6811,9.10987 -5.23988,10.67548 a 5.4991897,5.4991897 0 0 1 -4.29074,0.68984 z m -26.2141,-22.87741 a 4.7653121,4.7653121 0 0 0 0.13209,1.7613 18.102315,18.102315 0 0 0 -1.26227,4.75553 l 0.21038,0.0293 a 18.180595,18.180595 0 0 1 1.14485,-4.47176 5.4991897,5.4991897 0 0 0 0.59689,1.2427 17.539675,17.539675 0 0 0 -1.31609,4.89252 l 0.20549,0.0294 a 18.014249,18.014249 0 0 1 1.24759,-4.70661 l 0.16634,0.23484 a 7.3387763,7.3387763 0 0 0 1.19867,1.21335 24.261994,24.261994 0 0 0 -2.14292,5.38177 4.3690181,4.3690181 0 0 0 -1.54604,-0.30334 c -0.0979,-1.19866 -0.15166,-2.38265 -0.15166,-3.51283 a 47.658013,47.658013 0 0 1 0.48925,-6.96694 c 0.28866,0.1321 0.64092,0.26909 1.03232,0.41097 z m -0.89533,-1.14485 v -2.41201 c 0.20059,0.0881 0.41586,0.17613 0.65559,0.26419 v 2.44626 c -0.23973,-0.12231 -0.455,-0.21527 -0.6507,-0.30823 z m 0.86108,0.36204 v -2.44626 l 0.6556,0.22017 v 2.44626 c -0.22995,-0.0734 -0.44522,-0.15167 -0.65071,-0.22995 z m 0.86597,0.30334 v -2.44626 c 0.20549,0.0636 0.42565,0.12231 0.65071,0.18592 v 2.44625 z m 0.86109,0.24952 v -2.44626 l 0.65559,0.16145 v 2.44626 l -0.27398,-0.0636 z m 0.86108,0.20548 v -2.44626 c 0.25441,0.0587 0.48925,0.11253 0.7877,0.16635 v 2.44626 z m 0.9785,0.1957 v -2.44625 l 0.78281,0.14188 v 2.44626 z m 0.97851,0.17613 v -2.44625 l 0.7828,0.12231 v 2.44626 z m 0.9785,0.15167 v -2.44626 l 0.7877,0.10275 v 2.44626 c -0.22017,-0.0391 -0.48436,-0.0734 -0.73388,-0.11253 z m 0.9785,0.13699 v -2.44626 l 0.7877,0.093 v 2.44626 z m 0.97851,0.11742 v -2.44626 l 0.78769,0.0832 v 2.44626 z m 0.9785,0.10764 v -2.44626 l 0.7828,0.0734 v 2.44626 z m 0.9785,0.093 v -2.4463 l 0.78281,0.0587 v 2.44626 z m 0.97851,0.0783 v -2.44626 l 0.78769,0.0489 v 2.48051 z m 0.9785,0.0685 v -2.4805 l 0.7877,0.044 v 2.4854 z m 0.97851,0.0587 v -2.4854 l 0.78769,0.0343 v 2.49029 z m 0.9785,0.0489 v -2.49519 h 0.7828 v 2.50008 z m 0.9785,0.0343 v -2.49519 h 0.7828 v 2.50497 z m 0.97851,0.0293 v -2.50497 h 0.78769 v 2.50497 z m 0.9785,0 v -2.50497 h 0.78769 v 2.50986 h -0.78769 z m 0.9785,0 v -2.50986 h 0.7192 v 2.50986 z m 0.92469,0 v -2.50986 h 0.71431 v 2.50986 z m 0.92468,0 v -2.50986 h 0.78281 v 2.50497 h -0.54307 z m 0.97851,0 v -2.50497 h 0.78769 v 2.50497 z m 0.9785,0 v -2.50497 h 0.7877 v 2.49519 z m 0.9785,-0.0293 v -2.50008 h 0.7877 v 2.49518 z m 0.97851,-0.0391 v -2.4903 l 0.7828,-0.0342 v 2.4854 z m 0.9785,-0.0489 v -2.4854 l 0.7828,-0.044 v 2.4805 z m 0.97851,-0.0587 v -2.48051 l 0.78769,-0.0489 v 2.44626 z m 0.9785,-0.0734 v -2.44626 l 0.78769,-0.0587 v 2.44626 z m 0.9785,-0.0832 v -2.44626 l 0.7877,-0.0734 v 2.44626 z m 0.97851,-0.093 v -2.44626 l 0.7828,-0.0832 v 2.44626 z m 0.9785,-0.10763 v -2.44626 l 0.7828,-0.093 v 2.44626 z m 0.9785,-0.12232 v -2.44626 l 0.7877,-0.10274 v 2.44626 z m 0.97851,-0.14188 v -2.44626 l 0.78769,-0.12231 v 2.44626 c 0.17613,0.0538 -0.0587,0.0538 -0.36204,0.10763 z m 0.9785,-0.15656 v -2.44626 l 0.7877,-0.14188 v 2.44626 z m 0.9785,-0.17613 v -2.44626 c 0.26909,-0.0538 0.53329,-0.10764 0.78281,-0.16635 v 2.44626 z m 1.05189,4.79956 a 7.3094212,7.3094212 0 0 0 1.16442,-1.18399 v -0.0294 a 18.156132,18.156132 0 0 1 1.16442,4.50112 l 0.20549,-0.0293 a 18.156132,18.156132 0 0 0 -1.22802,-4.67236 5.8269883,5.8269883 0 0 0 0.66538,-1.23781 18.679632,18.679632 0 0 1 1.06168,4.26139 l 0.21037,-0.0294 a 18.591567,18.591567 0 0 0 -1.16931,-4.53536 4.7848821,4.7848821 0 0 0 0.1957,-1.95701 c 0.38651,-0.14188 0.73388,-0.27887 1.03232,-0.41586 a 46.968168,46.968168 0 0 1 0.48926,6.96694 c 0,1.16931 -0.0538,2.38755 -0.15656,3.61557 a 4.3641256,4.3641256 0 0 0 -1.58029,0.29845 20.984008,20.984008 0 0 0 -1.59496,-5.56769 z m 0.40119,-5.02462 v -2.44626 l 0.6556,-0.16145 v 2.44626 l -0.48925,0.12231 z m 0.86108,-0.22016 v -2.44626 c 0.22995,-0.0636 0.45012,-0.12231 0.6556,-0.18591 v 2.44625 c -0.20548,0.0636 -0.42565,0.12721 -0.6556,0.19081 z m 0.86109,-0.26909 v -2.44626 c 0.22995,-0.0734 0.45011,-0.14677 0.6507,-0.22016 v 2.44626 c -0.1957,0.0783 -0.41097,0.15656 -0.6507,0.22016 z m 0.86108,-0.31312 v -2.44626 c 0.23484,-0.0881 0.455,-0.17613 0.6556,-0.26419 v 2.41201 c -0.19081,0.12231 -0.41097,0.21527 -0.65071,0.31312 z m 1.51668,-0.76813 a 6.0813993,6.0813993 0 0 1 -0.6556,0.37673 v -2.39733 c 0.24463,-0.11743 0.48926,-0.22506 0.6556,-0.33759 z m 0.75834,-0.68495 a 2.2163104,2.2163104 0 0 1 -0.54796,0.53818 v -2.33373 a 6.0520442,6.0520442 0 0 0 0.54796,-0.38651 z m -41.66468,-3.30245 c 0,0 0,0 0,-0.0293 a 0.37672385,0.37672385 0 0 0 -0.093,-0.0832 h -0.044 -0.0783 v 0 c -0.0685,0 -7.33878,-0.94915 -7.33878,-4.589186 0,-3.140996 20.7296,-11.580589 28.43532,-11.580589 7.70571,0 28.41085,8.410238 28.41085,11.565911 0,3.640034 -7.25561,4.579394 -7.33878,4.589184 a 0.32779867,0.32779867 0 0 0 -0.25441,0.18102 v 0.0343 c 0,0.0391 -1.79066,3.6596 -20.82745,3.6596 -19.03678,0 -20.81277,-3.62046 -20.82255,-3.64492 a 0.34736874,0.34736874 0 0 0 -0.044,-0.0881 z m 0.60667,3.84552 a 2.1037825,2.1037825 0 0 1 -0.54796,-0.53817 v -2.15271 a 4.9218726,4.9218726 0 0 0 0.54796,0.38651 z m 0.21038,0.14678 v -2.34841 c 0.19081,0.11253 0.40608,0.22016 0.65071,0.33758 v 2.40223 a 6.4679081,6.4679081 0 0 1 -0.64582,-0.37672 z m 2.11357,22.2952 c -1.95701,-0.67028 -3.4003,-3.77213 -3.4003,-7.44152 0,-1.15953 0.28377,-1.92276 0.83662,-2.26034 0.76323,-0.48925 1.8983,-0.0636 2.30927,0.11253 0,0.15656 0.044,0.31312 0.0685,0.46478 0.25931,1.80534 0.88066,6.82996 0.19081,9.13923 z m 0.57732,0.48925 c 0.41097,-1.1106 0.48925,-2.93551 0.40608,-4.7066 1.0421,3.03336 2.51964,5.14693 4.42772,6.31135 a 6.418983,6.418983 0 0 0 3.58622,0.94915 4.5011161,4.5011161 0 0 1 -3.01379,0.67027 l -0.86108,-0.19081 0.48925,0.72899 c 0.0391,0.0538 2.73981,3.8553 6.8006,4.59896 a 0.31312112,0.31312112 0 0 0 0.0929,0.0391 11.443598,11.443598 0 0 1 2.57347,1.10082 c 1.15953,0.59689 2.25545,1.15953 3.0725,1.18399 h 0.0245 c 0.81705,0 1.95701,-0.63113 3.2046,-1.27205 a 12.143228,12.143228 0 0 1 2.68599,-1.17421 0.32290616,0.32290616 0 0 0 0.1321,-0.0587 c 3.62536,-1.04211 5.99334,-4.36902 6.02758,-4.40326 l 0.48925,-0.71921 -0.85619,0.18103 a 4.5451488,4.5451488 0 0 1 -2.97954,-0.64581 6.3211326,6.3211326 0 0 0 3.55197,-0.93937 c 1.90319,-1.15463 3.38562,-3.27798 4.40326,-6.32602 0,0.28376 0,0.56753 0,0.8513 -0.93447,12.78414 -7.04033,20.05932 -16.91832,20.05932 a 16.380149,16.380149 0 0 1 -4.70171,-0.7192 l -0.0538,0.20059 a 16.497569,16.497569 0 0 0 4.75553,0.72899 c 9.5453,0 15.60713,-6.70765 16.96236,-18.53775 a 7.828028,7.828028 0 0 0 0.38651,2.08421 c 0.59199,1.59985 -0.0978,7.36813 -3.48348,12.23129 -2.27991,3.28288 -6.5364,7.192 -13.87028,7.192 -7.33389,0 -11.59038,-3.91401 -13.87029,-7.192 -3.36605,-4.84848 -4.0559,-10.61676 -3.45901,-12.21661 z m 2.21141,11.56102 c 0.22506,0.37183 0.45501,0.73877 0.70453,1.09592 2.37776,3.42477 6.81038,7.49045 14.44271,7.49045 7.63233,0 12.06495,-4.07058 14.43782,-7.49045 0.25441,-0.36204 0.48925,-0.73877 0.7192,-1.11549 a 56.303091,56.303091 0 0 0 1.46775,9.08541 17.647311,17.647311 0 0 1 -2.97465,2.8083 l -1.28184,-1.35033 v -5.23011 h -0.21038 v 4.98059 l -1.7613,-1.85427 -0.0734,5.53833 a 22.432193,22.432193 0 0 1 -10.30853,2.4218 v 0.34737 0 -0.34737 c -10.27429,0 -15.8273,-6.36027 -16.60521,-7.33878 a 56.063358,56.063358 0 0 0 1.44329,-9.04137 z m 18.43012,16.86451 c 0.46479,-0.0636 0.91979,-0.13699 1.36501,-0.22506 l 0.44522,2.80341 c -0.48925,0.0979 -0.9785,0.19081 -1.51179,0.25931 z m 0.0881,2.86701 c -0.48925,0.0636 -1.00786,0.11253 -1.52646,0.14678 l -0.14678,-2.85234 c 0.48925,-0.0342 0.92958,-0.0783 1.3748,-0.13699 z m 1.46776,-3.13121 c 0.46479,-0.0978 0.91001,-0.20059 1.34544,-0.31801 l 0.5871,2.76427 c -0.48925,0.1321 -0.9785,0.24952 -1.46775,0.35715 z m 1.54603,-0.37183 c 0.45501,-0.1272 0.89533,-0.2593 1.31609,-0.40608 l 0.72899,2.71046 c -0.48926,0.16145 -0.97851,0.31312 -1.46776,0.455 z m 1.51668,-0.48925 c 0.44033,-0.15656 0.86598,-0.32291 1.27695,-0.48925 l 0.86108,2.65174 c -0.455,0.19081 -0.92468,0.38162 -1.41393,0.55775 z m 1.46776,-0.57732 c 0.31801,-0.14188 0.63113,-0.28376 0.92958,-0.42565 l -0.0391,3.06761 h -0.0245 z m -7.73996,4.72128 c -0.48925,0.0294 -1.01275,0.0538 -1.53625,0.0538 v -2.86702 c 0.48925,0 0.93447,0 1.38458,-0.044 z m -1.74174,-2.8132 v 2.86702 c -0.5235,0 -1.03232,-0.0245 -1.53625,-0.0538 l 0.14678,-2.85723 c 0.46479,0.0245 0.92468,0.044 1.39926,0.044 z m -14.44271,-5.04907 c 0.3278,0.26908 0.68495,0.53817 1.07146,0.81705 l -1.25738,2.44626 c -0.42565,-0.29356 -0.82194,-0.58711 -1.19866,-0.88066 z m -1.54114,2.27012 c -0.41098,-0.32779 -0.7877,-0.64092 -1.13018,-0.94914 l 1.51669,-2.33374 c 0.28865,0.27399 0.62624,0.57243 1.00296,0.88066 z m 2.79362,-1.33565 c 0.35227,0.24952 0.72899,0.48925 1.13018,0.74366 l -1.12528,2.52943 c -0.44033,-0.26909 -0.86109,-0.53818 -1.25738,-0.81216 z m 1.3112,0.85619 c 0.37672,0.22505 0.77302,0.44522 1.18888,0.66538 l -0.9785,2.58814 c -0.45501,-0.23484 -0.89533,-0.48925 -1.31609,-0.72898 z m 1.3748,0.75834 c 0.3914,0.20059 0.80726,0.39629 1.2378,0.5871 l -0.8464,2.65174 c -0.48925,-0.20548 -0.92469,-0.42564 -1.36502,-0.6507 z m 1.42861,0.67027 c 0.41097,0.17124 0.83662,0.33759 1.27695,0.48925 l -0.72409,2.71535 c -0.48926,-0.17613 -0.97851,-0.36204 -1.41394,-0.55775 z m 1.46776,0.56753 c 0.42565,0.14678 0.86597,0.27888 1.31608,0.40608 l -0.58221,2.75938 c -0.48925,-0.14188 -0.9785,-0.29355 -1.46775,-0.455 z m 1.51668,0.46479 c 0.43543,0.11742 0.88554,0.22017 1.34544,0.31312 l -0.44522,2.80342 c -0.48925,-0.10764 -0.9785,-0.22506 -1.46776,-0.35716 z m 1.55092,0.35716 c 0.44033,0.0881 0.90023,0.16145 1.36502,0.22016 l -0.29845,2.84255 c -0.5186,-0.0734 -1.01764,-0.16145 -1.51178,-0.2593 z m 1.5705,0.24952 q 0.67517,0.0881 1.37969,0.13209 l -0.15167,2.85723 q -0.77791,-0.0538 -1.52646,-0.14677 z m -12.78904,-6.0178 -1.51668,2.34841 c -0.40118,-0.35716 -0.75345,-0.69474 -1.06167,-1.00786 l 1.65856,-2.28481 c 0.22995,0.23974 0.53818,0.56754 0.92468,0.94426 z m -1.20356,-1.29163 0.15167,0.17614 -1.66835,2.29459 c -0.53328,-0.53818 -0.91001,-0.97851 -1.13017,-1.2476 z m -3.29755,1.52158 c 1.09103,1.36501 8.13625,9.54041 20.37733,9.54041 v 0 a 26.106473,26.106473 0 0 0 10.27429,-2.07443 l -0.0538,4.28095 a 33.127236,33.127236 0 0 1 -10.21068,1.49711 c -12.52974,0 -19.1591,-5.54811 -22.50558,-10.2009 l 1.64877,-0.74855 -0.0881,-0.19081 -1.67813,0.76813 c -0.34248,-0.48926 -0.64582,-0.94915 -0.9198,-1.39926 z m 17.75494,19.45265 c -1.33566,-0.0489 -2.62239,-0.13699 -3.8553,-0.24952 a 18.728557,18.728557 0 0 1 4.99037,-3.21439 c 0.48925,0 0.9785,0.0294 1.46775,0.0294 a 36.600923,36.600923 0 0 0 10.17155,-1.35523 l -0.0489,4.10482 -0.2593,0.0342 h -3.14589 a 14.095343,14.095343 0 0 0 -4.24671,0.66049 c -0.7828,0.0245 -1.57539,0.0391 -2.39244,0.0391 -0.81705,0 -1.57539,0 -2.33862,-0.0391 a 18.797052,18.797052 0 0 1 10.39171,-3.12632 v -0.20548 a 19.017216,19.017216 0 0 0 -10.73908,3.32202 z m -8.14604,39.419015 v -4.45708 l 2.00593,0.0538 v 4.49134 c -0.67027,-0.0147 -1.34055,-0.0489 -2.00593,-0.0881 z m 2.00593,2.88659 v 4.45219 l -2.01082,-0.12721 v -4.45219 z m -2.01082,-10.13241 v -4.49622 l 2.01082,0.0587 v 4.52069 z m 0,-7.27517 v -3.54218 l 2.01082,0.0832 v 3.51772 c -0.67027,-0.0147 -1.34055,-0.0391 -2.00593,-0.0587 z m 0,-6.32113 v -2.79852 c 0,-0.2642 0,-0.51861 0,-0.77791 0.67027,0.044 1.35033,0.0832 2.03529,0.11742 0,0.40608 -0.044,0.81215 -0.044,1.22802 v 2.31416 z m -2.20653,-6.526625 a 20.460508,20.460508 0 0 1 0.83662,-3.61557 c 0.82684,0.093 1.66835,0.17613 2.53433,0.24952 a 18.743235,18.743235 0 0 0 -1.03232,3.53729 c -0.7877,-0.0489 -1.54604,-0.10764 -2.33374,-0.17124 z m -0.20059,27.202405 v -4.40327 l 2.20163,0.10763 v 4.46198 z m 2.20163,2.93551 v 4.44729 l -2.20163,-0.15656 v -4.43751 c 0.72898,0.0489 1.48243,0.093 2.20652,0.14187 z m -2.18695,-10.10795 v -4.47176 l 2.20163,0.0832 v 4.50111 z m 0,-7.25071 v -3.57153 l 2.20163,0.11252 v 3.54219 z m 0,-6.36027 v -3.62535 c 0.72898,0.0587 1.46775,0.11252 2.2212,0.16145 0,0.26419 0,0.52839 0,0.79259 v 2.78873 c -0.75345,-0.0538 -1.5069,-0.0978 -2.2212,-0.13699 z m 2.13803,-12.696085 a 19.902761,19.902761 0 0 1 2.17717,-3.4688 q 1.53136,0.19081 3.17524,0.32291 a 19.007431,19.007431 0 0 0 -2.58814,3.39051 c -0.95404,-0.0881 -1.87873,-0.17123 -2.77406,-0.26419 z m 5.61661,-3.12632 q 1.37969,0.10274 2.83276,0.15167 a 16.399719,16.399719 0 0 0 -3.07739,3.38562 c -0.80726,-0.044 -1.60474,-0.0881 -2.37776,-0.14678 a 19.193346,19.193346 0 0 1 2.6126,-3.41008 z m -17.56907,-15.26963 c 3.57153,3.96783 10.0688,8.65487 21.03782,9.15879 a 18.943828,18.943828 0 0 0 -4.80445,3.2046 c -10.88096,-1.08614 -17.57392,-4.65767 -21.43901,-7.73996 a 24.951839,24.951839 0 0 1 -4.00208,-3.99229 l 7.14307,-3.24374 a 25.930343,25.930343 0 0 0 2.05486,2.59303 z m -3.0774,-4.17821 c 0.26909,0.44522 0.56754,0.9149 0.89044,1.38948 l -7.15775,3.25352 c -0.36205,-0.46479 -0.68006,-0.90511 -0.94426,-1.3063 z m -9.78503,4.52069 c 0.25441,0.40608 0.54796,0.8464 0.89044,1.31609 l -7.38281,3.35137 0.0881,0.19081 7.42195,-3.37584 c 3.32691,4.48644 10.67548,11.11091 25.72486,13.07281 a 20.333303,20.333303 0 0 0 -2.1576,3.47369 c -23.06822,-2.44626 -30.5391,-12.11388 -32.08024,-14.56014 z m -8.18518,25.87652 a 46.591444,46.591444 0 0 1 -10.7635397,-2.53432 28.151546,28.151546 0 0 1 2.2603397,-6.70764 24.301134,24.301134 0 0 0 8.05308,2.50007 c 0.0734,2.38266 0.22017,4.70661 0.45012,6.72232 z m 6.57065,11.561015 a 39.101,39.101 0 0 1 2.32884,4.84359 21.845091,21.845091 0 0 1 -2.86702,0.48926 18.684524,18.684524 0 0 0 -3.0089,-4.82403 20.641531,20.641531 0 0 0 3.57154,-0.41097 z m 3.25352,7.44641 a 46.200043,46.200043 0 0 1 1.22313,4.5794 20.235452,20.235452 0 0 1 -2.71045,0.48925 39.785952,39.785952 0 0 0 -1.26227,-4.53047 23.180748,23.180748 0 0 0 2.74959,-0.53818 z m -2.23588,-9.93181 a 23.8657,23.8657 0 0 0 -5.07843,-4.12439 c -0.54307,-0.54307 -0.94915,-0.88065 -1.12039,-1.02254 -0.0734,-0.23973 -0.13699,-0.48925 -0.20059,-0.77791 7.26049,2.03529 16.84494,3.74278 29.43338,4.47177 v 3.57643 a 219.94312,219.94312 0 0 1 -23.0144,-2.12336 z m 2.05486,-6.80549 a 0.43054154,0.43054154 0 0 0 -0.31312,-0.44033 0.40118644,0.40118644 0 0 0 -0.48925,0.28377 c -1.06168,-0.22016 -2.08422,-0.45011 -3.06761,-0.68006 a 0.64581231,0.64581231 0 0 0 -0.0685,-0.43543 0.557747,0.557747 0 0 0 -0.79259,-0.21527 0.60667217,0.60667217 0 0 0 -0.26419,0.37672 c -0.45011,-0.11253 -0.89044,-0.22506 -1.32098,-0.34248 a 0.74855518,0.74855518 0 0 0 0.11742,-0.528385 0.68495245,0.68495245 0 0 0 -0.77302,-0.60667 0.72409259,0.72409259 0 0 0 -0.57242,0.80237 c -0.48926,-0.13699 -0.97851,-0.27398 -1.42373,-0.41586 -0.21527,-1.8347 -0.36204,-3.96294 -0.455,-6.15968 6.36027,3.10675 15.98875,6.11565 30.38743,7.304525 0,0.044 0,0.0832 0,0.1272 v 3.49815 a 153.68376,153.68376 0 0 1 -20.94487,-2.56857 z m -9.2175,0.55775 c 0.10763,0.5235 0.22016,1.00786 0.34736,1.42861 l 0.0342,0.10764 0.0881,0.0685 a 22.123964,22.123964 0 0 1 4.13417,4.68704 c -2.16738,0.27887 -7.9748,0.64092 -16.0474497,-1.76131 a 29.844357,29.844357 0 0 1 -0.16146,-7.094145 47.775433,47.775433 0 0 0 11.6050597,2.563675 z m -4.68704,-21.967405 a 13.278293,13.278293 0 0 1 1.07146,-0.90511 3.7280983,3.7280983 0 0 0 2.6175,0.9785 h 0.0245 c -0.044,2.44626 -0.0734,5.91506 0,9.52084 a 21.527077,21.527077 0 0 1 -6.62446,-2.13803 24.716998,24.716998 0 0 1 4.30052,-5.38177 l -0.1321,-0.15656 a 24.682751,24.682751 0 0 0 -4.34945,5.4307 11.516986,11.516986 0 0 1 -1.82001,-1.26717 28.826713,28.826713 0 0 1 4.91208,-6.10097 z m -6.2721997,8.5668 a 14.873253,14.873253 0 0 0 1.8542597,1.23292 28.278751,28.278751 0 0 0 -2.2750197,6.7321 c -0.74856,-0.27887 -1.502,-0.5871 -2.25056,-0.92958 a 39.93762,39.93762 0 0 1 2.67132,-7.05501 z m -3.35138,9.78504 c 0.84151,0.36694 1.68303,0.69963 2.50497,0.9785 a 30.098768,30.098768 0 0 0 0.14188,7.103935 c -1.18399,-0.36205 -2.4169,-0.77791 -3.69874,-1.26227 v 0.0391 a 59.3707,59.3707 0 0 1 1.05189,-6.893555 z m -1.28184,9.701855 c 7.1137197,2.60282 12.8771097,3.21438 16.6834897,3.21438 0.43543,0 0.8464,0 1.23291,-0.0245 a 17.975109,17.975109 0 0 1 3.06761,4.8387 c -8.63529,0.90512 -20.2696997,-1.74663 -21.0916397,-1.95701 -0.0391,-2.00593 -0.01,-4.04611 0.10763,-6.10586 z m 0.26909,12.97496 c -0.11742,-1.29651 -0.21527,-2.64196 -0.28377,-4.01676 2.44626,0.53328 9.9024597,2.03529 17.0406397,2.03529 a 38.939547,38.939547 0 0 0 5.02462,-0.30334 39.707672,39.707672 0 0 1 1.26716,4.53048 73.221417,73.221417 0 0 1 -8.80653,0.44032 h -0.63114 c -3.42476,0 -13.3272097,-1.42372 -13.5131297,-1.46776 q -0.0489,-0.63602 -0.0978,-1.25247 z m 1.18399,9.10008 c -0.26909,-1.60964 -0.5235,-3.28777 -0.74366,-5.02462 2.40712,0.33759 10.0687997,1.36502 13.1755497,1.37969 h 0.64581 a 75.178424,75.178424 0 0 0 9.29578,-0.48925 c 0.22995,1.44329 0.42565,3.01869 0.56753,4.74085 -2.17227,0.16145 -5.38176,0.30823 -9.32024,0.22016 A 110.33605,110.33605 0 0 1 6.5099733,130.09688 Z m 23.1367197,9.78503 -17.81855,-0.64581 a 0.48925175,0.48925175 0 0 0 -0.1321,-0.13699 0.61156469,0.61156469 0 0 0 -0.79259,0.10274 l -0.70941,-0.0293 a 0.16145308,0.16145308 0 0 0 0,-0.0489 0.44032658,0.44032658 0 0 0 -0.8610897,0 l -0.9785,-0.0342 v 0.093 c -0.4599,-1.92765 -0.93936,-4.12928 -1.39437,-6.5364 0.43054,0.0587 1.01275,0.14188 1.72706,0.22506 a 0.43543406,0.43543406 0 0 0 0.48925,0.24462 0.41097147,0.41097147 0 0 0 0.23484,-0.15656 l 0.62624,0.0685 a 0.60177965,0.60177965 0 0 0 0.2446297,0.34737 0.62134972,0.62134972 0 0 0 0.86108,-0.17124 0.29844357,0.29844357 0 0 0 0.0245,-0.0587 c 2.38265,0.23973 5.46005,0.48925 8.89459,0.54796 0.88066,0.0245 1.72217,0.0293 2.52943,0.0293 2.89638,0 5.27414,-0.11742 7.02566,-0.24462 0.0978,1.93744 0.10764,4.06079 0.0294,6.36027 z m 0,-9.17347 c -0.137,-1.72705 -0.3327,-3.30734 -0.56754,-4.75063 a 23.410696,23.410696 0 0 0 2.70067,-0.48925 c 0.24463,1.5656 0.43054,3.21927 0.54796,4.9708 -0.3865,0.01 -1.3014,0.11742 -2.66152,0.22505 z m 2.58814,9.26643 -2.40223,-0.0832 c 0.0783,-2.30927 0.0685,-4.44241 0,-6.41409 1.21824,-0.093 2.10868,-0.19081 2.62239,-0.25441 0.0391,2.07932 -0.0147,4.32988 -0.20059,6.70764 z m -1.90808,-28.56252 c 5.9444,0.78281 12.72054,1.38948 20.51921,1.71728 v 4.46687 c -6.84952,-0.38651 -12.882,-1.047 -18.15613,-1.85427 a 27.750359,27.750359 0 0 0 -2.34351,-4.37391 z m 4.63321,11.55124 a 37.946366,37.946366 0 0 0 -1.12039,-4.21245 c 5.01483,0.70941 10.66569,1.28673 17.00639,1.63409 v 4.40327 c -5.7487,-0.46968 -11.09623,-1.12528 -15.86643,-1.86894 z m 15.886,4.61364 v 4.43752 c -5.05397,-0.3865 -10.27428,-0.89533 -14.93196,-1.38948 -0.0783,-1.56071 -0.22016,-3.16056 -0.45011,-4.77998 4.67725,0.66049 9.84864,1.27695 15.40164,1.68792 z m -13.77733,12.40743 a 0.48925175,0.48925175 0 0 0 -0.33269,-0.43544 0.43543406,0.43543406 0 0 0 -0.54796,0.3278 0.79258784,0.79258784 0 0 0 0,0.10764 h -0.48925 c 0.18591,-1.95701 0.31312,-4.17821 0.30334,-6.56087 4.64299,0.48925 9.84374,0.9785 14.86346,1.36991 v 4.81424 c 0,0.11742 0,0.23483 0,0.35226 z M 20.326443,90.120125 c -0.0734,-3.42476 -0.0538,-6.7321 0,-9.18325 3.66939,4.22224 12.45635,11.15983 31.53716,13.32721 a 21.527077,21.527077 0 0 0 -0.83172,3.61068 c -15.12277,-1.25248 -24.74636,-4.5745 -30.70544,-7.75464 z m 30.70544,50.162975 c 0,-0.11742 0,-0.23483 0,-0.35226 v -4.82401 l 2.20163,0.15656 v 3.50794 c 0,0.48925 0.0245,1.01275 0.0636,1.51177 z m 2.44626,0 c -0.0391,-0.48925 -0.0636,-1.00296 -0.0636,-1.51177 v -3.49326 l 2.01083,0.1272 v 1.85427 a 18.630707,18.630707 0 0 0 0.24952,3.02357 z m 0.27398,-42.193065 a 18.973183,18.973183 0 0 1 1.0421,-3.53239 c 0.7241,0.0587 1.46776,0.11252 2.21631,0.15656 a 18.102315,18.102315 0 0 0 -1.14974,3.49815 z M 139.2244,137.25953 c 0,8.98266 -6.62936,16.29697 -14.77541,16.29697 H 70.910183 c -8.14605,0 -14.77541,-7.31431 -14.77541,-16.29697 v -35.05978 c 0,-8.987555 6.62936,-16.301865 14.77541,-16.301865 h 4.09503 l 0.25441,-20.43115 19.41841,20.43115 h 29.775857 c 8.14604,0 14.7754,7.33878 14.7754,16.301865 z M 77.745023,59.757165 h -0.21038 v 6.12054 h 0.21038 z m -55.60835,37.55007 a 0.52349937,0.52349937 0 0 0 -0.41097,0.59689 0.48925175,0.48925175 0 0 0 0.56264,0.43543 0.51860686,0.51860686 0 0 0 0.41097,-0.59689 0.48925175,0.48925175 0 0 0 -0.56264,-0.43543 z m 5.13225,7.368135 a 0.3620463,0.3620463 0 1 0 0.33269,0.37182 0.34736874,0.34736874 0 0 0 -0.33269,-0.37182 z m -2.84745,-0.78769 a 0.33269119,0.33269119 0 0 0 -0.44521,0.19569 0.37672385,0.37672385 0 0 0 0.18591,0.48925 0.33269119,0.33269119 0 0 0 0.44522,-0.19569 0.37672385,0.37672385 0 0 0 -0.18592,-0.48925 z m 1.01765,1.16442 a 0.33758371,0.33758371 0 0 0 -0.44522,0.19569 0.36693881,0.36693881 0 0 0 0.18591,0.48925 0.33269119,0.33269119 0 0 0 0.44522,-0.19569 0.37672385,0.37672385 0 0 0 -0.18591,-0.48925 z m 43.82717,-40.245855 -0.0538,-0.2006 c -9.35938,2.37287 -15.60713,-2.71045 -15.65605,-2.75938 l -0.1321,0.15656 a 18.214843,18.214843 0 0 0 10.85649,3.42477 20.176742,20.176742 0 0 0 4.98548,-0.62135 z m -17.40758,-4.37881 h -0.21038 l -0.41097,6.13522 h 0.20549 z m -1.40904,-1.03232 -0.21038,-0.0293 -0.74366,5.63129 h 0.20548 z m -24.17393,39.62939 a 0.41097147,0.41097147 0 0 0 -0.48925,0.3327 0.44032658,0.44032658 0 0 0 0.31312,0.52349 0.41097147,0.41097147 0 0 0 0.48925,-0.33269 0.44032658,0.44032658 0 0 0 -0.31312,-0.53328 z m 36.23888,-32.9511 -0.48926,-0.093 a 3.8210562,3.8210562 0 0 0 3.01379,4.34945 l 0.1321,-0.48925 c -3.16546,-0.87087 -2.6811,-3.67428 -2.65663,-3.76724 z m -35.15764,34.154665 a 0.54796196,0.54796196 0 0 0 -0.17123,0.7241 0.48925175,0.48925175 0 0 0 0.68006,0.18591 0.54796196,0.54796196 0 0 0 0.17123,-0.72409 0.48925175,0.48925175 0 0 0 -0.68006,-0.21038 z m -4.89251,-5.186065 a 0.48925175,0.48925175 0 0 0 -0.67028,0.22016 0.54796196,0.54796196 0 0 0 0.20549,0.71431 0.48925175,0.48925175 0 0 0 0.67027,-0.22017 0.54796196,0.54796196 0 0 0 -0.22505,-0.73877 z M 8.5354733,126.74062 a 0.3620463,0.3620463 0 1 0 0.38162,0.34247 0.3620463,0.3620463 0 0 0 -0.38162,-0.34247 z M 23.897973,95.780775 a 0.34736874,0.34736874 0 0 0 -0.3914,-0.30334 0.35715378,0.35715378 0 0 0 -0.28376,0.41097 0.33758371,0.33758371 0 0 0 0.38651,0.30334 0.3620463,0.3620463 0 0 0 0.28865,-0.3963 z m 0.0294,2.17717 a 0.5871021,0.5871021 0 0 0 -0.36694,0.72898 0.54796196,0.54796196 0 0 0 0.68985,0.3914 0.59199462,0.59199462 0 0 0 0.36204,-0.71431 0.53817693,0.53817693 0 0 0 -0.68495,-0.3914 z m 43.54341,46.562075 a 0.54796196,0.54796196 0 0 0 -0.64582,-0.48925 0.65070483,0.65070483 0 0 0 -0.54307,0.68985 0.56263951,0.56263951 0 0 0 0.65071,0.48925 0.64581231,0.64581231 0 0 0 0.54796,-0.67517 z M 61.927513,11.071722 h 1.06168 v 3.366052 a 4.1928875,4.1928875 0 0 1 -0.9785,-1.169312 1.1324078,1.1324078 0 0 0 -1.95701,1.139957 6.2477449,6.2477449 0 0 0 1.42372,1.712386 4.5598263,4.5598263 0 0 0 2.18206,1.0421 1.5215729,1.5215729 0 0 0 0.21038,0 1.3601199,1.3601199 0 0 0 0.30823,-0.0538 1.3160872,1.3160872 0 0 0 0.30334,0.0538 0.9785035,0.9785035 0 0 0 0.20548,0 4.5451488,4.5451488 0 0 0 2.17717,-1.03232 c 12.15302,-0.27398 16.96725,-2.402226 17.01618,-2.446259 l -0.0881,-0.185915 c -0.0489,0 -4.76531,2.103784 -16.68837,2.397334 a 6.3602728,6.3602728 0 0 0 1.19866,-1.506896 1.1324064,1.1324064 0 0 0 -1.957,-1.139957 3.914014,3.914014 0 0 1 -1.1106,1.272055 v -3.468795 h 1.20355 a 1.1350641,1.1350641 0 1 0 0,-2.265236 h -1.20355 V 7.808413 a 1.130175,1.130175 0 1 0 -2.26035,0 v 0.978503 h -1.06167 a 1.1350641,1.1350641 0 0 0 0,2.265236 z M 61.898113,5.005 a 0.43054154,0.43054154 0 0 0 0.38161,-0.489251 0.41586399,0.41586399 0 0 0 -0.43543,-0.410972 0.42564902,0.42564902 0 0 0 -0.38162,0.489252 0.42075651,0.42075651 0 0 0 0.43544,0.410971 z m -1.46776,-2.270128 a 0.55285448,0.55285448 0 0 0 0,-0.748555 0.48925175,0.48925175 0 0 0 -0.69963,0 0.54796196,0.54796196 0 0 0 0,0.743663 0.48925175,0.48925175 0 0 0 0.70942,0.0049 z m 2.25545,0.303336 a 0.64581231,0.64581231 0 0 0 0,-0.87576 0.55285448,0.55285448 0 0 0 -0.81705,0 0.64581231,0.64581231 0 0 0 0,0.87576 0.55285448,0.55285448 0 0 0 0.82684,0 z m -3.15078,1.761307 a 0.34247623,0.34247623 0 0 0 0.37673,-0.318014 0.35226126,0.35226126 0 0 0 -0.29845,-0.401186 0.34736874,0.34736874 0 0 0 -0.37672,0.318013 0.35715378,0.35715378 0 0 0 0.30823,0.401187 z m 4.46198,0.200593 a 0.68495245,0.68495245 0 0 0 0.75345,-0.636027 0.71430756,0.71430756 0 0 0 -0.59689,-0.802373 0.68984497,0.68984497 0 0 0 -0.75345,0.636027 0.71430756,0.71430756 0 0 0 0.60667,0.802373 z m -0.0685,-2.901263 a 0.43543406,0.43543406 0 0 0 0.38651,-0.464789 0.42075651,0.42075651 0 0 0 -0.43543,-0.410972 0.44032658,0.44032658 0 0 0 0.0489,0.875761 z m 4.17332,53.06914 -0.1321,-0.16146 a 6.2575299,6.2575299 0 0 1 -3.5324,1.2476 8.1411491,8.1411491 0 0 1 -3.91401,-1.25738 l -0.11742,0.17613 a 8.2194294,8.2194294 0 0 0 4.01186,1.29162 6.3602728,6.3602728 0 0 0 3.69386,-1.29651 z m 11.30661,-10.18133 -0.1957,-0.0685 c -1.5705,4.65279 -3.77213,8.17051 -6.5413,10.46021 l 0.1321,0.16145 c 2.79363,-2.31416 5.01483,-5.86613 6.6049,-10.55316 z m -28.55273,9.06094 a 26.419595,26.419595 0 0 1 -2.80342,-9.29578 h -0.20548 a 26.537015,26.537015 0 0 0 2.82298,9.38385 z m 7.33877,-50.270616 a 0.43543406,0.43543406 0 0 0 0.38651,-0.489252 0.41097147,0.41097147 0 1 0 -0.38651,0.489252 z m 25.7004,12.392746 -0.0881,-0.19081 c -0.0489,0.0245 -5.51387,2.44626 -19.53582,2.44626 -14.02196,0 -19.57007,-2.41201 -19.63367,-2.44626 l -0.0881,0.19081 c 0.0587,0.0245 5.64107,2.44626 19.72174,2.44626 14.08066,0 19.57007,-2.44626 19.62389,-2.44626 z M 56.379403,3.595955 a 0.34736874,0.34736874 0 0 0 0.38161,-0.318013 0.36693881,0.36693881 0 0 0 -0.30333,-0.410972 0.35715378,0.35715378 0 0 0 -0.38162,0.322906 0.36693881,0.36693881 0 0 0 0.30334,0.386509 z M 9.4846233,128.46767 a 0.44032658,0.44032658 0 0 0 0.20059,0.8562 0.44032658,0.44032658 0 0 0 -0.20059,-0.8562 z m 51.5671297,8.54723 a 0.35226126,0.35226126 0 0 0 -0.28866,0.40608 0.34247623,0.34247623 0 0 0 0.41587,0.2642 0.3620463,0.3620463 0 0 0 0.29355,-0.41097 0.35226126,0.35226126 0 0 0 -0.42076,-0.25931 z m 0.23974,-4.52558 a 0.48925175,0.48925175 0 0 0 0.3865,-0.53817 0.48925175,0.48925175 0 0 0 -0.55774,-0.34737 0.48925175,0.48925175 0 0 0 -0.38651,0.53818 0.45500413,0.45500413 0 0 0 0.57242,0.36693 z m -50.86751,2.76917 a 0.72898511,0.72898511 0 1 0 -0.6898397,0.76323 0.71920007,0.71920007 0 0 0 0.6898397,-0.76323 z m 52.52607,5.07355 a 0.48925175,0.48925175 0 0 0 -0.55286,-0.43055 0.55285448,0.55285448 0 0 0 -0.45989,0.5871 0.48925175,0.48925175 0 0 0 0.55285,0.43054 0.54796196,0.54796196 0 0 0 0.47458,-0.58709 z m -1.46776,-10.65102 a 0.35715378,0.35715378 0 0 0 0.29356,-0.41096 0.34736874,0.34736874 0 0 0 -0.42076,-0.2642 0.35715378,0.35715378 0 0 0 -0.29355,0.41097 0.34736874,0.34736874 0 0 0 0.41586,0.25931 z m 0.17124,5.15182 a 0.72898511,0.72898511 0 0 0 -0.59199,0.82194 0.69473749,0.69473749 0 0 0 0.8464,0.52839 0.72409259,0.72409259 0 0 0 0.592,-0.82194 0.69963,0.69963 0 0 0 -0.8513,-0.52839 z m -0.18102,-1.57539 a 0.3620463,0.3620463 0 0 0 -0.29355,0.41586 0.34736874,0.34736874 0 0 0 0.42075,0.2642 0.3620463,0.3620463 0 0 0 0.29356,-0.41586 0.34736874,0.34736874 0 0 0 -0.42565,-0.2642 z m 3.37584,11.08644 a 0.41586399,0.41586399 0 0 0 0.0734,0.59201 0.43054154,0.43054154 0 0 0 0.592,-0.11253 0.42075651,0.42075651 0 0 0 -0.0734,-0.59199 0.42564902,0.42564902 0 0 0 -0.59689,0.12231 z m -2.04508,-2.66641 a 0.3620463,0.3620463 0 0 0 -0.0293,0.48925 0.35226126,0.35226126 0 0 0 0.48925,0 0.3620463,0.3620463 0 0 0 0.0294,-0.48925 0.35226126,0.35226126 0 0 0 -0.49415,0 z m 4.10483,1.30629 a 0.72409259,0.72409259 0 0 0 0.0538,-1.00296 0.69473749,0.69473749 0 0 0 -0.9785,0 0.70941504,0.70941504 0 0 0 -0.0538,0.9785 0.69473749,0.69473749 0 0 0 0.97361,0.0245 z m -0.5235,-2.05484 a 0.41294958,0.41294958 0 1 0 -0.66539,-0.48925 0.42075651,0.42075651 0 0 0 0.0734,0.59688 0.43543406,0.43543406 0 0 0 0.592,-0.10763 z m -1.34545,1.60474 a 0.54796196,0.54796196 0 0 0 -0.64581,-0.48925 0.64581231,0.64581231 0 0 0 -0.54307,0.68985 0.557747,0.557747 0 0 0 0.65071,0.48925 0.65070483,0.65070483 0 0 0 0.53817,-0.70942 z m -1.07146,-3.87977 a 0.43054154,0.43054154 0 0 0 -0.52839,-0.28865 0.42564902,0.42564902 0 0 0 -0.31801,0.48925 0.43054154,0.43054154 0 0 0 0.52839,0.28865 0.42564902,0.42564902 0 0 0 0.31801,-0.50882 z m -1.82001,0.0391 a 0.3620463,0.3620463 0 0 0 0.29355,-0.40608 0.34736874,0.34736874 0 0 0 -0.42076,-0.2642 0.35226126,0.35226126 0 0 0 -0.28866,0.40608 0.34247623,0.34247623 0 0 0 0.41587,0.24463 z m -25.3041,-1.43351 a 0.51860686,0.51860686 0 0 0 -0.26909,0.68006 0.48925175,0.48925175 0 0 0 0.6507,0.30333 0.51860686,0.51860686 0 0 0 0.26909,-0.68006 0.48925175,0.48925175 0 0 0 -0.6507,-0.30333 z m 0.48925,-2.24567 a 0.33269119,0.33269119 0 0 0 -0.41587,0.24952 0.37672385,0.37672385 0 0 0 0.24952,0.44522 0.33269119,0.33269119 0 0 0 0.41587,-0.24952 0.37672385,0.37672385 0 0 0 -0.24952,-0.44522 z m 0.87087,4.15864 a 0.33269119,0.33269119 0 0 0 -0.41587,0.24952 0.38161637,0.38161637 0 0 0 0.24952,0.45011 0.33269119,0.33269119 0 0 0 0.41586,-0.24952 0.38650888,0.38650888 0 0 0 -0.22994,-0.45011 z m -28.07816,-1.99614 a 0.72898511,0.72898511 0 0 0 -0.6898497,0.76323 0.73387763,0.73387763 0 0 0 0.7681297,0.68984 0.72898511,0.72898511 0 0 0 0.68984,-0.76323 0.73387763,0.73387763 0 0 0 -0.74855,-0.68984 z m 11.57569,-49.903675 a 0.45500413,0.45500413 0 0 0 -0.51371,-0.3963 0.48925175,0.48925175 0 0 0 -0.37183,0.54307 0.45011161,0.45011161 0 0 0 0.48925,0.40119 0.48925175,0.48925175 0 0 0 0.41586,-0.53329 z m -10.72439,48.881135 a 0.62134972,0.62134972 0 1 0 0.86108,-0.17124 0.62134972,0.62134972 0 0 0 -0.84151,0.18592 z m 52.13956,1.35034 a 0.48925175,0.48925175 0 0 0 0.3865,-0.54306 0.45500413,0.45500413 0 0 0 -0.55285,-0.34738 0.48925175,0.48925175 0 0 0 -0.3914,0.54307 0.48925175,0.48925175 0 0 0 0.55775,0.34737 z m 5.24967,4.93165 a 0.3620463,0.3620463 0 0 0 0.0245,-0.48925 0.35226126,0.35226126 0 0 0 -0.48925,0 0.36693881,0.36693881 0 0 0 0,0.48925 0.35226126,0.35226126 0 0 0 0.46479,0.0147 z m -3.88956,-2.95997 a 0.35715378,0.35715378 0 0 0 0.33759,-0.37182 0.34247623,0.34247623 0 0 0 -0.38651,-0.31312 0.36693881,0.36693881 0 0 0 -0.34248,0.37672 0.35226126,0.35226126 0 0 0 0.3914,0.32291 z m -0.48925,1.60965 a 0.45989665,0.45989665 0 0 0 0.65071,0 0.48925175,0.48925175 0 0 0 0.0343,-0.6605 0.45989665,0.45989665 0 0 0 -0.65071,0 0.48925175,0.48925175 0 0 0 -0.044,0.67517 z M 21.676773,88.989955 a 0.36693881,0.36693881 0 0 0 -0.28866,0.41586 0.34736874,0.34736874 0 0 0 0.3914,0.30334 0.3620463,0.3620463 0 0 0 0.28377,-0.41586 0.34736874,0.34736874 0 0 0 -0.38651,-0.30334 z m 46.52295,55.623025 a 0.69473749,0.69473749 0 0 0 0.9785,0 0.71920007,0.71920007 0 0 0 0.0538,-1.00296 0.69473749,0.69473749 0 0 0 -0.9785,0 0.72409259,0.72409259 0 0 0 -0.0636,1.00296 z m 2.73981,0.92958 a 0.42075651,0.42075651 0 0 0 -0.0734,-0.59689 0.44032658,0.44032658 0 1 0 0.0734,0.59689 z"
     class="cls-1" />
</svg>
